<?xml version="1.0" encoding="UTF-8"?>
<svg id="_레이어_1" xmlns="http://www.w3.org/2000/svg" version="1.1" viewBox="0 0 169.6 269.61">
  <!-- Generator: Adobe Illustrator 29.8.1, SVG Export Plug-In . SVG Version: 2.1.1 Build 2)  -->
  <defs>
    <style>
      .st0 {
        fill: #a48767;
      }

      .st1 {
        fill: #642541;
      }

      .st2 {
        fill: #2c2e29;
      }

      .st3 {
        fill: #dc9a8f;
      }

      .st4 {
        fill: #2e292d;
      }

      .st5 {
        fill: #59203a;
      }

      .st6 {
        fill: #231815;
      }

      .st7 {
        fill: #752745;
      }

      .st8 {
        fill: #673b4a;
      }

      .st9 {
        fill: #3f413b;
      }

      .st10 {
        fill: #221c23;
      }

      .st11 {
        fill: #e1ded2;
      }

      .st12 {
        fill: #e4d5d9;
      }

      .st13 {
        fill: #c6cdce;
      }
    </style>
  </defs>
  <path class="st10" d="M39.69,249.38c.5-1.95,2.24-3.69,2.11-5.48-3.03-10.75-7.26-21.27-8.9-32.38-.38-2.54-.32-9.97-1.13-11.42-1.3-2.36-5.75,1.56-7.89,2.01-8.25,1.74-15.08-4.2-17.31-11.81-.84-2.87-.64-6.39-1.32-8.72-.27-.93-1.55-1.58-1.88-3.41-.3-1.67.18-3.59-.24-5.05-.44-1.55-2.46-2.87-2.92-6.06-2.19-15.29,12.97-44.6,21.62-57.37.81-1.19,4.96-6.01,5.11-6.56.33-1.23-.84-4.12-.97-5.7-.24-2.99.09-5.08,1.11-7.85,1.41-3.81,4.39-5.99,4.07-10.59-4.3-2.64-4.53-6.07-2.32-10.38.83-1.62,2.29-2.64,2.91-4.49,1.66-5.01,2.1-13.1,3.45-18.74.5-2.08,2.96-7.61,2.12-8.98-.36-.59-2.38-1.41-3.16-2.13-6-5.55-7.58-14.84-3.53-22.01C37.55-.03,54.6.99,59.49,14.19c1.73-1.44,4.47-2.67,6.62-3.42,2.36-.83,6.61-1.29,8.41-2.15,1.43-.68,4.94-4.91,7.35-6.38,4.4-2.69,7.9-4.08,9.05,2.45,2.31-1.07,4.93-1.49,7.24-.12,2.65,1.57,1.17,3.8,1.8,4.8.34.54,10.67,2.65,11.82,4.82,1.68-5.7,6.64-10.04,12.68-10.56,15.58-1.34,24.41,18.94,13.41,29.79-1.38,1.36-4.19,2.09-4.2,4.27,0,1.9,2.47,8.59,3.04,11.28.93,4.42,1.27,11.8,2.52,15.44.94,2.72,4.05,4.44,4.47,8.23.57,5.19-3.34,4.57-3.69,7.31-.6,4.74,1.46,5.07,2.93,8.76,1.2,3.02,1.58,5.99,1.32,9.24-.11,1.4-1.2,3.65-.96,4.65.19.8,7.55,10.33,8.79,12.36,7.04,11.56,21.93,43.03,16.24,55.69-.42.95-1.57,1.73-1.77,2.45-.58,2.04.17,4.52-.78,7.15-1.33,3.69-1.4,5.97-2.49,9.66-2.48,8.36-10.21,14.64-19.14,11.74-1.72-.56-5.06-3.72-6.23-1.57-.8,6.59-1.49,13.19-2.9,19.69-1.9,8.77-5.79,17.2-6.9,25.9.46,1.21,1.53,2.5,1.88,3.69,1.84,6.27-2.03,10.44-8.18,11.1-6.65.71-19.52,1.01-25.06-2.94-3.5-2.5-4.75-7.78-5.32-11.86-.19-1.39.18-3.05,0-4.49-.66-5.01-1.05-10.08-2.16-15.01h-7.81c-.75.64-2.22,16.91-2.7,19.5-1.19,6.51-1.51,10.49-8.09,13.31-4.67,2-20.15,2.53-25.2,1.24s-7.05-5.96-5.79-10.85v.02h0ZM41.27,28.46c.68-.9,5.98-5.05,7.39-6.34,3.59.4,7.82-1.18,11.44-2.03,19.95-4.65,34.71-4.57,54.58.97,3.17.88,6.24,2.17,9.51,2.64,1.3,1.27,4.16,3.22,5.28,4.76.92,1.27,1.81,5.62,3.72,5.08.9-.25,3.81-3.18,4.43-4.06,4.67-6.64,2.73-15.86-3.66-20.58-2.46-1.82-4.07-2.6-6.86-1.01-1.78-.16.04-2.42-4.26-1.13-4.52,1.35-8.72,4.35-8.69,9.53-.26,0-.82.54-1.06.53-4.13-.12-8.27-4.12-12.55-4.62-2.09-.24-3.42.23-5.4.39-.63-.56,4.11-4.78,1.24-5.73-3.64-1.2-6.39,1.84-9.69,2.03l1.06-5.81c-5.69-.68-8.42,5.43-12.69,8.18-6.16.7-11.57,3.59-17.13,6.09-1.46-3.66-2.22-6.27-5.6-8.68-5.01-3.57-10.47-3.08-15.46.32-4.06,2.76-5.51,7.79-4.22,12.5.65,2.39,3.48,5.19,3.77,7.37.28,2.05-1.49,3.84,1.13,4.66.57.18,1.06.41,1.63,0,.66-.48,1.72-4.57,2.09-5.06h0ZM31.76,22.64c-.04-1.67.07-3.35,0-5.02-.03-.64.4-1.97-.52-1.84-.14,2.03-.82,4.01-.53,6.09.1.72.38,1.66,1.05.78h0ZM76.13,20c-.35-.02-.7,0-1.06,0l-.27-.53-.79.53c-.69.05-1.43-.08-2.11,0-4.42.55-9.82,2.2-14.26,3.17-.66.03-1.86.37-2.64.53-.43.08-.89,0-1.06.53-.56-.01-1.48.38-2.11.53-3.65.84-5.07,2.47-7.39,5.29-1.81,2.19-4.34,5.33-3.96,8.46,13.77-4.85,28.42-7.69,43.04-7.93,1.4-.02,2.82-.02,4.23,0,11.86.18,23.66,2.13,35.08,5.33,1.24.35,7.87,2.95,8.23,2.6-2.1-11.48-10.66-13.81-20.59-16.12-5.37-1.25-10.9-2.23-16.38-2.9-.1-.01-.57-.48-1.27-.55-2.07-.21-6.15-.52-6.91,1.61-1.03-1.93-5.7-1.66-7.95-1.59-1.02.03-2.12-.54-1.82,1.05h-.01ZM33.35,67.04c-3.42,2.63-5.53,9.45,1.06,8.46.27,3.05-1.95,6.02-.45,8.91,4.52-.83,4.9,2.29,7.3,4.59,14.83,14.14,32.27,18.1,52.57,16.09,15.44-1.53,24.53-5.56,35.67-16.1,2.48-2.34,2.9-5.5,7.38-4.51.34-2.54-.22-4.99-.53-7.4-.09-.68.05-1.43,0-2.11,9.46,2.14,1.68-7.49-.31-11.06-.24-7.58-2.06-14.99-4.19-22.23-25.59-9.7-53.13-10.95-79.6-4.08-1.78.46-11.77,3.32-12.54,3.83-1.22.82-1.29,2.32-1.67,3.62-1.73,5.95-3.69,15.85-4.69,22h0ZM70.32,119.37c.34.29.39,1.72,1.06,2.11-.05.07-.51,1.5-.53,1.59-9.18-4.56-19.61-6.23-29.05-10.31-3.01-1.3-9.13-5.53-11.62-6.08-.15-.03-.35.01-.53,0v-1.05c-1.48-.39-1.52.54-2.11,1.05-5.3,4.6-13.68,22.16-16.63,29.08-2.98,6.99-7.77,18.24-8.21,25.6-.53,8.82,1.19,8.96,8.47,11.38,2.13.71,2.78,1.17,5.28,1.59,1.04.17,2.12.46,3.17.53,1.4.09,2.83-.06,4.23,0,.35-15.73,5.92-30.92,10.03-45.98.04-.16-.05-.36,0-.53h3.17c0,1.04.07,2.13,0,3.17-1.56-.32-.93.78-1.2,1.68-4.07,13.75-9.86,30.77-8.86,45.12.45,6.55,1.79,8.92,7.96,11.06s15.36,3.73,21.64,4.5c5.06.62,11.83,1.16,16.9,1.06.63.67,2.15.95,2.64,0,11.64,1.91,25.61-.63,37.5-1.06.58-.02,1.33.16,1.58-.53.68.05,1.43.03,2.11,0,4.58-.21,15.56-2.86,19.65-4.91,3.38-1.69,4.52-2.9,5.46-6.69,2.17-8.75-1.04-23.9-3.19-32.8-1.64-6.8-4.77-13.55-5.02-20.61.17-.16-.42-1.59,1.85-1.07.58.18.11,1.36.26,1.6,3.06,11.49,7.12,22.9,8.89,34.71.57,3.76.44,7.51,1.2,11.22,1.38.12,2.79.1,4.17.06,4.23-.11,14.33-2.16,15.72-6.74,2.24-7.39-.68-14.68-3.02-21.56-4.53-13.33-11.33-28.36-20.09-39.35-.49-.61-.96-1.31-1.07-2.11h-.77c-10.89,9.88-26.78,11.49-39.89,17.44-1.19.34-1.02,1.54-1.1,2.61l-1.02.03c-.17-1.11.38-3.68-1.06-4.23v-1.58l2.83.57c.58-.12.29-1.06.34-1.1,2.91-2.13,14.99-4.42,19.53-6.09,4.81-1.76,17.18-6.73,19.43-11.21,1.93-3.84,1.75-10.65-1.29-13.8-1.56-.1-3.44-.39-4.91.2-1.94.78-10.88,9.85-13.8,12.09-8.04,6.16-17.08,11.16-25.28,16.99-1.49,1.06-9.6,8.77-10.26,8.65-3.54-2.39-6.63-6.13-9.88-8.65-9.65-7.51-20.47-13.49-30.03-21.22-2.12-1.72-5.62-5.95-7.67-7.12-1.41-.8-3.64-.48-5.24-1.47-4.27,3.13-4.43,10.23-2.03,14.56s15.61,9.34,20.57,11.13c3.57,1.29,17.97,4.96,19.68,6.47h.04ZM96.73,113.02c.96-.68,5.8-3.22,6.1-3.68l.26-.81-.9-1.26c-3.98.01-8.11,1.28-12.07,1.51-8.16.47-16.24-1.16-24.29-2.11l-.26,1.05c3.84.84,6.43,5.46,10.03,5.82.03,1.39,1.44,1.49,2.64,2.64,1.06,1.02,5.42,5.82,6.59,5.82,3.01-1.25,5.16-3.99,7.67-5.82,1.4-1.02,2.83-2.19,4.23-3.17h0ZM8,179.62c3.71,2.52,11.95,2.72,16.38,2.64v-1.59c-.01-.73-.08-3-.88-3.19-3.46.09-7.01,0-10.42-.56-2.47-.39-5.67-3.16-6.68.34-.13,1.4.69,1.72,1.61,2.35h-.01ZM163.81,175.39c-6.17.8-11.33,3.61-17.88,2.71l-.54,4.1c1.15,1.34,12.83-.8,14.89-1.64,2.23-.91,4.04-2.61,3.54-5.18h0ZM8.53,187.54c.46,2.2,2.27,7.05,3.97,8.45.76.63,1.69.42,2.35.85,1.84,1.19.23,1.15,3.72,1.8,1.71.32,3.43,1.02,5.44.42.24-.07,3.98-2.67,4.11-2.89.27-.43.97-5.24.89-5.67-.17-.9-3.33-3.78-3.12-5.53-6.22.24-11.92-.47-17.88-2.19-.33,1.79.19,3.14.52,4.75h0ZM161.17,188.07c.41-1.71.64-3.51.52-5.28-4.94,3.04-11.91,1.17-16.64,2.1-.62.12-3.63,4.42-3.82,5.16-.48,1.87.22,4.18-.54,6.16l.36.6c3.48,3.02,6.72,3.21,10.99,1.94.59-.18,3.68-1.14,3.33-2.22,3.16-.37,5.1-5.52,5.81-8.46h-.01ZM137.93,192.83c-.08-.25.12-.7,0-1.03-.94-.71-11.03,2.45-13.18,2.89-21.07,4.33-47,4.36-68.35,1.77-8.21-1-16.31-2.79-24.34-4.73-.51.11.06,1.95-1.32,1.64v1.02l1.04.32-.33,1.84c.35.51,1.07.34,1.37.5,15.88,8.35,62.7,7.48,81.01,5.22,3.99-.49,22.65-3.47,24.39-6.27.51-1.01.04-2.19-.29-3.18h0ZM34.94,205.51c.36,3.76.97,7.52,1.74,11.21,2.07,9.9,6.16,19.33,8.19,29.09-2.52,2.78-4.54,9.63.08,11.26,4.37,1.54,16.72.85,21.68.24,2.77-.34,6.71-1.78,7.75-4.65.92-2.54,1.76-8.09,2.23-10.99s1.58-9.38,1.66-12.13c.2-6.99-7.65-2.41-8.46-8.16,7,1.77,14.13,2.81,21.41,2.13,3.28-.3,5.93-2.3,9.22-2.13.74,3.5-5.41,3.91-7.92,4.23.56,5.84.82,11.82,1.65,17.63,1.25,8.66.89,12.66,10.49,14.08,4.76.7,6.81.22,11.33-.02,5.71-.31,13.13,1.96,11.26-6.99-.3-1.45-1.78-3.09-2.18-4.73-.79-3.28,3.2-10.56,4.24-14.06,2.6-8.74,3.94-16.42,4.92-25.47.11-1.01,1.55-4.86-.26-4.76l-28.79,5.29c-13.58.14-27.41.57-41.2-.53-9.9-.79-19.55-2.9-29.31-4.76-.47,1.23.12,2.86.26,4.24v-.02h0Z"/>
  <path class="st6" d="M91.45,245.68c.56,4.08,1.82,9.36,5.32,11.86,5.54,3.95,18.41,3.65,25.06,2.94,6.16-.66,10.02-4.83,8.18-11.1,3.43.8,14.62,3.42,14.8,7.71,0,1.05-1.21,2.71-2,3.39-4.36,3.76-21.79,6.58-27.92,7.33-23.4,2.84-57.9,2.84-80.48-3.9-2.74-.82-10.77-3.13-10.46-6.79,2.75-5.78,10.28-6.16,15.74-7.75-1.25,4.9.69,9.55,5.79,10.85s20.52.76,25.2-1.24c6.59-2.82,6.9-6.79,8.09-13.31h12.68Z"/>
  <path class="st7" d="M101.49,118.84l-3.4-1.09c-1.74.13-1.53,1.78-1.88,2.14-.17.18-.35.35-.53.53-.29.29-.81-.81-1.06,1.06-.02.17,0,.35,0,.53-1.39-.22-2.09,2-2.11,3.17-.03,1.96,1.86.43,2.12,2.37l.63,18.92c1.88,3.13,6.21,4.65,6.76-.15.4-3.51-.11-7.95,0-11.63.05-1.74-.14-3.58,0-5.29.09-1.11.97-3.05.59-4.7,7.69-2.59,15.68-4.5,23.12-7.78,5.97-2.63,9.48-5.94,14.83-8.95.92-.51,1.39-1.08,2.66-.77,8.76,11,15.56,26.02,20.09,39.35,2.34,6.88,5.26,14.17,3.02,21.56-1.39,4.57-11.49,6.62-15.72,6.74-.66-3.71-.59-7.49-1.2-11.22-1.36-8.41-6.95-24.12-10.76-32.04-.95-1.98-2.16-2.5-2.3-2.72-.15-.24.32-1.42-.26-1.6-2.27-.52-1.69.91-1.85,1.07-.07.07-.72-.15-.93.1-.28.32.32,5.95.47,6.97,2.56,17.62,14.8,45.71-8.52,54.49-2.45.92-7.06.93-7.92,3.44-.69.03-1.43.05-2.11,0-.14,0-.84-.86-1.58-.52v1.05c-11.89.43-25.86,2.97-37.5,1.06-1.88-.31-1.57-.02-2.64,0-5.07.1-11.84-.44-16.9-1.06.32-1.56-.78-.93-1.68-1.2-8.09-2.43-14.65-3.19-20.49-10.18-10.3-12.34,1.67-36.98,2.63-50.99.07-1.04,0-2.13,0-3.17,0-.25.72-.75.29-1.57-2.35-2.36-2.84-.64-3.46,1.57-.05.16.04.36,0,.53-1.28-.25-2.08,2.66-2.46,3.61-3.11,7.69-6.4,16.06-8.77,23.99-1.82,6.1-3.69,11.91-3.03,18.37-1.05-.07-2.12-.36-3.17-.53-.03-2.44-3.26-1.3-4.97-1.99l-.31.4c-7.28-2.43-8.99-2.56-8.47-11.38.44-7.36,5.23-18.62,8.21-25.6,2.95-6.92,11.33-24.48,16.63-29.08.7.03,1.41-.04,2.11,0,.18.01.37-.03.53,0-.08,1.19.82,1.36,1.51,1.92,10.65,8.73,23.04,11.22,35.77,15.5.68.96-2.33,18.82-.24,22.94,2.33,4.59,9.26,2.87,8.36-3.07-.17-1.12-1.04-1.9-1.06-3.19-.03-1.82,1.21-11.61,1.61-13.76.22-1.15,1.31-1.47,1.58-2.68.52-2.41-.98-1.71-1.05-1.82-.24-.36-.18-1.34-.81-2.08-1.65-1.96-3.69-4.37-5.53-1.09-1.71-1.5-16.11-5.18-19.68-6.47-4.96-1.79-18.13-6.73-20.57-11.13s-2.24-11.43,2.03-14.56c1.59.99,3.83.67,5.24,1.47,2.05,1.17,5.55,5.41,7.67,7.12,9.55,7.72,20.38,13.71,30.03,21.22,3.25,2.52,6.33,6.26,9.88,8.65.66.12,8.77-7.59,10.26-8.65,8.2-5.83,17.24-10.83,25.28-16.99,2.92-2.24,11.86-11.31,13.8-12.09,1.48-.59,3.35-.3,4.91-.2,3.04,3.15,3.22,9.96,1.29,13.8-2.25,4.48-14.62,9.44-19.43,11.21-4.55,1.67-16.62,3.96-19.53,6.09l-.03.05h0Z"/>
  <path class="st9" d="M33.35,67.04c1-6.15,2.96-16.05,4.69-22,.38-1.29.45-2.8,1.67-3.62.77-.52,10.76-3.37,12.54-3.83,26.48-6.87,54.01-5.62,79.6,4.08,2.13,7.24,3.95,14.65,4.19,22.23,1.99,3.57,9.77,13.2.31,11.06.05.69-.09,1.44,0,2.11-1.31-.3-1.06.7-1.49,1.39-17.99,29.18-61.06,30.12-87.2,11.51-6.14-4.37-7.89-8.93-11.67-15.01-.81-1.31-1.3-1.43-1.81-2.16-2.19-3.13-.62-2.43-.29-4.49.2-1.22-.56-1.22-.55-1.29v.02h.01ZM62.8,52.88c-2.79.46-7.52,5.42-5.16,7.03s2.09-3.86,6.06-4.02c3.53-.14,2.94,1.91,5.02,4.03,1.81,1.01,1.72-2.05,1.49-3.07-.66-2.91-4.73-4.41-7.42-3.97h0ZM111.58,60.1c1.24.78,2.85-.1,2.35-2.06-1.53-5.97-9.46-7.27-12.68-2.08-.56.91-1.78,4.52-.02,4.21,2.64-.46,2.5-5.56,7.28-4.13,1.94.58,2.85,3.91,3.07,4.05h0ZM97.48,86.82c11.27-10.31-1-32.92-16.59-27.96-9.65,3.07-15.18,19.04-8.44,26.94,5.33,6.25,19.12,6.44,25.03,1.02Z"/>
  <path class="st9" d="M68.74,209.74c9.78,5.29,23.82,5.55,33.28-.53,1.01.88,3.23.63,4.52.55,9.34-.56,18.48-2.36,27.7-3.72-.98,9.05-2.32,16.72-4.92,25.47-1.04,3.5-5.03,10.78-4.24,14.06.4,1.64,1.87,3.28,2.18,4.73,1.88,8.96-5.55,6.69-11.26,6.99-4.53.24-6.58.72-11.33.02-.15-3.07-2.77-4.36-3.85-7.51-3.65-10.67-1.86-23.66,4.37-32.92.27-.4,1.12-.86.26-1.32-8.08,2.56-17.29,4.39-25.81,3.64-5.69-.5-11.11-2.72-16.7-3.63-.78.78,2.77,4.4,3.39,5.33,2.16,3.24,5.2,7.47,5.59,11.32.41,4.1.3,12.3-.67,16.23-.85,3.47-2.9,5.89-4.61,8.87-4.96.61-17.31,1.3-21.68-.24-4.62-1.63-2.61-8.47-.08-11.26-2.03-9.76-6.12-19.19-8.19-29.09-.77-3.69-1.38-7.45-1.74-11.21,10.88,3.41,22.39,4.57,33.8,4.23h-.01Z"/>
  <path class="st9" d="M41.27,28.46c-.37.49-1.43,4.58-2.09,5.06-.56.41-1.05.18-1.63,0-2.63-.82-.86-2.61-1.13-4.66-.29-2.18-3.12-4.98-3.77-7.37-1.29-4.72.16-9.74,4.22-12.5,4.99-3.39,10.45-3.89,15.46-.32,3.38,2.41,4.14,5.02,5.6,8.68,5.57-2.5,10.97-5.39,17.13-6.09,4.27-2.75,7-8.86,12.69-8.18l-1.06,5.81c3.3-.18,6.05-3.23,9.69-2.03,2.87.95-1.87,5.16-1.24,5.73,1.98-.16,3.32-.64,5.4-.39,4.29.5,8.43,4.5,12.55,4.62l1.58,4.23c-19.87-5.53-34.62-5.62-54.58-.97-3.62.85-7.86,2.42-11.44,2.03,2.5-2.29,4.86-3.54,1.34-6.88-8.08-7.67-17.31,6.8-8.73,13.23h0Z"/>
  <path class="st2" d="M66.63,257.31c1.7-2.97,3.75-5.4,4.61-8.87.97-3.93,1.08-12.13.67-16.23-.39-3.85-3.43-8.09-5.59-11.32-.62-.93-4.17-4.54-3.39-5.33,5.6.91,11.01,3.12,16.7,3.63,8.52.75,17.73-1.08,25.81-3.64.85.46,0,.92-.26,1.32-6.23,9.26-8.02,22.25-4.37,32.92,1.08,3.15,3.69,4.45,3.85,7.51-9.6-1.42-9.25-5.41-10.49-14.08-.84-5.81-1.1-11.79-1.65-17.63,2.5-.32,8.66-.73,7.92-4.23-3.29-.16-5.94,1.83-9.22,2.13-7.29.67-14.42-.36-21.41-2.13.81,5.75,8.66,1.17,8.46,8.16-.08,2.75-1.17,9.09-1.66,12.13s-1.31,8.46-2.23,10.99c-1.04,2.88-4.98,4.31-7.75,4.65v.02h0Z"/>
  <path class="st2" d="M35.99,74.97c3.78,6.08,5.53,10.64,11.67,15.01,26.14,18.61,69.21,17.67,87.2-11.51.42-.69.18-1.69,1.49-1.39.31,2.41.87,4.86.53,7.4-4.48-1-4.9,2.16-7.38,4.51-11.14,10.54-20.24,14.57-35.67,16.1-20.3,2.01-37.74-1.96-52.57-16.09-2.4-2.29-2.78-5.41-7.3-4.59-1.5-2.9.72-5.87.45-8.91.23-.04.94-.8,1.58-.53Z"/>
  <path class="st7" d="M94.09,19.48c5.47.67,11.01,1.65,16.38,2.9,9.93,2.31,18.5,4.65,20.59,16.12-.36.35-6.99-2.25-8.23-2.6-11.42-3.2-23.22-5.15-35.08-5.33v-2.11c1.58-.79,1.53-1.92,2.11-2.64.07-.09,1.55.27,1.06-1.59l2.11.53c.31-1.73-.92-4.35,1.06-5.28Z"/>
  <path class="st7" d="M137.93,192.83c.32.99.8,2.16.29,3.18-1.74,2.8-20.4,5.78-24.39,6.27-18.31,2.26-65.13,3.13-81.01-5.22.29-.79-.77-3.31.76-3.15,3.78.38,9.28,2.25,13.39,3,26.35,4.79,53.75,5.23,79.98-1.06,3.65-.88,7.19-2.56,10.98-3.02h0Z"/>
  <path class="st7" d="M74.02,20h1.06c.35,0,.71-.02,1.06,0,1.38.06,2.78-.18,4.12.36l.56.26c.22.26.04.67.08.96.02.17-.01.35,0,.53-.91.4-.54,1.88-.3,2.69.4,1.34,1.31.92,1.36,1.01.17.29.23,1.03.53,1.59.54,1,1.14,1.96,1.06,3.17-14.62.25-29.28,3.08-43.04,7.93-.39-3.13,2.14-6.27,3.96-8.46l2.4-1.04,5-4.25c.63-.15,1.56-.54,2.11-.53.09,0,.56.71,1.05.53v-1.05c.79-.15,1.98-.5,2.65-.53,2.03-.1,4.36.29,7-.13,1.84-.3,6.96-.93,7.26-3.04.68-.08,1.42.05,2.11,0h-.03Z"/>
  <path class="st9" d="M114.16,16.3c-.03-5.18,4.17-8.18,8.69-9.53s2.47.97,4.26,1.13c2.79-1.6,4.4-.81,6.86,1.01,6.39,4.71,8.33,13.93,3.66,20.58-.62.88-3.53,3.81-4.43,4.06-1.91.54-2.8-3.82-3.72-5.08,5.99-3.99,4.91-13.4-2.21-15.51-3.33-.99-7.54,2.06-7.82,5.47-.22-.18-4.91-2.11-5.28-2.11v-.02h-.01Z"/>
  <path class="st5" d="M134.23,128.35c.26,7.06,3.38,13.81,5.02,20.61,2.15,8.9,5.36,24.05,3.19,32.8-.94,3.79-2.08,5-5.46,6.69-4.09,2.05-15.08,4.7-19.65,4.91.86-2.51,5.46-2.52,7.92-3.44,23.32-8.79,11.08-36.87,8.52-54.49-.15-1.02-.75-6.65-.47-6.97.21-.25.86-.03.93-.1h0Z"/>
  <path class="st5" d="M37.05,131.52c-.96,14.01-12.93,38.64-2.63,50.99,5.83,6.99,12.39,7.75,20.49,10.18.9.27,2-.37,1.68,1.2-6.28-.77-15.72-2.45-21.64-4.5s-7.5-4.51-7.96-11.06c-.99-14.35,4.8-31.37,8.86-45.12.27-.9-.36-2,1.2-1.68h0Z"/>
  <path class="st5" d="M32.82,197.06c-.3-.16-1.02,0-1.37-.5l.33-1.84-1.05-.32v-1.02c1.38.31.82-1.54,1.32-1.64,8.03,1.94,16.12,3.73,24.34,4.73,21.34,2.59,47.27,2.56,68.35-1.77,2.15-.44,12.24-3.6,13.18-2.89.13.33-.07.78,0,1.03-3.79.46-7.33,2.14-10.98,3.02-26.22,6.29-53.63,5.85-79.98,1.06-4.11-.75-9.61-2.61-13.39-3-1.53-.16-.48,2.37-.76,3.15h0Z"/>
  <path class="st0" d="M105.18,206.57c-1.06.86-2.01,1.9-3.17,2.64-9.45,6.07-23.49,5.81-33.28.53-1.7-.92-3.28-2.45-4.75-3.7,13.79,1.1,27.62.67,41.2.53Z"/>
  <path class="st5" d="M70.85,123.07c-.08.48.04,1.07,0,1.59-3.03-.12-.9,5.94-1.58,6.87h-1.06c-.04.52.03,1.06,0,1.59-.13,2-.19,4.91,0,6.87.04.47-.14.99.53,1.06-1.26,3.56-.67,6.75,3.7,6.34.33-.03.68.13,1-.06.2-.31-.02-.77.05-1,.59-1.79.45-2.48.53-4.23.22-4.95-.42-11.08.52-16.13.29-1.55,2.58-1.35,2.12-3.43.07.11,1.58-.58,1.05,1.82-.26,1.21-1.36,1.53-1.58,2.68-.4,2.14-1.64,11.93-1.61,13.76.02,1.29.89,2.07,1.06,3.19.89,5.93-6.03,7.66-8.36,3.07-2.09-4.12.92-21.98.24-22.94-12.73-4.28-25.12-6.76-35.77-15.5-.69-.56-1.59-.73-1.51-1.92,2.5.55,8.61,4.78,11.62,6.08,9.44,4.08,19.87,5.75,29.05,10.31,0,0,0-.02,0-.02Z"/>
  <path class="st2" d="M96.73,113.02c-7.23.83-13.84,1.27-21.13.53-3.6-.37-6.2-4.98-10.03-5.82l.26-1.05c8.05.95,16.13,2.59,24.29,2.11,3.95-.23,8.08-1.49,12.07-1.51l.9,1.26-.26.81c-.3.46-5.13,3-6.1,3.68h0Z"/>
  <path class="st2" d="M161.17,188.07c-4.56-.84-14.21-1.65-13.18,5.51.53,3.66,4.46,3.29,7.37,2.95.35,1.09-2.73,2.05-3.33,2.22-4.27,1.27-7.51,1.08-10.99-1.94l-.36-.6c.76-1.98.06-4.29.54-6.16.19-.74,3.21-5.04,3.82-5.16,4.73-.94,11.7.94,16.64-2.1.11,1.77-.11,3.58-.52,5.28h.01Z"/>
  <path class="st5" d="M150.61,174.86c-1.38.04-2.79.06-4.17-.06-.76-3.71-.63-7.46-1.2-11.22-1.77-11.8-5.83-23.22-8.89-34.71.14.22,1.35.73,2.3,2.72,3.81,7.92,9.4,23.63,10.76,32.04.6,3.73.54,7.51,1.2,11.22h0Z"/>
  <path class="st5" d="M33.88,128.88c-4.12,15.07-9.68,30.25-10.03,45.98-1.4-.06-2.83.09-4.23,0-.67-6.47,1.21-12.28,3.03-18.37,2.37-7.93,5.66-16.31,8.77-23.99.39-.96,1.18-3.86,2.46-3.61h0Z"/>
  <path class="st0" d="M129.48,28.46c-1.12-1.54-3.98-3.49-5.28-4.76s-3.78-4.5-4.75-5.29c.29-3.41,4.49-6.46,7.82-5.47,7.12,2.11,8.2,11.52,2.21,15.51h0Z"/>
  <path class="st2" d="M63.99,206.04c1.48,1.25,3.05,2.78,4.75,3.7-11.41.34-22.92-.82-33.8-4.23-.13-1.38-.73-3.01-.26-4.24,9.75,1.86,19.4,3.98,29.31,4.76h0Z"/>
  <path class="st2" d="M8.53,187.54c-.34-1.61-.86-2.96-.52-4.75,5.95,1.73,11.66,2.44,17.88,2.19-.21,1.75,2.95,4.63,3.12,5.53.08.42-.61,5.24-.89,5.67-.14.21-3.87,2.81-4.11,2.89-2.01.6-3.73-.1-5.44-.42,1.91-2.77,4.42-3.09,3.67-7.11-.97-5.2-9.81-3.79-13.71-3.99h0Z"/>
  <path class="st0" d="M48.67,22.12c-1.42,1.3-6.71,5.44-7.39,6.34-8.58-6.42.65-20.9,8.73-13.23,3.52,3.34,1.16,4.6-1.34,6.88h0Z"/>
  <path class="st2" d="M105.18,206.57l28.79-5.29c1.81-.1.37,3.75.26,4.76-9.22,1.36-18.36,3.16-27.7,3.72-1.28.08-3.5.33-4.52-.55,1.16-.74,2.11-1.78,3.17-2.64Z"/>
  <path class="st5" d="M101.49,122.54c13.11-5.94,29-7.56,39.89-17.43h.77c.11.8.58,1.49,1.07,2.1-1.27-.31-1.74.26-2.66.77-5.35,3-8.86,6.31-14.83,8.95-7.44,3.29-15.43,5.19-23.12,7.78.38,1.64-.5,3.59-.59,4.7-.2-.1-.42-.51-.53-.53v-6.34h0Z"/>
  <path class="st9" d="M18.56,198.64c-3.49-.66-1.88-.61-3.72-1.8-.66-.43-1.59-.22-2.35-.85-1.7-1.39-3.51-6.25-3.97-8.45,3.9.2,12.73-1.21,13.71,3.99.75,4.01-1.76,4.34-3.67,7.11Z"/>
  <path class="st9" d="M161.17,188.07c-.71,2.94-2.65,8.09-5.81,8.46-2.91.34-6.85.71-7.37-2.95-1.03-7.16,8.62-6.34,13.18-5.51h0Z"/>
  <path class="st1" d="M163.81,175.39c.5,2.56-1.31,4.27-3.54,5.18-2.06.83-13.74,2.98-14.89,1.64l.54-4.1c6.55.89,11.71-1.92,17.88-2.71h0Z"/>
  <path class="st4" d="M76.66,122.54c.46,2.08-1.83,1.88-2.12,3.43-.94,5.05-.3,11.17-.52,16.13-.65-.26-1.33.48-1.58.53-.63.11-1.44-.08-2.11,0,.06-.51-.04-1.07,0-1.58h-1.59c-.67-.06-.48-.59-.53-1.06l2.11-.53c.05,1.17.89,1.72,1.58,1.06-.47-6.3,1.15-12.53,1.6-18.77.1-1.46-1.7-.8-2.12-.26-.67-.39-.72-1.82-1.06-2.11,1.84-3.28,3.88-.87,5.53,1.09.63.74.57,1.73.81,2.08h0Z"/>
  <path class="st9" d="M96.73,113.02c-1.39.98-2.83,2.15-4.23,3.17-4.8.57-9.46.81-14.26,0-1.2-1.15-2.61-1.26-2.64-2.64,7.28.74,13.9.3,21.13-.53Z"/>
  <path class="st7" d="M8,179.62c.89-3.57,6.77-.53,9.28-.6,1.28-.03,2.57-1.38,4.99-.2.91.45.67,2.17,2.1,1.85,0,.53.01,1.06,0,1.59-4.43.08-12.67-.12-16.38-2.64h.01Z"/>
  <path class="st11" d="M92.51,116.19c-2.51,1.83-4.66,4.57-7.67,5.82-1.17,0-5.53-4.8-6.59-5.82,4.8.81,9.46.57,14.26,0Z"/>
  <path class="st11" d="M98.32,120.95c1.43.55.89,3.11,1.06,4.23.14.89.46,1.88.53,2.64.03.35-.03.71,0,1.06.08.87-.07,1.77,0,2.64.05.56.25,1.1.53,1.59-.04.52.02,1.06,0,1.59-.07,2.1.06,4.24,0,6.34h-2.11c.09-6.7-.46-13.41-1.06-20.09.32.06.81-.09,1.06,0h0Z"/>
  <path class="st11" d="M71.38,121.48c.42-.53,2.22-1.2,2.12.26-.44,6.23-2.07,12.46-1.6,18.77-.69.66-1.53.11-1.58-1.06-.04-.88.05-1.77,0-2.64v-.53c-.14-3.85.23-7.97.53-11.63.04-.52-.08-1.11,0-1.59.01-.08.48-1.52.53-1.59h0Z"/>
  <path class="st8" d="M87.23,24.76c-.26.01-.75.49-1.06.53.17-.75-.13-1.55.79-2.11.52.13.23,1.1.26,1.58h0Z"/>
  <path class="st8" d="M80.89,22.12c.07.87-.06,1.77,0,2.64,1.98.29,2.64-.49,3.43-2.11l.8,2.64c.34-.02.71.04,1.05,0-.24,1.08-.27,2.55-.53,3.7.15.15,1.74-.34,2.11-.53v2.11c-1.4-.02-2.82-.02-4.23,0,.08-1.21-.52-2.17-1.06-3.17l2.64,1.05-.53-3.7-2.64,1.06c-.05-.08-.96.34-1.36-1.01-.24-.81-.61-2.29.3-2.69h.02,0Z"/>
  <path class="st8" d="M76.13,20c-.29-1.6.81-1.02,1.82-1.05,2.25-.07,6.92-.34,7.95,1.59.76-2.13,4.84-1.82,6.91-1.61.71.07,1.17.54,1.27.55-1.98.94-.75,3.56-1.06,5.28l-2.11-.53c.49,1.85-.99,1.49-1.06,1.59h-2.64c-.03-.35.03-.71,0-1.06,1.19-.05,2.71,1.13,3.46-.54.34-.75-.03-2.76-.63-3.2-1.46-1.08-2.96-.02-4.21,0-1.77.03-3.08-1.1-4.96.57-.04-.29.14-.7-.08-.96l-.56-.26c-1.34-.54-2.74-.3-4.12-.36h.02ZM91.72,21.59v.53c.34-.18.34-.35,0-.53Z"/>
  <path class="st2" d="M119.44,18.42c.97.78,3.5,4.06,4.75,5.29-3.27-.48-6.34-1.76-9.51-2.64l-1.58-4.23c.24,0,.8-.53,1.06-.53.37,0,5.06,1.94,5.28,2.11Z"/>
  <path class="st5" d="M8,179.62c-.92-.63-1.74-.95-1.61-2.35,1-3.51,4.21-.74,6.68-.34,3.42.54,6.96.65,10.42.56.79.19.87,2.46.88,3.19-1.42.31-1.19-1.41-2.1-1.85-2.42-1.19-3.71.17-4.99.2-2.51.06-8.4-2.97-9.28.6h0Z"/>
  <path class="st4" d="M35.99,74.97c-.64-.27-1.35.49-1.58.53-6.58.99-4.48-5.83-1.06-8.46,0,.07.75.07.55,1.29-.33,2.05-1.9,1.36.29,4.49.5.72.99.85,1.81,2.16h0Z"/>
  <path class="st8" d="M71.91,20c-.31,2.1-5.42,2.74-7.26,3.04-2.64.42-4.97.04-7,.13,4.44-.97,9.84-2.63,14.26-3.17Z"/>
  <path class="st8" d="M51.84,24.76l-5,4.25-2.4,1.04c2.33-2.82,3.74-4.45,7.39-5.29,0,0,0,0,.01,0Z"/>
  <path class="st4" d="M101.49,118.84c-.05.04.24.97-.34,1.1l-2.83-.57v1.58c-.25-.09-.74.06-1.06,0-.03-.35.04-.71,0-1.06h-1.06c.35-.37.13-2.02,1.88-2.15l3.4,1.09h0Z"/>
  <path class="st5" d="M37.05,128.35h-3.17c.62-2.21,1.11-3.93,3.46-1.57.43.82-.29,1.31-.29,1.57Z"/>
  <path class="st4" d="M101.49,127.82h-1.58c-.07-.76-.39-1.76-.53-2.64l1.02-.03c.07-1.07-.1-2.27,1.1-2.61v5.29h0Z"/>
  <path class="st9" d="M31.76,22.64c-.67.88-.96-.06-1.05-.78-.28-2.07.4-4.06.53-6.09.92-.12.5,1.2.52,1.84.07,1.67-.04,3.36,0,5.02h0Z"/>
  <path class="st5" d="M16.45,174.33c-2.5-.41-3.15-.88-5.28-1.59l.31-.4c1.71.69,4.94-.45,4.97,1.99h0Z"/>
  <path class="st5" d="M76.13,194.94c-.49.95-2.01.67-2.64,0,1.07-.02.76-.31,2.64,0Z"/>
  <path class="st5" d="M27.54,106.68c.59-.51.64-1.44,2.11-1.05v1.05c-.7-.04-1.41.03-2.11,0Z"/>
  <path class="st5" d="M115.22,193.36c-.26.69-1,.51-1.58.53v-1.05c.75-.34,1.45.52,1.58.52Z"/>
  <path class="st8" d="M55.01,23.7v1.05c-.5.19-.96-.52-1.06-.53.16-.53.63-.44,1.06-.53h0Z"/>
  <path class="st8" d="M75.08,20h-1.06l.79-.53.27.53Z"/>
  <path class="st10" d="M96.2,119.89h1.06c.04.35-.03.71,0,1.06.6,6.67,1.15,13.38,1.06,20.09h2.11c.06-2.11-.07-4.24,0-6.34h1.58c-.11,3.68.4,8.12,0,11.63-.84.72-1.49,1.05-2.64,1.06l-.78-1.5-1.33.44-1.06-21.67-.26-.52-.26.52c-.35.02-.71-.03-1.06,0,.02-.88-.02-1.76,0-2.64,0-.17-.02-.36,0-.53h1.06v-1.06c.17-.17.36-.35.53-.53h0ZM100.43,145.26c.69-3.95-3.04-4.6-2.41-.5l2.41.5Z"/>
  <path class="st5" d="M94.62,124.65c.35-.03.71.02,1.06,0h.53l1.06,21.67c.34,1.03,1.13,1.07,2.11,1.06,1.15,0,1.8-.33,2.64-1.06-.55,4.81-4.88,3.28-6.76.15l-.63-18.92c-.27-1.94-2.16-.41-2.12-2.37.7-.11,1.42-.47,2.11-.53Z"/>
  <path class="st4" d="M101.49,128.88c.11.02.33.43.53.53-.14,1.71.05,3.55,0,5.29h-1.58c.02-.53-.04-1.06,0-1.59.03-.45,1.62-1.85-.53-1.59-.07-.87.08-1.77,0-2.64.51.05,1.1-.08,1.58,0Z"/>
  <path class="st4" d="M94.62,122.01c-.02.88.02,1.76,0,2.64-.69.06-1.42.42-2.11.53.02-1.17.72-3.39,2.11-3.17Z"/>
  <path class="st4" d="M95.68,120.42v1.06h-1.06c.25-1.87.76-.76,1.06-1.06Z"/>
  <path class="st0" d="M97.48,86.82c-5.92,5.41-19.7,5.23-25.03-1.02-6.74-7.9-1.21-23.87,8.44-26.94,15.59-4.96,27.86,17.65,16.59,27.96ZM76.13,73.91c-.68-.42-1.32-2.71-3.17-2.11-.38,2.08.6,2.53,1.58,3.7s1.58,1.01,2.11,2.64c.31.96.29,1.99.8,3.17,2.76,6.43,12.04,6.94,15.82,1.04,1.14-1.78,1.2-4.1,2.18-5.75.81-1.38,5.21-3.83,1.29-4.79-.27,3-5.74,3.14-7.93,2.64-1.34-.31-1.94-2.1-1.51-3.35.37-1.07,5.27-3.43,5.2-5.92-.37-4.06-11.06-3.45-12.65-2.08-4.28,3.68,3.3,6.58,3.95,7.63,2.41,3.91-5.22,4.67-7.67,3.18Z"/>
  <path class="st10" d="M111.58,60.1c-.22-.14-1.13-3.47-3.07-4.05-4.78-1.43-4.64,3.66-7.28,4.13-1.76.31-.55-3.3.02-4.21,3.22-5.19,11.15-3.89,12.68,2.08.5,1.95-1.11,2.84-2.35,2.06h0Z"/>
  <path class="st10" d="M62.8,52.88c2.69-.45,6.76,1.05,7.42,3.97.23,1.02.32,4.08-1.49,3.07-2.08-2.12-1.48-4.17-5.02-4.03-3.97.16-3.79,5.56-6.06,4.02s2.37-6.57,5.16-7.03c0,0,0,0-.01,0Z"/>
  <path class="st12" d="M80.89,21.59c1.88-1.68,3.19-.55,4.96-.57,1.25-.02,2.74-1.07,4.21,0,.6.44.97,2.45.63,3.2-.75,1.67-2.27.5-3.46.54-.03-.48.26-1.46-.26-1.58-.93.56-.63,1.36-.79,2.11-.34.04-.71-.02-1.05,0l-.8-2.64c-.78,1.63-1.45,2.4-3.43,2.11-.06-.87.07-1.77,0-2.64-.01-.17.02-.36,0-.53h0Z"/>
  <path class="st12" d="M87.23,24.76c.02.35-.03.71,0,1.06h2.64c-.58.72-.54,1.85-2.11,2.64-.37.18-1.96.68-2.11.53.25-1.15.29-2.62.53-3.7.31-.04.79-.52,1.06-.53h0Z"/>
  <path class="st12" d="M81.94,25.82l2.64-1.06.53,3.7-2.64-1.05c-.3-.56-.36-1.29-.53-1.59Z"/>
  <path class="st10" d="M70.85,124.65c-.29,3.66-.67,7.78-.53,11.63l-.52.26.52.26c.05.88-.04,1.77,0,2.64l-2.11.53c-.19-1.96-.13-4.87,0-6.87h1.06v-1.59c.69-.93-1.44-6.99,1.58-6.87h0Z"/>
  <path class="st10" d="M68.74,141.03h1.59c-.04.52.06,1.07,0,1.59-.05.4-.69.88-.45,1.73.76,2.67,4.21.87,2.56-1.73.26-.05.93-.79,1.58-.53-.08,1.75.06,2.44-.53,4.23h-1.06v1.06c-4.37.4-4.95-2.78-3.7-6.34h0Z"/>
  <path class="st4" d="M69.27,131.52v1.59h-1.06c.03-.53-.04-1.06,0-1.59h1.06Z"/>
  <path class="st4" d="M73.49,146.32c-.08.23.15.69-.05,1-.32.18-.67.03-1,.06v-1.06h1.06,0Z"/>
  <path class="st10" d="M101.49,127.82v1.06c-.48-.08-1.08.05-1.58,0-.03-.35.03-.71,0-1.06,0,0,1.58,0,1.58,0Z"/>
  <path class="st13" d="M72.44,142.62c1.64,2.6-1.8,4.4-2.56,1.73-.24-.85.4-1.33.45-1.73.67-.08,1.48.11,2.11,0Z"/>
  <path class="st10" d="M99.9,131.52c2.15-.26.56,1.13.53,1.59-.27-.49-.48-1.02-.53-1.59Z"/>
  <path class="st4" d="M70.32,136.81l-.52-.26.52-.26v.53h0Z"/>
  <path class="st7" d="M91.72,21.59c.34.18.34.35,0,.53v-.53Z"/>
  <path class="st11" d="M100.43,145.26l-2.41-.5c-.62-4.1,3.1-3.45,2.41.5Z"/>
  <path class="st4" d="M99.37,147.38c-.98,0-1.77-.02-2.11-1.06l1.33-.44.78,1.5Z"/>
  <polygon class="st4" points="96.2 124.65 95.68 124.65 95.94 124.13 96.2 124.65"/>
  <path class="st10" d="M88.81,74.44v2.12h-1.06c-1.08-.34-2.57-.35-3.7-.53s-2.63-1.03-4.21-.5c-.18.45.12,1.28-.02,1.56-.15.31-1.01.8-1.06,1.06h-2.11c-.53-1.63-1.1-1.43-2.11-2.64-.29-1.19.68-1.2,1.58-1.59,2.45,1.49,10.08.73,7.67-3.18-.65-1.05-8.23-3.96-3.95-7.63,1.59-1.37,12.27-1.97,12.65,2.08.07,2.48-4.83,4.85-5.2,5.92-.43,1.25.17,3.04,1.51,3.35v-.02h0Z"/>
  <path class="st2" d="M76.66,78.14h2.11c-.12.73.62,2.44,1.06,3.17,2.72,4.58,10.27,4.42,11.62-1.06.16-.63.93-1.32.31-2.15-1.46-.11-3.14-1.28-4.01-1.55h1.06v-2.11c2.19.5,7.66.36,7.93-2.64,3.92.96-.47,3.42-1.29,4.79-.98,1.65-1.04,3.97-2.18,5.75-3.78,5.9-13.06,5.4-15.82-1.04-.51-1.18-.48-2.21-.8-3.17h.01Z"/>
  <path class="st2" d="M76.13,73.91c-.9.38-1.87.39-1.58,1.59-.98-1.17-1.96-1.62-1.58-3.7,1.85-.6,2.48,1.69,3.17,2.11h0Z"/>
  <path class="st8" d="M87.75,76.56c.87.27,2.54,1.44,4.01,1.55.62.82-.15,1.52-.31,2.15-3.4-.55-6.65-.81-10.07-.27-.88.14-1.85.08-1.55,1.33-.43-.73-1.18-2.44-1.06-3.17.04-.26.9-.75,1.06-1.06,1.44.04,3.14.02,4.23-1.06,1.13.18,2.62.19,3.7.53h-.01Z"/>
  <path class="st2" d="M84.06,76.03c-1.09,1.08-2.78,1.1-4.23,1.06.13-.28-.16-1.11.02-1.56,1.58-.53,3.06.31,4.21.5Z"/>
  <path class="st3" d="M91.45,80.26c-1.35,5.48-8.9,5.63-11.62,1.06-.3-1.25.67-1.19,1.55-1.33,3.42-.54,6.67-.27,10.07.27Z"/>
</svg>