<?xml version="1.0" encoding="UTF-8"?>
<svg id="_레이어_1" xmlns="http://www.w3.org/2000/svg" version="1.1" viewBox="0 0 163.58 135.35">
  <!-- Generator: Adobe Illustrator 29.8.1, SVG Export Plug-In . SVG Version: 2.1.1 Build 2)  -->
  <defs>
    <style>
      .st0 {
        fill: #642541;
      }

      .st1 {
        fill: #2c2e29;
      }

      .st2 {
        fill: #acaca8;
      }

      .st3 {
        fill: #2e292d;
      }

      .st4 {
        fill: #524b3e;
      }

      .st5 {
        fill: #59203a;
      }

      .st6 {
        fill: #b16a33;
      }

      .st7 {
        fill: #231815;
      }

      .st8 {
        fill: #752745;
      }

      .st9 {
        fill: #eeedeb;
      }

      .st10 {
        fill: #3f413b;
      }

      .st11 {
        fill: #d8863b;
      }

      .st12 {
        fill: #221c23;
      }

      .st13 {
        fill: #e1ded2;
      }

      .st14 {
        fill: #707779;
      }

      .st15 {
        fill: #fafaf7;
      }

      .st16 {
        fill: #c1824b;
      }

      .st17 {
        fill: #e4d5d9;
      }

      .st18 {
        fill: #c6cdce;
      }
    </style>
  </defs>
  <path class="st7" d="M106.07,112.85c.05.33.83,1.18,1.06,1.59-.1,1.3.2,2.29-.29,3.68-.94,2.7-5.91,5.11-5.02,8.66.26,1.07,3.69.68,4.77,1.15.94.41,1.56,2.29,2.91,2.39,1.04,0,2.67-2.47,3.98-2.91,3.01-1.01,6.51,1.05,5.01-4-.97-3.25-3.75-5.3-5.03-10.02,9.08.24,20.91,1.12,29.33,4.74,6.63,2.85,8.8,7.07,1.32,10.87-16.9,8.6-60.38,8.17-77.65.5-2.85-1.27-7.28-3.28-5.55-7.11,2.53-5.58,23.41-8.37,29.3-9,.07.56.24,1.1.53,1.59-.13.19.2,1.25-.52,1.85-1.39,1.14-10.92,3.19-10.05,6.33,2.21,1.42,3.57.44,3.24,3.91,5.03,2.21,5.74,1.82,9.92-1.29,1.03-.77,1.41-1.57,2.16-2.33.08-.09.82-.05,1.28-.55,3.2-3.46.27-6.73-.23-10.02h9.51s.02-.03.02-.03Z"/>
  <path class="st3" d="M46.91,42.56c-1.72-14.72,1.09-28.98,16.36-34.62-2.79-2.48-2.33-5.36,1.77-5.35,1.38,0,4.36,1.14,5.3.82.87-.29.84-1.69,1.37-2.36,2.83-3.57,5.24,2.96,7.22,4.44,1.33.99,3.82,1.48,5.48,2.44,5.26,3.03,9.16,6.24,12.48,11.41,3.92-.61,6.8-3.17,9.53-5.8,2.5-.66,4.3,6.1,3.76,8.02l-3.07,2.48c2.54.76,5.82.16,5.19,3.83-.1.55-1.74,4.41-2.07,4.84-2.34,2.96-8.7-2.08-9.45-1.27.24,3.92.91,7.93.52,11.88-.2,2.05-2.9,7.85-2.64,8.19,1.08,1.42,5.12-2.01,6.29-2.95,3.96-3.16,6.8-7.38,10.6-10.53,7.1-5.88,21.47-10.5,30.3-14.6,3.65-1.7,9.09-5.42,12.58-6.44,7.49-2.2,5.2,9.43,3.08,13.39-1.25,2.33-4.09,5.01-5.8,7.14,5.86-1.07,6.2,2.27,4.74,7.13-.75,2.52-4.07,5.63-6.06,7.41-1.47,1.31-6.3,3.85-6.11,5.53.02.22,1.94.52,1.65,3.71-.64,6.95-15.02,11.28-20.64,12.41-.46.09-1.08-.07-1.58,0,.93,1.56.47,1.89,0,3.17-.32-.72-1.47-.61-2.11-.53,1.61-2.91-2.04-2.23-1.59-4.75,7.88-.75,21.72-3.14,23.77-12.16-2.63-.59-5.78.83-8.18.54-.73-.09-1.53-.31-.79-1.06,4.15-1.69,8.32-4.16,11.8-6.98,2-1.62,9.95-8.81,8.04-11.55-1.53-2.18-10.48,3.72-12.97,2.41,7.07-5.36,17.58-13.45,15.26-23.48-1.16-.25-2.2.21-3.24.62-6.42,2.55-13.53,7.45-19.94,10.43s-13.41,4.21-19.28,8.46c-3.89,2.81-6.74,7.09-10.29,10.31-4.8,4.36-9.92,5.15-9.51,12.94.25,4.79,2.59,8.49,6.34,11.1,1.04.72,5.03,3.44,5.81,3.7-.62.5-1.29.64-1.06,1.59-.31-.07-.75.08-1.06,0-.79-1.39-3.25-1.42-4.75-2.11-.93-1.99-3.22-3.42-4.45-5.32-2.75-4.23-3.26-9.87-2.41-14.76.08-.47,1.88-1.16.53-2.64-.92-1.01-2.09.63-3.22,1.3-.55.33-1.31.17-1.54.29,6.1-7.02,7.13-15.6,4.77-24.47-.32-.54-1.48-.59-2.13-.9-13.8-6.54-31.05-9.8-45.43-3.31-1.13,4.73-1.15,9.57-1.05,14.41-1.27,1.25.52.66-2.11,1.59h-.01ZM73.85,6.09c-.08.08.25,1.01-.33,1.1-.22.03-2.4-.43-2.84-.57-.17-.05-.61-.71-1.43-.92-1.55-.4-3.3-.66-4.9-.66-.71.63,2.79,3.04,3.17,3.7-.12.14.03,1.01-.5,1.33-1.04.63-4.2.74-6.9,2.37-.58.35-1.63.33-2.1,1.33.64.4,1.69-.74,2.1-.8.94-.14,2.16.04,3.17,0,2.51-.11,5.42-.12,7.92,0,7.22.36,12.66,2.67,19.54,4.23.45-.39-2.52-3.75-2.98-4.15-3.32-2.88-9.53-4.32-11.81-7.48-.78-1.08-1.35-2.57-2.64-3.17l.52,3.7h.01ZM97.61,28.28c.27-2.79-.52-4.9-2.8-6.45-6.81-4.63-22.09-7.33-30.21-6.76-5.84.41-12.19,1.21-13.98,7.69-.3,1.1.56.79,1.29.76,2.74-.11,6.25-1.83,8.98-2.12,7.32-.77,17.61.14,24.68,2.26,1.57.47,11.59,5.08,12.03,4.61h.01ZM107.12,16.66c-.85-.22-1.23.17-1.86.51-.67.36-5.82,4.11-6.11,4.5-2.73,3.59,8.13.98,8.52-2.13.13-1.02-.4-1.92-.55-2.88ZM91.28,17.71l1.57.27-.79-.79h-.78v.52ZM109.75,27.24c-3.05-.11-8.14-3.24-8.99,1.28,3.56,2,9.44,5.96,8.99-1.28Z"/>
  <path class="st3" d="M45.85,43.61c-.86,1.6-1.39,5.63-1.06,7.4h-.53c-.11-.47-.4-.97-.53-1.59-.21-1.03.48-2.6-.52-3.44-6.52-2.56-13.1-4.93-19.55-7.66-2.8-1.19-19.22-9.33-20.55-8.41-2.52,6.8,3.42,12.43,8.55,15.93,1.4.95,8.61,4.45,8.83,4.91.49,1.03-.85.8-1.33.8-1.92,0-10.5-2.98-11.35-2.14.01,9.62,13.22,12.21,20.06,16.12-2.24,1.97-5.23-.49-7.91.8,3.18,7.42,15.05,8.43,22.18,8.98l-2.11,4.22c5.43,2.02,10.84.74,16.37,0-.11.63.07,1.44,0,2.11-.15.04-.59.77-1.42.93-4.06.82-19.21,2.66-16.54-4.63-5.2-.51-19.41-3.96-20.49-9.91-.26-1.41.5-3.24.19-3.84-.29-.56-7.46-4.25-9.01-5.82-2-2.03-5.71-7.91-2.9-10.29.92-.78,2.41-.36,2.62-1.33-5.74-2.77-13.99-16.81-4.57-19.41,13.97,5.04,27.02,12.77,41.54,16.23l.03.04h0Z"/>
  <path class="st12" d="M57.47,60.53c.78.64,2.19,1.35,3.17,2.11.08.49-.11,1.17,0,1.59h-1.06l-.26-.52-.26.52c-.02,6.89-.51,13.47,1.86,20.07,1.3,3.63,7.66,14.05,11.09,15.32,2.21.82,6.02.64,8.46.57,10.51-.31,20.31-3.9,28.24-10.85,1.4-1.23,6.66-6.8,6.27-8.36-.44-1.73-3.75-2.15-5.22-2.48-.23-.94.44-1.09,1.06-1.59,4.23,1.39,10.61,0,14.79-.53.64-.08,1.79-.19,2.11.53-1.07,2.88-6.69,2.68-9.51,2.64-.1.66.14,1.52,0,2.12s-.78.98-.53,2.11c-1.14.09-1.75,1.05-2.64,1.59-.23.14-1.1-.11-1.87.48-1.03.78-.89,1.91-1.3,2.69-3.12,5.94-19.71,14.27-26.15,14.27h-7.66c.14.92,1.05.92,1.7,1.2,5.84,2.51,13.7,3.98,19.95,3.03l1.06.79-1.06.27v.52l1.06.54c-1.38.2-2.71.81-4.23.53.1,1.01-.14,2.21,0,3.17.5,3.3,3.42,6.57.23,10.02-.46.5-1.2.46-1.28.55.07-.9.89-1.54,1.03-2.41.22-1.31-.74-7.37-1.14-8.86-.17-.65-.83-.72-.94-.88-.39-.57.65-1.42-2.11-1.06l-.26-.52-.26.52c-.03.7.04,1.41,0,2.11-.23,3.61-.49,1.84-1.06,2.64-.29-.49-.46-1.02-.53-1.59-.11-.93.12-2.94-.65-3.58-.45-.37-8.59-2.3-10.43-3.04-8.74-3.51-12.95-7.51-17.44-15.58,1.29-1.87.03-3.85-2.11-4.23v-.53c0-.07.55-.41.51-1.22s-.6-3.85-1.35-4.05c-.38-.07-.64.5-.74.51-.5.06-1.18-.11-1.58,0,.07-.67-.11-1.48,0-2.11.42-2.44.12-2.12,0-4.23-.27-4.77-.41-8.44,0-13.21.04-.52-.05-1.06,0-1.59h1.06-.02,0Z"/>
  <path class="st3" d="M136.7,89.6c.11.01.59.48,1.28.55,2.52.26,5.6-.84,7.47,1.52,2.86,3.61-3.31,9-7.17,8.5,3.36,6.42-3.42,6.79-8.14,5.77-.43,2.85-3.43,2.43-5.86,2.15-3.41-.38-5.6-2.47-8.35-4.16-4.75,2.51-3.7,2.59-3,6.8-2.2.06-.97-2.91-2.35-4.26-1.64-1.61-1.26.45-1.35.56-.08.09-.42-.09-.53,0l-.53.53c-.11.09-.44-.09-.53,0-.17.17-.66.24-.54.76-.46,1.62.6,3.46.57,4.83-.02.75-.55,1.18-.56,1.28-.23-.41-1.01-1.26-1.06-1.59-.13-.86.18-4.04,0-4.23-1.69.35-3.66.29-5.28.53l-1.05-.54v-.52l1.06-.27-1.06-.79c9.55-1.45,16.35-4.94,23.24-11.63-.16.26-.04,1.45-.59,2.3-.65,1-3.85,3.79-3.63,4.8.81,1.28,7.21,3.57,7.91,2.94l-2.11-3.69c4,1.12,7.87,2.63,12.14,2.11.28-4.01-6.98-3.21-8.72-5.27-.32-.38-.5-1.05.02-1.08.59-.25,1.32.54,1.58.54h7.92c1.69,0,7.1-2.83,6.08-5.28-5.44-1-12.23-.15-17.43-2.12-1.35-.51-8.18-5.67-8.45-6.87-.26-1.13.4-1.54.53-2.11,3.56,2.14,6.09,5.52,10.19,6.98,3.11,1.11,5.37.61,8.3.95h0Z"/>
  <path class="st1" d="M52.19,52.6c-.24.03-.47.28-.53.53-.07-.03-1.51,0-1.58,0-1.86.32-1.07.6-1.58,1.59-1.84-.09-3.39-2.07-3.7-3.7-.33-1.77.19-5.8,1.06-7.4.08-.15.98-1.03,1.06-1.06,2.63-.92.84-.34,2.11-1.59.17-.17,3.67-1.04,4.58-1.5,1.75-.88,2.14-2.11,2.29-2.2.34-.22,3.54-1.48,3.99-1.55,4.12-.66,4.73,1.89,7.36,4.2.94.82,2.82,1.26,3.47,2.34,2.24,3.74-2.49,9.76-6.08,10.9-4.84,1.54-8.08-1.03-12.44-.56,0,0,0,0-.01,0ZM55.36,40.97c-.16.06-.37-.06-.53,0-.29.1-.45.5-.53.53-.16.05-.37-.06-.53,0-.57.21-.85.45-1.06.53-.15.06-.38-.06-.53,0-.48.2-.85.44-1.06.53-.15.06-.38-.07-.53,0-1.16.52-1.83.36-2.93,1.56-2,2.19-2.61,6.4-.24,8.48.03.02-.06.62.52.53.06-.34-.07-.77,0-1.06.09-.34.4-.7.53-1.06.16.02.36,0,.53,0,.47-.04.49-.52.53-.53.17-.03.36.03.53,0,1.44-.21,2.79-.35,4.23-.53,4.61,1.78,10.18,3.2,13.44-1.62,1.15-1.7.27-1.77.29-2.08.05-.69,0-1.42,0-2.11,0-.25.8-.87.31-1.59-2.27-.39-5.12-4.39-6.49-4.64-2.94-.53-4.62,1.09-6.5,3.06h.02Z"/>
  <path class="st1" d="M109.23,107.04c.09-.11-.29-2.17,1.35-.56,1.38,1.35.15,4.32,2.35,4.26.13.78.33,1.92.53,2.64,1.28,4.72,4.07,6.77,5.03,10.02,1.5,5.05-2.01,3-5.01,4-1.31.44-2.94,2.9-3.98,2.91-1.35-.1-1.97-1.98-2.91-2.39-1.08-.47-4.51-.08-4.77-1.15-.89-3.55,4.08-5.95,5.02-8.66.48-1.39.18-2.38.29-3.68,0-.1.54-.53.56-1.28.03-1.38-1.03-3.22-.57-4.83-.12-.52.38-.59.54-.76.21,3.93,2.56,8.42.74,12.1-.47.94-4.95,5.38-4.43,5.87,3.31-1.4,3.81.39,6.04,2.1,1.01-.58,2.03-2.47,2.95-2.88,1.16-.53,4.2.27,3.68-1.06s-2.85-3.22-3.79-5.19c-1.8-3.77-1.17-8.24-3.6-11.46h-.02,0Z"/>
  <path class="st3" d="M59.59,86.42c-1.24-1.15-1.58-3.13-1.58-4.76.1-.01.35-.59.74-.51.76.2,1.31,3.21,1.35,4.05s-.51,1.15-.51,1.22Z"/>
  <path class="st3" d="M61.7,91.18c-.77-1.38-2.12-1.67-2.11-4.23,2.14.38,3.4,2.36,2.11,4.23Z"/>
  <path class="st1" d="M95.5,123.42c-.75.76-1.13,1.57-2.16,2.33-4.18,3.11-4.89,3.51-9.92,1.29.33-3.47-1.03-2.49-3.24-3.91-.87-3.15,8.66-5.19,10.05-6.33.72-.59.38-1.66.52-1.85.56-.81.83.97,1.06-2.64l1.06,4.76c-.35.04-.79,1.13-1.43,1.47-2.57,1.35-6.17,1.75-8.07,3.81h3.69l-1.58,2.64c2.92,2.49,10.49-2.94,10.51-5.53,0-.63-.79-3.32-1.01-4.5s-.52-2.45-.53-3.7c.11.17.77.24.94.88.4,1.49,1.36,7.55,1.14,8.86-.14.87-.96,1.5-1.03,2.41h0Z"/>
  <path class="st8" d="M87.58,62.64c1.45-2.83,2.76-2.72,4.74-4.53.93-.85-.27-1.52,2.08-2.1,1.01-.25,1.88-.79,1.63.82-2.22,8.04.47,15.24,7.39,19.56,2.29,1.42,2.65,1.46,5.28,2.11.31.08.74-.07,1.06,0,1.46.34,4.78.75,5.22,2.48.39,1.56-4.87,7.13-6.27,8.36-7.93,6.95-17.73,10.55-28.24,10.85-2.44.07-6.25.26-8.46-.57-3.44-1.28-9.79-11.7-11.09-15.32-2.37-6.6-1.88-13.19-1.86-20.07h.53c1.38,3.63,2.42,5.93,4.75,8.98.51.66,2.35,3.13,2.66,3.42,5.39,5.02,13.06.24,16.48-4.62,2.29-3.25,2.49-6.22,4.1-9.37Z"/>
  <path class="st15" d="M95.5,29.87c1.16,5.56-.63,13.47-2.63,18.77-4.57,12.12-15.62,16.78-28.01,13.74-3-.74-4.99-2.4-7.92-2.91-.14-.13-1.04-.06-1.28-.55l-3.47-5.27v-1.06c4.36-.47,7.61,2.1,12.44.56,3.58-1.14,8.32-7.16,6.08-10.9-.65-1.08-2.53-1.52-3.47-2.34-2.63-2.31-3.24-4.85-7.36-4.2-.46.07-3.65,1.33-3.99,1.55,1.85-2.77,1.24-8.93-3.05-7.05-2.55,1.12-1.23,9.4,3.05,7.05-.14.09-.54,1.33-2.29,2.2-.91.46-4.41,1.33-4.58,1.5-.1-4.84-.08-9.68,1.05-14.41,14.38-6.49,31.63-3.23,45.43,3.31h0ZM75.56,37.67c5.87,3.36,6.4-8.84.78-7.18-2.13.51-1.74,6.21-.78,7.18Z"/>
  <path class="st14" d="M137.76,30.4c6.42-2.98,13.53-7.88,19.94-10.43,1.04-.41,2.09-.87,3.24-.62,2.32,10.02-8.2,18.11-15.26,23.48,2.5,1.31,11.45-4.59,12.97-2.41,1.92,2.74-6.04,9.93-8.04,11.55-3.48,2.82-7.65,5.29-11.8,6.98-.74.75.06.97.79,1.06,2.41.29,5.55-1.13,8.18-.54-2.05,9.02-15.89,11.4-23.77,12.16-.45,2.52,3.2,1.85,1.59,4.75-4.17.54-10.56,1.92-14.79.53-.78-.26-4.77-2.98-5.81-3.7h7.65c2-.35,4.82-.69,5.71-2.81.43-1.03-.2-1.85-.14-1.93.23-.32,3.64-.61,4.6-.96,2.25-.81,5.2-3.58,4.3-6.14-.33-.94-1.61-.48-1.52-1.38,3.34-.13,11.82-9.35,9.8-12.2l-3.47-1.01c.58.06.89-.24,1.23-.66,3.31-4.11,6.7-8.77,5.1-14.15-.16-.54-.22-1.1-.53-1.59,0,0,.03.02.03.02Z"/>
  <path class="st18" d="M138.28,31.99c1.6,5.38-1.79,10.04-5.1,14.15-.34.42-.65.71-1.23.66l3.47,1.01c2.02,2.85-6.46,12.07-9.8,12.2-.1.89,1.19.44,1.52,1.38.9,2.56-2.05,5.33-4.3,6.14-.96.34-4.37.64-4.6.96-.06.08.57.9.14,1.93-.89,2.12-3.71,2.46-5.71,2.8h-7.65c-3.75-2.6-6.09-6.3-6.34-11.09l11.63-8.19c5.58-8.59,12.74-11.3,20.55-16.43,2.64-1.74,4.74-4.01,7.44-5.5l-.02-.02h0Z"/>
  <path class="st8" d="M97.61,28.28c-.44.47-10.46-4.14-12.03-4.61-7.07-2.12-17.36-3.03-24.68-2.26-2.73.29-6.24,2-8.98,2.12-.73.03-1.59.34-1.29-.76,1.79-6.47,8.14-7.28,13.98-7.69,8.12-.57,23.4,2.13,30.21,6.76,2.28,1.55,3.07,3.66,2.8,6.45h-.01Z"/>
  <path class="st15" d="M137.76,30.4c.31.49.37,1.05.53,1.59-2.7,1.49-4.8,3.77-7.44,5.5-7.81,5.13-14.97,7.84-20.55,16.43l-11.63,8.19c-.41-7.79,4.71-8.58,9.51-12.94,3.55-3.22,6.4-7.5,10.29-10.31,5.87-4.24,13.06-5.57,19.28-8.46h0Z"/>
  <path class="st18" d="M95.5,29.87c.65.31,1.82.35,2.13.9,2.36,8.88,1.33,17.45-4.77,24.47-.31.17-.35.3-.53.53-.69.16-1.09.62-1.58,1.06-1.22,1.08-1.42,1.76-2.11,2.64-4.33.5-4.69,3.2-6.34,6.34-.52-1.15-1.64-.12-2.3.08-5.29,1.6-10.17,2.17-15.66.98-.56-.93-.83-2.1-1.58-2.92-.69-.76-1.54-.85-2.12-1.31-.98-.76-2.38-1.47-3.17-2.11-.21-.18-.31-.86-.53-1.06,2.93.52,4.92,2.18,7.92,2.91,12.39,3.04,23.44-1.62,28.01-13.74,2-5.31,3.79-13.21,2.63-18.77Z"/>
  <path class="st15" d="M75.96,5.56c2.27,3.16,8.49,4.6,11.81,7.48.46.4,3.43,3.75,2.98,4.15-6.88-1.55-12.32-3.87-19.54-4.23-1.56-.8-4.13-.66-5.94-.72-.86-.03-1.53-.73-1.99.72-1.01.04-2.23-.14-3.17,0v-.53c2.7-1.63,5.86-1.73,6.9-2.37.53-.32.38-1.19.5-1.33,1.12-1.3,1.51-1.53,3.17-2.11.44.14,2.62.61,2.84.57.57-.09.25-1.02.33-1.1.17-.18,1.67-.3,2.11-.53Z"/>
  <path class="st5" d="M109.75,27.24c.45,7.24-5.42,3.27-8.99,1.28.85-4.52,5.94-1.39,8.99-1.28Z"/>
  <path class="st0" d="M107.12,16.66c.16.96.68,1.86.55,2.88-.4,3.11-11.26,5.72-8.52,2.13.29-.39,5.44-4.14,6.11-4.5.63-.34,1.01-.73,1.86-.51Z"/>
  <path class="st17" d="M103.95,76.38h-.53c-6.93-4.31-9.61-11.52-7.39-19.56.04-.15.46-.34.53-.53h.53c-.84,4.89-.33,10.53,2.41,14.76,1.23,1.9,3.53,3.33,4.45,5.32h0Z"/>
  <path class="st5" d="M97.61,53.66c-.59.79-.72,1.76-1.06,2.64-.07.19-.49.37-.53.53.25-1.6-.62-1.07-1.63-.82-2.36.58-1.16,1.25-2.08,2.1-1.98,1.81-3.28,1.7-4.74,4.53v-1.06h-1.06c.57-.9,1.39-1.19,2.11-2.11s.89-1.56,2.11-2.64c1.07,1.71,1.28-.68,1.58-1.06.18-.22.22-.36.53-.53.23-.12.99.04,1.54-.29,1.12-.66,2.29-2.3,3.22-1.3h0Z"/>
  <path class="st13" d="M70.68,6.62c-1.65.59-2.04.82-3.17,2.11-.38-.66-3.88-3.07-3.17-3.7,1.61,0,3.36.26,4.9.66.82.21,1.26.87,1.43.92h0Z"/>
  <path class="st13" d="M75.96,5.56c-.44.23-1.94.35-2.11.53l-.52-3.7c1.28.6,1.86,2.09,2.64,3.17,0,0-.01,0-.01,0Z"/>
  <path class="st13" d="M71.21,12.96c-2.5-.12-5.41-.11-7.92,0,.46-1.45,1.13-.75,1.99-.72,1.81.06,4.38-.08,5.94.72h-.01Z"/>
  <path class="st2" d="M97.09,56.3h-.53c.34-.88.46-1.85,1.06-2.64,1.36,1.48-.45,2.17-.53,2.64Z"/>
  <path class="st2" d="M108.71,78.5c-2.63-.65-3-.69-5.28-2.11h.53c1.5.7,3.96.73,4.75,2.11Z"/>
  <path class="st13" d="M60.11,12.43v.53c-.41.06-1.46,1.2-2.1.8.47-.99,1.52-.97,2.1-1.33Z"/>
  <polygon class="st18" points="91.28 17.71 91.28 17.19 92.06 17.19 92.85 17.99 91.28 17.71"/>
  <path class="st14" d="M23.67,38.33c-.31,1.61.2,2.8.53,4.23.96,4.24,3.2,9.74,7.39,11.64-.16,1.01-1.68.67-2.04,1.95-1.01,3.54,6.25,8.21,8.9,9.4-2.61,2.71,2.54,6.19,5.17,6.99,1.77.54,3.56.39,5,.81,1.06.31,1.89,1.59,2.9,1.85,1.52.4,3.32,0,4.89.13.12,2.11.42,1.79,0,4.23-5.53.73-10.94,2.01-16.37,0l2.11-4.22c-7.13-.55-19-1.56-22.18-8.98,2.69-1.29,5.67,1.18,7.91-.8-6.84-3.91-20.05-6.5-20.06-16.12.85-.85,9.43,2.14,11.35,2.14.48,0,1.82.23,1.33-.8-.22-.46-7.43-3.95-8.83-4.91-5.13-3.5-11.06-9.13-8.55-15.93,1.33-.92,17.75,7.22,20.55,8.41,0,0,0-.02,0-.02Z"/>
  <path class="st18" d="M43.74,49.43c.13.62.42,1.11.53,1.59.4,1.7,1.25,6.79,3.91,4.79.6-.45.21-.89.32-1.09.51.03,1.13-.28,1.58-.53.3,2.99,3.57,6.65,6.34,7.93-.41,4.77-.27,8.44,0,13.21-1.57-.13-3.37.27-4.89-.13-1.01-.26-1.84-1.55-2.9-1.85-1.44-.42-3.23-.27-5-.81-2.63-.8-7.79-4.27-5.17-6.99-2.66-1.2-9.92-5.87-8.9-9.4.37-1.28,1.89-.94,2.04-1.95-4.19-1.9-6.43-7.39-7.39-11.64,6.09,3.43,12.54,5.95,19.54,6.87,0,0,0,0,0,0Z"/>
  <path class="st9" d="M43.74,49.43c-7-.92-13.46-3.44-19.54-6.87-.32-1.43-.84-2.62-.53-4.23,6.45,2.73,13.03,5.1,19.55,7.66,1.01.84.31,2.41.52,3.44Z"/>
  <path class="st10" d="M48.49,54.71c.51-.98-.28-1.27,1.58-1.59.02.35-.03.71,0,1.06-.46.24-1.07.55-1.58.53-.1.2.28.64-.32,1.09-2.66,2-3.51-3.09-3.91-4.79h.53c.3,1.63,1.86,3.61,3.7,3.7Z"/>
  <path class="st18" d="M117.69,83.78c.27,1.2,7.1,6.36,8.45,6.87-.32,1.99-2.23,3.25-3.17,4.76-6.89,6.69-13.69,10.18-23.24,11.63-6.25.95-14.11-.51-19.95-3.03-.65-.28-1.56-.28-1.7-1.2h7.66c6.44,0,23.02-8.33,26.15-14.27,1.68-.17,2.57-1.79,3.17-3.17.89-.53,1.5-1.5,2.64-1.59h-.01Z"/>
  <path class="st3" d="M88.64,59.47c-.72.92-1.54,1.21-2.11,2.11-1.77,2.79-2.39,6.91-4.84,10.22-4.72,6.36-11.66,7.29-16.81.88-1.17-1.46-3.75-6.71-4.23-8.46-.11-.42.08-1.1,0-1.59.58.46,1.43.55,2.12,1.31.75.82,1.02,1.99,1.58,2.92,2.3,3.85,3.61,7.82,9.23,7.41,5.29-.38,6.67-4.55,8.72-8.47,1.65-3.14,2.01-5.84,6.34-6.34h0Z"/>
  <path class="st3" d="M51.66,53.13c.1.04.26.48.53.53l3.47,5.27c.24.48,1.14.42,1.28.55.22.2.31.88.53,1.06h-1.06c-.05.52.04,1.06,0,1.59-2.77-1.27-6.04-4.94-6.34-7.93-.03-.35.02-.71,0-1.06.08,0,1.51-.03,1.58,0h.01Z"/>
  <path class="st6" d="M92.33,110.21c2.76-.36,1.72.49,2.11,1.06.01,1.25.31,2.48.53,3.7l-.53,2.64c-.53.17-1.37-.55-1.58-.53l-1.06-4.76c.04-.7-.03-1.41,0-2.11.17-.02.36.02.53,0Z"/>
  <path class="st2" d="M60.64,64.23c.48,1.75,3.05,7,4.23,8.46l-.53.53c-2.34-3.06-3.38-5.36-4.75-8.98h1.06-.01Z"/>
  <path class="st3" d="M115.04,85.37c-.6,1.39-1.49,3-3.17,3.17.41-.78.27-1.9,1.3-2.69.77-.59,1.64-.35,1.87-.48Z"/>
  <path class="st1" d="M92.33,110.21c-.17.02-.35-.02-.53,0l.26-.52.26.52h0Z"/>
  <polygon class="st3" points="59.59 64.23 59.06 64.23 59.32 63.71 59.59 64.23"/>
  <path class="st14" d="M126.14,90.65c5.2,1.97,11.99,1.12,17.43,2.12,1.02,2.45-4.39,5.28-6.08,5.28h-7.92c-.25,0-.98-.79-1.58-.54-.52.03-.34.7-.02,1.08,1.74,2.06,9,1.26,8.72,5.27-4.27.52-8.14-.99-12.14-2.11l2.11,3.69c-.7.63-7.11-1.66-7.91-2.94-.22-1.01,2.98-3.8,3.63-4.8.55-.85.43-2.04.59-2.3.94-1.51,2.85-2.77,3.17-4.76h0Z"/>
  <path class="st16" d="M109.23,107.04c2.43,3.23,1.79,7.7,3.6,11.46.94,1.97,3.26,3.84,3.79,5.19s-2.52.53-3.68,1.06c-.91.41-1.94,2.31-2.95,2.88-2.23-1.71-2.73-3.5-6.04-2.1-.52-.49,3.96-4.92,4.43-5.87,1.82-3.68-.52-8.17-.74-12.1.09-.09.42.09.53,0,.21-.17.36-.39.53-.53.11-.09.45.09.53,0h0Z"/>
  <path class="st1" d="M108.18,107.56l.53-.53c-.17.13-.32.36-.53.53Z"/>
  <path class="st11" d="M55.36,40.97c1.27-.45,2.53-1.39,3.95-1.59.51-.02.19.66.27,1.07.1.51-.28,1.52.27,1.59,1.22.21,1.83-.39,1.85-1.59.29,0,.84-.65,1.71-.43.99.24,2.25,1.84,3.46,2.12.66,1.81-.46,2.85-1.48,4.13-4.34,2.31-11.79-.14-15.32,4.23-.17.03-.36-.03-.53,0l-.53.53c-.16,0-.36.02-.53,0-.33-.04-1.51-.51-1.6-.88-.47-3.73.46-5.82,3.71-7.57.15-.07.38.06.53,0l1.06-.53c.15-.06.38.06.53,0l1.06-.53c.16-.06.37.05.53,0l.53-.53c.16-.06.37.06.53,0v-.02Z"/>
  <path class="st4" d="M68.04,46.26c-3.75,3.18-9.06,3.12-13.73,3.7-1.44.18-2.78.32-4.23.53,3.53-4.37,10.98-1.92,15.32-4.23,1.02-.54,1.62-1.58,2.64-2.11,0,.7.05,1.42,0,2.11Z"/>
  <path class="st16" d="M54.3,49.96c4.67-.58,9.98-.52,13.73-3.7-.02.31.86.38-.29,2.08-3.26,4.82-8.83,3.4-13.44,1.62Z"/>
  <path class="st16" d="M55.36,40.97c1.88-1.97,3.56-3.59,6.5-3.06,1.37.25,4.22,4.25,6.49,4.64.49.71-.31,1.33-.31,1.59-1.02.53-1.62,1.57-2.64,2.11,1.02-1.28,2.14-2.31,1.48-4.13-1.21-.28-2.48-1.87-3.46-2.12-.87-.22-1.42.43-1.71.43-.42,0-1.34-.87-2.11,0-.08-.4.24-1.09-.27-1.07-1.42.2-2.68,1.15-3.95,1.59,0,0-.02.02-.02.02Z"/>
  <path class="st16" d="M50.61,42.56c-3.25,1.76-4.19,3.84-3.71,7.57.09.38,1.27.85,1.6.88-.13.36-.43.71-.53,1.06l-.53.53c-2.38-2.09-1.77-6.29.24-8.48,1.1-1.2,1.77-1.04,2.93-1.56Z"/>
  <path class="st16" d="M53.78,41.5l-1.06.53c.2-.08.49-.32,1.06-.53Z"/>
  <path class="st16" d="M52.19,42.03l-1.06.53c.21-.09.58-.33,1.06-.53Z"/>
  <path class="st10" d="M52.19,53.66c-.27-.05-.43-.49-.53-.53.06-.25.29-.5.53-.53,0,0,0,1.06,0,1.06Z"/>
  <path class="st4" d="M47.97,52.07c-.08.29.05.72,0,1.06-.59.09-.49-.5-.52-.53l.53-.53h0Z"/>
  <path class="st4" d="M49.02,51.01l.53-.53s-.06.49-.53.53Z"/>
  <path class="st16" d="M54.3,41.5c.07-.03.24-.43.53-.53l-.53.53Z"/>
  <path class="st16" d="M94.97,114.96c.22,1.18,1.01,3.87,1.01,4.5-.02,2.59-7.59,8.02-10.51,5.53l1.58-2.63h-3.69c1.9-2.07,5.5-2.47,8.07-3.82.64-.34,1.08-1.43,1.43-1.47.21-.03,1.06.7,1.58.53l.53-2.64Z"/>
  <path class="st17" d="M86.52,61.58h1.06v1.06c-1.62,3.15-1.82,6.12-4.1,9.37-3.42,4.85-11.09,9.63-16.48,4.62-.31-.29-2.15-2.75-2.66-3.42l.53-.53c5.15,6.41,12.1,5.47,16.81-.88,2.45-3.31,3.08-7.42,4.84-10.22Z"/>
  <path class="st3" d="M75.56,37.67c-.97-.97-1.35-6.67.78-7.18,5.62-1.66,5.1,10.54-.78,7.18Z"/>
  <path class="st3" d="M55.89,37.27c-4.27,2.35-5.59-5.93-3.05-7.05,4.28-1.88,4.9,4.28,3.05,7.05Z"/>
  <path class="st15" d="M82.3,65.81c-2.05,3.91-3.43,8.09-8.72,8.47-5.62.41-6.93-3.56-9.23-7.41,5.49,1.19,10.37.62,15.66-.98.66-.2,1.77-1.23,2.3-.08,0,0-.01,0-.01,0Z"/>
  <path class="st3" d="M90.75,56.83c.5-.44.9-.89,1.58-1.06-.3.38-.52,2.76-1.58,1.06Z"/>
  <path class="st4" d="M61.7,40.44c0,1.2-.62,1.8-1.85,1.59-.55-.07-.17-1.08-.27-1.59.77-.87,1.69,0,2.11,0h0Z"/>
</svg>