<?xml version="1.0" encoding="UTF-8"?>
<svg id="_레이어_1" data-name=" 레이어 1" xmlns="http://www.w3.org/2000/svg" viewBox="0 0 128.24 247.05">
  <defs>
    <style>
      .cls-1 {
        fill: #642541;
      }

      .cls-2 {
        fill: #905d69;
      }

      .cls-3 {
        fill: #ebd8b9;
      }

      .cls-4 {
        fill: #acaca8;
      }

      .cls-5 {
        fill: #2e292d;
      }

      .cls-6 {
        fill: #524b3e;
      }

      .cls-7 {
        fill: #59203a;
      }

      .cls-8 {
        fill: #752745;
      }

      .cls-9 {
        fill: #673b4a;
      }

      .cls-10 {
        fill: #eeedeb;
      }

      .cls-11 {
        fill: #3f413b;
      }

      .cls-12 {
        fill: #221c23;
      }

      .cls-13 {
        fill: #e1ded2;
      }

      .cls-14 {
        fill: #707779;
      }

      .cls-15 {
        fill: #ab7583;
      }

      .cls-16 {
        fill: #e4d5d9;
      }

      .cls-17 {
        fill: #c6cdce;
      }
    </style>
  </defs>
  <path class="cls-12" d="M30.99,51.35c-1.35,4.63-2.64,22.22-1.11,26.23.22.57-.26.89.84.72.35-1.14,3.31-2.46,3.44-2.64l1.06,1.06c-1.43,2.92-1.74,10.69-.91,13.86.2.75,2.25,5.45,2.5,5.69.87.85,1.48-1.71,1.58-2.11,1.25.78,1.32,2.5,3.17,2.11,1.1,2.44,3.77,4.38,5.55,6.34,1.54.64.43-3.35.79-3.7,2.9-.39,4.23,2.94,6.37,4.46.99.71,8,3.92,8.41,3.47v-2.11c.35.03.72-.05,1.06,0,1.52.21,5.42,3.73,6.71,4.11,3.59,1.06,6.42-1.36,9.12-3.36.51-.37.55-2.23,1.6-.99v1.82c.78.82,5.55-1.41,6.33-2.12v2.11c-.28.15-.96.69-1.58,1.06l-2.11-.53v2.11c-.97.18-2.6,0-3.7,0-.05,0-.3-.53-.72-.46-.57.11-.62.71-.86.99-.37.43-.74,1.08-1.06,1.59-2.34,3.71-3.24,8.1-1.06,12.16-.22,1.67-.11,4.58,0,6.34h-2.11v.79l1.59.27v6.34c0,.88-.03,1.76,0,2.64.12,4.25.46,8.43.53,12.68.02,1.06-.02,2.11,0,3.17v19.57c4.07.18,8.14-.4,12.15-1.06.89-.15,1-.52,1.06-.53.33-.06.73.06,1.06,0,.84-.16,1-.52,1.06-.53.46-.1,1.13.11,1.58,0,.78-.19,1-.51,1.06-.53,1.06-.28,2.82-.25,3.7-.53.52-.16.74-.39,1.06-.53,2.52-1.08,3-2.55,3.17-5.29.31-5.2-2.27-11.54-3.11-16.71-.4-2.49-.3-5.38-.66-7.8-.28-1.95-2.73-13.38-2.04-14.07,2.07-.4,2.45,1.59,2.91,3.16,2.2,7.49,3.62,18.61,5.41,26.82.49,2.23-.9,5.22,2.5,5.47.8.06,3.23-.29,3.97-.58l.53,1.32.56-1.82h1.52c-.36,1.11,1.04,1.95,1.09,2.09,1.06,2.99-.52,3.23-.57,5-.1,3.61,3.52,4.99,1.62,9.8l-.53.53c-1.69,2.69-3.02,2.85-5.28,4.76-.88-1.01-3.55,1.05-4.75,1.59-.99-.22-1.36-.49-2.64-.53v-1.58h-.79c-.47.09-.31,1.1-.27,1.59.01.17-.02.36,0,.53l-1,.08-.12,1.44-1,.08c-.34-2.12-.76-4.16-.53-6.34-7.98,1.64-16.36,3.81-24.54,4.25-11.75.63-24.35-1.73-35.89-3.63-2.76,2.02-1.95,4.96-2.49,7.5-.25,1.19-1.93,7.27-1.52,7.73l3.16-1.05c.03,1.02.83,2.02.89,2.98.19,2.93-1.38,7.89-1.94,10.77l-1.58-.53c.17-.93-.14-2.19,0-3.17,0-.06.87-.74.53-1.05-1.13-1.05-1,.98-1.05,1.05-1.25,1.79-2.13,2.5-4.23,3.17-.04,0-.32-.46-.68-.38-.93.21-1.61,1.33-3.21.93l-.59-1.09-.26,1.06c-3.66,1.08-6.47,3.55-10.56,3.17.06-1.37-.88-1.73-2.11-1.59-.01-.61.41-1.11.53-1.59h1.58c-.13-.83-.88-.97-1.58-1.06-.32-.04-.73-.02-1.06,0v-1.06c-1.6-.14-3.02-.11-4.23,1.06-1.89-.38-1.58-.31-3.17-1.06v-1.58h-1.32l-.27.52c-.47-.32-1.64-.43-2.28-1.04-.5-.46-.28-.94-.36-1.08l-.53-2.11c.67-1.94,1.61-1.85,3.7-2.11l.79.53.27-.53c.87-.05,1.76.03,2.64,0-.36.55.67,1.51-2.11,1.06.96,1.45,3.75.39,3.17-1.59,2.72-.98,5.77-1.24,8.45-2.64l.53,2.11c-4.95,2.4-9.24,3.69-14.79,4.23,1.17,1.93,4.03,2.75,6.2,3.05,2.44.33,4.34-.72,6.47-.41.23.03.95.8,1.58.53-.16,1.59-.78,2.27-1.05,3.7,5.2.76,7.82-4.69,12.14-6.34.37.43-.77,4.87.79,4.22,1.03-1.28,7.24-6.22,6.05-7.88-4.01-.8-3.08-3.16-2.61-6.38.44-2.95.98-4.67,1.06-7.93.02-.81.07-1.04,0-2.11-.02-.35.04-.71,0-1.06,1.89.24,1.31-1.72,1.58-2.11.04-.06.9-.06,1.3-.53,1.59-1.89.66-4.32-.33-6.25-5.19.05-10.15-.15-15.23-1.15.25,1.98-.88,7.1,1.33,7.93l1.05-1.05,1.85,3.17c-.62-.12-1.44.07-2.11,0v.52c.35,0,.87.29,1.05.54-6.18.31-5.73-4.8-5.83-9.27-.05-2.46-.38-3.47-.49-5.29-.06-.99.66-1.99.53-3.11-.15-1.22-2.2-3.28-2.53-4.91-1.66-8.21,5.61-33.04,9.3-41.2,2.19-4.84,5.27-9,8.65-13.04.72-.87,3.29-2.69,3.49-3.35.27-.85.29-3.69-.16-4.41s-1.73-.68-2.25-1.18c-.59-.57-1.41-3.14-1.73-4.09-1.11-.49-1.21.94-1.58,1.06v-1.06c-.68-.08-1.46.1-2.11,0-.89-.13-1.88-.46-2.64-.53-.52-.05-1.06.02-1.59,0v1.59c-4.98-.23-8.17-8.51-9.24-12.69l-.53-.51-2.07,1.01c-4.41-4.52-3.08-12.77-1.36-18.46l.53-1.06c.39-1.11,1.23-4.08,1.58-4.76.04-.08,1.39-.21,1.32-1.06l1.32,1.06c-.49,1.12-3.7,9.75-3.7,10.31v10.31c2.36-.09,1.49-4.3,4.22-4.23.46,6.75,1.85,12.86,7.13,17.43,1.33-.97.64-2.61.79-3.95,2.39-1.05,3.09,3.49,5.81,3.43l.53-11.1c-3.57,1.86-4.51-3.99-4.74-6.62-.56-6.33.92-11.81,1.05-17.7,0-.34.05-.75,0-1.06.48-.23.4-.68.53-1.06.3-.89.8-1.84,1.06-2.64h1.58-.03ZM26.76,90.46h-1.05v1.58l1.05-.8v-.78ZM68.49,114.77c-1.75-8.17-4.43-4.55-9.95-6.17-1.93-.57-5.91-3.79-6.27-3.87-2.11-.45-3.59,1.12-6.27.04-.7-.28-2.65-1.78-3.2-2.34-.43-.44-2.61-4.36-3.35-3.51-1.07,4.92,2.14,6.93,5.85,9.2,5.97,3.65,10.62,3.5,16.43,5.65.35.13,3.51,2.3,3.06,3.12-1.35,1.16-12.67-2.89-14.79-3.7-1.68-.65-3.69-1.3-5.28-2.11-.53-.27-1.85-.89-2.11-1.06-.28-.18-1.51-1-1.58-1.06-.1-.08,0-.77-.31-1.04-.53-.49-1.18-.45-1.28-.54-.55-.49,1.17-1.3-1.58-.53-.86.24-1.17-.08-2.15.75-7.28,6.16-11.78,20.69-14.19,29.68-1.08,4.04-5.84,21.88-3.09,24.44.26.24.83.02.94.1.87.65,1.81,1.73,2.64,2.11.32.15,1.19-.14,1.58,0,.93.32,1,.87,2.64,1.06,1.73.2,7.56.25,9.01-.23,2.4-.8,2.7-4.46,3.27-4.96.29-.25,1.21.03,1.38-.14.52-.51-.07-12.42.05-14.51.09-1.54.47-5.3.68-6.71.34-2.26,1.52-9.9,4.36-9.94,1.69.13,1.4,2.17,1.35,3.47-.22,5.29-2.27,11.07-2.66,16.38-.25,3.36.82,17.85-2.51,19.18-.48.19-1.17.03-1.7.13-.03,3.42-.93,4.16,2.51,5.1,8.72,2.38,18.53,2.02,27.49,2.73.95-.59.96-17.38,1.13-20.01.02-.36,1.03-1.67.53-2.65h-1.05c-.12-7.01-.47-15.31,0-22.19,0-.06.78-.49.52-1.05h-1.05c-2.09-5.41.15-9.16-1.06-14.81h.01ZM73.77,111.08h-3.69l1.09,4.2,2.06.02s.54-4.22.54-4.22ZM71.66,126.4c.12.16-.28.97.26,1.07l1.85-1.07c.18,0,.35.01.53,0,.35-.02.71.03,1.05,0l.03-2.41c.22-1.23-.84-.61-1.09-.77-1.01-.66-1.14-3.78-1.51-5.12-.25-.89.39-1.48-1.12-1.22.77,2.91-1.66,6.43-.79,8.96.11.32.69.41.79.55h0ZM73.77,141.73c-.09-3.41.55-8.88,0-11.89-.17-.91-.56-1.48-1.58-1.32-.25,15.73.69,31.36,0,47.04h1.58c-.42-3.14.43-6.22.56-9.23.3-7.49-.35-15.01-.55-22.49l1.06-.29v-1.82h-1.07ZM74.82,139.08v-2.11h-.52v2.11h.52ZM112.86,164.46l-7.43,1.81-.49,2.94c3.45-.17,9.13.11,7.92-4.75ZM27.03,170.8c2.95.28,6.25-.21,9.24,0v-3.17c-5.14.24-10.12-.06-15.05-1.59-.26,0-.64,2.12-.59,2.41.21,1.4,5.13,2.23,6.4,2.35h0ZM109.69,180.84c.78-1.17,1.71-2.06,1.59-3.7l2.63,1.06c.39-.96-.58-7.44-1.36-7.42l-9.48,2.12c-.52,1.36-2.68,10.78,0,10.05.99-2.13,1.29-1.32,2.91-1.59l.26,2.64c2.13-.88,2.34-1.51,3.44-3.17h.01ZM99.65,173.97c-7.5,2.03-15.1,3.71-22.89,4.31-1.2.39-1.52,2.5-1.4,3.61l23.4-3.8c1.47-.53.76-2.83.89-4.13h0ZM57.93,177.67c-2.56-.21-5.74-.27-8.12-.6-1.89-.26-8.94-2.52-9.87-1.83l-.19,3.54c.61.42,11.8,1.96,13.43,2.05.51.03,1.07.03,1.58,0,.14.51.61.5,1.06.53,2.08.14,3.75.28,5.81.53,1.07.13,1.49,0,1.58,0,1.23.15,2.43.39,3.7.53.78.09,2.37,1.58,3.17-.53v-3.7h-4.23c-.19-.27-.38-.43-.73-.45-.43-.03-.3.45-.33.45-2.27-.15-4.59-.34-6.87-.53h0ZM73.24,177.67l-1.49.88-.09,3.88h1.58v-4.76h0Z"/>
  <path class="cls-5" d="M73.24,3.26c2.98-1.85,8.42-4.38,11.65-2.3.16,1.47-.37,2.66-1.09,3.88-.11.19-.91.39-1.05.8v.79c.81.36,1.38-.5,1.58-.53,4.05-.47,11.53.39,14.96,2.73,3.58,2.44.84,4.35,1.44,5.15,6.67,3.38,13.27,8.96,15.82,16.16,2.55,7.19,2.58,11.96,6.94,18.95,1.72,2.75,8.78,8.71,1.5,9.34,2.34,6.7,4.58,14.54,2.28,21.57-1.71,5.23-4.09,1.45-4.38,1.69-.12,3.34-6.31,14.99-10.22,13.69l-1.67-2.05c-1.17,1.61-3.22,1.69-4.49,3.16-.89-.15-1.2.17-1.06,1.06-1.13.77-.91,1.82-1.4,2.16-1.02.72-2.96.11-4.19.97-.83.58-2.53,3.91-2.26,4.95.18.7,5.19,6.58,6.16,8.14,1.97,3.18,3.53,6.54,4.71,10.09,2.96,8.92,8.88,26.98,8.01,35.73-.13,1.35-.69,3.44-1.53,4.55-.05-.14-1.45-.98-1.09-2.08h-1.52l-.56,1.81-.53-1.32c.13-.05.33-.38.53-.53,2.14-1.57,1.74-4.42,1.58-6.87-.37-5.85-8.2-31.99-10.99-37.36-1.06-2.03-2.55-4.04-4.32-5.45-.36-.61-.38-1.4-1.06-2.11-.41-.43-.65-.36-1.06-.53-1.7-.71-2.05-.65-2.11,1.59-.19.16-.34.37-.53.53-2.43.41-4.4,2.18-6.72,3.05-1.24.47-8.56,2.73-9.12,2.23l1.05-2.64c3.38-1.42,13.9-3.63,15.59-6.86.37-.71.37-.83-.27-1.34-2.64-.75-3.92-1.05-6.35.27v-2.11c.09-.09.1-.93.51-1.32,1.19-1.11,2.27-2.33,3.46-3.44,1.37-.59.5,3.2,1.57,3.69l7.13-7.24.54-2.27h1.57l.26,3.7c2.86-2.73,3.84-5.47,4.43-9.31.95-6.17.51-11.65-2.59-17.11l-1.83,5.3-1.33.51c-1.38-4.44-5.16-7.35-8.73-10.04l.04,2.64c-2.17,2.05-5.13.49-7.37-.6-5.21-2.52-8.97-7.66-11.68-12.62-3,4.14-5.93,9.11-10.47,11.73-1.49.86-8.53,4.13-9.31,1.67-.23-.74,1.27-4.01-.3-3.36-.44.18-5.41,5.28-6.07,6.09-1.45,1.76-2.09,4.08-3.97,5.52-2.56-1.82-2.47-5.18-3.17-7.91-.84,2.4-4.13,5.04-5.02,6.87l-1.06-1.06c.1-.14-.08-1.06.29-1.54,3.07-3.94,5.49-8.18,8.43-12.2,1.15-.22.78.53.81,1.33.09,3.09-1.15,6.96-.54,10.29l16.11-17.44c1.11-.22.86.53.79,1.31-.31,3.43-3.31,6.73-3.7,10.31,10.76-2.62,16.51-13.28,18.44-23.47l1.63-.31c.85.82-1.78,7.91-1.49,9.65.76,4.55,10.1,14,15.23,14.13l-4.17-9.31c-.45-1.07,1.17-.88,1.71-.65.87.38,2.31,3.11,3.17,3.96,3.51,3.47,8.03,6.27,10.38,10.75.87.14.49-.71.52-1.31.14-2.62-.42-4.59-.52-6.89-.02-.53-.29-1.74.78-1.31,2.01.81,6.53,12.9,9.77,14.26,1.7-8.63,1.71-17.93-.78-26.43-.55-1.88-4.6-10.34-3.96-11.09,1.15-.27,1.17.65,1.69,1.21,2.59,2.78,4.88,9.32,5.7,13.06,1.15,5.2,1.5,11.8.99,17.11-.27,2.88-1.63,12.01-5.74,8.26l-.27,11.62c1.42-1.56,1.2-3.73,3.96-3.17.38.36-.78,4.88.79,4.23,4.94-4.55,6.95-11.39,7.14-17.96,1-1.21,3.32,4.52,3.17,5.28.69.15.62-.55.78-1.05,1.35-4.36.14-10.76-1.29-15.08-.99-2.98-3.81-6.52-3.19-9.76.12.08.4-.08.53,0,1.12.7,2.24,2.48,4.23,2.11-.7-1.33-2.35-2.56-3.17-3.69-1.68-2.33-3.39-5.65-4.69-8.26-.95-1.9-.91-4.45-2.85-5.61-4.67-2.78-18.23-5.06-23.89-5.69-22.75-2.55-45.66-.16-67.47,6.46l-1.16.95c-1.37,3.45-3.01,8.02-5.04,11.08-.22.33-4.49,4.04-3.69,4.75,1.51,1.04,5-4.2,5.28-1.05-.56,1.15-1.81,3-2.11,3.7l-1.32-1.06c.07.86-1.28.98-1.32,1.06-8.03-.23-.53-7.02,1.48-10.41,5.95-10.05,4.61-19.56,13.83-27.91.96-.87,6.84-4.84,6.85-5.28,0-.19-1.82-1.36-.78-3.44,1.92-3.82,15.77-5.87,19.81-4.76-4.31-5.15-1.35-6.59,4.23-5.28,3.65.86,6.65,3.19,9.77,5.11.77-.04,3.07-2.44,3.97-3l.04.03ZM81.69,2.73c-4.94.09-8.47,3.93-12.4,6.35-4.02-2.48-7.98-5.57-12.95-5.82,1.29,2.19,4.4,3.39,4.22,6.33-7.28-1.4-15.48-2.16-21.65,2.64,10.52,1.17,2.8,2.64-1.22,4.87-1.86,1.03-4.14,2.62-5.65,4.12,5.91-1.2,11.74-2.93,17.76-3.63,11.38-1.32,25.95-1.46,37.43-.59,6.56.5,12.96,2.01,19.28,3.69l-4.06-3.06c-2.15-1.92-12.85-4.2-5.19-5.94.8-.18.94.41.8-1.03-2.57-.44-4.41-1.84-7.14-2.11-4.5-.46-8.56.46-12.93,1.05l3.69-6.86h0ZM67.43,19.64c-5.14-.4-9.24-.55-14.52,0-4.35.46-24.64,4.14-26.62,7.19-.45.69-3.03,8.85-2.69,9.19,4.27-.19,7.99-2.57,12.03-3.55,11.07-2.69,23.31-2.57,34.45-4.38h1.58c9.04,1.29,18.5,1.14,27.58,2.8,5.39.98,10.42,3.25,15.73,4.07-1.08-7.12-1.86-8.82-8.45-11.36-8.92-3.44-20.83-4.84-30.41-4.51-.94.03-1.99-.43-1.81,1.07l-6.87-.53h0Z"/>
  <path class="cls-4" d="M63.74,225.76h9.51s.92-.24,1.07.34c.73,2.86-.93,5.72,2.36,8.65,6.47,5.77,29.86,6.48,27.74-4.76,8.13,1.49,17.3,6.95,4.74,11.88-18,7.08-63.52,6.84-81.47-.38-11.63-4.68-2.28-9.86,4.89-11.5.45-.1,1.09.07,1.58,0-.93,5.11,1.35,8.27,6.21,9.38,6.06,1.38,16.08.89,20.49-4.07,3.12-3.51,1.01-6.01,1.8-9.21.16-.63,1.01-.25,1.08-.33h0Z"/>
  <path class="cls-5" d="M101.77,185.59c.33,2.42,3.9,12.83,2.15,14.04l-3.21.23c-.66,3.94,2.77,11.35,1.2,14.69-.48,1.03-1.74.85-1.77,1.94-.03,1.33,1.01,2.97,1.06,4.3.04,1.2-.74,2.13-.39,3.51s3.31,4.19,3.6,5.69c2.12,11.25-21.26,10.53-27.74,4.76-3.29-2.93-1.63-5.79-2.36-8.65-.15-.59-1.04-.3-1.07-.34-2.91-4.7,1-8.58.04-11.83-.15-.52-1.31-.3-1.88-.84-2.45-2.33,1.41-11.85-.24-12.99-.75-.52-3.83-.57-4.18.63-.83,4.64,1.51,9.4-.16,13.86l-2.04.07c-.03,3.81,1.92,7.9-1.05,11.1-.07.08-.92-.29-1.08.33-.79,3.2,1.32,5.7-1.8,9.21-4.41,4.96-14.43,5.46-20.49,4.07-4.86-1.11-7.14-4.27-6.21-9.38.27-1.45,2.58-3.99,2.66-5.06s-1.17-2.23-1.08-4.45c.05-1.21.8-2.81.56-3.86-.16-.68-1.89-.3-2.17-2.73-.31-2.73.79-3.45,1.09-5.04l1.58.53c-.19,1,.38,2.48-.52,3.44l2.63-.27c.7.69-.7,6.81-.58,8.2.25,2.8,2.56,3.19.05,7.13-2.12,3.32-3.77,4.85.52,7.93-.55-1.2.58-3.62.53-4.23.03-1.41.8-1.79,2.11-1.58-.1.82.16,1.88,0,2.64s-1.4,1.84-1.1,3.36l5.33.87c.19-.19-.16-2.47,0-3.17.16-.75.72-1.08,1.06-1.59.25.29,1,.78,1.06,1.06.17.78-.2,3.5,0,3.7,3.88.41,11.53-1.28,12.15-5.82.21-1.52-.11-9.4.53-10.04h2.11c.59-1.96-2.01-10.1.85-10.55l1.78,1.03c-.92-4.49-1.75-9.16-.45-13.67,5.11-.59,10.26-.98,14.98-3.25,1.01-.11.75,0,.79.81.14,2.91-6.42,2.4-6.88,4.74-.52,2.68.36,6.8-.53,9.78,2.5-.45,2.53.67,2.67,2.88.22,3.44-1.02,6.48-1.61,9.8l2.64-.52c.27.29-.2,6.6,0,7.93.73,4.68,9.76,6.46,13.75,6.1.86-.55.04-3.62-1.08-3.98.2-.41-.23-1.69.81-2.1l.98-.02c.33.05.63,1.01.85,1.07.56,3.02-.1,5.55,3.96,4.76,2.27-.44,1.11-2.85.76-4.47-.08-.39-.49-.26-.49-.29-.13-.59.08-1.45,0-2.11.74-.29,1.73.53,2.11.53.13.66.62,5.33,1.84,4.75s1.59-3.22,1.23-4.4c-.2-.64-.9-.77-.96-.88-.98-1.81-3.27-3.78-3.22-5.56.04-1.17.99-1.76,1.05-2.6.12-1.77-2.53-8.07-.2-9.27l1.32.78c-.32-5.4-3.19-11.26-.55-16.43l2.13.31c-.26-3.04-1.1-5.97-1.58-8.98l1-.08.12-1.44,1-.08h.03ZM62.95,221.53v.53c.34-.18.34-.35,0-.53Z"/>
  <path class="cls-5" d="M25.18,182.42c2.67.5,4.11,3.95,8.45,1.06.07,1.07.02,1.31,0,2.11-5.1,5.49-8.99,9.9-15.85,13.21l-.53-2.11c1.67-.87,10.58-7.94,11.09-9.26.42-1.08-2.72-1.19-3.13-2.16-.65-.4-.74-1.33-1.09-1.8-.19-.25-.7-.54-1.05-.54v-.52c.67.07,1.48-.12,2.11,0h0Z"/>
  <path class="cls-10" d="M73.24,3.26c-.9.56-3.19,2.95-3.97,3-3.12-1.93-6.12-4.26-9.77-5.11-.31-1.53.85-1.11,1.85-1.08,4.03.11,8.06,2.25,11.89,3.19Z"/>
  <path class="cls-5" d="M110.22,184.01c-.12.1-.14,1.55-1.98,1.98s-1.84-.19-2.77-.39c1.2-.53,3.87-2.6,4.75-1.59Z"/>
  <path class="cls-5" d="M8.28,208.32c1.2-1.16,2.62-1.2,4.23-1.06v1.06c-1.97.12-1.54.53-4.23,0Z"/>
  <path class="cls-5" d="M25.71,209.38l.26-1.06.59,1.09c1.6.4,2.28-.72,3.21-.93.36-.08.65.39.68.38.13,2.18-4.02,2.32-4.75.53h0Z"/>
  <path class="cls-5" d="M8.81,199.34c.58,1.98-2.21,3.04-3.17,1.59,2.78.45,1.75-.51,2.11-1.06.45-.7.63-.38,1.06-.53Z"/>
  <path class="cls-5" d="M15.14,212.55c-1.3-.12-2.07.09-2.11-1.59,1.23-.14,2.17.22,2.11,1.59Z"/>
  <path class="cls-5" d="M3.52,206.21l.27-.52h1.32v1.58c-1.95-.91-1.13-.75-1.58-1.06h-.01Z"/>
  <path class="cls-5" d="M26.76,93.1v1.59c-.52,0-1.06.02-1.58,0v-1.59c.52.02,1.06-.05,1.58,0Z"/>
  <path class="cls-5" d="M29.41,93.63c.66.1,1.43-.08,2.12,0v1.06c-.51.16-1.49-.09-2.12,0v-1.06Z"/>
  <path class="cls-4" d="M84.34,5.9c-.2.02-.77.88-1.58.53v-.79c.14-.41.94-.61,1.05-.8,0,0,.53,1.06.53,1.06Z"/>
  <path class="cls-5" d="M.88,204.09c-.78-1.21-1.24-.04-.53-2.11l.53,2.11Z"/>
  <path class="cls-5" d="M101.77,185.07c-.04-.48-.2-1.5.27-1.59h.78v1.59c-.35,0-.7,0-1.06,0h.01Z"/>
  <path class="cls-5" d="M13.56,208.32c.71.09,1.46.23,1.58,1.05h-1.58c.07-.29-.05-.72,0-1.05Z"/>
  <path class="cls-5" d="M34.69,205.68c.05-.08-.08-2.1,1.05-1.05.34.31-.52.99-.53,1.05h-.53,0Z"/>
  <path class="cls-11" d="M106.52,96.28c-.69.8.38.08-1.06,1.06-.14-.89.17-1.2,1.06-1.06Z"/>
  <path class="cls-5" d="M11.98,64.04c.16-.51.44-.81.53-1.06l-.53,1.06Z"/>
  <path class="cls-5" d="M5.11,199.86l-.27.53-.79-.53c.34-.04.71.02,1.06,0Z"/>
  <path class="cls-14" d="M115.5,179.25l.53-.53c-.08.21-.42.35-.53.53Z"/>
  <path class="cls-13" d="M122.37,51.88h-1.06v1.59c-.13-.08-.41.08-.53,0-.07-.05-.52.1-.85-.18-.56-.46-2.61-4.29-3.37-3.52-.28,1.12-.31,4.41-2.12,4.23-.82-3.74-3.11-10.28-5.7-13.06-.52-.56-.54-1.48-1.69-1.21-.64.76,3.41,9.21,3.96,11.09,2.49,8.5,2.48,17.8.78,26.43-3.24-1.37-7.77-13.45-9.77-14.26-1.07-.43-.8.77-.78,1.31.1,2.3.67,4.27.52,6.89-.03.59.35,1.45-.52,1.31-2.36-4.48-6.88-7.28-10.38-10.75-.86-.85-2.31-3.58-3.17-3.96-.54-.24-2.15-.43-1.71.65l4.17,9.31c-5.13-.13-14.46-9.58-15.23-14.13-.29-1.73,2.34-8.82,1.49-9.65l-1.63.31c-1.93,10.19-7.67,20.85-18.44,23.47.38-3.58,3.39-6.87,3.7-10.31.07-.78.32-1.54-.79-1.31l-16.11,17.44c-.6-3.33.63-7.2.54-10.29-.02-.8.35-1.55-.81-1.33-2.94,4.02-5.36,8.25-8.43,12.2-.37.48-.19,1.4-.29,1.54-.13.18-3.09,1.5-3.44,2.64-1.1.17-.63-.15-.84-.72-1.53-4.02-.23-21.6,1.11-26.23.56-1.92,3.01-4.63,2.65-7.13-.34-3.16-3.78,4.5-3.98,5.02-.31.8-.1,1.64-.25,2.11-.26.8-.76,1.75-1.06,2.64h-1.05c-.22.61.51.99.53,1.06.05.31,0,.72,0,1.06-2.59.3-.52,5.83-3.69,5.81l-1.06-13.74c-1.59,1.13-2.78,3.07-3.69,4.76-.95-.25-.92-1.23-1.16-2.02l-.96-.09c2.03-3.06,3.67-7.63,5.04-11.08l1.16-.95c21.82-6.62,44.72-9.01,67.47-6.46,5.66.63,19.22,2.91,23.89,5.69,1.94,1.16,1.9,3.71,2.85,5.61,1.3,2.61,3.01,5.92,4.69,8.26v-.05Z"/>
  <path class="cls-13" d="M35.22,76.72c.89-1.83,4.18-4.47,5.02-6.87.7,2.73.61,6.09,3.17,7.91,1.88-1.44,2.52-3.76,3.97-5.52.66-.8,5.63-5.9,6.07-6.09,1.57-.65.06,2.61.3,3.36.78,2.46,7.81-.81,9.31-1.67,4.54-2.61,7.46-7.59,10.47-11.73,2.71,4.96,6.48,10.09,11.68,12.62,2.24,1.08,5.19,2.65,7.37.6l-.04-2.64c3.56,2.69,7.35,5.6,8.73,10.04l1.33-.51,1.83-5.3c3.1,5.46,3.53,10.94,2.59,17.11-.59,3.84-1.57,6.58-4.43,9.31l-.26-3.7h-1.57l-.54,2.27-7.13,7.24c-1.08-.49-.21-4.28-1.57-3.69-1.19,1.11-2.27,2.33-3.46,3.44-.41.38-.42,1.23-.51,1.32-.78.71-5.55,2.94-6.34,2.12v-1.82c-1.04-1.24-1.08.62-1.59.99-2.71,1.99-5.54,4.41-9.12,3.36-1.29-.38-5.2-3.9-6.71-4.11l-.27-.53-.79.53v2.11c-.42.45-7.43-2.76-8.42-3.47-2.14-1.52-3.47-4.85-6.37-4.46-.36.34.75,4.34-.79,3.7-1.78-1.96-4.45-3.9-5.55-6.34-.45-1.01-1.03-5.1-1.86-5.28-1.71-.38-1.16,2.55-1.31,3.17-.1.4-.71,2.96-1.58,2.11-.25-.25-2.31-4.94-2.5-5.69-.83-3.17-.52-10.94.91-13.86l-.04-.03ZM69.93,68.91c-8.04,1.64-3.53,12.54,5.46,10.74,2.98-.6,6.9-4.01,6.21-7.3-.79-3.81-8.71-4.04-11.67-3.44ZM87.5,84.12c-2.94-.27-3.36,2.63-6.59,2.64-2.93.01-5.5-2.6-6.87-2.61-2.96,0-4.3,4.25-10.3,1.81-1.38-.56-4.62-4.08-4.25-1.03.32,2.67,5.12,4.5,7.64,4.42s5.37-2.54,6.38-2.57c1.18-.04,3,1.69,4.35,1.97,3.67.76,9.09-.27,9.65-4.63h-.01Z"/>
  <path class="cls-8" d="M44.72,111.07c1.59.81,3.6,1.47,5.28,2.11-.17,1.27,1.76,1.92,2.63,2.39,2.87,1.54,8.1,3.88,11.31,2.83.87-.29.77-1.47.85-1.51.77-.48,2.13,1.18,1.59-2.64l2.11.53c1.21,5.65-1.03,9.4,1.06,14.8.13.34-.03.86.53,1.06-.47,6.89-.12,15.19,0,22.2.01.85-.31,2.2.53,2.64-.17,2.62-.18,19.41-1.13,20.01-8.96-.7-18.78-.35-27.49-2.73-3.44-.94-2.54-1.68-2.51-5.1.53-.09,1.22.07,1.7-.13,3.33-1.33,2.26-15.82,2.51-19.18.39-5.3,2.44-11.08,2.66-16.38.05-1.3.34-3.34-1.35-3.47-2.84.04-4.02,7.68-4.36,9.94-.21,1.41-.59,5.17-.68,6.71-.12,2.1.46,14-.05,14.51-.17.17-1.09-.11-1.38.14-.57.5-.87,4.16-3.27,4.96-1.46.48-7.28.43-9.01.23-2.56-10.3,1.37-22.74,4.49-32.77,1.17-3.76,7.09-21,11.35-21.14.43-.01,2.12,1.29,2.64,0h0Z"/>
  <path class="cls-8" d="M97.01,110.02l-.37.24c-.03,2.14,1.14,1.64,1.42,1.87,1.01,1.72,1.8,3.49,2.64,5.29-.13,1.05.24,2.38,0,3.35-.12.48-1.44.27-1.01,1.07.74,1.56,1.75,3.08,3.66,2.99.45,1.42-1.61,2.8-1.64,3.41-.07,1.73.94,3.35,1.11,5.03l-2.08-.03c-.92-3.57-.37-8.69-5.31-8.43-.09,1.48.12,3.7-2.12,3.17-.1-.19-.4-.34-.53-.53-.33-.5.24-1.33-1.32-1.6-2.23-.4-2.08.58-2.9,1.08-2.9,1.74-1.92.1-4.5-.04-2.05-.11-3.65.9-3.95,3.01-.21,1.46.42,1.72.52,2.31.15.86.2,1.27.53,2.11.27.7-.07,1.05.75,2.14.52.7,4.12,3.44,4.88,3.55.7.1,5.8-4.22,5.99-4.63l2.65.36c1.65,4.26,1.48,8.53,2.27,12.95.59,3.25,2.3,7.86,2.44,10.82.12,2.73-1.92,5.52,2.15,6.52-.16,2.73-.65,4.2-3.17,5.29l-.27-.52h-.78v1.05c-.88.27-2.63.25-3.7.53l-1.05-.53v1.05c-.45.11-1.12-.1-1.59,0l-1.05-.53v1.05c-.33.06-.73-.06-1.06,0l-1.05-.53v1.05c-4.01.66-8.08,1.24-12.15,1.06v-15.86h1.58v-.78l-1.58-.27v-1.06h1.59c.19-1.77.06-1.72-1.59-1.59-.02-1.06.02-2.11,0-3.17,1.6.29,1.02-.81,1.06-1.83.11-2.79.13-6.57-.28-9.29-.14-.9,0-1.87-1.3-1.57-.03-.88,0-1.76,0-2.64,2.84-.12.62-5.94.53-7.4-.11-1.76-.22-4.67,0-6.34.1-.77,1.83-3.09,1.06-4.76,6.54,2.32,11.36-3.12,15.84-6.87.19-.16.34-.37.53-.53.55-.47,1.81-.53,2.11-1.59.4.17.65.1,1.06.53l-.02.04ZM99.65,119.53h-1.05v1.05h1.05v-1.05Z"/>
  <path class="cls-4" d="M19.37,52.94c.92-1.69,2.1-3.63,3.69-4.76l1.06,13.74c3.18.02,1.1-5.51,3.69-5.81-.12,5.88-1.61,11.37-1.05,17.7.23,2.62,1.17,8.48,4.74,6.62l-.53,11.1c-2.72.06-3.42-4.48-5.81-3.43-.15,1.34.54,2.98-.79,3.95-5.29-4.57-6.68-10.68-7.13-17.43-2.74-.08-1.86,4.14-4.22,4.23v-10.31c0-.56,3.21-9.19,3.7-10.31.3-.7,1.55-2.55,2.11-3.7.33-.68.44-1.43.53-1.59h0Z"/>
  <path class="cls-1" d="M112.33,154.94c.19,2.4-.26,4.54-.53,6.87-.2.15-.4.48-.53.53-.73.28-3.17.64-3.97.58-3.39-.26-2.01-3.25-2.5-5.47-1.8-8.21-3.21-19.34-5.41-26.82-.46-1.57-.84-3.56-2.91-3.16-.68.69,1.76,12.12,2.04,14.07.35,2.42.26,5.31.66,7.8.83,5.17,3.42,11.51,3.11,16.71-4.07-1-2.03-3.79-2.15-6.52-.13-2.96-1.85-7.57-2.44-10.82-.8-4.42-.63-8.68-2.27-12.95l-2.65-.36c.09-.18-.03-.72,0-1.06.06-.7-.04-1.42,0-2.11,2.5-.61,1.26-2.8.53-4.23,2.23.53,2.02-1.69,2.12-3.17,4.94-.26,4.39,4.86,5.31,8.43l2.08.03c-.17-1.68-1.18-3.3-1.11-5.03.02-.61,2.08-1.98,1.64-3.41-1.91.09-2.91-1.43-3.66-2.99-.43-.8.89-.59,1.01-1.07.24-.97-.13-2.3,0-3.35,3.45,7.38,10.99,29.71,11.62,37.52v-.02Z"/>
  <path class="cls-13" d="M32.57,193.52l-7.44,8.67c-3.31,2.56-4.08,2.49-7.88,2.42-.82,0-1.33.26-1.58,1.06-2.14-.31-4.03.74-6.47.41-2.17-.29-5.03-1.12-6.2-3.05,5.55-.55,9.83-1.84,14.79-4.23,6.85-3.32,10.75-7.73,15.85-13.21-.08,3.26-.62,4.98-1.06,7.93h0Z"/>
  <path class="cls-7" d="M64.79,116.89c.45-.82-2.71-2.99-3.06-3.12-5.82-2.14-10.46-2-16.43-5.65-3.71-2.27-6.93-4.28-5.85-9.2.74-.85,2.92,3.07,3.35,3.51.55.56,2.51,2.06,3.2,2.34,2.68,1.09,4.16-.48,6.27-.04.37.08,4.34,3.31,6.27,3.87,5.52,1.62,8.2-2.01,9.95,6.17l-2.11-.53c.54,3.82-.82,2.16-1.59,2.64-.07.05.02,1.23-.85,1.51-3.21,1.06-8.44-1.29-11.31-2.83-.88-.47-2.8-1.12-2.63-2.39,2.11.81,13.44,4.86,14.79,3.7v.02Z"/>
  <path class="cls-13" d="M25.18,182.42l-1.85-3.17-1.05,1.05c-2.2-.82-1.07-5.95-1.33-7.93,5.08,1,10.04,1.2,15.23,1.15.99,1.93,1.92,4.36.33,6.25-.39.47-1.26.47-1.3.53l-2.11-1.58c-.27,1.31.38,2.52.53,3.7.04.34-.02.71,0,1.06-4.34,2.89-5.78-.56-8.45-1.06Z"/>
  <path class="cls-9" d="M40.5,109.49c-8.7,7.36-14.15,28.92-16.22,40.06-.88,4.76-1.72,9.58-.68,14.38-.4-.14-1.26.15-1.58,0-.6-1.42-.98-2.92-1.07-4.47-.5-8.58,7.03-34.84,11.42-42.52,1.9-3.33,4.43-6.29,7.09-9.03,0,.78.3,1.36,1.06,1.59h-.02Z"/>
  <path class="cls-16" d="M42.61,110.02l-.53,1.06c-4.27.15-10.18,17.38-11.35,21.14-3.12,10.02-7.05,22.46-4.49,32.77-1.64-.19-1.71-.74-2.64-1.06-1.03-4.8-.2-9.62.68-14.38,2.07-11.14,7.51-32.7,16.22-40.06.19-.16.36-.34.53-.53.07.06,1.3.88,1.58,1.06Z"/>
  <path class="cls-16" d="M37.86,106.85c2.76-.77,1.03.04,1.58.53v.53c-2.65,2.74-5.18,5.69-7.09,9.03-4.39,7.68-11.92,33.94-11.42,42.52.09,1.56.47,3.05,1.07,4.47-.83-.38-1.78-1.46-2.64-2.11-.62-3.3-.35-5.82.15-9.09,1.2-7.83,4.51-19.63,7.22-27.13,2.56-7.09,6.12-13.11,11.11-18.74h.02Z"/>
  <path class="cls-17" d="M105.99,181.37c-1.62.26-1.92-.55-2.91,1.59-2.69.72-.53-8.69,0-10.05l9.48-2.12c.78-.02,1.74,6.46,1.36,7.42l-2.63-1.06c.12,1.64-.81,2.53-1.59,3.7-1.21.28-2.48.33-3.7.53h-.01Z"/>
  <path class="cls-4" d="M32.57,193.52c-.48,3.22-1.4,5.59,2.61,6.38,1.2,1.66-5.02,6.6-6.05,7.88-1.55.65-.42-3.79-.79-4.22-4.32,1.64-6.95,7.1-12.14,6.34.27-1.43.9-2.11,1.05-3.7.05-.52-.03-1.06,0-1.59,3.8.06,4.56.13,7.88-2.42l7.44-8.67h0Z"/>
  <path class="cls-5" d="M37.86,106.85c-4.99,5.63-8.55,11.65-11.11,18.74-2.71,7.5-6.02,19.3-7.22,27.13-.5,3.27-.77,5.8-.15,9.09-.1-.08-.68.14-.94-.1-2.75-2.56,2.01-20.4,3.09-24.44,2.41-9,6.91-23.53,14.19-29.68.98-.83,1.29-.51,2.15-.75h-.01Z"/>
  <path class="cls-7" d="M99.65,173.97c-.12,1.3.59,3.6-.89,4.13l-23.4,3.8c-.12-1.11.21-3.22,1.4-3.61,7.79-.6,15.39-2.28,22.89-4.31h0Z"/>
  <path class="cls-3" d="M73.77,141.73c.02.7-.02,1.41,0,2.11.2,7.47.86,14.99.55,22.49-.12,3.01-.97,6.09-.56,9.23h-1.58c.7-15.68-.25-31.31,0-47.04,1.01-.16,1.41.42,1.58,1.32.55,3.01-.08,8.48,0,11.89h0Z"/>
  <path class="cls-1" d="M78.53,114.25l-1.1-.31.04-2.86c.32-.5.69-1.16,1.06-1.59l1.58-.53c1.1,0,2.73.18,3.7,0,1.21-.22,1.61-1.29,2.11-1.59.63-.37,1.3-.9,1.58-1.06,2.43-1.32,3.7-1.02,6.35-.27.63.5.64.63.27,1.34-1.69,3.24-12.21,5.44-15.59,6.86h0Z"/>
  <path class="cls-7" d="M57.93,177.67c.23,2.71-4.23,1.12-4.76,1.58v1.59c-1.62-.1-12.82-1.63-13.42-2.05l.19-3.54c.94-.69,7.98,1.57,9.87,1.83,2.38.33,5.56.39,8.12.6h0Z"/>
  <path class="cls-7" d="M77.47,111.07l-.04,2.86,1.1.31-1.05,2.64c.56.5,7.88-1.76,9.12-2.23,2.32-.88,4.29-2.64,6.72-3.05-4.49,3.75-9.3,9.19-15.84,6.87.77,1.67-.96,3.98-1.06,4.76-2.18-4.05-1.28-8.44,1.06-12.16h0Z"/>
  <path class="cls-8" d="M64.79,178.2l.73.44.33-.44h4.23v3.7c-1,.08-2.58-.41-3.17.53-1.26-.14-2.47-.38-3.7-.53-.37-.62-1.41-.84-1.58,0-2.06-.25-3.73-.39-5.81-.53v-1.05c-.57-.22-1,.52-1.06.53-.51.03-1.07.03-1.58,0v-1.59c.53-.47,4.99,1.12,4.75-1.58,2.28.19,4.59.38,6.87.53h-.01Z"/>
  <path class="cls-1" d="M27.03,170.8c-1.27-.12-6.19-.95-6.4-2.35-.04-.29.33-2.42.59-2.41,4.93,1.53,9.91,1.83,15.05,1.59v3.17c-2.99-.21-6.3.28-9.25,0h.01Z"/>
  <path class="cls-1" d="M112.86,164.46c1.21,4.86-4.48,4.58-7.92,4.75l.49-2.94,7.43-1.81Z"/>
  <path class="cls-3" d="M71.66,126.4c-.1-.14-.68-.24-.79-.55-.87-2.53,1.56-6.05.79-8.96,1.52-.25.87.33,1.12,1.22.38,1.34.5,4.46,1.51,5.12v3.17c-.17.01-.35,0-.53,0-.7.03-1.41-.02-2.11,0h0Z"/>
  <path class="cls-5" d="M29.41,51.35c.15-.47-.06-1.31.25-2.11.2-.52,3.65-8.19,3.98-5.02.36,2.5-2.09,5.21-2.65,7.13h-1.58Z"/>
  <path class="cls-1" d="M75.89,139.61c1.3-.3,1.17.66,1.3,1.57.41,2.73.39,6.5.28,9.29-.04,1.02.54,2.12-1.06,1.83-.07-4.25-.41-8.44-.53-12.68h0Z"/>
  <polygon class="cls-14" points="73.77 111.08 73.23 115.3 71.17 115.27 70.08 111.08 73.77 111.08"/>
  <path class="cls-5" d="M41.55,96.28c-1.85.39-1.92-1.33-3.17-2.11.16-.62-.39-3.55,1.31-3.17.82.18,1.4,4.27,1.86,5.28Z"/>
  <path class="cls-1" d="M75.89,136.97v-7.4h.53c.09,1.46,2.31,7.28-.53,7.4Z"/>
  <polygon class="cls-4" points="73.24 177.67 73.24 182.43 71.66 182.43 71.75 178.55 73.24 177.67"/>
  <path class="cls-4" d="M109.69,180.84c-1.1,1.66-1.3,2.29-3.44,3.17l-.26-2.64c1.22-.2,2.49-.25,3.7-.53Z"/>
  <path class="cls-5" d="M35.22,180.31c-.27.39.3,2.35-1.58,2.11-.15-1.18-.8-2.38-.53-3.7l2.11,1.58h0Z"/>
  <path class="cls-7" d="M44.72,111.07c-.52,1.29-2.21-.01-2.64,0l.53-1.06c.26.17,1.58.78,2.11,1.06Z"/>
  <path class="cls-5" d="M74.3,123.23c.24.16,1.3-.46,1.09.77l-.03,2.41c-.35.03-.71-.03-1.05,0v-3.17h0Z"/>
  <path class="cls-7" d="M70.08,181.9c-.79,2.11-2.39.62-3.17.53.59-.93,2.17-.45,3.17-.53Z"/>
  <path class="cls-5" d="M70.08,152.83h1.05c.5.97-.5,2.28-.53,2.64-.84-.44-.51-1.79-.53-2.64h0Z"/>
  <path class="cls-5" d="M41.03,108.96c-.17.19-.34.37-.53.53-.76-.23-1.05-.81-1.06-1.59v-.53c.1.09.75.05,1.28.54.3.28.21.96.31,1.04h0Z"/>
  <path class="cls-5" d="M85.92,107.37c-.5.29-.9,1.36-2.11,1.59v-2.11l2.11.53h0Z"/>
  <path class="cls-1" d="M76.41,155.47c1.64-.13,1.78-.18,1.59,1.58h-1.59v-1.58Z"/>
  <path class="cls-5" d="M17.26,204.62c-.03.52.05,1.07,0,1.59-.64.27-1.36-.5-1.58-.53.25-.79.76-1.07,1.58-1.06Z"/>
  <path class="cls-5" d="M73.77,141.73h1.06v1.82l-1.06.29c-.02-.7.02-1.41,0-2.11Z"/>
  <path class="cls-5" d="M73.77,126.4l-1.85,1.07c-.54-.1-.15-.91-.26-1.07.7-.02,1.41.03,2.11,0Z"/>
  <path class="cls-1" d="M76.41,158.11l1.59.27v.78h-1.59v-1.06h0Z"/>
  <path class="cls-7" d="M63.21,181.9c-.09,0-.51.13-1.58,0,.18-.84,1.21-.62,1.58,0Z"/>
  <polygon class="cls-5" points="75.89 129.57 75.89 130.63 74.3 130.36 74.3 129.57 75.89 129.57"/>
  <path class="cls-7" d="M80.11,108.96l-1.58.53c.24-.28.29-.88.86-.99.43-.07.67.46.72.46Z"/>
  <polygon class="cls-5" points="26.76 90.46 26.76 91.25 25.71 92.05 25.71 90.46 26.76 90.46"/>
  <path class="cls-4" d="M28.35,53.99c-.13.38-.05.83-.53,1.06-.01-.07-.75-.45-.53-1.05h1.06Z"/>
  <path class="cls-5" d="M69.55,129.57h1.05c.26.57-.52,1-.52,1.06-.56-.2-.4-.71-.53-1.06Z"/>
  <path class="cls-7" d="M54.76,180.84c.06,0,.48-.74,1.05-.53v1.05c-.44-.03-.91-.02-1.05-.53h0Z"/>
  <path class="cls-7" d="M65.85,178.2l-.33.44-.73-.44s-.11-.48.33-.45c.35.02.54.18.73.45Z"/>
  <path class="cls-1" d="M89.62,173.44c-.06,0-.17.38-1.06.53v-1.05l1.06.53h0Z"/>
  <path class="cls-1" d="M91.73,172.91c-.06,0-.21.37-1.06.53v-1.05l1.06.53h0Z"/>
  <path class="cls-1" d="M94.37,172.38c-.06,0-.28.34-1.06.53v-1.05l1.06.53h0Z"/>
  <path class="cls-1" d="M99.13,171.32c-.32.14-.53.37-1.06.53v-1.05h.79l.27.52Z"/>
  <rect class="cls-5" x="74.31" y="136.97" width=".52" height="2.11"/>
  <path class="cls-5" d="M63.74,104.73c-.34-.05-.71.03-1.06,0l.79-.53.27.53Z"/>
  <path class="cls-13" d="M81.69,2.73l-3.69,6.86c4.37-.59,8.43-1.5,12.93-1.05,2.73.28,4.57,1.67,7.14,2.11.14,1.44,0,.85-.8,1.03-7.66,1.74,3.04,4.02,5.19,5.94l4.06,3.06c-6.32-1.68-12.72-3.19-19.28-3.69-11.47-.87-26.05-.73-37.43.59-6.02.7-11.85,2.43-17.76,3.63,1.51-1.5,3.79-3.09,5.65-4.12,4.01-2.22,11.74-3.7,1.22-4.87,6.17-4.8,14.37-4.04,21.65-2.64.18-2.94-2.93-4.14-4.22-6.33,4.97.25,8.93,3.33,12.95,5.82,3.93-2.42,7.46-6.26,12.4-6.35h0Z"/>
  <path class="cls-8" d="M67.43,19.64c-2.62,1.78-1.21,2.56-.53,4.23.17.43.25.65.53,1.06.08.12-.17.7.1.96s.86.02.96.1c.74.61,1.61.82,1.58,2.11-11.14,1.8-23.38,1.68-34.45,4.38-4.03.98-7.76,3.36-12.03,3.55-.34-.34,2.25-8.51,2.69-9.19,1.98-3.04,22.27-6.73,26.62-7.19,5.28-.55,9.38-.4,14.52,0h.01Z"/>
  <path class="cls-8" d="M74.3,20.17c-.18-1.51.87-1.04,1.81-1.07,9.58-.33,21.49,1.07,30.41,4.51,6.59,2.54,7.37,4.24,8.45,11.36-5.31-.82-10.34-3.09-15.73-4.07-9.07-1.65-18.53-1.51-27.58-2.8l2.93-2.66c.33-.35-.27-.42-.29-.51-.07-.3.09-1,0-1.06,1.77.34,1.52-3.21,0-3.7Z"/>
  <path class="cls-4" d="M114.44,53.99c1.81.18,1.84-3.11,2.12-4.23.76-.77,2.81,3.05,3.37,3.52.34.28.78.13.85.18-.63,3.24,2.2,6.78,3.19,9.76,1.44,4.33,2.65,10.73,1.29,15.08-.16.5-.09,1.21-.78,1.05.15-.76-2.17-6.49-3.17-5.28-.19,6.57-2.2,13.41-7.14,17.96-1.57.65-.41-3.86-.79-4.23-2.76-.56-2.54,1.61-3.96,3.17l.27-11.62c4.11,3.74,5.46-5.38,5.74-8.26.51-5.31.16-11.91-.99-17.11h0Z"/>
  <path class="cls-17" d="M113.39,154.94h-1.06c-.63-7.82-8.17-30.14-11.62-37.52-.84-1.8-1.63-3.57-2.64-5.29,1.77,1.42,3.26,3.42,4.32,5.45,2.79,5.36,10.63,31.51,10.99,37.36h.01Z"/>
  <path class="cls-16" d="M74.3,20.17c1.52.49,1.77,4.04,0,3.7-.66-.43-1.79.86-1.85-1.59l-1.58,1.59-1.06-2.12-2.9,2.12c-.69-1.67-2.09-2.45.53-4.23l6.87.53h-.01Z"/>
  <path class="cls-17" d="M17.26,50.82l.96.09c.23.79.21,1.78,1.16,2.02-.09.16-.2.91-.53,1.59-.28-3.14-3.77,2.09-5.28,1.05-.79-.71,3.48-4.43,3.69-4.75Z"/>
  <path class="cls-17" d="M70.08,25.98c.22.22.08.83,1.05.53l.54-2.64,2.63,1.05c.02.09.62.16.29.51l-2.93,2.66h-1.58c.03-1.29-.84-1.51-1.58-2.11l.53-1.06c.18.03.39-.05.53,0-.04.56.19.72.53,1.06h0Z"/>
  <path class="cls-4" d="M122.37,51.88c.82,1.14,2.47,2.37,3.17,3.69-1.98.37-3.1-1.41-4.23-2.11v-1.59h1.06Z"/>
  <path class="cls-4" d="M113.39,154.94c.15,2.45.56,5.3-1.58,6.87.27-2.34.72-4.47.53-6.87h1.06,0Z"/>
  <path class="cls-7" d="M95.96,109.49c-.3,1.06-1.56,1.12-2.11,1.59.06-2.24.41-2.29,2.11-1.59Z"/>
  <path class="cls-15" d="M98.07,112.13c-.29-.23-1.46.27-1.42-1.87l.37-.24c.67.71.7,1.51,1.06,2.11h-.01Z"/>
  <path class="cls-4" d="M89.62,232.1c1.12.37,1.94,3.44,1.08,3.98-3.99.36-13.02-1.42-13.75-6.1,3.65,2.06,7.48,3.71,11.81,3.08.59-.18.64-.5.87-.96h-.01Z"/>
  <path class="cls-4" d="M60.04,231.05c-.62,4.54-8.27,6.22-12.15,5.82-.2-.2.17-2.92,0-3.7h.53c1.06,2.13,7.67.49,9.38-.4,1.08-.56.92-1.92,2.24-1.72h0Z"/>
  <path class="cls-4" d="M96.48,231.05s.41-.1.49.29c.35,1.61,1.51,4.03-.76,4.47-4.06.79-3.4-1.74-3.96-4.76.78.23,3.62.58,4.23,0Z"/>
  <path class="cls-4" d="M45.78,233.69c-.15.7.19,2.98,0,3.17l-5.33-.87c-.3-1.52.95-2.61,1.1-3.36,0,0,4.23,1.06,4.23,1.06Z"/>
  <path class="cls-4" d="M39.44,231.58c.05.61-1.08,3.03-.53,4.23-4.3-3.08-2.64-4.6-.52-7.93-.58,1.21,1.02,3.31,1.06,3.7h-.01Z"/>
  <path class="cls-4" d="M100.71,228.93c.06.11.76.24.96.88.36,1.18-.03,3.84-1.23,4.4s-1.72-4.09-1.84-4.75c.37,0,1.43-.75,2.11-.53Z"/>
  <path class="cls-6" d="M46.84,232.1c.53-.8,0-2.01,2.11-1.58l-.53,2.64h-.53c-.06-.28-.81-.77-1.06-1.06h0Z"/>
  <path class="cls-13" d="M36.8,209.38c.56-2.87,2.13-7.83,1.94-10.77-.06-.96-.87-1.95-.89-2.98l-3.16,1.05c-.41-.46,1.27-6.53,1.52-7.73.53-2.54-.28-5.48,2.49-7.5,11.54,1.9,24.15,4.26,35.89,3.63,8.18-.44,16.56-2.61,24.54-4.25-.23,2.18.19,4.22.53,6.34.48,3.01,1.32,5.94,1.58,8.98l-2.13-.31c-2.64,5.17.24,11.03.55,16.43l-1.32-.78c-2.33,1.2.32,7.51.2,9.27-.06.84-1.01,1.42-1.05,2.6-.06,1.78,2.24,3.75,3.22,5.56-.69-.22-1.75.53-2.11.53s-1.37-.82-2.11-.53c.08.66-.14,1.52,0,2.11-.6.58-3.44.23-4.23,0-.22-.06-.52-1.02-.85-1.07l-.98.02c-1.04.41-.61,1.69-.81,2.1-.22.46-.28.79-.87.96-4.33.64-8.16-1.01-11.81-3.08-.21-1.33.27-7.64,0-7.93l-2.64.52c.59-3.32,1.83-6.36,1.61-9.8-.14-2.21-.17-3.33-2.67-2.88.88-2.98,0-7.11.53-9.78.45-2.34,7.02-1.84,6.88-4.74-.04-.81.21-.91-.79-.81-4.73,2.27-9.87,2.66-14.98,3.25-1.31,4.51-.47,9.18.45,13.67l-1.78-1.03c-2.86.45-.26,8.59-.85,10.55h-2.11c-.64.64-.32,8.52-.53,10.04-1.32-.21-1.16,1.16-2.24,1.72-1.71.89-8.32,2.53-9.38.4l.53-2.64c-2.12-.42-1.58.78-2.11,1.58-.34.51-.89.84-1.06,1.59l-4.23-1.06c.15-.76-.1-1.82,0-2.64-1.31-.21-2.08.17-2.11,1.58-.03-.39-1.64-2.49-1.06-3.7,2.51-3.94.2-4.32-.05-7.13-.12-1.39,1.28-7.51.58-8.2l-2.63.27c.9-.96.32-2.44.52-3.44l-.02.03Z"/>
  <path class="cls-13" d="M62.95,221.53c.34.18.34.35,0,.53v-.53Z"/>
  <path class="cls-12" d="M69.93,68.91c2.96-.6,10.88-.37,11.67,3.44.68,3.29-3.23,6.71-6.21,7.3-8.99,1.8-13.5-9.11-5.46-10.74Z"/>
  <path class="cls-5" d="M87.5,84.12c-.56,4.36-5.98,5.39-9.65,4.63-1.35-.28-3.17-2.01-4.35-1.97-1.01.03-3.84,2.49-6.38,2.57s-7.32-1.75-7.64-4.42c-.36-3.04,2.88.47,4.25,1.03,6,2.44,7.34-1.82,10.3-1.81,1.37,0,3.94,2.62,6.87,2.61,3.23-.01,3.66-2.91,6.59-2.64h0Z"/>
  <path class="cls-10" d="M88.56,126.93l4.23.53c.13.19.43.34.53.53.74,1.43,1.97,3.61-.53,4.23-3.45.85-3.59-1.77-4.48-1.58l-1.06,2.64c-1.95-3.33-1.17-4.84-3.77-.56l-2.83-.49c-.1-.59-.73-.86-.52-2.31.3-2.12,1.89-3.13,3.95-3.01,2.57.14,1.6,1.79,4.5.04l-.02-.02Z"/>
  <path class="cls-16" d="M81.17,134.33l3.67-.04.55-1.54c.54,4.93,2.11,6.07,3.18.53l1.34,1.53,2.87-.48c-.03.33.09.87,0,1.06-.19.42-5.29,4.73-5.99,4.63-.76-.1-4.35-2.85-4.88-3.55-.82-1.1-.48-1.44-.75-2.14h0Z"/>
  <path class="cls-9" d="M80.64,132.21l2.83.49c2.6-4.28,1.82-2.77,3.77.56l1.06-2.64c.89-.18,1.03,2.43,4.48,1.58-.04.7.06,1.42,0,2.11l-2.87.48-1.34-1.53c-1.07,5.54-2.65,4.4-3.18-.53l-.55,1.54-3.67.04c-.33-.85-.38-1.26-.53-2.11h0Z"/>
  <path class="cls-1" d="M92.79,127.46l-4.23-.53c.82-.5.68-1.47,2.9-1.08,1.57.28.99,1.11,1.32,1.6h.01Z"/>
  <rect class="cls-1" x="98.6" y="119.53" width="1.05" height="1.05"/>
  <path class="cls-2" d="M66.91,23.87l2.9-2.12,1.06,2.12,1.58-1.59c.06,2.45,1.19,1.16,1.85,1.59.09.06-.07.75,0,1.06l-2.63-1.05-.54,2.64c-.97.3-.83-.31-1.05-.53.04-.56.05-.83-.53-1.06-.13-.05-.34.03-.53,0-.47-.09-1.08.06-1.58,0-.28-.41-.35-.63-.53-1.06Z"/>
  <path class="cls-16" d="M69.02,24.93l-.53,1.06c-.1-.08-.7.16-.96-.1s-.02-.84-.1-.96c.51.06,1.11-.09,1.58,0h0Z"/>
  <path class="cls-16" d="M70.08,25.98c-.34-.33-.57-.49-.53-1.06.58.23.57.49.53,1.06Z"/>
</svg>