<?xml version="1.0" encoding="UTF-8"?>
<svg id="_레이어_1" xmlns="http://www.w3.org/2000/svg" version="1.1" viewBox="0 0 112.41 252.51">
  <!-- Generator: Adobe Illustrator 29.8.1, SVG Export Plug-In . SVG Version: 2.1.1 Build 2)  -->
  <defs>
    <style>
      .st0 {
        fill: #acaca8;
      }

      .st1 {
        fill: #dc9a8f;
      }

      .st2 {
        fill: #2e292d;
      }

      .st3 {
        fill: #59203a;
      }

      .st4 {
        fill: #231815;
      }

      .st5 {
        fill: #752745;
      }

      .st6 {
        fill: #eeedeb;
      }

      .st7 {
        fill: #221c23;
      }

      .st8 {
        fill: #fafaf7;
      }

      .st9 {
        fill: #e4d5d9;
      }

      .st10 {
        fill: #c6cdce;
      }
    </style>
  </defs>
  <path class="st2" d="M17.52,147.89c-2.39-2.1-4.99-3.95-7.14-6.33-13.74-15.21-13.33-43.05-1.75-59.37.98-1.38,6.18-6.75,6.22-7.47-6.86-20.38-11.96-45.78-.4-65.46,6.23-10.6,20.23-13.78,25.13-.51,5.9,16-3.69,37.05-3.83,53.53,7.6-2.54,15.44-3.58,23.44-3.24,2.15-17.01,6.02-34.64,16.97-48.29,13.41-16.71,33.97-12.86,29.42,10.41-3.24,16.53-18.37,27.88-24.68,42.98.03,1.37,2.34,1.77,3.35,2.45,5.63,3.76,8.8,5.92,12.51,11.8,4.59,7.27,9.22,20.5,9.5,29.08.41,12.81-6.13,27.23-16.36,34.89l10.29,9.75c6.13,7.29,15.48,26.24,11.09,35.43-.69,1.45-2.61,2.72-2.76,4.01-.38,3.18,2.33,5.16,2.46,7.95.15,3.33-3.84,7.83-5.59,10.67-2.13,1.7-4.87,2.34-7.58,2.19-.1,2.01.16,4.07,0,6.07-.24,2.98-1.62,8.04-1.51,10.61.06,1.35,1.82,3.02,2.04,5.52.76,8.51-5.62,10.43-12.9,9.47s-8.68-6.95-10.87-12.64c-.58-1.49-2.46-8.81-3.15-9.27l-9.2-.29c-1.05.18-1.63,8.18-1.92,9.56-1.73,8.37-4.92,15.69-15.35,13.51-6.83-1.43-5.85-5.71-6.31-10.86-.34-3.78-2.13-7.24-3-11-.95-4.09-1.48-8.26-1.82-12.45l-.43-.63c-2.03-.19-3.66-.81-5.05-2.35l-.79-7.93c-6.09,3.87-11.65.84-13.58-5.7-2.39-8.08,2.05-21.53,5.57-29.01.87-1.84,2.67-3.33,2.73-5.46,1.19.27,1.11-.67,1.57-1.31.66-.91,3.84-4.64,3.7-5.26l-10.03-5.06h.01ZM52.91,69.14c.93-.12,1-.52,1.06-.53.52-.06,1.07.05,1.58,0,.87-.09,1.77.07,2.64,0,2.91-.22,5.49-.45,8.45-.53.7-.02,1.41.01,2.11,0h1.06c3.69-.04,7.4.03,11.09,0l-3.17-2.11c-.72-1.02-.03-1.97,0-2.64,1.54-.62,1.52-2.61,2.11-3.7.19-.35.34-.72.53-1.06.66-1.2,1.85-2.97,2.64-4.23,6.89-10.98,19.22-22.87,20.54-36.27.86-8.76-2.39-16.08-12.29-14.94s-18.63,16.53-22.07,24.95c-4.34,10.6-6.34,22.26-7.29,33.66-9.87-.79-19.39,1.99-29.05,3.17.24-2.67.26-5.55.53-8.19,1.43-13.8,8.74-34.09,3.79-47.14-4.03-10.64-14.89-8.03-20.08.19-10.15,16.09-6.92,36.62-2.91,53.99,1.1,4.78,5.18,11.49.71,15.16,12.4-4.87,24.78-8.09,38.02-9.78ZM94.11,80.24c-1.81-3.86-5.41-8.71-9.91-9.37-14.98-2.19-39,1.05-53.47,5.42-5.45,1.64-17.9,5.24-21.05,9.6-.64.88-4.28,7.65-3.78,8.1,4-.19,7.35-2.65,11.11-3.94,11.17-3.84,23.05-7.3,34.73-9.12,14.18-2.2,28.1-2.42,42.36-.68h.01ZM64.95,81.98c-20.77,1.27-41.45,7.96-60.36,16.24-7.82,28.25,7.87,52.74,37.5,54.95,33.29,2.48,68.76-17.91,59.79-55.6-.61-2.54-3.35-11.54-4.64-13.32-.68-.94-1.96-1.01-3.01-1.22-8.22-1.68-20.82-1.56-29.28-1.04h0ZM86.71,145.78c-.09.16-.04,2.15,0,2.64-1.14,3.93-.42,9.43.68,13.32,1.45,5.14,5.07,9.1,7.34,13.8,2.25,4.67,3.26,15.04,9.65,14.62,2.33-.16,2.59-1.88,3.46-3.16,2.91-4.22,2.42-6.08,1.34-11.12-2.17-10.12-9.42-21.52-17.18-28.26-.58-.5-3.79-3.22-4.23-2.9l-.26-.52c-.55.4-.85.87-.79,1.58h0ZM83.54,146.83c-.23.07-.71-.19-.96.1-.32.38,0,1.1-.1,1.48-2.16.08-4.59,1.28-6.54,2.18-.98.45-1.8,1.47-1.91,1.52-.39.18-1.68-.27-2.05.06-.22.2-1.55,4.22-2.27,5.39-7.23,11.75-22.47,11.63-27.38-1.76-.62-.33-1.49.53-1.58.53-1.49-.08-4.24-.7-5.81-1.06-.42-.1-.95-.69-1.58-.53l-1.59,13.74c-.82.37-.48,1.43-.53,2.11-.08,1.05.07,2.12,0,3.17-.02.35.03.71,0,1.06-.01.18.01.35,0,.53,0,.06-.46-.05-.53,1.06-.25,3.81-.34,8.43-.52,12.43-.26,5.58-.11,11.49,1,16.96,9.58,3.71,20.93,4.81,31.21,4.44,8.78-.31,24.04-3.08,31.97-6.85,3.37-1.6,4.18-1.61,3.94-5.56-.36-6.04-4.43-19.08-7.92-24.05l-5.28-10.04c-1.07-5.52-2.29-11.31-1.06-16.91l-.26-.52c-.34,0-.24.51-.26.52h.01ZM65.06,158.99c1.35-1.4,4-3.74,3.43-5.82-7.37,2.35-15.25,2.95-22.97,3.18.1,1.68,1.62,2.69,2.64,3.7,5.39,5.31,11.88,4.15,16.9-1.06h0ZM18.05,195.99c1.97,2.94,4.05,4.17,7.36,1.81,3.56-2.54,1.88-7.5,2.16-11.58.32-4.84,1.15-9.72,1.58-14.54.15-1.71-.17-3.59,0-5.29,0-.04.49-.13.53-.53.37-3.84.85-7.83.79-11.62-7.95,8.31-13.87,21.49-14.52,33.03-.23,3.99-.02,5.55,2.1,8.72h0ZM99.92,203.39c-.08.1-1.19-.09-1.5.86-1.02,3.09-1.37,6.73,2.94,5.06s3.35-4.16,4.87-6.62c.88-1.42,3.13-.47,1.62-4.06-.85-2.03-2.25-3.09-1.58-5.82l-6.34-1.05c-.17,3.38,2.12,8.84,0,11.63h-.01ZM95.69,210.26c.04-.95.52-5.12-.77-4.74-3.78,1.12-8.15,3.3-12.08,4.3-14.89,3.79-31.2,3.12-46.3.97-.49,1.01.48,2.19.53,2.64.38,3.65.49,6.81,1.41,10.49.65,2.59,2.46,5.96,2.78,8.32.28,2.08-.43,3.96.04,6.03,1.31,5.7,9.71,5.27,13.21,1.85,3.68-3.61,3.27-13.61,4.78-18.47l-3.72-1.36c1.16-2.91,2.3-1.15,4.75-1.06h.53c1.58.03,10.63.31,11.09,0,.88.45,1.53,1.08,1.99,1.97,3.96,7.67,3.06,21.13,15.1,20.71,2.93-.1,5.37-.81,6.15-3.66,1.67-6.09-1.31-5.84-1.58-8.74-.2-2.22,1.35-8.27,1.57-11.08.21-2.65.42-5.54.53-8.19v.02h0Z"/>
  <path class="st4" d="M74.57,231.4c2.2,5.69,3.93,11.72,10.87,12.64s13.65-.96,12.9-9.47c6.59.92,19.13,6.47,7.77,12.26-15.4,7.85-59.6,7.25-75.37.16-13.18-5.93,1.02-11.56,7.92-12.95.46,5.16-.52,9.44,6.31,10.86,10.43,2.18,13.62-5.14,15.35-13.51,4.86-.44,9.47,1.16,14.26,0h-.01Z"/>
  <path class="st8" d="M64.95,81.98c8.47-.52,21.06-.64,29.28,1.04,1.05.21,2.33.29,3.01,1.22,1.29,1.78,4.04,10.78,4.64,13.32,8.98,37.69-26.5,58.08-59.79,55.6-29.63-2.21-45.32-26.7-37.5-54.95,18.9-8.28,39.59-14.97,60.36-16.24h0ZM68.62,98.83c-4.74.96-3.84,10.1.7,11.8,5.48,2.06,6.35-13.24-.7-11.8ZM32.17,105.18c-4.61.96-3.5,10.07.29,11.67,6.28,2.65,6.38-13.05-.29-11.67ZM83.96,108.94c-4.03.34-8.37,1.47-9.36,5.92,1.58,9.12,22.96,3.06,16.04-4.46-1.77-1.93-4.35-1.65-6.68-1.46ZM54.64,120.27c-2.76-3.06,3.13-4.3,1.9-7.98-.63-1.88-11.57-1.44-8.42,3.67.95,1.54,5.21,2.18,2.39,5.49-3.35,3.94-5.4-.54-6.93-.96-3.09-.85-1.34,4.34,2.32,5.08,2.73.55,5.71-.04,6.49-3.04,3.49,1.7,5.61,3.23,9.23.53.98-.73,4.16-4.54,2.05-5.23-2.38-.78-1.7,1.2-2.82,2.35-1.47,1.51-4.85,1.62-6.22.1h.01ZM30.58,121.09c-2.68-2.69-11.8-1.42-14.34,1.47-5.66,6.46,7.17,9.84,12.64,5.77,2.33-1.73,4.18-4.77,1.7-7.25h0Z"/>
  <path class="st5" d="M82.49,148.42c-1.19,4.74-.94,12.83,2.11,16.91-.03.67-.06,1.45,0,2.11.47,5.35,4.14,13.54,5.15,19.95.48,3.04,1.65,8.56.37,11.2-.51,1.06-6.78,6.25-8.03,6.76-3.84,1.55-13.36,3.12-17.83,3.86-.97.16-2.14-.67-1.84,1.04-10.28.37-21.63-.73-31.21-4.44-1.12-5.47-1.26-11.37-1-16.96.18-4,.28-8.61.52-12.43l.53-1.06c.01-.18-.01-.35,0-.53.51-.2.42-.65.53-1.06.19-.7.38-1.41.53-2.11.04-.17-.04-.36,0-.53,1.09-5.23,2.57-10.46,2.64-15.86,1.57.35,4.32.97,5.81,1.06.9,5.52,7.1,11.22,12.55,12.02,10.86,1.59,17.91-6.74,20.73-16.25.11-.05.94-1.07,1.91-1.52,1.95-.9,4.37-2.1,6.54-2.18v.02h-.01Z"/>
  <path class="st8" d="M37.06,213.43c5.53-.66,10.86.96,16.17,1.52,8.37.89,21.62-.29,29.89-2.21,3.57-.83,7.79-2.77,11.31-4.02l1.26,1.53c-.11,2.65-.32,5.53-.53,8.19-.23,2.82-1.77,8.87-1.57,11.08.26,2.89,3.24,2.65,1.58,8.74-6.95,1.4-11.01,2.8-14.14-4.61-1.02-2.4-4.44-14.94-5.74-15.39-.61-.21-2.87-.29-3.25.05-.24.21-.05.89-.1.92-.46.31-9.51.03-11.09,0l-.26-.52-.26.52c-2.45-.09-3.59-1.86-4.75,1.06s-.3,6.45-.68,9.63c-.59,4.96-4.78,13.22-10.81,10.58-1.49-.65-1.24-2.33-2.77-2.25-.48-2.08.23-3.95-.04-6.03-.31-2.36-2.13-5.73-2.78-8.32-.92-3.68-1.03-6.83-1.41-10.49l-.03.02h0Z"/>
  <path class="st5" d="M94.11,80.24c-14.27-1.73-28.18-1.52-42.36.68-11.68,1.81-23.56,5.27-34.73,9.12-3.76,1.29-7.11,3.75-11.11,3.94-.5-.45,3.14-7.22,3.78-8.1,3.15-4.36,15.6-7.95,21.05-9.6,14.46-4.37,38.49-7.61,53.47-5.42,4.5.66,8.1,5.51,9.91,9.37h-.01,0Z"/>
  <path class="st8" d="M107.84,187c-1.1-.63-1.97.09-3.46-.48-3.69-1.41-5.8-9.09-7.63-12.47-3.54-6.55-7.69-9.03-8.91-16.98-.41-2.7-.93-6.13-1.13-8.65-.04-.49-.09-2.48,0-2.64.04-.08,1.36.11,1.06-1.06.44-.32,3.65,2.4,4.23,2.9,7.75,6.74,15.01,18.15,17.18,28.26,1.08,5.04,1.57,6.9-1.34,11.12Z"/>
  <path class="st8" d="M29.67,165.86l-.53.53c-.17,1.7.15,3.58,0,5.29-2.04-.22-1.27,0-1.65,1.24-1.67,5.52-1.32,9.55-2.1,14.83-.58,3.89-2.59,8.84-7.34,8.25-2.12-3.17-2.33-4.73-2.1-8.72.65-11.55,6.57-24.73,14.52-33.03.05,3.79-.43,7.78-.79,11.62h0Z"/>
  <path class="st3" d="M90.41,173.79c3.48,4.97,7.55,18.02,7.92,24.05.24,3.95-.57,3.96-3.94,5.56-7.94,3.78-23.19,6.54-31.97,6.85-.3-1.71.87-.88,1.84-1.04,4.46-.74,13.98-2.3,17.83-3.86,1.25-.5,7.52-5.7,8.03-6.76,1.28-2.64.11-8.16-.37-11.2-1.01-6.42-4.68-14.61-5.15-19.95,1.68,2.32,4.17,4.01,5.81,6.34h0Z"/>
  <path class="st10" d="M37.06,213.43c-.05-.45-1.02-1.63-.53-2.64,15.1,2.15,31.41,2.81,46.3-.97,3.93-1,8.31-3.17,12.08-4.3,1.29-.38.81,3.79.77,4.74l-1.26-1.53c-3.51,1.25-7.74,3.19-11.31,4.02-8.27,1.92-21.52,3.1-29.89,2.21-5.31-.56-10.64-2.18-16.17-1.52h0Z"/>
  <path class="st10" d="M107.84,187c-.88,1.27-1.13,3-3.46,3.16-6.38.43-7.39-9.95-9.65-14.62-2.27-4.7-5.88-8.66-7.34-13.8-1.1-3.89-1.82-9.39-.68-13.32.21,2.51.72,5.94,1.13,8.65,1.22,7.95,5.37,10.43,8.91,16.98,1.83,3.38,3.94,11.06,7.63,12.47,1.49.57,2.36-.15,3.46.48Z"/>
  <path class="st9" d="M74.04,152.12c-2.82,9.51-9.86,17.84-20.73,16.25-5.45-.8-11.65-6.5-12.55-12.02.09,0,.96-.86,1.58-.53,4.91,13.38,20.14,13.51,27.38,1.76.72-1.18,2.05-5.2,2.27-5.39.37-.33,1.65.12,2.05-.06h0Z"/>
  <path class="st10" d="M95.16,238.27c-.78,2.85-3.23,3.56-6.15,3.66-12.04.42-11.14-13.04-15.1-20.71-.46-.89-1.11-1.52-1.99-1.97.05-.03-.13-.71.1-.92.38-.33,2.64-.26,3.25-.05,1.31.45,4.73,12.99,5.74,15.39,3.14,7.41,7.19,6.01,14.14,4.61h.01Z"/>
  <path class="st10" d="M55.55,220.3l3.72,1.36c-1.51,4.86-1.1,14.86-4.78,18.47-3.49,3.42-11.89,3.85-13.21-1.85,1.53-.08,1.28,1.6,2.77,2.25,6.04,2.64,10.22-5.62,10.81-10.58.38-3.18-.43-6.86.68-9.63v-.02h0Z"/>
  <path class="st10" d="M29.14,171.67c-.43,4.82-1.26,9.7-1.58,14.54-.27,4.08,1.41,9.04-2.16,11.58-3.31,2.35-5.39,1.13-7.36-1.81,4.75.59,6.76-4.36,7.34-8.25.79-5.28.44-9.31,2.1-14.83.38-1.24-.39-1.45,1.65-1.24h.01Z"/>
  <path class="st10" d="M48.16,160.05c-1.02-1.01-2.54-2.01-2.64-3.7,7.71-.24,15.6-.84,22.97-3.18.58,2.08-2.08,4.42-3.43,5.82-5.4-1.53-11.31,1.76-16.9,1.06h0Z"/>
  <path class="st6" d="M99.92,203.39c2.12-2.79-.16-8.25,0-11.63l6.34,1.05c-.67,2.73.73,3.79,1.58,5.82-.38,2.26-2.54,1.61-3.42,2.66-.7.84-.72,3.21-2.41,3.97-1.16.52-2.61-.41-2.09-1.87h0Z"/>
  <path class="st6" d="M65.06,158.99c-5.02,5.21-11.52,6.37-16.9,1.06,5.6.7,11.5-2.59,16.9-1.06Z"/>
  <path class="st10" d="M107.84,198.63c1.51,3.59-.74,2.64-1.62,4.06-1.51,2.46-.52,4.94-4.87,6.62s-3.95-1.97-2.94-5.06c.31-.95,1.42-.76,1.5-.86-.52,1.47.94,2.39,2.09,1.87,1.68-.76,1.7-3.14,2.41-3.97.88-1.05,3.04-.4,3.42-2.66h.01Z"/>
  <path class="st9" d="M83.54,146.83h.53c-1.23,5.61-.01,11.4,1.06,16.91-.69.25-.5,1.01-.53,1.59-3.05-4.08-3.3-12.17-2.11-16.91.1-.38-.22-1.1.1-1.48.25-.3.72-.04.96-.1h0Z"/>
  <path class="st9" d="M34.95,155.29c-.07,5.39-1.55,10.62-2.64,15.86l-.52.26.52.26c-.15.71-.34,1.42-.53,2.11h-.53c.07-1.05-.08-2.13,0-3.17l.53-2.11,1.59-13.74c.63-.16,1.16.43,1.58.53h0Z"/>
  <path class="st10" d="M90.41,173.79c-1.64-2.34-4.13-4.03-5.81-6.34-.06-.66-.03-1.44,0-2.11.03-.58-.16-1.33.53-1.59l5.28,10.04Z"/>
  <path class="st6" d="M77.73,65.97l3.17,2.11c-3.69.04-7.4-.03-11.09,0-.3-1.59.81-1.03,1.82-1.06,2.13-.07,4.41.55,6.1-1.06h0Z"/>
  <path class="st6" d="M83.02,54.34c-.79,1.26-1.98,3.03-2.64,4.23-.82-1.03.74-4.87,2.64-4.23Z"/>
  <path class="st6" d="M79.85,59.63c-.59,1.09-.58,3.08-2.11,3.7,0-.2-.75-.52-.18-1.96.15-.38,1.72-2,2.29-1.74Z"/>
  <path class="st6" d="M55.55,68.61v-1.59c1.79-.21,2.2-.12,2.64,1.59-.87.07-1.78-.09-2.64,0Z"/>
  <path class="st6" d="M66.64,68.09l.29-1.06h1.82v1.06c-.7.01-1.41-.02-2.11,0Z"/>
  <path class="st10" d="M87.77,144.72c.3,1.16-1.01.98-1.06,1.06-.05-.7.24-1.17.79-1.58l.26.52h0Z"/>
  <path class="st0" d="M31.25,170.62c.05-.69-.29-1.74.53-2.11l-.53,2.11Z"/>
  <path class="st6" d="M53.97,68.61c-.06,0-.13.41-1.06.53l1.06-.53Z"/>
  <path class="st0" d="M30.73,176.43c.07-1.11.52-1,.53-1.06l-.53,1.06Z"/>
  <path class="st0" d="M31.25,174.85c.03-.35-.02-.71,0-1.06h.53c-.11.41-.02.86-.53,1.06Z"/>
  <path class="st0" d="M29.14,166.39l.53-.53c-.04.4-.52.49-.53.53Z"/>
  <path class="st10" d="M60.83,219.24h-.53l.26-.52.26.52h.01Z"/>
  <path class="st8" d="M52.91,69.14c-13.24,1.69-25.62,4.91-38.02,9.78,4.47-3.67.39-10.38-.71-15.16-4.02-17.37-7.25-37.9,2.91-53.99,5.19-8.22,16.04-10.84,20.08-.19,4.94,13.05-2.36,33.34-3.79,47.14-.27,2.64-.3,5.52-.53,8.19,9.66-1.18,19.19-3.96,29.05-3.17.96-11.4,2.96-23.06,7.29-33.66,3.44-8.42,12.17-23.8,22.07-24.95s13.15,6.18,12.29,14.94c-1.31,13.4-13.64,25.29-20.54,36.27-1.9-.64-3.46,3.2-2.64,4.23-.18.33-.34.71-.53,1.06-.56-.27-2.14,1.36-2.29,1.74-.57,1.45.18,1.76.18,1.96-.03.67-.72,1.62,0,2.64-1.69,1.6-3.97.98-6.1,1.06-1.02.03-2.12-.53-1.82,1.06h-1.06v-1.06h-1.82l-.29,1.06c-2.96.08-5.54.31-8.45.53-.44-1.71-.86-1.79-2.64-1.59v1.59c-.52.05-1.07-.06-1.59,0l-1.06.53h.01ZM71,63.69c.89.39,1.53.28,2.25-.36.83-.75,3.92-8.09,4.92-9.87,3.73-6.66,13.59-19.6,14.29-26.39,1.05-10.1-6.13-10.54-12.11-4.2-8.94,9.48-11.83,25.73-14.26,38.1l.07.72c1.3.67,3.04.71,4.3,1.15.43.15.43.8.54.85ZM25.79,20.11c-3.04.27-6.02,4.5-7.15,7.08-3.81,8.64-2.42,21.22-.87,30.34.53,3.09,1.74,10.28,3.03,12.83.33.64.4.89,1.22.94l6.51-3.56c.37-4.88-.21-9.83.09-14.71.45-7.3,4.65-23.66,1.69-29.71-.63-1.28-3.1-3.33-4.52-3.2h0ZM76.41,64.39v.53c.34-.18.34-.35,0-.53Z"/>
  <path class="st0" d="M84.07,146.83h-.53s-.07-.51.26-.52l.26.52h0Z"/>
  <path class="st1" d="M83.96,108.94c2.33-.19,4.91-.47,6.68,1.46,6.92,7.53-14.46,13.58-16.04,4.46.98-4.45,5.33-5.59,9.36-5.92Z"/>
  <path class="st1" d="M30.58,121.09c2.48,2.48.63,5.51-1.7,7.25-5.47,4.06-18.3.68-12.64-5.77,2.54-2.89,11.66-4.16,14.34-1.47h0Z"/>
  <path class="st2" d="M54.64,120.27c1.37,1.52,4.76,1.41,6.22-.1,1.11-1.15.43-3.13,2.82-2.35,2.11.69-1.06,4.5-2.05,5.23-3.62,2.7-5.75,1.17-9.23-.53-.78,3-3.76,3.59-6.49,3.04-3.66-.74-5.41-5.93-2.32-5.08,1.53.42,3.58,4.9,6.93.96,2.82-3.31-1.44-3.95-2.39-5.49-3.15-5.11,7.79-5.54,8.42-3.67,1.23,3.68-4.66,4.92-1.9,7.98h-.01Z"/>
  <path class="st7" d="M68.62,98.83c7.05-1.43,6.19,13.86.7,11.8-4.55-1.71-5.45-10.84-.7-11.8Z"/>
  <path class="st7" d="M32.17,105.18c6.67-1.38,6.57,14.32.29,11.67-3.79-1.6-4.9-10.71-.29-11.67Z"/>
  <path class="st0" d="M32.31,171.67l-.52-.26.52-.26c-.04.17.04.36,0,.53h0Z"/>
  <path class="st1" d="M25.79,20.11c1.41-.12,3.89,1.92,4.52,3.2,2.96,6.05-1.24,22.41-1.69,29.71-.3,4.88.29,9.83-.09,14.71l-6.51,3.56c-.82-.06-.9-.3-1.22-.94-1.29-2.54-2.5-9.73-3.03-12.83-1.55-9.12-2.94-21.7.87-30.34,1.14-2.58,4.11-6.81,7.15-7.08h0Z"/>
  <path class="st1" d="M71,63.69c-.11-.05-.11-.7-.54-.85-1.26-.44-3-.48-4.3-1.15l-.07-.72c2.43-12.37,5.32-28.62,14.26-38.1,5.98-6.34,13.16-5.91,12.11,4.2-.71,6.79-10.56,19.73-14.29,26.39-1,1.78-4.09,9.12-4.92,9.87-.72.64-1.36.75-2.25.36Z"/>
  <path class="st6" d="M76.41,64.39c.34.18.34.35,0,.53v-.53Z"/>
</svg>