<?xml version="1.0" encoding="UTF-8"?>
<svg id="_레이어_1" xmlns="http://www.w3.org/2000/svg" version="1.1" viewBox="0 0 177.13 239.75">
  <!-- Generator: Adobe Illustrator 29.8.1, SVG Export Plug-In . SVG Version: 2.1.1 Build 2)  -->
  <defs>
    <style>
      .st0 {
        fill: #642541;
      }

      .st1 {
        fill: #2c2e29;
      }

      .st2 {
        fill: #905d69;
      }

      .st3 {
        fill: #ccb396;
      }

      .st4 {
        fill: #ebd8b9;
      }

      .st5 {
        fill: #acaca8;
      }

      .st6 {
        fill: #c4ab84;
      }

      .st7 {
        fill: #2e292d;
      }

      .st8 {
        fill: #524b3e;
      }

      .st9 {
        fill: #59203a;
      }

      .st10 {
        fill: #b16a33;
      }

      .st11 {
        fill: #231815;
      }

      .st12 {
        fill: #752745;
      }

      .st13 {
        fill: #673b4a;
      }

      .st14 {
        fill: #eeedeb;
      }

      .st15 {
        fill: #3f413b;
      }

      .st16 {
        fill: #d8863b;
      }

      .st17 {
        fill: #221c23;
      }

      .st18 {
        fill: #e1ded2;
      }

      .st19 {
        fill: #707779;
      }

      .st20 {
        fill: #c1824b;
      }

      .st21 {
        fill: #e4d5d9;
      }

      .st22 {
        fill: #c6cdce;
      }
    </style>
  </defs>
  <path class="st17" d="M7.41,21.15c.01.35-.04.71,0,1.06.5,4.89,4.22,12.25,9.5,13.21.11-.44-.14-1.32,0-1.59.1-.2,2.99-3.04,3.17-3.17.07-.05.89-.46,1.06-.53,7.05-2.82,23.77-4.69,31.69-5.29,1.57-.12,3.18.09,4.75,0,2.02-.11,4.64-.48,6.34-.53,4.2-.11,8.48-.07,12.68,0,1.54.02,4.34.43,6.34.53,1.57.08,3.18-.1,4.75,0,8.18.52,24.39,2.28,31.69,5.29.42.17,1.52.47,1.58.53.39.37,1.66,2.17,2.64,3.17.38.38.28,1.38.79,1.58,4.54-1.18,8.22-8.87,8.72-13.21.02-.17,0-.35,0-.53h1.05l-.55,2.87c.05.51,1,.22,1.08.3.04.05.02.78,0,1.06l-.53,1.06c-.04.17.05.37,0,.53l-.53,1.06c-1.58,3.87-3.47,6.87-7.3,9.08l-.14.67c3.95,9.36,4.73,20.02,8.12,29.47,1.62,4.52,7.08,11,6.08,15.36-.74,3.22-5.82,3.15-6.18,4.41,1.09,5.25,2.26,11.73-4.67,12.74-1.8.26-4.1-.19-5.56.24-.43.13-5.48,4.54-5.51,4.91.92,1.82,1.86,3.75,1.98,5.84.09,1.69-1.11,5-.83,5.53s7.96,5.89,9.55,7.38c16.61,15.64,16.45,32.25-2.21,45.92-1.8,1.32-11.55,6.62-11.76,7.28-.88,2.83,8.11,3.49,10,3.38v1.59h-3.17v1.06c-.52-.02-1.06.05-1.58,0-1.18-3.47-6.82-2.5-9.51-1.59.7-.52,2.88-3.82.78-3.72-1.84.09-4.28,1.77-6.17,2.29-1.55.43-4.23,1.18-5.7,1.43-4.65.77-11.84,1.31-16.64,1.58-3.76.21-7.59-.14-11.35,0v3.7h12.94c1.13,0,4.12-.9,5.55-1.06.24,1.69-3.02,1.29-3.7,3.17-.35.04-.71-.03-1.06,0l-.27-.52h-1.31v1.05c-2.54.21-5.33-.1-7.92,0-1.85-2.23-8.44-2.95-10.04,0-3.47-.15-6.52-.13-10.04-.53.31-1.64-.81-.9-1.76-1.12-3.83-.89-7.29-.98-11.03-1.68-4.32-.81-8.23-2.71-12.57-2.49-.04-.17.05-.37,0-.53-.38-1.24-.53-2-2.11-2.11-.33-.85-.4-1.21-.53-2.11s.22-2.04.01-2.82c-.16-.61-1.04-.31-1.07-.35-.62-.95-1.61-4.4-2.45-4.69-3.96-.13-7.63.29-11.38-1.3l-9.94-3.53c.05-4.48-1.01-11.4-.48-15.55,1.01-7.97,7.71-19.1,12.89-25.15,1.25-1.46,7.64-7.2,7.65-8.17.02-1.03-1.52-3.18-1.61-5.29-.08-1.96,1.5-5.81,1.37-6.09-.22-.48-5.54-5.27-6.1-5.53-1.36-.62-3.7-.16-5.4-.41-7.4-1.11-5.64-7.1-5.22-12.74-.43-1.23-5.77-1.47-6.27-5.41-.41-3.28,4.47-10.07,5.82-13.67,3.58-9.52,4.1-20.87,8.88-30.16-5.22-3.78-8.21-8.22-9.43-14.52l-.53-.53c-.06-.51.03-1.07,0-1.59l2.64-.53h.02,0ZM67.62,27.49c-.31-.08-.75.08-1.06,0-2.04-.52-1.59,0-2.64,0-10.94,0-19.38.41-30.11,2.64-2.81.59-9.58,1.82-11.78,2.77-.7.3-.75.82-.9.93-.19.13-.36.36-.53.53-1.67,1.63-3.02,3.26-3.17,5.81-.65.73-3.49,6.28-2.37,6.35,2.45-.3,4.71-1.39,7.1-1.88,14.61-2.96,29.44-5.07,44.39-5.53,2.45-.08,4.95-.03,7.39,0,15,.19,29.87,2.36,44.49,5.43,1.23.26,7.25,2.47,7.8,1.96-1.44-3.64-4.65-12.88-8.44-14-10.34-3.06-25.41-5.42-36.17-5.58-2.44-.04-4.87.2-7.16,1.08-.71-.45-2.95-.39-3.17-.53-.05-.03.14-.72-.1-.92-.64-.56-3.12-.04-3.59.92,0,0,.02.02.02.02ZM13.22,51.8c-1.08,3.9-1.54,9.07-2.68,12.81-.11.36-.6.2-1.02,1.46-.5,1.49-.92,3.34-1.58,4.76-.16.35-.36.7-.53,1.06-.98,2.07-5.19,7.63-4.68,9.68.67,2.68,6.38.94,6.79,5.12.05.54-.48,1.48-.53,2.11-.01.18.01.35,0,.53-.22,3.06-2.07,7.22,2.41,7.9,1.83.28,3.61-.32,5.49.32,2.49.85,7.65,6.64,10.42,8.6,23.26,16.34,64,16.52,86.96-.52,2.62-1.94,5.13-4.99,7.75-6.78.65-.45,2.42-1.34,3.17-1.59,9.07.72,6.7-2.04,6.34-8.46-.08-1.35-.07-2.8.09-4.14,1.46-1.26,6.01-.77,6.26-3s-3.66-7.1-4.77-9.25c-.8-1.54-1.2-3.87-2.07-5.48-.24-.53-.67-.32-1.1-.33-.16,0-.37-.03-.53,0v-1.06l1.08-.3c-1.38-2.13-.06-7.46-3.72-6.57v-.53c-.08-2.37.74-4.05.53-5.81-.09-.77.28-1.8-.51-2.39s-5.57-1.48-6.88-1.84c-.16-.04-.36.04-.53,0-.35-.09-.85-.35-1.58-.53-13.66-3.29-29.79-5.43-43.84-5.81-2.67-.07-5.18.48-7.39.53-14.87.33-33.18,1.89-47.65,5.97-1.07.3-5.38,1.71-5.62,2.31-.17.39.01.92-.08,1.24h0ZM117.8,111c-.07-1.33-.59-1.98-1.12-3.1h-1.15c-5.26,3.97-11.77,7.38-18.05,9.45-10.91,3.6-12.09,2.37-20.34,11.09-.04.04-.66-.09-1.06.37-.69.8-4.05,5.51-4.19,6.26-.71,12.89-.36,25.72.02,38.55.06,2.14-1.1,4.57-.02,7.11,2.62,0,5.28.12,7.9.03.78-.03,1.5.13,2.11-.53,4.57.32,11.28-.28,15.85-1.06,1.11-.19,2.45-.73,3.69-.8.47-.82,3.69-.34,3.17-1.57-.17-.4-4.62-3.9-5.71-5.38-1.95-2.66-2.35-4.54-3.26-7.57-.17-.58.12-1.76-.14-2.75-.54-2.04-2.75-4.09-1.97-6.76.8-.3,1.66.49,2.11.53.99,5.41,3.34-.67,4.53-2.07,2.94-3.44,6.18-7,10.18-9.12l-.46-5.72c.17-.22.45-.41.53-.53,1.07-.04,1.49.87,2.11,1.59-.02.34-.03.73,0,1.06.04.38.64,1.01.53,1.58h.78c.41-.15.64-.97.8-1.06,1.84-.96,9.8-4.02,8.35.15-.85,2.45-7.73.61-7.77,4.77.32,1.25,4.09,2.04,5.49,3.01,2.42,1.69,5.77,7.13,6.08,10.04.34,3.28-1.93,4.31-.12,7.26.19.3.01,1.03.9.67,2-.83,7.67-8.11,8.74-10.29,2.28-4.68,1.95-10.15,1.04-15.08-.18-.99-.18-1.12-.53-2.11-.44-1.25-.96-1.39-1.06-1.59-3.26-6.8-7.74-10.88-13.78-15.54-.96-.75-3.51-1.74-3.65-1.9-.16-.17.45-1.39-.79-1.05-2.34,1.86-4.93,4.89-7.67,6.07-5.01,2.16-12.86,3.1-18.48,5.02-2.47.85-4.88,1.94-7.39,2.67-.14.15,1.21,4.02-1.06,3.68-.1-.6-.61-8.05-2.11-6.34l1.14,17.09c.21.52.62,1,1.23.87,1.48-.31.46-7.92.27-9.51l.27-.52h.78v2.11h1.06c.03.7-.05,1.41,0,2.11-.69.25-.5,1.01-.53,1.59-.08,2.05.37,3.21.53,4.76.05.51,0,1.06,0,1.59.01.7,0,1.41,0,2.11-.34.45.28,2.36-1.88,2.66-2.79.38-2.54-1.18-3.4-2.13-.65-3.48.23-7.13,0-10.83-.2-3.1-.97-6.94-2.11-9.78.2-.19.25-1.71.53-2.11,1.13-1.63,1.56-1.66,3.17-2.11.26-.07.72.01,1.06,0,1.04,1.97,1.24,1.45,2.64,1.06,7.75-2.15,20.37-4.78,26.78-8.88,3.26-2.09,5.68-4.86,5.44-9.09v-.03h0ZM24.31,112.05c.15,2.94,2.26,5.61,4.5,7.39,5.21,4.12,19.83,7.71,26.66,9,.55.1,1.38,1.39,2.11-.53.17,0,.35-.01.53,0,1.18.09,1.75.37,2.64.53,1.12,2.14,1.41,2.88,1.58,5.29-1.61,0-1.35.72-1.59,1.85-1.16,5.42-.21,11.63-.52,17.18-.68.75-.36,2.26-2.87,2.11-3.52-.22-3.14-3.55-3.47-5.81.9-.55.97-1.43,1.07-2.37.41-3.76.53-7.59.52-11.37v-1.59c0-.05.77-.51.31-1.03-1.49-2.52-20.76-6.23-24.89-8.47-1.53-.83-5.03-4.55-6.62-3.48-.46.31-.4,1.26-.5,1.35-2.09,1.77-3.24,2.38-5.28,4.76-4.52,5.26-10.25,14.24-12.09,20.93s-1.89,10.53,4.7,13.42c2.08.91,5.08,1.97,7.29,2.48,1.16.27,3.26,1.05,4.08.18,2.22-8.11,4.74-16.13,6.59-24.33.18-.81.31-1.32.53-2.11l2.12-.26c.62,10.63-10.24,26.12-3.46,35.69.44.61,2.41,2.47,3.07,2.75,1.23.53,2.33.17,3.03.4,2.93.94,8.53,3.13,11.62,3.17.52,0,1.07.04,1.58,0,.77.71,1.71.59,2.64.53.52-.03,1.08.06,1.58,0,.61.67,1.33.5,2.11.53,2.1.09,4.24-.08,6.34,0,.08,0,.6.53,1.28.55,1.33.04,6.48.2,7.1-.64.23-.48.05-1,.08-1.49.69-11.24.21-24.55,0-35.94-.05-2.8.6-7.27-.81-9.52-.36-.57-1.11-.81-1.3-1.06-.84-1.12-.41-1.37-2.11-2.64.41-1.34-.98-.97-1.06-1.06-8.23-10.04-10.38-7.63-21.41-11.61-3.3-1.19-8.07-3.48-11.18-5.2-1.05-.58-4.95-3.97-5.97-3.27-.37,1.26-.6,2.35-.53,3.7h0ZM66.57,127.38c1.13,1.28,1.81,3.25,3.51,4.19l3.89-4.19,6.87-6.34h-20.34c-1.55-.98-.05.53.25.8,2.19,1.98,3.8,3.24,5.82,5.54ZM58.1,147.99l1.62-15.09-.56-2.88c-1.08.31-1.13,1.7-1.34,2.62-.44,1.92-1.92,14.76-1.29,15.36h1.57ZM109.35,151.69c2.04-.29,7.07-4.03,3.34-5.23-1.5-.49-7.71,3.08-4.4,4.7-.25,0-1.07.73-1.58.53-.16-.06-.42-1.27-1.31-1.06-.67.16-.66,1.44-.8,1.59-1.81,1.92-1.81,2-3.17,4.23-.76,1.24-1.77,1.75-2.28,3.8-1.59,6.38,3.28,14.11,10.01,14.66,1.76.14,7.98-.95,8.15-2.86.2-2.53-1.69-2.61-2.67-3.43s-1.29-1.18-2.11-2.11c.22-.44.59-1.12.53-1.59,1.15-.13,1.72,1.31,2.49,1.52,1.44.39,8.71-4.22,9.05-6.14.39-2.18-3.53-9.77-5.7-10.5-1.87-.63-6.61,2.13-7.95,3.49-1.54.26-1.31-1.28-1.58-1.59h-.02ZM58.65,149.58h-2.64c-.43,2.07,1.09,3.86,2.57,1.77l.07-1.77ZM83.99,149.58h-2.11v2.64l1.86-.51.25-2.12h0ZM22.73,169.66c.75-3.75-4.29-2.73-6.87-3.43-3.7-1.01-6.51-3.34-10.03-4.49-.5,2.75,1.33,4.05,3.49,5.22,4.01,2.16,8.88,3.07,13.41,2.7ZM124.09,164.95c-7.94,1.7-7.56,9.56.88,3.14l-.88-3.14ZM68.68,183.4l-19.8-1.06-17.17-3.16c-.11.8,0,1.25.49,1.88.92,1.23,10.83,3.43,13.05,3.86,7.71,1.49,15.56,2.3,23.44,2.18v-3.71h-.01Z"/>
  <path class="st1" d="M125.19,180.76c19.03-1.15,16.67-22.17,26.92-33.04,6.97-7.39,27.3-13.3,24.8,2.62-.91,5.8-7.48,5.66-11.42,8.12-6.14,3.83-7.69,12.35-10.63,18.43-7.99,16.53-26.09,24.34-43.4,17.09l-1.61,15.5c4.87,2.18,8.11,4.68,8.47,10.4.11,1.76.13,3.82-.65,5.43-3.64,7.52-22.11,6.2-28.82,4.24-7.17-2.09-8.4-6.04-9.61-12.84-.64-3.58-1.13-8.2-1.58-11.9-.14-1.13.06-2.3,0-3.43l-10.76-.56c-1.18.17-2.13,14-2.44,15.89-1.17,7.02-2.91,10.81-10.04,12.95-7.98,2.39-29.37,3.33-29.57-8.72-.09-5.16,4.3-9.92,9.02-11.44l-3.21-25.56c4.34-.22,8.25,1.68,12.57,2.49,3.74.7,7.2.78,11.03,1.68.95.22,2.07-.52,1.76,1.12-.52-.06-1.06.04-1.58,0-6.14-.71-13.85-3.34-19.81-3.71-1.76-.11-.29,1.58-.26,2.12.15,3.21.14,6.28.53,9.51.18,1.54.91,3.15,1.06,4.23.32,2.47.54,4.9.53,7.4v2.64c-4.53.6-6.3,3.04-7.92,6.87-.09.21-.7.51-.83,1.01-.6,2.3.42,4.83,2.15,6.38l1.32-6.34c.42.05,1.24-.53,1.8-.48l.8.81c.06,1.15-.32,2.24-.49,3.37-.02.13-.46.58-.55,1.29-.48,3.95,3.43,3.24,6.36,3.99.11-.66-.14-1.53,0-2.12.05-.2.44-.55.53-1.06.03-.17-.04-.36,0-.53.18-.87.19-1.8.53-2.64l.32-1.07,2.09.52c.25.36-.18,3.49-.3,4.25-.09.57-.99,1.57-.53,2.64,4.6.46,16.56-1.28,18.62-5.96.45-1.03.21-1.78.4-2.49,1.63-6.07,2.43-12.99,2.67-19.25l-3.73-1.36c0-.71-.02-1.41,0-2.12,1.01.1,2.21-.14,3.17,0,4.87.74,7.26,2.07,12.88,1.52,1.54-.15,8.39-2.48,8.78-.72.41,1.9-4.21,2.41-4.25,2.67.5,6.4.93,13.06,2.67,19.25.42,1.49.14,2.22,1.3,3.73,2.91,3.77,13.66,5,18.25,4.73.45-1.08-.42-2.04-.53-2.64-.13-.72-.72-4.55-.53-4.75,2.67-.31,2.53,2.02,3.17,3.7.08.22.34.39.53.53.03.15-.01.35,0,.53.05.87-.04,1.77,0,2.64l6-1.53c1-.8.06-2.78-.2-3.75-.16-.6-.85-1.28-.96-1.96-.41-2.73,1.43-2.96,2.54-.68l1.84,4.75c2.07-1.96,1.34-4.08.8-6.34-.91-3.79-3.89-6.78-7.92-7.4.02-1.06-.02-2.12,0-3.17.05-2.3.3-4.59.53-6.87.07-.68.43-1.57.53-2.64.01-.15.82-.52,0-1.06v-.53c.7-2.99.37-5.98.53-8.98.01-.25,1.17-2.67.26-2.65l-19.27,3.71c-1.04.07-2.14-.11-3.17,0,.68-1.88,3.94-1.48,3.7-3.17.68-.08,1.44.09,2.11,0,.23,2.93,5.5.37,7.17.04,3.66-.72,4.67-.52,8.5-2.07.95-.39,1.76-.13,1.76-1.67.32-.14.8-.34,1.06-.53,2.69-.91,8.33-1.88,9.51,1.59-.49-.05-1.21.11-1.58,0-.06-.02-.3-.73-.91-.91-4.57-1.35-4.61-.56-5.43,3.56-.88,4.41-1.55,6.49,4.19,6.3.05-1.47.77-2.83,1.09-4.19.04-.17-.04-.36,0-.53,1.22,1.92,5.4,2.36,7.39,1.59-1.29,7.29,1.41,3.86,7.04,3.72.19-.09.83-1.86.88-2.13,1.15-2.98,5.09-3.37,7.92-4.23.11.57-.41,2.05.78,1.58,1.48-.59,6.63-5.58,7.3-7.05.49-1.1-.18-1.33-.16-1.4.78-3.1,2.18-2.49,3.07-4.06.56-.99,1.21-3.43,1.68-4.4.87-1.78,1.73-4.02,2.64-5.81s3.52-6.3,4.75-7.4c1.96-1.75,3.33-1.09,2.64-5.29,3.55-1.79,6.68-2.99,10.47-4.31.91-4.31-2.96-5.42-6.53-5.22-3.22.19-4.95,1.37-7.64,2.66-2.92,1.4-4.92,2.08-6.87,5.29v.53c-2.54,1.87-3.57,5.23-4.75,7.93-.94,2.13-1.36,4.02-2.11,5.81-.13.31-.36.64-.53,1.06-.83,2.04-2.18,5.66-3.17,7.4-.08.14.08.42,0,.53-.21.27-3.96,4.56-4.23,4.76-.28.22-5.68,2.92-6.34,3.17-.99.38-3.63.94-4.75,1.06-.35.04-.71-.03-1.06,0-1.3.1-2.91.06-4.23,0v-1.06h3.17v-1.59l-.02-.02h0Z"/>
  <path class="st11" d="M79.24,216.7c1.22,6.81,2.44,10.75,9.61,12.84,6.71,1.96,25.18,3.28,28.82-4.24.78-1.61.76-3.67.65-5.43,13.76,3.87,16.54,9.98,1.17,14.65-22.65,6.89-74.04,7.22-96.39-.5-13.78-4.76-11.02-10.41,1.73-13.1.21,12.05,21.6,11.11,29.57,8.72,7.13-2.14,8.87-5.93,10.04-12.95h14.8Z"/>
  <path class="st1" d="M4.77,21.68c-.32-5.45.34-9.23,3.48-13.69C17.18-4.73,35.17-1.59,40.45,12.69c10.65-5.01,22.98-8.29,34.86-7.42,6.2.46,15.58,3.17,21.36,5.58,1.52.63,2.62,1.93,4.23,1.84,3.95-15.7,24.75-16.94,32.45-3.14,2.18,3.92,3.73,11.36,1.35,15.29-.08-.08-1.03.21-1.08-.3l.55-2.87h-1.05c.42-5.82-2.4-13.34-7.42-16.62-2.84-1.86-3.71-.73-5.97-1-4.59-.54-5.09-1.87-9.85.71-1.84,1-3.13,1.97-4.44,3.75-1.07,1.45-2.89,6.21-3.47,6.57-1.88,1.16-4.14-1.03-5.82-1.61-.79-.27-1.73-.11-2.11-.25-3.53-1.3-4.95-2.25-8.98-3.17-2.62-.6-3.23-1.07-6.34-1.06-.99,0-2.07.63-2.88.53s-1.38-1.06-2.03-.96c-5.63.84-6.97.58-12.52.44-1.1-.03-3.84-.18-4.23,1.06-.35,0-.71-.03-1.06,0-4.59.4-6.25,2.47-9.51,3.7-1.88.71-5.36.6-7.39,2.11-2.09-1.58-2.89-8.22-6.9-10.29-.78-.4-1.83-.15-2.08-.28-.04-.02.07-.71-.16-.87-1.15-.84-9.89-.91-11.68-.67-7.29.99-11.14,10.84-10.87,17.39l-2.64.53h0Z"/>
  <path class="st1" d="M26.95,176c-.17,1.1.24,2.73,0,3.7-.64,2.57-5.2,6.59-7.89,7.17-9.2,1.97-15.6-4.43-16.4-13.25-.24-2.7.5-4.84.52-7.13l9.94,3.53c3.74,1.59,7.42,1.17,11.38,1.3.84.29,1.83,3.73,2.45,4.69h0ZM9.52,181.82c3.02,2.26,5.96,3.57,9.67,1.48,1.99-1.12-.88-3.29-1.74-4.65.03-.38-1.31-3.3.26-2.64,1.88,1.91,1.6,3.17,4.5,3.69.11.02.33.73,1.03.31,1.43-.86,1.91-4.33,1.62-5.86-.38-1.99-2.2-1.19-3.7-1.32-5.53-.48-10.9-2.19-15.84-4.76-.09,3.9.16,10.2,2.93,13.2.47.51,1.1.4,1.29.54h-.02Z"/>
  <path class="st1" d="M30.65,183.4c-1.64-.08-1.66-.93-2.11-2.11,1.58.11,1.73.87,2.11,2.11Z"/>
  <path class="st7" d="M134.17,26.96l.53-1.06c-.05.91-.51,1-.53,1.06Z"/>
  <path class="st7" d="M133.65,28.55l.53-1.06c-.21.7-.45.87-.53,1.06Z"/>
  <path class="st1" d="M5.3,23.79s-.48-.14-.53-.53l.53.53Z"/>
  <path class="st16" d="M117.8,47.58l1.58.53c.16.04.36-.04.53,0-.29,2.13,2.06.35,3.22,1.4.95.86,1.99,5.54,2.06,7.06-.06.15.07.38,0,.53-.29.65-.67.97-1.06,2.11-.08.23.1.57,0,.79l-.52.27-.51-.53c-.2.65-.28,1.52-.55,2.12-.07.15.07.39,0,.53l-.53.53c-.81,1.01-3.34,3.53-4.41,4.57-1.53,1.5-6.16,3.96-5.55,6.15,1.11,3.95,10.88-.86,13.13-2.27l2.64-.53c-.11,3.19,1.19,5.45-.52,8.45-3.67,1.42-5.22,3.16-9.91,4.09-2.71.54-7.18-.1-8.57,2.26-.09.16-.56.23-.44.64l.44.42c.02.18-.04.38,0,.53.05.16.4.35.53.53.18.17.34.36.53.53.21.54.55.81,1.06,1.06.14.07.38-.07.53,0l1.53,2.83c-1.76,4.26-7.7,3.52-11.24,1.87-1.41-.66-6.31-4.76-7.19-6.02-3.68-5.27-3.45-9.27-10.57-12.15-1.14-.46-3.57-.57-4.22-1.08-.58-.45-.29-1.47-.85-1.89-2.33-1.75-6.58-.5-8.91-.48-1.98.02-2.93-.78-5.58-.28-2.96.56-2.36,1.83-3.99,2.86-2.38,1.5-5.27,1.61-7.94,3.95-3.65,3.19-4.6,7.53-7.3,10.4-.47.5-5.12,4.56-5.45,4.72-4.35,2.04-10.39-.1-14.9-.51.24-3.17,4.81-1.85,5.28-4.75.24-.16.51-.96,1.06-1.06l.49-.35c.11-.36-.49-.65-.49-.71.01-.32.06-.79,0-1.06-.01-.04.48.22,0-.53-.17-.27-.78-.85-1.06-1.06-.16-.12-.15-.63-.9-.93-1.56-.63-3.97-.39-5.57-.79-2.55-.63-5.28-1.27-7.79-1.98-.16-.05-.37.05-.53,0-.31-1.65-1.24-1.66-2.64-2.11-1.24-2.41-.02-4.68,0-6.87,3.27.05,5.18,2.67,7.92,3.44,1.66.47,6.14,1.51,7.4.26.71-.44.68-1.87.53-2.64l.5-1.03c-.29-.12-.96.06-1.03-.03-1.9-2.14-2.96-3.04-5.28-4.76-.72-1.11-1.24-2.23-2.13-3.42-1.58-2.1-4.2-3.71-4.62-6.5-1.02-6.72,3.59-7.18,8.64-8.54,8.29-2.24,19.83-3.54,28.49-4.26,3.96-.33,8.13-.42,12.12-.49,2.08.31,1.89,1.44,3.46,2.6.59.44,1.23,1.26,2.1.83.79-.39,3.38-3.83,3.18-5.06,14.05.38,30.18,2.52,43.84,5.81h-.04,0ZM41.82,51.74l9.2,3.77,2.34-.81c.2-1.26-.55-1.66-1.4-2.28-1.49-1.07-8.26-4.08-9.72-3.03l-.42,2.35ZM96.55,49.26c-1.9.26-13.44,4.56-7.63,6.68,1.67-1.65,9.26-2.84,9.81-4.48.6-1.82-.47-2.43-2.18-2.2ZM96.67,74.53c.42-.36,1.26-.36,1.81-1.09,1.39-1.86,1.86-6.83,1.13-8.99-.41-1.21-1.39-1.35-2.09-2.13-.39-.43-.35-1.48-.83-1.82-1.55-1.1-5.29-.32-6.59,1.38-3.88,5.09-1.12,16.89,5.93,13.88.9-.39.56-1.17.63-1.23h.01ZM45.83,60.87c-5.84,1.06-4.82,14.43.91,14.23,6.75-.24,5.83-15.46-.91-14.23Z"/>
  <path class="st12" d="M55.47,133.72v1.59c-1.18-.08-1.86-.02-2.12,1.32-.39,2.06-.2,8.79-.02,11.14.05.7.53,1.13.55,1.28.33,2.26-.06,5.59,3.47,5.81,2.51.16,2.18-1.35,2.87-2.11.19-.21,1.31.23,1.59-1.31-.63-5.86.93-11.97.52-17.72-.17-2.41-.47-3.14-1.58-5.29.66.11,2.35-.18,2.64,0,.05.03-.09.79.14.91.42.23.88.12.92.15,1.7,1.28,1.27,1.52,2.11,2.64-.03,3.31-.55,5.54.5,8.75.33.99,0,1.88,1.61,1.82.21,11.39.69,24.69,0,35.94-2.61,1.06-4.02.57-6.61.51-1-.02-2.15-.45-1.84,1.08-2.1-.08-4.24.09-6.34,0v-1.06c-.95-.5-2,.51-2.11.53-.51.06-1.07-.03-1.58,0v-1.06c-.98-.52-2.5.52-2.64.53-.52.04-1.06,0-1.58,0,.18-2.17-4.25-1.42-4.72-2.97.17-2.57,2.27-5.55,1.55-8.12.15-.23.31-.68.53-1.06,2.42-.99,4.52-6.04,4.75-8.46.19-1.89.16-5.7-2.66-3.98-.57.35-2.22,5.84-2.87,7.17-1.21,2.5-2.76,4.83-4.51,6.85h-1.58c-.34.78.51,1.42.53,1.59.05.51-.07,1.09,0,1.59,0,.05-.56.27-.33,1.04.3.98,1.56,1.5,1.38,2.66-1.42.19-2.53-.38-3.69-1.05-10.87-6.34-1.81-24.66-1.56-34.07.04-1.63.06-4.43-1.6-5.32-1.85-.99-1.4,1.69-1.6,2.39-.22.79-.34,1.3-.53,2.11-1.31-.27-1.12.61-1.45,1.43-1.92,4.79-3.65,9.82-5.43,14.68-.46,1.25-1.62,6.35-1.82,6.64-1.19,1.7-6.1-1.37-7.66-1.9-1.01-.34-1.85-.74-1.61.82-6.59-2.9-6.46-7.03-4.7-13.42s7.57-15.67,12.09-20.93c2.55.01,4.89-2.37,5.28-4.76,3.04-.3,4.89,2.7,7.45,3.9l24.24,7.72h.02Z"/>
  <path class="st12" d="M77.13,128.44c.38.9.39,1.87,1.58,1.59-.28.4-.33,1.92-.53,2.11-.08.07-.75-.16-.96.08-.52.6.96,5.49.96,6.52v8.46c0,.14.46.93.55,1.56.14.98-.25,2.19.05,3.14.28.89,1.41.73,1.52.85.86.95.61,2.51,3.4,2.13,2.16-.3,1.54-2.21,1.88-2.66.09-.12,1.69.32,1.05-2.11h-1.05c0-.52.05-1.07,0-1.58,2.16.29.49-3.01,1.17-4.12.15-.26,1.13-.37,1.51-.86.74-.94.01-2.49,1.81-1.9.36.12.22,1.04.26,1.07,1.13,2.38,3.39,4.02,5.28,5.81.63.6.74,1.13,2.04,1.13-.27,2.88,2.11,5.54-2.04,5.22-.45-.04-1.31-.83-2.11-.53-.78,2.67,1.43,4.72,1.97,6.76.26.99-.03,2.18.14,2.75-2.93,4.82,1.17,10.45,2.11,15.33-4.56.77-11.27,1.37-15.85,1.06-.11,0-1.13-1.03-2.11-.53v1.06c-2.62.09-5.28-.04-7.9-.03-1.08-2.54.08-4.97.02-7.11-.38-12.84-.74-25.66-.02-38.55.14-.75,3.5-5.46,4.19-6.26.4-.46,1.02-.33,1.06-.37l.02-.02h0Z"/>
  <path class="st3" d="M20.09,91.97c.8.63,2.66,2.24,3.7,3.17,22.96,20.55,60.13,21.81,86.45,5.9,2.31-1.39,6.31-4,8.1-5.9,1.5,1.72,3.47.99,3.7,3.7-2.62,1.79-5.13,4.84-7.75,6.78-22.95,17.03-63.7,16.86-86.96.52-2.78-1.95-7.93-7.75-10.42-8.6-1.88-.64-3.66-.04-5.49-.32-4.48-.67-2.63-4.83-2.41-7.9l.52-.26-.52-.26c.05-.64.58-1.57.53-2.11l2.61.51.55-2.1c.73,1.32,4.01,5.06,5.26,6.11.92.78,2.03.67,2.14.76h0Z"/>
  <path class="st12" d="M135.76,137.42v1.59h1.06c.35.99.35,1.12.53,2.11l-1.55,8.24.49,2.85-2.13-.32c-1.15,3.26-4.28,5.36-7.38,6.66-.31-2.91-3.66-8.35-6.08-10.04-1.4-.97-5.17-1.76-5.49-3.01.04-4.16,6.92-2.32,7.77-4.77,1.45-4.17-6.51-1.11-8.35-.15l-2.11-.53c-.03-.33-.02-.72,0-1.06.05-.92,1.57-2.99-.27-4.23-1.4-.3-1.51,2.11-1.84,2.64-.08.12-.36.31-.53.53-.04.05-.72-.21-1.1.33-.43.62-1.88,5.27-2.1,5.46l-2.62-.51v-.53c-.27-.97.87-1.24,1.06-1.59,1.42-2.62,1.63-4.55-.53-6.87-2.7-2.9-3.71-.87-6.19-.64-.76.07-2.21-.27-3.06-.44-1.38-.27-1.47.6-1.31-1.57,2.4-.75,5.02-1.49,7.51-2.26,6.73-2.06,12.18-3.67,16.78-9.37.14.15,2.69,1.15,3.65,1.9,6.04,4.67,10.52,8.75,13.78,15.54v.04h0Z"/>
  <path class="st12" d="M74.49,28.02c2.29-.88,4.72-1.12,7.16-1.08,10.76.16,25.83,2.52,36.17,5.58,3.79,1.12,7,10.36,8.44,14-.55.51-6.57-1.71-7.8-1.96-14.62-3.07-29.49-5.25-44.49-5.43l-.07-1.01-1.52-.32c-.34-1.14.88-.7,1.31-1.32.29-.42.18-.88.28-1.06.19-.34.35-.71.53-1.06.29-.56.33-1.08.53-1.59.15-.4,1.06-.74,1.03-1.84-.01-.62-1.14-2.65-1.56-2.92h0Z"/>
  <path class="st12" d="M63.93,27.49c.03.7-.04,1.41,0,2.11.14,2.22.61,1.94,1.06,3.17.1.28-.11.84,0,1.06.27.52.7,1.1,1.06,1.59s1.46.91,1.56,1.37l-1.04,2.33c-14.94.46-29.77,2.57-44.39,5.53-2.4.49-4.65,1.58-7.1,1.88-1.12-.07,1.72-5.62,2.37-6.35.83-.93.46-.31,1.46-1.95.81-1.33,2.14-2,1.71-3.86.17-.17.34-.4.53-.53,4.22-.19,7.43-.39,11.22-2.27.75-.37,1.75-.03,1.45-1.43,10.73-2.24,19.17-2.64,30.11-2.64h0Z"/>
  <path class="st16" d="M109.88,4.77c.39,3,4.6,3.18,5.28,5.81-1.68.3-6.78,6.16-6.26,8.07.39,1.44,10.64,7.55,10.49,11.48-7.3-3-23.51-4.76-31.69-5.29.96-4.31,5.33-7.17,6.34-11.63.38.14,1.32-.03,2.11.25,1.68.58,3.94,2.77,5.82,1.61.58-.36,2.4-5.12,3.47-6.57,1.32-1.78,2.6-2.75,4.44-3.75v.02Z"/>
  <path class="st8" d="M78.71,8.99l-2.11,15.33c-4.2-.07-8.48-.11-12.68,0l-2.64-15.33c5.54.15,6.89.4,12.52-.44.65-.1,1.22.87,2.03.96s1.89-.52,2.88-.53h0Z"/>
  <path class="st4" d="M25.37,10.58c1.43.34,5.38,5.43,6.34,6.87-.11.9-.23,1.29-.53,2.11-3.72,2.57-8.06,6.41-10.04,10.57-.17.07-.98.47-1.06.53-3.78-1.45-5.47-6.79-5.28-10.57.24-4.97,5.3-10.75,10.56-9.51,0,0,.01,0,.01,0Z"/>
  <path class="st4" d="M125.72,20.09c.17,4.53-1.67,7.5-4.75,10.57-.06-.06-1.16-.35-1.58-.53.15-3.93-10.1-10.04-10.49-11.48-.52-1.91,4.58-7.78,6.26-8.07,5.31-.94,10.37,4.4,10.56,9.51Z"/>
  <path class="st8" d="M133.12,21.68c0,.18.02.36,0,.53-.46-.09-1.24.13-1.58,0-1.62-.64-3.46-2.62-5.81-2.11-.19-5.12-5.25-10.45-10.56-9.51-.68-2.63-4.89-2.82-5.28-5.81,4.76-2.58,5.25-1.25,9.85-.71,2.27.27,3.14-.86,5.97,1,5.02,3.29,7.84,10.8,7.42,16.62h-.01Z"/>
  <path class="st8" d="M7.41,21.15c-.27-6.56,3.58-16.4,10.87-17.39,1.79-.24,10.53-.17,11.68.67.23.16.12.85.16.87v.53c-1.03,2.07-4.38,2.52-4.75,4.76-5.26-1.24-10.32,4.55-10.56,9.51-2.36-.47-4.5,1.67-6.34,2.11-.3.07-.72-.05-1.06,0-.04-.34.01-.71,0-1.06Z"/>
  <path class="st12" d="M117.8,111c.23,4.23-2.18,7-5.44,9.09-6.41,4.11-19.03,6.74-26.78,8.88-.89-1.87-1.73-1.09-2.64-1.06-.34.01-.8-.07-1.06,0l-.53-2.64c3.63-.09,7.03-1.96,10.45-3.02,7.23-2.24,12.01-3.13,18.75-7.14,2.37-1.41,4.45-4.14,7.24-4.12h.01Z"/>
  <path class="st6" d="M133.12,72.42c1.11,2.14,5.02,7.02,4.77,9.25s-4.8,1.74-6.26,3c-.16,1.34-.17,2.79-.09,4.14l-2.03.35-.08,7.58c-1.77-.25-2.74.04-4.23.53-.75.25-2.52,1.14-3.17,1.59-.23-2.7-2.2-1.98-3.7-3.7.09-.09-.09-.42,0-.53.68-.82,1.5-1.46,1.58-2.64,5.11.12,6.96-6.92,8.73-10.58.35-.72.11-1.8.25-2.1.12-.26,1.52-1.58,2.01-2.49.78-1.45,1.35-3,2.22-4.38v-.02h0Z"/>
  <path class="st12" d="M58.12,127.91c-.17-.01-.35,0-.53,0-.69,0-1.75-.25-2.11.53-6.83-1.28-21.45-4.88-26.66-9-2.24-1.77-4.35-4.44-4.5-7.39l14.8,7.65c6.33,1.96,13.01,3.24,19.06,5.8,0,0-.06,2.41-.06,2.41Z"/>
  <path class="st9" d="M63.4,128.44c.07.09,1.47-.28,1.06,1.06-.04-.03-.49.08-.92-.15-.23-.12-.1-.88-.14-.91-.29-.18-1.98.11-2.64,0-.89-.15-1.46-.44-2.64-.53l.06-2.41c-6.05-2.56-12.74-3.84-19.06-5.8l-14.8-7.65c-.07-1.34.16-2.43.53-3.7,1.02-.69,4.92,2.69,5.97,3.27,3.11,1.72,7.88,4.01,11.18,5.2,11.03,3.98,13.18,1.57,21.41,11.61h-.01Z"/>
  <path class="st9" d="M77.13,128.44c8.25-8.73,9.43-7.49,20.34-11.09,6.28-2.07,12.79-5.48,18.05-9.44h1.15c.53,1.11,1.05,1.76,1.12,3.09-2.8-.02-4.87,2.7-7.24,4.12-6.74,4.01-11.52,4.9-18.75,7.14-3.43,1.06-6.83,2.93-10.45,3.02l.53,2.64c-1.61.45-2.04.48-3.17,2.11-1.19.29-1.2-.68-1.58-1.59h0Z"/>
  <path class="st8" d="M126.78,58.15v.53c.11,2.28.35,5.95,2.64,6.87v1.06c-1.15.23-1.96.62-1.57,1.84l.52.27c-1.3,1.32-1.5,1.59-3.17,2.64-2.25,1.41-12.02,6.22-13.13,2.27-.61-2.19,4.02-4.66,5.55-6.15,1.07-1.05,3.6-3.56,4.41-4.57.1-.13.36-.18.53-.53.07-.14-.07-.38,0-.53h.53c.4,0,.4-.3.53-.53.07-.11-.04-.35,0-.53,1.72-.42,1.77-.9,1.59-2.64h1.58,0Z"/>
  <path class="st16" d="M106.71,152.22c.5,5.39,2.09,10.05,5.81,14.27.83.94,1.11,1.28,2.11,2.11-10.36,3.93-15.45-1.98-13.2-12.16,1.36-2.23,1.36-2.3,3.17-4.23h2.11Z"/>
  <path class="st0" d="M68.68,183.4v3.71c-7.88.11-15.73-.69-23.44-2.18-2.22-.43-12.12-2.63-13.05-3.86-.48-.64-.6-1.09-.49-1.88l17.17,3.16,19.8,1.06h.01Z"/>
  <path class="st0" d="M94.03,131.61c-.16,2.16-.07,1.3,1.31,1.57.85.17,2.3.51,3.06.44,2.48-.23,3.49-2.26,6.19.64-2.31-2.07-7.13,1.05-7.57.98-.54-.09-1.33-1.18-2.32-1.41-5.83-1.37-8.59,7.19-1.48,7.84l2.12-4.76,1.86,4.74c1.32-.4,1.3-5.68,2.75-3.02s.95,3.92,5.16,2.49c-.19.34-1.33.61-1.06,1.59l-.52.26.52.27,2.62.51c.22-.19,1.67-4.85,2.1-5.46.38-.55,1.05-.28,1.1-.33l.46,5.72c-4.01,2.12-7.25,5.68-10.18,9.12-1.19,1.4-3.54,7.48-4.53,2.07,4.15.32,1.77-2.34,2.04-5.22-1.3,0-1.41-.53-2.04-1.13,2.93,1.36,6.13-3.54,7.92-5.28-2.44.08-3.33.5-4.75-1.59.08.63-1,5.38-2.11,4.23l-1.07-5.29c-1.18.31-1.06,1.68-1.05,2.65-.74-.14-3.9-.33-4.22-.53-.05-.03.1-.95-.26-1.07-1.8-.59-1.08.96-1.81,1.9-.38.49-1.36.6-1.51.86-.67,1.12.99,4.42-1.17,4.12-.16-1.55-.61-2.7-.53-4.76,2.15.26.56-1.13.53-1.59-.05-.7.03-1.41,0-2.11-.09-1.94.38-3.99-.52-5.79,2.1-.73,4.23-1.4,6.33-2.14.88-.31,1.89-.29,2.64-.53h-.01Z"/>
  <path class="st8" d="M94.03,13.22c-1.01,4.46-5.38,7.32-6.34,11.63-1.57-.1-3.18.08-4.75,0,.18-4.99,1-9.95,2.11-14.8,4.03.92,5.45,1.87,8.98,3.17Z"/>
  <path class="st8" d="M56,10.05l1.58,14.8c-1.57.09-3.19-.12-4.75,0l-6.34-11.1c3.26-1.23,4.92-3.3,9.51-3.7Z"/>
  <path class="st0" d="M99.84,181.82c.44,1.08.44,2.09,0,3.17-2.38.47-4.98.72-7.39,1.06-.67.09-1.43-.08-2.11,0-1.43.16-4.41,1.06-5.55,1.06h-12.94v-3.7c3.76-.15,7.59.21,11.35,0,4.8-.27,11.99-.81,16.64-1.58h0Z"/>
  <path class="st9" d="M34.35,174.42v1.59c-.7-.22-1.8.13-3.03-.4-.66-.28-2.63-2.14-3.07-2.75-6.79-9.57,4.07-25.06,3.46-35.69l-2.12.26c.2-.71-.25-3.39,1.6-2.39,1.66.89,1.64,3.69,1.6,5.32-.25,9.41-9.31,27.73,1.56,34.07h0Z"/>
  <path class="st10" d="M114.63,168.61c.99.82,2.87.91,2.67,3.43-.17,1.91-6.39,3.01-8.15,2.86-6.73-.55-11.6-8.28-10.01-14.66.51-2.05,1.52-2.56,2.28-3.8-2.25,10.17,2.84,16.08,13.2,12.16h.01Z"/>
  <path class="st9" d="M137.34,141.12c.9,4.92,1.24,10.4-1.04,15.08-1.06,2.18-6.74,9.46-8.74,10.29-.89.37-.71-.36-.9-.67-1.82-2.94.46-3.98.12-7.26,3.09-1.3,6.23-3.4,7.38-6.66l2.13.32-.49-2.85,1.55-8.24h-.01Z"/>
  <path class="st6" d="M56,189.22c3.51.4,6.57.38,10.04.53,3.93.17,6.18.14,10.04,0,2.59-.1,5.38.21,7.92,0,.62-.05,1.23-.5,1.58-.53s.71.04,1.06,0c1.03-.11,2.13.07,3.17,0-.96.89-2.48,1.65-3.7,2.11-1.28.49-1.66.76-3.17,1.06-6.82,1.33-15.24.39-22.18,0-.93-.05-1.69-.5-2.11-.53l-4.23-2.64c.52.04,1.07-.06,1.58,0Z"/>
  <path class="st6" d="M66.57,127.38c-2.02-2.3-3.63-3.56-5.82-5.54-.3-.27-1.8-1.78-.25-.8h20.34l-6.87,6.34c-1.77-.88-5.52-.9-7.39,0h0Z"/>
  <path class="st20" d="M66.57,42.29l2.11,3.7c-1.57-1.16-1.38-2.29-3.46-2.6-3.98.07-8.15.16-12.12.49-8.66.72-20.2,2.02-28.49,4.26-5.05,1.36-9.66,1.82-8.64,8.54.42,2.79,3.04,4.39,4.62,6.5.89,1.19,1.41,2.31,2.13,3.42,2.32,1.71,3.38,2.61,5.28,4.76.07.08.74-.1,1.03.03l-.5,1.03c-.02-.12-.67-.59-.53-1.06-1.23-.52-3.68-2.27-4.51-3.17-.7-.75-.55-1.25-.77-1.59-2.78-2.05-4.58-3.58-6.34-6.87-1.37-2.56-1.74-5.43-3.17-7.93.09-.32-.1-.85.08-1.24.25-.59,4.55-2,5.62-2.31,14.47-4.08,32.78-5.64,47.65-5.97h.01Z"/>
  <path class="st6" d="M7.41,72.42l.53,1.06c.56,3.17,1.78,3.39,2.64,5.29.64,1.42,1.43,5.1,2.11,6.34l-.55,2.1-2.61-.51c-.41-4.19-6.12-2.44-6.79-5.12-.51-2.04,3.7-7.6,4.68-9.68v.53h0Z"/>
  <path class="st16" d="M131.53,22.21c-1.41,3.97-3.48,10.44-7.92,11.63-.98-1-2.25-2.8-2.64-3.17,3.09-3.07,4.92-6.04,4.75-10.57,2.35-.5,4.19,1.48,5.81,2.11Z"/>
  <path class="st19" d="M113.05,164.91c-.47-3.83-6.31-7.37-2.11-11.63,1.34-1.36,6.07-4.12,7.95-3.49,2.17.73,6.09,8.31,5.7,10.5-.34,1.92-7.61,6.53-9.05,6.14-.77-.21-1.33-1.64-2.49-1.52h0ZM113.74,162.63c2.17,2.43,8.25.23,9.06-1.92.5-1.33-3.54-9.19-4.81-9.43-1.38-.26-6.63,3.2-6.98,4.5-.24.87,2.1,6.14,2.73,6.85Z"/>
  <path class="st20" d="M46.5,13.75l6.34,11.1c-7.92.6-24.64,2.46-31.69,5.29,1.97-4.16,6.31-8,10.04-10.57-.94,2.61-2.31,3.37-4.49,5.3-1,.88-2.49.31-2.37,3.15l26.41-4.23c-.43-3.74-4.21-5.94-7.49-7.04-1.43-.48-2.93.02-4.13-.89,2.04-1.52,5.51-1.41,7.39-2.11h0Z"/>
  <path class="st20" d="M14.8,20.09c-.18,3.78,1.51,9.12,5.28,10.57-.18.13-3.07,2.97-3.17,3.17-4.77-2.15-6.08-7.51-8.45-11.63,1.84-.45,3.97-2.58,6.34-2.11Z"/>
  <path class="st9" d="M29.07,139.54c-1.85,8.21-4.37,16.23-6.59,24.33-.82.87-2.91.09-4.08-.18-2.21-.52-5.2-1.57-7.29-2.48-.24-1.56.59-1.16,1.61-.82,1.56.52,6.47,3.6,7.66,1.9.2-.28,1.36-5.39,1.82-6.64,1.78-4.85,3.51-9.89,5.43-14.68.33-.82.14-1.71,1.45-1.43h-.01Z"/>
  <path class="st9" d="M55.47,133.72l-24.24-7.72c-2.56-1.2-4.42-4.21-7.45-3.9-.39,2.38-2.73,4.77-5.28,4.76,2.04-2.38,3.19-2.98,5.28-4.76.1-.09.04-1.04.5-1.35,1.59-1.07,5.09,2.65,6.62,3.48,4.13,2.24,23.39,5.95,24.89,8.47.45.52-.31.97-.31,1.03h0Z"/>
  <path class="st9" d="M95.62,163.85c.91,3.03,1.31,4.92,3.26,7.57,1.09,1.48,5.55,4.98,5.71,5.38.52,1.23-2.7.76-3.17,1.57-1.24.07-2.58.61-3.69.8-.95-4.88-5.04-10.5-2.11-15.33h0Z"/>
  <path class="st9" d="M22.73,169.66c-4.52.36-9.4-.54-13.41-2.7-2.17-1.17-4-2.47-3.49-5.22,3.52,1.15,6.33,3.48,10.03,4.49,2.58.7,7.61-.32,6.87,3.43Z"/>
  <path class="st9" d="M91.39,130.02c5.62-1.92,13.47-2.87,18.48-5.02,2.74-1.18,5.33-4.21,7.67-6.07,1.24-.34.63.88.79,1.05-4.61,5.7-10.05,7.31-16.78,9.37-2.49.76-5.11,1.5-7.51,2.26-.75.24-1.76.22-2.64.53v-2.11h0Z"/>
  <path class="st14" d="M67.62,27.49c.33.08.88,1.13,2.11,1.06l1.06-.53c.17-.09.33-.4.53-.53.21.14,2.46.08,3.17.53.42.26,1.55,2.3,1.56,2.92.02,1.1-.88,1.44-1.03,1.84l-3.09-.07-1.12-2.04-1.59,2.64-.54-3.17c-1.82.98-.81,3.39-3.69,2.64-.45-1.23-.92-.96-1.06-3.17l2.64-2.11c.31.08.75-.08,1.06,0h0Z"/>
  <path class="st8" d="M120.44,183.4c.52.05,1.06-.02,1.58,0,1.32.06,2.93.1,4.23,0l.53.53c-.05.33.05.72,0,1.06h-1.06c-.04.7.02,1.41,0,2.11-.02.5-.05,1.1,0,1.59-.24.07-.49.29-.53.53-2,.78-6.17.33-7.39-1.59.29-1.35.19-3.12,1.06-4.23.38.11,1.09-.05,1.58,0Z"/>
  <path class="st20" d="M85.05,10.05c-1.11,4.85-1.93,9.81-2.11,14.8-2-.1-4.8-.5-6.34-.53l2.11-15.33c3.1-.01,3.72.46,6.34,1.06ZM81.83,23.21c.05-2.51,3.84-13.6-.71-13.18-1.96.18-2.74,6.34-2.93,8.22-.16,1.64.1,3.37,0,5.02l3.65-.06s-.01,0-.01,0Z"/>
  <path class="st10" d="M129.95,66.6c.42.01.86-.2,1.1.33.87,1.61,1.28,3.95,2.07,5.48-.87,1.39-1.44,2.93-2.22,4.38-.49.9-1.89,2.23-2.01,2.49-.46.09-1.24-.13-1.58,0,1.71-3,.42-5.26.52-8.45l-2.64.53c1.67-1.05,1.87-1.32,3.17-2.64.59-.6,1.68-.78,1.58-2.11h0Z"/>
  <path class="st0" d="M42.8,168.08c.72,2.57-1.37,5.56-1.55,8.12.47,1.56,4.89.8,4.72,2.97-3.09-.04-8.69-2.23-11.62-3.17v-1.59c1.16.68,2.28,1.24,3.69,1.05.17-1.16-1.09-1.68-1.38-2.66-.23-.77.34-.99.33-1.04.68.39,1.85.84,2.54.43.23-.13,2.96-3.66,3.27-4.13,0,0,0,.02,0,.02Z"/>
  <path class="st9" d="M99.84,181.82c1.47-.25,4.15-.99,5.7-1.43,1.89-.53,4.33-2.2,6.17-2.29,2.1-.1-.08,3.2-.78,3.72-.26.19-.73.39-1.06.53-1.66.7-4.57.85-6.36,1.29-1.27.32-2.32,1.08-3.67,1.35.44-1.08.44-2.09,0-3.17h0Z"/>
  <path class="st1" d="M16.39,59.73c-3.83-.63-3.99,6.37-4.23,8.98-1.03-.9-1.66-1.77-2.64-2.64.42-1.26.91-1.1,1.02-1.46,1.13-3.75,1.6-8.92,2.68-12.81,1.43,2.5,1.8,5.37,3.17,7.93Z"/>
  <path class="st20" d="M61.28,8.99l2.64,15.33c-1.7.04-4.32.42-6.34.53l-1.58-14.8c.34-.03.71,0,1.06,0l1.29,12.72,4,.5-1.83-12.71c-.58-.81-2.51-.51-3.46-.51.39-1.24,3.12-1.09,4.23-1.06h0Z"/>
  <path class="st10" d="M12.69,71.36c-.02,2.19-1.24,4.46,0,6.87v.53c-.52-.16-1.49.11-2.11,0-.86-1.9-2.08-2.12-2.64-5.29-.08-.43,0-.91-.53-1.06v-.53c.17-.36.37-.71.53-1.06,1.23.43,1.08-1.22,1.91-1.52,1.93-.68,2.86.15,2.84,2.04,0,0,0,.02,0,.02Z"/>
  <path class="st9" d="M78.19,132.14c1.14,2.85,1.9,6.69,2.11,9.78.24,3.7-.64,7.35,0,10.83-.11-.12-1.24.04-1.52-.85-.3-.95.09-2.15-.05-3.14-.09-.64-.55-1.43-.55-1.56v-8.46c0-1.04-1.48-5.92-.96-6.52.21-.24.88,0,.96-.08h.01Z"/>
  <path class="st22" d="M82.94,136.37c.13.81.49,1.82.53,2.11.19,1.59,1.21,9.2-.27,9.51-.61.13-1.02-.35-1.23-.87l-1.14-17.09c1.5-1.71,2.01,5.74,2.11,6.34Z"/>
  <path class="st1" d="M109.35,151.69c.28.31.04,1.85,1.58,1.59-4.19,4.26,1.65,7.8,2.11,11.63.06.47-.3,1.15-.53,1.59-3.72-4.22-5.31-8.88-5.81-14.27v-.53c.51.2,1.34-.52,1.58-.53.08,0,.97.44,1.06.53h0Z"/>
  <path class="st18" d="M58.1,147.99h-1.57c-.63-.59.85-13.44,1.29-15.35.21-.91.26-2.31,1.34-2.62l.56,2.88s-1.62,15.09-1.62,15.09Z"/>
  <path class="st9" d="M62.34,133.72c.41,5.75-1.15,11.86-.52,17.72-.28,1.54-1.41,1.1-1.59,1.31.32-5.55-.64-11.76.52-17.18.24-1.13-.02-1.86,1.59-1.85Z"/>
  <path class="st10" d="M8.47,22.21c2.37,4.11,3.68,9.48,8.45,11.63-.14.27.11,1.14,0,1.59-5.28-.96-9-8.32-9.5-13.21.34-.05.76.07,1.06,0h0Z"/>
  <path class="st10" d="M133.12,22.21c-.5,4.34-4.18,12.02-8.72,13.21-.5-.2-.41-1.2-.79-1.58,4.44-1.19,6.51-7.65,7.92-11.63.34.13,1.13-.09,1.58,0h0Z"/>
  <path class="st8" d="M73.96,41.76c.2,1.23-2.39,4.67-3.18,5.06-.87.43-1.51-.39-2.1-.83l-2.11-3.7c2.21-.05,4.72-.6,7.39-.53Z"/>
  <path class="st9" d="M55.47,135.31c0,3.78-.11,7.61-.52,11.37-.1.94-.16,1.82-1.07,2.37-.02-.15-.49-.58-.55-1.28-.18-2.35-.37-9.08.02-11.14.25-1.34.94-1.4,2.12-1.32h0Z"/>
  <path class="st19" d="M124.09,164.95l.88,3.14c-8.44,6.42-8.82-1.44-.88-3.14Z"/>
  <path class="st7" d="M91.39,132.14c-2.1.74-4.23,1.4-6.33,2.14.9,1.8.43,3.85.52,5.79h-1.06v-2.11h-.78l-.27.53c-.03-.29-.4-1.31-.53-2.11,2.27.34.92-3.52,1.06-3.68,2.51-.73,4.92-1.82,7.39-2.67v2.11Z"/>
  <path class="st3" d="M131.53,88.8c.36,6.41,2.73,9.18-6.34,8.46,1.49-.49,2.46-.78,4.23-.53l.08-7.58,2.03-.35Z"/>
  <path class="st19" d="M109.35,151.69c-.08-.09-.97-.53-1.06-.53-3.31-1.62,2.89-5.19,4.4-4.7,3.72,1.2-1.31,4.94-3.34,5.23Z"/>
  <path class="st18" d="M73.96,127.38l-3.89,4.19c-1.69-.94-2.38-2.9-3.51-4.19,1.88-.9,5.62-.88,7.39,0,0,0,.01,0,.01,0Z"/>
  <path class="st1" d="M76.07,189.75c-3.86.14-6.11.17-10.04,0,1.6-2.95,8.18-2.23,10.04,0Z"/>
  <path class="st0" d="M68.68,142.71c-1.62.06-1.29-.83-1.61-1.82-1.05-3.21-.53-5.44-.5-8.75.19.25.94.48,1.3,1.06,1.41,2.24.76,6.71.81,9.52h0Z"/>
  <path class="st0" d="M33.82,30.13c.3,1.4-.71,1.05-1.45,1.43-3.79,1.88-7,2.08-11.22,2.27.15-.1.2-.62.9-.93,2.2-.96,8.97-2.19,11.78-2.77h0Z"/>
  <path class="st10" d="M127.31,52.33c-.84,1.25-1.53,2.86-2.11,4.23-.07-1.52-1.11-6.2-2.06-7.06-1.16-1.05-3.51.73-3.22-1.4,1.31.36,6.09,1.25,6.88,1.84s.42,1.62.51,2.39Z"/>
  <path class="st1" d="M126.78,58.67c3.67-.89,2.35,4.43,3.72,6.57l-1.08.3c-2.3-.92-2.53-4.59-2.64-6.87Z"/>
  <path class="st0" d="M68.68,37c.27.16.49.66,1.06.53l4.23-2.11c-.1.18.01.64-.28,1.06-.43.61-1.65.18-1.31,1.32l1.52.32.07,1.01c-2.45-.03-4.95-.08-7.39,0l1.04-2.33c-.11-.46-1.21-.88-1.56-1.37,1.17.05,1.75,1.07,2.64,1.59,0,0-.02-.02-.02-.02Z"/>
  <path class="st0" d="M68.68,178.65c-.03.49.15,1.01-.08,1.49-.62.85-5.77.68-7.1.64-.68-.02-1.2-.55-1.28-.55-.31-1.53.84-1.1,1.84-1.08,2.6.06,4,.55,6.61-.51h.01Z"/>
  <path class="st20" d="M12.16,68.72c4.32,3.8,9.92,6.63,15.85,6.34-1.26,1.25-5.74.21-7.4-.26-2.74-.77-4.65-3.39-7.92-3.44.01-1.89-.91-2.73-2.84-2.04-.83.29-.68,1.94-1.91,1.52.66-1.42,1.09-3.26,1.58-4.76.98.87,1.61,1.74,2.64,2.64h0Z"/>
  <path class="st0" d="M112.52,139.01c-.62-.72-1.04-1.63-2.11-1.59.33-.53.44-2.93,1.84-2.64,1.84,1.23.32,3.3.27,4.23Z"/>
  <path class="st0" d="M20.61,34.36c.43,1.86-.9,2.53-1.71,3.86-1,1.64-.63,1.02-1.46,1.95.15-2.55,1.5-4.19,3.17-5.81Z"/>
  <path class="st1" d="M126.78,58.15h-1.58c.19,1.74.14,2.22-1.59,2.64v-.53l.52-.27c.1-.22-.07-.55,0-.79l1.06-2.11c.07-.15-.06-.38,0-.53.58-1.37,1.27-2.98,2.11-4.23.21,1.76-.6,3.45-.53,5.81h.01Z"/>
  <path class="st5" d="M58.65,149.58l-.07,1.77c-1.48,2.09-3,.3-2.57-1.77h2.64Z"/>
  <path class="st13" d="M67.62,27.49c.48-.96,2.96-1.49,3.59-.92.24.21.05.89.1.92-.2.13-.36.44-.53.53-.19.1-1,.53-1.06.53-1.23.07-1.78-.97-2.11-1.06,0,0,.01,0,.01,0Z"/>
  <polygon class="st22" points="83.99 149.58 83.74 151.7 81.89 152.22 81.89 149.58 83.99 149.58"/>
  <path class="st13" d="M66.57,27.49l-2.64,2.11c-.04-.7.03-1.41,0-2.11,1.05,0,.6-.52,2.64,0Z"/>
  <path class="st9" d="M85.58,128.97c-1.41.39-1.6.92-2.64-1.06.91-.03,1.75-.81,2.64,1.06Z"/>
  <path class="st1" d="M129.95,66.6c.1,1.33-1,1.52-1.58,2.11l-.52-.27c-.39-1.22.43-1.61,1.57-1.84.16-.03.36,0,.53,0Z"/>
  <path class="st10" d="M106.71,151.69v.53h-2.11c.14-.15.13-1.43.8-1.59.89-.21,1.15,1,1.31,1.06Z"/>
  <path class="st0" d="M47.55,179.18c.14,0,1.66-1.05,2.64-.53v1.06c-.94.06-1.88.18-2.64-.53Z"/>
  <path class="st0" d="M114.63,140.59c-.16.08-.39.91-.8,1.05h-.78c.11-.57-.5-1.2-.53-1.58l2.11.53Z"/>
  <path class="st0" d="M85.58,150.11h1.05c.63,2.44-.97,2-1.05,2.11,0-.7.01-1.41,0-2.11Z"/>
  <path class="st9" d="M81.88,180.23c-.61.66-1.33.5-2.11.53v-1.06c.98-.5,2,.52,2.11.53Z"/>
  <path class="st0" d="M51.78,179.7c.11,0,1.16-1.03,2.11-.53v1.06c-.78-.03-1.5.14-2.11-.53Z"/>
  <path class="st9" d="M57.59,127.91c-.74,1.92-1.56.63-2.11.53.36-.78,1.42-.53,2.11-.53Z"/>
  <path class="st7" d="M85.58,142.18c.04.46,1.62,1.85-.53,1.59.02-.58-.16-1.33.53-1.59Z"/>
  <path class="st1" d="M85.58,189.22c-.35.03-.96.48-1.58.53v-1.05h1.32l.27.52h0Z"/>
  <path class="st9" d="M136.81,139.01h-1.06v-1.59c.09.19.61.34,1.06,1.59Z"/>
  <path class="st10" d="M119.38,48.1l-1.58-.53c.73.18,1.24.44,1.58.53Z"/>
  <path class="st6" d="M8.99,89.33c.01-.18-.01-.35,0-.53l.52.26-.52.26h0Z"/>
  <path class="st16" d="M58.64,191.86c.42.03,1.18.48,2.11.53,5.29,2.92,14.2,2.72,19.99,1.24.86-.22,1.87-.19,2.19-1.24,1.51-.29,1.89-.56,3.17-1.06,3.41,1.2,8.18.34,11.62-.53-4.61,7.33,3.73,7.81,9.24,7.4.92,3.85-7.02,2.54-9.8,3.41-1.67.52-1.35,1.68-1.55,1.88-.18.18-.34.37-.53.53-.26.23-1.55-.6-1.03,1.3l5.25,4.77c-2.22,3.46-8.96,3.03-11.27,4.45-.84.52-.59,2.83-2.46,2.69-.87-4.74-2.53-10.68-1.58-15.58.41-2.1,2.97-2.75.44-6.53-3-.5-5.68,1.24-8.62,1.52-4.09.39-6.45-.47-10.1-1.04-1.36-.21-4.67-.67-2.86,1.54-.96-.15-2.16.1-3.17,0-.02.7.02,1.41,0,2.12-.13,6.57-.19,12.55-1.58,19.03-.13-.08-.4.08-.53,0-6.9-4.37-12.23-8.05-21.13-6.87v-2.64c2.6-1.33,9.72-1.05,11.63-2.89,4.23-4.08-10.22-4.52-12.16-4.51-.14-1.08-.87-2.69-1.06-4.23,3.36-.49,12.92,1.91,12.15-3.7-.19-1.38-.67-1.14-1.6-1.94v-.7c5.15,1.2,8.79.73,13.22,1.06h.02,0Z"/>
  <path class="st4" d="M107.24,211.41c4.03.61,7.01,3.61,7.92,7.4l-2.64,1.59c-1.11-2.28-2.95-2.05-2.54.68.1.69.8,1.36.96,1.96-2.19,0-3.69,2.19-5.81,2.64-.01-.18.03-.38,0-.53-.06-.25-.28-.45-.53-.53-.64-1.68-.5-4-3.17-3.7-.19.2.4,4.04.53,4.75-5.63.2-14.53,0-15.85-6.87,6.87-3.83,12.26-8.75,21.13-7.4h0Z"/>
  <path class="st4" d="M57.59,218.29c-.69,6.9-9.82,7.82-15.32,7.4.12-.76.55-3.89.3-4.25l-2.09-.52-.32,1.07-1.58-.53-1.35,3.21-2.88-.56c-.22-.53-.5-.87-1.06-1.06.17-1.12.55-2.21.49-3.37l-.8-.81c-.56-.06-1.38.52-1.8.48-.91-.1-1.99-.36-2.64-1.06,1.62-3.83,3.39-6.27,7.92-6.87,8.9-1.18,14.22,2.5,21.13,6.87h0Z"/>
  <path class="st10" d="M62.87,197.14c-1.81-2.21,1.51-1.76,2.86-1.54,3.65.57,6.01,1.42,10.1,1.04,2.94-.28,5.61-2.02,8.62-1.52,2.53,3.77-.04,4.43-.44,6.53-.95,4.9.71,10.84,1.58,15.58.09.47-.06,1.08,0,1.59-.74.38-1.31,1.39-2.64,1.06-1.75-6.19-2.17-12.86-2.67-19.25.05-.26,4.67-.77,4.25-2.67-.38-1.76-7.24.57-8.78.72-5.62.54-8-.78-12.88-1.52v-.02h0Z"/>
  <path class="st8" d="M160.05,145.88c2.69-1.29,4.42-2.47,7.64-2.66,3.57-.21,7.44.91,6.53,5.22-3.79,1.32-6.92,2.53-10.47,4.31-.23.12-.88-.12-1.06,0,.4-2.74-2.17-4.37-2.64-6.87Z"/>
  <path class="st8" d="M36.99,188.69c3.34,1.58,6.56,3.45,10.04,4.76.77,5.61-8.79,3.21-12.15,3.7-.39-3.23-.38-6.3-.53-9.51.99.09,1.78.65,2.64,1.06h0Z"/>
  <path class="st8" d="M108.82,188.16c-.16,3,.17,6-.53,8.98-2.63-.34-11.27,1.31-11.65-2.4-.15-.95.2-1.24.88-1.77,1.74-1.34,7.3-3.21,9.71-4.29.52-.23,1-.49,1.58-.53h.01Z"/>
  <path class="st8" d="M36.46,208.77c0-2.5-.21-4.93-.53-7.4,1.94-.02,16.39.42,12.16,4.51-1.91,1.84-9.03,1.56-11.63,2.89Z"/>
  <path class="st10" d="M59.7,199.26l3.73,1.36c-.24,6.26-1.04,13.18-2.67,19.25-1.44.2-2.03-1.21-2.64-1.59,1.4-6.47,1.45-12.45,1.58-19.03h0Z"/>
  <path class="st8" d="M153.72,151.69c.17.17.34.37.53.53-.58,2.33,2.08,1.37,2.89,3.18,1.17,2.61-.39,6.54-2.89,7.92l-5.81-3.7c1.19-2.69,2.21-6.06,4.75-7.93h.53Z"/>
  <path class="st10" d="M54.42,189.22l4.23,2.64c-4.43-.33-8.06.14-13.2-1.06-1.86-.43-4.21-1.4-6.22-1.97-.62-.18-1.87-1.11-2.23-.14-.86-.41-1.65-.97-2.64-1.06-.03-.54-1.5-2.23.26-2.12,5.96.36,13.67,3,19.81,3.71h0Z"/>
  <path class="st8" d="M107.76,201.37c-.23,2.28-.48,4.57-.53,6.87-3.1-.58-6.84-.56-9.8-1.56-1.41-.48-2.59-.83-2.35-2.67.19-.16.35-.35.53-.53,3.83-1.57,8.02-1.98,12.15-2.11Z"/>
  <path class="st3" d="M60.76,219.87c-.19.71.06,1.46-.4,2.49-2.06,4.68-14.02,6.42-18.62,5.96-.46-1.07.44-2.07.53-2.64,5.5.42,14.63-.49,15.32-7.4.13.08.4-.08.53,0,.61.38,1.2,1.78,2.64,1.59h0Z"/>
  <path class="st8" d="M146.85,166.49c.19.02.4-.05.53,0,.39,1.3,1.29,1.19,2.11,1.59.15.07.39-.07.53,0,.83,1.25,1.83,2.19,1.51,3.84-.08.41-2.83,4.78-3.09,4.92-1.99,1.03-3.77-2.93-5.81-2.94.98-1.74,2.34-5.36,3.17-7.4.35.03.71-.05,1.06,0h0Z"/>
  <path class="st3" d="M101.95,225.68c.11.6.98,1.56.53,2.64-4.59.27-15.34-.96-18.25-4.73-1.16-1.5-.88-2.24-1.3-3.73,1.33.33,1.9-.68,2.64-1.06.14-.07.4.07.53,0,1.31,6.87,10.21,7.07,15.85,6.87h0Z"/>
  <path class="st8" d="M138.4,179.18c1.37,1.55,2.2,4.34,2.64,6.34.07.32-.06.73,0,1.06-2.83.86-6.77,1.24-7.92,4.23.08-.45,0-1.08,0-1.59.05-2.5-.32-4.5-1.06-6.87.66-.25,6.05-2.95,6.34-3.17Z"/>
  <path class="st20" d="M160.05,145.88c.47,2.5,3.04,4.13,2.64,6.87-.05.03.13.81-.35,1.08-1.1.61-3.12,1.34-4.41,1.57-1.15-1.1-2.49-2.14-3.7-3.17-.19-.16-.35-.35-.53-.53s-.34-.36-.53-.53c1.94-3.21,3.94-3.89,6.87-5.29h.01Z"/>
  <path class="st10" d="M89.81,189.22l19.27-3.71c.91-.02-.24,2.4-.26,2.65-.58.04-1.07.3-1.58.53-2.07-.73-5.85.5-8.04,1.1-.4.11-.1.67-1.46,1.02-3.44.87-8.21,1.72-11.62.53,1.22-.47,2.73-1.22,3.7-2.11h0Z"/>
  <path class="st16" d="M142.62,174.42c1.75.92,2.89,2.44,4.23,3.7-.94,2.59-3.15,6.39-5.81,7.4-.44-2.01-1.27-4.79-2.64-6.34.26-.2,4.02-4.48,4.23-4.76h0Z"/>
  <path class="st20" d="M154.24,163.32v.53l-1.07,5.28h-1.04c-.09-.07-1.66-.81-2.11-1.05-.13-.07-.38.07-.53,0-.58-.56-1.38-1.3-2.11-1.59-.13-.05-.34.02-.53,0l-.53-1.06c.75-1.8,1.18-3.69,2.11-5.81l5.81,3.7Z"/>
  <path class="st16" d="M132.06,182.35c.73,2.37,1.11,4.37,1.06,6.87-1.61.61-5.87,2.62-7.13,1.07.21-.61-.23-1.24-.27-1.6-.05-.49-.02-1.08,0-1.59h1.06c.08-.68-.09-1.45,0-2.11.05-.34-.05-.72,0-1.06.02-.1.43-.32.53-.53,1.13-.12,3.77-.68,4.75-1.06h0Z"/>
  <path class="st20" d="M95.09,204.02c-.25,1.84.93,2.19,2.35,2.67,2.96,1,6.7.98,9.8,1.56-.02,1.06.02,2.12,0,3.17-8.86-1.35-14.26,3.57-21.13,7.4-.13.07-.39-.07-.53,0-.06-.51.09-1.11,0-1.59,1.87.14,1.62-2.17,2.46-2.69,2.31-1.42,9.05-1,11.27-4.45l-5.25-4.77c-.52-1.9.77-1.08,1.03-1.3h0Z"/>
  <path class="st20" d="M118.86,183.4c-.87,1.11-.77,2.88-1.06,4.23-.04.17.04.36,0,.53-2.15.16-3.74-.77-5.28-2.11.82-4.11.86-4.91,5.43-3.56.61.18.85.9.91.91Z"/>
  <path class="st10" d="M148.96,179.7c-.02.07.65.31.16,1.4-.66,1.47-5.82,6.46-7.3,7.05-1.19.47-.67-1.01-.78-1.58-.06-.32.07-.74,0-1.06,2.66-1.01,4.87-4.81,5.81-7.4.59.55,1.46,1.07,2.11,1.59Z"/>
  <path class="st17" d="M109.88,182.35c0,1.54-.81,1.28-1.76,1.67-3.83,1.55-4.83,1.35-8.5,2.07-1.67.33-6.94,2.89-7.17-.04,2.41-.33,5.02-.59,7.39-1.06,1.35-.27,2.4-1.03,3.67-1.35,1.8-.44,4.71-.59,6.36-1.29h.01Z"/>
  <path class="st10" d="M133.12,189.22c0,.51.08,1.13,0,1.59-.05.27-.69,2.05-.88,2.13-5.63.14-8.34,3.57-7.04-3.72.04-.24.29-.46.53-.53.04.36.48.99.27,1.6,1.26,1.55,5.52-.47,7.13-1.07h0Z"/>
  <path class="st10" d="M117.8,188.16c-.33,1.36-1.05,2.72-1.09,4.19-5.74.19-5.07-1.89-4.19-6.3,1.54,1.34,3.13,2.28,5.28,2.11Z"/>
  <path class="st20" d="M107.24,188.69c-2.41,1.08-7.97,2.94-9.71,4.29-.68.52-1.03.82-.88,1.77.37,3.71,9.01,2.06,11.65,2.4v1.59c-.1,1.07-.46,1.96-.53,2.64-4.13.14-8.32.54-12.15,2.11.21-.21-.11-1.36,1.55-1.88,2.78-.87,10.71.44,9.8-3.41-5.51.41-13.85-.07-9.24-7.4,1.37-.35,1.06-.91,1.46-1.02,2.2-.6,5.97-1.82,8.04-1.1h0Z"/>
  <path class="st15" d="M157.94,155.39c.93.89,1.52,2.61,3.17,2.64-1.23,1.1-3.88,5.67-4.75,7.4l-2.11-1.59v-.53c2.5-1.37,4.06-5.31,2.89-7.92-.81-1.81-3.47-.85-2.89-3.18,1.21,1.03,2.55,2.07,3.7,3.17h0Z"/>
  <path class="st15" d="M152.13,169.13c.11.09.64,1.92,1.58,2.11-.47.97-1.12,3.4-1.68,4.4-.89,1.57-2.3.96-3.07,4.06-.65-.52-1.53-1.04-2.11-1.59-1.33-1.25-2.48-2.78-4.23-3.7.08-.11-.08-.39,0-.53,2.04.02,3.82,3.97,5.81,2.94.26-.13,3.01-4.51,3.09-4.92.33-1.65-.68-2.59-1.51-3.84.45.24,2.02.98,2.11,1.06h0Z"/>
  <path class="st3" d="M110.93,223.04c.26.97,1.2,2.95.2,3.75l-6,1.53c-.04-.87.05-1.77,0-2.64,2.12-.45,3.62-2.65,5.81-2.64h0Z"/>
  <path class="st6" d="M31.18,219.34l-1.32,6.34c-1.73-1.55-2.76-4.09-2.15-6.38.13-.5.74-.8.83-1.01.65.7,1.73.96,2.64,1.06h0Z"/>
  <path class="st10" d="M163.75,152.75c.69,4.19-.68,3.53-2.64,5.29-1.65-.03-2.24-1.75-3.17-2.64,1.29-.23,3.31-.96,4.41-1.57.48-.27.3-1.04.35-1.08.17-.12.82.12,1.06,0h-.01Z"/>
  <path class="st6" d="M34.35,224.1c.13.32-.13,1.12,0,1.58l4.75.54c-.14.58.11,1.46,0,2.12-2.93-.75-6.83-.04-6.36-3.99.09-.71.53-1.16.55-1.29.55.19.84.53,1.06,1.06v-.02h0Z"/>
  <path class="st10" d="M156.36,165.43c-.91,1.79-1.77,4.03-2.64,5.81-.95-.19-1.48-2.03-1.58-2.11h1.04l1.07-5.29,2.11,1.59Z"/>
  <path class="st6" d="M115.16,218.81c.54,2.25,1.27,4.38-.8,6.34l-1.84-4.75,2.64-1.59Z"/>
  <path class="st3" d="M40.16,221.99c-.34.85-.35,1.77-.53,2.64l-.52.26.52.26c-.09.5-.48.86-.53,1.06l-4.75-.54c-.13-.46.13-1.25,0-1.58l2.88.56,1.35-3.21,1.58.53v.02h0Z"/>
  <path class="st15" d="M146.85,166.49c-.34-.05-.71.03-1.06,0,.17-.42.4-.75.53-1.06l.53,1.06Z"/>
  <path class="st8" d="M108.29,198.73v-1.06c.82.54.01.9,0,1.06Z"/>
  <path class="st10" d="M127.31,183.4c-.09.21-.51.43-.53.53l-.53-.53c.35-.03.71.04,1.06,0Z"/>
  <path class="st3" d="M105.12,225.16c-.19-.13-.45-.31-.53-.53.24.08.47.28.53.53Z"/>
  <path class="st6" d="M39.63,225.16l-.52-.26.52-.26c-.04.17.03.36,0,.53h0Z"/>
  <path class="st15" d="M153.72,151.69h-.53v-.53c.19.17.35.35.53.53Z"/>
  <path class="st16" d="M39.1,15.86c1.2.91,2.7.41,4.13.89,3.28,1.09,7.06,3.3,7.49,7.04l-26.41,4.23c-.12-2.84,1.37-2.27,2.37-3.15,2.18-1.93,3.55-2.69,4.49-5.3.3-.83.41-1.22.53-2.11.01-.1.51-.19.32-1.03s-1.16-1.88-1.6-2.74c-.3-.59-.16-1.44-.46-1.91-.39-.61-1.97-.45-1.44-2.25,1.24-.05,2.47-.17,3.7-.25.58-.04,1.24.87,1.05-.54l-3.16-2.91v-.53c.24.12,1.3-.13,2.08.28,4.01,2.07,4.81,8.71,6.9,10.29h0ZM34.34,10.05h-1.05v1.05h1.05v-1.05Z"/>
  <path class="st16" d="M21.14,172.83c.97,2.16,1.21,4.52,1.06,6.87-2.89-.53-2.61-1.79-4.5-3.69-1.56-.66-.23,2.25-.26,2.64-.05.75-.9,2.06-.53,3.17h-7.39c-.19-.14-.81-.03-1.29-.54-2.77-3-3.03-9.3-2.93-13.2,4.94,2.57,10.31,4.28,15.84,4.76h0Z"/>
  <path class="st10" d="M9.52,181.82h7.39c-.37-1.12.48-2.42.53-3.17.86,1.37,3.73,3.54,1.74,4.65-3.71,2.09-6.65.77-9.67-1.48h.01Z"/>
  <path class="st10" d="M22.2,179.7c.15-2.35-.09-4.71-1.06-6.87,1.51.13,3.32-.66,3.7,1.32.3,1.53-.19,5-1.62,5.86-.7.42-.92-.29-1.03-.31h.01Z"/>
  <path class="st8" d="M12.69,78.76c.44.13,1.63,1.29,2.64,1.59.16.05.37-.05.53,0,3.62,3.61,9.62,2.85,14.26,3.7.28.2.89.79,1.06,1.06v.53c.06.27.01.73,0,1.06v1.06c-.55.1-.82.9-1.06,1.06-2.64,1.74-6.93,2.68-10.04,3.17-.11-.08-1.22.02-2.14-.76-1.25-1.05-4.53-4.79-5.26-6.11-.68-1.24-1.47-4.93-2.11-6.34.62.11,1.59-.16,2.11,0v-.02h.01Z"/>
  <path class="st8" d="M128.89,79.29c-.14.31.1,1.38-.25,2.1-1.77,3.66-3.62,10.7-8.73,10.58-2.11-.05-6.41-1.7-8.45-2.64-.15-.07-.39.07-.53,0-.14-.63-.72-.75-1.06-1.06-.18-.17-.35-.36-.53-.53s-.32-.39-.53-.53c-.04-.15.02-.35,0-.53-.05-.34.03-.71,0-1.06,1.39-2.35,5.86-1.72,8.57-2.26,4.69-.93,6.24-2.66,9.91-4.09.34-.13,1.12.09,1.58,0l.02.02h0Z"/>
  <path class="st8" d="M16.39,59.73c1.76,3.29,3.56,4.82,6.34,6.87.22.34.07.84.77,1.59.83.89,3.28,2.65,4.51,3.17-.14.47.5.94.53,1.06.16.77.19,2.2-.53,2.64-5.92.29-11.52-2.54-15.85-6.34.23-2.61.4-9.62,4.23-8.98h0Z"/>
  <path class="st17" d="M45.83,60.87c6.75-1.23,7.66,13.99.91,14.23-5.73.2-6.75-13.17-.91-14.23Z"/>
  <path class="st20" d="M30.12,88.8c-.47,2.91-5.04,1.58-5.28,4.75,4.51.41,10.55,2.56,14.9.51.33-.15,4.98-4.22,5.45-4.72,2.7-2.87,3.65-7.21,7.3-10.4,2.67-2.34,5.56-2.45,7.94-3.95,1.63-1.03,1.04-2.31,3.99-2.86,2.64-.5,3.6.3,5.58.28,2.33-.02,6.58-1.28,8.91.48.56.42.27,1.45.85,1.89.65.5,3.08.62,4.22,1.08,7.12,2.87,6.89,6.88,10.57,12.15.88,1.26,5.78,5.36,7.19,6.02,3.54,1.65,9.48,2.39,11.24-1.87l-1.53-2.83c2.04.94,6.34,2.59,8.45,2.64-.09,1.18-.91,1.82-1.58,2.64-7.17,2.24-14.26,2.89-20.55-1.9-5.68-4.32-7.67-12.45-14.46-15.65-.81-.38-3.31-.74-3.54-.95-.11-.1-.14-1.14-1.05-1.84-3.46-2.64-5.62-.13-8.7-.25-2.87-.11-4.74-2.4-8.2.25-.95.73-.87,1.65-1.05,1.84-.46.48-2.47.62-3.38,1.11-6.97,3.74-9.08,12.25-15.8,16.43-5.85,3.64-11.38,2.7-17.8,1.48-1.04-.93-2.9-2.55-3.7-3.17,3.11-.49,7.4-1.43,10.04-3.17h-.01Z"/>
  <path class="st1" d="M96.55,49.26c1.71-.23,2.78.38,2.18,2.2-.54,1.64-8.13,2.84-9.81,4.48-5.81-2.13,5.73-6.43,7.63-6.68Z"/>
  <path class="st1" d="M41.82,51.74l.42-2.35c1.46-1.05,8.23,1.96,9.72,3.03.85.61,1.6,1.02,1.4,2.28l-2.34.81-9.2-3.77Z"/>
  <path class="st20" d="M96.67,74.53c.41-.3,1.85-3.36,1.99-4.09,2.22-11.87-10.77-12.54-9.24-1.07.45,3.39,3.82,7.7,7.26,5.16-.07.06.27.85-.63,1.23-7.06,3.01-9.82-8.79-5.93-13.88,1.3-1.7,5.04-2.48,6.59-1.38.47.34.44,1.39.83,1.82.7.78,1.69.93,2.09,2.13.73,2.16.26,7.13-1.13,8.99-.55.73-1.39.73-1.81,1.09h-.02Z"/>
  <path class="st20" d="M30.12,84.04c-4.64-.85-10.64-.09-14.26-3.7,2.51.71,5.25,1.35,7.79,1.98,1.6.4,4.01.16,5.57.79.75.3.73.81.9.93Z"/>
  <path class="st20" d="M12.69,78.23c1.4.45,2.33.47,2.64,2.11-1.01-.29-2.21-1.45-2.64-1.59v-.53h0Z"/>
  <path class="st10" d="M123.61,60.26v.53c-.04.18.07.42,0,.53l-.53.53h-.53c.27-.6.35-1.47.55-2.12,0,0,.51.53.51.53Z"/>
  <path class="st10" d="M124.14,59.2c.38-1.15.77-1.46,1.06-2.11l-1.06,2.11Z"/>
  <path class="st20" d="M108.82,86.69l-.44-.42c-.11-.41.35-.48.44-.64.03.35-.05.72,0,1.06Z"/>
  <path class="st20" d="M31.18,87.74v-1.06c0,.06.6.35.49.71l-.49.35Z"/>
  <path class="st1" d="M122.03,62.9l.53-.53c-.17.34-.42.4-.53.53Z"/>
  <path class="st20" d="M110.93,89.33c-.51-.25-.85-.52-1.06-1.06.33.3.92.42,1.06,1.06Z"/>
  <path class="st20" d="M109.35,87.74c-.13-.18-.48-.37-.53-.53.21.14.35.36.53.53Z"/>
  <path class="st20" d="M31.18,85.63v-.53c.48.75-.01.48,0,.53Z"/>
  <path class="st17" d="M48.08,158.56c-1.22-.26-1.14.6-1.5,1.38-1.02,2.19-2.04,5.02-3.25,7.08-.22.37-.38.83-.53,1.06-.31.47-3.04,4-3.27,4.13-.7.4-1.87-.04-2.54-.43-.07-.5.05-1.07,0-1.59.67-.29.75-1.23,1.06-1.59,1.75-2.02,3.3-4.35,4.51-6.85.65-1.33,2.29-6.83,2.87-7.17,2.82-1.72,2.84,2.09,2.66,3.98h-.01Z"/>
  <path class="st0" d="M48.08,158.56c-.24,2.41-2.33,7.47-4.75,8.46,1.21-2.05,2.23-4.89,3.25-7.08.36-.78.28-1.64,1.5-1.38Z"/>
  <path class="st0" d="M38.04,168.61c-.31.35-.39,1.29-1.06,1.59-.02-.16-.87-.81-.53-1.58h1.59Z"/>
  <path class="st14" d="M90.33,142.71c.32.2,3.49.39,4.22.53,0-.96-.12-2.34,1.05-2.65l1.07,5.29c1.12,1.15,2.2-3.6,2.11-4.23,1.42,2.09,2.31,1.67,4.75,1.59-1.79,1.74-4.99,6.64-7.92,5.28-1.89-1.8-4.16-3.44-5.28-5.81Z"/>
  <path class="st4" d="M60.76,76.11c.18,1.69,1.62,3.22,2.91,4.23,2.53,1.98,7.02,2.13,4.76,6.88-1.21,2.54-6.46,2.68-8.73.8-1.07-.88-3.68-6.43-4.24-2.64-.87,5.93,11.03,9.84,14.63,4.01,5.42,4.92,15.23,3.52,14.97-4.81-2.46-.41-2.22,2.46-3.95,3.71-3.4,2.46-10.03.61-9.26-3.95.51-3.01,7.98-3.64,7.93-8.22.23.21,2.73.57,3.54.95,6.8,3.2,8.79,11.34,14.46,15.65,6.29,4.78,13.38,4.14,20.55,1.9-.09.1.09.44,0,.53-1.79,1.9-5.79,4.51-8.1,5.9-26.32,15.91-63.49,14.64-86.45-5.9,6.42,1.22,11.95,2.16,17.8-1.48,6.72-4.18,8.83-12.69,15.8-16.43.91-.49,2.92-.63,3.38-1.11,0,0,0-.02,0-.02Z"/>
  <path class="st14" d="M104.6,134.25c2.16,2.32,1.95,4.25.53,6.87-4.21,1.42-3.68.21-5.16-2.49s-1.44,2.61-2.75,3.02l-1.86-4.74-2.12,4.76c-7.12-.65-4.35-9.21,1.48-7.84.99.23,1.78,1.32,2.32,1.41.43.07,5.26-3.05,7.57-.98h-.01Z"/>
  <polygon class="st2" points="104.07 143.24 103.55 142.97 104.07 142.71 104.07 143.24"/>
  <path class="st13" d="M64.98,32.78c2.88.75,1.87-1.66,3.69-2.64l.54,3.17,1.59-2.64,1.12,2.04,3.09.07c-.19.51-.24,1.03-.53,1.59-.95.02-1.98-.03-2.82-.51-.51-.29-.05-1.28-.87-1.07l-1.06,4.75c-.57.13-.79-.37-1.06-.53,1.21-.79-.09-2.5,0-3.7l-3.69.53c-.11-.21.1-.78,0-1.06Z"/>
  <path class="st21" d="M69.74,37.53l1.06-4.75c.81-.21.36.78.87,1.07.84.49,1.87.53,2.82.51-.18.35-.34.72-.53,1.06l-4.23,2.11h.01Z"/>
  <path class="st21" d="M64.98,33.83l3.69-.53c-.09,1.2,1.22,2.91,0,3.7-.89-.52-1.47-1.54-2.64-1.59-.35-.48-.79-1.06-1.06-1.59h0Z"/>
  <path class="st20" d="M30.12,5.82l3.16,2.91c.19,1.41-.47.5-1.05.54-1.23.08-2.47.2-3.7.25-.53,1.81,1.05,1.64,1.44,2.25.3.47.16,1.32.46,1.91.44.86,1.4,1.87,1.6,2.74.2.87-.31.93-.32,1.03-.96-1.44-4.91-6.53-6.34-6.87.38-2.23,3.73-2.69,4.75-4.76Z"/>
  <path class="st1" d="M123.08,61.84l.53-.53c-.13.23-.13.52-.53.53Z"/>
  <path class="st3" d="M82.94,192.39c-.32,1.05-1.33,1.02-2.19,1.24-5.79,1.48-14.7,1.68-19.99-1.24,6.95.39,15.36,1.33,22.18,0Z"/>
  <path class="st20" d="M7.94,73.47l-.53-1.06c.53.15.45.62.53,1.06Z"/>
  <path class="st8" d="M113.74,162.63c-.63-.71-2.97-5.98-2.73-6.85.35-1.29,5.6-4.76,6.98-4.5,1.27.24,5.31,8.09,4.81,9.43-.81,2.16-6.89,4.35-9.06,1.92h0Z"/>
  <path class="st17" d="M70.79,28.02l-1.06.53c.06,0,.86-.43,1.06-.53Z"/>
  <path class="st10" d="M126.78,184.99c-.1.67.08,1.43,0,2.12h-1.06c.03-.71-.03-1.42,0-2.12h1.06Z"/>
  <path class="st16" d="M81.83,23.21l-3.65.06c.1-1.65-.16-3.38,0-5.02.19-1.88.97-8.04,2.93-8.22,4.55-.42.76,10.67.71,13.18h.01Z"/>
  <path class="st16" d="M57.06,10.05c.95,0,2.88-.3,3.46.51l1.83,12.71-4-.5-1.29-12.72Z"/>
  <path class="st20" d="M45.44,190.8v.7c.92.8,1.4.56,1.58,1.94-3.47-1.31-6.7-3.17-10.04-4.76.37-.97,1.61-.04,2.23.14,2.01.57,4.36,1.54,6.22,1.97h0Z"/>
  <path class="st15" d="M149.49,168.08c-.82-.4-1.72-.28-2.11-1.59.74.28,1.54,1.03,2.11,1.59Z"/>
  <rect class="st20" x="33.29" y="10.05" width="1.05" height="1.05"/>
  <path class="st17" d="M79.77,76.11c.06,4.58-7.42,5.21-7.93,8.22-.77,4.56,5.86,6.41,9.26,3.95,1.73-1.25,1.49-4.11,3.95-3.71.25,8.33-9.55,9.73-14.97,4.81-3.59,5.84-15.5,1.93-14.63-4.01.56-3.79,3.17,1.76,4.24,2.64,2.27,1.88,7.52,1.74,8.73-.8,2.26-4.75-2.23-4.9-4.76-6.88-1.28-1-2.72-2.53-2.91-4.23.18-.19.1-1.11,1.05-1.84,3.46-2.65,5.33-.36,8.2-.25,3.08.12,5.24-2.39,8.7.25.92.7.94,1.74,1.05,1.84h.02Z"/>
  <path class="st17" d="M96.67,74.53c-3.44,2.55-6.8-1.76-7.26-5.16-1.53-11.46,11.47-10.8,9.24,1.07-.14.72-1.58,3.78-1.99,4.09h.01Z"/>
</svg>