<?xml version="1.0" encoding="UTF-8"?>
<svg id="_레이어_1" data-name="레이어 1" xmlns="http://www.w3.org/2000/svg" viewBox="0 0 755.02 240.88">
  <defs>
    <style>
      .cls-1 {
        fill: #ddd080;
      }

      .cls-2 {
        fill: #220b0f;
      }

      .cls-3 {
        fill: #e09e97;
      }

      .cls-4 {
        fill: #6b6e73;
      }

      .cls-5 {
        fill: #a8655a;
      }

      .cls-6 {
        fill: #f2f2f0;
      }

      .cls-7 {
        fill: #a77b59;
      }

      .cls-8 {
        fill: #54555a;
      }

      .cls-9 {
        fill: #8d2641;
      }

      .cls-10 {
        fill: #f5ebdb;
      }

      .cls-11 {
        fill: #fcfcfb;
      }

      .cls-12 {
        fill: #8d273f;
      }

      .cls-13 {
        fill: #d3b68f;
      }

      .cls-14 {
        fill: #7aae68;
      }

      .cls-15 {
        fill: #ebd7b5;
      }

      .cls-16 {
        fill: #fff;
      }

      .cls-17 {
        fill: #a9acad;
      }

      .cls-18 {
        fill: #353535;
      }

      .cls-19 {
        fill: #e49238;
      }

      .cls-20 {
        fill: #826347;
      }

      .cls-21 {
        fill: #1c1613;
      }

      .cls-22 {
        fill: #e1923b;
      }

      .cls-23 {
        fill: #c1c3c7;
      }

      .cls-24 {
        fill: #e4b947;
      }

      .cls-25 {
        fill: #da9b86;
      }

      .cls-26 {
        fill: #eddaba;
      }

      .cls-27 {
        fill: #e8a6a4;
      }

      .cls-28 {
        fill: #3e7240;
      }
    </style>
  </defs>
  <path class="cls-21" d="M272.83,71.84c3.06-5.29,3.3-3.69,7-6.77,2.98-2.48,5.42-5.69,8.88-7.64-6.85-13.12-13.95-28.56-12.29-43.82,1.31-12.1,12.36-17.84,22.22-10.04,11.24,8.9,13.84,30.32,15.83,43.66,6.95-1.67,14.15-1.39,21.1,0,.37-7.62,2.23-16.11,4.4-23.44s6.67-18.22,13.37-21.8c5.17-2.77,12.78-2.56,16.5,2.5,7.6,10.32,2.23,27.79-2.01,38.64-1.91,4.89-4.76,9.32-6.5,14.28,3.28,1.46,5.47,5.49,7.97,7.41,1.65,1.27,3.34,1.54,5.01,3.2,2.17,2.17,5.78,8.88,6.29,11.88,2.75,16.24,5.21,30.21-3.72,45.23-3.93,6.61-9.88,10.8-15.5,15.86l14.38,6.29c4.46-5.33,11.23-6.37,17.11-9.11,4.7-2.19,9-5.79,14.26-6.55l-4.63-9.6c-4.12-.35-5.21-4.64-5.37-8.25-.08-1.94.92-5.26.65-6.34-.13-.53-1.24-.54-1.66-1.39-.46-.92-.29-2.51-.69-3.3-.36-.69-1.83-.54-2.58-1.06-3.09-2.17-5.14-6.72-5.07-10.48-4.9,2.13-4.17-6.05-4.1-9.08.03-1.08.82-2.52.63-3.42-.12-.58-1.43-.52-1.72-1.34-2.35-6.75,7.03-15.35,10.73-20.2.64-.83.69-2.01.91-2.3,4.53-6.01,8.73-11.74,17.32-11.17,1.96.13,4.16,1.68,5.01,1.52.28-.05,5.07-1.86,5.24-2.09.15-.21-.58-1.46-.35-2.35.94-3.63,9.8-3.31,12.66-2.33-1.06-8.55,9.68-3.84,13.19-.58,4.01-3.04,14.74-9.28,14.38-.01,3.31.32,8-.92,10.76,1.26,2.56,2.01.83,3.83.96,4.01.17.24,5.09,1.79,5.57,1.79,1.47.01,2.73-.98,4.16-1.15,6.46-.79,11.22,2.22,15.15,7.03,2.48,3.03,14.17,18.96,14.74,21.6.3,1.39.62,3.46-.02,4.74-.42.84-2.02.97-2.11,1.53-.31,1.94,2.28,5.32.77,10.01-1.21,3.77-3.78,2.71-4.2,3.13-.33.33-.65,6-3.33,8.69-1.17,1.17-3.61,1.81-4.04,2.41-.16.22-1.99,4.73-2.04,5-.69,3.66.9,7.58-.9,11.4-1.65,3.5-3.03,1.63-4.31,2.43-.44.27-2.67,8.33-4.78,9l6.66,2.68c1.57-3.06,6.1-5.69,9.48-5.93,5.43-.38,22.97,6.16,25.48,5.01.61-.28,1.19-1.31,1.77-1.77-10.27-6.83-17.09-16.65-13.64-29.46.66-2.45,2.55-5.1,2.97-7,.57-2.58.38-6.3.88-9.08,5.9-33.06,44.87-44.28,71.98-28.58,1.23.71,2.78,2.06,4.11,2.93.36.23.61.63,1.17.59,2.49,2.69,5.41,5.31,7.62,8.2.67.87,2.51,3.34,2.93,4.1,6.16,11.19,7.86,28.62,3.38,40.59-1.46,3.91-4.36,6.9-5.78,10.08-1.96,4.37,5.87,1.11,7.98.91,10.46-.95,21.22,1.36,31.37,3.5-8.29-7.94-13.55-18.51-15.25-29.88-.49-3.36.42-6.85.59-9.96.02-.39-.03-.78,0-1.17.59-4.34,2.29-8.43,1.76-12.89.74-1.72,1.42-3.65,2.35-5.27,1.45-2.56,2.89-3.79,4.69-5.86,1.6-1.84,4.2-4.86,5.87-6.45,5.51-5.23,14.32-9.99,21.7-11.72-1.99-6.43,2.28-6.88,7.63-6.44-.95-10.32,7.92-5.87,12.6-1.75,1.6,1.41,4.59,6.19,5.6,6.72,1.95,1.02,8.03,1.91,10.95,3.12,6.55,2.72,14.05,8.2,18.66,13.58,1.27,1.48,5.37,8.13,6.14,8.52,2.5,1.26,3.27-1.74,5.01-3.22,5.17-4.42,13.9-4.12,20.15-2.87.81,1.28-1.91,6.88-2.86,8.13-.79,1.03-6.68,4.92-6.45,5.27,3.19.08,10.51,10.52,9.14,12.35-6.71,2.58-14.81,1.06-20.28-3.55,1.76,10.85.36,21.83-4.7,31.64,19.84-4.21,3.43,10.25,4.11,11.13,2.23.51,6.39,2.88,7.62,4.7.55.81.4,1.55.59,2.34-1.27,2.11-6.56,4.1-8.8,4.41-1.94.27-4.38-1.01-6.47-.03-1.57,1,2.12,3.88,2.95,5,.55.74.67,2.49,2.35,2.93.89,1.67,2.33,3.02,2.93,4.1,5.42,9.68,10.72,23.06,10,34.31-.89,13.82-12.73,8.95-21.13,4.96l-2.93,5.57c2.43,3.04,15.08,6.89,15.71,10.04.47,2.34-3.18,5.5-5.16,6.37-1.6.7-8.97,3.42-10.4,3.67-6.93,1.19-11.13-2.54-14.82-7.82l-4.04.99-.57,10.7c.34.99,5.08,2.44,6.37,2.71,1.3,1.65,7.06,2.72,7.06,4.98-.52,2.33-3.47,2.43-5.01,3.8-1.28,1.14-1.74,3.89-3.5,3.86-2.13-.04-12.49-5.69-14.09-7.37-1.94-2.03-1.35-3.39-1.47-5.86-.17-3.52-.12-7.11.59-10.55h-11.73l.59,14.06c-1.74,3.43-12.85,10.33-16.62,9.41-.44-.11-1.07-2.18-1.83-2.99-3.51-3.77-11.01-3.19.26-8.76,1.43-.71,7.28-2.39,7.58-3.31l-1.25-10.63c-15.7-5.26-25.4-18.95-25.72-35.55-.07-3.83,1.08-7.57.59-11.43l-11.11-2.66c4.23,5,2.66,13.23-3.31,16.04-1.32.62-3.4.52-4.04,1.24-.72.82-1.61,7.1-2.21,8.93-3.84,11.72-10.85,19.79-21.25,26.24-.67,3.54-.89,7.75-2.05,11.14-2.95,8.69-11.1,14.66-20.34,10.66-5.39-2.33-5.66-7.42-6.64-12.42-.1-.52.08-1.2,0-1.76l-10.56-.59c-.1.75.13,1.65,0,2.35-.9,4.79-1.38,9.11-6.04,11.84-8.67,5.08-17.34-1.19-20.36-9.5-1.93-5.31-1.41-13.62-3.09-17.72-.61-1.5-3.9-4.38-5.03-6.11-4.93-7.52-7.56-18.21-7.72-27.16-5.13,1.1-8.84-2.46-13.63-1.86l-15.98-5.76c.98,8.65,2.76,16.66-.3,25.2,2.89-.83,5.75-2.04,8.16-3.86,1.68-1.27,6.56-7.17,7.4-7.31,3.51-.58,4.92,4.49,4.81,7.21-.12,2.99-2.12,5.45-2.46,7.41-.37,2.14,1.33,3.79-1.1,6.31-1.75,1.82-5.94,2.37-6.18,2.62-.53.55.77,2.32-2.42,3.73-3.38,1.49-7.16.73-10.55-.29-.19,1.57.28,3.48-.01,4.97-.25,1.3-1.49,1.65-1.74,2.95-.34,1.74.29,3.85-.13,5.73-.59,2.62-3.33,2.29-2.22,5.1s2.89,5.33-.28,8.22c-2.6,2.37-4.72.45-7.03.59-1.42.09-3.3,1.57-5.3,1.62-2.29.05-4.93-1.24-7.09-1.59-1.68-.28-3.52.18-5.2-.08-4.3-.66-6.62-7.14-6.29-11.01-.04-.08-1.43-.64-1.66-.68-1.06-2.78-.54-5.4,0-8.2h-4.94c-.77.09.84,6.85-.33,8.2-.23.03-1.61.6-1.65.68.26,4.08-2.74,10.06-6.98,10.91-1.72.34-3.49-.11-5.1.18-2.02.36-4.5,1.62-6.56,1.65-2.2.04-3.87-1.39-5.35-1.58-2.11-.26-5.21,1.54-7.62-.87-2.97-2.96-.46-5.95.42-8.63.02-.07.74-.27.56-.81-4.51-2.28-2.06-6.57-3.03-9.91-.33-1.12-1.89-1.67-2.19-3.68-.6-3.87,1.94-8.65,1.13-12.84-.35-1.79-2.3-2.22-2.78-3.66-.62-1.86-2.2-8.03-2.42-9.89-.73-6.2,1.12-12.27,1.4-18.4l-5.57,1.77c2.32,6.65-1.58,13.59-8.65,14.49-5.3.67-15.55-2.19-20.66-4.25-1.05-.42-6.66-3.61-7.05-3.21.8,4.51,1.66,9.09,1.11,13.7-.13,1.1-2.26,9.72-2.58,10.32-1.4,2.62-1.24-.73-2.05,4.97-.87,6.13-2.27,15.22-4.69,20.81-3.61,8.36-10.92,13.78-20.26,9.98-4.58-1.86-6.79-7.11-7.31-11.74-.27-2.39.19-5.17,0-7.62h-4.7c-.23,2.81.32,6.05,0,8.79-1.44,12.33-17.21,15.88-24.53,6.05-1.08-1.45-2.38-3.81-3.03-5.47-.49-1.24-.81-2.23-1.17-3.52-1.61-5.73-1.86-16.14-3.63-20.7-.4-1.03-1.83-1.01-2.15-1.96-1.83-5.5-2.5-12.51-2.44-18.37,0-.39,0-.78,0-1.17,1.03-.51.45-2.04.59-2.93.03-.19-.03-.4,0-.59.01-.08.91-.13.58-1.17l-1.75,1.17c-1.94.36-3.51,1.61-5.28,2.34-.48.2-.93.49-1.17.59-.17.07-.42-.07-.59,0-.42.16-.55.57-.59.59-.17.06-.41-.06-.59,0-.4.14-1-.05-1.17.59l-2.35.59c-5.31.98-12.31,3.49-17.41,1.28s-6.93-7.97-5.71-13l-11.48-5.85c.58,9.4,2.83,20.26,1.79,29.62-.11,1.01-.37,1.68-1.19,2.31l.57.58c6.33,2.81,12.86,1.9,18.37-2.15,4.61-3.38,7.22-9.18,14.47-6.35.76.69,1.69,1.09,1.76,1.17,1.36,1.55,1.7,3.88,1.76,5.86.02.56.06,1.21,0,1.76s-.45,2.61-.59,2.93c-.42.97-4.29,5.52-5.28,6.45-3.74,3.52-8.62,5.58-13.49,7.03-3.91.52-7.77.72-11.73.59-.2,0-.39.01-.59,0-.83-1.11-2.82-.45-4.11-.59-1.36-.19-2.72-.38-4.08-.57-.55,1.13-.41,2.41-.61,3.5l-2.93,9.38c-.19.37-.4.86-.59,1.17-4.46,7.63-9.22,11.03-18.48,9.96-6.63-.76-11.21-6.51-12.02-12.89-.19-1.49.31-8.48,0-8.79h-6.7c-.35,2.95-.45,5.82-.92,8.79-1,6.28-2.9,10.64-9.49,12.49-9.21,2.59-16.3-1.3-20.42-9.56-1.62-3.25-3.02-8.12-3.82-11.71-.97-4.35-1.41-15.51-2.65-18.3-.42-.93-2.39-.97-2.32-2.52-.36-10.1,1.19-20.11,1.74-30.17-8.14,4.32-15.15,9.27-24.92,8.21-3.06-.33-7.7-3.15-9.09-5.86-.5-.97-1.02-4.01-1.19-5.25-4.76-.37-3.34,1.22-2.91,4.08,1.38,9.17,3.48,19.24-.3,28.12-1.93,4.52-1.86,2.96-2.7,8.43-1.28,8.3-2.27,18.17-6.38,25.56-3.79,6.82-9.32,10.08-17.3,9.37-7.5-.67-11.79-5.09-13.2-12.3-.75-3.84-.57-7.86-1.18-11.72-4.27.48-8.02.81-12.31,0-.04,3.74.11,8.06-.59,11.72-3.1,16.24-24.3,16.61-31.09,2.93-5.01-10.09-3.75-22.41-8.34-31.81-.32-.66-.45-1.44-.46-2.17-2.84.98-4.9,3.43-8.05,3.96-8.14,1.38-16.02-3.35-16.58-11.89-.23-3.46-.06-4.61-.56-8.22-1.67-12.19,12.31-33.39,19.89-42.75-5.58-4.84-5.38-12.66-.02-17.58-15.01-17.16-13.95-43.4-3.52-62.64C-4.81,32.15,26.5,5.01,42.6,28.92c15.75-7.11,34.97-7.93,50.75-.45,6.43-16.53,31.37-12.42,32.85,5.27.52,6.19-1.81,12.05-7.03,15.53,12.64,18.49,13.58,43.72.13,62.12,3.94,3.32,5.14,6.86,4.55,12.01.9.89,14.74-1.24,17.31-1.22,4.51.04,8.47,2.75,13.19,1.8-5.61-6.28-11.04-12.46-13.66-20.63-4.88-15.21-1.71-32.02,6.55-45.4l-.18-.77c-8.7-5.34-8.36-18.9-.92-25.2,8.32-7.05,21.18-5.12,26.19,4.73,16.68-6.19,34.88-6.75,51.46,0,13.94-23.16,46.12,2.97,24.99,20.78-.21.85,1.91,2.35,2.35,3.2,2.05,3.97,5.15,12.65,5.87,16.99.53,3.18.59,7.84.59,11.13,0,9.97-2.63,19.65-8.8,27.54-.16.21-.42.36-.59.59-.72.38-1.49.97-1.76,1.76-.05.13,0,.39,0,.59l-1.17,1.17-7.34,6.45c12.18,5.19,25.65,10.94,33.79,21.63l16.95-7.58c-1.61-2.37-4.67-3.49-6.73-5.28-11.06-9.6-16.6-24.73-15.56-39.25.05-.76-.1-1.6,0-2.34.33-2.52,2.61-7.35,2.81-9.8.15-1.93-.62-2.18.12-4.85.62-2.24,2.33-5.56,3.52-7.62ZM361.4,49.57c4.97-11.09,11.54-26.97,7.8-39.14-2.03-6.6-6.92-8.94-13.48-6.09-12.45,5.42-15.44,33.93-17.74,45.56-1.27.92-10.24-.97-12.65-.97-1.94,0-13.23,1.78-13.78,1.22-1.69-13.06-3.8-31.35-12.43-41.79-6.31-7.63-16.38-7.34-18.98,3.1-3.69,14.8,5.45,32.6,12.06,45.47.21,2.34-3.02,3.39-4.12,4.93,6.64-.94,13.04-3.2,19.72-4.02,13.39-1.64,28.65-1.25,41.88,1.37,4.33.86,8.54,2.44,12.88,3.24-1.56-2.86-5.44-2.29-4.56-6,.19-.82,1.2-3,1.63-3.95.35-.78,1.26-1.82,1.76-2.93ZM108.82,116.59c2.01-1.57,3.42-2.17,5.37-4.31,16.36-17.97,13.45-44.15,1.45-63.62.03-.9,4.14-3.68,5.19-5.34,9.11-14.37-9.72-29.35-21.33-18.38-2.57,2.42-2.74,5.31-5.23,7.03-12.97-5.74-27.75-7.04-41.51-3.34-4.25,1.14-8.13,3.44-12.39,3.97-8.78-22.23-39.13-2.72-23.55,14.61.84.93,3.85,2.16,3.71,3.7-6.8,11.55-9.94,24.73-8.04,38.12,6.18,43.58,66.11,51.11,96.32,27.55ZM151.42,56.6c-.88,2.47-1.61,3.13-2.65,5.26-3.18,6.48-6.16,12.79-6.78,20.15l12.29,4.54c1.75,5.74-11.54,3.33-12.24,4.03v6.45c1.03,1.03,17.25-2.81,16.38,1.97-.45,2.47-10.79,5.85-13.45,6.24l3,6.37c2.2,1.39,11.28-7.45,12.26-1.43l-6.45,8.22c20.06,20.76,61.29,21.94,83.81,4.66,7.3-5.6,4.81-4,.65-9.34-7.47-9.59,5.41-4.08,9.59-1.99.69-1.5,4.61-5.46,2.72-6.79-2.39-.66-14.68-3.49-12.06-7.35,4.8-2.65,10.36.25,15.58-.55l.58-6.45h-8.5c-.46,0-3.48-.97-3.87-1.41-3.63-4.1,11.49-5.65,11.83-7.18-.72-9.19-4.61-16.95-9.35-24.62-.07-.65,5.09-5.02,6.05-6.67,7.71-13.27-12.44-28.04-23.14-14.33-.83,1.07-1.79,4.07-2.73,4.35-2.85-.89-5.54-2.03-8.41-2.88-3.95-1.18-7.67-2.45-11.87-2.55-1.96-.05-2.46,1.32-.87,2.1,2.67,1.31,7.49,1.7,10.4,3.38.47.44,1.79,2.09,1.79,2.64-2.28,5.38-14.79-4.1-13.47,3.75,9.79,1.5,10.91,7.71-.66,5.57l-2.42,6.1c-4.4,1.4-3.21-3.73-5.18-6.09-.97-.59-7.56,1.97-8.77-1.19-.17-1.01,1.24-1.66,1.91-2.1,2.97-1.93,8.26-1.18,5.7-5.5-2.84-.62-14.17,4.28-12.22-1.59.75-2.26,8.65-4.05,11.02-4.82l.59-2.04c-6.09.08-12.02,1.96-17.59,4.1-.94.36-2.2.21-2.93,1.17-.36,0-.97-.09-1.17,0-4.05-10.74-16.97-13.51-24.29-4.05-5.5,7.11-2.52,15.86,4.93,19.87ZM723.27,64.22c-4.65-6.7-12.34-12.49-19.95-15.51-3.07-1.22-9.18-2.14-11.31-3.35-2.41-1.36-5.43-8.17-10.4-10.12-.71-.28-3.21-1.06-2.91.56.11,1.57,4.68,7.14,2,7.89-1.64.46-6.69-4.55-9.62-2.9-1.08,2.68,5.94,6.41,4.69,8.2-2.48,1.51-3.78-1.96-5.05-2.21-3.6-.71-22.17,9.64-23.68,13.06-.29.65.05,1.13.8.8,13.88-3.69,29.15-4.68,43.47-3.44,10.95.94,21.6,3.53,31.97,7.02ZM453.48,37.85h-.59c-2.35,1.26-3.36,4.66-6.45,4.1-.06-.18.07-.43,0-.59-.44-1.03-1.19-1.71-2.35-1.76-2.11-2.28-4.13-2.36-7.03-2.93l1.76,4.42-.95,1.4c-4.04-1.03-7.21-2.24-11.52-1.57-.52.08-1.76.25-1.6,1.02,2.19.3,3.31,1.2,2.93,3.52-2.04.06-4.39.39-6.34,1s-4.65,2.87-6.15,2.44c-1.39-.4-1.59-1.88-4.82-1.94-8.84-.15-10.94,7.43-15.3,13.1-1.47,1.91-12.04,13.05-9.63,15.28.17.16,2.5-.38,2.92.94-.97,2.19-.84,3.99-1.15,6.1-.25,1.75-1.06,3.71-.58,5.86,1.73.3,2.26-2.88,3.83-1.19.68,4.66.46,9.32,4.69,12.32,1.46.33,2.09-3.72,2.69-4.9.68-1.32,1.52-2.6,2.27-3.88.95-1.62,1.73-1.62,1.76-1.76,1.02-.95,2.39-.53,2.35.87-.02.79-3.82,5.66-4.57,7.76s-1.15,4.42-1.3,6.61l2.15-1.68,1.95,1.68c-.43.49-.37,1.28-.59,1.76-1.85,3.97-2.13,8.13-.58,12.3.4.31,3.47-5.97,4.1.59.16,1.68-.01,2.3.59,4.1.79,2.38,2.63,4.72,4.41,6.44l.93-2.86c2.65-1.53,3.58,2.98,5.23,4.9,1.42,1.65,3.46,3.11,5.54,3.84l.9-2.36c.1,0,.42-.57.9-.57,1.24,0,3.45,3.13,4.69,4.07s2.02,1.14,3.21,1.78,2.12,1.97,3.8,1.78l.84-2.11c2.05-1.13,2.87.93,4.33,1.63,6.92,3.31,6.93,3.59,13.73,0,1.06-.56,2.06-1.92,3.05-2.19,2.32-.61,1.48,2.61,3.26,2.67,1.66.05,2.89-1.72,3.84-2.35.28-.19.74-.26,1.17-.59,1.67-1.26,3.92-4.13,5.66-4.61,1.31-.36,1.2,2.02,1.39,2.86,3.77-.76,5.56-3.61,7.62-6.45.51-.7,1.44-2.46,1.76-2.69.76-.54,1.55.36,1.76.34.06,6.38,3.86.18,4.86-2.47s.63-5.55,1.4-7.38c.4-.95,1.29-.62,1.37-.7l2.93,2.34c.32-1.59.52-3.05.59-4.69.04-.91.1-2.06,0-2.93-.36-3.28-1.65-4.23-1.76-7.62h1.76l1.75,1.17c.04-.38-.03-.79,0-1.17.05-.51.07-1.27,0-1.76-.06-.44-.58-.55-.59-.59-.04-.19.04-.4,0-.59-.22-.9-.36-1.11-.59-1.76-.06-.18.07-.42,0-.59-1.52-3.73-4.08-5.63-4.69-9.37.38-.04.79.04,1.17,0l3.52,2.34,3.53,8.79c3.82-.09,4.91-5.07,5.27-8.2.15-1.32-.2-2.71.06-4.04,1.68-1.07,2.41.44,4.04.52.53-4-.78-7.57-1.72-11.35l2.91-1.25c.03-1.8-.69-3.42-1.46-4.99-.97-1.99-2.3-2.76-3.25-4.08-1.55-2.16-3.26-4.31-4.93-6.5-4.26-5.57-6.6-12.8-15.31-12.73-2.02.02-5.09,2.06-5.6,1.97-2.85-.5-7.27-4.34-11.12-3.26-.45-2.27.55-2.3,1.62-3.37.26-.26,1.74-.45.15-1.03-2.4-.87-5.79-.16-8.22.3-.81.15-1.11.57-1.17.59-.18.05-.4-.05-.59,0-3.86.25-2.13-3.85-1.17-5.85-1.76-.02-4.29-.02-5.28,1.75ZM560.69,53.26c-20.14,2.05-33.51,15.58-36.24,35.29-.88,6.33-.78,5.51-2.81,11.26-8.35,23.62,19.83,34.62,38.29,35.9,30.47,2.12,57.28-12.13,51.73-46.41-4.12-25.47-26.13-38.57-50.98-36.04ZM725.62,68.91c-19.04-10.73-62.05-11.84-82.24-3.93-4.32,1.69-5.43,5.48-6.32,9.79,17.52-5.08,36.01-6.92,54.24-5.27,9.76.88,19.44,3.77,29.04,4.68.09.26.33.53.59.59.36.08.89-.1,1.17,0,1.07.39,7.81,3.36,8.21,2.93.59-3.36-4.83-4.22-7.62-5.27-.17-.06-.41.06-.59,0-.04-.01-.15-.44-.59-.59-.3-.1-.81.08-1.17,0-.15-.21-.35-.49-.59-.59-2-.78-4.62-.93-6.69-1.7l-.34-1.81c.68-.7,10.66,2.31,12.32,2.93,1.54.57,2.57,1.56,4.1,1.75-.07-2.12-2.17-2.75-3.52-3.51ZM377.23,80.04c-1.58-3.68-3.26-9.05-6.81-11.06-21.6-12.22-67.07-11.23-89.36-.94-5.12,2.36-6.36,6.72-8.23,11.7l30.88-7.23c24.97-3.59,49.7-.01,73.52,7.53ZM751.42,64.22c-5.18-.05-12.88-.2-15.79,4.9l2.96,4.41c5.7-.03,11.23-3.76,12.83-9.31ZM734.96,78.25c1.25-2.76.81-7.07-2.89-7l1.17,7.03,1.71-.04ZM637.19,77.83c-12.16,39.5,22.28,65.92,59.81,57.71,21.93-4.8,36.56-23.11,35.06-45.82-.09-1.38-.86-7.18-1.28-8.1-.51-1.12-5.92-2.56-7.51-3.04-19.69-5.96-43.15-7.85-63.55-5.49-7.61.88-15.15,2.78-22.53,4.74ZM272.97,83.69c-3.63,9.74-4.14,20.59-1.27,30.59,10.94,38.19,74.12,42,98.21,14.99,10.94-12.26,12.77-30.23,7.28-45.38-.81-1.08-12.24-4.3-14.49-4.86-18.79-4.72-37.38-6.06-56.64-3.6-11.29,1.44-22.46,4.29-33.09,8.26ZM738.6,76.62c-.13,2.05-1.72,2.94-3,4.31,0,2.06,13.08,7.23,15.22,4.11-2.62-4.72-6.16-9.17-12.22-8.41ZM92.19,139.22c-.17-1.73-.08-2.22,1.33-3.06,6.61-3.96,33.51-4.45,26.46-19.14-2.96-6.16-6.19.29-9.42,2.77-10.02,7.69-21.67,8.73-30.97,15.94-1.86,1.44-6.81,6.97-8.82,6.97-1.82,0-6.17-4.76-7.97-6.07-8.44-6.11-15.53-5.66-24.4-9.61-5.96-2.65-10.99-6.86-16.24-10.61-3.28,2.35-3.8,6.17-2.24,9.74,3.59,8.21,20.34,7.67,27.66,11.03,2.89,1.33,5.09,3.3.58,3.55l-25.77-7.11c-6.33,6.99-11.43,16.08-15.19,24.72-2.08,4.79-4.42,9.64-3.51,15.06,5.28,4.05,12.17,5.99,18.67,7.42,1.22-8.66,2.07-17.94,4.39-26.38.32-1.17,1.21-6.21,2.93-5.85.93.19.91,1.75.86,2.56-.71,9.61-5.53,20.07-4.59,30.48.18,2,1.93,9.56,3.47,10.59,1.92,1.29,19.63,2.98,23.15,3.24,16.7,1.24,41.72.97,57.9-3.09,4.98-1.25,5.13-2.26,6.4-7.09,3.32-12.68-2.64-25.22-3.59-37.87,3.63-.95,3.41,6.92,4.16,7.56,5.47.99,4.41-2.32,6.52-5.98,2.74-4.75,10.48-9.95,15.18-12.96,1.21-.78,7.26-3.59,7.48-3.95.77-1.23-.11-5.03-1.2-6.22l-22.93,1.03c-5.52,6.7-19.33,10.65-27.83,12.18-.83.15-1.65.21-2.49.14ZM735,118.13c-6.01,0-9.84,2.06-12.31,7.61,2.12-.54,6.51-.13,8.2-.88,1.23-.55,5.35-5.47,4.11-6.73ZM154.95,127.51l-5.28-.59.91,2.96c.61.03,5.69-1.23,4.37-2.37ZM618.28,144.5c.68-.82-5.15-9.35-6.15-10.55-.75-.91-6.19-6.47-6.76-6.73-.77-.36-1.62-.58-2.35-.01-1.11.84-.35,1.07-.02,1.79.75,1.67,4.55,8.59,5.57,9.67,2.14,2.27,7.2,3.69,9.7,5.83ZM628.84,127.51c-1.95-.2-17.68-1.63-17.58.88,1.3,2.01,4.02,4.21,5.25,6.01,4.61,6.74,4.77,14.22,12.14,18.8,1.53.95,2.64.8,3.72,1.27,1.72.74,11.45,4.98,12.31,4.11.18-4.01,1.42-7.95,2.64-11.75.19-.59.82-.97.88-1.15,1.16-.05,1.81.57,1.76,1.76-3.77,16.71-7.54,34.64,4.98,48.64,16.1,18.01,57.57,15.72,66.62-9.01-4.76-3.6-9.2-8.54-12.25-13.67-1.22-2.05-6.32-11.96-5.12-13.67,2.93-2.13,3.38,3.08,4.32,5.1s2.02,3.63,3.04,5.46c3.43,6.15,6.28,10.31,12.04,14.63,3.19,2.4,14.07,9.01,17.24,4.36,2.95-4.33-.09-17.03-1.71-21.93-2.91-8.81-11.05-23.02-17.89-29.29-6.18-5.66-7.01.64-10.83,4.99-5.24,5.95-13.38,10.88-20.15,15.03-4.98,3.05-10.74,4.88-14.85,9.18-1.5.29-11.3-9.28-12.83-11.04-3.72-4.3-7.18-9.56-9.67-14.66-.43-.87-1.69-2.74-1.76-2.93-.54-1.36-1.19-6.27-1.75-6.75-6.73-2.06-13.52-3.67-20.54-4.38ZM717.41,133.36c1.71.18,3.32-.39,4.4-1.75.68-1.39.41-2.94-.88-3.84-2.73-1.41-3.85,3.72-3.52,5.59ZM737.93,133.36c-2.93-4.18-8.06-5.16-12.9-4.68l-.56,5.84c4.71,1.37,9,.38,13.47-1.16ZM149.75,134.04c-1.02,1.62,3.79,10.74.77,11.63-2.33.69-7.41-7.75-8.67-7.54l-3.87,2.55c.79,1.74,5.57,9.14,3.5,10.59-2.71,1.9-8.23-6.39-9.63-6.15-5.29,4.01-9.66,10.42-5.33,16.92,3.92,5.88,11.34,4.38,16.99,2.38,3.04-1.08,14.9-6.83,17.25-8.55,3.33-2.44,5.7-12.89,5.9-16.96.75-15.19-8.12-8.31-16.91-4.89ZM245.29,145.65c-2.09-2.77,2.47-9.22,1.48-11.11-4.86-2.32-12.03-7.68-16.76-3.1-.33,8.58.04,17.55,5.46,24.6l16.07,7.7c.47.04,4.81-3.6,5.49-4.27,1.11-1.1,1.29-2.43,2.16-3.28,1.41-1.37,10.06-5.53,10.11-6.12-1.21-2.17-3.11-4.03-5.47-4.93-2.77,1.82-4.8,6.66-8.62,5.54-2-1.41,2.35-8.16,2.95-9.95l-3.89-2.63c-1.31-.12-5.4,8.62-8.96,7.54ZM603.62,136.29l-3.5-6.19-4.1,1.53c-1.68,2.46,6.08,4.32,7.59,4.65ZM537.94,136.89c-3.96.09-7.97-.59-11.85-1.35-7.08-1.39-29.4-10.83-28.66,2.83.57,10.57,22.33,18.46,31.36,19.07,1.99-7.33,4.97-14.21,9.15-20.54ZM78.7,132.2l-15.83.87,7.92,6.18,7.92-7.05ZM451.72,152.12v43.95c11.4.26,22.78-1.35,33.89-3.65.51-4.14,2.92-8.91,3-12.99.08-3.87-1.17-10.52-1.87-14.54-.57-3.29-2.61-8.4-2.74-11.38-.04-.94.05-1.42.87-1.97,3.16-.96,2.93,7.34,4.99,9.07,1.24,1.04,15.16,6.08,16.77,6.16,2.41.11,6.42-7.31,7.22-9.6-3.36-2.3-7.38-3.29-10.7-5.73-4.63-3.4-9.46-8.98-9.29-15.04l-11.29-4.15c-.79.2-2.69,6.4-3.38,7.76-.9,1.77-7.28,11.29-8.46,12.05-2.81,1.81-5.72-1.07-8.28-1.56-3.88-.74-7.2.16-10.71,1.62ZM538.52,133.37c-1.86.22-3.76-2.35-5.26-.3.71,1.09,1.57.8,2.6.9.56.06,2.79.37,2.66-.61ZM670.48,146.84c-5.08-.83-9.77-3.86-12.88-7.92-1.55-2.02-1.78-3.59-2.83-5.38-.47-.81-.72-1.57-1.88-1.34-1.87,2.2,7.66,16.5,9.49,18.93,3.49,4.65,7.61,8.96,12.49,12.13,6-4.15,12.91-7.01,19.03-10.9,5.5-3.5,13.36-9.35,16.95-14.71.48-.72,2.96-4.35,2.45-4.87-3.14.55-4.28,3.69-6.44,5.57-2.88,2.5-12.53,8.89-16.14,8.5-1.01-.11-1.64-.71-1.46-1.76,4.97-1.4,9.23-3.95,13.49-6.76.68-.45,1.51.14,1.16-1.45-10.59,3.17-21.93,3.99-32.87,2.08-4.44-.78-8.59-2.59-12.87-3.83,2.88,4.43,7.01,8.15,12.23,9.45l.08,2.26ZM227.08,133.37l-9.05,2.39c-6.09,14.87-24.48,19.58-35.51,6.68-1.25-1.46-3.77-6.28-4.37-6.76-1.39-1.13-6.68-1.38-8.55-2.89v9.08c0,3.23-3.49,12.92-5.59,15.51-.93,1.14-2.59,1.46-3.08,2.79-1.03,2.82-1.72,13.37-1.88,16.87-.2,4.34.06,8.76.07,13.1,25.71,5.07,52.71,4.83,78.45.02.54-9.89-1.48-19.65-1.71-29.52-4.15-4.18-8.79-10.63-8.79-17v-10.25ZM443.51,196.07v-43.66c-2.78-2-6.77-2.49-10.13-1.91-5.45.94-5.62,4.89-10.97-1.04-4.11-4.54-6.98-11.07-9.15-16.72-6.99.92-12.75,5.41-18.8,8.17-2.97,1.36-17.58,4.47-12.86,9.48,1.71,1.81,7.56,4.04,9.67,6.16.8.8.95,2,1.54,2.56.77.73,4.61,4.08,5.26,4.15l8.2-2.94c2.03-2.12.62-9.93,4.98-8.79-.65,10-5.35,20.41-3.95,30.62.43,3.13,2.16,6.89,2.77,10.12,10.87,2.84,22.24,3.61,33.44,3.8ZM591.75,134.04c-15.6,6.68-33.24,5.32-49.45,1.87l-.54.36c-10.43,15.14-14.65,36.17-7.94,53.67,11.46,29.91,57.59,28.21,66.71-2.52,1.49-5.04,2.88-14.72,1.93-19.76-.3-1.57-3.25-2.44-4.64-3.57-6.85-5.52-8.61-21.31-3.72-28.67l-2.34-1.37ZM183.1,136.89c5.01,13.42,25.56,13.05,30.48-.3-10.07,2.11-20.35,1.81-30.48.3ZM704.8,136.3v.59c.38-.2.38-.39,0-.59ZM437.48,143.5c-1.1-.86-4.25-.99-6.1-1.83-1.75-.79-4.67-3.86-5.91-4.11-1.39-.28-2.2,1.03-3.37,1.04-1.29.01-2.53-1.53-3.8-1.44,1.93,4.56,4.98,8.63,8.62,11.93,4.42-.52,8.83-3.01,13.36-1.1-.1-1.03-2.19-4.02-2.81-4.5ZM454.65,148.01c5.19-1.58,9.32.06,14.27,1.12,1.34-1.35,8.83-11.27,8.01-12.24-2.62,3.03-5.91.32-7.2.66-.91.24-4.58,3.98-7.03,4.75-1.63.51-2.96.34-4.54.74l-3.51,4.98ZM596.07,137.54c-3.12,7.01-2.22,18.66,3.72,23.97,2.76,2.47,15.43,9.44,18.96,10.36,4.15,1.09,9.94,1.93,11.89-3.01,4.02-10.15-12.81-21.46-20.18-25.64-2.14-1.21-12.6-6.84-14.4-5.69ZM323.27,199v-34.87c0-.57-4.51-4.09-5.46-4.5-7.6-3.28-10.61-.18-17.15.13-8.44.4-5.33-9.65-4.32-14.88-.04-.22-3.5-2.1-3.9-2.14-1.32-.13-9.05,3.54-10.83,4.39-5.06,2.42-13.3,6.64-17.76,9.79-.92.65-2.72,1.58-2.82,2.52-.27,2.75,5.99,16.35,8.57,16.74.76.12,1.36-.15,2.06-.33,2.26-.56,13.03-5.01,14.87-6.24,2.25-1.5,1.76-4.62,2.76-6.91l2.64.51c-1.04,8.55-4.57,17.29-2.52,25.94.48,2.02,2.23,3.63,1.67,6.24,10.46,2.71,21.38,3.69,32.18,3.59ZM326.79,164.72v34.28c10.73.22,21.56-.59,31.91-3.45.35-3.54,2.74-7.43,2.74-10.91,0-2.97-.81-8.52-1.29-11.65-.25-1.66-2.45-9.01-2-9.74,2.35-3.8,3.75,5.51,4.23,5.9.78.64,5.33,2.58,6.66,3.16,3.85,1.7,7.96,2.99,11.94,4.34.92-.22,8.03-14.95,7.95-16.65-.1-2.03-8.15-6.27-10.13-7.4-3.89-2.22-9.05-4.98-13.09-6.85-1.21-.56-6.74-2.97-7.54-2.97-1.33,0-3.37,1.79-4.99,1.72,1.74,4.75,5.03,15.25-3.22,15.28-5.44.02-9.08-2.94-15.69-1.07-2.21.63-6.92,3.82-7.48,6ZM454.06,143.33c-2.32.06-4.33,1.82-6.7,1.71s-4.33-2.37-6.79-2.3c2.18,2.29,5.73,10.43,9.04,6.97l4.45-6.39ZM299.23,145.67c-.75,1.97-2.16,9.78-.62,10.89,6.27-1.06,11.83-2.5,18.2-.63-1.4-1.44-3.88-6.1-5.3-7-2.2-1.41-9.45-1.89-12.28-3.26ZM350.84,145.67c-5.07,1.45-10.97,1.73-14.64,5.59-.4.41-3.36,4.02-2.95,4.37,2.94-.02,5.5-.76,8.53-.6,3.2.17,6.08,1.87,9.06,1.5,2.87-1.43-.02-8.31,0-10.86ZM333.83,149.19c-5.86,1.08-12.27.75-18.18,0l9.68,12.29,8.5-12.29ZM448.79,153.29h-2.35v42.78h2.35v-42.78ZM519.76,169.12c-1.06-4.02,3.4-10.64-2.58-11.05l-5.03,9.53c.49,1.69,6.11,1.62,7.61,1.52ZM532.65,200.17c1.42-4.41-1.45-7.65-2.64-11.71-2.76-9.4-3.28-17.38-2.13-27.18l-4.6-1.54c-1.65,13.69-.09,29.74,9.37,40.43ZM258.75,162.67c-11.19,4.32-4.9,17.81,5.87,14.65.99-1.01-6.45-12.05-5.87-14.65ZM384.85,177.31c11.12,3.51,17.55-9.99,6.46-14.65l-6.46,14.65ZM601.86,200.76c4.23-4.7,6.62-12.36,7.55-18.54.73-4.85,2.68-12.58-4.02-13.1.92,6.09-.59,12.39-1.81,18.41-.24,1.17-1.72,4.39-1.72,4.73v8.5ZM612.42,174.09c-.41,1.37,0,6.82,0,8.79,0,.28-1.56,1.72.28,1.46,3.89-.54,10.69-4.05,8.18-8.86-1.69.18-7.77-3.72-8.46-1.4ZM23.57,184.35c-6.85-.95-13.12-3.67-19.35-6.45-.34,4.92-.19,8.44,4.14,11.39,5.88,4.01,13.4,1.82,15.21-4.94ZM505.09,195.49c-4.94-.49-.6-3.18.5-5.07,1.23-2.12,2.18-6.41.38-8.4-3.45,4.62-7.2,6.86-12.21,9.47-2.22,1.16-7.34,2.02-7.5,5.45-.07,1.63.98,3.68.71,5.52l9.9.65c.15-1.14.1-1.2-1.01-1.28l.11-1.68c3.42-1.12,7.66-.6,9.13-4.65ZM618.87,184.93l-7.91,2.93c-1.14,7.25-6.21,12.82-8.81,19.32,7.36-5.14,15.2-13.09,16.72-22.26ZM262.28,204.27c.53.39,6.42-3.16,6.45-4.37.02-.88-3.84-5.84-4.65-6.51-2.38-1.97-3.67-.1-5.19,1.79,2.05,2.81,2.81,5.7,3.39,9.09ZM181.34,196.65l-19.94-2.35.65,7.56c3.99,1.19,8.77.79,12.24,3.33,1.08,3.44-8.39,4.22-10.54,3.77l.62,5.24c2.17.21,10.55-.11,11.01,2.17.56,2.79-6.7,4-8.69,4.31,1.76,3.75,3.17,7.13,7.22,8.89,6.06,2.64,14.46,1,16.66-5.84,1.12-3.46.98-12.96,1.88-14.39s9.62-1.37,10.94-.43c2.05,1.46,1.28,10.67,2.57,14.43,4.03,11.7,21.7,8.98,23.49-2.66-2.01-.24-9.57-1.56-7.95-4.7,1.16-2.25,9.32-.55,10.83-2.67,4.17-5.87-6.24-3.65-9-5.58-5.88-4.11,10.76-5.01,11.31-5.89l.66-7.54c-6.49.83-12.86,1.35-19.36,1.76-11.49.71-23.07.66-34.6.59ZM113.3,194.9c-26.92,5.66-54.98,5.23-82.11,1.17,1.85,12.23,2.69,36.8,20.67,34.42,11.39-1.51,10.85-12.09,11.04-21.17-.19-.69-4.76-.59-4.75-2.99l.97-1.43c5.3,1.55,10.84,2.11,16.38,1.75,2.42-.16,8.22-1.93,9.36-1.81.75.08,1.64.64,1.46,1.48l-5.24,3.01c1.04,6.11-.03,15.86,6.21,19.48s14.78,1.74,18.5-4.19c4.86-7.74,6.08-20.82,7.51-29.7ZM242.86,197.3l-4.63-1.23-1.11,9.89c1.23.5,3.98,1.32,4.93.08l.81-8.74ZM483.39,196.07c-23.49,4.34-48.02,4.07-71.55,0l-.58,12.89,2.34-.58-.58,9.96c3.48-1.81,3.36,2.3,2.9,4.96-.35,2.03-3.18,4.25-1.78,6.36,1.7,2.57,6.15-1.87,8.09,1.47l14.7-1.49c1.37-.64,2.71-3.82,2.94-5.28.55-3.49-2.52-7.61,3.07-6.31l-.65-6.09c-2.88.52-7.01-3.72-2.66-3.55,2.58.1,5.73,1.86,8.84,1.75,2.17-.07,7.81-2.54,8.79-1.79,1.69,2.78-3.27,3.1-3.79,3.94-.44.71-.86,5.67-.56,6.04,4.76-1.92,2.15,2.96,2.37,5.49.2,2.3,1.96,5.84,4.4,6.18,2.3.32,11.15,1.48,12.75,1.1,1.07-.25,1.84-1.36,2.55-1.48,1.55-.27,4.29,1.96,6.31.49,1.51-1.1-3.61-9.72-.84-12.12l2.27-.61-.5-9.01,2.34.58-1.17-12.89ZM255.78,207.16c-.02-2.04-.7-9.84-3.12-9.88l-3.87.56c1.28,3.44.16,6.57-.58,9.95l7.57-.63ZM710.96,208.37c3.04,3.78,6.52,4.85,11.14,3.22,1.03-.37,1.88-1.25,3.04-1.65,2.78-.96,6.81-.34,8.12-4.18-.16-.7-5.88-3.18-7.04-3.82-2.42-1.33-4.81-2.73-7.25-4.04l-9.51,7.56c-.59,1.11.92,2.2,1.51,2.93ZM575.56,213.73c.2,7.48-.54,17.47,9.59,17.49,13.43.03,13.74-23.52,13.78-32.81-6.03,7.81-13.58,13.18-23.37,15.32ZM330.37,213.12c-.3,7.64-.07,17.58,9.77,17.95,13.54.52,14.91-22.7,16.56-32.07-20.74,5.05-42.41,3.78-63.33.59,2.03,9.86,2.49,31.87,16.62,31.42,9.61-.31,9.73-10.25,9.8-17.6-.1-.61-4.67-.33-5.23-2.48-.9-3.43,6-.45,7.91-.28,3.9.36,8.08-.13,11.65-1.69l.83,2.88-4.57,1.28ZM536.18,200.76v10.25c0,3.32,3.43,13.98,5.61,16.66,3.57,4.4,12.37,4.87,15.42-.34,2.18-3.73,1.19-9.3,2.44-13.38-9.13-1.81-17.52-5.99-23.47-13.19ZM676.88,210.19l-4.63-1.23c-.66,3.17,1.89,10.07.04,12.64-1.24,1.72-8.95,3.55-11.18,4.94l4.49,4.04c1.85.62,10.68-4.67,11.48-6.53,1.59-3.69-.9-9.76-.21-13.86ZM699.22,209.55l-4.61.67c-.66.82-.97,12.13-.55,13.57.53,1.8,11.56,7.93,12.19,7.45-.13-2.81,2.91-2.71,4.11-4.68l-11.46-4.67.31-12.33ZM571.95,214.23h-9.38c-.27,1.68.35.97,1.36,1.25,2.68.74,5.29.5,8.03.5v-1.76Z"/>
  <path class="cls-13" d="M691.01,221.27c.12,2.47-.47,3.83,1.47,5.86,1.6,1.68,11.96,7.33,14.09,7.37,1.76.03,2.22-2.72,3.5-3.86,1.54-1.37,4.5-1.47,5.01-3.8,0-2.26-5.76-3.34-7.06-4.98,4.43.95,9.61.98,14.2,1.93,5.45,1.13,21.81,5.4,9.66,11.06-17.58,8.19-66.5,6.85-85.55,2.06-18.3-4.6-9.75-10.31,3.02-13.02l12.92-1.44c-11.28,5.57-3.77,4.99-.26,8.76.76.82,1.38,2.88,1.83,2.99,3.77.93,14.88-5.98,16.62-9.41.76-1.51.71-2.34.58-4.1l9.97.59Z"/>
  <path class="cls-13" d="M572.54,220.68c.97,5,1.25,10.09,6.64,12.42,9.25,4,17.39-1.97,20.34-10.66.36,1.28,1.54,1.06,2.53,1.29,5.23,1.2,11.24,1.8,14.99,6.16.98,3.45-4.75,5.23-7.24,6.05-18.57,6.19-71.1,7.02-88.87-.91-9.54-4.26-.96-8.31,4.69-9.95,3.27-.95,6.66-1.3,9.97-2.05,3.02,8.31,11.69,14.58,20.36,9.5,4.66-2.73,5.14-7.05,6.04-11.84h10.56Z"/>
  <path class="cls-13" d="M327.38,221.27c.52,4.63,2.73,9.88,7.31,11.74,9.33,3.79,16.64-1.63,20.26-9.98,10.16.36,33.75,7.58,10.56,13.78-5.55,1.48-11.31,2.02-17.02,2.63-13.04,1.4-24.5,1.31-37.54.59-2.3-.13-4.79.21-7.04,0-6.16-.56-14.01-1.87-20.07-3.68-2.89-.86-10.37-2.51-8.37-6.86,1.64-3.57,15.7-6.28,19.64-6.45.65,1.66,1.96,4.02,3.03,5.47,7.32,9.83,23.09,6.28,24.53-6.05.82-1.95,2.91-1.01,4.69-1.17Z"/>
  <path class="cls-13" d="M79.28,221.27c1.41,7.21,5.7,11.62,13.2,12.3,7.98.72,13.51-2.55,17.3-9.37.39.8,1.26.42,1.76.59,2.44.8,8.92,2.83,9.4,5.61.25,1.46-.55,1.77-.6,2.01-5.32,4.17-13.31,5.49-19.94,6.45-17.08,2.46-63.04,3.74-77.56-4.84-1.05-.62-2-1.23-2.22-2.52-.66-4.59,10.04-6.86,13.51-7.29,6.79,13.68,27.98,13.31,31.09-2.93,4.64.2,9.5-1.64,14.08,0Z"/>
  <path class="cls-13" d="M450.55,221.27c.23.03,1.61.6,1.66.68-.32,3.88,2,10.35,6.29,11.01,1.68.26,3.52-.2,5.2.08,2.16.36,4.8,1.65,7.09,1.59,2-.05,3.88-1.53,5.3-1.62,2.3-.14,4.43,1.78,7.03-.59,3.16-2.89,1.42-5.34.28-8.22,10.38,1.29,22.52,6.68,5.41,12.14-19.18,6.13-66.88,6.1-85.91-.56-2.55-.89-6.31-2.17-6.31-5.4.39-3.83,12.6-6.27,15.85-6.76-.89,2.68-3.39,5.66-.42,8.63,2.41,2.41,5.51.61,7.62.87,1.48.18,3.15,1.61,5.35,1.58,2.06-.04,4.54-1.29,6.56-1.65,1.61-.29,3.38.16,5.1-.18,4.25-.84,7.25-6.82,6.98-10.91.04-.08,1.42-.65,1.65-.68,1.16-.17,4.11-.17,5.28,0Z"/>
  <path class="cls-18" d="M108.82,116.59c-30.21,23.56-90.14,16.03-96.32-27.55-1.9-13.39,1.24-26.57,8.04-38.12.13-1.54-2.88-2.77-3.71-3.7C1.24,29.89,31.59,10.39,40.37,32.61c4.26-.53,8.14-2.83,12.39-3.97,13.76-3.7,28.54-2.4,41.51,3.34,2.49-1.73,2.66-4.61,5.23-7.03,11.61-10.97,30.43,4.01,21.33,18.38-1.05,1.66-5.16,4.44-5.19,5.34,12,19.47,14.9,45.64-1.45,63.62-1.95,2.14-3.36,2.75-5.37,4.31ZM106.09,28.6c-1.42.33-4.86,3.26-4.47,4.75l10.72,9.14c7.37-5.21,3.01-16.02-6.25-13.89ZM26.36,29.76c-7.32,1-9.02,11.43-2.5,14.57l10.2-9.21c-.11-3.61-4.44-5.81-7.71-5.36ZM90.86,70.78c-6.15.79-6.54,12.41,2.67,10.31,5.87-1.34,3.4-11.09-2.67-10.31ZM44.52,71.95c-7.32,1.61-3.28,13.46,3.63,9.5,4.77-2.73,2.5-10.85-3.63-9.5ZM65.65,79.02c-19.73,2.67-21.61,30.08-.73,32.07,10.04.96,21.57-1.92,22.59-13.73,1.12-12.97-9.83-19.96-21.87-18.33ZM100.84,83.71c-1.79.26-5.03,1.27-5.61,3.19-2.57,8.53,18.64,7.93,16.2,0-.92-2.98-7.95-3.56-10.59-3.18ZM31.62,84.87c-9.96,1.69-5.66,10.25,3.3,9.79,12.46-.65,9.37-11.94-3.3-9.79Z"/>
  <path class="cls-19" d="M216.53,37.85c2.87.86,5.56,1.99,8.41,2.88.94-.28,1.9-3.28,2.73-4.35,10.7-13.72,30.85,1.06,23.14,14.33-.96,1.65-6.12,6.02-6.05,6.67,4.74,7.67,8.62,15.44,9.35,24.62-.34,1.52-15.46,3.07-11.83,7.18.39.44,3.41,1.41,3.87,1.41h8.5l-.58,6.45c-5.22.8-10.77-2.1-15.58.55-2.62,3.86,9.67,6.69,12.06,7.35,1.89,1.33-2.03,5.29-2.72,6.79-4.17-2.09-17.05-7.6-9.59,1.99,4.16,5.34,6.65,3.74-.65,9.34-22.52,17.28-63.76,16.1-83.81-4.66l6.45-8.22c-.97-6.02-10.06,2.82-12.26,1.43l-3-6.37c2.65-.39,13-3.77,13.45-6.24.87-4.78-15.35-.94-16.38-1.97v-6.45c.7-.7,13.99,1.72,12.24-4.03l-12.29-4.54c.62-7.36,3.61-13.67,6.78-20.15,1.04-2.13,1.77-2.79,2.65-5.26,1.07-3.02,2.83-4.11,5.68-5.76,3.62-2.09,5.77-.52,6.05-6.55.36-.22,1.26-1.64,1.76-1.76,3.26-.81,2.59-.34,5.87-1.76.2-.09.82,0,1.17,0,.5-.01,3.13,1.41,2.93-1.17,5.57-2.14,11.51-4.02,17.59-4.1l-.59,2.04c-2.36.77-10.26,2.56-11.02,4.82-1.95,5.87,9.38.97,12.22,1.59,2.56,4.33-2.73,3.58-5.7,5.5-.67.44-2.08,1.09-1.91,2.1,1.21,3.17,7.8.6,8.77,1.19,1.97,2.36.77,7.49,5.18,6.09l2.42-6.1c11.57,2.14,10.45-4.07.66-5.57-1.33-7.85,11.18,1.62,13.47-3.75,0-.56-1.33-2.2-1.79-2.64-.96-.91-2.05-1.11-2.91-2.04l.58-1.46,4.68.57ZM235.71,37.98c-1.12.26-4.71,3.2-4.5,4.21,2.72,1.21,7.48,7.38,9.37,8.27,2.05.96,2.95-.39,3.74-2.12,2.91-6.39-1.6-11.96-8.61-10.36ZM178.8,88.64c5.09-4.23-1.33-11.15-6.6-8.05-5.48,3.22.51,13.11,6.6,8.05ZM218.7,80.17c-3.56,1.05-4.23,8.27.75,9.57,8.25,2.14,9.02-12.46-.75-9.57ZM190.72,94.69c-.73-.27-5.01,1.43-6.45,1.76-2.18.5-2.78-.33-3.71,3.03-2.78,10.1,11.22,15.67,17.49,7.55,5.8,7.25,19.04,3.61,17.91-6.2-.11-.96-1.31-3.87-1.91-4.26-.66-.42-1.69.04-2.21-.13-1.62-.52-5.01-2.19-6.45-1.76-.18-5.81-14.27-5.9-14.66,0Z"/>
  <path class="cls-12" d="M92.19,139.22c.84.07,1.66.01,2.49-.14,8.49-1.53,22.3-5.47,27.83-12.18l22.93-1.03c1.09,1.19,1.97,4.99,1.2,6.22-.22.36-6.27,3.17-7.48,3.95-4.69,3.02-12.44,8.21-15.18,12.96-2.11,3.66-1.05,6.96-6.52,5.98-.74-.63-.52-8.51-4.16-7.56.95,12.65,6.91,25.18,3.59,37.87-1.27,4.83-1.41,5.84-6.4,7.09-16.18,4.06-41.19,4.32-57.9,3.09-3.52-.26-21.23-1.95-23.15-3.24-1.54-1.04-3.29-8.59-3.47-10.59-.94-10.41,3.88-20.86,4.59-30.48.06-.8.07-2.36-.86-2.56-1.72-.36-2.61,4.67-2.93,5.85-2.33,8.44-3.17,17.71-4.39,26.38-6.5-1.43-13.39-3.36-18.67-7.42-.92-5.42,1.43-10.27,3.51-15.06,3.76-8.65,8.85-17.73,15.19-24.72l25.77,7.11c4.51-.25,2.3-2.22-.58-3.55-7.32-3.36-24.07-2.83-27.66-11.03-1.56-3.56-1.04-7.39,2.24-9.74,5.25,3.75,10.28,7.96,16.24,10.61,8.87,3.95,15.96,3.5,24.4,9.61,1.8,1.3,6.14,6.07,7.97,6.07,2,0,6.95-5.53,8.82-6.97,9.3-7.21,20.95-8.25,30.97-15.94,3.23-2.48,6.46-8.93,9.42-2.77,7.04,14.69-19.85,15.18-26.46,19.14-1.41.85-1.5,1.33-1.33,3.06ZM81.68,162.03c2.22,1.53,3.99-3.52,4.07-4.98.06-1.07-1.47-3.44-1.7-5.29-.42-3.38.14-8.98-.77-12.12-.67-2.31-2.75-2.22-2.87,1.05-.13,3.69,1.68,9.34,1.26,12.92-.22,1.93-1.82,2.45-1.8,3.47,0,.26,1.6,4.8,1.81,4.95ZM60.7,157.82c-1.28-2.71,1.15-12.92.4-17.13-.14-.77-.57-1.68-1.45-1.47-2.34.55-1.69,14.38-2.03,16.73-.2,1.41-1.27,2.31-1.27,3.48,0,1.41,1.66,5.79,3.81,4.95.98-.29,1.76-5.07,1.55-6.01-.09-.41-.92-.4-1-.56ZM91.9,170.29c-2.6.78,1.27,8.13,2.16,9.55,1.01,1.62,6.66,8.34,8.38,8.03,3.45-.62-4.06-6.93-4.63-7.67-.82-1.08-1.66-2.4-2.22-3.65-.76-1.68-1.22-7-3.69-6.26ZM52.3,170.87c-2.31-1.56-3.73,5.8-4.58,7.43-2.02,3.89-6.14,5.6-7.14,9.56,2.12,2.01,8.3-5.81,9.28-7.43.85-1.42,4.05-8.47,2.44-9.56Z"/>
  <path class="cls-11" d="M272.97,83.69c10.62-3.96,21.8-6.82,33.09-8.26,19.26-2.46,37.85-1.12,56.64,3.6,2.25.56,13.68,3.78,14.49,4.86,5.49,15.14,3.66,33.12-7.28,45.38-24.1,27.01-87.28,23.2-98.21-14.99-2.86-10-2.36-20.85,1.27-30.59ZM303.19,94.21c-6.57.8-5.73,10.67.97,10.41,7.78-.31,6.19-11.28-.97-10.41ZM345.42,94.21c-6.78.88-5.61,10.41.42,10.46,7.6.06,6.01-11.3-.42-10.46ZM327.52,117.99c-.77-.77-.99-3.71-.63-4.75.28-.82,2.81-1.98,3.69-3.35,4.76-7.42-11.19-7.9-12-3.17-.7,4.12,4.02,4.83,4.6,6.51,1.82,5.24-4.04,7.18-7.52,4.58-1.38-1.03-1.86-4.29-4.11-1.73.65,4.45,6.14,6.12,10,5.28,1.3-.28,3.57-1.91,3.78-1.91.36,0,2.56,1.93,4.16,2.15,3.91.53,8.93-2.16,9.04-6.42-3.66-1.03-3.42,2.76-6.28,3.39-1.21.27-3.85.27-4.72-.6ZM290.27,106.56c-1.76.27-5.23,1.71-5.99,3.38-3.19,6.96,16.46,9.13,16.61,1-1.55-3.96-6.82-4.96-10.62-4.38ZM355.99,106.57c-10.53.99-7.99,9.84,1.59,9.84,11.62,0,10.74-11-1.59-9.84Z"/>
  <path class="cls-14" d="M560.69,53.26c24.85-2.53,46.85,10.57,50.98,36.04,5.55,34.28-21.26,48.53-51.73,46.41-18.46-1.29-46.64-12.28-38.29-35.9,2.03-5.75,1.93-4.93,2.81-11.26,2.72-19.71,16.1-33.24,36.24-35.29ZM544.09,87.38c-6.3,0-7.22,9.7,0,9.71s6.43-9.71,0-9.71ZM581.16,87.78c-4.94,1.47-3.36,11.24,3.72,8.99,5.71-1.81,3.64-11.18-3.72-8.99ZM532.5,98.94c-7.52,1.26-6.86,7.47.59,8.51,11.86,1.66,11.5-10.54-.59-8.51ZM558.76,99.39c-1.18.33-1.18,2.59,0,2.92,2.7.76,2.7-3.67,0-2.92ZM567.84,102.31c.69-3.23-2.78-4.37-2.92-.88l2.92.88ZM589.98,99.52c-8,1.48-4.71,9.84,4.5,8.6s5.41-10.43-4.5-8.6ZM546.74,107c-.24,5.76,6.07,4.49,9.53,5.41,2.05.54,3.24,3.34,6.03,3.42s4.7-2.68,7.27-3.32c3.44-.85,8.84.05,10.62-4.05l-1.41-1.41c-3.24,2.94-7.26,1.74-10.93,3.17-1.71.66-3.15,2.65-4.98,2.68-2.47.04-4.2-2.73-6.14-3.3-1.75-.51-3.53-.09-5.35-.52-1.97-.46-2.61-2.26-4.65-2.09Z"/>
  <path class="cls-23" d="M637.19,77.83c7.38-1.96,14.91-3.85,22.53-4.74,20.4-2.36,43.86-.48,63.55,5.49,1.6.48,7.01,1.92,7.51,3.04.42.93,1.19,6.72,1.28,8.1,1.49,22.71-13.13,41.02-35.06,45.82-37.53,8.21-71.97-18.21-59.81-57.71ZM657.42,86.02c-5.98,1.32-3.52,10.47,2.08,9.73,6.14-.81,5.25-11.36-2.08-9.73ZM701.98,87.84c-4.72-4.21-11.83,2.69-6.88,7.17s11.9-2.7,6.88-7.17ZM676.22,94.8c-1.47.2-10.27,4.8-11.79,5.84-3.88,2.66-6.48,7.99-4.53,12.54,1.54,1.14,4.73-2.27,6.11-2,.54.1,4.54,3.9,7.09,4.63,7.58,2.16,17.98-2.09,17.37-10.86-.3-4.27-10.01-10.73-14.25-10.15ZM645.7,97.17c-1.49.27-4,1.73-4.43,3.21-2.15,7.25,17.4,7.15,14.61-.14-1.41-3.68-6.89-3.67-10.18-3.07ZM705.53,98.35c-1.58.26-3.77,1.12-4.3,2.77-2.53,7.94,18.78,7.58,15.3.03-1.49-3.23-8.03-3.29-11-2.8Z"/>
  <path class="cls-23" d="M739.11,167.35l-4.98,6.45c-6.34,4.56-16.2-1.69-22.59-3.52-1.02-1.83-2.15-3.53-3.04-5.46-.94-2.03-1.39-7.23-4.32-5.1-1.2,1.71,3.9,11.62,5.12,13.67,3.05,5.13,7.49,10.07,12.25,13.67-9.05,24.73-50.52,27.02-66.62,9.01-12.52-14-8.75-31.94-4.98-48.64l2.93-5.86c2.49,5.1,5.95,10.35,9.67,14.66,1.52,1.76,11.32,11.33,12.83,11.04,4.11-4.31,9.87-6.13,14.85-9.18,6.77-4.15,14.91-9.07,20.15-15.03,3.82-4.35,4.65-10.66,10.83-4.99,6.84,6.27,14.98,20.48,17.89,29.29Z"/>
  <path class="cls-1" d="M591.75,134.04l2.34,1.37c-4.89,7.35-3.12,23.14,3.72,28.67,1.39,1.12,4.34,2,4.64,3.57.95,5.04-.43,14.72-1.93,19.76-9.12,30.73-55.25,32.43-66.71,2.52-6.71-17.5-2.49-38.53,7.94-53.67l.54-.36c16.21,3.45,33.86,4.81,49.45-1.87ZM564.33,153.29c-.72-.73,2.87-9.78-1.8-7.86l-1.14,7.86-15.62-2.91c-1.95-.38-2.95,2.08-.97,2.78,4.53,1.61,11.72,1.7,16.59,2.47l-.59,16.99-24.33-3.52c-.5,0-.39,1.25-.29,1.47.89,2.01,21.36,4.7,24.63,4.39l.58,16.41-17-2.34.07,1.98c.31.91,6.49,1.84,7.93,2.04,3.15.45,6.4.76,9.6.66l1.3,9.24,2.51.73-.87-9.97c5.32-.1,14.39.16,19.2-2.21,1.7-.84.8-2.42-1.13-2.36-3.4.1-15.52,3.76-18.1,1.97l-1.73-16.15c8.03-.19,20.76,0,28.15-3.22,2.76-1.2,2.12-2.84-.72-2.51-4.66.53-9.87,2.2-14.89,2.74-4.14.44-8.37.74-12.54.66l1.17-17c2.37.63,19.11-1.68,19.39-2.67l-.03-2.01-19.36,2.34Z"/>
  <path class="cls-12" d="M227.08,133.37v10.25c0,6.37,4.64,12.82,8.79,17,.23,9.87,2.25,19.64,1.71,29.52-25.75,4.8-52.74,5.05-78.45-.02-.01-4.34-.28-8.76-.07-13.1.16-3.5.85-14.06,1.88-16.87.49-1.33,2.15-1.64,3.08-2.79,2.1-2.59,5.59-12.28,5.59-15.51v-9.08c1.87,1.51,7.16,1.75,8.55,2.89.6.49,3.12,5.3,4.37,6.76,11.04,12.91,29.43,8.19,35.51-6.68l9.05-2.39Z"/>
  <path class="cls-12" d="M443.51,196.07c-11.2-.19-22.57-.96-33.44-3.8-.61-3.24-2.34-6.99-2.77-10.12-1.4-10.21,3.3-20.62,3.95-30.62-4.36-1.14-2.95,6.67-4.98,8.79l-8.2,2.94c-.64-.07-4.49-3.42-5.26-4.15-.59-.56-.74-1.76-1.54-2.56-2.11-2.12-7.96-4.34-9.67-6.16-4.72-5.01,9.89-8.12,12.86-9.48,6.05-2.77,11.81-7.25,18.8-8.17,2.17,5.66,5.05,12.18,9.15,16.72,5.35,5.93,5.51,1.97,10.97,1.04,3.36-.58,7.35-.09,10.13,1.91v43.66ZM423.96,172.13c-2.04.55-8,9.12-10.99,10.13l.02,2.4c.78.54,1.58.34,2.36-.02,1.03-.48,6.27-6.27,7.62-7.63,1.2-1.2,3.63-1.63,2.89-4.02-.26-.86-1.05-1.09-1.91-.86Z"/>
  <path class="cls-12" d="M451.72,152.12c3.51-1.46,6.83-2.36,10.71-1.62,2.57.49,5.47,3.37,8.28,1.56,1.18-.76,7.56-10.28,8.46-12.05.69-1.35,2.59-7.56,3.38-7.76l11.29,4.15c-.17,6.06,4.66,11.64,9.29,15.04,3.32,2.44,7.34,3.42,10.7,5.73-.8,2.29-4.81,9.72-7.22,9.6-1.61-.08-15.53-5.12-16.77-6.16-2.06-1.72-1.83-10.02-4.99-9.07-.82.55-.91,1.03-.87,1.97.13,2.98,2.16,8.1,2.74,11.38.7,4.02,1.95,10.67,1.87,14.54-.08,4.08-2.49,8.86-3,12.99-11.11,2.29-22.49,3.9-33.89,3.65v-43.95ZM482.8,184.93c.16-1.09,0-1.73-.55-2.66-1.82-3.1-8.41-6.52-10.59-9.97-1.21-.61-2.85.87-1.79,2.4.94,1.36,9.37,9.45,10.62,9.91.78.29,1.48.45,2.31.32Z"/>
  <path class="cls-16" d="M457,68.32c.98,1.06,3.21.55,4.69.59.58.01,1.18-.04,1.76,0,1.92.45,2.37,2.84,4.08,3.27.88.22,1.78-.38,2.52-.2,3.7.9,6.4,3.06,10.41.45,2.25.59,5.86,2.08,7.62,2.34.14,1.08.69,1.99,1.17,2.93-1.76-.57-1.35,2.43-1.18,3.1.19.77,3.12,1.14,2.1,2.77-.68,1.28-9.46,5.07-11.37,4.77l-1.27,4.59c2.85-.78,3.39,1.34,5.08,2.26,2.32,1.26,10.67,5.03,10.76,7.71.11,3.39,1.4,4.34,1.76,7.62-7.44,2.71-6.21-3-8.5-5.29-.78-.78-1.87-.43-2.05-.56-2.91-2.1-1.99-2.71-6.45-2.93-.14-2.12-2.68-1.36-3.66-3.66-.9-2.11.14-6.4-2.35-7.92-.59-.36-1.18-.03-1.61-.13-.33-.08-.79.04-1.17,0v-1.76c-2.08-.11-3.05-.48-3.52,1.76-.66.11-1.16.36-1.76.59-.27.1-.9-.17-1.32.02-2.12.99-2.74,5.08-5.16,6.69-1.53,1.02-4.11,1.69-5.84,2.66-1.18-.22-3.94-.09-5.28,0-1.19-4.02-2.44-.56-2.65-.56-1.08.03-2.29-1.67-4.03-1.16-2.06.61.21,2.32.22,3.47,0,.71-.77,1.93-.59,3.52-1.75.8-4.62,2.01-6.45.88-.23-.14-3.4-3.76-3.42-4.19-.04-1.58,1.71-1.51,2.11-2.11.38-.55,0-1.33.13-1.61.16-.38.52-.85.59-1.17l2.34-.88c-.15-1.71,4.03-.91,4.63-1.54.24-.26-.04-1.75.6-2.62,1.33-1.8,6.05.69,2.06-3.71-4.49,2.55-6.65,2.04-11.38,1.71-3.22-.23-3.91-1.2-7.04,1.17-2.26-1.5-.58.46-.59.59-.09,1.24-.94,2.74-.59,4.1-2.32.19-4.39,3.25-5.28,5.27-1.81.11-5.61,1.68-6.35,3.35-.28.63.01,1.72-.11,1.92-.05.08-1.21.03-1.8.82-.69.94-.4,2.23-1.39,3.31-1.42,1.55-3.77.88-5.37,0l-.24-4.72c.22-.47.16-1.27.59-1.76,2.18-1.27,4.97-3.78,6.76-5.84.74-.85,1.41-2.77,1.54-2.85,1.17-.72,7.18.19,7.41-2.86s-4.28-5.78-6.05-7.77c-1.55-1.73-6.15-8.93-3.21-10.56.18-.05.41.05.59,0l1.17-.59c.18-.05.41.05.59,0l1.17-.59c.33-.09.84.09,1.17,0,1.87,1.87,4.56,1.97,2.99,4.94l.5.65,3.47.35c.12,4.22,4.53,1.31,5.22-1.09.84-2.93-.58-5.07-1.04-7.78.36-.07.81.06,1.17,0l2.35-.59c.38-.05.79.04,1.17,0,.94-.03,2.43.36,2.93-.59.56,0,1.26-.09,1.76,0,2.39.42,5,2.41,7.89,2.37,5.22-.08,8.59-2.21,12.64-2.95.67-.12,1.59.05,2.35,0ZM414.76,80.63c-.93-.93-2.68.82-1.75,1.75s2.68-.82,1.75-1.75Z"/>
  <path class="cls-11" d="M444.09,39.61c.26.28-.06,1.65,2.35,1.76.07.16-.06.41,0,.59.1.27-.08.81,0,1.17,3.19.72,6.7-1.89,6.46-5.27h.59c2.55.74,2.32,3.54,4.76,4.41,1.41.5,1.26-.19,1.69-.31.18-.05.41.05.59,0l1.17-.59c2.43-.46,5.82-1.18,8.22-.3,1.59.58.11.77-.15,1.03-1.07,1.07-2.07,1.1-1.62,3.37,3.85-1.08,8.27,2.77,11.12,3.26.51.09,3.58-1.96,5.6-1.97,8.71-.07,11.05,7.16,15.31,12.73,1.68,2.19,3.38,4.33,4.93,6.5-.58,2.69-.94,5.14-.13,7.85l-4.03,2.52.05,4.28c-2.6.16-3.96-2.78-6.43-3.29-1.42-.29-2.19.4-2.95.36-.48-.02-1.55-.75-2.31-.62-.34-1.12.25-1.96.55-2.9,1.09-3.33,1.38-3.21.3-7.04-1.79-6.36-3.66-7.66-9.57-9.78-19.31-6.93-42.19-6.69-61.83-1.18-2.27.64-7.33,2.04-9.1,3.21-3.15,2.1-7.28,11.31-4.67,14.61,1.48,1.88,2.4.59,3.93.17-2.94,1.63,1.67,8.83,3.21,10.56,1.77,1.99,6.3,4.58,6.05,7.77s-6.24,2.13-7.41,2.86c-.14.09-.81,2-1.54,2.85-1.78,2.06-4.58,4.58-6.76,5.84l-1.95-1.68-2.15,1.68c.14-2.18.57-4.55,1.3-6.61s4.55-6.97,4.57-7.76c.03-1.4-1.33-1.81-2.35-.87.88-4.16.83-5.84,2.93-9.96.22-.43.96-.9,1.16-1.47v-.87s-.87,0-.87,0c-.48.24-.6.84-.89,1.17-.42.49-.8,1.19-1.17,1.76-.61-1.15-1.91-.44-2.77-.13-3.25,1.17-7.28,3.66-10.71,3.99-1.09.11-1.72.07-2.36-.93.31-2.11.19-3.9,1.15-6.1-.42-1.32-2.74-.78-2.92-.94-2.41-2.23,8.16-13.37,9.63-15.28,4.36-5.66,6.46-13.25,15.3-13.1,3.23.06,3.43,1.54,4.82,1.94,1.49.43,4.22-1.83,6.15-2.44s4.29-.94,6.34-1c.38-2.32-.75-3.22-2.93-3.52-.16-.76,1.09-.94,1.6-1.02,4.31-.67,7.48.54,11.52,1.57l.95-1.4-1.76-4.42c2.9.57,4.93.65,7.03,2.93Z"/>
  <path class="cls-12" d="M326.79,164.72c.57-2.18,5.27-5.37,7.48-6,6.61-1.87,10.25,1.09,15.69,1.07,8.25-.03,4.96-10.53,3.22-15.28,1.61.07,3.66-1.72,4.99-1.72.8,0,6.33,2.41,7.54,2.97,4.04,1.86,9.2,4.62,13.09,6.85,1.98,1.13,10.04,5.37,10.13,7.4.08,1.71-7.03,16.44-7.95,16.65-3.98-1.35-8.09-2.64-11.94-4.34-1.33-.59-5.88-2.52-6.66-3.16-.48-.39-1.88-9.7-4.23-5.9-.45.73,1.75,8.08,2,9.74.47,3.13,1.29,8.68,1.29,11.65,0,3.48-2.39,7.37-2.74,10.91-10.35,2.86-21.18,3.66-31.91,3.45v-34.28ZM355.34,186.87c-2.02-2.32-6.04-4.77-8.03-7.5-.77-.62-2.73-.33-2.93.59-.17.79,7.27,8.78,8.82,9.35,2.46.9,3.8-.53,2.13-2.44Z"/>
  <path class="cls-12" d="M323.27,199c-10.81.09-21.72-.88-32.18-3.59.56-2.61-1.19-4.22-1.67-6.24-2.05-8.65,1.48-17.39,2.52-25.94l-2.64-.51c-1,2.28-.51,5.41-2.76,6.91-1.85,1.23-12.61,5.68-14.87,6.24-.7.17-1.3.44-2.06.33-2.58-.4-8.85-13.99-8.57-16.74.09-.94,1.9-1.88,2.82-2.52,4.47-3.15,12.7-7.37,17.76-9.79,1.78-.85,9.51-4.52,10.83-4.39.39.04,3.85,1.93,3.9,2.14-1,5.22-4.12,15.27,4.32,14.88,6.54-.31,9.54-3.41,17.15-.13.96.41,5.46,3.94,5.46,4.5v34.87ZM303.15,179.17c-.9.26-9.22,8.02-9.23,8.98.68,2.83,2.89.87,4.4-.31,2.57-2,4.83-5.16,7.35-7.32-.08-1.44-1.29-1.71-2.52-1.36Z"/>
  <path class="cls-11" d="M483.39,196.07l1.17,12.89-2.34-.58.5,9.01-2.27.61c-2.77,2.4,2.35,11.03.84,12.12-2.02,1.47-4.76-.76-6.31-.49-.71.12-1.48,1.23-2.55,1.48-1.61.38-10.46-.79-12.75-1.1-2.44-.34-4.21-3.88-4.4-6.18-.22-2.53,2.4-7.41-2.37-5.49-.3-.37.12-5.32.56-6.04.52-.84,5.48-1.16,3.79-3.94-.98-.75-6.62,1.71-8.79,1.79-3.11.1-6.26-1.65-8.84-1.75-4.35-.18-.22,4.06,2.66,3.55l.65,6.09c-5.6-1.3-2.53,2.81-3.07,6.31-.23,1.46-1.57,4.64-2.94,5.28l-14.7,1.49c-1.94-3.34-6.38,1.1-8.09-1.47-1.4-2.11,1.43-4.33,1.78-6.36.47-2.66.58-6.76-2.9-4.96l.58-9.96-2.34.58.58-12.89c23.53,4.07,48.06,4.34,71.55,0Z"/>
  <path class="cls-11" d="M359.64,52.5c-.43.95-1.43,3.13-1.63,3.95-.88,3.71,3,3.15,4.56,6-4.34-.8-8.55-2.38-12.88-3.24-13.23-2.62-28.49-3.01-41.88-1.37-6.68.82-13.08,3.08-19.72,4.02,1.11-1.54,4.34-2.6,4.12-4.93-6.61-12.88-15.75-30.68-12.06-45.47,2.6-10.44,12.67-10.73,18.98-3.1,8.63,10.44,10.74,28.73,12.43,41.79.54.56,11.83-1.22,13.78-1.22,2.41,0,11.38,1.89,12.65.97,2.3-11.63,5.29-40.14,17.74-45.56,6.56-2.85,11.45-.52,13.48,6.09,3.74,12.18-2.83,28.05-7.8,39.14h-2.94c.07-1.35-.09-2.75,0-4.1.32-4.6,2.96-9.6,3.45-14.43.55-5.4,1.05-15.52-7.4-12.08-5.93,2.41-11.13,24.51-11.21,30.8.35,1.47,7.91,3.62,9.58,5.1.63-1.93,2.33-2.98,3.24-4.7,1.68-.21,2.77.99,3.52,2.34ZM291.45,18.03c-.77.16-1.68.76-2.21,1.35-3.9,4.41.51,20.28,2.5,25.66.68,1.85,3.05,7.54,4.04,8.86.38.51.59,1.02,1.37.95l9.46-4.1c-.69-7.78-1.91-15.76-5.31-22.87-1.66-3.46-5.36-10.77-9.84-9.85Z"/>
  <path class="cls-18" d="M113.3,194.9c-1.43,8.88-2.65,21.96-7.51,29.7-3.72,5.94-12.53,7.66-18.5,4.19s-5.17-13.37-6.21-19.48l5.24-3.01c.18-.84-.71-1.4-1.46-1.48-1.14-.12-6.94,1.65-9.36,1.81-5.53.36-11.08-.2-16.38-1.75l-.97,1.43c-.01,2.4,4.56,2.3,4.75,2.99-.19,9.08.36,19.66-11.04,21.17-17.98,2.38-18.82-22.19-20.67-34.42,27.13,4.06,55.18,4.5,82.11-1.17Z"/>
  <path class="cls-22" d="M181.34,196.65c8.57,9.37,26.24,8.66,34.6-.59,6.5-.4,12.87-.93,19.36-1.76l-.66,7.54c-.56.87-17.19,1.78-11.31,5.89,2.76,1.93,13.17-.29,9,5.58-1.51,2.13-9.67.42-10.83,2.67-1.63,3.14,5.93,4.46,7.95,4.7-1.79,11.64-19.46,14.36-23.49,2.66-1.29-3.75-.51-12.97-2.57-14.43-1.32-.94-10.04-.99-10.94.43s-.76,10.92-1.88,14.39c-2.2,6.84-10.59,8.48-16.66,5.84-4.05-1.76-5.46-5.14-7.22-8.89,1.99-.31,9.25-1.53,8.69-4.31-.46-2.28-8.84-1.96-11.01-2.17l-.62-5.24c2.15.45,11.62-.32,10.54-3.77-3.47-2.54-8.25-2.14-12.24-3.33l-.65-7.56,19.94,2.35Z"/>
  <path class="cls-11" d="M330.37,213.12l4.57-1.28-.83-2.88c-3.56,1.56-7.75,2.04-11.65,1.69-1.91-.17-8.81-3.15-7.91.28.56,2.15,5.13,1.87,5.23,2.48-.07,7.35-.19,17.29-9.8,17.6-14.14.46-14.59-21.56-16.62-31.42,20.92,3.19,42.6,4.46,63.33-.59-1.65,9.37-3.02,32.59-16.56,32.07-9.84-.38-10.07-10.31-9.77-17.95Z"/>
  <path class="cls-16" d="M455.82,102.9c2.03.21,1.43-3,3.34-3.43.75-.17,1.58.43,2.23.37,1.26-.11,2.79-.78,4-.48.51.13.74,1.25,1.27,1.78,1,.99,2.66.81,1.99,3.11-.75,2.58-5.01,1.96-6.97,2.44-2.3,2.57,2.67,2.75,4.52,3.71,2.39,1.24,3.53,3.19,6.52,3.5,3.25.34,6.69-3.63,10.42-.48,1.44,1.22.13,1.97.28,3.21.04.32,1.45,4.73,1.69,5.35.65,1.7,3.96,3.9-1.12,4.35-.22.02-1-.89-1.76-.34-.32.23-1.25,1.99-1.76,2.69-3.96.82-10.44-3.42-12.64,1.78-.46,1.09.29,1.83.18,2.54-.16,1.02-2.77,1.96-2.2,3.88-.44.33-.89.4-1.17.59-2.44.77-3.66-.94-5.28-1.46-5.15-1.65-13.3.97-18.93.18-.9-.13-1.62-1.06-3.04-1.09-2.45-.05-3.85,1.62-5.59,2.96-1.19-.63-1.97-.83-3.21-1.78s-3.45-4.07-4.69-4.07c-.48,0-.79.57-.9.57-2.21.13-2.9-.76-1.68-2.58.45-.66,2.93-1.61,1.61-3.22-1.23-1.5-14.26-2.49-16.94-4.16-.6-1.81-.43-2.42-.59-4.1,1.18-.19,4.57-.82,5.29-1.45,1.39-1.21-.91-3.4,3.61-4.59,3.6-.94,5.95.92,9.11-.28,2.82-1.08,3.39-2.94,4.57-5.4,3.67,2.28,9.13,4.01,13.19,1.75h.59c.69,1.88-3.47,4.14-4.67,4.44s-1.56-.47-3.54.25c-.23.08-.8-.21-1.07.1-.34.49.03,1.31-.1,1.66-1.4,3.74-4.83,5.21,1.14,6.77,1.98.52,4.81-.42,5.31,2.3-.18.72-2.94,1.07-2.34,2.93.72,1.36,2.54.53,3.39,1.01.49.28.93,2.2,3.24,2.96,2.02.66,2.05-.6,3.92-.74l.87,1.75,2.1-3.19c-1.46-3.82-5.69-2.24-8.83-2.08.06-1.64,1.25-3.34,2.92-3.53l-1.17-2.92c.81-.15,2.56-1.31,3.52-1.76,2.51.25,2.98,5.59,5.03,6.4l1.12.06c.71-1.74,4.92-1.64,6.97-2.32,1.45,3.61,2.37,2.16,4.48,3.18,1.08.52.73,2.28,2.03,2.08,5.29-3.03,1.66-4.13-2.62-2.96-.72-2.96,1.55-6.5-.59-8.79.24-.48.79-2.56.56-2.89l-2.29-.62c-.06,1.1-.54,1.58-1.2,2.34-3.34.63-7.28-1.8-7.62-5.27,1-.75,2.44-2.6,2.93-2.93.68-.45,2.36,1.16,1.76-2.34h-1.17c0-.52.11-1.39,0-1.76ZM479.87,116.96h-2.34s0,1.75,0,1.75c1.08.14,1.72.04,2.34-.88v-.87ZM471.66,123.41h-1.17v1.17h1.17v-1.17Z"/>
  <path class="cls-9" d="M377.23,80.04c-23.82-7.55-48.55-11.13-73.52-7.53l-30.88,7.23c1.87-4.98,3.11-9.34,8.23-11.7,22.3-10.29,67.77-11.29,89.36.94,3.55,2.01,5.24,7.38,6.81,11.06Z"/>
  <path class="cls-13" d="M201.86,220.68c.81,6.39,5.39,12.13,12.02,12.89,9.26,1.06,14.01-2.33,18.48-9.96,2.22-.1,4.36.59,6.45,1.17,3.5.97,5.64,2.23,8.8,3.52,4.81,6.02-7.5,8.29-11.62,9.19-20.62,4.51-56.47,4.67-76.94-.4-.98-.24-2.42-.42-2.93-.59-.74-.23-6.33-3.08-6.72-3.54-.51-.6-.8-1.31-.91-2.09-.21-4.08,12.45-6.83,15.84-7.27,4.12,8.27,11.21,12.15,20.42,9.56,6.59-1.85,8.49-6.21,9.49-12.49h7.62Z"/>
  <path class="cls-22" d="M149.75,134.04c8.79-3.42,17.66-10.3,16.91,4.89-.2,4.06-2.57,14.51-5.9,16.96-2.35,1.72-14.21,7.48-17.25,8.55-5.64,2-13.07,3.5-16.99-2.38-4.33-6.5.04-12.91,5.33-16.92,1.4-.24,6.92,8.05,9.63,6.15,2.08-1.46-2.71-8.85-3.5-10.59l3.87-2.55c1.27-.21,6.34,8.23,8.67,7.54,3.01-.89-1.8-10.01-.77-11.63Z"/>
  <path class="cls-14" d="M596.07,137.54c1.79-1.16,12.25,4.47,14.4,5.69,7.36,4.17,24.19,15.49,20.18,25.64-1.95,4.94-7.74,4.1-11.89,3.01-3.53-.92-16.19-7.89-18.96-10.36-5.95-5.31-6.84-16.96-3.72-23.97Z"/>
  <path class="cls-23" d="M723.27,64.22c-10.37-3.49-21.02-6.08-31.97-7.02-14.32-1.23-29.6-.24-43.47,3.44-.75.33-1.08-.16-.8-.8,1.5-3.42,20.08-13.77,23.68-13.06,1.27.25,2.57,3.72,5.05,2.21,1.25-1.79-5.76-5.52-4.69-8.2,2.93-1.65,7.98,3.36,9.62,2.9,2.68-.75-1.9-6.32-2-7.89-.3-1.62,2.2-.83,2.91-.56,4.97,1.94,8,8.76,10.4,10.12,2.13,1.2,8.25,2.13,11.31,3.35,7.62,3.02,15.31,8.81,19.95,15.51Z"/>
  <path class="cls-9" d="M725.62,68.91l-.59,1.76c-1.65-.61-11.64-3.62-12.32-2.93l.34,1.81c2.07.78,4.7.93,6.69,1.7.08.27.32.53.59.59.36.08.88-.1,1.17,0l.59.59c.17.06.42-.06.59,0l.58,2.34h-1.17c-.28-.1-.82.08-1.17,0-.05-.28-.32-.56-.59-.59-9.6-.91-19.28-3.8-29.04-4.68-18.23-1.65-36.72.19-54.24,5.27.89-4.31,2-8.1,6.32-9.79,20.19-7.9,63.2-6.79,82.24,3.93Z"/>
  <path class="cls-12" d="M670.48,146.84l-.08-2.26c-5.22-1.3-9.35-5.02-12.23-9.45,4.29,1.24,8.44,3.06,12.87,3.83,10.94,1.91,22.28,1.09,32.87-2.08.35,1.59-.48,1-1.16,1.45-4.27,2.81-8.52,5.36-13.49,6.76-.17,1.06.46,1.65,1.46,1.76,3.6.39,13.26-6,16.14-8.5,2.16-1.88,3.3-5.02,6.44-5.57.51.52-1.97,4.15-2.45,4.87-3.59,5.36-11.45,11.22-16.95,14.71-6.11,3.89-13.03,6.74-19.03,10.9-4.88-3.17-9-7.48-12.49-12.13-1.83-2.43-11.36-16.73-9.49-18.93,1.15-.23,1.4.53,1.88,1.34,1.05,1.79,1.28,3.36,2.83,5.38,3.11,4.06,7.8,7.09,12.88,7.92Z"/>
  <path class="cls-22" d="M245.29,145.65c3.56,1.08,7.66-7.66,8.96-7.54l3.89,2.63c-.6,1.79-4.95,8.55-2.95,9.95,3.82,1.12,5.85-3.72,8.62-5.54,2.35.89,4.26,2.76,5.47,4.93-.05.59-8.71,4.75-10.11,6.12-.87.85-1.05,2.18-2.16,3.28-.68.67-5.01,4.31-5.49,4.27l-16.07-7.7c-5.42-7.05-5.8-16.02-5.46-24.6,4.73-4.58,11.9.79,16.76,3.1.99,1.89-3.56,8.34-1.48,11.11Z"/>
  <path class="cls-14" d="M537.94,136.89c-4.18,6.33-7.17,13.21-9.15,20.54-9.03-.61-30.79-8.5-31.36-19.07-.74-13.66,21.58-4.22,28.66-2.83,3.88.76,7.89,1.44,11.85,1.35Z"/>
  <path class="cls-23" d="M651.13,138.64c-2.26,1.37-2.18,4.86-2.93,7.03-.06.18-.69.56-.88,1.15-1.21,3.8-2.46,7.73-2.64,11.75-.86.88-10.6-3.37-12.31-4.11-5.28-6.95-13.67-20.62-3.52-26.96,7.02.72,13.81,2.32,20.54,4.38.56.48,1.21,5.39,1.75,6.75Z"/>
  <path class="cls-14" d="M575.56,213.73c9.79-2.14,17.34-7.51,23.37-15.32-.03,9.29-.35,32.84-13.78,32.81-10.14-.02-9.4-10.01-9.59-17.49Z"/>
  <path class="cls-14" d="M536.18,200.76c5.95,7.21,14.34,11.38,23.47,13.19-1.25,4.08-.27,9.65-2.44,13.38-3.04,5.21-11.85,4.74-15.42.34-2.18-2.69-5.61-13.34-5.61-16.66v-10.25Z"/>
  <path class="cls-4" d="M739.11,167.35c1.62,4.89,4.66,17.6,1.71,21.93-3.16,4.65-14.04-1.96-17.24-4.36-5.76-4.33-8.61-8.49-12.04-14.63,6.39,1.83,16.25,8.08,22.59,3.52l4.98-6.45Z"/>
  <path class="cls-22" d="M170.78,40.78c-3.27,1.41-2.6.95-5.87,1.76-6.35-11.09-20.55.14-10.77,8.75,3.26-2.62,5.36-4.78,9.01-6.99-.28,6.03-2.44,4.46-6.05,6.55-2.85,1.64-4.6,2.73-5.68,5.76-7.46-4.02-10.43-12.77-4.93-19.87,7.32-9.46,20.24-6.68,24.29,4.05Z"/>
  <path class="cls-11" d="M470.49,90c.43.1,1.02-.23,1.61.13,2.49,1.52,1.45,5.81,2.35,7.92.98,2.31,3.52,1.54,3.66,3.66-2.9-.14-9.43.37-8.11,4.85s15.3,4.77,14.56-1.92c.19.13,1.27-.22,2.05.56,2.29,2.3,1.06,8,8.5,5.29.1.87.04,2.02,0,2.93-2.78-.11-2.71,1.51-3.52,2.34-.08.08-.97-.25-1.37.7-.77,1.82-.4,4.73-1.4,7.38s-4.8,8.85-4.86,2.47c5.09-.45,1.77-2.65,1.12-4.35-.24-.62-1.66-5.04-1.69-5.35-.14-1.24,1.16-2-.28-3.21-3.73-3.15-7.17.82-10.42.48-2.99-.31-4.13-2.26-6.52-3.5-1.85-.96-6.82-1.14-4.52-3.71,1.96-.48,6.22.14,6.97-2.44.67-2.3-.99-2.12-1.99-3.11-.53-.53-.76-1.65-1.27-1.78-1.21-.3-2.74.37-4,.48-.65.06-1.47-.54-2.23-.37-1.91.42-1.31,3.63-3.34,3.43-.28-.91-3.23-2.76-4.11-2.93,1.72-.97,4.3-1.64,5.84-2.66,2.41-1.61,3.03-5.7,5.16-6.69.42-.2,1.05.08,1.32-.02-6.69,12.42,15.28,11.15,6.45-.59Z"/>
  <path class="cls-11" d="M422.39,95.86c.83,3.18,6.81,4.79,9.38,2.34-.12.28.25,1.06-.13,1.61-.41.6-2.16.52-2.11,2.11.01.43,3.19,4.05,3.42,4.19,1.84,1.13,4.7-.07,6.45-.88.17,1.46.98,2.38,1.76,3.52-4.06,2.26-9.52.52-13.19-1.75-1.18,2.46-1.74,4.32-4.57,5.4-3.16,1.21-5.51-.66-9.11.28-4.53,1.19-2.22,3.37-3.61,4.59-.72.63-4.11,1.26-5.29,1.45-.63-6.56-3.7-.27-4.1-.59-1.55-4.18-1.27-8.33.58-12.3l.24,4.72c1.6.88,3.95,1.55,5.37,0,1-1.09.7-2.37,1.39-3.31.59-.8,1.75-.74,1.8-.82,2.86,3.54,7.03,4.15,11.27,2.76,8.51-2.8,1.75-8.44-4.82-8.04.89-2.02,2.96-5.09,5.28-5.27Z"/>
  <path class="cls-11" d="M505.09,195.49c-1.47,4.05-5.71,3.53-9.13,4.65l-.11,1.68c1.12.08,1.17.14,1.01,1.28l-9.9-.65c.26-1.83-.79-3.89-.71-5.52.15-3.43,5.28-4.29,7.5-5.45,5.01-2.61,8.76-4.85,12.21-9.47,1.8,1.99.85,6.27-.38,8.4-1.1,1.9-5.44,4.59-.5,5.07Z"/>
  <path class="cls-22" d="M183.1,136.89c10.13,1.5,20.42,1.81,30.48-.3-4.93,13.36-25.48,13.73-30.48.3Z"/>
  <path class="cls-4" d="M628.84,127.51c-10.15,6.33-1.76,20.01,3.52,26.96-1.08-.46-2.19-.32-3.72-1.27-7.37-4.57-7.53-12.05-12.14-18.8-1.23-1.8-3.94-4-5.25-6.01-.09-2.51,15.64-1.08,17.58-.88Z"/>
  <path class="cls-6" d="M505.09,65.98c.95,1.32,2.28,2.09,3.25,4.08.76,1.57,1.49,3.19,1.46,4.99l-2.91,1.25c.94,3.78,2.25,7.36,1.72,11.35-1.63-.07-2.36-1.58-4.04-.52-.26,1.32.09,2.72-.06,4.04l-4.66-2.09-4.14-3.77c-.71-2.45-3.44-5.01-4.11-7.62.76.04,1.53-.66,2.95-.36,2.47.51,3.83,3.45,6.43,3.29l-.05-4.28,4.03-2.52c-.81-2.71-.45-5.16.13-7.85Z"/>
  <path class="cls-28" d="M532.65,200.17c-9.47-10.69-11.03-26.74-9.37-40.43l4.6,1.54c-1.15,9.8-.63,17.77,2.13,27.18,1.19,4.06,4.06,7.3,2.64,11.71Z"/>
  <path class="cls-11" d="M489.25,77.7c1.55,3.05,2.69,4.65,3.52,8.2l-3.43,1.84c-.73,2.55,1.58,4.35,2.35,6.59l4.02,3.29c.07.16-.06.41,0,.59l.59,1.76c.04.18-.04.4,0,.59l.59.59c.07.49.05,1.25,0,1.76h-3.52c-.09-2.68-8.44-6.45-10.76-7.71-1.69-.92-2.23-3.04-5.08-2.26l1.27-4.59c1.91.3,10.69-3.49,11.37-4.77,1.02-1.63-1.9-2-2.1-2.77-.17-.67-.58-3.67,1.18-3.1Z"/>
  <path class="cls-6" d="M215.94,196.07c-8.36,9.25-26.04,9.95-34.6.59,11.53.08,23.12.13,34.6-.59Z"/>
  <path class="cls-6" d="M403.04,79.46c-1.96,2.96-4.38,7.53-2.93,11.13-.75,1.28-1.6,2.56-2.27,3.88-.61,1.18-1.24,5.23-2.69,4.9-4.23-3-4.01-7.66-4.69-12.32-1.56-1.69-2.1,1.49-3.83,1.19-.48-2.15.33-4.11.58-5.86.64,1,1.27,1.04,2.36.93,3.43-.33,7.46-2.82,10.71-3.99.86-.31,2.16-1.02,2.77.13Z"/>
  <path class="cls-18" d="M23.57,184.35c-1.81,6.76-9.33,8.95-15.21,4.94-4.33-2.95-4.48-6.46-4.14-11.39,6.24,2.78,12.5,5.5,19.35,6.45Z"/>
  <path class="cls-22" d="M699.22,209.55l-.31,12.33,11.46,4.67c-1.2,1.97-4.24,1.87-4.11,4.68-.63.49-11.66-5.64-12.19-7.45-.42-1.44-.12-12.75.55-13.57l4.61-.67Z"/>
  <path class="cls-22" d="M676.88,210.19c-.69,4.1,1.8,10.17.21,13.86-.81,1.87-9.63,7.16-11.48,6.53l-4.49-4.04c2.23-1.39,9.94-3.22,11.18-4.94,1.85-2.57-.69-9.47-.04-12.64l4.63,1.23Z"/>
  <path class="cls-12" d="M350.84,145.67c-.02,2.56,2.87,9.44,0,10.86-2.98.36-5.86-1.34-9.06-1.5-3.02-.16-5.58.58-8.53.6-.42-.35,2.55-3.96,2.95-4.37,3.68-3.86,9.57-4.13,14.64-5.59Z"/>
  <path class="cls-12" d="M454.65,148.01l3.51-4.98c1.57-.4,2.91-.23,4.54-.74,2.45-.77,6.12-4.51,7.03-4.75,1.3-.34,4.58,2.37,7.2-.66.81.98-6.67,10.89-8.01,12.24-4.95-1.05-9.07-2.7-14.27-1.12Z"/>
  <path class="cls-28" d="M601.86,200.76v-8.5c0-.34,1.48-3.56,1.72-4.73,1.22-6.02,2.73-12.32,1.81-18.41,6.71.52,4.75,8.25,4.02,13.1-.93,6.18-3.31,13.84-7.55,18.54Z"/>
  <path class="cls-11" d="M464.62,137.47c-.95.63-2.18,2.4-3.84,2.35-1.78-.05-.94-3.28-3.26-2.67-.99.26-1.99,1.63-3.05,2.19-6.8,3.6-6.8,3.31-13.73,0-1.46-.7-2.28-2.76-4.33-1.63l-.84,2.11c-1.68.19-2.66-1.17-3.8-1.78,1.74-1.34,3.14-3.01,5.59-2.96,1.42.03,2.15.96,3.04,1.09,5.63.8,13.78-1.82,18.93-.18,1.62.52,2.84,2.24,5.28,1.46Z"/>
  <path class="cls-6" d="M384.85,177.31l6.46-14.65c11.09,4.66,4.66,18.16-6.46,14.65Z"/>
  <path class="cls-6" d="M333.83,149.19l-8.5,12.29-9.68-12.29c5.91.75,12.32,1.07,18.18,0Z"/>
  <path class="cls-6" d="M258.75,162.67c-.57,2.6,6.86,13.64,5.87,14.65-10.77,3.16-17.06-10.33-5.87-14.65Z"/>
  <path class="cls-4" d="M710.96,208.37c5-.29,13.13-1.1,15.25-6.45,1.16.64,6.88,3.12,7.04,3.82-1.3,3.84-5.34,3.22-8.12,4.18-1.16.4-2,1.29-3.04,1.65-4.61,1.63-8.1.57-11.14-3.22Z"/>
  <rect class="cls-17" x="446.44" y="153.29" width="2.35" height="42.78"/>
  <path class="cls-23" d="M726.21,201.93c-2.12,5.34-10.25,6.15-15.25,6.45-.59-.73-2.11-1.82-1.51-2.93l9.51-7.56c2.44,1.31,4.82,2.71,7.25,4.04Z"/>
  <path class="cls-9" d="M751.42,64.22c-1.6,5.55-7.13,9.27-12.83,9.31l-2.96-4.41c2.91-5.1,10.61-4.94,15.79-4.9Z"/>
  <path class="cls-9" d="M738.6,76.62c6.07-.76,9.6,3.69,12.22,8.41-2.15,3.12-15.23-2.05-15.22-4.11,1.28-1.37,2.87-2.25,3-4.31Z"/>
  <path class="cls-28" d="M618.28,144.5c-2.5-2.14-7.56-3.57-9.7-5.83-1.02-1.08-4.83-8-5.57-9.67-.33-.72-1.09-.95.02-1.79.73-.57,1.58-.35,2.35.01.56.26,6.01,5.82,6.76,6.73.99,1.2,6.82,9.74,6.15,10.55Z"/>
  <path class="cls-11" d="M405.97,122.82c2.69,1.68,15.71,2.66,16.94,4.16,1.32,1.61-1.17,2.56-1.61,3.22-1.23,1.82-.53,2.71,1.68,2.58l-.9,2.36c-2.08-.73-4.12-2.19-5.54-3.84-1.66-1.92-2.59-6.43-5.23-4.9l-.93,2.86c-1.77-1.72-3.62-4.06-4.41-6.44Z"/>
  <path class="cls-28" d="M612.42,174.09c.69-2.32,6.76,1.58,8.46,1.4,2.52,4.8-4.28,8.32-8.18,8.86-1.84.25-.28-1.18-.28-1.46,0-1.97-.41-7.42,0-8.79Z"/>
  <path class="cls-10" d="M495.71,85.32l4.14,3.77,4.66,2.09c-.36,3.13-1.45,8.11-5.27,8.2l-3.53-8.79c.76-.81.3-4.25,0-5.27Z"/>
  <path class="cls-9" d="M737.93,133.36c-4.47,1.53-8.76,2.53-13.47,1.16l.56-5.84c4.84-.48,9.97.5,12.9,4.68Z"/>
  <path class="cls-22" d="M262.28,204.27c-.58-3.39-1.33-6.28-3.39-9.09,1.52-1.89,2.81-3.76,5.19-1.79.81.67,4.68,5.63,4.65,6.51-.03,1.21-5.92,4.75-6.45,4.37Z"/>
  <path class="cls-6" d="M519.76,169.12c-1.51.1-7.12.17-7.61-1.52l5.03-9.53c5.98.41,1.52,7.03,2.58,11.05Z"/>
  <path class="cls-22" d="M255.78,207.16l-7.57.63c.74-3.38,1.86-6.52.58-9.95l3.87-.56c2.43.04,3.11,7.85,3.12,9.88Z"/>
  <path class="cls-11" d="M480.46,128.68c-2.06,2.83-3.85,5.68-7.62,6.45-.19-.84-.08-3.22-1.39-2.86-1.74.48-3.99,3.36-5.66,4.61-.57-1.91,2.04-2.85,2.2-3.88.12-.72-.64-1.45-.18-2.54,2.2-5.21,8.67-.96,12.64-1.78Z"/>
  <path class="cls-9" d="M735,118.13c1.24,1.25-2.89,6.18-4.11,6.73-1.69.75-6.08.35-8.2.88,2.47-5.55,6.31-7.61,12.31-7.61Z"/>
  <polygon class="cls-18" points="78.7 132.2 70.78 139.25 62.86 133.07 78.7 132.2"/>
  <path class="cls-22" d="M242.86,197.3l-.81,8.74c-.95,1.24-3.69.42-4.93-.08l1.11-9.89,4.63,1.23Z"/>
  <path class="cls-6" d="M454.06,143.33l-4.45,6.39c-3.31,3.46-6.86-4.68-9.04-6.97,2.46-.07,4.4,2.19,6.79,2.3s4.38-1.65,6.7-1.71Z"/>
  <path class="cls-4" d="M489.84,74.18c-.31.94-.9,1.77-.55,2.9.76-.13,1.83.6,2.31.62.66,2.61,3.4,5.17,4.11,7.62.3,1.03.76,4.47,0,5.27l-3.52-2.34c.38-.05.79.05,1.17,0,.46-1.06-.46-1.82-.58-2.34-.83-3.55-1.97-5.15-3.52-8.2-.48-.94-1.04-1.85-1.17-2.93.47.07,1.29-.37,1.76-.59Z"/>
  <path class="cls-28" d="M603.62,136.29c-1.52-.34-9.28-2.2-7.59-4.65l4.1-1.53,3.5,6.19Z"/>
  <path class="cls-22" d="M216.53,37.85l-4.68-.57-.58,1.46c.86.93,1.95,1.14,2.91,2.04-2.91-1.68-7.73-2.07-10.4-3.38-1.59-.78-1.09-2.15.87-2.1,4.2.1,7.92,1.37,11.87,2.55Z"/>
  <path class="cls-6" d="M492.77,85.9c.12.52,1.04,1.28.58,2.34-.38.05-.79-.04-1.17,0s-.79-.04-1.17,0c.61,3.74,3.17,5.65,4.69,9.37l-4.02-3.29c-.77-2.24-3.07-4.04-2.35-6.59l3.43-1.84Z"/>
  <path class="cls-4" d="M404.8,78.87c-2.1,4.12-2.06,5.81-2.93,9.96-.03.14-.81.14-1.76,1.76-1.45-3.61.97-8.17,2.93-11.13.37-.56.75-1.27,1.17-1.76l.59,1.17Z"/>
  <path class="cls-8" d="M652.89,141.57l-2.93,5.86c.05-1.19-.6-1.81-1.76-1.76.76-2.18.67-5.66,2.93-7.03.07.19,1.33,2.06,1.76,2.93Z"/>
  <path class="cls-12" d="M717.41,133.36c-.33-1.87.79-7,3.52-5.59,1.29.9,1.56,2.45.88,3.84-1.08,1.37-2.69,1.93-4.4,1.75Z"/>
  <path class="cls-12" d="M722.69,72.42c2.79,1.05,8.21,1.91,7.62,5.27-.4.43-7.14-2.54-8.21-2.93h1.17s-.58-2.34-.58-2.34Z"/>
  <path class="cls-12" d="M734.96,78.25l-1.71.04-1.17-7.03c3.7-.07,4.14,4.24,2.89,7Z"/>
  <path class="cls-28" d="M571.95,214.23v1.76c-2.74,0-5.34.24-8.03-.5-1.01-.28-1.63.43-1.36-1.25h9.38Z"/>
  <path class="cls-6" d="M453.48,37.85c.99-1.77,3.52-1.77,5.28-1.75-.96,2-2.69,6.1,1.17,5.85-.43.11-.28.81-1.69.31-2.43-.87-2.21-3.67-4.76-4.41Z"/>
  <path class="cls-6" d="M358.46,45.47c-.09,1.35.06,2.75,0,4.11h2.94c-.5,1.11-1.41,2.15-1.76,2.93-.75-1.35-1.84-2.56-3.52-2.34.7-1.33.46-3.92,2.35-4.69Z"/>
  <path class="cls-6" d="M452.89,37.85c.24,3.39-3.26,5.99-6.46,5.27-.08-.36.1-.9,0-1.17,3.09.56,4.1-2.85,6.45-4.1Z"/>
  <path class="cls-6" d="M495.12,113.44c-.07,1.63-.27,3.1-.59,4.69l-2.93-2.34c.81-.83.74-2.46,3.52-2.34Z"/>
  <path class="cls-18" d="M154.95,127.51c1.32,1.14-3.76,2.4-4.37,2.37l-.91-2.96,5.28.59Z"/>
  <path class="cls-12" d="M725.62,68.91c1.35.76,3.44,1.39,3.52,3.51-1.53-.2-2.56-1.18-4.1-1.75l.59-1.76Z"/>
  <path class="cls-28" d="M538.52,133.37c.13.98-2.1.66-2.66.61-1.03-.1-1.9.19-2.6-.9,1.5-2.05,3.4.52,5.26.3Z"/>
  <path class="cls-23" d="M257,210.13c-.75.22-2.24,1.07-2.93,1.17s-1.58-.04-2.35,0c-1.91.11-4.99.4-6.45-.59,3.96.13,7.82-.07,11.73-.59Z"/>
  <path class="cls-22" d="M174.88,39.61c.19,2.58-2.43,1.16-2.93,1.17.73-.96,1.99-.81,2.93-1.17Z"/>
  <path class="cls-17" d="M244.68,210.72c-1.78-.1-2.74-.4-4.11-.59,1.28.14,3.27-.53,4.11.59Z"/>
  <path class="cls-6" d="M446.44,41.37c-2.41-.11-2.09-1.48-2.35-1.76,1.16.05,1.91.73,2.35,1.76Z"/>
  <path class="cls-13" d="M232.95,222.44l2.93-9.38c-.77,4.05-1.01,5.62-2.93,9.38Z"/>
  <path class="cls-23" d="M496.88,102.9c-.04.38.03.79,0,1.17l-1.75-1.17h1.76Z"/>
  <path class="cls-6" d="M496.29,99.97l-.59-1.76c.23.65.37.86.59,1.76Z"/>
  <path class="cls-23" d="M279.87,176.14l-1.17.59c.25-.1.69-.39,1.17-.59Z"/>
  <path class="cls-26" d="M598.93,60.12c-.56.04-.82-.35-1.17-.59.59-.05.81.2,1.17.59Z"/>
  <path class="cls-6" d="M461.69,41.37l-1.17.59c.07-.02.36-.43,1.17-.59Z"/>
  <path class="cls-12" d="M299.23,145.67c2.83,1.37,10.08,1.85,12.28,3.26,1.42.91,3.9,5.56,5.3,7-6.37-1.87-11.93-.43-18.2.63-1.54-1.12-.13-8.92.62-10.89Z"/>
  <path class="cls-12" d="M437.48,143.5c.62.48,2.71,3.48,2.81,4.5-4.53-1.91-8.94.58-13.36,1.1-3.64-3.31-6.69-7.37-8.62-11.93,1.27-.09,2.51,1.45,3.8,1.44,1.17-.01,1.98-1.32,3.37-1.04,1.24.25,4.16,3.32,5.91,4.11,1.84.84,5,.97,6.1,1.83Z"/>
  <path class="cls-12" d="M704.8,136.3c.38.2.38.39,0,.59v-.59Z"/>
  <path class="cls-23" d="M277.52,177.32s.17-.43.59-.59l-.59.59Z"/>
  <path class="cls-15" d="M246.44,118.72c.27-.79,1.04-1.38,1.76-1.76-.52.7-.81,1.43-1.76,1.76Z"/>
  <path class="cls-23" d="M496.88,101.14l-.59-.59s.53.15.59.59Z"/>
  <path class="cls-12" d="M720.93,74.77c-.26-.06-.5-.33-.59-.59.27.03.53.3.59.59Z"/>
  <path class="cls-12" d="M722.1,72.42l-.59-.59c.44.14.55.57.59.59Z"/>
  <path class="cls-12" d="M720.34,71.84c-.27-.06-.5-.32-.59-.59.24.09.44.37.59.59Z"/>
  <path class="cls-28" d="M618.87,184.93c-1.52,9.16-9.36,17.12-16.72,22.26,2.6-6.5,7.67-12.08,8.81-19.32l7.91-2.93Z"/>
  <path class="cls-7" d="M65.65,79.02c12.04-1.63,22.99,5.36,21.87,18.33-1.02,11.81-12.55,14.69-22.59,13.73-20.89-1.99-19-29.4.73-32.07ZM70.58,93.02c.14-.16,2.55-.66,3.68-1.89,6.96-7.56-7.99-9.84-12.27-5.23-.95,1.96.04,4.15,1.52,5.51,2.05,1.88,6.14,1.89,3.75,6.8-.75,1.55-3.7,1.38-5.16,1.04-2.13-.49-4.38-5.01-5.62-1.43,1.67,3.3,6.34,5.4,9.94,4.22,1.07-.35,2.16-1.91,2.6-1.94,1.53-.11,2.78,3.43,8.49,1.31,2.43-.9,6.23-3.99,2.66-5.55-2.14,2.51-4.53,4.46-8.1,3.39-1.97-.59-2.07-5.58-1.49-6.24Z"/>
  <path class="cls-5" d="M31.62,84.87c12.67-2.15,15.76,9.14,3.3,9.79-8.96.47-13.26-8.09-3.3-9.79Z"/>
  <path class="cls-20" d="M26.36,29.76c3.27-.45,7.6,1.75,7.71,5.36l-10.2,9.21c-6.53-3.14-4.83-13.57,2.5-14.57Z"/>
  <path class="cls-20" d="M106.09,28.6c9.26-2.12,13.62,8.69,6.25,13.89l-10.72-9.14c-.39-1.49,3.04-4.42,4.47-4.75Z"/>
  <path class="cls-5" d="M100.84,83.71c2.64-.38,9.67.2,10.59,3.18,2.45,7.94-18.76,8.54-16.2,0,.58-1.92,3.82-2.94,5.61-3.19Z"/>
  <path class="cls-2" d="M90.86,70.78c6.08-.78,8.54,8.97,2.67,10.31-9.22,2.1-8.83-9.52-2.67-10.31Z"/>
  <path class="cls-2" d="M44.52,71.95c6.13-1.35,8.41,6.77,3.63,9.5-6.91,3.96-10.95-7.89-3.63-9.5Z"/>
  <path class="cls-21" d="M205.38,94.69c-.78.23-1.29,2.11-1.96,2.73-1.23,1.16-3.79,1.5-3.95,2.81-1.31,10.26,14.53,10.46,13.57.6-.16-1.64-1.28-2.75-1.2-4.39.52.16,1.55-.29,2.21.13.6.38,1.8,3.3,1.91,4.26,1.13,9.82-12.1,13.45-17.91,6.2-6.27,8.12-20.27,2.54-17.49-7.55.93-3.36,1.53-2.53,3.71-3.03.07,1.64-1.04,2.76-1.2,4.39-1,10.25,16.08,9.31,13.54-1.07-.13-.52-1.91-.91-2.67-1.55s-3-3.44-3.22-3.52c.4-5.9,14.48-5.81,14.66,0Z"/>
  <path class="cls-11" d="M211.84,96.45c-.07,1.64,1.04,2.75,1.2,4.39.96,9.85-14.88,9.65-13.57-.6.17-1.31,2.72-1.65,3.95-2.81.66-.62,1.17-2.5,1.96-2.73,1.44-.43,4.83,1.24,6.45,1.76Z"/>
  <path class="cls-11" d="M190.72,94.69c.22.08,2.44,2.86,3.22,3.52s2.54,1.04,2.67,1.55c2.54,10.38-14.54,11.32-13.54,1.07.16-1.63,1.28-2.75,1.2-4.39,1.45-.33,5.72-2.03,6.45-1.76Z"/>
  <path class="cls-15" d="M235.71,37.98c7.01-1.6,11.52,3.97,8.61,10.36-.79,1.72-1.68,3.08-3.74,2.12-1.89-.89-6.65-7.05-9.37-8.27-.21-1.01,3.37-3.95,4.5-4.21Z"/>
  <path class="cls-15" d="M164.91,42.54c-.5.12-1.4,1.54-1.76,1.76-3.65,2.2-5.74,4.37-9.01,6.99-9.78-8.61,4.42-19.83,10.77-8.75Z"/>
  <path class="cls-21" d="M178.8,88.64c-6.09,5.06-12.08-4.83-6.6-8.05,5.27-3.1,11.68,3.82,6.6,8.05Z"/>
  <path class="cls-21" d="M218.7,80.17c9.77-2.89,9,11.71.75,9.57-4.98-1.3-4.31-8.52-.75-9.57Z"/>
  <path class="cls-2" d="M60.7,157.82c.07.16.9.14,1,.56.21.94-.56,5.72-1.55,6.01-2.15.84-3.8-3.53-3.81-4.95,0-1.18,1.07-2.07,1.27-3.48.34-2.35-.31-16.18,2.03-16.73.89-.21,1.32.7,1.45,1.47.75,4.21-1.68,14.41-.4,17.13Z"/>
  <path class="cls-2" d="M81.68,162.03c-.22-.15-1.81-4.68-1.81-4.95-.01-1.02,1.58-1.54,1.8-3.47.41-3.58-1.4-9.23-1.26-12.92.12-3.27,2.2-3.36,2.87-1.05.91,3.14.35,8.74.77,12.12.23,1.85,1.76,4.22,1.7,5.29-.08,1.46-1.85,6.51-4.07,4.98Z"/>
  <path class="cls-2" d="M91.9,170.29c2.47-.74,2.94,4.58,3.69,6.26.56,1.24,1.39,2.56,2.22,3.65.56.74,8.08,7.05,4.63,7.67-1.71.31-7.36-6.41-8.38-8.03-.89-1.42-4.75-8.77-2.16-9.55Z"/>
  <path class="cls-2" d="M52.3,170.87c1.61,1.09-1.59,8.14-2.44,9.56-.97,1.62-7.15,9.44-9.28,7.43,1.01-3.96,5.12-5.67,7.14-9.56.85-1.63,2.27-8.99,4.58-7.43Z"/>
  <path class="cls-21" d="M327.52,117.99c.87.87,3.51.87,4.72.6,2.86-.63,2.62-4.42,6.28-3.39-.11,4.26-5.13,6.95-9.04,6.42-1.59-.22-3.8-2.15-4.16-2.15-.21,0-2.47,1.63-3.78,1.91-3.86.84-9.35-.84-10-5.28,2.25-2.56,2.73.7,4.11,1.73,3.49,2.59,9.34.65,7.52-4.58-.58-1.69-5.31-2.39-4.6-6.51.81-4.73,16.76-4.25,12,3.17-.88,1.37-3.4,2.53-3.69,3.35-.36,1.03-.14,3.98.63,4.75ZM329.14,106.42c-2.53-.52-4.37-.93-6.94-.17-.85.25-1.47-.2-1.29,1.05,1.93,4.61,7.71,4.16,8.23-.88Z"/>
  <path class="cls-27" d="M355.99,106.57c12.33-1.16,13.21,9.84,1.59,9.84-9.58,0-12.12-8.85-1.59-9.84Z"/>
  <path class="cls-27" d="M290.27,106.56c3.8-.58,9.06.42,10.62,4.38-.15,8.13-19.8,5.96-16.61-1,.77-1.68,4.23-3.12,5.99-3.38Z"/>
  <path class="cls-21" d="M303.19,94.21c7.16-.87,8.75,10.1.97,10.41-6.7.27-7.54-9.61-.97-10.41Z"/>
  <path class="cls-21" d="M345.42,94.21c6.43-.84,8.02,10.53.42,10.46-6.02-.05-7.2-9.58-.42-10.46Z"/>
  <path class="cls-25" d="M532.5,98.94c12.1-2.03,12.46,10.17.59,8.51-7.46-1.04-8.12-7.25-.59-8.51Z"/>
  <path class="cls-25" d="M589.98,99.52c9.91-1.84,14.12,7.3,4.5,8.6s-12.5-7.12-4.5-8.6Z"/>
  <path class="cls-21" d="M546.74,107c2.04-.17,2.68,1.63,4.65,2.09,1.82.43,3.6,0,5.35.52,1.94.57,3.67,3.33,6.14,3.3,1.83-.03,3.28-2.01,4.98-2.68,3.67-1.43,7.69-.23,10.93-3.17l1.41,1.41c-1.78,4.1-7.19,3.21-10.62,4.05-2.57.63-4.59,3.4-7.27,3.32s-3.98-2.88-6.03-3.42c-3.46-.92-9.77.34-9.53-5.41Z"/>
  <path class="cls-21" d="M544.09,87.38c6.43,0,6.94,9.72,0,9.71s-6.3-9.71,0-9.71Z"/>
  <path class="cls-21" d="M581.16,87.78c7.36-2.19,9.43,7.18,3.72,8.99-7.09,2.25-8.66-7.53-3.72-8.99Z"/>
  <path class="cls-21" d="M567.84,102.31l-2.92-.88c.14-3.48,3.62-2.35,2.92.88Z"/>
  <path class="cls-21" d="M558.76,99.39c2.7-.76,2.7,3.67,0,2.92-1.18-.33-1.18-2.59,0-2.92Z"/>
  <path class="cls-21" d="M676.22,94.8c4.23-.58,13.95,5.88,14.25,10.15.62,8.77-9.79,13.02-17.37,10.86-2.55-.73-6.55-4.52-7.09-4.63-1.37-.27-4.57,3.14-6.11,2-1.95-4.56.65-9.89,4.53-12.54,1.52-1.04,10.32-5.64,11.79-5.84ZM687.49,104.65c-2.69-3.15-6.84-7.73-11.4-6.99-1.05.17-10.5,5.31-11.41,6.18-1.37,1.3-2.66,3.58-2.4,5.51,5.21-2.11,10.62-.6,15.97-1.32,3.39-.46,6.1-2.36,9.24-3.37ZM679.58,110.51c-2.93.42-6.64-.3-9.68,0-.33,1.36.26.96.74,1.34,3.29,2.58,8.7,3.05,12.37.91,1.3-.76,5.3-5.73,3.61-5.18-1.85.91-5.12,2.65-7.04,2.93Z"/>
  <path class="cls-3" d="M705.53,98.35c2.97-.5,9.51-.43,11,2.8,3.49,7.55-17.83,7.91-15.3-.03.53-1.65,2.72-2.5,4.3-2.77Z"/>
  <path class="cls-3" d="M645.7,97.17c3.28-.6,8.77-.61,10.18,3.07,2.79,7.3-16.76,7.39-14.61.14.44-1.48,2.95-2.94,4.43-3.21Z"/>
  <path class="cls-21" d="M701.98,87.84c5.01,4.47-1.71,11.84-6.88,7.17s2.16-11.37,6.88-7.17Z"/>
  <path class="cls-21" d="M657.42,86.02c7.33-1.62,8.22,8.92,2.08,9.73-5.6.74-8.06-8.41-2.08-9.73Z"/>
  <path class="cls-21" d="M564.33,153.29l19.36-2.34.03,2.01c-.28.99-17.02,3.3-19.39,2.67l-1.17,17c4.17.08,8.4-.22,12.54-.66,5.02-.54,10.24-2.21,14.89-2.74,2.84-.32,3.48,1.31.72,2.51-7.39,3.22-20.12,3.03-28.15,3.22l1.73,16.15c2.58,1.79,14.7-1.87,18.1-1.97,1.93-.06,2.83,1.53,1.13,2.36-4.81,2.37-13.87,2.11-19.2,2.21l.87,9.97-2.51-.73-1.3-9.24c-3.2.1-6.45-.21-9.6-.66-1.44-.2-7.62-1.13-7.93-2.04l-.07-1.98,17,2.34-.58-16.41c-3.28.3-23.75-2.39-24.63-4.39-.1-.22-.21-1.47.29-1.47l24.33,3.52.59-16.99c-4.87-.78-12.06-.86-16.59-2.47-1.98-.7-.98-3.16.97-2.78l15.62,2.91,1.14-7.86c4.66-1.92,1.07,7.13,1.8,7.86Z"/>
  <path class="cls-2" d="M423.96,172.13c.86-.23,1.64,0,1.91.86.73,2.39-1.7,2.82-2.89,4.02-1.35,1.36-6.59,7.14-7.62,7.63-.78.36-1.59.56-2.36.02l-.02-2.4c2.99-1.01,8.95-9.58,10.99-10.13Z"/>
  <path class="cls-2" d="M482.8,184.93c-.83.13-1.53-.03-2.31-.32-1.25-.47-9.68-8.56-10.62-9.91-1.06-1.53.59-3,1.79-2.4,2.18,3.45,8.77,6.87,10.59,9.97.55.93.71,1.58.55,2.66Z"/>
  <path class="cls-21" d="M489.84,74.18c-.47.22-1.29.66-1.76.59-1.76-.27-5.38-1.75-7.62-2.34-5.66-1.49-11.1-3.09-17.01-3.52-.58-.04-1.18.01-1.76,0-.91-.97-3.31-.67-4.69-.59-.75.05-1.67-.12-2.35,0-.61-.97-2.23-.59-3.22-.6-5.78-.06-11.66-.08-17.31,1.18-.5-.09-1.2,0-1.76,0-1.54,0-2.42.53-2.93.59-.38.04-.79-.05-1.17,0-1.13.14-1.87.51-2.35.59-.37.06-.81-.07-1.17,0-4.04.75-7.35,1.9-11.14,2.93-.33.09-.84-.09-1.17,0-.78.22-1.11.57-1.17.59-.18.05-.41-.05-.59,0-.76.22-1.11.57-1.17.59-.18.05-.4-.05-.59,0-1.53.42-2.45,1.7-3.93-.17-2.61-3.3,1.52-12.51,4.67-14.61,1.77-1.17,6.83-2.58,9.1-3.21,19.64-5.51,42.52-5.76,61.83,1.18,5.91,2.12,7.77,3.42,9.57,9.78,1.08,3.83.78,3.71-.3,7.04ZM487.49,71.25c-.28-9.68-6.76-11.15-14.76-13.08-10.28-2.48-22.47-3.43-33.03-2.73-4.92.33-26.21,4.07-29.06,7.3-.93,1.05-2.84,6.18-2.93,7.63-.05.9-.12,1.04.82.82,2.5-.57,5.21-1.94,7.98-2.58,23.53-5.47,48.03-5.27,70.97,2.64Z"/>
  <path class="cls-21" d="M446.44,99.97c1.34-.09,4.1-.22,5.28,0,.88.17,3.83,2.02,4.11,2.93.11.37,0,1.24,0,1.76.01.84-.13,1.63-.59,2.34-.49.33-1.93,2.18-2.93,2.93-.66.5-2.84.99-2.97,1.56-.45,6.62,6.64,8.28,10.6,3.71.66-.76,1.14-1.24,1.2-2.34l2.29.62c.23.33-.32,2.4-.56,2.89-1.7,3.44-7.54,4.74-11.04,3.71-1.34-.4-3.42-2.33-3.93-2.37-.66-.05-1.1.85-1.45,1.01-.96.45-2.71,1.61-3.52,1.76-4.56.82-8.56-1.19-10.56-5.27.13-.35-.24-1.17.1-1.66.28-.31.85-.02,1.07-.1,2.33.45,1.81,3.32,4.54,3.94,4.94,1.13,8.6-.35,7.8-5.9l-4.13-2.73h-.59c-.78-1.14-1.59-2.06-1.76-3.52-.18-1.59.59-2.81.59-3.52,2.15-1.39,4-1.59,6.45-1.76Z"/>
  <path class="cls-27" d="M417.11,101.14c6.57-.4,13.33,5.24,4.82,8.04-4.24,1.39-8.41.78-11.27-2.76.12-.2-.17-1.29.11-1.92.73-1.68,4.53-3.24,6.35-3.35Z"/>
  <path class="cls-27" d="M478.11,101.72c4.46.22,3.54.83,6.45,2.93.74,6.7-13.23,6.45-14.56,1.92s5.2-5,8.11-4.85Z"/>
  <path class="cls-11" d="M424.74,70.08c.47,2.71,1.88,4.86,1.04,7.78-.69,2.39-5.11,5.3-5.22,1.09l-3.47-.35-.5-.65c1.57-2.96-1.12-3.07-2.99-4.94,3.79-1.03,7.11-2.18,11.14-2.93Z"/>
  <path class="cls-21" d="M430.6,90c2.58,2.81,2.54,3.5,1.76,7.03-.07.32-.42.79-.59,1.17-2.57,2.44-8.55.84-9.38-2.34-.36-1.37.5-2.87.59-4.1.24-.14.39-.43.59-.59,3.13-2.37,3.82-1.4,7.04-1.17Z"/>
  <path class="cls-21" d="M469.31,90c.38.04.84-.08,1.17,0,8.83,11.73-13.14,13.01-6.45.59.6-.23,1.1-.48,1.76-.59,2.2-.36,1.55-.22,3.52,0Z"/>
  <path class="cls-11" d="M430.6,90c4.73.33,6.89.84,11.38-1.71,4,4.4-.73,1.91-2.06,3.71-.64.87-.36,2.36-.6,2.62-.59.63-4.78-.17-4.63,1.54l-2.34.88c.78-3.53.82-4.22-1.76-7.03Z"/>
  <path class="cls-11" d="M454.65,68.32c-4.05.74-7.42,2.87-12.64,2.95-2.89.04-5.5-1.94-7.89-2.37,5.65-1.26,11.54-1.24,17.31-1.18.99.01,2.61-.37,3.22.6Z"/>
  <path class="cls-11" d="M480.46,72.42c-4.01,2.61-6.71.45-10.41-.45-.74-.18-1.64.42-2.52.2-1.72-.43-2.16-2.82-4.08-3.27,5.91.42,11.35,2.03,17.01,3.52Z"/>
  <path class="cls-11" d="M439.99,101.72c-.01-1.16-2.28-2.87-.22-3.47,1.74-.51,2.95,1.19,4.03,1.16.2,0,1.46-3.46,2.65.56-2.45.17-4.3.37-6.45,1.76Z"/>
  <path class="cls-11" d="M465.79,90c.47-2.24,1.44-1.87,3.52-1.76v1.76c-1.97-.22-1.32-.36-3.52,0Z"/>
  <path class="cls-11" d="M414.76,80.63c.93.93-.82,2.68-1.75,1.75s.82-2.68,1.75-1.75Z"/>
  <path class="cls-11" d="M461.69,68.91c-1.48-.04-3.71.48-4.69-.59,1.39-.09,3.78-.38,4.69.59Z"/>
  <path class="cls-11" d="M432.36,68.91c-.5.95-1.99.55-2.93.59.51-.05,1.39-.59,2.93-.59Z"/>
  <path class="cls-11" d="M423.57,91.18c-.2.15-.35.45-.59.59,0-.13-1.67-2.09.59-.59Z"/>
  <path class="cls-11" d="M428.26,69.49l-2.35.59c.47-.08,1.21-.44,2.35-.59Z"/>
  <path class="cls-11" d="M410.66,73.6l-1.17.59c.06-.02.41-.37,1.17-.59Z"/>
  <path class="cls-11" d="M412.42,73.01l-1.17.59c.06-.02.39-.37,1.17-.59Z"/>
  <path class="cls-17" d="M404.21,77.7c.28-.33.4-.93.89-1.17h.87s0,.86,0,.86c-.2.57-.94,1.04-1.16,1.47l-.59-1.17Z"/>
  <path class="cls-2" d="M355.34,186.87c1.66,1.91.32,3.34-2.13,2.44-1.55-.57-8.99-8.56-8.82-9.35.2-.93,2.16-1.22,2.93-.59,1.98,2.73,6.01,5.18,8.03,7.5Z"/>
  <path class="cls-2" d="M303.15,179.17c1.23-.35,2.44-.08,2.52,1.36-2.51,2.16-4.78,5.32-7.35,7.32-1.51,1.17-3.72,3.13-4.4.31,0-.96,8.32-8.73,9.23-8.98Z"/>
  <path class="cls-27" d="M291.45,18.03c4.49-.92,8.18,6.38,9.84,9.85,3.4,7.11,4.62,15.09,5.31,22.87l-9.46,4.1c-.78.06-.99-.44-1.37-.95-.99-1.32-3.35-7.01-4.04-8.86-1.99-5.38-6.4-21.25-2.5-25.66.52-.59,1.44-1.19,2.21-1.35Z"/>
  <path class="cls-27" d="M358.46,45.47c-1.89.77-1.64,3.36-2.35,4.69-.91,1.73-2.61,2.78-3.24,4.7-1.67-1.48-9.23-3.63-9.58-5.1.08-6.29,5.28-28.39,11.21-30.8,8.45-3.43,7.95,6.69,7.4,12.08-.49,4.82-3.13,9.83-3.45,14.43Z"/>
  <path class="cls-11" d="M442.92,120.48l1.17,2.92c-1.68.19-2.87,1.88-2.92,3.53,3.14-.16,7.37-1.74,8.83,2.08l-2.1,3.19-.87-1.75c-1.87.15-1.9,1.4-3.92.74-2.31-.75-2.76-2.68-3.24-2.96-.85-.49-2.67.35-3.39-1.01-.6-1.86,2.16-2.21,2.34-2.93-.5-2.72-3.33-1.78-5.31-2.3-5.97-1.56-2.54-3.03-1.14-6.77,2,4.08,6,6.09,10.56,5.27Z"/>
  <path class="cls-11" d="M462.86,116.37c2.14,2.29-.13,5.83.59,8.79,4.28-1.17,7.92-.07,2.62,2.96-1.3.2-.95-1.56-2.03-2.08-2.11-1.02-3.03.43-4.48-3.18-2.05.68-6.26.58-6.97,2.32l-1.12-.06c-2.05-.82-2.53-6.15-5.03-6.4.36-.16.79-1.07,1.45-1.01.5.04,2.58,1.98,3.93,2.37,3.5,1.03,9.35-.27,11.04-3.71Z"/>
  <path class="cls-11" d="M441.75,108.76l4.13,2.73c.79,5.54-2.86,7.03-7.8,5.9-2.73-.63-2.21-3.5-4.54-3.94,1.99-.72,2.32.06,3.54-.25s5.35-2.56,4.67-4.44Z"/>
  <path class="cls-11" d="M459.93,115.2c-3.96,4.57-11.05,2.9-10.6-3.71.14-.57,2.31-1.06,2.97-1.56.35,3.48,4.28,5.9,7.62,5.27Z"/>
  <path class="cls-11" d="M479.87,116.96v.87c-.62.92-1.26,1.02-2.34.88v-1.75s2.34,0,2.34,0Z"/>
  <path class="cls-11" d="M455.82,104.65h1.17c.6,3.5-1.08,1.89-1.76,2.34.45-.71.6-1.51.59-2.34Z"/>
  <rect class="cls-11" x="470.49" y="123.41" width="1.17" height="1.17"/>
  <path class="cls-21" d="M70.58,93.02c-.57.66-.48,5.65,1.49,6.24,3.57,1.07,5.96-.89,8.1-3.39,3.57,1.55-.23,4.64-2.66,5.55-5.71,2.12-6.96-1.42-8.49-1.31-.44.03-1.53,1.59-2.6,1.94-3.6,1.17-8.26-.92-9.94-4.22,1.25-3.59,3.49.93,5.62,1.43,1.46.34,4.41.5,5.16-1.04,2.38-4.91-1.7-4.93-3.75-6.8-1.49-1.36-2.47-3.55-1.52-5.51,4.28-4.61,19.23-2.33,12.27,5.23-1.13,1.22-3.54,1.73-3.68,1.89Z"/>
  <path class="cls-3" d="M329.14,106.42c-.52,5.04-6.3,5.49-8.23.88-.19-1.25.43-.8,1.29-1.05,2.57-.76,4.41-.35,6.94.17Z"/>
  <path class="cls-24" d="M687.49,104.65c-3.14,1.01-5.85,2.91-9.24,3.37-5.36.72-10.77-.79-15.97,1.32-.26-1.93,1.03-4.2,2.4-5.51.91-.87,10.36-6.01,11.41-6.18,4.56-.74,8.71,3.85,11.4,6.99Z"/>
  <path class="cls-24" d="M679.58,110.51c1.92-.27,5.19-2.02,7.04-2.93,1.69-.55-2.31,4.43-3.61,5.18-3.66,2.14-9.08,1.67-12.37-.91-.48-.38-1.07.02-.74-1.34,3.03-.3,6.75.42,9.68,0Z"/>
  <path class="cls-12" d="M487.49,71.25c-22.94-7.91-47.44-8.11-70.97-2.64-2.77.64-5.48,2.01-7.98,2.58-.95.22-.88.07-.82-.82.09-1.46,2-6.59,2.93-7.63,2.85-3.22,24.14-6.97,29.06-7.3,10.56-.7,22.75.25,33.03,2.73,8,1.93,14.49,3.4,14.76,13.08Z"/>
</svg>