<?xml version="1.0" encoding="UTF-8"?>
<svg id="_레이어_1" data-name=" 레이어 1" xmlns="http://www.w3.org/2000/svg" viewBox="0 0 178.2 159.88">
  <defs>
    <style>
      .cls-1 {
        fill: #a48767;
      }

      .cls-2 {
        fill: #642541;
      }

      .cls-3 {
        fill: #2c2e29;
      }

      .cls-4 {
        fill: #905d69;
      }

      .cls-5 {
        fill: #ccb396;
      }

      .cls-6 {
        fill: #ebd8b9;
      }

      .cls-7 {
        fill: #acaca8;
      }

      .cls-8 {
        fill: #c4ab84;
      }

      .cls-9 {
        fill: #2e292d;
      }

      .cls-10 {
        fill: #524b3e;
      }

      .cls-11 {
        fill: #59203a;
      }

      .cls-12 {
        fill: #752745;
      }

      .cls-13 {
        fill: #6e834d;
      }

      .cls-14 {
        fill: #3f413b;
      }

      .cls-15 {
        fill: #7b9952;
      }

      .cls-16 {
        fill: #221c23;
      }

      .cls-17 {
        fill: #707779;
      }

      .cls-18 {
        fill: #5a193e;
      }

      .cls-19 {
        fill: #ab7583;
      }
    </style>
  </defs>
  <path class="cls-3" d="M27.1,138.3c-.52-6.07,1.77-13.55,3.69-19.3.54-1.62,3.68-8.28,3.67-8.98,0-1.02-1.25-2.2-1.02-3.44-3.39,1.26-6.63,3.68-10.48,3.1-1.95-1.25,2.12-15.19,5.12-16.57-2.92-3.7-4.45-9.51-3.49-14.15.31-1.5,2.06-2.75,1.91-4.21-.06-.63-1.66-5.1-2.04-5.42-.66-.55-6.18-1.82-7.94-2.63C6.73,62.22-1.68,52.43.29,40.92c.44-2.58,2.63-5.15,3.43-7.67,1.83-5.78,2.51-19.47,7.04-23.61,1.11-1.02,10.93-6.68,12.66-7.41,11.58-4.91,24.64-1.34,33.55,7.1,1.42,1.35,4.81,6.34,6.43,6.81,4.1,1.19,8.61-5.5,11.25-3.89.69.42,3.2,7.52,3.04,8.4-1.37,2-3.81,3.38-6.22,3.51l.26,1.04c.7-.8,1.22-.01,1.33.01l-3.17,1.06c-.64-.17-2.03-.48-2.64-.53-.35-.03-.71.01-1.05,0v6.34c2.07-.42,1.41.85,1.58,1.06-1.6-.29-1.02.81-1.06,1.82-.16,3.82-.41,7.63-1.05,11.39-2.05,1.83-2.05,1.92-2.11,4.76,0,.58.56,1.5.53,2.11-.13,2.32-3.09,6.2-3.85,9.09-1.62,6.16-.49,6.32-3.87,12.24-2.73,4.77-2.07,5.43-7.59,7.21,3.23-2.34,8.19-7.47,8.85-11.49.49-2.96.11-6.01.8-9.24,1.16-5.44,4.17-10.86,5.08-16.59.52-3.25,1.28-13.13-.06-15.69-.85-1.63-9.45-5.59-11.62-6.35-10.3-3.6-30.54-6.53-40.85-3.04-.91.31-1.77.49-2.23,1.46-1.3,2.73-1.55,8.93-2.5,12.3-1.81,6.39-5.21,7.38-3.43,15.33,2.57,11.5,17.27,18.83,28.23,19.05,3.02.06,5.73-.81,8.74-.55.95.83-2.96,2.64-3.43,2.64h-9.24c1.84,3.1,2.33,6.14,3.17,9.51.71,2.85,1.58,3.84,3.96,5.67,1.54-.94,3.54-1.2,5.33-.96,1.08.15.52,1.23,1.5,1.12,1.57-.17,4.79-2.36,6.65-2.67-.08.12.17.7-.09.94-.5.47-2.76.23-3.08,1.7-1.01.27-2.1.35-2.96,1.04-.29.42.2,1.98.32,2.66.15.86.34,1.01.53,1.59.24.71-.27,1.32.83,2.07,2.44,1.69,12.39-1.17,15.02-2.6l.27.52h.79c-.07.05-.06.99-.54,1.3-3.15,1.99-6.89,2.95-10.55,3.47,2.47,3.21,6.39,11.47,4.49,15.32-.75,1.52-2.58.44-2.91,1.58,2.4.35,4.74.68,7.19.57,1-.05,1.52-.53,1.78-.57,6.16-.8,9.05-2.16,13.73-6.34.51-.45,2.17-1.24,1.87-2.11-1.06-1.9-2.93-3.14-4.21-4.81-1.17-1.53-6.65-10.2-7.89-9.96-.56,1.27-2.72,1.35-2.98,1.54v-1.06c.23-.16,1.98-2.32,2.11-2.64l3.17-.53c-.01.63-.19,1.41.13,1.98,10.39,13.09,17.2,23.1,34.33,27.76,17.18,4.67,59.69,2.11,66.95-18.11h2.11c-.1.31.31.55.53.53,2.03-.15,8.03-2.39,9.44-1.52,1.22,9.91-10.54,14.56-17.85,18.23,1.79,7.7,4.54,15.45,4.19,23.45-.07,1.49.3,3.09-.6,4.43-5.63,7.35-23.22,9.55-26.84-.5.09-2.92-.2-5.81-.56-8.69-.09-.75.12-4.11-.85-4.27l-6.49,1.68c-.19.67-.02,1.37-.05,2.06-.27,4.89,0,8.17-5.29,10.3-6.62,2.68-21.49,2.27-19.53-8.19h-5.28c.57,5.91,2.34,14.24-3.21,18.2-6.56,4.68-22.61,5.62-25.09-3.9-1.52-5.85.08-10.42-.19-15.64-.04-.71.21-1.38-.57-1.83-1.06-.61-4.88-.99-6.61-1.58-2.79-.94-5.42-2.2-8.17-3.18-.35,2.13-.82,4.19-1.06,6.34-.34,2.99,0,6.47-.8,9.51-6.18,6.7-25.2,6.09-26.14-4.75l-.02.05ZM28.16,3.53c-.17.03-.36-.03-.53,0-1.92.35-4.68.9-5.81,2.64,1.93.02,3.88-.01,5.81,0h6.87c6.1,1.06,12.15,2.65,17.96,4.76.63.23,2.86,1.36,3.17,1.05.37-2.04-2.3-1.85-2.64-2.11-4.6-3.57-5.75-5.41-12.15-6.34-3.25-1.66-9.35-1.68-12.68,0ZM19.7,8.29c-.9.12-1,.52-1.06.53-.99.19-2.23.26-3.17.53-2.82.82-1.7,1.17-2.64,2.11-.13.13-.94.02-1.52.84-.83,1.16-1.16,3.03-2.17,4.19.44.67.85.71,1.57.79,1.13.12,2.5-.04,3.17-1.06.53,0,1.06.03,1.58,0,14.78-.76,24.45.2,38.56,4.76,3.22,1.04,5.25,2.11,8.25,3.64,1.38.39.64-2.42.48-3.14-1.06-4.88-4.41-6.06-8.6-7.78-10.03-4.12-23.71-6.88-34.47-5.41h.02ZM56.41,11.99v.53c.34-.18.34-.35,0-.53ZM73.53,14.68c-.77-.54-6.61,2.38-7.71,3.02-3.75,2.2,1.43,2.45,2.64,2.76.43.11.34.99.72,1.06.53.1,5.77-.87,5.94-1.12,0,0-1.59-5.72-1.59-5.72ZM30.79,91.26l2.04-5.47-6.26-5.63c.37,4.03.01,9.14,4.22,11.1ZM37,86.06c-4.37.78-4.19,8.78,1.4,7.72,2.24-.42,3.7-8.64-1.4-7.72ZM29.74,96.02c-.25.23-1.08.26-1.41.68-1.6,2.04-1.79,3.1-1.76,5.66-1.9-.29-.8,3.26-1.58,4.22,1.96.2,4.68-.23,6.33-1.35.55-.37.45-1.21.54-1.29.74-.65,2.26-1.13,2.88-2.66.69-1.73.24-6.01-1.73-4.59-.25.18.25,1.14-.61.91.49-1.73-.61-1.87-1.1-3.13-1.37-.56-1.34,1.36-1.55,1.55h-.01ZM45.95,95.66c-.52-.46-1.23-.77-1.95-.69l1.05,6.34-4.22-2.64c-.65,5.49,4.72,9.14,9.5,10.04.62-3.66-1.66-10.6-4.39-13.04h.01ZM37.14,98.66c-1.31,4.74,1.04,7.31,5.02,9.5l-5.02-9.5ZM176.05,99.2l-9.29,1.54c-.84,1.41-6.4,9.68-5.5,10.61,5.93-2.22,12.72-5.63,14.79-12.15ZM35.29,105.01v.53c.34-.18.34-.35,0-.53ZM75.69,106.06c-2.09.62-4.19,3.41-6.16,4.67-6.04,3.87-16.14,5.09-22.89,2.73-.66-.23-3.89-2.12-4.75-2.64-1.71-1.05-3.13-2.49-4.75-3.7-.22-.16-.38-.91-.8-1.05h-.79v.79c.13.39.98.64,1.05.8,1.56,3.33,1.48,2.56,3.17,4.76,4.21,5.47,6.49,8.02,13.71,9.8,4.24,1.05,15.87.76,19.04-2.4,1.75-1.75,2.05-6.08,4.23-7.93h.53c-1,5.53-2.81,9.21-3.7,15.33-.77,5.29-1.96,10.98-1.58,16.38.02.35-.02.71,0,1.06.06.69.63.44,1.06.53.47.09,1.12-.1,1.58,0,.18.04.38-.05.53,0,1.26.42,1.87,2.54,2.37,2.59.94-.89,2.5-1.04,3.44-1.53l2.98,2.06c1.73-.7,2.91-2.39,4.94-1,1.1,1.63,2.52,2.92,2.65,5.28,2.35-1.08,3.48-1.54,4.75-3.7,1.4-2.37,1.18-3.36,1.07-6.1-.03-.69-.55-1.37-.55-1.56v-9.51c0-1.69-.55-4.32-.53-6.61.02-1.63.38-2.46.53-3.7l1.06-.53c-.18,2.63.95,5.24.53,7.93,1.3.29,1.52-1.07,2.11-1.58,1.7-1.48,6.06-5.02,6.35-7.13.16-1.16-.15-.65-.8-.78-1.66-.33-4.07-.23-5.54-.55-.62-.13-1.46-.36-2.11-.53-4.56-1.15-12.42-5-16.34-7.7-1.5-1.03-4.68-4.96-6.37-4.46l-.02-.02ZM43.21,108.18v.53c.34-.18.34-.35,0-.53ZM46.11,109.77h-1.05v.52h1.05v-.52ZM47.7,110.82c-.16-.08-.08-.82-1.05-.52v.52c.35.04.71-.04,1.05,0,.47.23.7.82,1.58.52v-.52c-.52-.05-1.07.06-1.58,0ZM156.5,111.88l-.27-.53c-.89-.23-8.77,4.07-10.54,4.77-1.4.55-5.5,1.01-6.13,1.93-3.12,4.56-.74,14.95-.48,20.25.68.1,1.44-.09,2.11,0,1.54.22,2.39.23,2.65,2.11,1.86-1.27,2.56-1.8,4.74-1.06-.27,1.2.96,2.02,1.08,2.97.09.77-.54,1.18-.55,1.26-3.39-6.4-6.6,3.66,0,3.17.09-.67-.11-1.48,0-2.11h2.11c0,.47-.24,1.46.27,1.59.54.06,3.14-.34,3.57-.56.62-.31.34-1,.39-1.03.22-.15,1.2.14,1.58,0,4.83-1.76,5.53-3.04,5.3-8.22-.36-8.04-3.54-16.88-5.83-24.55h0ZM33.44,118.75c-.73,1.83-1.06,3.44-1.58,5.29-.06.21-.61.75-.81,1.55-.65,2.58-1.15,5.5-1.33,8.14l2.14.88c.17.78,1.77,1.94,1.59,3.17,4.73-2.61,5.47.83,5.8,4.76.06.7-.05,1.42,0,2.12,3.96.05,8.4.27,11.66-2.34l2.1-16.34c-6.48-3.03-12.18-7.47-16.67-13.03-.87,0-2.51,4.82-2.91,5.8h.01ZM136.96,118.75l-8.77,1-6.55,10.62,14.22-3.74s1.1-7.88,1.1-7.88ZM107.38,123.5c-1.11,1.68-3.74,4.06-5.27,5.56-1.12,1.09-3.04,1.35-2.65,3.43h8.72c3-1.1,6.5-.11,9.44-1.65,1.48-.78,5.07-5.09,6.07-6.63.41-.63.38-1.37.6-1.76.31-.57,1.58-1.46,1.58-2.64-3.36-.23-6.42.58-9.8.55-2.06-.02-5.81-1.41-7.37-.03-.76.67-.91,2.57-1.32,3.18h0ZM65.39,124.56c-2.74.31-5.92-.22-8.72,0l6.88,3.42c2.13.45,4.39,1.44,6.6,1.35,1.2-.05.58-.02.78-.82.49-1.94.62-4.11,1.06-6.08-1.76.8-4.75,1.91-6.6,2.11v.02ZM126.92,131.96l-19.73,3.24c-2.81,3.5,1.24,6.28,4.73,6.75,8,1.09,16.43.25,15-9.99ZM32.38,142.53c.26-2.86.07-5.08-2.37-6.86-2.64,1.24,1.3,8.1,2.37,6.86ZM37.66,144.12c.06-2.39.59-5.5-2.63-5.28l-.85,4.78,3.48.5ZM143.3,145.17c-.49-2.01-.67-5.78-3.71-4.51-2.1,1.44,3.08,5.13,3.71,4.51ZM76.21,153.1c.19-1.38.64-2.22.31-3.7-.83-3.64-4.91-3.63-3.77.02l3.46,3.67h0ZM83.09,154.16c.67-6.96-5.1-8.11-4.7-.58l4.7.58ZM89.95,153.62c-.35-7.05-5.8-5.87-5.29.53l5.29-.53Z"/>
  <path class="cls-7" d="M69.88,131.96c.78.45.53,1.12.57,1.83.27,5.22-1.33,9.79.19,15.64,2.48,9.52,18.53,8.58,25.09,3.9,5.55-3.96,3.77-12.29,3.21-18.2h5.28c-1.95,10.45,12.91,10.86,19.53,8.18,5.28-2.13,5.02-5.41,5.29-10.3l7.39.53c.36,2.88.65,5.77.56,8.69,3.61,10.04,21.21,7.84,26.84.5.89-1.33.53-2.94.6-4.43,3.91.68,15.09,4.81,9.69,9.96-8.92,8.52-47.46,10.65-60.16,11.15-24.89,1-50.21.68-74.81-3.84-11.16-2.05-38.24-9.18-12.05-17.27.94,10.84,19.96,11.45,26.14,4.75.8-3.04.46-6.52.8-9.51l15.85-1.59h0Z"/>
  <path class="cls-16" d="M65.66,46.34c2.18-1.94,9.45-5.72,12.32-6.96,36.88-15.98,79.07,7.84,84.45,47.3.12.54.57.63.94.89l.09.96,1.49.1c.12.08.42-.09.53,0v1.59h1.58c.25.41,1.49,3.56,1.58,4.23h-2.11c-.26-1.63-2.46-5.27-4.43-4.72-.9.25-.68,1.34-.85,1.55-15.19,19.02-51.92,21.72-71.79,9.21-10.62-6.69-14.61-19.35-25.66-25.59-.29,2.88,1.44,4.09,1.32,7.4-.04,1.23-.51,2.35-.53,3.7l-3.17.53c.35-.86.74-4.13.56-5l-1.65-.57c.42-2.91.53-5.26.03-8.18-1.22-.3-.87.23-1.21.67-1.39,1.78-2.52,4.02-4.07,5.67-1.43,1.53-4.5,3.88-6.34,4.76s-2.78.66-4.23,1.06c.32-1.47,2.58-1.23,3.08-1.7.26-.24,0-.82.09-.94.48-.73.58-.38,1.06-.53,5.51-1.79,4.86-2.45,7.59-7.21,3.39-5.91,2.25-6.08,3.87-12.24.76-2.89,3.72-6.77,3.85-9.09,3.66-.27,6.21-4.26,9.97-4.82.45-7.73-7.57,1.55-10.5,2.71.06-2.83.06-2.93,2.11-4.76l.03-.02ZM98.82,37.51c-5.88.22-11.81,1.16-17.32,3.28-.7.27-4.59,1.91-4.77,2.09-.81.79-.72,3.05-.25,3.99,3.51,2.04,7.66,3.03,11.37,5,2.93,1.56,9.97,7.3,12.11,7.97,3.36,1.05,14.38-2.09,18.79-2.4,3.21-.23,9.45.63,12.03-.12,1-.29,6.03-7.3,6.11-8.17s-1.69-2.3-2.38-2.74c-11.03-7.01-22.69-9.39-35.68-8.91h-.01ZM75.58,50.69c-2.69.33-11.64,6.36-13.1,8.59-1.63,2.49-1.77,6.49-2.03,9.41,5.63,5.04,11.45,8.93,16.57,14.64,4.89,5.45,8.41,12.67,15.3,15.87l5.45-36.63c-.26-.88-1.18-1.34-1.83-1.86-3-2.43-14.13-9.21-17.57-9.91-1.12-.23-1.65-.25-2.78-.1h-.01ZM150.17,97.08c1.75,1.28,8.92-6.38,9.39-8.33.52-2.12-2.68-9.87-2.25-12.83-1.66-6.65-11.29-20.18-16.69-24.52-.57-.45-1.57-.98-2.27-.87-.46.08-4.7,7.09-4.48,8.1,7.17,12.16,13.43,24.48,16.29,38.45h0ZM147.5,99.7c1.38-1.39-5.78-19.79-7.12-22.7s-7.09-14.52-9.47-15.89c-3.15-1.81-13.62.49-17.52,1.02-2.64.36-10.95.33-12.39,2.4-1.67,11.81-4.66,23.54-5.24,35.46l.52,1.06c4.78,1.04,9.3,3.04,14.16,3.8,12.55,1.96,23.39-.32,34.98-4.89.66-.26,1.39-.22,2.09-.27h0Z"/>
  <path class="cls-9" d="M73.05,25.2c.83.21,4.58.6,4.78,1.4.36,2.19-1.93,7.57-4.09,7.98s-4.56.29-5.98-1.46c-.17-.22.49-1.48-1.59-1.06v-6.34c.35.01.71-.02,1.06,0-1.77,6.12,7.66,9.21,7.91,2.13-1.89.14-3.77-1.2-5.27-1.61l3.17-1.06v.02Z"/>
  <path class="cls-16" d="M168.65,96.02c.02.53,0,1.06,0,1.59h-2.64c.19-.53.47-.96.53-1.59h2.11Z"/>
  <path class="cls-14" d="M168.65,94.43c.07.49-.02,1.07,0,1.59h-2.11c.04-.45.07-1.16,0-1.59h2.11Z"/>
  <path class="cls-10" d="M167.07,90.21h-1.59v-1.59c.76.6,1.01.63,1.58,1.59h0Z"/>
  <path class="cls-10" d="M164.95,88.62l-1.49-.1-.09-.96c.54.36.97.62,1.58,1.06Z"/>
  <path class="cls-15" d="M2.8,48.45c-1.78-7.95,1.62-8.94,3.43-15.33.95-3.37,1.2-9.57,2.5-12.3.46-.97,1.33-1.16,2.23-1.46,10.31-3.49,30.56-.55,40.85,3.04,2.17.76,10.77,4.72,11.62,6.35,1.33,2.56.57,12.44.06,15.69-.91,5.72-3.92,11.14-5.08,16.59-.69,3.23-.31,6.29-.8,9.24-.66,4.02-5.62,9.15-8.85,11.49-.47.15-.57-.2-1.06.53-1.86.31-5.08,2.5-6.65,2.67-.98.11-.41-.98-1.5-1.12-1.79-.24-3.78.02-5.33.96-2.37-1.83-3.25-2.82-3.96-5.67,1.09-1.91,3.15-1.82,4.94-2.72,7.44-3.71,14.43-9.98,16.18-18.42-4.15,1.92-7.74,4.19-12.47,4.69-11.5,1.2-24.87-.69-32.7-9.96-1.14-1.36-1.65-4.01-3.42-4.24v-.03ZM13.76,28.44c-3.96.57-3.92,9.61.9,8.93,3.67-.51,2.93-9.48-.9-8.93ZM43.88,30.61c-3.81-3.95-7.98,6.65-2.53,8.12,3.66.98,4.31-6.27,2.53-8.12ZM22.09,38.41c-1.21.27-.84,2.64,0,2.63,1.12,0,1.91-3.05,0-2.63ZM26.57,41.05h.78l1.33-1.33-.8-1.31-1.25.85-.06,1.78h0ZM41.36,46.34c-.6-.64-2.72,1.29-3.54,1.47-2.46.56-5.27-.07-8.19.79-1.72.5-3.03,1.88-4.87,1.96l-11.92-5.28c-.11,4.19,5,4.35,7.93,5.54,1.39.56,1.66,1.7,3.4,1.9,3.25.37,3.71-1.58,5.95-2.03,2.49-.51,8.95.08,10.71-1.97.49-.57.82-2.06.52-2.38h0Z"/>
  <path class="cls-15" d="M77.28,111.88c.06-.34,0-.78.23-1.07l1.1-.55,3.39,1.14c-1.02,3.17,0,3.36,2.5,5.15,1.25.89,2.64,1.68,4.04,2.3,1.87.83,5.68.83,6.18,3.06l1.05-.28,1.05-1.82c-.03.52.06,1.07,0,1.58-.14,1.24-.51,2.07-.53,3.7-.39.87-1.5.8-1.62,1.83-.48,3.95-.47,15.64,0,19.61.11.97,1.58,1.09,1.62,2.35-1.27,2.16-2.4,2.62-4.75,3.7-.13-2.36-1.54-3.66-2.65-5.28-.38-.56-.33-1.67-.65-1.98-.68-.67-4.81-.86-5.86-.55-.96.28-1.2,1.37-1.41,1.48-.94.49-2.5.64-3.44,1.53-.5-.04-1.11-2.17-2.37-2.59l-.26-.52-.27.52c-.47-.1-1.11.09-1.58,0l-1.06-.53c-.02-.35.02-.71,0-1.06,2.01-1.33,1.49-2.49,2.02-4.59.9-3.56.4-2.95.58-6.26.12-2.21.88-4.34.57-6.59l-1.58,1.05c.89-6.12,2.7-9.8,3.7-15.33h0Z"/>
  <path class="cls-15" d="M157.03,144.64c.02-2.38-1.8-5.62-4.44-5.29s-.68,1.14-4.01,0c-2.18-.74-2.88-.21-4.74,1.06-.26-1.89-1.11-1.89-2.65-2.11.62-4.05-1.01-11.69.4-15.19s10.48-5.12,12.95-8.04c.83-.97.48-2.63,1.97-3.2,2.29,7.67,5.47,16.52,5.83,24.55.23,5.18-.47,6.46-5.3,8.22h0Z"/>
  <path class="cls-4" d="M65.13,82.28l11.64,15.58c15.11,22.52,70.5,21.22,85.25.77,1.64-2.27,3.86-7.76-.76-7.36.17-.22-.05-1.3.85-1.55,1.97-.54,4.17,3.1,4.43,4.72.07.42.04,1.13,0,1.59-.06.63-.34,1.05-.53,1.59-7.26,20.22-49.78,22.77-66.95,18.11-17.13-4.65-23.94-14.66-34.33-27.76-.33-.57-.14-1.35-.13-1.98.02-1.35.48-2.47.53-3.7h0Z"/>
  <path class="cls-12" d="M19.7,8.29c10.77-1.47,24.44,1.29,34.47,5.41,4.19,1.72,7.54,2.9,8.6,7.78.16.72.9,3.53-.48,3.14-3.01-1.53-5.03-2.6-8.25-3.64-.33-2.02-4.45-2.81-6.35-3.43-9.03-2.93-19.21-4.25-28.71-3.38-1.22.11-4.24.05-3.5,2.05-.53.03-1.06,0-1.58,0-.56,0-3.44-1.14-3.17,1.06-.73-.08-1.13-.12-1.57-.79,1.01-1.15,1.34-3.03,2.17-4.19.58-.82,1.39-.71,1.52-.84,1.08-.36,2.9-.8,2.64-2.11.94-.27,2.18-.34,3.17-.53l1.05.53v-1.05h-.01Z"/>
  <path class="cls-13" d="M2.8,48.45c1.77.24,2.27,2.89,3.42,4.24,7.82,9.27,21.19,11.16,32.7,9.96,4.73-.49,8.32-2.76,12.47-4.69-1.75,8.44-8.75,14.71-16.18,18.42-1.79.89-3.85.8-4.94,2.72-.84-3.37-1.33-6.41-3.17-9.51h9.24c.47,0,4.38-1.81,3.43-2.64-3.01-.26-5.72.61-8.74.55-10.96-.23-25.66-7.55-28.23-19.05Z"/>
  <path class="cls-15" d="M39.25,142.53c-.34-3.93-1.07-7.36-5.8-4.76.17-1.23-1.42-2.39-1.59-3.17-.62-2.77.45-7.53,0-10.57.53-1.84.86-3.46,1.58-5.29,2.97.51,4.3,2.43,6.37,3.93,1.08.78,3.11,1.48,3.95,2.39,2.84,3.12.32,12.02.69,16.05-.45,1.3-3.94,2.2-5.2,1.41h0Z"/>
  <path class="cls-13" d="M33.44,118.75c.39-.99,2.04-5.81,2.91-5.8,4.49,5.56,10.19,10,16.67,13.03l-2.1,16.34c-3.27,2.61-7.71,2.39-11.66,2.34-.05-.7.06-1.42,0-2.12,1.25.8,4.75-.11,5.2-1.41-.37-4.04,2.15-12.94-.69-16.05-.84-.92-2.87-1.62-3.95-2.39-2.07-1.5-3.4-3.42-6.37-3.93h-.01Z"/>
  <path class="cls-13" d="M72.52,105.53c-2.46-.28-4.81-4.04-6.27-6.15-.45-.65-.46-1.73-.88-2.29-.93-1.25-3.14,1.2-4.45,1.86-1.53.76-6.42,2.2-6.82,3.78.13,2.16,2.14,3.84,2.86,5.96.54,1.59-.66,3.72,1.83,3.19-.26.03-.79.52-1.78.57-2.46.11-4.79-.22-7.19-.57.33-1.14,2.16-.05,2.91-1.58,1.9-3.86-2.02-12.12-4.49-15.32,3.66-.52,7.41-1.48,10.55-3.47.48-.31.47-1.24.54-1.29.26-.19,2.42-.28,2.98-1.54,1.24-.24,6.73,8.43,7.89,9.96,1.28,1.67,3.14,2.91,4.21,4.81.3.86-1.37,1.65-1.87,2.11l-.02-.03Z"/>
  <path class="cls-5" d="M75.69,106.06c-.97,2.2-.29,3.99,1.06,5.81-2.18,1.84-2.48,6.18-4.23,7.93-2.54-.53-5.37.57-7.66.57-5.76,0-12.11-3.76-17.89-4.24l-.34-2.67c6.75,2.36,16.85,1.14,22.89-2.73,1.97-1.26,4.07-4.05,6.16-4.67h0Z"/>
  <path class="cls-8" d="M124.28,122.45c-.22.39-.18,1.12-.6,1.76-1,1.54-4.59,5.85-6.07,6.63-2.94,1.54-6.44.55-9.44,1.65h-8.72c-.39-2.08,1.53-2.33,2.65-3.43,1.53-1.5,4.16-3.88,5.27-5.56,1.43,1.3,2.69-.84,4.47-1.08,3.74-.51,8.56.42,12.44.02h0Z"/>
  <path class="cls-15" d="M72.52,105.53c-4.68,4.18-7.57,5.55-13.73,6.34-2.49.53-1.29-1.59-1.83-3.19-.72-2.11-2.73-3.79-2.86-5.96.41-1.58,5.3-3.02,6.82-3.78,1.32-.65,3.52-3.11,4.45-1.86.42.56.43,1.64.88,2.29,1.46,2.11,3.81,5.87,6.27,6.15h0Z"/>
  <path class="cls-13" d="M126.92,131.96c1.43,10.24-7,11.08-15,9.99-3.49-.48-7.54-3.25-4.73-6.75l19.73-3.24Z"/>
  <path class="cls-8" d="M46.64,113.46l.34,2.67c5.77.49,12.12,4.24,17.89,4.24,2.29,0,5.11-1.1,7.66-.57-3.17,3.16-14.8,3.45-19.04,2.4-7.22-1.78-9.5-4.33-13.71-9.8l.03-1.02,2.08-.57c.86.53,4.09,2.41,4.75,2.64h0Z"/>
  <path class="cls-13" d="M156.5,111.88c-1.48.57-1.14,2.22-1.97,3.2-2.47,2.92-11.55,4.55-12.95,8.04s.22,11.14-.4,15.19c-.67-.1-1.42.09-2.11,0-.26-5.3-2.64-15.69.48-20.25.63-.91,4.73-1.38,6.13-1.93,1.78-.7,9.65-5,10.54-4.77l.27.53h0Z"/>
  <polygon class="cls-8" points="136.96 118.75 135.86 126.63 121.65 130.37 128.19 119.75 136.96 118.75"/>
  <path class="cls-13" d="M98.4,118.22c.51.96-.5,2.27-.53,2.64l-1.06.53c.06-.51-.03-1.07,0-1.58l-1.05,1.82-1.05.28c-.51-2.23-4.32-2.23-6.18-3.06-1.4-.62-2.79-1.41-4.04-2.3-2.51-1.79-3.52-1.97-2.5-5.15l-3.39-1.14-1.1.55c-.24.29-.17.73-.23,1.07h-.53c-1.34-1.83-2.03-3.62-1.06-5.81,1.69-.5,4.88,3.43,6.37,4.46,3.92,2.7,11.78,6.54,16.34,7.7h.01Z"/>
  <path class="cls-11" d="M55.09,79.11c1.55-1.66,2.69-3.89,4.07-5.67.34-.44,0-.97,1.21-.67.5,2.91.39,5.26-.03,8.18l1.65.57c.18.87-.21,4.14-.56,5-.13.32-1.89,2.48-2.11,2.64-.15.11-.73.35-1.06.53-2.63,1.44-12.57,4.29-15.02,2.6-1.09-.75-.59-1.36-.83-2.07,1.41-1.64,2.78-.34,4.46-.51,1.96-.19,4.91-.93,6.1-2.67,2.79,1.74,4.51,1.09,6.9-.89-.36-2.75-1.83-4.72-.57-7.56l-4.22.52h.01Z"/>
  <path class="cls-15" d="M40.83,3.53c6.39.93,7.54,2.77,12.15,6.34l-.53,1.06c-5.81-2.11-11.85-3.7-17.96-4.76-1.66-.29-4.23-1.35-5.81,0h-1.06v-.72l-1.06-.6c-.21-.98.44-.76,1.06-1.32.17-.03.36.03.53,0,4.33-.67,8.35-.63,12.68,0Z"/>
  <path class="cls-13" d="M176.05,99.2c-2.07,6.52-8.85,9.93-14.79,12.15-.9-.93,4.66-9.2,5.5-10.61l9.29-1.54Z"/>
  <path class="cls-11" d="M45.95,95.66c2.72,2.45,5.01,9.38,4.39,13.04-4.79-.9-10.16-4.54-9.5-10.04l4.22,2.64-1.05-6.34c.72-.08,1.43.23,1.95.69h-.01Z"/>
  <path class="cls-11" d="M54.04,20.97c-14.11-4.55-23.77-5.51-38.56-4.76-.74-2,2.28-1.94,3.5-2.05,9.5-.87,19.68.45,28.71,3.38,1.89.61,6.02,1.4,6.35,3.43Z"/>
  <path class="cls-8" d="M65.39,124.56c1.85-.21,4.83-1.32,6.6-2.11-.43,1.96-.56,4.14-1.06,6.08-.2.8.42.77-.78.82-2.21.08-4.46-.91-6.6-1.35l-6.88-3.42c2.79-.22,5.98.31,8.72,0v-.02Z"/>
  <path class="cls-13" d="M96.29,148.87c-.04-1.26-1.51-1.38-1.62-2.35-.47-3.96-.47-15.65,0-19.61.12-1.03,1.23-.96,1.62-1.83-.02,2.29.53,4.91.53,6.61v9.51c0,.19.52.87.55,1.56.11,2.74.32,3.73-1.07,6.1h-.01Z"/>
  <path class="cls-2" d="M73.53,14.68l1.59,5.72c-.17.25-5.42,1.22-5.94,1.12-.37-.07-.28-.95-.72-1.06-1.21-.3-6.39-.56-2.64-2.76,1.1-.64,6.94-3.57,7.71-3.02Z"/>
  <path class="cls-5" d="M107.38,123.5c.4-.61.56-2.51,1.32-3.18,1.57-1.39,5.31.01,7.37.03,3.38.03,6.44-.78,9.8-.55,0,1.17-1.27,2.07-1.58,2.64-3.88.4-8.7-.53-12.44-.02-1.77.24-3.04,2.38-4.47,1.08Z"/>
  <path class="cls-11" d="M37,86.06c5.1-.91,3.64,7.3,1.4,7.72-5.59,1.06-5.77-6.94-1.4-7.72Z"/>
  <path class="cls-12" d="M29.74,96.02l1.03,2.96,2.13-.31-1.05,5.28-5.28.53c-.02-.7.01-1.41,0-2.12-.03-2.56.16-3.62,1.76-5.66.33-.42,1.16-.45,1.41-.68Z"/>
  <path class="cls-11" d="M30.79,91.26c-4.2-1.96-3.85-7.06-4.22-11.1l6.26,5.63-2.04,5.47Z"/>
  <path class="cls-11" d="M63.54,51.1c2.93-1.15,10.95-10.44,10.5-2.71-3.76.56-6.31,4.55-9.97,4.82.04-.62-.54-1.54-.53-2.11Z"/>
  <path class="cls-2" d="M69.88,26.26c1.5.41,3.38,1.75,5.27,1.61-.25,7.08-9.68,3.99-7.91-2.13.61.05,2,.36,2.64.53h0Z"/>
  <path class="cls-5" d="M100.52,118.75c1.48.32,3.88.21,5.54.55.65.13.96-.39.8.78-.28,2.11-4.65,5.66-6.35,7.13v-8.46h0Z"/>
  <path class="cls-13" d="M73.58,127.2l1.58-1.05c.31,2.26-.45,4.38-.57,6.59-.18,3.31.32,2.7-.58,6.26-.53,2.1,0,3.25-2.02,4.59-.37-5.4.82-11.1,1.58-16.38h0Z"/>
  <path class="cls-11" d="M48.75,83.86c-.09.92.09,1.84,1.06,2.11-.05.03.17.8-.38,1.04-2.11.93-5.22,1.31-7.54,1.6-.12-.68-.61-2.24-.32-2.66.86-.69,1.95-.77,2.96-1.04,1.44-.39,2.38-.18,4.23-1.06h0Z"/>
  <path class="cls-11" d="M29.74,96.02c.21-.19.18-2.1,1.55-1.55.49,1.26,1.59,1.4,1.1,3.13.86.23.37-.74.61-.91,1.97-1.42,2.43,2.87,1.73,4.59-.62,1.54-2.14,2.01-2.88,2.66-.09.08,0,.92-.54,1.29-1.65,1.12-4.36,1.55-6.33,1.35.78-.97-.31-4.52,1.58-4.22,0,.71-.02,1.41,0,2.12l5.28-.53,1.05-5.28-2.13.31-1.03-2.96h.01Z"/>
  <path class="cls-14" d="M157.03,144.64c-.38.14-1.37-.15-1.58,0-.8-3.74-4.3-5.12-4.23,0h-2.11c.06-.31-.02-.71,0-1.06,0-.08.64-.49.55-1.26-.11-.95-1.34-1.77-1.08-2.97,3.33,1.13,1.27.34,4.01,0s4.46,2.92,4.44,5.29Z"/>
  <path class="cls-15" d="M100.52,118.75v8.46c-.59.51-.81,1.88-2.11,1.58.42-2.68-.71-5.29-.53-7.93.03-.37,1.04-1.68.53-2.64.65.17,1.49.39,2.11.53Z"/>
  <path class="cls-8" d="M83.09,154.16l-4.7-.58c-.4-7.52,5.37-6.37,4.7.58Z"/>
  <path class="cls-8" d="M89.95,153.62l-5.29.53c-.52-6.4,4.94-7.58,5.29-.53Z"/>
  <path class="cls-16" d="M49.81,85.98c.13-.07,2.47-.1,2.82-.01.6.15.3,1.04.35,1.07-1.19,1.74-4.14,2.48-6.1,2.67-1.68.16-3.05-1.13-4.46.51-.19-.57-.38-.73-.53-1.59,2.32-.29,5.43-.67,7.54-1.6.56-.24.33-1.01.38-1.04h0Z"/>
  <path class="cls-13" d="M80.97,146.23c.21-.11.46-1.2,1.41-1.48,1.05-.31,5.18-.12,5.86.55.32.32.27,1.42.65,1.98-2.03-1.39-3.21.31-4.94,1l-2.98-2.06h0Z"/>
  <path class="cls-5" d="M149.11,143.59c-.02.35.06.75,0,1.06-.12.63.09,1.44,0,2.11-6.6.49-3.39-9.57,0-3.17Z"/>
  <path class="cls-6" d="M155.45,144.64s.23.72-.39,1.03c-.42.21-3.02.62-3.57.56-.51-.13-.26-1.13-.27-1.59-.07-5.12,3.43-3.74,4.23,0h0Z"/>
  <path class="cls-5" d="M37.66,144.12l-3.48-.5.85-4.78c3.22-.22,2.69,2.89,2.63,5.28Z"/>
  <path class="cls-5" d="M76.21,153.1l-3.46-3.67c-1.14-3.65,2.94-3.67,3.77-.02.34,1.47-.12,2.31-.31,3.7h0Z"/>
  <path class="cls-13" d="M31.85,134.6l-2.14-.88c.18-2.65.69-5.56,1.33-8.14.2-.8.75-1.34.81-1.55.45,3.04-.62,7.8,0,10.57h0Z"/>
  <path class="cls-13" d="M37.14,98.66l5.02,9.5c-3.98-2.19-6.33-4.76-5.02-9.5Z"/>
  <path class="cls-5" d="M32.38,142.53c-1.08,1.24-5.01-5.61-2.37-6.86,2.44,1.78,2.63,4,2.37,6.86Z"/>
  <path class="cls-5" d="M37.13,107.12c1.62,1.21,3.04,2.65,4.75,3.7l-2.08.57-.03,1.02c-1.69-2.2-1.61-1.43-3.17-4.76,0,0,.53-.53.53-.53Z"/>
  <path class="cls-8" d="M143.3,145.17c-.64.62-5.81-3.07-3.71-4.51,3.04-1.28,3.23,2.49,3.71,4.51Z"/>
  <path class="cls-13" d="M27.63,3.53c-.62.56-1.28.34-1.06,1.32l1.07.6v.72c-1.94-.02-3.88.02-5.82,0,1.13-1.73,3.89-2.29,5.81-2.64Z"/>
  <path class="cls-13" d="M40.83,3.53c-4.32-.63-8.35-.67-12.68,0,3.32-1.68,9.43-1.66,12.68,0Z"/>
  <path class="cls-13" d="M52.98,9.87c.34.26,3.01.07,2.64,2.11-.31.3-2.53-.83-3.17-1.05,0,0,.53-1.06.53-1.06Z"/>
  <path class="cls-11" d="M13.89,16.21c-.67,1.01-2.04,1.18-3.17,1.06-.27-2.2,2.61-1.05,3.17-1.06Z"/>
  <path class="cls-13" d="M34.49,6.17h-5.81c1.58-1.35,4.15-.29,5.81,0Z"/>
  <path class="cls-2" d="M15.48,9.34c.26,1.31-1.56,1.75-2.64,2.11.94-.94-.18-1.3,2.64-2.11Z"/>
  <path class="cls-1" d="M37.13,107.12l-.53.53c-.07-.16-.92-.41-1.05-.8v-.79h.78c.41.14.58.89.8,1.05h0Z"/>
  <path class="cls-16" d="M59.32,89.15v1.06h-.79l-.27-.53c.32-.18.91-.42,1.06-.53Z"/>
  <path class="cls-2" d="M19.7,8.29v1.05l-1.06-.53c.06-.01.15-.4,1.06-.53h0Z"/>
  <path class="cls-13" d="M47.7,110.82c.51.06,1.06-.05,1.58,0v.52c-.88.3-1.11-.29-1.58-.52Z"/>
  <path class="cls-13" d="M73.05,145.17c-.42-.08-1,.16-1.06-.53l1.06.53Z"/>
  <rect class="cls-17" x="45.06" y="109.77" width="1.05" height=".52"/>
  <path class="cls-17" d="M47.7,110.82c-.34-.04-.71.03-1.05,0v-.52c.98-.29.9.45,1.05.52Z"/>
  <path class="cls-13" d="M43.21,108.18c.34.18.34.35,0,.53v-.53Z"/>
  <path class="cls-13" d="M75.16,145.17c-.15-.05-.35.04-.53,0l.27-.52.26.52Z"/>
  <path class="cls-1" d="M35.29,105.01c.34.18.34.35,0,.53v-.53Z"/>
  <path class="cls-13" d="M56.41,11.99c.34.18.34.35,0,.53v-.53Z"/>
  <path class="cls-18" d="M147.5,99.7c-.69.05-1.42.01-2.09.27-11.59,4.57-22.43,6.85-34.98,4.89-4.86-.76-9.38-2.76-14.16-3.8l-.52-1.06c.58-11.92,3.57-23.65,5.24-35.46,1.44-2.07,9.75-2.04,12.39-2.4,3.91-.53,14.38-2.83,17.52-1.02,2.38,1.37,8.08,12.85,9.47,15.89s8.5,21.31,7.12,22.7h0Z"/>
  <path class="cls-18" d="M75.58,50.69c1.14-.14,1.66-.12,2.78.1,3.44.7,14.57,7.48,17.57,9.91.65.53,1.57.98,1.83,1.86l-5.45,36.63c-6.89-3.2-10.41-10.41-15.3-15.87-5.12-5.71-10.94-9.6-16.57-14.64.26-2.92.4-6.92,2.03-9.41,1.46-2.23,10.41-8.25,13.1-8.59h.01Z"/>
  <path class="cls-18" d="M98.82,37.51c12.99-.48,24.65,1.9,35.68,8.91.69.44,2.46,1.89,2.38,2.74s-5.11,7.88-6.11,8.17c-2.58.75-8.82-.11-12.03.12-4.41.31-15.43,3.45-18.79,2.4-2.14-.67-9.17-6.4-12.11-7.97-3.71-1.98-7.86-2.96-11.37-5-.47-.94-.56-3.2.25-3.99.19-.18,4.08-1.83,4.77-2.09,5.51-2.12,11.44-3.06,17.32-3.28h.01Z"/>
  <path class="cls-19" d="M65.13,82.28c.12-3.31-1.62-4.52-1.32-7.4,11.05,6.24,15.05,18.9,25.66,25.59,19.87,12.51,56.6,9.81,71.79-9.21,4.61-.4,2.4,5.09.76,7.36-14.75,20.45-70.14,21.74-85.25-.77l-11.64-15.58h0Z"/>
  <path class="cls-18" d="M150.17,97.08c-2.86-13.97-9.12-26.29-16.29-38.45-.22-1.02,4.01-8.03,4.48-8.1.7-.12,1.71.41,2.27.87,5.4,4.34,15.03,17.87,16.69,24.52-.43,2.96,2.76,10.72,2.25,12.83-.48,1.96-7.64,9.62-9.39,8.33h-.01Z"/>
  <path class="cls-12" d="M55.09,79.11l4.22-.52c-1.26,2.84.21,4.81.57,7.56-2.39,1.98-4.11,2.63-6.9.89-.05-.03.25-.92-.35-1.07-.35-.09-2.7-.06-2.82.01-.97-.28-1.15-1.19-1.06-2.11,1.84-.87,4.91-3.23,6.34-4.76Z"/>
  <path class="cls-3" d="M41.36,46.34c.3.32-.04,1.81-.52,2.38-1.76,2.05-8.22,1.46-10.71,1.97-2.24.46-2.7,2.4-5.95,2.03-1.74-.2-2.01-1.33-3.4-1.9-2.93-1.18-8.04-1.35-7.93-5.54l11.92,5.28c1.84-.08,3.15-1.46,4.87-1.96,2.93-.85,5.73-.23,8.19-.79.82-.19,2.93-2.12,3.54-1.47h0Z"/>
  <path class="cls-3" d="M13.76,28.44c3.83-.55,4.57,8.42.9,8.93-4.82.67-4.86-8.37-.9-8.93Z"/>
  <path class="cls-16" d="M43.88,30.61c1.78,1.85,1.13,9.1-2.53,8.12-5.45-1.47-1.28-12.07,2.53-8.12Z"/>
  <polygon class="cls-10" points="26.57 41.05 26.63 39.27 27.88 38.41 28.68 39.73 27.36 41.05 26.57 41.05"/>
  <path class="cls-14" d="M22.09,38.41c1.9-.42,1.11,2.62,0,2.63-.83,0-1.2-2.36,0-2.63Z"/>
</svg>