<?xml version="1.0" encoding="UTF-8"?>
<svg id="_레이어_1" data-name="레이어 1" xmlns="http://www.w3.org/2000/svg" viewBox="0 0 126.07 115.73">
  <defs>
    <style>
      .cls-1 {
        fill: #702946;
      }

      .cls-2 {
        fill: #946c75;
      }

      .cls-3 {
        fill: #58223c;
      }
    </style>
  </defs>
  <path class="cls-1" d="M47.42,2.86c6.4,2.76,11.8,9.13,15.68,14.77,1.86-2.21,3.09-4.94,5.03-7.08C76.75,1.01,91.68-2.4,103.74,1.84c23.71,8.35,27.38,36.88,16.44,56.89l-31.92.26-6.99-23.46c-2.32-3.77-5.47-2.98-7.1.85-4.43,10.37-6.34,25.49-10.1,36.61-.26.78-.17,1.8-1.26,1.99l-10.81-48.62c-.8-3.77-6.03-4.05-7.24-.45l-8.64,33.04-29.72-.03C.29,49.33-1.45,36,1.2,24.95,6.08,4.68,28.41-5.33,47.42,2.86Z"/>
  <path class="cls-2" d="M114.85,66.71c.16.16.55.57.59.59-.15.22-.45.38-.59.59l-29.57-.59v-.59c8.93,1.2,20.37-.89,29.57,0Z"/>
  <path class="cls-1" d="M114.26,69.07c-12.86,18.83-31.92,34.66-51.16,46.66-1.88,0-15.71-10.42-18.17-12.38-10.11-8.03-20.26-17.32-28.26-27.5-2.1-2.67-4.79-6-5.93-9.15h29.28c.45,0,2.06-2.27,2.37-2.95,2.25-5.03,3.73-14.7,5.03-20.4.21-.92-.39-1.03,1.17-.88l10.8,48.62c.68,2.89,3.84,3.55,6.2,2.07l11.98-43c1.56-.17.93.03,1.19.87.77,2.56,4.01,14.62,5.45,15.56.32.28.72.08,1.04.12v.59l.36.51c2.58-.89,3.31,1.26,3.51,1.29,1.41.19,2.21-1.21,2.34-1.21h19.82v1.16s1.16-.02,1.16-.02l.32-1.15,1.48,1.2Z"/>
  <path class="cls-3" d="M114.85,67.89c-.32.47-.44.96-.59,1.18l-1.48-1.2-.32,1.15-1.14.02v-1.16h-19.83c-.13,0-.92,1.4-2.34,1.21-.21-.03-.93-2.18-3.51-1.29l-.36-.51,29.57.59Z"/>
</svg>