<?xml version="1.0" encoding="UTF-8"?>
<svg id="_레이어_1" data-name="레이어 1" xmlns="http://www.w3.org/2000/svg" viewBox="0 0 135.23 131.46">
  <defs>
    <style>
      .cls-1 {
        fill: #fbfaf8;
      }

      .cls-2 {
        fill: #501f2e;
      }

      .cls-3 {
        fill: #6e2a40;
      }

      .cls-4 {
        fill: #fcfbfa;
      }

      .cls-5 {
        fill: #4b1425;
      }

      .cls-6 {
        fill: #4f182a;
      }

      .cls-7 {
        fill: #762241;
      }

      .cls-8 {
        fill: #5a2836;
      }
    </style>
  </defs>
  <path class="cls-1" d="M63.24.14c58.73-3.64,95.15,63.75,55.15,108.96-34.26,38.72-100.3,24.97-115.51-24.59C-9.82,43.15,21.11,2.75,63.24.14ZM29.17,17.69c-4.43,2.02-12.46,11.87-15.13,16.16-21.67,34.85-2.7,79.37,35.94,90.32,49.02,13.89,94.92-32.59,75.8-81.24-3.99-10.15-14.04-22.78-23.7-27.93-12.54-9-29.81-11.86-44.98-9.5-9.72,1.51-20.43,5.84-27.93,12.18Z"/>
  <path class="cls-7" d="M29.17,17.69c.63-.29,1.73-.19,2.2-.49.4-.26,1.53-2.33,2.63-2.56.56-.2.85,1.42,1.69.74s-1.17-.79-.76-1.15c.92-.81,2.57-1.34,3.81-1.2l.06-1.05c1.46.32,1.4-.65,1.98-.93,1.58-.75,2.47-.52,4.13-.28l-.39-1.14c2.56-.98,4.84-1.92,7.68-1.55l-.76-.76c1.65-.12,3.31-.79,4.91-1.04,9.8-1.56,21.06-.72,30.42,1.98.39.11,4.42,1.3,3.82,1.75l-1.53.38,5.37.39-.2,1.14,2.12.02-1.15,1.14c2.36-.39,3.48.31,5.43,1.2.26.12,1.28.62,1.47.72,9.67,5.16,19.72,17.79,23.7,27.93,19.11,48.64-26.78,95.13-75.8,81.24C11.34,113.23-7.63,68.71,14.04,33.86c2.67-4.29,10.69-14.15,15.13-16.16ZM46.63,10.01v.38c.25-.13.25-.26,0-.38ZM37.99,92.59c-.52,3.99-2.05,13.68,4.38,13.42,1.23-.05,4.81-2.74,5.95-3.66,3.6-2.89,9.06-9.38,13.64-9.77,9.08-.78,18.92.89,28.02.01,5.6-.54,10.97-4.79,11.66-10.6.84-7.04-.6-15.36.12-22.54,1.93-1.8,3.77-2.13,5.67-4.31,12.8-14.71-2.4-34.75-20.15-28.61-5.03,1.74-8.04,5.62-10.79,9.94l-42.15.06c-6.61.83-11.04,5.93-11.7,12.49-1.03,10.34.69,22.41.09,32.93,1.84,7.4,7.64,11.42,15.26,10.65Z"/>
  <path class="cls-3" d="M102.08,15.01c-.19-.1-1.21-.6-1.47-.72-1.95-.89-3.08-1.59-5.43-1.2l1.15-1.14-2.12-.02.2-1.14-5.37-.39,1.53-.38c.6-.44-3.43-1.63-3.82-1.75-9.36-2.7-20.62-3.54-30.42-1.98-1.6.26-3.25.93-4.91,1.04l.76.76c-2.84-.37-5.11.57-7.68,1.55l.39,1.14c-1.66-.24-2.55-.48-4.13.28-.58.28-.52,1.25-1.98.93l-.06,1.05c-1.24-.13-2.89.39-3.81,1.2-.4.36,1.6.46.76,1.15s-1.13-.94-1.69-.74c-1.11.22-2.23,2.29-2.63,2.56-.46.3-1.57.2-2.2.49,7.49-6.34,18.21-10.67,27.93-12.18,15.17-2.37,32.44.49,44.98,9.5Z"/>
  <path class="cls-6" d="M37.99,92.59c-7.62.76-13.42-3.25-15.26-10.65.6-10.52-1.12-22.59-.09-32.93.65-6.56,5.09-11.66,11.7-12.49l42.15-.06c2.75-4.31,5.76-8.2,10.79-9.94,17.75-6.13,32.95,13.91,20.15,28.61-1.9,2.18-3.74,2.51-5.67,4.31-.72,7.18.72,15.5-.12,22.54-.69,5.81-6.07,10.06-11.66,10.6-9.1.88-18.95-.79-28.02-.01-4.58.39-10.04,6.89-13.64,9.77-1.14.92-4.72,3.61-5.95,3.66-6.43.26-4.9-9.42-4.38-13.42ZM91.63,28.93c-5.16.71-11.27,5.63-12.1,10.94-2.99,19.32,23.44,23.81,28.42,7.32,3.1-10.28-6.01-19.67-16.33-18.26ZM75.6,39.97h-42.02c-.18,0-2.89,1.5-3.24,1.75-2.4,1.73-3.79,4.47-4.14,7.38-.85,7.12-.74,22.94-.06,30.18.4,4.32,3.06,8.87,7.61,9.67,2.63.47,5.65-.6,7.69,1.13v11.91l.78.41,16.48-13.09,31.95-.28c2.57-.38,4.97-2.29,6.2-4.55.19-.35,1.38-3.05,1.38-3.23v-20.93c-12.4,3.13-24.69-7.55-22.64-20.35Z"/>
  <path class="cls-3" d="M46.63,10.01c.25.13.25.26,0,.38v-.38Z"/>
  <path class="cls-4" d="M75.6,39.97c-2.05,12.81,10.24,23.48,22.64,20.35v20.93c0,.18-1.19,2.87-1.38,3.23-1.23,2.25-3.63,4.17-6.2,4.55l-31.95.28-16.48,13.09-.78-.41v-11.91c-2.04-1.73-5.06-.67-7.69-1.13-4.55-.8-7.2-5.35-7.61-9.67-.68-7.25-.79-23.06.06-30.18.35-2.91,1.74-5.65,4.14-7.38.35-.25,3.05-1.75,3.24-1.75h42.02ZM37.8,52.26c-1.31.52-.87,3.46,0,3.46h33.39c1.21,0,1.21-3.46,0-3.46h-33.39ZM37.32,65.99c.43.43,1.4.44,2,.49,14.84,1.26,31.44-.99,46.47,0,2.63-.27,2.33-3.96-.39-3.86l-47.3.3c-1.24.39-1.71,2.14-.77,3.07ZM37.8,76.84h48.74c1.21,0,1.21-3.46,0-3.46h-48.35c-1.39,0-1.88,3.03-.38,3.46Z"/>
  <path class="cls-1" d="M91.63,28.93c10.31-1.41,19.43,7.98,16.33,18.26-4.98,16.49-31.41,12-28.42-7.32.82-5.31,6.93-10.23,12.1-10.94ZM93.53,32.73c-.57.13-1.3,1.07-1.42,1.68-.19,1.02-.18,8.27.07,9.13.33,1.12,8.24,6.9,9.08,3.84.73-2.67-4.29-3.63-5.5-5.49-.9-1.98,1.31-9.98-2.23-9.16Z"/>
  <path class="cls-8" d="M37.32,65.99c-.93-.93-.47-2.68.77-3.07l47.3-.3c2.73-.09,3.03,3.6.39,3.86-15.03-.99-31.63,1.26-46.47,0-.6-.05-1.57-.06-2-.49Z"/>
  <path class="cls-5" d="M37.8,76.84c-1.5-.42-1.01-3.46.38-3.46h48.35c1.21,0,1.21,3.46,0,3.46h-48.74Z"/>
  <path class="cls-5" d="M37.8,52.26h33.39c1.21,0,1.21,3.46,0,3.46h-33.39c-.87,0-1.31-2.93,0-3.46Z"/>
  <path class="cls-2" d="M93.53,32.73c3.54-.82,1.33,7.18,2.23,9.16,1.22,1.86,6.24,2.82,5.5,5.49-.84,3.06-8.75-2.71-9.08-3.84-.25-.86-.26-8.11-.07-9.13.12-.62.84-1.55,1.42-1.68Z"/>
</svg>