<?xml version="1.0" encoding="UTF-8"?>
<svg id="_레이어_1" data-name=" 레이어 1" xmlns="http://www.w3.org/2000/svg" viewBox="0 0 89.88 80.62">
  <defs>
    <style>
      .cls-1 {
        fill: #501f2e;
      }

      .cls-2 {
        fill: #4b1425;
      }

      .cls-3 {
        fill: #4f182a;
      }

      .cls-4 {
        fill: #5a2836;
      }
    </style>
  </defs>
  <path class="cls-3" d="M15.69,67.2c-7.62.76-13.42-3.25-15.26-10.65.6-10.52-1.12-22.59-.09-32.93.65-6.56,5.09-11.66,11.7-12.49l42.15-.06c2.75-4.31,5.76-8.2,10.79-9.94,17.75-6.13,32.95,13.91,20.15,28.61-1.9,2.18-3.74,2.51-5.67,4.31-.72,7.18.72,15.5-.12,22.54-.69,5.81-6.07,10.06-11.66,10.6-9.1.88-18.95-.79-28.02-.01-4.58.39-10.04,6.89-13.64,9.77-1.14.92-4.72,3.61-5.95,3.66-6.43.26-4.9-9.42-4.38-13.42h0ZM69.33,3.54c-5.16.71-11.27,5.63-12.1,10.94-2.99,19.32,23.44,23.81,28.42,7.32,3.1-10.28-6.01-19.67-16.33-18.26h.01ZM53.3,14.58H11.28c-.18,0-2.89,1.5-3.24,1.75-2.4,1.73-3.79,4.47-4.14,7.38-.85,7.12-.74,22.94-.06,30.18.4,4.32,3.06,8.87,7.61,9.67,2.63.47,5.65-.6,7.69,1.13v11.91l.78.41,16.48-13.09,31.95-.28c2.57-.38,4.97-2.29,6.2-4.55.19-.35,1.38-3.05,1.38-3.23v-20.93c-12.4,3.13-24.69-7.55-22.64-20.35h.01Z"/>
  <path class="cls-4" d="M15.02,40.6c-.93-.93-.47-2.68.77-3.07l47.3-.3c2.73-.09,3.03,3.6.39,3.86-15.03-.99-31.63,1.26-46.47,0-.6-.05-1.57-.06-2-.49h.01Z"/>
  <path class="cls-2" d="M15.5,51.45c-1.5-.42-1.01-3.46.38-3.46h48.35c1.21,0,1.21,3.46,0,3.46H15.49h.01Z"/>
  <path class="cls-2" d="M15.5,26.87h33.39c1.21,0,1.21,3.46,0,3.46H15.5c-.87,0-1.31-2.93,0-3.46Z"/>
  <path class="cls-1" d="M71.23,7.34c3.54-.82,1.33,7.18,2.23,9.16,1.22,1.86,6.24,2.82,5.5,5.49-.84,3.06-8.75-2.71-9.08-3.84-.25-.86-.26-8.11-.07-9.13.12-.62.84-1.55,1.42-1.68Z"/>
</svg>