<?xml version="1.0" encoding="UTF-8"?>
<svg id="_레이어_1" data-name="레이어 1" xmlns="http://www.w3.org/2000/svg" viewBox="0 0 135.26 131.5">
  <defs>
    <style>
      .cls-1 {
        fill: #fbfaf8;
      }

      .cls-2 {
        fill: #803348;
      }

      .cls-3 {
        fill: #75233e;
      }

      .cls-4 {
        fill: #501f2e;
      }

      .cls-5 {
        fill: #752341;
      }

      .cls-6 {
        fill: #772341;
      }

      .cls-7 {
        fill: #fcfbfa;
      }

      .cls-8 {
        fill: #f7f1f1;
      }

      .cls-9 {
        fill: #aa636b;
      }

      .cls-10 {
        fill: #4d1a2a;
      }

      .cls-11 {
        fill: #fdfcfb;
      }

      .cls-12 {
        fill: #e4d4d3;
      }
    </style>
  </defs>
  <path class="cls-1" d="M62.48.16c59.8-3.9,96.19,63.54,55.54,109.35-30.86,34.77-89.34,27-110.65-14.09C-14.74,52.78,15.62,3.21,62.48.16ZM62.56,5.04c-3.92.21-8.09.96-11.9,1.92-.98.25-1.56.55-2.3.77-1.26.38-2.6.71-3.84,1.15-1.1.39-2.22.67-3.07,1.54-1.31.5-2.01,1.05-3.07,1.54-.27.12-.51.26-.77.38-3.02,1.49-4.24,2.41-6.91,4.22-.39.27-.68.42-1.15.77-.22.16-.56.22-.77.38-1.38,1.06-2.55,1.83-3.84,3.07-1.04,1-2.61,2.69-3.45,3.84-1.12-.03-1.32,1.21-1.92,1.92-.12.14-.27.24-.38.38-1.63,1.98-2.52,3.2-3.84,5.38-1.43.67-1.7,2.35-2.3,3.46-.14.26-.25.52-.38.77-.07.13-.31.24-.38.38-.35.67-.5,1.35-.77,1.92-26.55,55.77,34.88,108.81,87.12,79.7,26.03-14.51,37.74-44.62,28.11-73.09-2.94-8.68-11.68-22.3-19.68-26.97-.34-.2-.61-.68-1.15-.77.19-.85-.47-.81-.95-1.14-6.61-4.56-14.39-8.46-21.69-9.99-3.19-.67-7.51-1.35-10.74-1.54-2.37-.68-5.36-.42-7.87-.39-.65,0-1.71-.25-2.11.39Z"/>
  <path class="cls-6" d="M28.79,18.48c.5-.05,1.03.03,1.53,0,.17.16-.38,1.18-.38,1.53-1.08,0-1.58-.43-3.07,0,.7-.62,1.01-1.44,1.92-1.54Z"/>
  <path class="cls-6" d="M38.38,11.95l5.86.31,2.15-.74c.1-2.5-.41-2.81,1.92-1.43-.27,1.11-.3,3.03,1.19,3.01-.45-2.38,3.4-1.39,4.07-2.28l-.22-2.33c2.03,1.04,2.22-.28,3.36-.67,1.26-.43,2.97-.49,4.31-.48l-1.92-1.53c2.07-.62,3.69,1.47,5.36,1.77,1.24.23,2.64-.87,3.27.92l.95-.28c.25-3.37,2.04-1.47,3.58-1.38,1.63.1,1.81-1.39,3.34-1.03l-.76,1.53c2.26-.36,3.66,1.17,5.9.41l.99,2.49c1.24-.29,2.72,1.21,3.35,1.27.4.04,2.56-1.48,2.43-2.25.25.02.52-.03.77,0l.74,3.29c1.6.6,2.14-.21,1.95-1.76h1.15c-.05.22.02.52,0,.77.25-.02.54.05.76,0v2.31s1.75-.37,1.75-.37c.23-.33-.06-1.28-.21-1.55,1.41-.09,3.38.42,4.22,1.54-.57-.18-1.43-.19-2.05-.41-1.33,2.27-4.53,2.25-3.33,5.4l-4.22-.76c-.41.98.76,1.88.77,2.5.02.97-2.32,1.7-1.16,3.64-3.6-.85-3.71,1.12-5.79,2.47-.4.26-3.69,1.74-4.03,1.76-1.35.09-1.92-1.12-2.83-1.37-.72-.19-2.27.31-3.23-.2l-.68,1.52-1.86.05v-2.46c-1.54-.93-1.78,1.29-2.49,2.08-.2.23-4.45,3.4-4.83,3.61-.88.5-4.79,1.19-4.93,1.4l.27,3.73c-2.48,1.74-5.04,2.52-6.05,5.65l-4.17.24c-.51,1.23-1.28,3.28-2.03,4.3-.57.78-2.72,2.02-2.63,2.93.34.1.66,0,.96.38.79.98-.8,1.32-.96-.38-.41-.12-2.52-.44-2.86-.4-1,.13-1.3,1.29-2.02,1.5-1.09.32-1.54-.69-2.15-.65-.66.05-1.65.99-2.74,1.01-1.92.05-3.89-1.59-5.96-1.09l.76-1.91h-2.3s1.16,4.4,1.16,4.4l-4.57,1.78c-.51,1.4.99.99,1.14,2.07.46,3.39-2.92,2.72-3.12,4.24-.1.76.41,1.49.37,2.25-.28,4.76-.52,5.12.54,9.92.22.99.97,1.42.27,2.99l2.3-.38c.2.54,1.94,3.75,2.3,4.22-2.22,2.65.97,2.93,1.17,5.37l.87-.06,2.96-1.47c1.59.68,5.82.93,6.52,1.34.2.12,2.7,3.01,3.06,3.46,4.58,5.8,6.01,16.99,16.04,14.12,3.79-1.09,7.05-3.48,6.13-7.89-.71-3.41-5.63-3.82-6.46-7.36,3.03-1.71,3.83-5,4.03-8.3.38-.56,7.97-.45,9.25-.38,4.37.24,9.99,1.27,14.31,2.19,3.27.7,6.72,2.99,9.04-1.45,1.63-3.12,1.11-11.63.62-15.32,1.53.23.34-1.89.93-2.72l1.76-.36c-1.36-3.09,1.76-2.97,2.58-4.33.25-.41.04-1.1.46-1.66.46-.62,1.67-.28,1.18-2.08,3.04-.67,4.38,4.3,3.84,6.27-.08.29-.65.25-.7.34-.31.5,1.1.92-.83,1.46-.21-.13-.26-.25-.38-.38-.08-.09,0-.56-.18-.78-.59-.68-2.03-.3-2.89-.37l.77.76c-1.94-.05-3.28,1.56-1.93,2.89s8.44,2.36,10.37,3.64l-1.15,1.53c2.56.47,3.81-.49,5.78-1.77-.64-1.69-.38-3.06-.03-4.76h-5.75c-.1-1.04,0-.62.58-.76,1.04-.24,3.9-.57,4.05-1.75.29-2.23-1.54-1.78-1.87-2.17-.1-.12-.32-2.38-.55-3.1-.17-.53-.83-.85-.97-1.33-.25-.87-.45-3.37-.08-4.34.09-.04.24-.27.38-.38l2.95,1.48c2.08.33-.2-5.07-.62-5.93l-6.16.23,1.53,1.15c-.39.1-1.23.56-1.92.77l-.45-1.88-1.08-.05c.25-4.01,2.16-.85,3.24-.78s5.03-1.95,3.42-2.67c-2.07.5-2.74-1.52-3.47-1.95-.57-.34-1.53-.2-2.04-.55-.93-.65-.98-3.74-.33-4.74,1.43-.08,3.63.08,3.4-1.97l-3.43,1.14c-.39-1.61-1.64-2.47-.79-4.22h-2.68s.36-2.67.36-2.67c-.59-.82-2.88.67-2.67-.6.24-1.47,2.06-1.48,2.25-1.78.2-.32.39-3.74.83-4.55,1.07-.22.75.39.77,1.15,1.63-.4,2.8-1.11,4.6-.77,8,4.66,16.74,18.28,19.68,26.97,9.63,28.47-2.08,58.58-28.11,73.09C46.39,147.65-15.03,94.61,11.52,38.84l.19.38h.96s0-2.3,0-2.3c.13,0,.26,0,.38,0,.92.06,3.47.8,3.84.58.1-.06,1.59-1.71,1.64-1.82,1.1-2.4.16-1.35,2.07-3.51,2.14-2.42.55-1.84.51-3.13s3.68-3.35,5-3.26l-.38-1.92h4.22c.51-1.4,0-2.65,0-3.84,4.23,0,3.56-2.86,4.49-3.08,1.26-.3,4.26.45,5.31-1.13.55-.83-.79-1.17-1.3-1.8-.35-.43-.5-1.18-.82-1.67.26-.13.5-.26.77-.38ZM56.8,10.8v-.57s-.96-.96-.96-.96l-.95.58.62.91,1.3.04ZM59.87,9.65c-1.3-.15-2.14.11-1.91,1.53,1.3.15,2.14-.11,1.91-1.53ZM69.46,9.65h-1.53s0,.57,0,.57c.4.6.82.67,1.53.58v-1.15ZM76.37,10.04c-1.38-1.23-1.6,2.51-.19.77.2-.25.29-.68.19-.77ZM57.52,14.98c.4-1.2-.41-2.86-1.69-3.05-.75-.11-.69,1.11-1.7,1.41-.91.27-1.65-.66-2.32.34l1.81,2.45,3.9-1.16ZM87.11,16.95h-.76v.76h.76v-.76ZM37.99,18.87l-3.06.39v1.52c1.32.26,2.92-.36,3.06-1.92ZM16.12,39.61c-1.08-.18-2.69.93-1.34,1.92l1.34-1.92ZM12.28,40.38c-1.04-.98-1.12,2.67-.76,3.07,1.59.35,1.22-2.64.76-3.07Z"/>
  <path class="cls-3" d="M98.63,13.49c2.33.76,2.13,2.15,2.67,2.52s1.39,0,1.85.26c.27.15.41,1.32,1.62,1.68.63.19,1.06-.24,1.15-.22.54.08.81.57,1.15.77-1.8-.34-2.97.37-4.6.77-.02-.76.3-1.37-.77-1.15-.44.81-.64,4.23-.83,4.55-.19.3-2.01.31-2.25,1.78-.21,1.27,2.09-.22,2.67.6l-.36,2.66h2.68c-.85,1.75.4,2.61.79,4.22l3.43-1.14c.23,2.06-1.97,1.9-3.4,1.97-.65,1-.6,4.09.33,4.74.5.35,1.46.21,2.04.55.73.44,1.4,2.45,3.47,1.95,1.6.71-2.39,2.73-3.42,2.67s-2.99-3.23-3.24.78l1.08.05.45,1.88c-1.44.44-7.69,2.32-8.44,2.88-1.08.81-.99,1.94-.13,2.9.7.37,1.36.4,2.14.28,1.38-.21,8.69-2.73,10.27-3.38-.37.97-.18,3.47.08,4.34.14.48.8.8.97,1.33.24.72.45,2.98.55,3.1.33.39,2.16-.06,1.87,2.17-.15,1.18-3.01,1.51-4.05,1.75-.58.13-.68-.29-.58.75h5.75c-.34,1.7-.61,3.07.03,4.76-1.98,1.28-3.23,2.24-5.78,1.77l1.15-1.53c.7.09,2.13-.15,2.5-.76,1.99-3.3-6.57-3.97-8.26-5,1.93-.53.52-.96.83-1.46.06-.09.62-.05.7-.34.54-1.98-.8-6.94-3.84-6.27.49,1.79-.73,1.46-1.18,2.08-.41.56-.21,1.25-.46,1.66-.82,1.36-3.94,1.24-2.58,4.33l-1.76.36c-.59.82.59,2.95-.93,2.72-.99-7.28-6.65-21.5-10.74-27.65,1.49-.51,0-6.16-.46-6.45-1.06-.67-3.35-.45-3.76,1.07-.67-.57-3.98-2.19-4.83-2.3-1.07-.13-2.11.21-2.98.82-2.68,1.87-6.18,8.53-9.07,10.9-5.15,4.31-11,10.03-17.2,12.74-2.49,1.09-5.21,1.51-7.76,2.42.37-2.59-.99-1.29-2.46-.81l.15,1.57c-8.75,3.16-14.41,9.14-10.74,19.2l-2.3.38c.7-1.57-.06-2-.27-2.99-1.05-4.8-.82-5.16-.54-9.92.05-.76-.47-1.49-.37-2.25.2-1.51,3.58-.85,3.12-4.24-.15-1.08-1.65-.67-1.14-2.07l4.57-1.78-1.16-4.4h2.3s-.76,1.91-.76,1.91c2.07-.5,4.04,1.14,5.96,1.09,1.09-.03,2.08-.97,2.74-1.01.61-.04,1.06.96,2.15.65.72-.21,1.02-1.37,2.02-1.5.34-.04,2.45.28,2.86.4.16,1.69,1.76,1.36.96.38-.3-.37-.63-.28-.96-.38-.09-.92,2.06-2.15,2.63-2.93.75-1.03,1.52-3.07,2.03-4.3l4.17-.24c1-3.13,3.57-3.91,6.05-5.65l-.27-3.73c.15-.21,4.05-.9,4.93-1.4.38-.21,4.63-3.39,4.83-3.61.71-.8.95-3.01,2.5-2.08v2.46s1.85-.05,1.85-.05l.68-1.52c.96.51,2.5.01,3.23.2.92.24,1.49,1.46,2.83,1.37.33-.02,3.62-1.5,4.03-1.76,2.07-1.35,2.19-3.32,5.79-2.47-1.16-1.94,1.18-2.67,1.16-3.64-.01-.62-1.18-1.52-.77-2.5l4.22.76c-1.2-3.15,1.99-3.13,3.33-5.4.62.21,1.48.22,2.05.41ZM93.25,19.25h-.76v.76h.76v-.76ZM95.94,30c-.78,1.14-1.51,2.7-2.37,3.96-1.1,1.6-3.72,3.73-3.23,5.67,2.64,3.54,4.78-1.82,6.21-3.85.29-.41.83-.64.93-.78-.19,1.5.76.32,1.32.36.22.01.04,1.6,1.73.2s.25-2.28.13-3.49c-.13-1.29.79-3.45-.69-4.76-.35-.07-1.45,1.15-3,.77-.3-.07-.26-.75-.46-.78-1.63-.23-3.42,2.89-.56,2.71Z"/>
  <path class="cls-3" d="M62.56,5.04c3.04-.16,6.94-.18,9.98,0,3.24.19,7.56.87,10.74,1.54l1.8,1.53h2.42s-.53.78-.53.78l.53.39c.13.78-2.03,2.29-2.43,2.25-.63-.06-2.11-1.57-3.35-1.27l-.99-2.49c-2.24.76-3.64-.77-5.9-.41l.76-1.53c-1.53-.35-1.71,1.13-3.34,1.03-1.54-.09-3.33-1.99-3.58,1.38l-.95.28c-.64-1.79-2.03-.69-3.27-.92-1.67-.31-3.29-2.4-5.36-1.77l1.92,1.53c-1.34,0-3.05.05-4.31.48-1.14.39-1.33,1.71-3.36.67l.22,2.33c-.67.89-4.51-.11-4.07,2.28-1.49.02-1.47-1.9-1.19-3.01-2.32-1.38-1.82-1.07-1.92,1.43l-2.15.74-5.86-.31c1.06-.49,1.76-1.03,3.07-1.54.79-.3,2.15-.45,3.02-.83l.05-.71c1.24-.44,2.57-.78,3.84-1.15.54.79,2.62.28,2.3-.77,3.81-.96,7.97-1.71,11.9-1.92Z"/>
  <path class="cls-3" d="M37.61,12.34c.32.49.47,1.24.82,1.67.51.63,1.86.96,1.3,1.8-1.05,1.58-4.04.83-5.31,1.13-.93.22-.27,3.08-4.49,3.08,0-.36.55-1.38.38-1.53-.5.03-1.03-.06-1.53,0v-.77c.21-.16.55-.23.77-.38l1.53.38-.38-1.15c2.66-1.82,3.88-2.74,6.91-4.22Z"/>
  <path class="cls-3" d="M29.94,20.02c-.01,1.2.5,2.45,0,3.84h-4.22s.38,1.92.38,1.92c-1.32-.09-5.04,2.02-5,3.26s1.63.71-.51,3.13c-1.91,2.16-.97,1.11-2.07,3.51-.05.11-1.53,1.76-1.64,1.82-.36.22-2.91-.52-3.84-.58l-.38-.38c.13-.25.24-.51.38-.77l2.24-2.55c.15-.33,0-.8.06-.91,1.31-2.18,2.21-3.4,3.84-5.38l1.15.38c.05-.24-.06-.59,0-.77.23-.62.72-1.33,1.15-1.92.85-1.15,2.41-2.84,3.45-3.84,1.02.24.96-.49,1.92-.77,1.49-.43,1.99,0,3.07,0Z"/>
  <path class="cls-2" d="M83.28,6.58c7.31,1.53,15.09,5.43,21.69,9.99.48.33,1.14.29.95,1.14-.09-.01-.52.41-1.15.22-1.2-.36-1.35-1.53-1.62-1.68-.47-.26-1.33.09-1.85-.26s-.34-1.76-2.67-2.52c-.84-1.11-2.81-1.63-4.22-1.54-.03-.06-.86-.11-1.01-.79-.29.01-.45.39-.53.41-.23.05-.52-.02-.76,0,.02-.25-.05-.54,0-.77.02-.11.55-.37.38-.76-.62-.21-1.3-.24-1.92-.39-1-.24-1.29-.27-2.3-.38-.25-.03-.52.02-.77,0l-.53-.39.53-.76h-2.42s-1.8-1.54-1.8-1.54ZM94.22,10.8v.38c.25-.13.25-.26,0-.38Z"/>
  <path class="cls-9" d="M72.53,5.04c-3.03-.18-6.94-.16-9.98,0,.4-.64,1.46-.38,2.11-.39,2.51-.03,5.5-.29,7.87.39Z"/>
  <path class="cls-3" d="M12.67,36.92v2.3s-.96,0-.96,0l-.19-.38c.27-.57.42-1.25.77-1.92h.38Z"/>
  <path class="cls-2" d="M50.66,6.96c.32,1.05-1.76,1.56-2.3.77.75-.22,1.32-.52,2.3-.77Z"/>
  <path class="cls-2" d="M44.52,8.88l-.05.71c-.86.38-2.22.53-3.02.83.85-.87,1.97-1.14,3.07-1.54Z"/>
  <path class="cls-2" d="M30.71,16.56l.38,1.15-1.53-.38c.47-.35.76-.5,1.15-.77Z"/>
  <path class="cls-2" d="M28.79,18.48c-.9.1-1.22.91-1.92,1.54-.96.27-.89,1-1.92.77,1.29-1.24,2.46-2.02,3.84-3.07v.77Z"/>
  <path class="cls-2" d="M15.36,32.31c-.07.11.09.58-.06.91l-2.24,2.55c.6-1.11.88-2.79,2.3-3.46Z"/>
  <path class="cls-6" d="M21.5,24.63c-.43.59-.92,1.3-1.15,1.92h-.77c.6-.71.8-1.95,1.92-1.92Z"/>
  <path class="cls-2" d="M20.34,26.55c-.07.18.04.53,0,.77l-1.15-.38c.11-.14.27-.25.38-.38h.77Z"/>
  <path class="cls-2" d="M13.05,36.92c-.13,0-.26,0-.38,0h-.38c.07-.14.31-.25.38-.38l.38.38Z"/>
  <path class="cls-10" d="M79.06,30.77c.54.46,3.74,4.65,4.22,5.38,4.09,6.15,9.76,20.37,10.74,27.65.5,3.69,1.02,12.2-.62,15.32-2.32,4.43-5.77,2.15-9.04,1.45-4.32-.93-9.94-1.95-14.31-2.19-1.29-.07-8.88-.18-9.25.38-.2,3.31-1,6.59-4.03,8.3.83,3.54,5.75,3.95,6.46,7.36.92,4.42-2.35,6.81-6.13,7.89-10.03,2.88-11.46-8.32-16.04-14.12-.36-.45-2.86-3.35-3.06-3.46-.71-.42-4.94-.66-6.52-1.34-1-.43-4.33-2.98-4.99-3.84-.36-.47-2.1-3.68-2.3-4.22-3.67-10.07,2-16.05,10.74-19.2.74-.27,1.54-.5,2.3-.77,2.54-.9,5.26-1.32,7.76-2.42,6.2-2.72,12.04-8.43,17.2-12.74,2.88-2.37,6.39-9.02,9.07-10.9.87-.61,1.91-.94,2.98-.82.86.1,4.16,1.72,4.83,2.3ZM73.35,48.77c8.45-1.04,12.88,9.57,7.78,15.76-.62.75-1.83.72-1.64,2.05.16,1.13,3.66,7.02,4.56,8.15,2.31,2.9,6.23,6.66,6.9.39,1.2-11.25-4.13-26.59-9.91-36.17-1.06-1.75-5.89-8.83-8.15-6.48-2.46,2.56-.73,12.91.46,16.29ZM51.81,73.79l-1.52.4c-.11.75.06,1.54-.02,2.29-5.04-4.83-7.22-12.69-6.91-19.59-4.2,2.08-11.58,2.62-14.58,6.34-5.15,6.4-.45,17.9,7.87,17.89,2.24,0,8.92-2.24,11.32-3.1l.33.32c-1.61.19-1.32,2.47.05,2.37-.22.07-1.39.86-2.3,1.15-.41.13-.63.34-.77.38-.11.04-.27-.04-.38,0-.4.14-.7.36-.77.38-.11.04-.27-.04-.38,0-.77.28-1.72.2-2.29.96,0,.27,1.32,1.43,1.53,1.73,1.41,2.07,2.8,4.29,4.15,6.4,2.98,4.66,3.46,10.19,10.69,6.73,5.28-2.53-.97-5.46-2.96-8.32s-2.6-5.29-3.83-8.27l3.07-.38c1.63,5.31,3.09.01,3.07-2.69-.09-.09-1.92.3-2.3.38-.04-.85.23-2.43-.38-3.07,4.29-1.05,8.82-1.14,13.24-1.15l8.25.76c.33.67,1.34.29,1.92.38.12.02.26-.02.38,0,.41.07,2.87.95,3.07.77.11-1.04-1.1-1.69-1.53-2.3-1.21-1.72-2.22-3.61-3.14-5.5-4.63-9.5-7.77-19.99-8.38-30.6-4.63,4.42-8.85,8.82-14.07,12.6-1.22.88-7.31,4.42-7.6,5.07-1.59,3.54,2.86,14.49,5.17,17.66Z"/>
  <path class="cls-8" d="M109.37,47.67c-.14.11-.29.35-.38.38-1.58.66-8.89,3.18-10.27,3.38-.77.12-1.44.08-2.14-.28-.85-.97-.95-2.09.13-2.9.75-.57,6.99-2.45,8.44-2.88.69-.21,1.52-.67,1.92-.77,2.53-.65,4.3,1.48,2.3,3.07Z"/>
  <path class="cls-8" d="M100.55,59.96c.66.02,1.52.56,2.3.38.13.14.18.26.38.38,1.68,1.02,10.25,1.7,8.26,5-.37.61-1.8.85-2.5.76-1.93-1.28-9.07-2.37-10.37-3.64s-.02-2.94,1.93-2.89Z"/>
  <path class="cls-3" d="M109.37,47.67c2-1.59.23-3.73-2.3-3.07l-1.53-1.15,6.16-.23c.43.86,2.7,6.26.62,5.93l-2.95-1.48Z"/>
  <path class="cls-3" d="M57.52,14.98l-3.9,1.16-1.81-2.45c.66-1,1.41-.07,2.32-.34,1.02-.31.96-1.52,1.7-1.41,1.28.19,2.1,1.85,1.69,3.05Z"/>
  <path class="cls-3" d="M31.47,83.39l-2.96,1.47-.87.06c-.19-2.43-3.39-2.72-1.17-5.37.66.86,3.99,3.41,4.99,3.84Z"/>
  <path class="cls-3" d="M90.57,9.65c-.2.46.36,1,.38,1.15.2,1.54-.35,2.36-1.95,1.76l-.74-3.29c1.01.11,1.3.14,2.3.38Z"/>
  <path class="cls-3" d="M37.99,18.87c-.14,1.55-1.74,2.18-3.07,1.92v-1.52s3.07-.39,3.07-.39Z"/>
  <path class="cls-3" d="M92.87,11.57c.08-.02.23-.4.53-.41.15.68.98.74,1.01.79.15.26.44,1.22.21,1.55l-1.75.37v-2.31Z"/>
  <path class="cls-3" d="M12.28,40.38c.46.43.83,3.42-.76,3.07-.36-.4-.28-4.05.76-3.07Z"/>
  <path class="cls-3" d="M16.12,39.61l-1.34,1.92c-1.35-.99.25-2.1,1.34-1.92Z"/>
  <path class="cls-3" d="M59.87,9.65c.23,1.42-.61,1.68-1.91,1.53-.23-1.42.61-1.68,1.91-1.53Z"/>
  <path class="cls-3" d="M102.85,60.34c-.78.18-1.65-.37-2.3-.38l-.77-.76c.86.07,2.3-.31,2.89.37.19.22.1.69.18.78Z"/>
  <polygon class="cls-3" points="56.8 10.8 55.5 10.76 54.88 9.85 55.84 9.27 56.8 10.23 56.8 10.8"/>
  <path class="cls-5" d="M90.57,9.65c.62.15,1.3.18,1.92.39.17.4-.36.66-.38.76h-1.15c-.02-.15-.58-.69-.38-1.15Z"/>
  <path class="cls-3" d="M69.46,9.65v1.15c-.71.09-1.13.02-1.53-.58v-.57s1.53,0,1.53,0Z"/>
  <path class="cls-3" d="M76.37,10.04c.1.09.01.52-.19.77-1.41,1.74-1.19-2,.19-.77Z"/>
  <rect class="cls-3" x="86.35" y="16.95" width=".76" height=".76"/>
  <path class="cls-8" d="M97.48,35c-.09.14-.64.37-.93.78-1.43,2.04-3.56,7.39-6.21,3.85-.49-1.94,2.13-4.07,3.23-5.67.86-1.26,1.59-2.82,2.37-3.96,1.3-1.89,4.6-1.37,3.66,1.55-.16.49-1.69,2.79-2.13,3.44Z"/>
  <path class="cls-6" d="M95.94,30c-2.86.19-1.07-2.93.56-2.71.2.03.17.71.46.78,1.54.39,2.65-.84,3-.77,1.48,1.3.56,3.47.69,4.76.12,1.21,1.64,2.03-.13,3.49s-1.51-.18-1.73-.2c-.57-.04-1.52,1.14-1.32-.36.44-.65,1.97-2.95,2.13-3.44.93-2.92-2.37-3.45-3.66-1.55Z"/>
  <path class="cls-6" d="M79.06,30.77c.41-1.52,2.7-1.74,3.76-1.07.46.29,1.95,5.94.46,6.45-.48-.73-3.68-4.92-4.22-5.38Z"/>
  <path class="cls-6" d="M34.93,56.12l-.15-1.57c1.46-.49,2.83-1.79,2.46.81-.76.27-1.56.5-2.3.77Z"/>
  <rect class="cls-6" x="92.49" y="19.25" width=".76" height=".76"/>
  <path class="cls-5" d="M94.22,10.8c.25.13.25.26,0,.38v-.38Z"/>
  <path class="cls-11" d="M79.82,74.55v1.54s-1.53,0-1.53,0c-.12-.02-.26.02-.38,0-.33-.62-1.3-.36-1.92-.38l-8.25-.76c-4.41.01-8.95.1-13.24,1.15-.49-.52-1.96-1.31-2.69-2.3-2.32-3.17-6.76-14.12-5.17-17.66.29-.65,6.38-4.19,7.6-5.07,5.22-3.78,9.44-8.18,14.07-12.6.61,10.6,3.75,21.1,8.38,30.6.92,1.89,1.93,3.78,3.14,5.5Z"/>
  <path class="cls-1" d="M73.35,48.77c-1.19-3.38-2.92-13.73-.46-16.29,2.26-2.35,7.09,4.73,8.15,6.48,5.78,9.58,11.12,24.92,9.91,36.17-.67,6.26-4.59,2.51-6.9-.39-.9-1.13-4.4-7.02-4.56-8.15-.19-1.33,1.02-1.3,1.64-2.05,5.09-6.19.66-16.8-7.78-15.76Z"/>
  <path class="cls-7" d="M50.28,76.47c-.15,1.37-.93.7-2.11,1.16-.26.1-.18.37-.2.38-2.4.87-9.08,3.1-11.32,3.1-8.31,0-13.02-11.49-7.87-17.89,2.99-3.72,10.38-4.25,14.58-6.34-.3,6.9,1.87,14.76,6.91,19.59Z"/>
  <path class="cls-1" d="M51.04,81.85c1.23,2.98,1.87,5.46,3.83,8.27s8.24,5.79,2.96,8.32c-7.23,3.46-7.72-2.07-10.69-6.73-1.35-2.12-2.75-4.33-4.15-6.4l-.38-1.53,1.11-.03.04-1.12c.11-.04.27.04.38,0l.77-.38c.11-.04.27.04.38,0l.77-.38c.91-.29,2.08-1.08,2.3-1.15,1.63-.54,2.08-.31,2.69,1.15Z"/>
  <path class="cls-4" d="M51.81,73.79c.72.99,2.2,1.79,2.69,2.3.61.65.34,2.22.38,3.07-.33.07-.79-.05-1.15,0-.06.8.16,1.56.38,2.3l-3.07.38c-.6-1.46-1.05-1.69-2.69-1.15-1.37.1-1.65-2.18-.05-2.37l-.33-.32s-.06-.28.2-.38c1.18-.45,1.96.21,2.11-1.16.08-.75-.09-1.54.02-2.29l1.52-.4Z"/>
  <path class="cls-3" d="M54.88,79.16c.38-.08,2.21-.47,2.3-.38.02,2.7-1.44,7.99-3.07,2.69-.23-.75-.44-1.51-.38-2.3.37-.06.82.07,1.15,0Z"/>
  <path class="cls-12" d="M79.82,74.55c.43.61,1.64,1.26,1.53,2.3-.19.19-2.65-.7-3.07-.77h1.54s0-1.54,0-1.54Z"/>
  <path class="cls-8" d="M43.75,82.62l-.04,1.12-1.11.03.38,1.53c-.21-.3-1.53-1.46-1.53-1.73.57-.76,1.52-.68,2.29-.96Z"/>
  <path class="cls-12" d="M77.91,76.09c-.58-.09-1.59.29-1.92-.38.61.02,1.59-.24,1.92.38Z"/>
  <path class="cls-8" d="M46.06,81.85l-.77.38c.13-.05.36-.25.77-.38Z"/>
  <path class="cls-8" d="M44.9,82.24l-.77.38c.07-.02.37-.24.77-.38Z"/>
</svg>