<?xml version="1.0" encoding="UTF-8"?>
<svg id="_레이어_1" data-name=" 레이어 1" xmlns="http://www.w3.org/2000/svg" viewBox="0 0 224.05 235.93">
  <defs>
    <style>
      .cls-1 {
        fill: #e1a199;
      }

      .cls-2 {
        fill: #251e29;
      }

      .cls-3 {
        fill: #42443e;
      }

      .cls-4 {
        fill: #8a9ca7;
      }

      .cls-5 {
        fill: #fcfcfb;
      }

      .cls-6 {
        fill: #e5e3d7;
      }

      .cls-7 {
        fill: #bdc6c9;
      }

      .cls-8 {
        fill: #642942;
      }

      .cls-9 {
        fill: #d3d8da;
      }

      .cls-10 {
        fill: #582039;
      }

      .cls-11 {
        fill: #b6b4a7;
      }

      .cls-12 {
        fill: #ebebea;
      }

      .cls-13 {
        fill: #702b47;
      }

      .cls-14 {
        fill: #342d31;
      }

      .cls-15 {
        fill: #2c2e32;
      }
    </style>
  </defs>
  <path class="cls-15" d="M163.93,110.31c-1.34,2.65-4.17,5.88-5.96,8.34.35.32,5.04-3.08,5.65-3.58,1.27-1.05,2.28-2.7,3.29-3.56,1.53-1.31,6.52-5.94,7.59-6.55,5.98-3.41,12.1.92,12.13,7.44.05,12.1-18.64,29.23-29.24,33.72.65,3.21,1.46,6.53,1.77,9.81.45,4.76.79,28.24-2.04,30.73-.79.69-2.26.51-3,1.77-1.07,1.81-2.5,10.06-3.62,13.07-3.08,8.32-9.31,18.4-17.27,22.67-.94,17.4-19.28,14.45-19.38-2.1-.05-7.7,5.99-12.98,6.57-20.54-2.3-2.14-9.38,7.57-11.47,9.09-2.23,1.63-6.1,3.47-8.8,4.02-5.01,1.01-11.03.16-15.2-2.89-2.95,3.42-7.91,4.76-11.62,1.69-.85-1.13-1.88-1.59-2.25-3.42-1.44-7.1,3.99-16.63,11.18-18.35,4.35-1.04,7.42,2.29,9.54-3.58-2.65-.62-5.93-1.28-7.4-3.92-.99-1.78-2.46-8.81-1.87-10.72.86-2.73,3.42-2.8,4.33-3.71.37-.38.3-1.43.74-1.91,4.01-4.44,8.2-.12,8.96-.89l1.19-7.75c-5.63,3.1-12.37-.41-17.57-.05-1.72.12-2.95,1.5-4.74,1.26-1.98-.28-2.32-2.59-3.68-3.52-1-.69-2.66-.83-3.83-1.54-6.46-3.93-9.52-8.24-8.89-16.09.09-1.06,1.11-1.95,1.03-2.91-.17-2.21-4.53-5.67-3.14-9.3l-16.51-27.37c-.95-.56-4.63.96-6.16,1.09C1.62,103.41-13.01,51.42,14.33,40.87c10.42-4.02,13.86,0,22.64,2.67.26,1.11,1.05.92,1.79,1.19.52,1.49,1.03,2.06,2.98,2.38,1.56,2.45,2.97,3.36,4.43,5.41,1.92,2.69,3.52,6,5.11,8.9,1.35,7.15,3.11,10.32,2.38,18.48-.16,1.81-.67,3.11-1.19,4.77-.33,1.04-.8,2.67-1.19,3.58-.24.55-1.41,1.25-1.19,2.38-1.54,1.24-1.28,1.82-1.79,2.38-.72.79-1.51,1.55-2.42,2.13.41,1.69,1.58,2.98,2.42,4.43,1.43,2.49,3.5,6.49,5.36,8.35-.07,2.1,2.21,3.5,2.98,4.77.19.31.34.76.6,1.19.2.32.34.77.6,1.19,3.23,5.4,3.39,6.1,7.76,10.43,1.14,1.13,3.36,5.98,3.66,6.17,1.13.7,4.68-.74,7.45,2.09s.27,4.14,5.85,4.59c6.5.52,11.69-1.3,17.6-3.61l-9.35-4.65c-11.55-7.2-17.09-20.1-17.47-33.5-1.02.49-1.11,1.93-2.07,2.99-1.66,1.86-5.9,5.63-8.36,3.56-.31-.26-4.58-6.2-4.76-6.56-.29-.58-.49-1.4-.35-2.02.07-.32,4.95-2.14,6-2.74,1.05-.6,2.5-1.01,2.98-2.38-1.38.07-2.8-.11-4.17,0-.39.03-.8-.03-1.19,0l-2.38-.6c-1.22-2.02-3.7-1.23-3.58-4.77,2.89-1.17,2.29-7.5,4.16-8.68,1.38-.87,4.89,1.99,6.57,2.72.88.39,4.9,2.24,5.18,2.28.44.07,4.1-.44,4.26-.58.52-.43,3.63-10.32,5.44-11.54l-20.85-12.22c-.26-.85-.92-1.18-1.79-1.19-.5-.66-.79-.77-1.19-1.19-2.02-2.1-4.65-3.68-6.58-5.64s-3.12-4.6-5.34-6.28c-.81-2.75-3.08-5.37-3.53-8.69-.92-6.91,2.45-12.74,9.48-14.27,14.48-3.14,30.93,14.73,38.4,25.4,1.07,1.53,5.79,10.09,6.31,10.41,1.4.9,9.44-4.21,11.92-4.22.98-.6.28-.96-.11-1.66-6.37-11.45-20.66-23.78-20.52-38.37.09-9.24,8.82-12.42,16.66-9.04,16.05,6.92,23.99,30.97,25.7,47.02,8.81,2.57,19.88,6.02,25.62,13.72,10.4,13.96,17.17,31.42,8.68,48.25h0ZM90.62,14.93c2.19,12.14,13.87,23.48,20.23,33.73,1.16,1.5,2.34.4,3.62.25.39-.04.8.03,1.19,0,2.7-.23,4.93-.5,7.75-.6,1.19-.04,2.39.04,3.58,0-1.31-14.19-9.89-39.96-24.87-44.58-9.76-3.01-13.13,2.08-11.49,11.19h-.01ZM85.25,71.56c14.94-10.17,34.46-16.26,52.45-17.58-8.81-4.08-20.87-3.78-30.06-.86-2.11.67-11.06,5.45-11.84,5.26-4.37-5.36-7.45-11.96-11.76-17.5-6.96-8.94-22.62-23.97-34.97-18.32-3,1.37-3.3,2.78-4.35,5.48-.29.07-.55.31-.6.6-.28,1.83.62,4.76,1.19,6.56,4.82,15.09,26.8,24.47,39.34,32.2l-4.17,7.74c.22.27,4.19-3.18,4.76-3.58h0ZM60.81,125.21l-17.2-29.05c-.44-2.16,2.79-4.59,3.98-6.52,15.5-25.29-17.32-62.11-38.35-42.53-19.53,18.18,5.23,62.41,31.85,48.93l17.36,29.77,2.36-.6h0ZM82.27,77.52c-1.4.98-4.08,1.6-5.04,3.61-.33.69-1.55,6.07-1.55,6.85,0,5.4,5.35-1.27,6.59-2.12,4.27-2.92,11.14-6.56,15.88-8.86,17.14-8.31,35.21-13.28,54.46-12.91,0-2.09-5.82-6.83-7.6-7.3-3.58-.95-13,0-16.97.63-17.11,2.66-31.85,10.38-45.77,20.1h0ZM80.48,91.23c-1.97,1.6-4.85,1.51-4.8,5.62.14,11.26,6.09,24.11,15.58,30.4,3.5,2.32,12.92,6.31,16.94,6.31h11.62c-.04,2.59,2.03,3.85,3.58,5.37.61.6.86,1.39,1.82,2.05,6.86,4.73,14.82,2.79,15.47-6.22.1-1.37-.07-2.79,0-4.17-1.38.07-2.73,1.24-2.98-.89,10.03-5.29,17.96-10.3,23.25-20.57,5.8-11.27,5.55-22.06-.29-33.4-.75-1.45-4.7-7.7-5.65-8.5-.71-.6-1.39-.71-2.27-.88-25.44.72-52.4,8.72-72.27,24.89h0ZM58.44,85.84c2.88,1.25,12.72,2.26,11.79-2.58-.3-1.56-7.47-3.68-9.1-5.14l-2.68,7.73h0ZM74.52,82.29c-3.07.38-2.34,4.39-2.38,6.55,1.88.32.9-.58,1.18-1.47.29-.94,1.61-4.59,1.2-5.08ZM66.77,93.02c-.76.45-5.38,2.4-5.38,2.7.85,1.97,2.4,5.71,4.99,4.97.73-.21.81-.98.99-1.11,1.47-1.04,4.8-4.49,4.76-6.27-.02-.8-1.52-2.5-2.17-2.6-1.18-.19-2.51,1.92-3.19,2.32h0ZM154.99,137.74c.27.78,1.73,6.06,2.08,5.96,8.32-5.21,17.62-12.23,22.85-20.67,2.32-3.74,5.72-10.78,2.49-14.5-5.1-5.88-13.68,6.15-18.29,9.43-4.28,3.05-9.11,5.22-13.64,7.85l-.19.81c2.48,3.38,3.38,7.26,4.71,11.13h-.01ZM67.96,134.15c-1.72-1.71-3.41-8.64-6.38-7.3-4.37,1.97-.07,4.91.45,7.9l5.93-.59h0ZM147.24,128.79l-1.81-.33-.58,2.12c-.04-.28-.89-1.02-.6-1.79-1.43-1.41-1.21,7.78-1.33,8.5-1.72,10.15-14.25,10.29-20.74,4.34-2.27-2.08-2.82-5.21-6.53-5.69-2.07-.27-4.46-.61-4.77,1.79-.21-.44-1.83-2.38-2.38-1.79,3.25,7.85,3.12,24.19-8.34,23.85l3.57,1.79c-1.25.49-1.93.87-3.56.62.42,3.28-5.68,13.82-4.52,16.06,1.51,2.92,17.48,7.69,21.19,8.36,11.96,2.15,27.13,2.31,38.44-2.39,1.91-11.02,2.66-25.49-.29-36.36-.91-7.12-3.39-14.98-7.45-20.86l-.3,1.79h0ZM76.31,142.5c1.36,2.1,4.88,9.3,6.56,10.13v4.18c7.12,1.36,13.32-.38,20.27-1.19l.28,1.18c2.94-2.37,4.18-5.19,4.48-8.94.32-3.98-.06-9.41-2.77-12.47-8.34,3.21-16.52,8-25.84,5.32-.08-.35-.23-.53-.6-.6-.24-.05-1.11-.05-1.19,0-1.77-2.94-2.19-6.43-6.55-5.96-.81.79,4.62,7.19,5.36,8.34h0ZM62,144.89c1.13,3.83,4.09,6.92,7.74,8.35-.96-3.84,2.4-3.29,2.39-8.35-.02-10.57-13.47-11.32-10.13,0ZM80.44,155.58c.9-1.25-4.43-7.79-5.03-9.49l-3.18,5.65,3.48,6.26,4.72-2.43h0ZM85.85,173.5c-.15.19-.54.37-.6.6-.1.4-.03,1.29,0,1.79.05.86.12,1.64.6,2.38-.02.2,0,.4,0,.6-.16,3.85,2.85,6.73,6.76,5.99,1.55-2.31,2.31-4.69-.2-6.58,1.18-2.83,1.7-6.11,2.98-8.94l-4.99-.53c-1.07.38-.91,1.93-1.53,2.65-.75.88-1.92.65-3.02,2.05h0ZM117.44,189.6c-7.2-1.28-14.87-4.66-21.45-7.75-.06,2.6-2.53,10.51-4.44,11.95-2.45,1.86-7.71-.61-11.87,1.85-2.83,1.67-8.09,10.8-6.09,13.66l2.66.5,1.24-2.32c.46,2.49-1.98,2.7-2.97,4.16,2.48.83,4.6,1.24,6.26-1.18l.59,1.19c.47-.49,1.17-.91,1.37-1.61.33-1.17-.46-3.45.71-3.75,6.36,11.05,22.6,6.09,28.62-2.99,1.74-1.07,3.39-4.99,4.58-5.28,5.41,1.09,10.88.38,16.29-.08-.04.58.08,1.22,0,1.79l-9.87,2.35c-1.36,9.59-9.4,15.69-5.22,26.14.95,2.37,3.02,5.37,4.35,1.91.26-.69-.26-2.11,1.19-2.38l-.59,5.36c3.59.64,4.41-1.57,4.17-4.77.3.1.82-.07,1.19,0v2.98c1.33-.21.95-1.52,1.19-2.38.39-1.42.34-2.62.6-3.58.27-1.04,1.18-2.62,1.79-3.58,4.06-1.63,8.13-6.66,10.73-10.13.17-.21.48-.38.6-.6.59-1.08,1.24-2.45,1.79-3.58.67-.29,1.28-.65.6-1.19,2.41-5.42,3.8-10.45,5.36-16.1.12-.43,1.19-1.42.29-1.8-7.15,1.68-14.68,2.76-22.04,2.39-3.16-.16-8.58-.64-11.63-1.19h0ZM143.96,211.06v.6c.39-.2.39-.4,0-.6Z"/>
  <path class="cls-15" d="M202.68,22.68l3.75-1.1c2.25.53,2.62,4.39,2.87,4.61,1.17,1.04,9.01-2.37,5.9,6.62,4.86-.41,6.46,1.26,4.76,5.96,6.39,1.02,4.26,4.99.61,8.06-5.28,4.44-14.78,5.77-20.83,10.17-3.59,2.61-4.64,7.64-9.89,8.02-6.61.48-11.1-6.16-8.67-12.28.98-2.48,5.19-5.48,6.46-7.84,3.38-6.29,4.53-22.29,10.54-25.83.58-.34,1.03-.75,1.79-.6,1.76.16,2.76,2.62,2.72,4.21h0ZM200.29,21.48c-1.02-.15-1.32-.03-2.06.61-2.1,1.81-4.64,11.53-5.15,14.57-.15.92-.83,1.34.37,2.1l7.36-13.54s-.52-3.74-.52-3.74ZM205.47,23.95c-3.92,1.14-5.31,5.23-6.88,8.65-.59,1.28-4.38,8.61-1.57,8.55,2.41-2.88,4-6.22,6.28-9.21,1.73-2.28,6.37-5.07,2.18-7.98h0ZM213.4,28.64c-8.22-.43-10.72,8-14.8,13.42l2.27,2.4c5.67-3.15,12.97-8.42,12.53-15.82ZM218.17,35.21c-.41-.57-4-.33-4.63.12-.39.28-.56,1.82-1.31,2.56-1.47,1.47-9.51,7.55-9.54,8.93.72.91.74.9,1.8.63,1.24-.31,8.76-5.02,10.06-6.05,2.03-1.61,3.71-3.39,3.62-6.19ZM193.14,39.97c-1.2-1.35-3.63,5.82-3.57,6.55,1.59.33,1.03-.4,1.48-1.17s2.63-4.77,2.09-5.38h0ZM221.16,41.16c-3.76-1.09-3.18.05-5.41,1.45-2.99,1.88-6.44,3.63-9.31,5.59-2.01,1.37-1.62,2.72.57,2.38,1.15-.17,9.02-3.43,10.18-4.15.89-.55,4.98-4.25,3.96-5.28h0ZM195.52,41.76c-1.54-.3-1.04.32-1.49,1.16-.37.7-2.28,5.15-2.08,5.39.88,1.04,1.31-.8,1.54-1.12,1.13-1.58,2.28-3.37,2.03-5.43h0ZM197.32,43.54c-.36,2.18-2.1,3.75-3,5.66-.39.82-.91.49.31,1.48l5.02-4.54-2.33-2.6ZM196.71,57.25c1.92-1.97-6.83-8.1-8.04-9.52-2.49,2.24.64,2.86,1.82,4.13,1.41,1.52,2.67,3.31,4.27,4.64.58.49.31,1.16,1.95.75h0ZM202.08,47.72c-1.09-1.11-5.35,3.75-5.96,4.76,1.22-.05,7.32-3.37,5.96-4.76ZM183.6,58.45c1.94,5.37,7.03,5.17,10.47,1.19.29-.68-1.09-1.91-1.53-2.39-1-1.08-6.12-6.5-6.86-6.44-2.57,2.29-3.21,4.49-2.08,7.63h0ZM204.46,51.88c-1.25-2.71-5.06,1.18-6.54,2.09.97,1.3.92.68,1.94.17,1.48-.74,2.78-2.13,4.6-2.26h0Z"/>
  <path class="cls-5" d="M80.48,91.23c19.87-16.17,46.83-24.17,72.27-24.89.87.17,1.56.28,2.27.88.95.8,4.9,7.05,5.65,8.5,5.84,11.33,6.09,22.12.29,33.4-9.38,10.33-21.68,16.99-35.63,18.92-19.53,2.7-38.07-6.58-42.88-26.55-.82-3.39-.69-6.99-1.97-10.26h0ZM148.29,89.3c3.03-3.06-.39-12.01-4.83-10.51-5.39,3.13.6,14.78,4.83,10.51ZM110.71,88.34c-5.08,1.41-2.26,12.82,3.32,11.15,4.71-2.28.95-12.33-3.32-11.15ZM153.64,88.99c-2.25.46-5.2,2.85-4.52,5.39,2.14,5.35,14.35,1.72,12.94-3.32-.73-2.63-6.3-2.51-8.43-2.07h0ZM135.92,92.43c-.89-.63-.4-1.37-2.61-1.18-6.52.56-9.68,5.97-1.56,6.55.3,3.46-2.02,5.75-5.55,4.65-.54-.17-3.46-3.3-3.99-.76-.28,1.33,2.78,2.59,3.5,3.64.9,1.31,1.26,3.81,2.33,5.41,4.19,6.21,11.34,3.6,12.49-3.24.32-1.92-.11-3.85.27-5.69.53-2.56,1.86-1.58,1.06-5.2-.11-.51.09-1.22,0-1.79-.35-.37-1.6.67-1.78,1.79-.4,2.37.44,2.64-2.38,3.58-1.68-.86-2.17-3.27-1.78-4.96.09-.4,1.8-.32,1.21-2.44-.17-.66-1.06-.24-1.22-.35h0ZM104.17,103.3c-7.87,1.34-9.3,10.9,1.51,8.66,7.78-1.61,8.41-10.35-1.51-8.66Z"/>
  <path class="cls-13" d="M147.24,128.79c2.31,5.98,6.1,12.99,7.75,19.08,2.95,10.87,2.2,25.34.29,36.36-11.31,4.71-26.48,4.54-38.44,2.39l-10.46-7.13c-4-3.61-.33-11.64.76-16.59.2-.94-.04-2.11.13-2.72.15-.51,1.74-.45,2.7-1.59,2.08-2.46,1.57-5.29,2.5-7.62.27-.69,1.29-.65,1.39-1.12.4-1.97-2.39-6.22-1.16-9.1l4.75-.39c2.02.65,1.57,2.5,2.62,3.4.8.69,1.74.34,2.13.53,5.7,2.81,10.74,5.63,16.89,1.69,4.81-3.08,6.55-10,5.76-15.4l.58-2.12,1.81.33h0Z"/>
  <path class="cls-5" d="M117.44,192.58c1.48.27,5,1.19,6.26,1.19h14.31l12.82-3.58c-1.57,5.65-2.95,10.67-5.36,16.1-.18.4-.4.79-.6,1.19-.55,1.13-1.2,2.5-1.79,3.58-.21.18-.43.37-.6.6-2.6,3.47-6.67,8.51-10.73,10.13-.62.25-3.45.45-3.57.6l1.79,2.98c-.25.96-.2,2.15-.6,3.58-.39-.13-.83-.53-1.19-.6s-.89.1-1.19,0c-2.39-.77-3.91-2.75-6.56-2.98-.15-5.94,4.39-15.51,7.85-20.47,1.46-2.1,4.38-3.09,4.67-5.17.08-.57-.04-1.21,0-1.79-5.4.47-10.87,1.18-16.29.08-1.19.29-2.84,4.21-4.58,5.28-4.32,2.65-11.86,5.42-16.94,4.72-3.54-.49-11.28-4.96-11.67-8.89,9.2,1.31,12.01-5.45,17.06-11.22,5.6,1.75,11.12,3.59,16.91,4.66h0Z"/>
  <path class="cls-5" d="M44.72,28.04c1.05-2.71,1.36-4.11,4.35-5.48,12.35-5.65,28.01,9.37,34.97,18.32,4.31,5.54,7.38,12.13,11.76,17.5.78.2,9.74-4.59,11.84-5.26,9.19-2.92,21.25-3.22,30.06.86-17.99,1.32-37.51,7.42-52.45,17.58.13-1.81,2.45-4.14,1.26-5.69-10.38-7.25-21.88-12.74-31.66-20.83l-9.53-9.84c-.57-1.8-1.47-4.73-1.19-6.56.21-.15.5-.35.6-.6h-.01ZM62.4,32.42c-5.96.17-5.81,5.43-3.28,9.53,2.65,4.3,11.37,10.35,15.8,13.41,1.71,1.18,12.66,8.4,13.51,8.32,5.78-2.46,1.93-6.81-.55-10.55-4.32-6.5-17.26-20.94-25.48-20.71Z"/>
  <path class="cls-7" d="M80.48,91.23c1.28,3.27,1.15,6.87,1.97,10.26,4.81,19.97,23.34,29.25,42.88,26.55,13.95-1.93,26.25-8.59,35.63-18.92-5.29,10.27-13.22,15.29-23.25,20.57.25,2.13,1.6.96,2.98.89-.06,1.38.1,2.8,0,4.17-5.58,2.01-11.34,3.64-17.29,4.17-1.55-1.51-3.62-2.77-3.58-5.37h-11.62c-4.02,0-13.44-3.99-16.94-6.31-9.48-6.28-15.44-19.13-15.58-30.4-.05-4.12,2.83-4.02,4.8-5.62h0Z"/>
  <path class="cls-13" d="M82.27,77.52c13.92-9.72,28.66-17.43,45.77-20.1,3.96-.62,13.39-1.58,16.97-.63,1.78.47,7.61,5.21,7.6,7.3-19.25-.37-37.32,4.6-54.46,12.91-4.74,2.3-11.61,5.94-15.88,8.86v-8.35h0Z"/>
  <path class="cls-5" d="M90.62,14.93c-1.64-9.11,1.72-14.2,11.49-11.19,14.99,4.62,23.57,30.39,24.87,44.58-1.19.04-2.39-.04-3.58,0-1.34-8.81-5.6-24.23-12.22-30.4-2.48-2.31-8.27-5.01-9.71-.18-2.4,8.1,11.98,23.25,14.18,31.18-.39.03-.8-.04-1.19,0l-23.84-33.98h0Z"/>
  <path class="cls-4" d="M60.81,125.21l-2.36.6-17.36-29.77c-26.63,13.48-51.39-30.75-31.85-48.93,21.04-19.58,53.86,17.25,38.35,42.53-1.19,1.94-4.42,4.37-3.98,6.52,0,0,17.2,29.05,17.2,29.05ZM18.33,44.27c-22.86,4.67-15.31,50.06,11.2,51.72,13.65.86,20.96-11.02,19.98-23.56-1.12-14.3-15.91-31.28-31.18-28.16Z"/>
  <path class="cls-5" d="M182.41,108.52c-.11,2.5-.83,5.11-1.86,7.38-3.34,7.33-14.71,17.6-21.98,20.94-1.13.52-2.33.85-3.58.9-1.33-3.86-2.23-7.75-4.71-11.13l.19-.81c4.53-2.63,9.36-4.8,13.64-7.85,4.61-3.28,13.19-15.31,18.29-9.43h.01Z"/>
  <path class="cls-7" d="M117.44,189.6l.46,2.62-.46.36c-5.8-1.07-11.31-2.91-16.91-4.66-5.05,5.78-7.85,12.53-17.06,11.22.39,3.92,8.13,8.4,11.67,8.89,5.08.7,12.62-2.06,16.94-4.72-6.02,9.08-22.25,14.03-28.62,2.99-1.17.29-.38,2.58-.71,3.75-.2.7-.9,1.12-1.37,1.61l-.59-1.19c-1.66,2.42-3.78,2.01-6.26,1.18.99-1.47,3.43-1.67,2.97-4.16l-1.24,2.32-2.66-.5c-2.01-2.86,3.26-11.99,6.09-13.66,4.16-2.46,9.42.02,11.87-1.85,1.9-1.45,4.38-9.35,4.44-11.95,6.58,3.09,14.26,6.47,21.45,7.75h-.01Z"/>
  <path class="cls-1" d="M123.4,48.31c-2.82.1-5.05.37-7.75.6-2.2-7.93-16.58-23.07-14.18-31.18,1.43-4.83,7.23-2.13,9.71.18,6.62,6.17,10.88,21.59,12.22,30.4Z"/>
  <path class="cls-5" d="M107.9,147.87c-.78.8-1.15,1.68-2.21,2.26-3.97,2.19-18.99,4.42-22.82,2.51-1.68-.84-5.2-8.03-6.56-10.13-.04-.37,1.08-2.32,1.19-2.38.08-.05.95-.05,1.19,0,.12.25.34.52.6.6,9.31,2.68,17.49-2.1,25.84-5.32,2.71,3.06,3.1,8.49,2.77,12.47h0Z"/>
  <path class="cls-10" d="M115.65,135.95l6.56,8.35c-.39-.19-1.33.16-2.13-.53-1.05-.9-.6-2.76-2.62-3.4l-4.75.39c-1.23,2.88,1.57,7.13,1.16,9.1-.1.47-1.12.43-1.39,1.12-.92,2.33-.42,5.16-2.5,7.62-.96,1.13-2.55,1.07-2.7,1.59-.18.62.07,1.79-.13,2.72-1.08,4.95-4.76,12.98-.76,16.59l10.46,7.13c-3.72-.67-19.69-5.44-21.19-8.36-1.16-2.24,4.95-12.78,4.52-16.06,1.63.25,2.31-.13,3.56-.62,7.98-3.1,10.46-16.79,7.15-23.85.31-2.4,2.7-2.06,4.77-1.79h0Z"/>
  <path class="cls-7" d="M182.41,108.52c3.23,3.72-.17,10.76-2.49,14.5-5.23,8.43-14.53,15.45-22.85,20.67-.35.11-1.81-5.18-2.08-5.96,1.24-.04,2.45-.38,3.58-.9,7.27-3.34,18.64-13.61,21.98-20.94,1.03-2.26,1.76-4.88,1.86-7.38h0Z"/>
  <path class="cls-7" d="M45.31,35.19l9.53,9.84c9.79,8.09,21.29,13.58,31.66,20.83,1.19,1.55-1.13,3.88-1.26,5.69-.58.39-4.54,3.85-4.76,3.58l4.17-7.74c-12.54-7.73-34.52-17.11-39.34-32.2Z"/>
  <path class="cls-7" d="M132.94,199.74c-.29,2.07-3.2,3.07-4.67,5.17-3.45,4.95-8,14.53-7.85,20.47.04,1.58-.39,5.07,1.79,4.77-1.33,3.46-3.4.47-4.35-1.91-4.18-10.45,3.86-16.56,5.22-26.14l9.87-2.35h-.01Z"/>
  <path class="cls-7" d="M107.9,147.87c-.3,3.74-1.54,6.57-4.48,8.94l-.28-1.18c-6.95.81-13.15,2.55-20.28,1.19v-4.18c3.83,1.91,18.85-.32,22.83-2.51,1.06-.58,1.43-1.46,2.21-2.26h0Z"/>
  <path class="cls-7" d="M90.62,14.93l23.84,33.98c-1.27.15-2.46,1.25-3.62-.25-6.36-10.25-18.04-21.59-20.23-33.73h.01Z"/>
  <path class="cls-9" d="M117.44,189.6c3.05.54,8.47,1.03,11.63,1.19,7.36.37,14.89-.71,22.04-2.39.9.38-.17,1.37-.29,1.8l-12.82,3.58h-14.31c-1.26,0-4.78-.92-6.26-1.19l.46-.36-.46-2.62h0Z"/>
  <path class="cls-5" d="M72.14,144.89c-1.6-.36-1.36,1.6-2.37,2.09-3.16,1.56-5.2-1.02-7.77-2.09-3.34-11.32,10.11-10.57,10.13,0h.01Z"/>
  <path class="cls-9" d="M144.86,130.58c.79,5.4-.95,12.32-5.76,15.4-6.15,3.94-11.19,1.12-16.89-1.69l-6.56-8.35c3.71.48,4.26,3.61,6.53,5.69,6.49,5.95,19.02,5.81,20.74-4.34.12-.72-.1-9.91,1.33-8.5-.28.77.56,1.51.6,1.79h0Z"/>
  <path class="cls-5" d="M123.4,138.93c5.95-.53,11.7-2.16,17.29-4.17-.65,9.01-8.61,10.95-15.47,6.22-.96-.66-1.21-1.45-1.82-2.05Z"/>
  <path class="cls-5" d="M85.85,173.5c1.1-1.4,2.27-1.17,3.02-2.05.62-.73.46-2.27,1.53-2.65l4.99.53c-1.28,2.83-1.8,6.1-2.98,8.94-.12.29.03.86-.27,1.21-2.19,1.8-4.09-.47-6.29-.61,0-.2-.02-.4,0-.6.01-.12,1.16-1.3.59-2.38h-1.19c-.03-.51-.1-1.39,0-1.79l.6-.6h0Z"/>
  <path class="cls-8" d="M58.44,85.84l2.68-7.73c1.63,1.46,8.81,3.58,9.1,5.14.93,4.85-8.91,3.84-11.79,2.58h0Z"/>
  <path class="cls-8" d="M82.27,77.52v8.35c-1.23.84-6.58,7.51-6.59,2.12,0-.79,1.22-6.17,1.55-6.85.96-2.01,3.63-2.63,5.04-3.61h0Z"/>
  <path class="cls-9" d="M110.88,137.74c3.31,7.05.83,20.74-7.15,23.85l-3.57-1.79c11.47.35,11.59-16,8.34-23.85.55-.6,2.17,1.34,2.38,1.79Z"/>
  <path class="cls-3" d="M80.44,155.58l-4.72,2.43-3.48-6.26,3.18-5.65c.59,1.7,5.92,8.25,5.03,9.49h0Z"/>
  <path class="cls-3" d="M67.96,134.15l-5.93.59c-.52-2.99-4.81-5.93-.45-7.9,2.97-1.34,4.65,5.6,6.38,7.3h0Z"/>
  <path class="cls-7" d="M62,144.89c2.57,1.07,4.61,3.65,7.77,2.09,1.01-.5.76-2.45,2.37-2.09,0,5.06-3.35,4.5-2.39,8.35-3.66-1.42-6.61-4.51-7.74-8.35h-.01Z"/>
  <path class="cls-7" d="M92.4,178.27c2.51,1.89,1.76,4.28.2,6.58-3.91.74-6.92-2.14-6.76-5.99,2.2.14,4.1,2.41,6.29.61.29-.34.14-.91.27-1.21h0Z"/>
  <path class="cls-13" d="M66.77,93.02h1.19l-.59,6.56c-.18.13-.26.9-.99,1.11-2.59.75-4.14-3-4.99-4.97,0-.3,4.62-2.25,5.38-2.7Z"/>
  <path class="cls-12" d="M126.98,228.35c.24,3.19-.58,5.41-4.17,4.77l.59-5.36c-1.44.27-.92,1.7-1.19,2.38-2.18.3-1.75-3.19-1.79-4.77,2.64.23,4.16,2.21,6.56,2.98Z"/>
  <path class="cls-9" d="M154.99,147.87c-1.65-6.09-5.44-13.1-7.75-19.08l.3-1.79c4.06,5.88,6.54,13.75,7.45,20.86h0Z"/>
  <path class="cls-10" d="M67.37,99.58l.59-6.56h-1.19c.68-.4,2.01-2.51,3.19-2.32.64.1,2.15,1.81,2.17,2.6.04,1.78-3.29,5.23-4.76,6.27h0Z"/>
  <path class="cls-9" d="M77.5,140.12c-.11.07-1.23,2.01-1.19,2.38-.74-1.15-6.17-7.56-5.36-8.34,4.36-.47,4.79,3.02,6.55,5.96h0Z"/>
  <path class="cls-10" d="M74.52,82.29c.41.49-.9,4.14-1.2,5.08-.28.89.7,1.79-1.18,1.47.04-2.17-.69-6.18,2.38-6.55Z"/>
  <path class="cls-9" d="M131.74,221.79c-.61.96-1.51,2.54-1.79,3.58l-1.79-2.98c.13-.15,2.96-.35,3.57-.6h0Z"/>
  <path class="cls-9" d="M129.36,228.95c-.24.87.13,2.17-1.19,2.38v-2.98c.36.07.79.46,1.19.6h0Z"/>
  <path class="cls-7" d="M85.25,175.89h1.19c.57,1.09-.58,2.26-.59,2.38-.48-.74-.55-1.53-.6-2.38Z"/>
  <path class="cls-12" d="M57.24,113.89h1.19v.89l-.59.3c-.25-.43-.4-.87-.6-1.19Z"/>
  <path class="cls-3" d="M143.96,211.06c.39.2.39.4,0,.6v-.6Z"/>
  <path class="cls-3" d="M142.47,211.66c.17-.23.38-.41.6-.6-.12.21-.43.39-.6.6Z"/>
  <path class="cls-3" d="M144.86,207.49c.19-.4.42-.79.6-1.19.69.54.07.91-.6,1.19Z"/>
  <path class="cls-7" d="M85.25,174.1c.06-.23.45-.41.6-.6l-.6.6Z"/>
  <path class="cls-9" d="M79.29,140.72c-.26-.08-.48-.35-.6-.6.36.07.52.24.6.6Z"/>
  <path class="cls-11" d="M44.12,28.64c.04-.28.31-.53.6-.6-.09.24-.38.44-.6.6Z"/>
  <path class="cls-12" d="M213.4,28.64c.45,7.4-6.85,12.67-12.53,15.82l-2.27-2.4c4.08-5.41,6.58-13.85,14.8-13.42Z"/>
  <path class="cls-12" d="M205.47,23.95c4.19,2.91-.45,5.7-2.18,7.98-2.28,3-3.86,6.33-6.28,9.21-2.81.06.99-7.27,1.57-8.55,1.57-3.41,2.96-7.5,6.88-8.65h0Z"/>
  <path class="cls-6" d="M218.17,35.21c.09,2.8-1.59,4.58-3.62,6.19-1.3,1.03-8.81,5.74-10.06,6.05-1.06.27-1.08.28-1.8-.63.03-1.38,8.07-7.46,9.54-8.93.75-.75.91-2.28,1.31-2.56.63-.45,4.22-.69,4.63-.12Z"/>
  <path class="cls-9" d="M221.16,41.16c1.02,1.02-3.08,4.73-3.96,5.28-1.17.72-9.04,3.98-10.18,4.15-2.19.33-2.58-1.01-.57-2.38,2.87-1.96,6.32-3.71,9.31-5.59,2.22-1.4,1.64-2.54,5.41-1.45h0Z"/>
  <path class="cls-5" d="M192.54,57.25c-1.2,3.6-6.36,2.4-8.94,1.19-1.13-3.14-.5-5.34,2.08-7.63.75-.06,5.86,5.36,6.86,6.44Z"/>
  <path class="cls-12" d="M200.29,21.48l.52,3.74-7.36,13.54c-1.2-.76-.52-1.18-.37-2.1.51-3.04,3.05-12.75,5.15-14.57.74-.64,1.04-.76,2.06-.61Z"/>
  <path class="cls-7" d="M183.6,58.45c2.58,1.21,7.74,2.4,8.94-1.19.44.47,1.81,1.71,1.53,2.39-3.44,3.98-8.53,4.18-10.47-1.19h0Z"/>
  <path class="cls-8" d="M196.71,57.25c-1.65.41-1.37-.26-1.95-.75-1.6-1.34-2.86-3.13-4.27-4.64-1.18-1.27-4.31-1.89-1.82-4.13,1.21,1.43,9.96,7.56,8.04,9.52h0Z"/>
  <path class="cls-12" d="M197.32,43.54l2.33,2.6-5.02,4.54c-1.22-.99-.7-.66-.31-1.48.9-1.9,2.64-3.48,3-5.66Z"/>
  <path class="cls-9" d="M202.08,47.72c1.36,1.39-4.74,4.71-5.96,4.76.6-1.01,4.87-5.87,5.96-4.76Z"/>
  <path class="cls-7" d="M195.52,41.76c.25,2.06-.9,3.86-2.03,5.43-.23.32-.66,2.16-1.54,1.12-.21-.24,1.7-4.69,2.08-5.39.45-.84-.04-1.46,1.49-1.16h0Z"/>
  <path class="cls-7" d="M193.14,39.97c.54.61-1.63,4.59-2.09,5.38s.11,1.5-1.48,1.17c-.06-.73,2.37-7.9,3.57-6.55h0Z"/>
  <path class="cls-9" d="M204.46,51.88c-1.82.14-3.12,1.52-4.6,2.26-1.02.51-.97,1.13-1.94-.17,1.49-.91,5.29-4.8,6.54-2.09h0Z"/>
  <path class="cls-14" d="M135.92,92.43c.35,3.05-4.43,6.6.62,8.12.96.29.95-.3,1.17-.37,2.82-.93,1.99-1.21,2.38-3.58h1.79c.8,3.61-.53,2.64-1.06,5.2-.38,1.84.05,3.77-.27,5.69-1.16,6.84-8.31,9.45-12.49,3.24-1.08-1.6-1.44-4.11-2.33-5.41-.72-1.05-3.78-2.31-3.5-3.64.53-2.53,3.45.6,3.99.76,3.53,1.11,5.85-1.19,5.55-4.65-8.12-.57-4.96-5.99,1.56-6.55,2.21-.19,1.72.55,2.61,1.18h-.02ZM128.76,106.73c.81,2.5,2.42,4.77,5.17,5.21,3.04-.39,3.18-2.3,3.77-4.62.32-1.24,1.15-2.46.51-4.09-4.82-2.54-5.63.86-9.8,2.28-.72.82.3,1.09.34,1.22h.01Z"/>
  <path class="cls-1" d="M104.17,103.3c9.93-1.68,9.3,7.05,1.51,8.66-10.81,2.24-9.38-7.32-1.51-8.66Z"/>
  <path class="cls-1" d="M153.64,88.99c2.13-.44,7.69-.55,8.43,2.07,1.4,5.03-10.8,8.67-12.94,3.32-.68-2.54,2.27-4.93,4.52-5.39h-.01Z"/>
  <path class="cls-15" d="M110.71,88.34c4.27-1.18,8.04,8.87,3.32,11.15-5.58,1.67-8.41-9.74-3.32-11.15Z"/>
  <path class="cls-2" d="M148.29,89.3c-4.23,4.27-10.22-7.37-4.83-10.51,4.44-1.5,7.86,7.45,4.83,10.51Z"/>
  <path class="cls-12" d="M135.92,92.43c.16.12,1.05-.31,1.22.35.59,2.12-1.12,2.04-1.21,2.44-.39,1.69.1,4.1,1.78,4.96-.22.07-.21.66-1.17.37-5.05-1.52-.27-5.07-.62-8.12Z"/>
  <path class="cls-12" d="M141.88,96.6h-1.79c.19-1.12,1.44-2.16,1.78-1.79.09.57-.11,1.28,0,1.79h0Z"/>
  <path class="cls-1" d="M62.4,32.42c8.22-.23,21.15,14.21,25.48,20.71,2.49,3.74,6.34,8.1.55,10.55-.86.08-11.8-7.14-13.51-8.32-4.43-3.06-13.14-9.11-15.8-13.41s-2.68-9.37,3.28-9.53Z"/>
  <path class="cls-15" d="M18.33,44.27c15.27-3.12,30.06,13.86,31.18,28.16.98,12.54-6.33,24.42-19.98,23.56-26.51-1.67-34.06-47.05-11.2-51.72ZM19.68,47.12c.01.2-.02.4,0,.6-.96-.69-1.92-.67-3.03-.36-1.48.43-1.06,1.49-1.15,1.55-.2.14-.98-.14-1.19,0-.73.5-2.29,1.22-2.68,1.82-.44.68-.16,1.4-.3,1.76-.15.38-.03.47-.6.6-.04,0-.32-.65-.85-.05-1.38,1.56-1.83,3.51-.94,5.42.1.38-.29.67-.6.6-.26-.07-.63-.77-1.19-.59-.03.79.02,1.59,0,2.38,0,.23-1.34,0,.6,1.19-2.12,2.04-.23,2.72,0,4.77-.48.13-1.23-.09-1.78,0l1.78,1.19c0-.39.05-.8,0-1.19.19-.05.41.05.6,0,.2.4.39.8.6,1.19.66,1.26,1.26,2.21,1.79,3.58.24.61.4,1.17.6,1.79l-2.93,1.27,1.15,4.09c.4.29,2.43-.89,2.97-1.19.37-.21.75-.91,1.19-1.19.94-.61,2.76-.85,3.54-2.08-.86-.48-.84-1.58-1.16-2.09l.6-.6c.2.57,1.04,2.32,1.48,2.36,1.23-.61,2.2-1.57,3.28-2.36.09-.07-.17-.87.6-1.19.05-.02.36.5.96.15.85-.5,1.58-1.19,2.58-1.4.29-.43-.83-2.41-1.16-2.93l.6-.6c.37.69,1.11,2.53,1.98,2.32,1.8-.44,3.2-1.67,2.19-3.51l.6-.6c1.91,3.22,6.2-.99,2.98-3.58.02-.36.55-.5.6-.6l2.08,2.94c4.26-2.18,2.23-2.63.9-5.32-.19-.39-.37-.82-.6-1.19-.09-.15.09-.46,0-.6h.6l1.76-.62c.64-.94-1.18-3.19-2.18-3.5s-1.18.49-1.37.54c-1.61.45-1.31-.53-1.79-.6-.06-3.33-2.09-2.24-3.58-2.98-.24-.12-.44-.54-.6-.6-.66-.25-1.14-.38-1.79-.6-.16-.05-.53-.87-1.19-.6.22.64-.59,1.13-.6,1.2-.76-1.88-3.37-1.16-5.01-1.12l-.35.53h.01ZM38.47,55.47c-1.98.5.34,4.38,1.7,4.13,2.81-1.01.23-4.63-1.7-4.13ZM41.81,64.33c.95.54,2.38-.46,2.74-1.4l-1.99-3.21-2.06.89,1.32,3.72h0ZM32.8,69.77c.17-.13,3.48-.74,4.17-1.2l-1.19-4.16,1.79,2.98,3.52-2.59-2.03-3.37c-1.92,2.21-4.67,3.2-7.03,4.76-.53.35-.37,1.16-.42,1.19-.55.33-4.23.35-3.93,2.41.07.49,1.38,2.79,1.9,2.91,2.05.48,3.03-2.8,3.22-2.94h0ZM44.12,68.58s-.79.13-1-.2c-.49-.77.11-1.85-1.69-2.01-.94,1-2.87,1.36-2.67,2.81l-.6.6c-1.29-1.13-3.53.74-3.58,2.38-.12-.05-.4,0-.6,0-2.49.09-3.29,1-3.58,2.98-.04.28-.31.54-.6.6-.28-.41-.42-.91-.89-1.18-.7.91-1.75,1.24-2.68,1.78-.38.22-.8,1.02-1.19,1.19-.74.32-2.16.59-2.98.6.43-.81.9-.97,1.69-1.29l.12-.75c-.57-2.55-2.32-4.4-4.26-1.86-1.08,1.42.21,3.93,2.44,3.9-.39.75-.36,2.21,0,2.98l-.6.6c-1.79-2.62-2.81.04-4.17,1.19-.13.11-.12.5-.6.6-.06.01-.25-.56-1.11-.29-3.88,1.22-.12,4.87,2.3,3.87,0,.2.02.4,0,.6-.28,2.55.86,1.74,2.69,3.57.57.02.21-.81.29-1.19.06-.26.34-.5.6-.6.16.39.37.84.6,1.19.42.66.43,1.17,1.19,1.79,1.45,1.17,2.99,1.29,4.77,1.19-.03-.38.07-.84,0-1.19s-.27-.52-.6-.6c-.08-.16.09-.47,0-.6h.6c1.14,2.34,3.53,2.76,5.96,2.38l-1.19-2.98.6-.6c1.74,2.87,3.63,4.85,5.36.6.1-.24.39-.44.6-.6.27.41.43.9.89,1.18,1.53-1.47,2.53-1.91,2.68-4.16,0-.19.02-.41,0-.6,1.04,1.57,2.64-2.02,2.74-2.37.33-1.14-.47-2.06-.96-2.99l.6-.6c.2.38.69.66.6,1.19h.58c.72-1.8.57-3.49.6-5.36.03-1.47-.53-.78-.6-1.19-.1-.55.1-1.25,0-1.79.28.1,1.24.19,1.2-.3l-.61-3.27c-2.04-.6-.81,2.42-.59,3.57-1.33-.46-.09-1.35-2.98-1.79-.28-.04-.54-.31-.6-.6.73-.51,1.91-1.3,1.19-2.38,3.02,3.35,3.16-7.29-1.18-2.64-.03.14,1.09,2.53,1.18,2.64h.04ZM7.77,73.35l1.83-1.5-1.24-3.26c-2.1.91-.93,3.23-.58,4.77h-.01ZM26.83,69.77l-3.62,2.14,2.12,3.77,2.62-2.16-1.13-3.76h.01ZM16.12,81.1l3.48-2.16-2.08-3.11-2.55,1.5,1.16,3.78h-.01ZM14.31,78.12c-3.66.59-4.7,3.04-1.41,5.28l2.56-1.47s-1.15-3.81-1.15-3.81Z"/>
  <path class="cls-15" d="M32.8,69.77c-1.19-.31-1.34-1.27-1.19-2.38,1.19.31,1.34,1.27,1.19,2.38Z"/>
  <path class="cls-1" d="M137.7,107.33c-.59,2.31-.73,4.22-3.77,4.62-2.75-.44-4.36-2.72-5.17-5.21,3.25-1.45,5.79.08,8.94.6h0Z"/>
  <path class="cls-13" d="M128.76,106.73c-.04-.13-1.06-.4-.34-1.22,4.17-1.42,4.98-4.83,9.8-2.28.64,1.63-.2,2.86-.51,4.09-3.15-.52-5.69-2.05-8.94-.6h-.01Z"/>
  <path class="cls-3" d="M26.84,47.12l-.59.3v.89l2.38-.59c.16.06.35.47.6.6-.95.59-1.42.61-1.1,1.93,1.06,4.34,3.82.92,4.68,1.05.48.07.18,1.04,1.79.6l1.79,3.58h-.6c-.42-.65-1.73-2.84-2.14-2.94l-3.07,2.04,1.92,3.23,3.29-1.73c.23.37.4.8.6,1.19-2.03.45-2.27.82-2.98,2.38-.05.1-.58.24-.6.6-1.32-1.06-4.58.88-2.98,3.58l-.6.6c-.17-.32-1.32-1.72-1.48-1.73l-3.29,1.75c-.13.16.44.88.6,1.18l-.6.6c-.2-.31-.72-1.26-.89-1.19l-3.28,1.79,1.79,3.57c-.77.32-.5,1.12-.6,1.19l-2.1-3.59-3,1.81c-.57.73.14,1.23.34,1.78l-.6.6c-.24-.37-.64-1.21-.96-1.22l-2.95,1.8,1.53,3.59c-.44.28-.82.99-1.19,1.19-.25-1.4-.75-2.83-1.19-4.17-.2-.62-.36-1.18-.6-1.79.91-.18,3.59-1.35,3.34-2.41l-1.89-2.96-3.24,1.78c-.21-.39-.39-.8-.6-1.19.72-.2,3.16-1.09,2.99-2.07-.2-1.14-1.94-4.34-3.59-2.7-1.93-1.19-.6-.97-.6-1.19l1.77-.89-.58-.89c.3.08.7-.22.6-.6.1.21.73,1.2.88,1.17l3.29-1.78-2.38-4.76c.56-.12.44-.22.6-.6l2.44,4.14,3.24-1.72-2.69-5.99c.21-.14.99.14,1.19,0l2.39,4.95,1.18.4c-.38-1.71,2.21-1.54,2.39-1.79.37-.48-1.68-3.46-1.79-4.76-.02-.2.01-.4,0-.6l3.28,4.16c.51-.81,2-1.17,2.42-1.79.52-.76-.36-1.58-.33-1.77,0-.07.82-.56.6-1.2.66-.27,1.03.55,1.19.6h-.02ZM25.06,56.06l3.53-2.14-1.76-3.82-3.56,1.8,1.8,4.16h-.01ZM22.66,53.08l-3.56,1.81,2.14,3.51,3.16-2.04-1.74-3.28ZM26.29,56.72c-.43.62,1.29,3.27,2.12,3.42l2.55-1.5-1.52-3.15c-.57-.17-3.05,1.09-3.15,1.23ZM18.44,56.09l-3.53,1.17,2.08,4.15,3.28-1.79s-1.83-3.53-1.83-3.53ZM25.64,57.85l-3.52,1.24,1.18,4.09c1.83.49,2.46-1.62,4.14-1.77l-1.8-3.57h0ZM13.43,58.46l-2.64,2.14,2.04,3.81,2.41-1.77.29-.88-2.11-3.29h.01ZM17.31,63.21l2.67,2.87,2.61-2.05-2-3.78-7.45,4.77,2.17,3.54,3.16-1.22-1.14-4.11-.02-.02Z"/>
  <path class="cls-3" d="M42.93,70.96c.06.29.32.55.6.6l-1.84,1.55,1.34,3.13,3.48-1.11c.07.41.62-.28.6,1.19l-2.9,1.48c.72.73.75,2.02,1.12,2.69l-.6.6c-.33-.64-1.36-1.23-1.2-2.38l-3.45,2.08c.93,1.89,2.58,3.46,2.87,5.67.02.18,0,.41,0,.6l-3.95-5.34-3.15,1.23c-.23.32,3,6.29,3.53,7.09-.21.16-.5.36-.6.6l-4.46-6.43-2.61,2.04c-.11.58,1.27,3.07,1.7,3.8l-.6.6c-1.44-.56-1.32-3.71-2.65-3.57-2.63.26-3.2,1.94-2.11,4.17h-.6c-.37-.53-1.27-.95-1.49-1.79l-2.69,2.98c-.77-.62-.78-1.13-1.19-1.79l3.57-1.8-1.19-3.57c1.67,2.47,3.14,2.34,5.35.3l-2.08-3.3c-2.11.06-3.06,2.87-3.26,3-.51.32-4.28-.18-4.1,1.99.28.78.8,1.44,1.12,2.19-.26.09-.53.34-.6.6l-1.3-2.29-1.68-.09c.02-.19,0-.4,0-.6.06-1.8-.1-1.75-1.19-3.58.47-.1.47-.49.6-.6l2.08,2.97,3.23-2.07c-.48-.62-.73-1.49-1.14-2.1l.6-.6c.16.34,1.26,1.67,1.56,1.73l3.21-1.15-1.79-4.16c.4-.17.81-.97,1.19-1.19l2.09,4.16,2.64-1.84c.29-.43-.81-2.42-1.15-2.92.29-.06.56-.32.6-.6l2.08,2.27c.91-.43,2.73-1.27,2.6-2.46l-1.1-2.79c.19,0,.48-.05.6,0,.78.32,1.2,2.11,2.16,2.31l2.02-.81-.61-3.88.6-.6,2.08,2.93c.61-.5,1.5-.73,2.1-1.14h-.04ZM38.77,79.31c.55.4,3.37-1.35,3.51-2.16l-2.02-3.12-2.74,1.46s1.25,3.82,1.25,3.82ZM36.96,76.33l-4.17,1.8,1.84,4.13c.61.42,3.29-1.31,3.44-2.13l-1.12-3.8h0ZM32.19,79.31l-3.61,2.12,2.2,3.16,3.2-1.12-1.8-4.16h0Z"/>
  <path class="cls-12" d="M42.93,87.06c-.15,2.25-1.15,2.69-2.68,4.16-.47-.28-.62-.77-.89-1.18-.53-.8-3.76-6.77-3.53-7.09l3.15-1.23s3.95,5.34,3.95,5.34Z"/>
  <path class="cls-12" d="M38.76,90.64c-1.73,4.25-3.62,2.28-5.36-.6-.44-.72-1.81-3.21-1.7-3.8l2.61-2.04,4.46,6.43h0Z"/>
  <path class="cls-12" d="M14.32,48.91l2.69,5.99-3.24,1.72-2.44-4.14c.14-.36-.14-1.08.3-1.76.39-.59,1.94-1.32,2.68-1.82h0Z"/>
  <path class="cls-12" d="M28.03,91.23c-1.09-2.23-.51-3.91,2.11-4.17,1.34-.13,1.22,3.02,2.65,3.57l1.19,2.98c-2.43.38-4.82-.04-5.96-2.38h.01Z"/>
  <path class="cls-12" d="M42.93,86.46c-.29-2.21-1.94-3.78-2.87-5.67l3.45-2.08c-.16,1.15.87,1.75,1.2,2.38.49.94,1.29,1.85.96,2.99-.1.35-1.71,3.94-2.74,2.37h0Z"/>
  <path class="cls-12" d="M19.68,47.71c.11,1.3,2.16,4.29,1.79,4.76-.19.24-2.78.07-2.39,1.79l-1.18-.4-2.39-4.95c.09-.06-.34-1.12,1.15-1.55,1.1-.32,2.07-.34,3.03.36h-.01Z"/>
  <path class="cls-6" d="M10.74,53.08l2.38,4.76-3.29,1.78c-.16.03-.78-.96-.88-1.17-.89-1.91-.45-3.86.94-5.42.53-.6.81.06.85.05Z"/>
  <path class="cls-12" d="M38.76,69.18c-.2-1.45,1.73-1.81,2.67-2.81,1.8.16,1.2,1.24,1.69,2.01.21.33.97.16,1,.2.71,1.09-.46,1.87-1.19,2.38-.59.41-1.49.65-2.1,1.14l-2.08-2.93h0Z"/>
  <path class="cls-12" d="M16.7,71.56c-.2-.55-.9-1.05-.34-1.78l3-1.81,2.1,3.59c-1.08.79-2.06,1.75-3.28,2.36-.44-.04-1.28-1.79-1.48-2.36Z"/>
  <path class="cls-12" d="M25.05,77.52l1.79,4.16-3.21,1.15c-.3-.07-1.4-1.39-1.56-1.73-.36-.77-.39-2.23,0-2.98.82-.01,2.24-.28,2.98-.6Z"/>
  <path class="cls-6" d="M31.61,67.39s-.11-.84.42-1.19c2.35-1.56,5.11-2.55,7.03-4.76l2.03,3.37-3.52,2.59-1.79-2.98,1.19,4.16c-.69.46-4,1.07-4.17,1.2.14-1.12,0-2.07-1.19-2.38h0Z"/>
  <path class="cls-6" d="M31.61,67.39c-.14,1.12,0,2.07,1.19,2.38-.18.14-1.17,3.42-3.22,2.94-.52-.12-1.83-2.42-1.9-2.91-.31-2.06,3.38-2.08,3.93-2.41Z"/>
  <path class="cls-12" d="M32.8,60.23c3.21,2.59-1.07,6.8-2.98,3.58-1.6-2.7,1.66-4.64,2.98-3.58Z"/>
  <path class="cls-12" d="M24.45,85.27c.2-.12,1.15-2.93,3.26-3l2.08,3.3c-2.21,2.04-3.68,2.17-5.35-.3l1.19,3.57-3.57,1.8c-.22-.35-.43-.81-.6-1.19-.32-.75-.84-1.41-1.12-2.19-.18-2.16,3.59-1.67,4.1-1.99h.01Z"/>
  <polygon class="cls-9" points="26.83 69.77 27.96 73.53 25.34 75.69 23.21 71.92 26.83 69.77"/>
  <path class="cls-12" d="M38.16,69.77l.61,3.88-2.02.81c-.96-.2-1.38-1.99-2.16-2.31.05-1.64,2.29-3.51,3.58-2.38h0Z"/>
  <path class="cls-12" d="M24.45,66.2c.33.52,1.45,2.5,1.16,2.93-1,.21-1.73.9-2.58,1.4-.6.35-.92-.17-.96-.15l-1.79-3.57,3.28-1.79c.17-.07.69.88.89,1.19h0Z"/>
  <polygon class="cls-12" points="16.12 81.1 14.96 77.32 17.52 75.82 19.6 78.93 16.12 81.1"/>
  <path class="cls-6" d="M22.07,78.12c-2.23.03-3.53-2.48-2.44-3.9,1.94-2.54,3.68-.69,4.26,1.86l-.12.75c-.79.32-1.27.48-1.69,1.29h0Z"/>
  <path class="cls-12" d="M25.05,47.71c-.02.2.85,1.01.33,1.77-.42.62-1.91.99-2.42,1.79l-3.28-4.16.35-.53c1.65-.04,4.25-.76,5.01,1.12h.01Z"/>
  <path class="cls-12" d="M35.78,55.46c.09.14-.09.45,0,.6l-3.29,1.73-1.92-3.23,3.07-2.04c.42.1,1.73,2.29,2.14,2.94Z"/>
  <path class="cls-12" d="M7.76,62.02c1.64-1.64,3.39,1.56,3.59,2.7.17.98-2.27,1.87-2.99,2.07-.18.05-.41-.05-.6,0-.23-2.05-2.12-2.73,0-4.77Z"/>
  <path class="cls-12" d="M10.74,71.56c-.53-1.36-1.12-2.32-1.79-3.58l3.24-1.78,1.89,2.96c.25,1.05-2.43,2.23-3.34,2.41h0Z"/>
  <path class="cls-12" d="M13.72,76.33l-1.53-3.59,2.95-1.8c.32,0,.73.85.96,1.22.32.51.3,1.62,1.16,2.09-.79,1.23-2.6,1.47-3.54,2.08Z"/>
  <path class="cls-12" d="M33.99,72.16l1.1,2.79c.13,1.19-1.69,2.03-2.6,2.46l-2.08-2.27c.29-1.98,1.09-2.89,3.58-2.98Z"/>
  <path class="cls-6" d="M29.22,64.41c1.01,1.84-.39,3.07-2.19,3.51-.87.21-1.61-1.63-1.98-2.32-.16-.29-.72-1.02-.6-1.18l3.29-1.75c.16.02,1.31,1.42,1.48,1.73h0Z"/>
  <path class="cls-12" d="M21.47,81.7c.41.6.66,1.48,1.14,2.1l-3.23,2.07-2.08-2.97c1.36-1.16,2.38-3.81,4.17-1.19h0Z"/>
  <path class="cls-6" d="M14.31,78.12l1.15,3.81-2.56,1.47c-3.29-2.24-2.26-4.69,1.41-5.28Z"/>
  <path class="cls-6" d="M36.37,57.25c1.32,2.69,3.36,3.15-.9,5.32l-2.08-2.94c.71-1.57.95-1.93,2.98-2.38Z"/>
  <path class="cls-12" d="M29.82,75.73c.34.5,1.44,2.49,1.15,2.92l-2.64,1.84-2.09-4.16c.94-.54,1.98-.87,2.68-1.78.48.27.62.77.89,1.18h.01Z"/>
  <path class="cls-12" d="M43.53,71.56c2.89.44,1.65,1.33,2.98,1.79.1.54-.1,1.24,0,1.79l-3.48,1.11-1.34-3.13,1.84-1.55h0Z"/>
  <path class="cls-12" d="M29.22,48.31c1.49.74,3.51-.35,3.58,2.98-.86-.12-3.62,3.29-4.68-1.05-.32-1.32.16-1.34,1.1-1.93Z"/>
  <path class="cls-12" d="M11.34,73.35c.44,1.35.94,2.77,1.19,4.17-.55.31-2.57,1.49-2.97,1.19l-1.15-4.09s2.93-1.27,2.93-1.27Z"/>
  <path class="cls-6" d="M41.81,64.33l-1.32-3.72,2.06-.89,1.99,3.21c-.36.94-1.79,1.94-2.74,1.4h0Z"/>
  <path class="cls-12" d="M27.43,91.23c.09.13-.08.43,0,.6.11.22.41.41.6.6.07.35-.03.8,0,1.19-1.78.1-3.32-.01-4.77-1.19l2.69-2.98c.21.84,1.12,1.26,1.49,1.79h-.01Z"/>
  <path class="cls-9" d="M16.7,83.48c1.09,1.83,1.25,1.78,1.19,3.58-2.42,1-6.19-2.65-2.3-3.87.87-.27,1.06.3,1.11.29Z"/>
  <path class="cls-6" d="M38.47,55.47c1.93-.49,4.52,3.12,1.7,4.13-1.36.25-3.68-3.63-1.7-4.13Z"/>
  <path class="cls-6" d="M44.12,68.58c-.1-.11-1.21-2.5-1.18-2.64,4.35-4.65,4.2,5.99,1.18,2.64Z"/>
  <path class="cls-9" d="M47.1,76.33c-.04,1.87.11,3.56-.6,5.36h-.58c.08-.53-.4-.81-.6-1.19-.36-.68-.39-1.96-1.12-2.69,0,0,2.9-1.48,2.9-1.48Z"/>
  <path class="cls-6" d="M7.77,73.35c-.35-1.54-1.52-3.85.58-4.77l1.24,3.26-1.83,1.5h0Z"/>
  <path class="cls-9" d="M34.59,51.89c.19-.05.37-.84,1.37-.54s2.82,2.56,2.18,3.5l-1.76.62-1.79-3.58Z"/>
  <path class="cls-7" d="M17.9,87.66l1.68.09,1.3,2.29c-.09.38.28,1.21-.29,1.19-1.83-1.83-2.96-1.02-2.69-3.57Z"/>
  <path class="cls-7" d="M46.51,73.35c-.22-1.15-1.45-4.17.59-3.57l.61,3.27c.04.5-.91.4-1.2.3Z"/>
  <path class="cls-11" d="M8.36,59.04l.58.89-1.77.89c.02-.79-.02-1.59,0-2.38.55-.18.93.53,1.19.59h0Z"/>
  <path class="cls-7" d="M28.62,47.71l-2.38.59v-.89l.59-.3c.65.21,1.12.35,1.79.6Z"/>
  <path class="cls-3" d="M7.76,66.79c.04.39-.01.8,0,1.19l-1.78-1.19c.56-.1,1.31.12,1.78,0Z"/>
  <path class="cls-3" d="M28.03,92.43c-.19-.19-.48-.37-.6-.6.32.08.53.26.6.6Z"/>
  <polygon class="cls-12" points="17.31 63.21 18.45 67.33 15.29 68.55 13.13 65.02 20.58 60.24 22.58 64.03 19.97 66.08 17.31 63.21"/>
  <polygon class="cls-12" points="25.06 56.06 23.26 51.9 26.82 50.1 28.59 53.91 25.06 56.06"/>
  <path class="cls-12" d="M25.64,57.85l1.8,3.57c-1.68.15-2.31,2.26-4.14,1.77l-1.18-4.09,3.52-1.24h0Z"/>
  <polygon class="cls-12" points="13.43 58.46 15.54 61.74 15.24 62.62 12.83 64.4 10.79 60.59 13.43 58.46"/>
  <polygon class="cls-12" points="22.66 53.08 24.39 56.36 21.23 58.4 19.1 54.89 22.66 53.08"/>
  <polygon class="cls-12" points="18.44 56.09 20.28 59.62 17 61.41 14.92 57.26 18.44 56.09"/>
  <path class="cls-12" d="M26.29,56.72c.1-.14,2.58-1.4,3.15-1.23l1.52,3.15-2.55,1.5c-.82-.16-2.55-2.8-2.12-3.42Z"/>
  <path class="cls-12" d="M36.96,76.33l1.12,3.8c-.15.82-2.83,2.56-3.44,2.13l-1.84-4.13,4.17-1.8h-.01Z"/>
  <polygon class="cls-12" points="32.19 79.31 33.99 83.48 30.79 84.6 28.59 81.43 32.19 79.31"/>
  <path class="cls-12" d="M38.77,79.31l-1.25-3.82,2.74-1.46,2.02,3.12c-.14.81-2.97,2.56-3.51,2.16Z"/>
</svg>