<?xml version="1.0" encoding="UTF-8"?>
<svg id="_레이어_1" data-name=" 레이어 1" xmlns="http://www.w3.org/2000/svg" viewBox="0 0 181.36 205.65">
  <defs>
    <style>
      .cls-1 {
        fill: #251e29;
      }

      .cls-2 {
        fill: #42443e;
      }

      .cls-3 {
        fill: #554e41;
      }

      .cls-4 {
        fill: #c87c3f;
      }

      .cls-5 {
        fill: #fcfcfb;
      }

      .cls-6 {
        fill: #c8ab8e;
      }

      .cls-7 {
        fill: #27221f;
      }

      .cls-8 {
        fill: #ab552b;
      }

      .cls-9 {
        fill: #bdc6c9;
      }

      .cls-10 {
        fill: #642942;
      }

      .cls-11 {
        fill: #d3d8da;
      }

      .cls-12 {
        fill: #582039;
      }

      .cls-13 {
        fill: #ebebea;
      }

      .cls-14 {
        fill: #702b47;
      }

      .cls-15 {
        fill: #d5833a;
      }

      .cls-16 {
        fill: #9b8164;
      }

      .cls-17 {
        fill: #e5d6b8;
      }
    </style>
  </defs>
  <path class="cls-1" d="M37.6,75.07c-.11.53.11,1.26,0,1.79-.02.11-.93.75-.63,2.06.17.64,1.05.2,1.23.33,3.65,2.58,4.47,1.02,7.6,2.24,1.7.66,5.1,4.55,7.12,6,18,12.96,47.37,14.48,66.95,4.28.98-.4,2.44.6,2.98.6v1.79c0,.89-.16,2.23,0,2.98l-.59,1.19h1.19c.19-.03.41.05.6,0,.14.24.45.4.6.6,1.62,2.2,4.85,5.59,7.34,6.67,3.45,1.5,6.79.66,10.22,1.71,1.98.6,3.17,2.09,5.1,2.35v3.58c-.66.15-1.92-.2-2.38,0,.4-1.62-1.09-1.48-1.99-1.1-3.37,1.43-3.62,11.58-3.97,14.81,1.91,2.2,3.46-8.33,3.72-9.12.3-.9.87-1.23,1.05-1.61l-.59,7.75c.39-.01.8.03,1.19,0-.41,3.29-4.34,3.73-4.77,7.15-.2.02-.41-.04-.6,0-1.46.27-3.17,1.56-4.77,1.79-5.06.71-9.56-1.03-14.3-2.38.18,1.89-.26,4.14,0,5.96h-1.79c-.48-7.23-2.73-15.85-3-23-.06-1.51.18-1.52.62-2.63h1.19c.57,1.51.38,1.68.6,2.98.48,2.87,1.06,11.29,2.12,13.08,1.52,2.6,13.19,4.3,15.94,3.49,2.96-.88.98-4.33,1.01-5.84.11-5.49,1.85-10.71,5.36-14.9-9.3.54-14.54-3.94-21.08-9.5-3.51,5.2-8.64,6.52-13.81,9.49-.8,1.28,1.54,12.96.89,16.38-.19.98-.64,1.65-1.6,2.02-2.52.7-3.41-1.91-3.7-3.84-.57-3.77-.35-9.39-1.25-12.97-.12-.49-1.22-.36-1.21-.7,0-.22,1.64-3.88,1.77-4.06,1.59-2.22,3.37.05,4.55.2,2.71.33,10.68-6.8,12.78-8.95.94-.97,1.57-1.01,1.19-2.98l-1.49-.02c-.46.15-.21,1.14-.29,1.21-.1.09-.4-.07-.6,0-2.67.9-12.04,2.77-13.39,4.2-.7.8-.91,2.19-1.52,2.96-1.12,1.41-6.56,7.45-6.56,8.64v31.6c0,1.26-.42,5.26-.6,6.86-.02.2-.99.89-.59,1.79,7.24-.52,16.67-.71,22.05-5.96-.6,2.3-1.99,3.43-2.38,5.37-6.87.99-13.42,3.77-20.47,3.55l-.99,3.01c-.79.05-1.59-.03-2.38,0v-.6l.57-.81c-.23-.48-.64-.86-1.16-.98-.96-.22-3.61-.08-4.77,0-.29-.77-1.13-.57-1.79-.6-4.41-.15-10.05-1.24-13.71-1.19-4.42-1.48-9.11-2.04-13.57-3.42-3.07-.95-6.11-2.92-8.81-3.71-1.45-.43-1.02,2.35-.59,2.98.19.29,5.37,2.57,6.28,2.96-.76,1.4-2.63-.15-3.79.07-.34.05-.27.41-.38.53-1.06,1.09-.41,1.83-.6,2.98-.46,2.79-.5,5.57-1.19,8.35-.17.69-.32,1.14-.6,1.79-1.26,2.96-2.8,3.88-4.77,5.96-.74.78-1.55,1.48-2.38,2.38-.54.58-1.44.86-2.06,1.81-2.28,3.48-1.89,9.85-.61,13.67,1.42,4.25,2.15,5.43,5.05,1.81.6-.75,1.25-1.25,1.2-2.38,1.65.35,1.26,3.06.59,4.17-.34.56-2.27.99-1.79,2.38,1.65.22,3.04.68,4.77.6.82-.04,3.32-.75,4.17-1.19,1.5-.78,1.67-1.68,2.38-2.98.24-.44.99-.73,1.08-1.58.05-.49-.47-.74-.48-.81-.04-.38.09-.93,0-1.19h1.79c-.16,1.16.16,2.43-.14,3.73-1.58,6.93-11.14,8.22-16.39,4.8-.87-.57-3.92-4.58-4.34-5.55-1.46-3.38-1.96-10.21-.91-13.73s5.4-6.98,8.07-9.52c.76-.72,2.1-.99,1.78-2.38-.21-.26-1.96,1.54-2.38,1.79-6.47,3.93-14.68,5.08-22.05,3.58-.95-.46-2.66-.71-3.58-1.19-3.32-1.73-7.52-3.84-10.13-6.56-.39-.41-2.08-2.52-2.38-2.98-1.84-2.8-3.38-6.76-3.58-10.13-.05-.86-.12-2.19,0-2.98.49-3.17,2.28-4.4,4.77-5.96,1.05.2,2.58-.22,3.58,0,5.33,1.2,5.81,9.17,9.51,12.84,5.82,5.77,15.75,4.28,21.77-.34.73-.56,4.53-4.25,4.77-4.77,2.19-4.9-1.69-8.15-.88-13.1-5.91,2.59-3.03,11.3-9.52,13.43-.97.32-4.8,1.33-5.72,1.46-9.53,1.36-11.2-9.62-9.51-16.69,1.26-5.26,2.04-7.15,2.74-12.72,1.01-8.07,10.86-17.72,17.28-22.25-.39-2.47-1.08-4.99-.51-7.52.67-2.95,3.96-3.88,3.49-8.42-7.2-1.64-5.55-3.45-6-9.29l1.79.6-.03-.05ZM44.15,87.59c-.14,2.3-1.18,2.47-2.38,4.17-.23.32-.99.22-1.19,1.49-.25,1.58.24,3,.61,4.47,1.69-.83,6.6-.73,5.95-3.58,10.51,1.75,13.51,5.43,22.44,9.45,2.29,1.03,11.64,4.75,13.51,4.29.67-.17.87-3.21,3.64-1.17.19.14,2.64,3.67,2.69,3.9.2.85-1.47,1.54-1.74,2.91-.4,2.09-.31,5.98-.61,8.63-.25,2.23.83,5.73-2.11,6.59-6.98,1.09-.41-14.69-3.56-17.91-1.19-1.21-10.33-3.4-12.81-4.48-5.46-2.37-12.78-9.03-18.69-8.61-8.47.61-21.07,12.84-24.46,20.29-2.92,6.42.36,11.36,6.79,13.05-.32,1.44,2.95,2.12,3.87,2.39,4.02,1.22,5.34,2.14,8.31-1.84,2.21-2.96,2.11-6.34,5.41-8.9,1.02-.8,7.14-4.35,8.32-4.83.93-.38,1.81-.64,2.7.05-.18.95-.22,1.43-.6,2.38-11.49,1.9-21.33,19.86-7.74,25.92,11.21,5,27.37,6.13,39.53,6.3.69-.16.83-1.79.99-2.41,1.71-6.49,1.23-16.96,1.19-23.85,0-1.39.03-2.79,0-4.17-.06-2.94.51-7.58-.6-10.13-.48-1.11-7.3-7.88-8.63-8.96-4.78-3.86-13.69-4.18-19.96-6.27-6.85-2.29-11.13-6.42-16.71-8.62,3.15.23-3.1-3.22-2.76-3.53l-1.73,1.17c-.47.95.34,1.53.32,1.76v.05ZM98.4,104.28c.28-.4,3.47-3.8,2.98-4.17l-14.3.59c-.9.8,3.6,4.22,4.17,4.77.77.73,2.69,3.79,3.81,3.55,1.67-1.13,2.29-3.22,3.34-4.74ZM104.35,107.26c-1.58-.25-1.19.29-1.21,1.5-.08,4.2,1.7,9.06,1.22,13.4h1.78l-1.79-14.9ZM85.88,107.86c-1.38-.07-1.06-.22-1.19.88-.54,4.64-.63,9.4-1.19,14.02h1.78c-.64-1.95.6-4.94.6-6.26,0,0,0-8.64,0-8.64ZM106.14,123.96c-.95-.95-2.73.84-1.78,1.78s2.73-.84,1.78-1.78ZM85.28,124.55c-2.98-.22-2.98,2.01,0,1.78v-1.78ZM36.4,138.86c2.18-2.3-6.26-5.4-7.7-6.31-1.75-1.1-3.14-2.3-4.53-3.82-1.67.15-1.81,1.62-1.18,2.98.78,1.69,12.57,8.04,13.41,7.15h0ZM28.06,148.99c2.42-.28,1.42-2.03,3.58-2.38.12.51.49.93.95,1.17,2.43.58,4.55-4.49,4.42-6.53-1.22.02-2.43-.23-3.58-.6-2.35-.75-5.42-2.12-7.57-3.46-.95-.6-3.72-3.66-4.35-3.1-2.34,5.25-.89,15.75,6.55,14.9h0ZM13.16,153.17c-.64-1.25-.86-3.93-1.87-5.58-3.68-5.99-8.65-3.17-8.89,2.87,4.03.6,2.24,4.84,2.53,7.06.18,1.38,1.31,1.63,1.68,2.21,1.97,3.02,2.72,3.97,5.96,5.96s4.86,2.42,8.34,2.98c2.72.44,4.77.82,7.75.6s4.7-1.03,7.15-1.79c1.13-.35,2-.07,3.61-.86,1.77-.86,2-1.98,2.95-2.72.41-.32,1.88-.07,2.44-.99,1-1.64.88-5.41,1.14-7.36.1-.78,1.17-2.21.59-3.57-1.63-.51-1.49,1.54-1.78,1.79-.85.71-3.84,3.01-4.77,3.58-.72.43-4.49,2.1-5.36,2.38-1.36.44-4.48,1.01-5.96,1.19-.2.02-.4-.02-.6,0h-.6c-.77.04-1.62.05-2.38,0-.17-.6-.69-.53-1.19-.6-.38-.05-.87.08-1.19,0-2.76-.72-3.96-1.85-5.96-3.58-1.13-.98-2.89-2.24-3.58-3.58h-.01Z"/>
  <path class="cls-9" d="M98.4,187.74c1.52,4.28,2.65,7.73,7.42,9.57,5.32,2.05,23.1,2.49,24.77-4.8.54.37,1.17.44,1.79.6,1.16.28,2.83,1.15,3.29,1.18,1.18.07,1.78-1.1,2.07-1.18,6.86-1.77,13.8-1.93,20.86-1.79.99.02,1.99-.05,2.98,0,.59.03,1.2-.05,1.79,0s1.21-.07,1.79,0c2.12.26,13.29,2.54,11.06,5.98-1.69,2.61-14.36,3.97-17.62,4.15-1.37.08-2.79,0-4.17,0-.6,0-1.19,0-1.79,0-.79,0-1.6.05-2.38,0-1.39-.09-3.98-.38-5.36-.6-.38-.06-.82.06-1.19,0-1.76-.3-6.27-2.34-7.45-2.34-.97,0-4.93,2.25-6.73,2.76-17.68,5.09-46.06,4.79-64.5,3.75-1.77-.1-3.6.14-5.36,0-6.45-.5-13.43-1.35-19.79-2.56-3.02-.58-19.39-3.48-11.8-8.77.15-.1,1.3-.4,1.79-.6,1.56-.63,3.66-1.18,5.36-1.19.42.97,3.46,4.99,4.34,5.55,5.25,3.42,14.81,2.13,16.39-4.8.3-1.31-.03-2.58.14-3.73.07-.51-.08-1,.6-1.19h41.72-.02Z"/>
  <path class="cls-7" d="M41.17,36.32c.27-.94,1.88-3.83,1.74-4.41-11.64-7.09-11.35-25.98,2.02-30.87,8.56-3.13,16.93.98,19.49,9.65,16.43-8.18,34.29-8.68,50.65,0,2.52-8.68,10.97-12.68,19.49-9.65,13.35,4.74,13.43,23.68,2.11,30.79,3.6,8.58,4.61,17.97,8.2,26.56,2.16,5.16,8.43,12.19-1.12,13.77-1.11,1.28,2.59,6.53-1.29,9.75-2.8,2.32-5.46.81-7.71,1.83-.66.3-4.51,4.18-5.37,5.06-2.13.23-4.66,3.58-6.56,3.58-.54,0-2-1-2.98-.6,2.24-1.17,5.01-3.03,7.09-4.54,1.77-1.28,5.55-5.23,6.77-5.75,1.71-.72,3.49-.28,5.26-.7,5.62-1.34.77-6.18,2.63-9.89l4.09-1.73c2.66-1.54-2.52-6.92-3.19-8.4-.3-.67-1.55-4.03-1.79-4.77-1.25-3.92-1.4-7.99-2.98-11.92-.24-.6.15-1.83-.85-2.41-1.12-1.14-2.2-.82-3.32-1.17-9.11-2.8-25.28-5.05-34.84-5.39-1.33-.05-4.25-.24-5.29.12-1.18.4-1.85,3.5-3.67,3.5-1.84-.03-2.48-3.09-3.67-3.5-1.04-.36-3.96-.17-5.29-.12-7.35.26-16.91,1.83-24.23,3.19-4.26.79-10.14,1.51-13.6,3.99-.15.11-1.07-.34-1.19.42-1.22,4.22-1.59,9.21-2.98,13.29-.52,1.53-1.69,3.22-2.38,4.77s-2.47,4-2.83,5.21c-1.75,5.85,5.5,1.71,5.03,6.94-.1,1.1-.92,1.75-1.01,2.15l-1.79-.6c-.02-.2.02-.4,0-.6v-.6c-.04-.21.07-.46,0-.6h1.79c.74-.78-2.52-3.62-2.98-1.19-2.47-1.1-3.86.29-3.63-4.48.15-3.16,2.37-4.72,3.63-7.45.71-1.53,1.29-3.15,1.79-4.77.95-3.08,1.05-6.34,1.79-8.94.39-1.36,1.31-3.03,1.79-4.77.43-1.57.76-3.22,1.19-4.77v.02ZM37,19.63c.57,4.11,7.33,14.41,10.13,5.96.24.08.85.02,1.19,0,2.61-.14,5.59-1.8,8.11-2.32,6.04-1.25,12.59-2.49,18.71-3.04,1.37-.12,2.8.09,4.17,0,1.58-.1,4.77.71,5.36-1.19.19-.61-.52-1.94.59-1.79l.35,2.39c3.05.1,6.15-.17,9.19-.01,1.58.08,3.51.47,5.36.6,1.57.11,3.2-.14,4.77,0,6.6.58,13.41,1.73,19.91,3.04,1.71.35,3.96,1.55,5.72,1.73.19.02.4,0,.6,0,1.42.67,3.91,4.66,5.36,3.91,3.67-1.9,4.9-6.83,5.37-10.47.04-.3.66-.86.66-2.04,0-8.83-9.93-17.39-18.41-13.05-1.01.52-.66,1.33-.73,1.38-.05.04-.76-.52-1.19-.23-2.56,1.74-4.3,5.68-5.45,8.48-.98.62-4.57-.68-5.87-1.1-3.2-1.03-5.47-2.13-8.94-2.98-1.75-.43-2.62-.91-4.77-1.19-4.53-.6-9.17-.96-13.68.03l-.63,3.55c-.12-.74.12-1.65,0-2.38-.05-.28.06-.6,0-.88l-.59-.31c-1.63.17-3.22.82-4.77,1.19-2.85.69-5.04,1.53-7.75,2.38-1.42.45-5.64,2.11-6.56,1.53-1.81-2.75-2.56-6.09-5.36-8.08-3.33-2.37-7.16-2.92-11.06-1.82-7.23,2.04-10.81,9.51-9.8,16.72h.01ZM54.88,26.18c-.3.08-.5.57-.6.6-.48.14-1.33-.15-1.79,0-1.21.38-2.74.53-3.8,1.27-1.69,1.17-5.01,7.15-5.12,9.2-.07,1.32.14.75,1.17.86.34.04.86.05,1.19,0,.43-.07.55-.59.6-.6,1.43-.21,2.66-.3,4.17-.6,2.55-.49,5.2-1.38,7.75-1.79,16.74-2.7,33.4-3.57,50.29-1.71,9.15,1.01,18.13,3.26,27.19,4.69-1.09-10.68-8.22-11.79-17.17-13.52-9.03-1.75-18.63-2.66-27.82-2.58l.89,1.2c-.24.1-.29,1.22-1.49,1.21-.4,0,.17-.79-1.49-1.21l-.3-.58-.3.58c-.3-.1-.84.09-1.19,0-.09-.02-.26-.96-1.47-1.18-5.84-1.07-24.34,2.49-30.71,4.17h0Z"/>
  <path class="cls-7" d="M147.27,109.65c1.93.26,4.1-.28,6.13.13,5.7,1.17,11.06,7.48,10.03,13.52,1.34.11,2.36.67,3.51,1.26.59.3,1.48.41,1.79.6,2.27,1.4,8.24,7.77,9.54,10.13.32.57,1.6,3.56,1.79,4.17,1.46,4.72,1.74,11.87.6,16.69-.07.32-.44,1.34-.6,1.79-4.5,13.07-15.94,17.56-28.61,17.29-.4,0-.8,0-1.19,0l-1.79-.6h-.6c-3.69-1.47-7.15-3.3-10.13-5.96-.72-.64-1.72-2.15-2.38-2.98l-1.19-1.19c-.15-.23-.47-.4-.6-.6-.82-1.35-2.85-6.15-3.29-7.74-2.17-7.83-.78-16.61,3.89-23.26,1.6-.22,3.31-1.52,4.77-1.79-4.76,4.02-7.26,11.12-7.15,17.29.39.42,5.48-1.54,6.55-1.79,6.12-1.39,12.25-2.26,18.48-2.99-1.58-7.55-9.17-12.76-16.69-12.51-.2,0-.4-.02-.6,0,.43-3.43,4.36-3.86,4.77-7.15.81-.06,5.49-1.18,5.97-1.48,1.38-.85-2.63-2.81-.3-3.29,1.89-.39,2.98,1.77,4.31,2.24.67.24,5.9.96,6.11.74.86-5.81-3.94-9.75-9.46-9.79-5.89-.04-6.09,7.25-6.64,11.57-.39.03-.8-.01-1.19,0l.59-7.75c.26-.57.73-2.79,1.19-2.98s1.73.15,2.39,0v-3.58h0ZM157.23,124.73c-1.92-1.59-12.89.88-14.71,3.7,0,.63,5.79,2.02,6.95,2.58,4.86,2.33,8.46,7.2,9.19,12.56l5.31.06c.09-4.83-3.05-15.85-6.74-18.9h0ZM162.17,128.13c2.59,5,3.35,10.44,4.73,15.84l3.62.26c-.51-3.71.46-6.68,1.19-10.14.2-.94,1.13-1.67.31-2.98-.95-1.52-10.19-7.24-11.64-5.96-.23,1.4,1.29,2.02,1.79,2.98h0ZM178.86,146.01c.56-.54-2.82-10.82-4.47-11.91-1.08-.02-2.44,9.28-2.01,10.64l6.47,1.27h0ZM150.85,161.51c-1.54,1.4-8.81,5.74-8.94,6.27-.59,2.42,10.22,5.45,12.84,5.09,3.49-.49,5.11-6.21,6.23-8.97,1.17-2.91,2.34-5.39,2.91-8.72.31-1.81,1.47-8.5-.31-9.08l-4.33-.02c-.55,6.48-3.72,11.2-8.41,15.44h.01ZM139.52,148.99c-1.1.28-7.03,1.6-7.19,2.15-.03,5.45,2.7,11.45,6.88,14.97,3.25-1.09,5.54-3.24,8.05-5.2.19-.15.96-.12,1.49-.57,4.18-3.57,7.53-8.08,8.04-13.74-5.86-.28-11.64.95-17.28,2.38h0ZM164.56,162.7c-.34.36-4.49,7.97-4.76,8.65-.72,1.82,3.15.5,3.81.23,2.15-.89,9.31-5.77,10.2-7.71,1.11-2.4-1.11-3.96-1.5-5.35-1-3.52-1.51-7.72-2.05-11.37l-3.92-.56c.55,5.52-.94,10.73-1.79,16.1h0ZM174.69,157.34c.28.73.44,2.86,1.48,2.38,2.06-.96,2.51-8.73,2.72-10.97-.09-.71-.93-.22-1.23-.35-1.76-.74-3.37-1.45-5.36-1.19.39,3.41,1.16,6.93,2.38,10.13h0Z"/>
  <path class="cls-7" d="M119.85,136.47c.18,1.31,1.29,1.8,1.14,4.38-.26,4.47-2.72,6.17-3.41,8.56-.12.41-.66,5.96-.61,6.32.11.73,3.42,5.45,4.17,7.17s2.07,5.22,2.28,6.96c.33,2.75-.16,6.08,0,8.94.04.79-.03,1.59,0,2.38.38.71,1.13.88,1.79,1.19.4.19.78.44,1.19.6l2.98,2.98c.37,2.16,1.72,4.25,1.19,6.56-1.66,7.28-19.45,6.85-24.77,4.8-4.77-1.84-5.9-5.29-7.42-9.57-1.71-4.81-1.95-8.55-5.72-12.46-4.66-4.83-6.91-2.84-13.08-3.01-1.11-.03-2.23-.61-3.01-.6-1.22.02-4.76,6.81-5.96,8.27-3.71,4.52-8.24,6.72-13.96,7.8-.68.19-.52.68-.6,1.19h-1.79c-.65-1.82-.81-1.63-2.38-2.38v-1.19c.2,0,.4,0,.6,0,4.05.03,5.29-.3,8.94-1.79,1.77-.72,4.7-1.79,5.95-3.31.75-.91.49-1.89.6-2.05.04-.06.99-.06,1.43-.63,2.13-2.73,3.18-5.32,4.9-8.23,8.1.63,14.47-.24,22.27-1.87.19-.04.4.04.6,0,.41,2.8-2.41,2.64-4.02,3.45-.42.21-1.15.06-.75,1.01s3.65,3.35,4.66,4.88c1.48,2.22,3.29,7.59,4.27,10.33.2.57-.15,1.9.27,2.99,1.28,3.31,3.95,4.61,7.24,5.29,1.32.27,8.19,1.2,8.58.06,1.02-1.28-2.19-5.6-.29-5.96,1.45-.27,2.4,3.2,2.67,4.17.13.46-.1,1.24,0,1.79l4.42-.53c1.15-.84,0-2.3-.25-3.05-.43-1.26-1.3-2.22-1.19-3.57,3.04-.24,3.81,3,3.58,5.36,2.45-1.57,1.06-6.31-.65-8-1.3-1.28-2.94-1.39-4.33-2.11-.54-.29-.34-1.18-.39-1.21v-1.79c.83-.76.82-1.66,0-2.38.02-.2,0-.4,0-.6.13-3.62.35-5.21-.6-8.94-.34-1.36-.82-1.96-1.19-2.98-1.23-3.32-1.13-3.91-3.58-6.56-.54-.58-1.23-2.09-2.08-2.18-2.62.74-5.38,1.73-8.06,2.18-1.66.28-6.28,1.19-7.45,1.19h-20.86c-1.74,0-7.18-.85-9.24-1.19-6.24-1.05-12.87-3.04-18.48-5.96.11-.11.05-.48.38-.53,1.16-.21,3.03,1.34,3.79-.07,2.28.97,5.98,2.36,8.34,2.98-.29,1.45.64,1.33,1.65,1.6,3.18.86,8.53,1.9,11.76,2,1.12.04,2.44.5,2.09-1.22,4.65.42,9.25.17,13.71,0,.79-.03,1.6.05,2.38,0,7.59-.52,14.1-1.6,21.43-3.6.21-.93-.15-2.09.03-2.96.39-1.93,1.78-3.06,2.38-5.37.46-1.75.57-3.55.6-5.37.02-1.37.09-2.81,0-4.17h1.86Z"/>
  <path class="cls-5" d="M135.35,165.69c-.25-.31-.72-.48-1.19-1.19l1.19,1.19Z"/>
  <path class="cls-14" d="M87.07,122.17c3.12-.42,1.67-4.73,1.76-6.24.16-3.07,2.03-3.72,4.8-3.89,1.1,2.55.53,7.2.6,10.13-2.67-.21-2.21,4.44,0,4.17.04,6.88.52,17.36-1.19,23.85-9.52.34-19.33-.72-28.47-3.42-11.47-3.39-14.44-7.14-9.01-18.86,1.52-3.29,3.37-4.15,4.69-7.53.37-.96.41-1.44.6-2.38.08-.41,1.75-5.56-.29-4.76s-4.8,2.99-6.87,3.87-5.2,1.11-6.54,1.8c-1.65.84-4.35,7.35-5.71,9.19-2.89,3.92-4.54,4.24-9.2,3.02-6.43-1.69-9.72-6.63-6.79-13.05,3.39-7.45,16-19.69,24.46-20.29,5.91-.42,13.24,6.24,18.69,8.61,2.48,1.08,11.62,3.26,12.81,4.48,3.15,3.22-3.42,19,3.56,17.91,2.93-.86,1.86-4.36,2.11-6.59v-.02ZM66.01,139.85c-.55.54-6.21,3.44-1.87,3.83,2.39.22,10.14-9.53,10.75-11.95s-.58-3.2-2.23-1.02c-2.15,2.84-4.01,6.57-6.65,9.15h0Z"/>
  <path class="cls-14" d="M119.26,97.72c-2.1,2.15-10.07,9.28-12.78,8.95-1.18-.14-2.96-2.42-4.55-.2-.13.18-1.77,3.84-1.77,4.06,0,.34,1.09.21,1.21.7.89,3.57.68,9.2,1.25,12.97.29,1.93,1.17,4.54,3.7,3.84.95-.36,1.41-1.03,1.6-2.02.65-3.43-1.69-15.11-.89-16.38,5.17-2.97,10.3-4.29,13.81-9.49,6.53,5.56,11.78,10.04,21.08,9.5-3.52,4.19-5.25,9.4-5.36,14.9-5.88.54-10.58-.29-14.9-4.47l-4.18-6.26c-.21-1.3-.03-1.47-.6-2.98-.1-.27.09-.82,0-1.19h-.89c-.62-.04-.18.87-.3,1.19-.44,1.11-.68,1.12-.62,2.63.28,7.15,2.53,15.78,3,23,.09,1.36.02,2.8,0,4.17h-1.79c-.41-1.11-4.07-8.95-4.49-9.52-.51-.67-.68-.88-1.47-.32-2.27,1.6,3.52,11.72,5.96,12.82-1.01,2.48-3.65,3.48-6.09,4.34-4.38,1.54-9.54,1.99-14.17,2.22.18-1.6.6-5.59.6-6.86v-31.6c0-1.2,5.44-7.23,6.56-8.64,5.02-1.11,11.24-3.38,14.9-7.15.2-.07.5.09.6,0l.6,1.79h-.02Z"/>
  <path class="cls-6" d="M36.41,60.76l1.1.08c.06,2.2,1.66,3.64,2.48,5.28,1.73,3.47,4.06,11.15,8.94,10.73.39.8,1.27,1.12,1.79,1.79,15.34,19.5,58.65,17.65,77.17,1.77.94-.81,1.61-1.34-.28-1.18.81-.21,2.17-1.45,3.51-1.28l.07-1.11c4.78.35,6.75-7.29,8.34-10.73.85-1.83,2.11-3.53,2.98-5.37.67,1.48,5.85,6.86,3.19,8.4l-4.09,1.73c-1.86,3.71,2.99,8.55-2.63,9.89-1.77.42-3.54-.01-5.26.7-1.23.51-5,4.46-6.77,5.75-2.08,1.5-4.85,3.37-7.09,4.54-19.58,10.2-48.94,8.67-66.95-4.28-2.02-1.45-5.41-5.33-7.12-6-3.13-1.22-3.95.34-7.6-2.24l-.6-2.38c.11-.53-.11-1.26,0-1.79.08-.41.91-1.06,1.01-2.15.47-5.23-6.78-1.09-5.03-6.94.37-1.22,2.13-3.65,2.83-5.21h0Z"/>
  <path class="cls-15" d="M68,160.92c.68,1.08,1.81,1.15,2.98,1.19.2,0,.4,0,.6,0,.41.38.76.84,1.19,1.19.21.17.37.45.6.6.19.12.95.5,1.19.6.78.31.96.37,1.79.6.48.13,1.25-.11,1.79,0l1.78,1.47,8.95,1.51c-3.78,1.84-10.96-.74-13.88.13-2.12.63-1.99,3.01-2.78,4.23-.32.5-1.14.55-1.47,1.04-.58.87-.11,2.06-1.28,2.92-2.97,2.2-9.03-.92-12.39-.49-1.42.47-.95,2.58-1.01,3.75.1.72,1,.21,1.22.35.76.47.84.89,1.19,1.19v2.7l-5.96,1.48c-.2,0-.4,0-.6,0-.39-.03-.83.06-1.19,0-.7-.12-1.16-.31-1.79-.6-1.14-2.63-3.99-3.21-5.96-5.37-.1-.12.1-.47,0-.6-.54-.72-1.02-1.94-1.79-2.38-.2-.12-.84.08-1.19,0,.13-.46-.09-1.24,0-1.79.84-.91,1.65-1.61,2.38-2.38,1.66.14,10.68,6.49,11.33,3.27l-6.56-9.23c.28-.65.42-1.1.6-1.79,4.05.85,7.68,3.21,11.92,1.78,1.75-2.02-9.49-8.04-10.13-10.13,6.17,2.09,12.02,3.71,18.48,4.77h-.01Z"/>
  <path class="cls-12" d="M60.25,120.38c-1.32,3.38-3.17,4.24-4.69,7.53-5.43,11.73-2.46,15.47,9.01,18.86,9.14,2.7,18.95,3.76,28.47,3.42-.16.62-.31,2.25-.99,2.41-12.16-.17-28.32-1.3-39.53-6.3-13.6-6.06-3.75-24.02,7.74-25.92h-.01Z"/>
  <path class="cls-10" d="M48.33,88.18c5.59,2.2,9.86,6.33,16.71,8.62,6.27,2.09,15.18,2.41,19.96,6.27,1.33,1.08,8.15,7.85,8.63,8.96-2.77.17-4.64.82-4.8,3.89-.08,1.52,1.36,5.82-1.76,6.24.29-2.65.2-6.55.61-8.63.27-1.37,1.94-2.06,1.74-2.91-.05-.23-2.5-3.76-2.69-3.9-2.77-2.04-2.97,1-3.64,1.17-1.86.46-11.22-3.26-13.51-4.29-8.92-4.02-11.92-7.71-22.44-9.45-1.74-.29-3.37-1.02-5.37-.59v-1.79c1.21-1.7,2.25-1.87,2.39-4.17,1.37-.07,2.91.1,4.17.6v-.02Z"/>
  <path class="cls-17" d="M41.17,176.42c.04,1.18.75,1.93,1.79,2.38.1.13-.1.48,0,.6,1.58,1.98,3.63,4.29,5.96,5.37.63.29,1.08.47,1.79.6-.35,1.78.7.96,1.19,1.19,1.58.76,1.74.56,2.38,2.38.09.27-.04.81,0,1.19l-.6,2.38c-.71,1.3-.89,2.2-2.38,2.98l-.6-4.17c-1.55-.26-1.81,1.69-2.38,2.98l-4.17-.6c.67-1.11,1.06-3.82-.59-4.17.05,1.13-.6,1.64-1.2,2.38-5.92-4.08-3.98-9.89-2.38-15.5.35.08.99-.12,1.19,0h0Z"/>
  <path class="cls-12" d="M32.23,131.11c4.66,1.23,6.32.9,9.2-3.02,1.36-1.84,4.07-8.35,5.71-9.19,1.35-.69,4.56-.96,6.54-1.8s4.8-3.05,6.87-3.87c2.07-.82.37,4.35.29,4.76-.89-.7-1.76-.44-2.7-.05-1.18.48-7.3,4.03-8.32,4.83-3.29,2.57-3.2,5.94-5.41,8.9-2.97,3.98-4.3,3.06-8.31,1.84-.92-.28-4.19-.96-3.87-2.39h0Z"/>
  <path class="cls-12" d="M117.47,113.82l4.18,6.26c4.31,4.18,9.01,5.02,14.9,4.47-.03,1.51,1.95,4.96-1.01,5.84-2.75.82-14.42-.89-15.94-3.49-1.05-1.8-1.64-10.21-2.12-13.08h0Z"/>
  <path class="cls-15" d="M33.42,140.65l-.6,5.97c-.39.06-.82-.07-1.19,0-.16-.68.2-2.79,0-2.98l-1.74.04-1.83,5.33c-7.44.85-8.89-9.66-6.55-14.9.63-.56,3.4,2.5,4.35,3.1,2.15,1.34,5.22,2.71,7.57,3.46v-.02Z"/>
  <path class="cls-3" d="M13.16,153.17c-3.08,1.06-3.83,2.22-5.36,4.77-.32.53-1.07,1-1.19,1.79-.38-.57-1.5-.82-1.68-2.21-.29-2.21,1.5-6.46-2.53-7.06.24-6.04,5.21-8.87,8.89-2.87,1.01,1.65,1.24,4.33,1.87,5.58Z"/>
  <path class="cls-8" d="M140.12,131.11c-1.66,4.85-3.29,10.41-1.79,15.5-1.08.24-6.16,2.21-6.55,1.79-.11-6.17,2.39-13.27,7.15-17.29.19-.04.4.02.6,0s.4,0,.6,0h-.01Z"/>
  <path class="cls-3" d="M16.74,156.74c2,1.73,3.21,2.86,5.96,3.58-.39,2.17-1.52,3.7-1.79,5.96-.09.78.06,1.6,0,2.38-3.48-.56-5.24-1.07-8.34-2.98.53-1.15.69-2.41,1.19-3.58.93-2.16,2.16-3.32,2.98-5.37h0Z"/>
  <path class="cls-10" d="M84.09,154.95c-.3,2.43,1.28.63,1.79.6,1.16-.08,3.81-.22,4.77,0l.6,1.79v.6c-4.46.17-9.06.42-13.71,0-3.77-.34-7.61-1.06-11.33-1.79v-1.79c1.35.65,3.65-.59,4.17-.59,3.66-.05,9.3,1.04,13.71,1.19h0Z"/>
  <path class="cls-12" d="M70.38,153.76c-.53,0-2.82,1.24-4.18.59v1.79c-1.27-.25-3.06-.3-4.17-.6-2.37-.63-6.06-2.01-8.34-2.98-.91-.39-6.09-2.67-6.28-2.96-.43-.64-.86-3.41.59-2.98,2.7.79,5.74,2.76,8.81,3.71,4.46,1.38,9.15,1.94,13.57,3.42h0Z"/>
  <path class="cls-3" d="M49.52,156.15c.65,2.09,11.89,8.11,10.13,10.13-4.24,1.43-7.87-.94-11.92-1.78.69-2.77.73-5.56,1.19-8.35h.6Z"/>
  <path class="cls-10" d="M115.09,151.38c-.18.87.19,2.03-.03,2.96-7.33,2-13.84,3.08-21.43,3.6l.99-3.01c7.05.22,13.6-2.56,20.47-3.55h0Z"/>
  <path class="cls-3" d="M34.62,159.72c-.66,1.91.9,3.59,1.19,4.77.2.8-.14,2.08,0,2.98-2.46.76-4.3,1.58-7.15,1.79-.09-.76-.58-1.67-.6-2.38-.05-2.12.7-3.88.6-5.96,1.48-.18,4.6-.76,5.96-1.19h0Z"/>
  <path class="cls-3" d="M42.37,172.24c1.97-2.08,3.51-3,4.77-5.96l6.56,9.23c-.65,3.22-9.67-3.13-11.33-3.27h0Z"/>
  <path class="cls-6" d="M91.24,105.47c-.57-.55-5.07-3.96-4.17-4.77l14.3-.59c.49.37-2.7,3.77-2.98,4.17-2.14,1.42-5.29-.29-7.15,1.19Z"/>
  <path class="cls-12" d="M118.07,140.65c-.02,1.81-.14,3.61-.6,5.37-5.38,5.25-14.81,5.44-22.05,5.96-.4-.89.57-1.58.59-1.79,4.63-.23,9.79-.68,14.17-2.22,2.44-.86,5.08-1.86,6.09-4.34.15-.38.62-.45.6-1.42-.02-.66-.42-1.06-.6-1.56h1.8Z"/>
  <path class="cls-4" d="M16.74,156.74c-.82,2.04-2.05,3.21-2.98,5.37-2.54-.5-3.95-2.84-5.96-4.17,1.54-2.55,2.29-3.71,5.36-4.77.68,1.34,2.45,2.6,3.58,3.58h0Z"/>
  <path class="cls-6" d="M39.98,176.42c-1.6,5.61-3.53,11.42,2.38,15.5-2.9,3.63-3.63,2.45-5.05-1.81-1.28-3.83-1.68-10.2.61-13.67.62-.94,1.52-1.23,2.06-1.81-.09.55.13,1.33,0,1.79Z"/>
  <path class="cls-10" d="M36.4,138.86c-.84.89-12.62-5.46-13.41-7.15-.63-1.35-.49-2.82,1.18-2.98,1.39,1.53,2.77,2.72,4.53,3.82,1.44.9,9.87,4.01,7.7,6.31h0Z"/>
  <path class="cls-8" d="M68,159.13l1.19,1.79c-.38-.05-.82.06-1.19,0-6.45-1.05-12.31-2.68-18.48-4.77h-.6c.19-1.15-.46-1.89.6-2.98,5.61,2.92,12.24,4.91,18.48,5.96Z"/>
  <path class="cls-3" d="M44.75,153.76c0,.87.34,1.53,1.19,1.79-.26,1.94-.14,5.72-1.14,7.36-.56.92-2.03.67-2.44.99-.2-.54-1.74-1.65-1.79-1.79-.32-.91-.08-3.54-.6-4.77.93-.56,3.91-2.86,4.77-3.58h0Z"/>
  <path class="cls-4" d="M23.89,160.32c.16.58.69.56,1.19.6.76.05,1.62.04,2.38,0,.2,0,.4.02.6,0s.4.02.6,0c.1,2.08-.64,3.84-.6,5.96l-7.15-.6c.26-2.26,1.4-3.79,1.79-5.96.33.08.81-.05,1.19,0Z"/>
  <path class="cls-10" d="M143.7,116.2c-.17.38-.75.71-1.05,1.61-.26.79-1.8,11.32-3.72,9.12.35-3.22.6-13.37,3.97-14.81.9-.39,2.39-.53,1.99,1.1-.46.19-.93,2.41-1.19,2.98Z"/>
  <path class="cls-12" d="M118.07,95.93c-3.66,3.77-9.88,6.04-14.9,7.15.6-.76.82-2.15,1.52-2.96,1.34-1.42,10.72-3.29,13.39-4.2h0Z"/>
  <path class="cls-4" d="M39.98,157.34c.52,1.23.27,3.86.6,4.77l-4.77,2.38c-.29-1.18-1.85-2.86-1.19-4.77.87-.28,4.65-1.95,5.36-2.38Z"/>
  <path class="cls-8" d="M13.75,162.11c-.5,1.16-.66,2.43-1.19,3.58-3.24-1.99-3.99-2.94-5.96-5.96.13-.78.87-1.25,1.19-1.79,2.02,1.33,3.42,3.67,5.96,4.17Z"/>
  <path class="cls-11" d="M104.35,107.26l1.79,14.9h-1.78c.48-4.34-1.3-9.2-1.22-13.4.02-1.22-.37-1.75,1.21-1.5Z"/>
  <path class="cls-12" d="M41.77,91.76v1.79c1.99-.42,3.62.31,5.36.59.64,2.85-4.26,2.75-5.95,3.58-.36-1.48-.86-2.9-.61-4.47.2-1.27.97-1.17,1.19-1.49h.01Z"/>
  <path class="cls-11" d="M85.88,107.86v8.64c0,1.32-1.24,4.31-.6,6.26h-1.78c.55-4.62.64-9.39,1.19-14.02.13-1.1-.18-.96,1.19-.88Z"/>
  <path class="cls-4" d="M33.42,140.65c1.15.37,2.36.62,3.58.6.13,2.04-1.99,7.11-4.42,6.53-.47-.24-.83-.66-.95-1.17.37-.06.81.06,1.19,0l.6-5.97h0Z"/>
  <path class="cls-8" d="M42.37,163.9c-.94.74-1.18,1.86-2.95,2.72-1.61.79-2.48.51-3.61.86-.14-.9.2-2.18,0-2.98l4.77-2.38c.05.14,1.58,1.25,1.79,1.79h0Z"/>
  <path class="cls-8" d="M28.06,166.88c.02.71.51,1.62.6,2.38-2.98.22-5.03-.16-7.75-.6.06-.78-.09-1.61,0-2.38l7.15.6Z"/>
  <path class="cls-17" d="M91.24,105.47c1.87-1.49,5.01.23,7.15-1.19-1.05,1.52-1.67,3.61-3.34,4.74-1.12.24-3.04-2.82-3.81-3.55Z"/>
  <path class="cls-6" d="M48.33,194.3c-.35.8-.47,1.7-1.19,2.38-1.72.08-3.11-.38-4.77-.6-.49-1.39,1.45-1.82,1.79-2.38,0,0,4.17.6,4.17.6Z"/>
  <path class="cls-12" d="M44.15,87.59c0-.24-.8-.81-.32-1.76l1.73-1.17c-.34.32,5.91,3.76,2.76,3.53-1.27-.5-2.81-.67-4.17-.6Z"/>
  <path class="cls-3" d="M28.06,148.99l1.83-5.33,1.74-.04c.2.2-.16,2.3,0,2.98-2.16.36-1.16,2.11-3.58,2.38h0Z"/>
  <path class="cls-7" d="M48.33,194.3c.57-1.28.83-3.24,2.38-2.98l.6,4.17c-.85.44-3.35,1.15-4.17,1.19.73-.68.84-1.58,1.19-2.38Z"/>
  <path class="cls-10" d="M94.22,122.17c.03,1.39,0,2.78,0,4.17-2.21.27-2.67-4.38,0-4.17Z"/>
  <path class="cls-16" d="M44.75,153.76c.3-.25.16-2.3,1.78-1.79.58,1.36-.49,2.79-.59,3.57-.85-.26-1.18-.92-1.19-1.79h0Z"/>
  <path class="cls-12" d="M118.66,95.93c.08-.07-.17-1.06.29-1.21l1.49.02c.38,1.97-.24,2.01-1.19,2.98l-.6-1.79h.01Z"/>
  <path class="cls-13" d="M85.28,124.55v1.78c-2.98.22-2.98-2.01,0-1.78Z"/>
  <path class="cls-11" d="M106.14,123.96c.95.95-.84,2.73-1.78,1.78s.84-2.73,1.78-1.78Z"/>
  <path class="cls-7" d="M38.19,79.24c-.18-.13-1.06.31-1.23-.33-.29-1.31.61-1.95.63-2.06l.6,2.38h0Z"/>
  <path class="cls-12" d="M85.88,155.55c-.5.04-2.09,1.83-1.79-.6.65.02,1.5-.18,1.79.6Z"/>
  <path class="cls-7" d="M53.69,192.51l.6-2.38c0,.07.53.32.48.81-.08.84-.84,1.14-1.08,1.58h0Z"/>
  <path class="cls-12" d="M91.24,157.34l-.6-1.79c.52.12.94.5,1.16.98l-.57.81h0Z"/>
  <path class="cls-12" d="M115.68,110.84c.13-.32-.32-1.23.3-1.2h.89c.09.37-.1.92,0,1.2h-1.19Z"/>
  <path class="cls-3" d="M25.08,160.92c-.5-.03-1.03-.02-1.19-.6.5.07,1.02,0,1.19.6Z"/>
  <path class="cls-3" d="M28.06,160.92c-.2.02-.4,0-.6,0h.6Z"/>
  <path class="cls-15" d="M133.56,40.49c1.23,1.57,2.06,3.39,2.38,5.37-.56,1.08-.8,4.07-1.79,5.37-1.85,1.7-7.35,6.27-8.37,8.02-.56.95-.72,1.6-.57,2.71,4.21.38,6.67-.07,10.13-2.38.25-.16.65-.04,1.19-.6h1.19v7.15c-1.47.42-2.97,1.91-4.9,2.55-2.54.85-8.74.99-10.01,1.91-.65.47-.74,1.38-.59,2.09.23,1.11,3.8,4.11,3.58,5.06-2.09,1.97-5.15,1.47-7.75,1.5-9.59-2.16-10.48-12.61-17.27-15.23-.97-.37-2.79-.15-3-.27-.09-.05-.12-1.15-.85-1.8-2.34-2.08-3.99-.52-6.58-.54-2.44-.02-4.98-1-7.05.1-.76.4-1.18,1.43-1.61,1.65-9.42,4.81-7.17,7.22-13.47,13.05-4.72,4.36-11.74,3.99-17.52,2.45-.52-.67-1.4-.99-1.79-1.79,2.09-.18,9.51-3.19,8.08-5.96-.69-1.34-8.46-1.69-11.05-2.69-1.59-.61-3.47-2.43-4.18-2.67.3-2.26-.71-5.34.6-7.15,1.37.97,2.71,2.48,4.77,2.38,2.18,1.12,6.54,2.67,7.75-.29l-11.32-11.64c.13-2.26-.87-4.29-.6-6.56,3.46-2.48,9.34-3.19,13.6-3.99,7.31-1.36,16.88-2.93,24.23-3.19,1.33-.05,4.25-.24,5.29.12,1.2.41,1.84,3.47,3.67,3.5,1.82,0,2.49-3.09,3.67-3.5,1.04-.36,3.96-.17,5.29-.12,9.57.34,25.74,2.59,34.84,5.39h0ZM66.31,43.37c13.85,6.76,10.6-.91-.1-2.88l.1,2.88ZM104.36,46.45c.4.41,10.37-2.3,9.53-5.05-.78-2.19-9.15,2.34-9.4,2.8-.23.43-.22,2.16-.13,2.26h0ZM69.02,50.73c-4.63,1.38-3.67,12.52,1.52,11.72s4.45-13.5-1.52-11.72ZM108.96,50.71c-4.53,1.24-3.6,12.14.97,11.71,5.57-.53,4.82-13.3-.97-11.71Z"/>
  <path class="cls-14" d="M87.07,23.2c-1.39,1.57-1.45,2.33-.6,4.17.09.2.44.38.6.6,2.55,3.57,4.21,3.76,7.15.3.05-.63-1.02-.14-1.19-.3-.1-.09.09-.46,0-.6l2.13-.55c1.34-1.96-1.31-4.42-3.32-3.62l-.89-1.2c9.19-.08,18.79.83,27.82,2.58,8.95,1.73,16.08,2.84,17.17,13.52-9.07-1.43-18.04-3.68-27.19-4.69-16.89-1.86-33.55-.98-50.29,1.71-2.9-1.73-8.73-3.86-7.75,1.79-1.51.29-2.74.38-4.17.6l-.6.6c-.33.05-.85.04-1.19,0-.64-3.51,2.3-3.06,4.71-3.63-.26-3.1.51-5.76,3.04-7.7.46-.15,1.31.14,1.79,0l.6-.6c6.37-1.67,24.87-5.24,30.71-4.17,1.22.22,1.38,1.16,1.47,1.18h0Z"/>
  <path class="cls-15" d="M123.43,4.72c.65,2,3.63,2.38,3.58,4.17-1.31.33-4.99,5.03-4.69,6.73.61,2.42,9.31,5.19,8.27,9.37-1.76-.18-4.01-1.38-5.72-1.73-6.5-1.32-13.3-2.47-19.91-3.04,1.21-2.66,3.11-7.34,5.96-8.35,1.3.42,4.89,1.72,5.87,1.1,1.15-2.8,2.89-6.75,5.45-8.48.43-.29,1.14.26,1.19.23Z"/>
  <path class="cls-3" d="M57.86,4.72c-3.25.37-4.57,4.02-7.75,4.77-3.57.23-6.35,3.68-6.56,7.15-2.45.1-4.56,1.72-6.56,2.98-1.01-7.22,2.57-14.68,9.8-16.72,3.9-1.1,7.73-.55,11.06,1.82h.01Z"/>
  <path class="cls-3" d="M97.2,7.7l-2.38,11.92c-3.04-.16-6.14.11-9.19.01l-.35-2.39c-1.11-.15-.4,1.18-.59,1.79-.78-2.38-1.38-5.28-1.79-7.75l.63-3.55c4.51-.99,9.15-.63,13.68-.03h-.01Z"/>
  <path class="cls-17" d="M136.54,16.64c.04,1.16-1.68,6.43-2.44,7.39-.93,1.18-1.54.98-2.92.95-.2,0-.4.02-.6,0,1.05-4.18-7.65-6.95-8.27-9.37-.3-1.7,3.38-6.4,4.69-6.73,2.42-.61,7.08,1.69,8.27,3.94.21.4,1.26,3.61,1.26,3.81h.01Z"/>
  <path class="cls-3" d="M141.91,18.43l-5.36-1.79c0-.2-1.05-3.41-1.26-3.81-1.2-2.26-5.86-4.55-8.27-3.94.06-1.79-2.92-2.17-3.58-4.17.06-.05-.29-.86.73-1.38,8.48-4.34,18.41,4.22,18.41,13.05,0,1.18-.62,1.74-.66,2.04h0Z"/>
  <path class="cls-17" d="M50.11,9.49c2.33-.15,3.44.1,5.03,1.83,2.34,2.54,2.33,3.24.93,5.92-.02.04-.31.21-.6.6-1.19-.15-1.29.74-1.79,1.19-.44.4-.79.82-1.19,1.19-1.65,1.54-3.97,2.78-4.17,5.37-.34.02-.95.08-1.19,0-2.44-.78-3.71-6.64-3.58-8.94.2-3.48,2.99-6.93,6.56-7.15h0Z"/>
  <path class="cls-4" d="M57.86,4.72c2.8,1.99,3.56,5.33,5.36,8.08.92.59,5.14-1.08,6.56-1.53l5.36,8.94c-6.13.55-12.67,1.79-18.71,3.04-2.52.52-5.5,2.18-8.11,2.32.2-2.58,2.52-3.82,4.17-5.37l-.29,2.39,20.56-2.99-2.98-5.66c-2.41-1.19-5.67,1.51-8.1-.25-.97-.7-2.61-5.2-3.24-6.6-6.4,2.38-.87,4.84-.54,6.82.25,1.51.57,4.01-1.83,3.31,1.4-2.68,1.41-3.38-.93-5.92-1.59-1.73-2.69-1.97-5.03-1.83,3.18-.75,4.5-4.4,7.75-4.77v.02Z"/>
  <path class="cls-3" d="M110.91,11.88c-2.85,1.01-4.75,5.68-5.96,8.35-1.57-.14-3.2.11-4.77,0l1.79-11.33c3.47.85,5.74,1.95,8.94,2.98Z"/>
  <path class="cls-3" d="M77.53,8.89l1.79,11.33c-1.38.09-2.8-.12-4.17,0l-5.36-8.94c2.71-.85,4.9-1.69,7.75-2.38h-.01Z"/>
  <path class="cls-4" d="M43.56,16.64c-.14,2.3,1.14,8.17,3.58,8.94-2.8,8.45-9.56-1.86-10.13-5.96,1.99-1.27,4.11-2.88,6.56-2.98h-.01Z"/>
  <path class="cls-4" d="M141.91,18.43c-.47,3.64-1.7,8.57-5.37,10.47-1.45.75-3.94-3.24-5.36-3.91,1.38.03,1.99.23,2.92-.95.76-.96,2.48-6.23,2.44-7.39l5.36,1.79h0Z"/>
  <path class="cls-4" d="M101.97,8.89l-1.79,11.33c-1.85-.12-3.79-.51-5.36-.6l2.38-11.92c2.15.28,3.02.76,4.77,1.19Z"/>
  <path class="cls-4" d="M82.3,7.7l.6,1.19c.12.74-.12,1.65,0,2.38.4,2.47,1.01,5.37,1.79,7.75-.59,1.9-3.78,1.09-5.36,1.19l-1.79-11.33c1.55-.37,3.14-1.02,4.77-1.19h0Z"/>
  <path class="cls-2" d="M42.96,42.28c-.28,2.27.73,4.3.6,6.56-.36,6.19-5.27,7.38,3.58,11.92-2.06.1-3.4-1.42-4.77-2.38-1.15-.82-1.98-2.24-3.58-2.38,1.39-4.09,1.76-9.07,2.98-13.29.12-.76,1.04-.31,1.19-.42h0Z"/>
  <path class="cls-8" d="M140.72,55.99c.24.74,1.48,4.1,1.79,4.77-.87,1.83-2.13,3.54-2.98,5.37-.55.09-1.32-.13-1.79,0v-7.16h-1.19c.24-.24.35-.87.6-1.19.15-.09.45.09.6,0,1.03-.58,1.66-1.74,2.98-1.79h-.01Z"/>
  <path class="cls-8" d="M42.37,58.38c-1.31,1.82-.3,4.89-.6,7.15-.42-.15-1.74-.09-1.79.6-.82-1.65-2.42-3.09-2.48-5.28l-1.1-.08c.69-1.55,1.87-3.24,2.38-4.77,1.59.15,2.42,1.57,3.58,2.38h0Z"/>
  <path class="cls-2" d="M140.72,55.99c-1.33.05-1.95,1.2-2.98,1.79l-1.2-8.94c-.87.72-1.44,1.52-2.38,2.38.99-1.3,1.23-4.28,1.79-5.37.06-.12,1.63-.27,1.79-1.79,1.58,3.93,1.73,8,2.98,11.92h0Z"/>
  <path class="cls-13" d="M88.26,23.2c.17.06.4-.05.6,0,1.67.42,1.09,1.2,1.49,1.21,1.2.02,1.24-1.11,1.49-1.21,2.01-.8,4.65,1.66,3.32,3.62l-2.13.55c-.35-.5-.53-1.18-.6-1.79h-.88l-.35,1.73c-.37.12-.77.08-1.15.06v-1.78h-1.19v1.19c-.34,0-1.6.92-2.39.6-.85-1.85-.79-2.6.6-4.17.35.09.89-.1,1.19,0h0Z"/>
  <path class="cls-10" d="M52.5,26.78c-2.53,1.94-3.3,4.59-3.04,7.7-2.41.57-5.36.12-4.71,3.63-1.03-.11-1.24.46-1.17-.86.11-2.05,3.43-8.03,5.12-9.2,1.07-.74,2.59-.88,3.8-1.27Z"/>
  <path class="cls-10" d="M58.46,35.13c-2.55.41-5.2,1.29-7.75,1.79-.98-5.65,4.85-3.52,7.75-1.79Z"/>
  <path class="cls-8" d="M137.74,44.07c-.16,1.51-1.72,1.67-1.79,1.79-.33-1.98-1.16-3.8-2.38-5.37,1.12.34,2.19.03,3.32,1.17,1.01.58.62,1.82.85,2.41h0Z"/>
  <path class="cls-1" d="M34.62,71.49c.46-2.43,3.73.41,2.98,1.19h-1.79c-.09-.19-1-1.11-1.19-1.19Z"/>
  <path class="cls-3" d="M82.9,8.89l-.6-1.19.59.31c.06.29-.04.6,0,.88h.01Z"/>
  <path class="cls-10" d="M45.94,38.11l.6-.6s-.16.53-.6.6Z"/>
  <path class="cls-10" d="M54.29,26.78c.09-.03.3-.52.6-.6l-.6.6Z"/>
  <path class="cls-14" d="M88.86,23.2c-.2-.05-.43.06-.6,0l.3-.58s.3.58.3.58Z"/>
  <path class="cls-1" d="M35.81,73.88c-.02-.2.04-.42,0-.6v.6Z"/>
  <path class="cls-15" d="M140.12,131.11c7.52-.24,15.11,4.96,16.69,12.51-6.23.72-12.36,1.6-18.48,2.99-1.5-5.09.13-10.65,1.79-15.5Z"/>
  <path class="cls-4" d="M157.23,124.73c3.69,3.05,6.83,14.07,6.74,18.9l-5.31-.06c-.73-5.37-4.34-10.23-9.19-12.56-1.16-.56-6.96-1.95-6.95-2.58,1.82-2.82,12.79-5.29,14.71-3.7h0Z"/>
  <path class="cls-15" d="M139.52,148.99c5.64-1.43,11.43-2.66,17.28-2.38-.51,5.66-3.86,10.16-8.04,13.74-.53.45-1.3.42-1.49.57-1.05-2.44-3.69-3.45-5.27-5.76-1.07-1.57-2.28-4.22-2.48-6.16h0Z"/>
  <path class="cls-8" d="M139.52,148.99c.2,1.94,1.41,4.59,2.48,6.16,1.58,2.31,4.22,3.33,5.27,5.76-2.51,1.96-4.81,4.1-8.05,5.2-4.19-3.53-6.91-9.52-6.88-14.97.16-.55,6.09-1.87,7.19-2.15h0Z"/>
  <path class="cls-4" d="M160.98,163.9c-3.25-.05-7.9.49-10.13-2.38,4.68-4.24,7.86-8.96,8.41-15.44l4.33.02c1.77.58.61,7.28.31,9.08-.56,3.32-1.73,5.81-2.91,8.72h0Z"/>
  <path class="cls-8" d="M160.98,163.9c-1.12,2.76-2.74,8.49-6.23,8.97-2.62.37-13.43-2.67-12.84-5.09.13-.53,7.39-4.87,8.94-6.27,2.24,2.88,6.88,2.34,10.13,2.38h0Z"/>
  <path class="cls-4" d="M144.29,123.95c.54-4.32.75-11.62,6.64-11.57,5.52.04,10.31,3.98,9.46,9.79-.22.22-5.44-.51-6.11-.74-1.33-.47-2.42-2.63-4.31-2.24-2.33.48,1.68,2.45.3,3.29-.49.3-5.16,1.42-5.97,1.48h-.01Z"/>
  <path class="cls-8" d="M172.31,158.53c.39,1.39,2.61,2.94,1.5,5.35-.89,1.94-8.06,6.82-10.2,7.71-.65.27-4.53,1.59-3.81-.23.27-.68,4.42-8.3,4.76-8.65,1.29-1.36,5.99-2.77,7.75-4.17h0Z"/>
  <path class="cls-4" d="M162.17,128.13c3.52,1.25,7.65,2.78,9.54,5.96-.73,3.46-1.7,6.43-1.19,10.14l-3.62-.26c-1.38-5.4-2.14-10.84-4.73-15.84h0Z"/>
  <path class="cls-4" d="M172.31,158.53c-1.76,1.4-6.46,2.82-7.75,4.17.84-5.37,2.33-10.58,1.79-16.1l3.92.56c.54,3.65,1.05,7.85,2.05,11.37h0Z"/>
  <path class="cls-4" d="M178.86,146.01l-6.47-1.27c-.44-1.36.93-10.66,2.01-10.64,1.64,1.09,5.03,11.37,4.47,11.91h0Z"/>
  <path class="cls-4" d="M177.67,148.4l-2.98,8.94c-1.22-3.2-1.99-6.72-2.38-10.13,1.99-.26,3.61.45,5.36,1.19Z"/>
  <path class="cls-6" d="M171.71,134.09c-1.88-3.19-6.02-4.71-9.54-5.96-.49-.95-2.01-1.58-1.79-2.98,1.45-1.28,10.69,4.44,11.64,5.96.82,1.31-.12,2.04-.31,2.98h0Z"/>
  <path class="cls-8" d="M177.67,148.4c.3.13,1.14-.36,1.23.35-.22,2.24-.66,10.01-2.72,10.97-1.04.48-1.2-1.65-1.48-2.38l2.98-8.94h0Z"/>
  <path class="cls-15" d="M115.09,159.13c-.17.22-.43.38-.6.6-1.28.29-6.99,5.08-7.13,5.72-.94,4.4,11.78,1.11,12.45,2.08,2.36,3.39-7.94,4.48-9.22,6.51v1.81c.55.84,1.19,1.01,2.11,1.18.19.04.4-.03.6,0,.56,1.97,6.72,1.37,7.14,1.81v2.36l-3.57,1.19c-.39.03-.83-.06-1.19,0l-1.19.6c-3.34.85-6.7,2.65-10.13,3.58-.18.05-.41-.04-.6,0-.18-2.56-.7-5.93-1.5-8.33-.67-2-3.19-5.5-3.27-6.93-.11-1.99,2.23-2.33,1.79-4.41-1.37-.4-2.49.38-3.57.59-.19.04-.41-.04-.6,0l-.6-2.38c.37-.06.82.07,1.19,0,.04,0,.33.53.78.46.72-.1,4.56-1.69,3.99-2.85.16-.06.4.06.6,0,.32-.09,1.02.15,1.18,0,.17-.17-.1-.9.01-1.18,3.21-.61,6.61-2.34,9.42-2.89.79-.16,1.37-.2,1.9.51v-.02Z"/>
  <path class="cls-17" d="M116.87,182.38c.71-.05,3.96-.12,4.17,0,.06.03-.15.92.39,1.21,1.38.73,3.03.83,4.33,2.11,1.71,1.69,3.1,6.43.65,8,.24-2.36-.54-5.6-3.58-5.36-.11,1.35.76,2.31,1.19,3.57v1.19l-4.17.6c-.27-.97-1.22-4.44-2.67-4.17-1.9.36,1.31,4.68.29,5.96-.71-2.87-2.92-1.47-5.4-2.06-4-.94-7.47-2.16-7.72-6.89,3.43-.93,6.8-2.73,10.13-3.58.51-.13,1.04-.57,1.19-.6.36-.06.8.03,1.19,0v.02Z"/>
  <path class="cls-8" d="M97.2,167.47c1.08-.21,2.2-.99,3.57-.59.43,2.08-1.91,2.42-1.79,4.41.08,1.43,2.6,4.93,3.27,6.93.81,2.4,1.32,5.77,1.5,8.33-.71.17-1.47.78-2.38.6-.98-2.74-2.8-8.12-4.27-10.33-1.01-1.52-4.24-3.88-4.66-4.88s.33-.81.75-1.01c1.61-.81,4.43-.65,4.02-3.45h0Z"/>
  <path class="cls-6" d="M105.55,159.13c-1.26.75-1.34,1.22-1.79,2.38-.37.07-.82-.06-1.19,0-1.29.21-6.28,1.19-6.85,1.19h-17.88c-1.37,0-4.52-.5-6.26-.6-.2,0-.4,0-.6,0v-1.19c-.58-.08-1.22.08-1.79,0l-1.19-1.79c2.06.35,7.5,1.19,9.24,1.19h20.86c1.17,0,5.79-.91,7.45-1.19h0Z"/>
  <path class="cls-6" d="M104.36,186.55c.25,4.73,3.71,5.95,7.72,6.89,2.48.58,4.68-.81,5.4,2.06-.4,1.14-7.27.22-8.58-.06-3.29-.69-5.96-1.98-7.24-5.29-.42-1.1-.07-2.42-.27-2.99.91.18,1.67-.43,2.38-.6.19-.04.41.05.6,0h-.01Z"/>
  <path class="cls-3" d="M121.05,177.61c-2.45-.09-5.36-.23-7.75-.6-.19-.03-.4.04-.6,0l-1.79-2.97c.32-.44,7.39-2.09,8.53-2.5,1.35-.49,1.02-1.83,1.01-2.87.95,3.73.73,5.32.6,8.94Z"/>
  <path class="cls-3" d="M119.26,165.69c-3.62.98-6.93,1.53-10.73,1.19-.7-2.87,1.54-2.65,3.27-4.19,1.1-.98,1.81-1.82,2.7-2.96.17-.22.43-.38.6-.6h.6c2.44,2.65,2.35,3.24,3.58,6.56h-.02Z"/>
  <path class="cls-3" d="M68,178.2c-.12.17.15,1.14-.6,2.05-1.25,1.52-4.18,2.59-5.95,3.31-1.02-.74-2.02-1.57-2.98-2.38-.35-.3-.44-.72-1.19-1.19l-.59-3.57c3.88-.12,7.34,2.39,11.32,1.79h-.01Z"/>
  <path class="cls-4" d="M96.01,165.09l.6,2.38c-7.8,1.63-14.17,2.5-22.27,1.87-1.72,2.92-2.77,5.5-4.9,8.23-.45.57-1.39.56-1.43.63-3.99.61-7.44-1.91-11.32-1.79l.59,3.57c-.22-.14-1.12.37-1.22-.35.06-1.17-.41-3.28,1.01-3.75,3.36-.43,9.43,2.69,12.39.49,1.17-.86.7-2.05,1.28-2.92.33-.49,1.14-.54,1.47-1.04.79-1.22.66-3.6,2.78-4.23,2.92-.86,10.1,1.71,13.88-.13l-8.95-1.51-1.78-1.47c7.91,1.6,10.05,1.26,17.88,0v.02Z"/>
  <path class="cls-1" d="M66.21,156.15c3.71.73,7.56,1.45,11.33,1.79.35,1.72-.97,1.26-2.09,1.22-3.23-.1-8.58-1.14-11.76-2-1.01-.27-1.94-.15-1.65-1.6,1.1.29,2.89.34,4.17.6h0Z"/>
  <path class="cls-4" d="M115.68,159.13h-.6c-.54-.71-1.11-.66-1.9-.51-2.81.55-6.21,2.28-9.42,2.89-.11.28.16,1.01-.01,1.18-.16.16-.86-.08-1.18,0v-1.19c.37-.06.83.07,1.19,0,.45-1.17.52-1.63,1.79-2.38,2.68-.45,5.44-1.45,8.06-2.18.85.09,1.54,1.6,2.08,2.18h-.01Z"/>
  <path class="cls-4" d="M121.05,177.61c0,.2.02.4,0,.6-.06.78,0,1.6,0,2.38v1.79c-.21-.12-3.46-.05-4.17,0l3.58-1.19v-2.36c-.44-.43-6.59.16-7.16-1.81,2.39.36,5.3.5,7.75.6h0Z"/>
  <path class="cls-4" d="M114.49,159.72c-.89,1.15-1.6,1.99-2.7,2.96-1.73,1.54-3.97,1.31-3.27,4.19,3.8.34,7.11-.21,10.73-1.19.38,1.02.85,1.62,1.19,2.98.02,1.04.34,2.38-1.01,2.87-1.14.42-8.21,2.07-8.53,2.5l1.79,2.97c-.92-.17-1.56-.34-2.11-1.18v-1.81c1.28-2.03,11.58-3.12,9.22-6.51-.67-.96-13.39,2.33-12.45-2.08.14-.64,5.85-5.43,7.13-5.72v.02Z"/>
  <path class="cls-6" d="M124.03,191.92c.25.75,1.4,2.21.25,3.05l-4.42.53c-.1-.55.13-1.32,0-1.79l4.18-.6v-1.19h-.01Z"/>
  <path class="cls-4" d="M61.44,183.57c-3.65,1.49-4.89,1.82-8.94,1.79l5.97-1.48v-2.7c.95.81,1.94,1.65,2.97,2.38h0Z"/>
  <path class="cls-4" d="M51.9,185.36v1.19c-.49-.24-1.54.59-1.19-1.19.36.06.8-.03,1.19,0Z"/>
  <path class="cls-3" d="M121.05,180.59c0-.79-.06-1.6,0-2.38.82.73.83,1.63,0,2.38Z"/>
  <path class="cls-1" d="M66.01,139.85c2.64-2.57,4.5-6.3,6.65-9.15,1.64-2.17,2.85-1.48,2.23,1.02s-8.36,12.17-10.75,11.95c-4.34-.39,1.32-3.29,1.87-3.83h0Z"/>
  <path class="cls-1" d="M116.28,140.65c.18.5.58.9.6,1.56.03.97-.44,1.04-.6,1.42-2.45-1.1-8.24-11.22-5.96-12.82.79-.56.96-.35,1.47.32.43.56,4.09,8.41,4.49,9.52h0Z"/>
  <path class="cls-17" d="M81.71,63.15c.8,4.35,7.96,4.76,6.46,9.14-.67,1.94-5.27,2.04-6.8,1.03-1.15-.75-1.35-2.86-2.93-3.03-1.41-.28-1,1.2-.78,1.97,1.47,5.1,8.88,6.16,12.18,2.25,4.78,4.27,12.79,2.71,12.73-4.21-3.24-.24-1.46,2.94-5.1,3.53s-7.3-.13-6.12-4.63c2.84-.9,5.33-2.58,6.46-5.46.21.12,2.03-.1,3,.27,6.79,2.62,7.68,13.07,17.27,15.23,3.44.77,6.01.9,9.54,0,1.89-.16,1.23.37.28,1.18-18.52,15.88-61.84,17.73-77.17-1.77,5.78,1.54,12.8,1.92,17.52-2.45,6.31-5.83,4.06-8.24,13.47-13.05h0Z"/>
  <path class="cls-3" d="M41.77,65.53c.72.25,2.6,2.06,4.18,2.67,2.59,1,10.35,1.35,11.05,2.69,1.43,2.77-5.99,5.78-8.08,5.96-4.88.42-7.21-7.26-8.94-10.73.05-.68,1.36-.74,1.79-.6h0Z"/>
  <path class="cls-3" d="M139.52,66.13c-1.59,3.44-3.57,11.08-8.34,10.73-2.83-.21-6.76-2.4-8.94-4.17-.15-.71-.06-1.62.59-2.09,1.27-.92,7.47-1.06,10.01-1.91,1.93-.65,3.43-2.14,4.9-2.55.46-.13,1.24.09,1.79,0h0Z"/>
  <path class="cls-4" d="M131.18,76.86l-.07,1.11c-1.34-.17-2.71,1.07-3.51,1.28-3.53.9-6.1.77-9.54,0,2.6-.03,5.66.47,7.75-1.5.22-.95-3.35-3.94-3.58-5.06,2.19,1.77,6.11,3.96,8.94,4.17h0Z"/>
  <path class="cls-17" d="M102.57,161.51v1.19c-.19.06-.43-.06-.6,0-1.6.63-3.11,1.81-4.77,2.38-.37.07-.82-.06-1.19,0-7.83,1.26-9.97,1.6-17.88,0-.53-.11-1.31.13-1.79,0l-1.79-.6c-.24-.1-1-.47-1.19-.6l-.6-.6c-.43-.35-.78-.81-1.19-1.19,1.73.1,4.89.6,6.26.6h17.88c.58,0,5.57-.98,6.85-1.19h.01Z"/>
  <path class="cls-4" d="M69.19,160.92c.57.08,1.21-.07,1.79,0v1.19c-1.18-.04-2.3-.12-2.98-1.19.38.06.81-.05,1.19,0Z"/>
  <path class="cls-4" d="M42.96,179.4c1.97,2.15,4.82,2.73,5.96,5.37-2.33-1.07-4.38-3.39-5.96-5.37Z"/>
  <path class="cls-4" d="M76.34,165.09c-.83-.23-1.01-.29-1.79-.6l1.79.6Z"/>
  <path class="cls-4" d="M42.96,178.8c-1.03-.45-1.75-1.21-1.79-2.38.77.44,1.25,1.66,1.79,2.38Z"/>
  <path class="cls-4" d="M73.36,163.9c-.23-.15-.39-.42-.6-.6l.6.6Z"/>
  <path class="cls-7" d="M97.8,63.74c-1.13,2.88-3.61,4.56-6.46,5.46-1.18,4.51,2.42,5.23,6.12,4.63s1.86-3.78,5.1-3.53c.06,6.92-7.95,8.48-12.73,4.21-3.3,3.9-10.71,2.85-12.18-2.25-.22-.77-.64-2.25.78-1.97,1.58.17,1.79,2.28,2.93,3.03,1.53,1,6.13.91,6.8-1.03,1.5-4.38-5.66-4.8-6.46-9.14.44-.22.85-1.25,1.61-1.65,2.07-1.09,4.61-.12,7.05-.1,2.59.02,4.24-1.54,6.58.54.73.65.77,1.75.85,1.8h0Z"/>
  <path class="cls-3" d="M137.74,57.78c-.15.09-.45-.09-.6,0-.93.53-2.14.34-1.79,1.79-3.46,2.31-5.92,2.77-10.13,2.38-.15-1.11,0-1.76.57-2.71,1.02-1.75,6.53-6.32,8.37-8.02.94-.86,1.51-1.66,2.38-2.38l1.2,8.94Z"/>
  <path class="cls-3" d="M43.56,48.84l11.32,11.64c-1.21,2.96-5.56,1.41-7.75.29-8.84-4.55-3.93-5.73-3.58-11.92h.01Z"/>
  <path class="cls-7" d="M69.02,50.73c5.98-1.78,6.8,10.91,1.52,11.72s-6.16-10.35-1.52-11.72Z"/>
  <path class="cls-7" d="M108.96,50.71c5.79-1.59,6.54,11.19.97,11.71-4.56.43-5.5-10.47-.97-11.71Z"/>
  <path class="cls-7" d="M104.36,46.45c-.1-.1-.1-1.83.13-2.26.25-.46,8.62-4.99,9.4-2.8.84,2.75-9.14,5.47-9.53,5.05h0Z"/>
  <path class="cls-7" d="M66.31,43.37l-.1-2.88c10.69,1.97,13.95,9.65.1,2.88Z"/>
  <path class="cls-2" d="M136.54,58.97c-.55.56-.95.43-1.19.6-.35-1.45.86-1.26,1.79-1.79-.24.33-.36.95-.6,1.19h0Z"/>
  <path class="cls-11" d="M87.07,27.97c3.3-1.18,2.98,1.73,3.28,1.79,1.68.33-.15-2.63,2.68-1.79.17.16,1.24-.33,1.19.3-2.94,3.47-4.6,3.28-7.15-.3Z"/>
  <path class="cls-16" d="M90.05,27.38c.38.02.78.07,1.15-.06l.35-1.74h.88c.07.61.26,1.29.6,1.79.09.14-.1.5,0,.6-2.83-.84-.99,2.13-2.68,1.79-.3-.06.02-2.97-3.28-1.79-.15-.21-.5-.39-.6-.6.79.32,2.04-.6,2.38-.6.07,0,.13.54,1.19.6h.01Z"/>
  <path class="cls-15" d="M56.08,17.24c2.4.7,2.08-1.8,1.83-3.31-.32-1.98-5.85-4.45.54-6.82.63,1.4,2.27,5.9,3.24,6.6,2.42,1.76,5.68-.94,8.1.25l2.98,5.66-20.56,2.99.29-2.39c.4-.37.76-.79,1.19-1.19l1.74-.06c.21-.34-.05-1,.05-1.14.29-.39.58-.56.6-.6h0Z"/>
  <path class="cls-4" d="M55.48,17.84c-.1.13.17.8-.05,1.14l-1.74.06c.49-.45.6-1.35,1.79-1.19h0Z"/>
  <path class="cls-14" d="M88.86,26.78v-1.19h1.19v1.78c-1.06-.05-1.12-.6-1.19-.6h0Z"/>
  <path class="cls-4" d="M101.97,162.7c.58,1.16-3.27,2.75-3.99,2.85-.45.06-.74-.47-.78-.46,1.66-.57,3.17-1.75,4.77-2.38h0Z"/>
  <path class="cls-4" d="M115.68,182.38c-.15.03-.68.47-1.19.6l1.19-.6Z"/>
</svg>