<?xml version="1.0" encoding="UTF-8"?>
<svg id="_레이어_1" data-name="레이어 1" xmlns="http://www.w3.org/2000/svg" viewBox="0 0 165.24 228.95">
  <defs>
    <style>
      .cls-1 {
        fill: #251e29;
      }

      .cls-2 {
        fill: #554e41;
      }

      .cls-3 {
        fill: #4b82af;
      }

      .cls-4 {
        fill: #9b8164;
      }

      .cls-5 {
        fill: #fcfcfb;
      }

      .cls-6 {
        fill: #bdc6c9;
      }

      .cls-7 {
        fill: #e5e3d7;
      }

      .cls-8 {
        fill: #642942;
      }

      .cls-9 {
        fill: #d3d8da;
      }

      .cls-10 {
        fill: #b6b4a7;
      }

      .cls-11 {
        fill: #582039;
      }

      .cls-12 {
        fill: #c87c3f;
      }

      .cls-13 {
        fill: #ebebea;
      }

      .cls-14 {
        fill: #ab552b;
      }

      .cls-15 {
        fill: #63864c;
      }

      .cls-16 {
        fill: #702b47;
      }

      .cls-17 {
        fill: #e1d197;
      }

      .cls-18 {
        fill: #d5833a;
      }

      .cls-19 {
        fill: #42443e;
      }

      .cls-20 {
        fill: #2c2e32;
      }

      .cls-21 {
        fill: #81a458;
      }

      .cls-22 {
        fill: #8a9ca7;
      }

      .cls-23 {
        fill: #bf5848;
      }

      .cls-24 {
        fill: #342d31;
      }
    </style>
  </defs>
  <path class="cls-6" d="M105.03.63c20.05.27,40.15-.2,60.21,0v58.43c-4.71,1.72-12.18,8.4-11.22,13.86.14.78.92,1.55,1.05,2.57.86,6.5-1.39,4.93,4.2,9.21.07.06-.11.81.14,1.02,1.68,1.42,3.94.4,5.82.17.01,22.25.02,44.52,0,66.77l-1.19-.89-11.92,39.64c-2.46-2.47-7.02-2.41-9.74-.51-3.51,2.45-2.84,8.05-5.42,10.68-2.06,2.11-6.18,1.71-8.34,4.18-2.52,2.88-2.2,10.1,1.44,11.88.13,3.24-.75,6.37-1.19,9.54-.6,0-1.19,0-1.79,0-.4,0-.79,0-1.19,0-25.61.03-51.28.24-76.89,0-.2,0-.4,0-.6,0,.98-4.14,1.7-8.38,2.68-12.52.22-.94.61-4.56,2.09-4.17.23,1.54.84,3.22,1.78,4.48.52.7,6.72,6.65,7.33,6.97,2.86,1.5,8.3,2.07,11.48,1.7,2.59-.3,1.68-1.5,2.05-1.82.57-.49,1.62-.63,2.39-1.48,2.58-2.82,1.23-6.51,1.78-7.47.03-.05.9.19,1.17-.43,3.1-7.15-.4-12.89,3.69-18.84,3.82-5.56,14.81-3,20.76-2.78.01.2-.04.42,0,.6.09.42.59.56.6.6.09.37.44,1.45.6,1.79.87,1.94.13,2.56,2.95,3.91,4.2,2,9.06.53,11.69-3.28,1.1-1.59.59-2.46.86-3.01,2.69-5.51,3.22-7.03,7.46-11.31,3.4-3.43,5.43-7.14.88-10.75-1.93-1.53-2.23-1.16-4.17-1.79-.06-.02-.32-.39-1.19-.6-.8-.19-1.61-.42-2.38-.6.02-1.66-.94-2.07-1.79-2.98-1.93-2.07-1.92-1.92-4.77-2.38-1.52-.25-1.4.02-1.79,0-2.24-.12-2.02-1.05-2.38-1.19.1-1.38-1.62-2.97-1.69-3.98-.06-.85,1.2-1.42,1.02-2.74-.08-.63-2.34-3.71-2.92-4.31-2.35-2.41-6.2-2.54-5.43-6.19-2.1-.7-4.27-1.11-6.48-1.27-.2-.01-.4,0-.6,0,.6-3.06,1.08-7.27,2.09-10.13,1.6-4.54,8.41-8.1,11.93-11.31,2.76-2.52,5.75-5.62,8.34-8.35,2.2-2.33,5.04-7.69,8.35-7.8,2.07-.07,3.73,1.33,6.09-.15.28-.17.1-.96.16-1,1.23-.88,2.45-.75,3.44-2.82,2.27-4.74.41-19.68-.86-25.09-2.46-10.48-10.19-14.69-14-2.58-4.67.06-9.32,2.94-11.23,7.24h-.6l-1.19.6c-1.7.74-2.48,1.57-4.17,2.38-2.89.56-1.54-1.5-.88-2.97,1.08-2.43,9.98-19.36,11.02-19.98,1.21-.72,2.7-.03,3.8-.27.7-.16.28-1.13.37-1.22,1.01-.98,2.04-1.31,2.84-2.82,2.16-4.08,5.05-15.24,1.05-18.66-1.33-1.14-2.69-.86-3.85-1.51-1.32-.74-2.06-2.22-3.99-3.16-7.92-3.89-12.14,2.09-17.51,6.48L105.03.63ZM119.79,6.15c-8.97,1.3-10.05,11.65-.76,11.81,14.05.24,17.58-14.25.76-11.81ZM139.99,46.74c2.66,2.67,1.97,7.96,6.72,9.08,6.54,1.55,9.4-5.68,8.25-11.23-.65-3.16-4.38-4.97-4.59-9.16-.19-3.73,2.89-6.86-.31-10.37-6.36-6.97-22.44,8.84-16.33,17.52,1.61,2.28,4.53,2.44,6.26,4.17ZM143.77,120.46c3.41,11.38,15.61,5.55,16.12-4.52.08-1.53-.6-2.26-.62-2.63s-.06-.88,0-1.19c.02-.09.56-.33.6-.6.71-4.9,2.02-10.28-4.63-11.21-5.15-.72-5.45,3.76-7.63,6.4-3.42,4.16-10.13,7.92-3.84,13.75ZM125.29,137.16c.99-2.44,2.46-4.29,1.53-7.18-.46-1.42-2.01-2.17-2.64-3.32-1.37-2.51-1.02-6.92-5.22-7.19s-13,7.37-12.71,11.99c.18,2.97,1.96,2.9,2.96,3.91.12.12.04,1,.61,1.45,2.36,1.84,11.49,5.78,14.03,3.96,1.4-1,1.04-2.62,1.45-3.62ZM144.23,151.92c3.99-7.35-5.83-14.56-9.91-6.64-3.15,6.11,5.32,8.97,9.91,6.64ZM98.17,201.17c-4.78.02-10.3,10.86-4.49,12.63,5.28,1.62,12-5.28,8.06-10.46-.58-.76-2.7-2.18-3.57-2.17Z"/>
  <path class="cls-20" d="M101.45.63l-7.74,39.65c.99.66,2.68-1.37,3.57-2.1,5.37-4.39,9.58-10.38,17.51-6.48,1.93.95,2.67,2.42,3.99,3.16,1.17.65,2.52.37,3.85,1.51,4,3.42,1.11,14.57-1.05,18.66-.8,1.51-1.84,1.84-2.84,2.82-3.13.31-5.68-.12-8.05-2.27-2.66,1.82-2.18,5.12-3.75,8.06-1.77,3.32-6.57,8.01-8.13,10.95-1.02,1.92-1.5,6.55-3.48,8.13-1.28,1.02-3.45.35-4.31,1.36-.82.95-1.91,5.88-3.08,6.62-1.37.86-2.97-.39-4.36,1.14v-1.19s-1.79,0-1.79,0c.41-.54,2.16-5.18,2.39-5.36l1.79,2.98c1.31,1.02,3.48-7.16,3.52-8.14.1-2.25-1.22-4.15.05-6.16.8.59,1.52,1.3,2.38,1.79.32-3.17-.48-6.33-1.85-9.17-1.96-4.06-4.58-4.84-7.68-7.52-.22-.19-.81-1.55-1.19-1.19-.04.39.04.8,0,1.19-.06.54.14,1.45,0,1.79h-2.98c-3.8-.89-6.41-2.65-8.94-5.66-.86-1.03-1.97-4.06-2.98-4.47-.27-.11-.83.07-1.19,0,.1-.39-.03-7.83,1.78-5.96.68,6.34,5.25,12.4,11.33,14.31.13.04.22,1.02.89.59l.31-.59c-.09-1.16.14-2.44,0-3.58l.6-1.19c1.79,1.13,8.35,7.8,9.84,7.74.98-.67.93-1.31.89-2.37-.02-.48-.59-.55-.6-.6-.05-.51.36-.54,0-1.79-.08-.27-.55-.47-.6-.6-.33-1-.35-2.07-.6-2.98l.6-.6c.57.22,1.26.22,1.79.6.18,1.14-.07,1.65,0,2.38.28,3-.04,6.15.18,8.57.28,3.2,4.44,7.81,2.37,12.18-.68,1.42-2.92,1.2-1.95,4.29,2.12.55,3.31-2.54,3.85-4.19,1.11-3.34.64-6.24,1.51-9.52l2.97,2.38c.52-2.98-.45-5.58-1.19-8.34-.09-.34.1-.88,0-1.19-.14-.42-.58-.56-.6-.6-.73-1.93-3.42-6.45-3.59-7.45-.31-1.83,3.28-.06,3.58-2.09-1.34-.26-2.58-1.21-3.58-2.09-2.17-1.91-5.48-6.47-7.19-7.71-2.56-1.86-18.5-1.78-22.3-1.53-11.45.77-41.44,9.08-48.6,18.16-2.19,2.78-2.99,9.16-6.54,11.94.31.67,1.87-.09,2.38-.3,1.8-.31,1.22.84,1.12,1.99-.45,4.95-2.65,11.56,1.86,15.29-.06-1.5-.35-3.7,1.79-3.58-.15,2.47,6.19,13.27,8.92,11.3l1.23-4.15c1.53-.22,2.32,1.77,2.38,2.98.01.29-.8,1.16-.6,1.78l1.79.6c-.09.19.01.83,0,1.19-.35,0-.89-.15-1.11.07-.1.92-.65,2.07-.68,2.91-.23-.14-.42-.52-.6-.6v-4.17c-4.29,4.92-9.94-2.28-11.35-6.55-6.03,2.7-6.79-6.79-6.9-10.93-.03-1.32.82-3.37.41-4.8-.12-.44-3.63-.91-3.63-3.05,0-.64,3.52-4.44,4.3-5.85,2.85-5.13,1.85-5.91,2.26-10.82.14-1.62,1.24-4.2,1.16-5.44s-1.44-1.61-1.67-2.46c-.76-2.79,4.95-7.42,5.56-9.09.34-.91-.82-2.52.02-4.21,1.08-2.19,8.87-6.02,11.63-5.96-.85-1.25-2.84-1.4-1.5-3.59.16-.26,4.71-2.3,5.08-2.37.52-.1,1.21.04,1.79,0,2.33-.15,4.31.18,6.56.59l-1.16-3.21c.81-2.74,9.89.26,11.02,2.6h.86c-.05-2.88,9.23-8.22,10.67-5.86l.08,3.5c4.02-.52,15.49-2.2,12.51,4.76,2.78.42,9.31,3.08,9.53,6.29.07.96-.71,1.94-.49,2.84.08.36,2.56,3.59,3.12,4.66.32.61,1.85,5.96,2.74,5.3L99.19,1.06l.85-1c.74-.28,1.33.58,1.41.58ZM62.11,14.95c-4.8.55-6.55,4.49-9.24,7.73-2.55-2.42-5.43-4.57-8.94-5.36-.03,1.32,4.34,4.86,3.27,5.96-3.04-.3-6.83-1.79-9.83-1.78-.82,0-6.35.87-5.66,1.78,1.01.15,4.45,1.37,4.17,2.68-2.18,1.5-5.01.76-7.74,1.8-2.1.81-5.9,3.17-7.16,5.06l3.87-.59c1.3,2.29-2.53,2.96-4.09,4.28-.92.78-5.38,5.59-4.55,6.45l15.69-9.04c16.31-6.78,34.2-10.3,51.66-5.86-2.51-3.91-7.74-4.32-11.94-5.04l-.3-1.53,3.28-2.07c-.03-1.38-7.05-.96-8.48-.74-2.84.43-3.96,1.98-6.41,2.82-.55-2.67,1.28-4.4,2.38-6.55ZM60.92,29.85c-.27.2-5.46.48-6.56.6-12.01,1.32-20.01,4.22-30.4,10.73-5.75,3.6-7.86,4.67-7.75,12.52l10.13-5.96c5.69-2.75,11.05-5.21,17.16-6.98,4.8-1.39,10.4-1.4,14.43-4.34.35.07.8-.04,1.19,0,8.78.96,18.04-1.04,26.82.59,0-2.62-2.36-5.94-4.75-6.86-2.97-1.15-17.08-2.24-19.89-1.49-.62.17-.34,1.16-.39,1.2ZM115.76,38.79c-1.19-.03-2.39.03-3.57,0-.2-.96.25-1.25.96-1.71,1.27-.82,3.34-.04,3.2-1.56-1.4-3.14-6.73-.56-7.14-.91-1.34-1.11,1.54-1.02,1.19-1.78-2.13-1.24-9.96,4.63-8.94,5.95,2.97.74,5.93,4.15,7.75,6.57,1,1.34,1.12,4.52,3.3,3,2.87-2,5.47-5.91,5.05-9.56-.59-.02-1.19.02-1.79,0ZM116.35,48.33c-1.23,1.48-5.46,3.45-3.89,5.97.54.43,1.46,1.06,2.1,1.18,3.51.64,4.8-.86,5.99-3.85,1.37-3.45,3.97-13.14-1.22-14.03,1.42,3.75-.55,7.81-2.98,10.73ZM109.2,53.09c.25-5.66-5.02-12.19-10.72-12.51.17,1.76,2.09,2.21,3.23,3.62,1.69,2.09,3.99,7.03,5.68,8.49.67.58.98.46,1.81.4ZM105.62,54.88c-1.13-4.72-6.44-12.24-11.92-11.92-.3,2.37,7.06,6.42,7.18,6.94.6,2.66-2.38,2.47-2.42,4.05,0,1.4,1.33,2.38,1.79,3.31l2.97,7.75c2.34-4.47,3.66-4.82,2.39-10.13Z"/>
  <path class="cls-1" d="M110.39,79.33c.23,2.05,1.15,1.44,1.79,1.79,3.36,1.82,6.3,5.3,7.75,8.94.33.83.13,4.76,1.48,4.17.97-.42,4.38-3.71,5.07-4.76l.6,2.38c-.94,1.05-1.85,2.4-2.38,2.98-.22.24-.69.65-1.19,1.19-1.32,1.43-2.06,1.79-3.66,3.79-5.25,6.58-7.28,10.88-14.88,16.13-5.59,3.87-12.37,6.21-19.02,7.51.53,3.96,2.99,8.16,2.98,12.22,0,2.58-1.89,4.35-1.78,6.85,1.16-.39,2.4-.39,3.57-.59h1.19s0,1.79,0,1.79c-.39.03-.81-.05-1.19,0l-1.19.6c-4.36.95-6.19,1.9-9.54,4.77l-15.63,6.73c-7.15,2.32-13.21,3.62-20.73,4-2.56.13-5.19-.15-7.75,0-1.56.09-1.88.37-2.98.6-.63.13-2.07-.18-2.38,0-.08-1.75-1.91-2.34-2.53-3.73-1.22-2.75-2.02-4.28-3.29-6.85-2.42-4.94-.31-20.55.53-26.6.99-7.15,3.23-13.68,4.69-20.64.15-.73,1.1-1.73.59-2.98h-1.19c0-.19,0-.4,0-.59.03-.85.59-1.99.68-2.91.22-.22.76-.07,1.11-.07-.34,9.62,15.16,7.53,21.46,6.56,1.68-.26,5-.87,6.39-1.65.68-.38,1.01.03.76-1.33l-8.04-2.41c-1.32,3.29-4.24,1.59-6.45.03-.53-.37-.37-1.16-.42-1.2-.21-.16-2.61-1.7-2.77-1.73-.65-.12-1.44.99-2.34,1.14-3.12.52-4.08-2.75-5.93-3.02-.54.08-2.59,2.25-2.67,2.41l-1.79-.6c-.21-.62.61-1.49.6-1.78.45.05.99-.57,1.19-.6.57-.09,1.37.21,1.93.01.77-.28.81-2.11,2.24-1.8.22.46,2.35,2.53,2.98,2.98.11.08.08.44.29.59l.3-.59c.2,0,.4,0,.6,0,1.38-.04,1.49.22,2.19-1.18l.79-.02c.2.23,2.25,2.28,2.38,2.38v1.79l3.87.6.31-.6c.02-.2-.03-.4,0-.6l3.58-.6c.45.3,1.49,1.04,1.79,1.19v1.19s1.19-.6,1.19-.6c.17.06.4-.04.6,0,.96,4.1,3.53-.07,6.56,0,.2,0,.4-.01.6,0v1.79c1.9.72,2.48-.94,2.98-1.19,1.09-.56,1.87-.8,2.98-1.19l1.79-.6c.3-.11.89.11,1.19,0v1.79c-.71.21-3.34,1.82-4.17,2.38-1.28.08-2.36.2-3.58.61-.07.42.59.51.6.58.08.56.16,1.7-.6,1.79-.76-.11-2.19-.08-2.98,0-3.74.39-8.05,2.6-12.23,2.97-5.54.5-11.57-.02-16.97-1.18-1.22,5.32-3.09,10.56-4.02,15.96-1.07,6.21-2.3,15.71-2.54,21.91-.14,3.55,1.15,8.79,5.19,9.7,2.94.66,11.92.31,15.3.05,8.99-.7,25.97-5.92,34.16-9.95.87-.43,4.38-2.24,4.79-2.66,3.05-3.07-.63-11.07-1.71-14.65l-12.68-.03-.35-1.84c14.59-.44,27.28-3.46,38.43-13.14,5-4.34,6.88-5.68,5.26-12.41-.25-1.05.33-2.23-1.37-1.88.04-.37.03-.81,0-1.19-.23-3.47-1.61-2.7-1.79-2.98-.13-.2.07-.98-.6-1.79-.61-.74-1.15-1.16-1.79-1.79-1.01-.99-.98-.69-1.79-1.19-.27-.17-.44-1.03-1.04-1.17-4.85-1.11-8.49,4.04-11.88,6.43-6.35,4.47-12.61,3.7-19.87,5.47-.01-2.59,2.41-1.92,3.58-2.7.63-.42.51-1.41.59-1.47.85-.63,2.73-1.27,3.58-2.38h1.79s0,1.19,0,1.19c-.21.23-.62.89-.6,1.19.02.27-.04.47.3.58l.3-.58c.77-.08,1.65.11,2.38,0l1.19-.6c.34-.1.89.11,1.19,0l.6-.6c1.6-.63,2.8-1.63,4.17-2.38.23-.13,1.14.18,1.8-.28.71-.49.47-1.37.58-1.51,3.07-3.8,5.18-3.55,8.94-5.37,1.7-.82,2.47-1.65,4.17-2.38.41-.18.9-.18,1.19-.6h.6ZM116.95,99c5.22-3.26-3.29-18.05-7.98-16.65-2.96.89,1.39,3.15,2.01,3.84,2.81,3.14,5.57,8.6,5.97,12.81ZM62.11,98.41h-1.19v1.19h1.19v-1.19ZM66.28,150.27c-1.42.51-3.8.85-5.36,1.19-2.3.5-.73.86-1.19,1.19-.29.21-5.76.38-7.15.6-1.01.16-1.13.59-1.19.6-.39.05-.8-.04-1.19,0-6.54.7-13.07.7-19.67.6-.06.98-.2,1.38.61,2.06,2.3,1.93,15.02.7,18.46.32,6.63-.73,10.53-1.88,16.69-4.17,4.97-1.85,9.87-3.88,14.32-6.84.7-.47,1.88-.65,1.78-1.8l-11.48,4.02c-1.54.22-3.48,1.83-4.62,2.23Z"/>
  <path class="cls-22" d="M165.23,152.66c-.02,24.83.01,49.69,0,74.52-3.77.01-7.56-.03-11.33,0-2.97.02-5.97-.01-8.94,0-1.19,0-2.38,0-3.58,0-1.98,0-3.98,0-5.96,0-2.18,0-4.38,0-6.56,0,.44-3.17,1.32-6.3,1.19-9.54,1.91.93,13.16.91,15.74.54,2.24-.32,4.46-1.98,5.72-3.82,2.44-3.53,3.59-14.7,2.71-18.82-.25-1.19-1.27-3.29-2.12-4.14l11.92-39.64,1.19.89Z"/>
  <path class="cls-20" d="M44.23,181.87c-1.78-2.63-3.92-5.06-5.66-7.74-1.32,2.72-9.53,9.49-12.27,7.48l-.56-2.13c-4.09,2.93-20.19,2.42-15.49-4.76-4.4-1.03-11.11-6.66-10.16-11.62.4-2.07,2.39-1.15,2.42-1.81-2.29-2.98-2.94-15.91.99-16.92,2.53-.65,3.16,3.87,4.04,5.33,4.21,7.03,12.88,14.85,21.84,12.24,1.48-.43,1.04-1.48,1.13-1.53.32-.18,1.75.13,2.38,0,2.99,9.43,16.47,17.56,25.93,17.89,1.99.07-.98-2.33,1.26-2.95.45-.12,6.68,1.6,8.29,1.74,2.62.23,5.4-.14,8.04,0-2.49.96-4.49.55-7.15.6l.59,1.79c-2.66-.43-5.36-.72-8.01-1.24l-.89,2.17c-6.53.38-12.88-2.36-18.51-5.41,4.37,6.05,8.33,11.37,7.14,19.39l1.42-.49.87.88c.29,3.99-.63,7.96,2.48,10.94.56.53.84.4,1.19.6,3.54,1.95,14.08,3.42,17.88,1.79v1.19c.83.18,2.33-.23,2.98,0,.43.16.47,1.34.79,1.58.81.6,2.22.6,2.79,2-.55.95.8,4.65-1.78,7.47-.77.84-1.83.99-2.39,1.48-3.87.6-6.77-1.98-10.13-3.28-1.38-.53-2.77-.14-4.4-.97-4.33-2.17-2.12-6.82-2.81-7.62l-5.31-1.85-2.97-3.57-5.37,22.65c-.62-.03-2.41.27-2.39-.31,1.86-6.78,3.32-13.68,4.78-20.56.28-1.32.93-2.71,1.19-4.17,1.01-5.64-.62-3.93-1.18-6.86-1.06-5.54.81-7.78-2.99-13.41ZM4.29,158.62c.17.53.49.89.6,1.19.18.5.47.86.6,1.19.24.64,1.34,4.02,1.19,4.17l-4.17-1.19c.6,3.44,3.76,6.31,6.74,7.85,1.27.66,6.24,2.02,6.36,2.58.51,2.28-5.15,1.8-3.57,3.26,4.27,1.12,7.48,1.65,11.8.18,1.35-.46,4.27-2.62,4.58-2.56,1.9.34-.88,4.18,1.19,3.57,1.96-.58,6.91-5.06,7.38-6.99.36-1.46-4.51-5.52-4.79-7.8-1.06-.62-2.22.45-2.87.49-1.47.09-3.3.09-4.77,0-9.28-.6-17.83-8.42-20.27-17.29-.85-.18-.63.67-.78,1.29-.98,4.14-.41,6.24.79,10.04ZM76.29,219.29c1.35-.77,1.77-5.54,1.03-7.03-2.12-2.63-4.56-1.11-7.13-1.15-3.13-.05-12.17-1.9-9.19,3.17,1.63,2.78,4.08,1.74,6.5,2.44s5.79,4.27,8.8,2.57Z"/>
  <path class="cls-5" d="M144.96,227.18c.24,2.12-3.74,2.6-3.58,0,1.19,0,2.38,0,3.58,0Z"/>
  <path class="cls-20" d="M29.33,99.6h1.19c.5,1.25-.44,2.25-.59,2.98.11-1-.57-2.12-.6-2.98Z"/>
  <path class="cls-5" d="M127.08,227.18v1.19s-.89,0-.89,0l-.3-1.2c.4,0,.79,0,1.19,0Z"/>
  <path class="cls-22" d="M90.12,174.12c.66,1.08,2.08,4.55,2.98,5.07,1.13.65,2.62-.03,3.46.42,1.5.82,1.69,3.87,6.08,5.24.79.25,2.1,1.48,2.98,0,.39.03.8-.03,1.19,0-.76,1.89-1.33,3.88-1.19,5.96-5.96-.22-16.94-2.77-20.76,2.78-4.1,5.95-.6,11.7-3.69,18.84-.27.63-1.14.38-1.17.43-.57-1.4-1.98-1.39-2.79-2-.32-.24-.36-1.43-.79-1.58,1.98-3.45,2.54-5.97.39-9.63-1.62-2.75-4.62-2.54-3.38-7.24.21-.79,1.4.03,1.8-3.99.16-1.63.1-2.96,0-4.77-.09-1.69-1.19-2.82,0-4.17l1.19-.6c2.76-.5,3.98.83,3.58-3.58,1.78-.03,3.58.05,5.36,0,1.45-.04,3.92.7,3.58-1.19h1.19Z"/>
  <path class="cls-22" d="M133.04,102.58c-.06.04.12.83-.16,1-2.36,1.47-4.02.07-6.09.15-3.3.12-6.14,5.48-8.35,7.8-2.59,2.73-5.57,5.84-8.34,8.35-3.53,3.21-10.33,6.78-11.93,11.31-1.01,2.86-1.49,7.07-2.09,10.13-.96-.04-2.03-.07-2.98,0-1.31.1-1.74.48-2.38.6-1.17.21-2.41.2-3.57.59-.11-2.5,1.77-4.27,1.78-6.85.01-4.06-2.45-8.26-2.98-12.22,6.66-1.29,13.43-3.64,19.02-7.51,7.59-5.25,9.63-9.55,14.88-16.13,1.59-2,2.34-2.36,3.66-3.79,2.57,3.13,4.73,7.36,9.54,6.56Z"/>
  <path class="cls-20" d="M133.04,102.58c-4.81.8-6.97-3.43-9.54-6.56.5-.55.97-.95,1.19-1.19,2.82.96,6.7,9.49,9.68,4.01,2.05-3.78.56-15.77-.21-20.34-.53-3.13-1.77-10.5-5.28-11.46-2.31-.51-5.45,3.27-4.74,5.35,8.5,4.12,9.01,12.71,2.94,19.46l-.6-2.38c.9-1.35,3.31-7.11,2.38-8.35-.4-.01-.79,0-1.19,0-1.83.02-3.01,1.71-4.16.3.7-1.71,2.33-2.6,4.16-2.69-1.44-4.61-4.83-2.61-7.74-.59l1.78-3.28c-3.76-1.04-8.33,2.68-9.53,6.26-.64-.35-1.56.26-1.79-1.79,1.91-4.3,6.56-7.19,11.23-7.24,3.8-12.12,11.54-7.91,14,2.58,1.27,5.41,3.13,20.35.86,25.09-.99,2.07-2.21,1.94-3.44,2.82Z"/>
  <path class="cls-22" d="M118.74,57.87c-.09.09.33,1.06-.37,1.22-1.1.25-2.59-.45-3.8.27-1.04.62-9.93,17.55-11.02,19.98-.66,1.47-2.01,3.53.88,2.97-3.76,1.81-5.87,1.57-8.94,5.37-1.15.12-1.93.74-2.38,1.79-1.37.75-2.57,1.75-4.17,2.38-.26.1-.45.55-.6.6-.3.11-.85-.1-1.19,0-.81.23-1.13.59-1.19.6-.74.11-1.62-.08-2.38,0h-.6c-.03-.3.38-.96.6-1.19,1.4-1.53,3-.27,4.36-1.14,1.17-.74,2.27-5.67,3.08-6.62.86-1,3.03-.34,4.31-1.36,1.98-1.58,2.46-6.21,3.48-8.13,1.56-2.93,6.36-7.63,8.13-10.95,1.57-2.94,1.08-6.23,3.75-8.06,2.38,2.15,4.92,2.58,8.05,2.27Z"/>
  <path class="cls-1" d="M122.91,166.37c.77.18,1.58.41,2.38.6l1.19.6c1.94.63,2.25.26,4.17,1.79v1.19c-1.05.07-2-.36-2.98-.59-.19-.04-.41.04-.6,0-.07-.01-.31-.39-1.19-.6-.35-.08-.82.07-1.19,0-.47-.09-1.33-1.07-2.38-.6-.1.76.12,1.67,0,2.39-.33,1.89-.66,1.83-1.79,2.98-.66.2-.88.64-1.19,1.19-3,5.31-8.53,5.94-10.73,9.54-.28.45-.45.48-.6,1.19-.07.34.03.8,0,1.19l-.41.47.41.72c.31,3.67,1.26,3.01,1.79,4.77.14.45-.09,1.25,0,1.79-1.07-.26-2.04-.61-2.98-1.19-.15-.34-.51-1.42-.6-1.79l-.6-.6c-.04-.18.01-.4,0-.6-.14-2.08.43-4.06,1.19-5.96-.39-.04-.8.03-1.19,0-.98-.09-2,.06-2.98,0-4.39-1.37-4.58-4.42-6.08-5.24-.83-.46-2.33.23-3.46-.42-.89-.51-2.32-3.99-2.98-5.07l-.3-.59-.89.59c.35,1.89-2.12,1.15-3.58,1.19l-5.96-.59.6.59c.4,4.4-.82,3.08-3.58,3.58-.69.12-.7.04-1.19.6-1.19,1.35-.09,2.48,0,4.17h-2.38c-.13-1.39.1-2.81-.69-4.09-.72-.3-1.59.03-2.29-.08l-.59-1.79c2.66-.05,4.66.36,7.15-.6.26-.1.81.12,1.18,0-.02-1.88-1.31-2.42.61-3.57h8.34c.73-.23.8-1.72,1.19-2.38h2.38c1.97,1.76,2.57,4.83,4.77,5.37.49.12,1.23-.08,1.79,0,.12.19.42.37.6.6l.6.6c.1.13-.1.47,0,.6l1.19,1.19c1.08,1.27,1.52,1.95,2.98,2.98.53.37.27,1.23,2.07,1.24,1.69,0,1.81-.78,2.7-1.24,4.44-2.31,9.05-5.09,11.83-9.34.19-.89-.6-1.43-1.1-1.99-.98-1.09-.93-.7-1.79-1.19-.55-.32-.5-1.64-2.38-.6-.04-1.53,4.63-2.34,5.96,1.19.1.27-.08.82,0,1.19h.89c.62.04.19-.85.3-1.19.61-1.74.55-2.41.6-4.17.56.08,1.29-.12,1.79,0Z"/>
  <path class="cls-24" d="M152.12,191.41c.85.85,1.87,2.95,2.12,4.14.87,4.12-.28,15.29-2.71,18.82-1.26,1.83-3.48,3.5-5.72,3.82-2.58.37-13.83.39-15.74-.54-3.65-1.78-3.96-9-1.44-11.88,2.16-2.47,6.27-2.08,8.34-4.18,2.58-2.63,1.91-8.22,5.42-10.68,2.72-1.91,7.29-1.97,9.74.51ZM130.82,215.67c2.1,1.73,4.56.1,6.69.12,4.01.05,8.32,1.92,11.62-2.03,2.43-2.9,3.77-14.77,2.71-18.22-.95-3.09-4.95-4.69-7.82-2.99-2.42,1.43-2.96,8.19-5.01,10.49-2.77,3.12-10.64,2.13-10.14,8.25.08.95,1.26,3.81,1.94,4.37Z"/>
  <path class="cls-24" d="M139.99,46.74c-1.73-1.73-4.66-1.89-6.26-4.17-6.12-8.68,9.97-24.49,16.33-17.52,3.2,3.51.12,6.64.31,10.37.21,4.2,3.94,6,4.59,9.16,1.15,5.55-1.71,12.78-8.25,11.23-4.75-1.12-4.06-6.42-6.72-9.08ZM144.19,25.8c-3.1.71-8.84,7.24-9.32,10.34-1.17,7.54,3.14,5.58,6.52,8.9,2.13,2.09,5.62,13.75,10.27,6.7,4.54-6.89-2-8.75-2.98-13.99-.89-4.77,3.56-13.79-4.48-11.96Z"/>
  <path class="cls-24" d="M159.86,111.52l-.6.6c-.06.32-.02.83,0,1.19-1.45,4.59-3.81,12.31-10.28,10.59-1.92-.51-3.15-3.14-5.21-3.43-6.29-5.83.41-9.59,3.84-13.75,2.18-2.65,2.47-7.13,7.63-6.4,6.65.93,5.34,6.3,4.63,11.21ZM157.9,103.94c-.35-.43-1.96-1.26-2.55-1.35-4.08-.63-3.74,2.69-5.62,5.05-2.19,2.76-7.61,5.6-5.65,9.83.24.51,4,3.47,4.61,3.72,2.92,1.2,5.23.05,6.53-2.7.51-1.06,3.32-9.89,3.42-10.93.13-1.23.06-2.63-.75-3.64Z"/>
  <path class="cls-9" d="M105.03.63l-7.75,37.56c-.88.72-2.57,2.75-3.57,2.1L101.45.63c1.19.04,2.39-.02,3.58,0Z"/>
  <path class="cls-24" d="M125.29,137.16c-4.97,5.16-10.05-3.34-16.09-1.79-1-1.01-2.78-.95-2.96-3.91-.29-4.62,8.32-12.27,12.71-11.99s3.85,4.67,5.22,7.19c.63,1.16,2.18,1.9,2.64,3.32.93,2.89-.53,4.74-1.53,7.18ZM108.6,130c-.06.27-.04.88,0,1.19.1.74.19.71.6,1.19,1.57,1.83,3.78.91,5.98,1.47,1.82.47,4.89,3.32,6.25,3.29,1.56-.04,3.14-2.73,3.27-4.16.28-3.31-1.85-3.87-2.93-6.31-.83-1.87-.28-4.69-2.77-5.03s-9.84,5.97-10.4,8.36Z"/>
  <path class="cls-20" d="M119.79,6.15c16.82-2.44,13.29,12.05-.76,11.81-9.29-.16-8.21-10.51.76-11.81ZM115.16,14.35c.82,2.6,12.15,1.26,13.47-2.96.46-1.46.27-1.7-.95-2.4-3.3-1.91-14.53-1-12.52,5.37Z"/>
  <path class="cls-22" d="M53.17,208.1l5.31,1.85c.69.8-1.51,5.44,2.81,7.62,1.63.82,3.02.43,4.4.97,3.36,1.3,6.26,3.88,10.13,3.28-.37.32.54,1.52-2.05,1.82-3.18.37-8.62-.2-11.48-1.7-.61-.32-6.81-6.28-7.33-6.97-.94-1.26-1.55-2.94-1.78-4.48-.11-.74.08-1.62,0-2.38Z"/>
  <path class="cls-20" d="M122.31,191.41c-4.04,3.74-7.15,4.86-12.52,3.58-.09-.54.14-1.34,0-1.79,2.46,1.28,8.3-.91,10.14-2.68,2.27-2.18,2.8-6.14,4.51-8.61,2.63-3.8,11.42-6.75,3.24-11.96.98.23,1.93.66,2.98.59v-1.19c4.55,3.61,2.52,7.32-.88,10.75-4.25,4.29-4.78,5.8-7.46,11.31Z"/>
  <path class="cls-20" d="M165.23,61.44c-3.34,2-9.22,6.04-8.89,10.46.07.91,1.04,1.48,1.13,2.38.24,2.25-2.08,6.75,2.12,8.04,2.6.36,3.77-1.75,5.63-3,0,.99,0,1.99,0,2.98-1.85,1.53-3.34,2.82-5.96,2.38-5.6-4.28-3.34-2.71-4.2-9.21-.14-1.02-.91-1.78-1.05-2.57-.96-5.46,6.51-12.14,11.21-13.86,0,.79,0,1.59,0,2.38Z"/>
  <path class="cls-20" d="M93.11,141.33v1.79s3.23.01,3.23.01l.35-1.8c2.21.16,4.38.57,6.48,1.27-.77,3.65,3.08,3.78,5.43,6.19.58.59,2.84,3.68,2.92,4.31.17,1.32-1.08,1.89-1.02,2.74.07,1.01,1.79,2.6,1.69,3.98-.42-.16-1.36.33-1.79.6-.55-1.14-4.48-6.31-3.58-7.15l1.79-.3c-1.42-.89-2.34-2.98-3.43-3.89-1.72-1.43-6.76-2.09-5.35-4.06.2-.28,1.29.29,1.04-.69-2.75-.78-6.07-.82-8.94-.6v-1.79s-1.19,0-1.19,0c.64-.11,1.07-.5,2.38-.6Z"/>
  <path class="cls-9" d="M53.17,208.1c.08.77-.11,1.65,0,2.38-1.49-.39-1.87,3.23-2.09,4.17-.98,4.14-1.7,8.38-2.68,12.52-1.19-.02-2.39.06-3.58,0l5.37-22.65,2.97,3.57Z"/>
  <path class="cls-20" d="M98.17,201.17c.87,0,2.98,1.41,3.57,2.17,3.95,5.19-2.78,12.08-8.06,10.46-5.81-1.78-.29-12.61,4.49-12.63ZM93.7,211.68c3.89.61,8.95-3.68,5.99-7.48-4.22-1.53-6.44,4.02-5.99,7.48Z"/>
  <path class="cls-20" d="M144.23,151.92c-4.59,2.33-13.07-.53-9.91-6.64,4.09-7.92,13.9-.71,9.91,6.64ZM136.15,148.96c.23.4,3.62,1.85,4.36,1.84,4.96-.06,1.75-7.41-1.17-7.12-1.8.18-4.21,3.51-3.18,5.28Z"/>
  <path class="cls-22" d="M143.77,120.46c2.06.29,3.29,2.92,5.21,3.43,6.48,1.72,8.84-6,10.28-10.59.02.37.7,1.11.62,2.63-.5,10.07-12.71,15.9-16.12,4.52Z"/>
  <path class="cls-22" d="M125.29,137.16c-.41,1-.05,2.62-1.45,3.62-2.55,1.82-11.68-2.12-14.03-3.96-.57-.45-.5-1.33-.61-1.45,6.05-1.56,11.13,6.94,16.09,1.79Z"/>
  <path class="cls-22" d="M106.81,193.79c.94.58,1.91.94,2.98,1.19,5.37,1.28,8.48.16,12.52-3.58-.27.56.24,1.43-.86,3.01-2.63,3.81-7.5,5.28-11.69,3.28-2.82-1.34-2.07-1.97-2.95-3.91Z"/>
  <path class="cls-1" d="M112.18,159.81c.36.14.14,1.07,2.38,1.19h1.79c2.85.47,2.84.32,4.77,2.38.31.64-.6,1.69-.6,1.79-1.14-1.02-2.19-1.32-3.58-1.79l-1.19-.6c-.19-.04-.4.02-.6,0-.48-.05-1.03.08-1.19.6-.67.05-2.58.17-2.92-.09-.27-.21.03-.92-.07-1.11l-.6-.6c-.13-.28.13-.93,0-1.19.43-.26,1.37-.76,1.79-.6Z"/>
  <path class="cls-22" d="M165.23,85.89c-1.88.23-4.13,1.25-5.82-.17-.25-.21-.07-.97-.14-1.02,2.62.44,4.11-.85,5.96-2.38,0,1.19,0,2.39,0,3.58Z"/>
  <path class="cls-1" d="M96.09,141.33c.2,0,.4-.01.6,0l-.35,1.8h-3.23s0-1.8,0-1.8c.95-.07,2.02-.04,2.98,0Z"/>
  <path class="cls-20" d="M122.91,166.37c-.5-.12-1.23.08-1.79,0,0-.07-.57-.51-.6-1.19,0-.09.91-1.15.6-1.79.85.91,1.81,1.32,1.79,2.98Z"/>
  <path class="cls-20" d="M116.35,161h-1.79c.39.02.27-.25,1.79,0Z"/>
  <path class="cls-20" d="M126.48,167.56l-1.19-.6c.88.21,1.13.58,1.19.6Z"/>
  <path class="cls-20" d="M109.79,79.33c-.3.41-.79.42-1.19.6l1.19-.6Z"/>
  <path class="cls-20" d="M106.22,192s-.51-.18-.6-.6l.6.6Z"/>
  <path class="cls-22" d="M159.27,112.12l.6-.6c-.04.27-.58.51-.6.6Z"/>
  <path class="cls-7" d="M12.64,68.6c-.51.21-2.07.98-2.38.3,3.55-2.78,4.34-9.17,6.54-11.94,7.17-9.08,37.16-17.39,48.6-18.16,3.8-.26,19.74-.33,22.3,1.53,1.71,1.24,5.02,5.8,7.19,7.71,1,.88,2.24,1.83,3.58,2.09-.3,2.03-3.9.26-3.58,2.09.17.99,2.85,5.51,3.59,7.45l.6.6c.1.31-.09.85,0,1.19-1.1.31.23,3.29-1.8,2.1-2.28-1.35-3.98-4.87-4.16-7.46-.01-.21.61-.95.57-1.54-.19-2.99-1.48-5.6-3.31-7.95-.47-.6-4.35-4.87-3.83-2.13s4,4.28,4.78,9.23c-.53-.38-1.22-.38-1.79-.6-.13-.05-.1-.92-1.19-.59-.31.96.57,1.12.59,1.19.25.91.27,1.98.6,2.98l.6.6c.36,1.24-.05,1.27,0,1.79l.6.6c.04,1.06.09,1.7-.89,2.37-1.49.06-8.05-6.61-9.84-7.74-.12-.07-.09-.52-.3-.59h-.89c-.4.9.57,1.57.59,1.78.14,1.13-.09,2.42,0,3.58h-1.19c-6.08-1.91-10.66-7.97-11.33-14.31-1.81-1.87-1.68,5.57-1.78,5.96-.3,1.15-3.03,6-3.93,7.1-1.26,1.54-2.61,2.41-4.12,3.63l-.3-7.15h-1.77c-1.16,5.37-4.03,10.36-8.36,13.71-.49-.22-1.5.03-1.71-.94.28-1.1.48-2.09.52-3.23.02-.59,0-1.19,0-1.79h-.88c-.82.59-1.02,1.59-1.5,2.38-1.76,2.89-3.26,5.86-5.67,8.34-1.35.25-.82-.59-.89-1.48-.15-2.05.05-4.2,0-6.27,0-.16.02-.25,0-.6-.01-.2.04-.42,0-.6-.07-.35.05-.8,0-1.19l-1.19,1.78c-.89.81-1.18,1.72-2.38,2.38-.66-3.65,1.24-7.22,1.66-10.56.11-.9.57-1.58-.76-1.35-2.56,3.51-3.38,8.45-2.09,12.51.42,1.32,1.16,1.68,1.19,1.79.32,1.18-.23,3.4,0,4.77l-1.77-1.78c-.99,4.16-1.55,8.98-5.07,11.9-3.12-2.66-4.19-6.85-5.07-10.71l-1.79,5.36c-4.74-4.24-2.37-10.16-1.79-15.5-1.36.74-1.95,3.29-2.96,4.33-.37.39-1.27.81-1.8,1.03Z"/>
  <path class="cls-7" d="M78.2,60.85c.69.16,2.35,1.58,2.98,0,.14-.34-.06-1.25,0-1.79h1.19c3.1,2.68,5.72,3.46,7.68,7.52,1.37,2.84,2.17,6,1.85,9.17-.85-.49-1.57-1.2-2.38-1.79-.58-.43-2.49-2.28-2.98-1.78,1.04,3.62.93,7.78-1.19,11.03-1.13.77-.76-4.27-2.38-2.69.28.87-3.35,9.06-4.18,6.84l-.9-2.65c-2.52,3.81-5.03,7.52-9.43,9.42-2.14-1.53-4.4-.76-6.8-1.54-1.9-.62-4.24-3.02-5.82-4.31l-.9,3.57c-2.7.73-7.18-7.73-8.04-7.74-1.53,1.33-.59,4.77-3.27,4.76-1.73-4.39-3.92-7.63-2.85-12.68.11-.53,2.11-4.42,2.33-4.56s2.28,1.03,4.54-.5c1.85-1.26,1.11-2.24,1.35-2.52,1.43-1.71,4.41-3.13,4.78-5.96,2.42,2.78,6.41-.57,8.36-2.66,2.34-2.5,3.71-5.88,4.15-9.27,1.01.41,2.12,3.44,2.98,4.47,2.53,3.02,5.14,4.77,8.94,5.66ZM77.61,73.96c-2.47,2.12-2.82,3.69-7,1.64l-.47-2.82c4.23-2.51,7.86-9.5.66-10.19-11.02-1.04-15.1,8.31-2.76,10.81.22,5.6-6.51,7.27-9.79,2.95-2.09,1.63.57,3.72,2.25,4.29,5.99,2.03,7.89-3.61,9.07-3.62.23,0,1.48,1.33,2.52,1.57,3.58.85,6.4-.93,6.73-4.65-.61-1.52-.93-.22-1.19,0Z"/>
  <path class="cls-16" d="M60.92,29.85c.05-.04-.23-1.03.39-1.2,2.81-.75,16.91.33,19.89,1.49,2.39.93,4.75,4.24,4.75,6.86-8.78-1.63-18.04.36-26.82-.59l1.78-2.09-1.48-.89-.3,1.79c-2-.02-.63-2.12-3.57-.59.04.49,2.23,1.75,2.38,1.78-4.04,2.94-9.63,2.95-14.43,4.34-6.11,1.77-11.47,4.24-17.16,6.98-1.25-2.07-2.32-4.05-2.38-6.56,10.39-6.51,18.39-9.41,30.4-10.73l.89,3.57.91-2.38c1.25-.17,1.29-.04,1.2,1.18h1.18s.3-1.17.3-1.17l2.68,1.19-.59-2.98Z"/>
  <path class="cls-7" d="M62.11,14.95c-1.1,2.14-2.93,3.88-2.38,6.55,2.45-.84,3.57-2.39,6.41-2.82,1.42-.22,8.45-.64,8.48.74l-3.28,2.07.3,1.53c4.2.72,9.43,1.13,11.94,5.04-17.46-4.44-35.35-.92-51.66,5.86l-15.69,9.04c-.83-.86,3.63-5.66,4.55-6.45,1.56-1.33,5.39-2,4.09-4.28l-3.87.59c1.26-1.89,5.05-4.25,7.16-5.06,2.73-1.05,5.56-.3,7.74-1.8.28-1.31-3.15-2.53-4.17-2.68-.69-.91,4.84-1.78,5.66-1.78,3,0,6.79,1.48,9.83,1.78,1.07-1.1-3.3-4.65-3.27-5.96,3.5.79,6.38,2.94,8.94,5.36,2.68-3.24,4.44-7.18,9.24-7.73Z"/>
  <path class="cls-10" d="M44.23,68c.09.54-.14,1.36,0,1.79l.6.6c.38-.05.84.08,1.19,0l.6-.6c.71-.29,1.46-.15,1.79-1.19h.6c-.24.28.5,1.26-1.35,2.52-2.26,1.54-4.32.36-4.54.5s-2.21,4.04-2.33,4.56c-1.07,5.05,1.12,8.3,2.85,12.68,2.68.01,1.74-3.42,3.27-4.76.86,0,5.34,8.47,8.04,7.74l.9-3.57c1.59,1.29,3.93,3.69,5.82,4.31,2.4.78,4.66.01,6.8,1.54,4.4-1.89,6.91-5.6,9.43-9.42l.9,2.65c.83,2.23,4.46-5.96,4.18-6.84,1.62-1.58,1.25,3.45,2.38,2.69,2.12-3.25,2.23-7.41,1.19-11.03.49-.49,2.4,1.36,2.98,1.78-1.26,2.01.06,3.92-.05,6.16-.04.99-2.21,9.16-3.52,8.14l-1.79-2.98c-.23.18-1.98,4.82-2.39,5.36-.84,1.11-2.72,1.75-3.58,2.38-1.56-3.83-1.5-1.03-2.94.32-.94.88-1.79,1.61-3.02,2.06-.31.11-.89-.11-1.19,0-.55.2-1.18.38-1.79.6-1.11.4-1.89.63-2.98,1.19-1.05.39-2.32-.55-2.98-.6-.2-.01-.4,0-.6,0l-3.26-2.39-1.2,2.96c-.64-.55-1.4-.42-2.09-.57-.2-.04-.43.06-.6,0-.06-.02-.96-.48-1.19-.6-.3-.15-1.34-.89-1.79-1.19s-2.26-2.38-2.68-2.37c-1.27.77-.72,1.92-.89,2.97-.03.19.02.4,0,.6-1.29-.32-3.15-1.02-4.17-1.79-.13-.1-2.19-2.15-2.38-2.38-.31-.36-.4-1.99-1.49-2.37-1.27.91-1.72,2.02-1.49,3.57-.2,0-.4,0-.6,0h-.6c-.63-.45-2.76-2.52-2.98-2.98-.63-1.32-.68-3.19-.12-4.55.49-1.16,1.31-.82,1.9-1.41l.6-.6c.84-2.33.77-6.54,0-8.94l.6-.6c2.63-1.07,3.58-3.57,4.77-5.96h1.19Z"/>
  <path class="cls-10" d="M12.64,68.6c.53-.22,1.43-.65,1.8-1.03,1.01-1.04,1.6-3.59,2.96-4.33-.59,5.34-2.95,11.25,1.79,15.5l1.79-5.36c.89,3.86,1.95,8.05,5.07,10.71,3.52-2.93,4.09-7.74,5.07-11.9l1.77,1.78c-.22-1.37.33-3.59,0-4.77l1.19-.6h.6c0,4.49,1.97,8.38,1.19,13.12l-2.37-1.79c-.09,4.02-.54,8.32-2.39,11.92-.2.03-.74.64-1.19.6-.06-1.21-.85-3.2-2.38-2.98l-1.23,4.15c-2.73,1.96-9.07-8.84-8.92-11.3-2.13-.13-1.85,2.07-1.79,3.58-4.51-3.73-2.31-10.35-1.86-15.29.11-1.15.68-2.31-1.12-1.99Z"/>
  <path class="cls-7" d="M109.2,45.35c-1.81-2.42-4.78-5.83-7.75-6.57-1.02-1.31,6.81-7.19,8.94-5.95.35.75-2.53.67-1.19,1.78.42.34,5.75-2.24,7.14.91.14,1.51-1.93.73-3.2,1.56-.72.46-1.16.76-.96,1.71,1.19.03,2.39-.03,3.57,0-.63,2.89-3.71,5.94-6.56,6.56Z"/>
  <path class="cls-11" d="M44.82,96.02c.05.04-.11.83.42,1.2,2.21,1.56,5.13,3.26,6.45-.03l8.04,2.41c.25,1.36-.08.95-.76,1.33-1.39.77-4.71,1.39-6.39,1.65-2.27-.72-7.23-2.84-9.31-2.96-1.6-.1-2.8.8-4.55.47-2.94-.54-5.11-4.05-7.6-4.07.01-.36-.09-1.01,0-1.19.08-.16,2.13-2.33,2.67-2.41,1.85.28,2.81,3.54,5.93,3.02.9-.15,1.69-1.26,2.34-1.14.16.03,2.56,1.57,2.77,1.73Z"/>
  <path class="cls-10" d="M93.11,56.08c.18,2.6,1.88,6.12,4.16,7.46,2.03,1.2.7-1.79,1.8-2.1.74,2.76,1.71,5.37,1.19,8.34l-2.97-2.38c-.87,3.28-.4,6.18-1.51,9.52-.55,1.64-1.74,4.74-3.85,4.19-.97-3.09,1.27-2.87,1.95-4.29,2.08-4.37-2.08-8.98-2.37-12.18-.22-2.42.1-5.57-.18-8.57h1.79Z"/>
  <path class="cls-19" d="M66.28,50.71c-.44,3.38-1.8,6.77-4.15,9.27-1.95,2.08-5.95,5.44-8.36,2.66-.37,2.83-3.35,4.25-4.78,5.96h-.6c-.51-.42-1.29-.37-1.79-.6,4.34-3.36,7.2-8.34,8.36-13.7h1.77s.3,7.14.3,7.14c1.51-1.21,2.87-2.08,4.12-3.63.9-1.1,3.63-5.95,3.93-7.1.36.07.93-.11,1.19,0Z"/>
  <path class="cls-11" d="M23.96,41.17c.07,2.5,1.13,4.49,2.38,6.56l-10.13,5.96c-.12-7.84,2-8.91,7.75-12.52Z"/>
  <path class="cls-8" d="M105.62,54.88c-2.45-.39-2.91,2.77-5.36,2.38-.46-.93-1.8-1.91-1.79-3.31.04-1.58,3.02-1.39,2.42-4.05-.12-.52-7.48-4.57-7.18-6.94,5.48-.32,10.79,7.2,11.92,11.92Z"/>
  <path class="cls-18" d="M114.56,55.48c2.22-1.37,2.98-4.92,1.79-7.15,2.43-2.92,4.41-6.98,2.98-10.73,5.19.89,2.59,10.59,1.22,14.03-1.19,2.98-2.48,4.49-5.99,3.85Z"/>
  <path class="cls-11" d="M109.2,53.09c-.83.05-1.14.17-1.81-.4-1.69-1.46-3.99-6.4-5.68-8.49-1.14-1.41-3.06-1.85-3.23-3.62,5.7.33,10.97,6.85,10.72,12.51Z"/>
  <path class="cls-10" d="M115.76,38.79c.6.02,1.2-.03,1.79,0,.42,3.65-2.18,7.56-5.05,9.56-2.18,1.52-2.29-1.66-3.3-3,2.84-.61,5.93-3.67,6.56-6.56Z"/>
  <path class="cls-11" d="M105.62,54.88c1.27,5.31-.05,5.66-2.39,10.13l-2.97-7.75c2.45.38,2.92-2.77,5.36-2.38Z"/>
  <path class="cls-19" d="M93.11,56.08h-1.79c-.07-.73.18-1.25,0-2.38-.78-4.95-4.27-6.53-4.78-9.23s3.36,1.53,3.83,2.13c1.83,2.35,3.12,4.96,3.31,7.95.04.59-.59,1.33-.57,1.54Z"/>
  <path class="cls-12" d="M114.56,55.48c-.64-.12-1.56-.75-2.1-1.18-1.57-2.53,2.66-4.5,3.89-5.97,1.19,2.23.43,5.78-1.79,7.15Z"/>
  <path class="cls-9" d="M60.92,29.85l.59,2.98-2.68-1.19-.3,1.19h-1.18c.1-1.23.05-1.36-1.2-1.19l-.91,2.38-.89-3.57c1.09-.12,6.29-.4,6.56-.6Z"/>
  <path class="cls-6" d="M57.94,36.4c-.15-.03-2.34-1.3-2.38-1.78,2.94-1.53,1.57.57,3.57.59l.3-1.79,1.48.89-1.78,2.09c-.39-.04-.85.07-1.19,0Z"/>
  <path class="cls-19" d="M81.18,60.85c-.63,1.58-2.29.16-2.98,0h2.98Z"/>
  <path class="cls-19" d="M79.99,54.29l-.6,1.19c-.03-.22-.99-.88-.59-1.79h.89c.21.07.18.52.3.59Z"/>
  <path class="cls-19" d="M82.38,59.06h-1.19c.04-.39-.04-.8,0-1.19.38-.36.96,1,1.19,1.19Z"/>
  <path class="cls-19" d="M89.53,53.1l-.6.6c-.02-.07-.9-.23-.59-1.19,1.09-.33,1.06.54,1.19.59Z"/>
  <path class="cls-19" d="M79.4,59.06l-.31.59c-.66.43-.76-.55-.89-.59h1.19Z"/>
  <path class="cls-10" d="M99.07,60.25l-.6-.6s.46.17.6.6Z"/>
  <path class="cls-19" d="M90.72,59.65l-.6-.6s.58.12.6.6Z"/>
  <path class="cls-19" d="M90.12,57.27l-.6-.6c.04.13.52.33.6.6Z"/>
  <path class="cls-21" d="M165.23,79.33c-1.86,1.25-3.03,3.36-5.63,3-4.21-1.29-1.88-5.79-2.12-8.04-.1-.9-1.07-1.47-1.13-2.38-.33-4.43,5.54-8.47,8.89-10.46,0,5.95,0,11.93,0,17.88Z"/>
  <path class="cls-16" d="M112.78,94.23c.03.38.04.82,0,1.19-.83,8.76-17.67,18.02-25.37,20.24-6.11,1.76-13.27,1.62-18.91,3.15-1.1.3-3.27,1.43-2.54,2.83,2.43,4.66,6.19,7.92,11.64,8.36-.46,1.22-.56,2.66-1.08,3.99-.3.76-4.27,6.6-1.59,6.16,2.05-.34,5.51-8.2,5.66-10.14,3.19.06,2.91,5.68,1.83,7.49-2.85,4.77-28.37,10.59-34.29,11.01-6.36.45-17.21,1.48-18.22-6.87-.52-4.34-.41-14.65.02-19.09s2.59-9.09,3.26-13.43c.71-.95,7.51.14,9.58.03,4.74-.25,10.36-2.12,14.9-3.57,1.1-.35,3.25-1.77,3.85-1.81,1.11-.09,4.2,1.41,5.81,1.64,7.97,1.12,21.48-.12,28.78-3.7,2.87-1.41,7.89-6.43,10.11-6.88.08-.02.72.58,1.37.44,1.71-.37,3.24-1.42,5.18-1.04Z"/>
  <path class="cls-7" d="M91.91,143.71c2.87-.22,6.19-.17,8.94.6.26.98-.84.41-1.04.69-1.41,1.98,3.64,2.64,5.35,4.06,1.09.91,2.01,3,3.43,3.89l-1.79.3c-.9.84,3.03,6.01,3.58,7.15.13.26-.13.92,0,1.19.1.21.49.39.6.6.09.19-.21.9.07,1.11.33.26,2.25.13,2.92.09.5-.04,1.03-.02,1.19-.6.2.02.41-.04.6,0,.07.01.57.38,1.19.6,1.38.47,2.43.77,3.58,1.79.02.68.6,1.13.6,1.19-.04,1.77.02,2.43-.6,4.17h-1.19c-1.33-3.54-6.01-2.72-5.96-1.19l2.38.6c.86.5.81.1,1.79,1.19-7.52,9.84-16.05,11.29-20.26-2.1l-1.78,2.69-5.68-7.14-.89,2.97-4.17-1.19.59,2.98h-15.5l3.57,1.79c.11.87-1.56,1.07-2.14,1.13-5.61.6-18.51.3-23.52-2-3.13-1.44-6.74-4.73-9.51-6.88,13.86.58,30.72-4.11,41.41-13.15.37-.31.23-1.09.31-1.16,3.35-2.87,5.18-3.82,9.54-4.77.53-.12,1.07-.58,1.19-.6.39-.05.8.03,1.19,0Z"/>
  <path class="cls-11" d="M112.78,95.42c1.69-.35,1.12.83,1.37,1.88,1.62,6.73-.27,8.08-5.26,12.41-11.15,9.68-23.84,12.69-38.43,13.14l.35,1.84,12.68.03c1.08,3.59,4.76,11.59,1.71,14.65-.42.42-3.92,2.23-4.79,2.66-8.19,4.03-25.17,9.25-34.16,9.95-3.37.26-12.35.62-15.3-.05-4.04-.91-5.33-6.15-5.19-9.7.24-6.2,1.47-15.7,2.54-21.91.93-5.4,2.8-10.64,4.02-15.96,5.4,1.16,11.43,1.68,16.97,1.18,4.18-.37,8.49-2.58,12.23-2.97v1.19c-.6.05-2.75,1.46-3.85,1.81-4.54,1.45-10.17,3.32-14.9,3.57-2.06.11-8.87-.98-9.58-.03-.67,4.34-2.84,9.15-3.26,13.43s-.54,14.75-.02,19.09c1,8.34,11.86,7.31,18.22,6.87,5.92-.42,31.44-6.25,34.29-11.01,1.08-1.81,1.36-7.44-1.83-7.49.31-4.17-1.6-3.65-2.98,0-5.45-.45-9.21-3.7-11.64-8.36-.73-1.4,1.44-2.53,2.54-2.83,5.64-1.53,12.8-1.39,18.91-3.15,7.69-2.22,24.54-11.48,25.37-20.24Z"/>
  <path class="cls-10" d="M79.99,149.08c-.08.07.06.85-.31,1.16-10.69,9.04-27.55,13.74-41.41,13.15,2.77,2.15,6.38,5.44,9.51,6.88,5.01,2.3,17.91,2.6,23.52,2,.57-.06,2.24-.26,2.14-1.13l-3.57-1.79h15.5l-.59-2.98,4.17,1.19.89-2.97,5.68,7.14,1.78-2.69c4.22,13.39,12.75,11.94,20.26,2.1.5.56,1.29,1.1,1.1,1.99-2.78,4.24-7.4,7.02-11.83,9.34-1.68.3-3.13.78-4.77,0-1.46-1.03-1.9-1.71-2.98-2.98-.41-.49-1.01-.96-1.19-1.19-.1-.12.1-.47,0-.6-.17-.23-.44-.4-.6-.6-.17-.23-.47-.4-.6-.6-.31-.47.21-2.95-1.79,0-2.2-.53-2.8-3.61-4.77-5.37-.37-.33-.45-1.41-1.48-1.19-.48.28-.64.76-.9,1.19-.4.66-.46,2.15-1.19,2.38-1.77-.95-6.59-1.05-8.34,0-1.91,1.14-.63,1.69-.61,3.57-.37.13-.92-.09-1.18,0-2.64-.15-5.41.22-8.04,0-1.61-.14-7.84-1.87-8.29-1.74-2.24.62.73,3.02-1.26,2.95-9.46-.33-22.93-8.46-25.93-17.89,1.1-.23,1.42-.5,2.98-.6,1.79.99,5.83,1.01,7.75,0,7.53-.38,13.58-1.68,20.73-4l15.63-6.73Z"/>
  <path class="cls-3" d="M124.7,94.83c.54-.58,1.44-1.93,2.38-2.98,6.07-6.74,5.56-15.34-2.94-19.46-.71-2.08,2.43-5.86,4.74-5.35,3.5.96,4.75,8.33,5.28,11.46.77,4.57,2.26,16.56.21,20.34-2.97,5.48-6.86-3.06-9.68-4.01Z"/>
  <path class="cls-7" d="M112.18,81.12c1.21-3.58,5.77-7.3,9.53-6.26l-1.78,3.28c2.91-2.02,6.31-4.02,7.74.59-1.83.1-3.46.99-4.16,2.69,1.15,1.41,2.32-.28,4.16-.3-.48,3.7-4.15,7.99-7.75,8.94-1.45-3.64-4.39-7.13-7.75-8.94Z"/>
  <path class="cls-8" d="M74.03,97.21c7.25-1.77,13.52-1,19.87-5.47,3.39-2.39,7.03-7.54,11.88-6.43.6.14.77,1,1.04,1.17-8.02,7.25-15.42,12.33-26.53,13.11-4.02.28-8.2-.26-12.21,0,.83-.56,3.47-2.17,4.17-2.38.46-.14,1.28.12,1.79,0Z"/>
  <path class="cls-8" d="M110.39,89.46c-6.03,3.04-11.45,9.54-17.75,11.76-9.54,3.36-18.56,2.76-28.15,1.36.76-.09.67-1.23.6-1.79,7.68.88,18.36,1.22,25.76-1.36,6.3-2.19,12.11-8.31,17.75-11.76.64.63,1.18,1.05,1.79,1.79Z"/>
  <path class="cls-13" d="M110.99,91.25c-1.75.52-3.7,2.05-4.77,3.58-2.22.45-7.24,5.47-10.11,6.88-7.3,3.58-20.81,4.82-28.78,3.7-1.61-.23-4.71-1.72-5.81-1.64v-1.19c.79-.08,2.22-.11,2.98,0,9.59,1.41,18.61,2,28.15-1.36,6.3-2.22,11.72-8.72,17.75-11.76.67.81.47,1.59.6,1.79Z"/>
  <path class="cls-13" d="M108.6,87.67c-5.63,3.45-11.45,9.56-17.75,11.76-7.4,2.58-18.08,2.24-25.76,1.36,0-.07-.67-.17-.6-.58,1.22-.41,2.3-.52,3.58-.61,4.02-.26,8.19.28,12.21,0,11.11-.78,18.51-5.86,26.53-13.11.81.5.78.2,1.79,1.19Z"/>
  <path class="cls-8" d="M52.57,102.58c-6.29.97-21.79,3.06-21.46-6.56,2.5.02,4.67,3.52,7.6,4.07,1.74.32,2.94-.57,4.55-.47,2.08.13,7.04,2.24,9.31,2.96Z"/>
  <path class="cls-11" d="M50.19,153.85l-.6,2.98c-3.44.38-16.15,1.61-18.46-.32-.82-.69-.68-1.09-.61-2.06,6.6.1,13.12.1,19.67-.6Z"/>
  <path class="cls-11" d="M116.95,99c-.4-4.22-3.16-9.67-5.97-12.81-.62-.69-4.97-2.95-2.01-3.84,4.69-1.41,13.2,13.39,7.98,16.65Z"/>
  <path class="cls-16" d="M66.28,150.27v2.38c-6.16,2.3-10.06,3.44-16.69,4.17l.6-2.98c.39-.04.81.05,1.19,0l1.19.59v-1.19c1.4-.22,6.87-.38,7.16-.6h1.19s0-1.19,0-1.19c1.56-.34,3.94-.69,5.36-1.19Z"/>
  <path class="cls-10" d="M127.68,81.12c.4,0,.79-.01,1.19,0,.93,1.24-1.48,7-2.38,8.35-.7,1.05-4.11,4.34-5.07,4.76-1.35.59-1.15-3.33-1.48-4.17,3.6-.95,7.27-5.24,7.75-8.94Z"/>
  <path class="cls-11" d="M66.28,150.27c1.14-.41,3.08-2.01,4.62-2.23l11.48-4.02c.1,1.14-1.08,1.33-1.78,1.8-4.44,2.96-9.35,4.99-14.32,6.84v-2.38Z"/>
  <path class="cls-11" d="M110.99,91.25c.18.28,1.56-.48,1.79,2.98-1.95-.39-3.48.66-5.18,1.04-.65.14-1.29-.46-1.37-.44,1.07-1.53,3.02-3.06,4.77-3.58Z"/>
  <path class="cls-20" d="M72.24,95.42c1.23-.45,2.09-1.18,3.02-2.06,1.44-1.36,1.37-4.15,2.94-.32-.08.06.04,1.05-.59,1.47-1.17.78-3.59.11-3.58,2.7-.51.12-1.33-.14-1.79,0v-1.79Z"/>
  <path class="cls-20" d="M62.71,96.62c-3.02-.07-5.6,4.1-6.56,0,.69.15,1.46.02,2.09.57l1.2-2.96,3.26,2.39Z"/>
  <path class="cls-20" d="M52.57,94.83l-3.58.6c.18-1.05-.38-2.2.89-2.97.42,0,2.22,2.06,2.68,2.37Z"/>
  <path class="cls-2" d="M43.63,159.81c-1.91,1.01-5.96.99-7.75,0,2.56-.15,5.19.13,7.75,0Z"/>
  <path class="cls-20" d="M66.28,97.21c-.5.25-1.08,1.91-2.98,1.19v-1.79c.66.05,1.93.99,2.98.6Z"/>
  <path class="cls-20" d="M49,96.02l-.31.6-3.87-.6v-1.79c1.03.77,2.89,1.47,4.17,1.79Z"/>
  <path class="cls-20" d="M95.49,87.67c-.11.14.13,1.02-.58,1.51-.66.46-1.57.15-1.8.28.45-1.05,1.23-1.67,2.38-1.79Z"/>
  <path class="cls-20" d="M55.55,96.62l-1.19.6v-1.19c.23.12,1.13.58,1.19.6Z"/>
  <path class="cls-11" d="M52.57,153.25v1.19s-1.19-.59-1.19-.59c.07,0,.18-.44,1.19-.6Z"/>
  <rect class="cls-20" x="60.92" y="98.41" width="1.19" height="1.19"/>
  <path class="cls-11" d="M60.92,151.46v1.19s-1.19,0-1.19,0c.46-.34-1.11-.7,1.19-1.19Z"/>
  <path class="cls-20" d="M71.05,95.42l-1.79.6c.6-.22,1.24-.39,1.79-.6Z"/>
  <path class="cls-20" d="M90.72,143.71c-.12.02-.66.48-1.19.6l1.19-.6Z"/>
  <path class="cls-20" d="M87.14,92.44l-1.19.6c.07-.01.39-.37,1.19-.6Z"/>
  <path class="cls-20" d="M88.34,92.44c.14-.05.34-.49.6-.6l-.6.6Z"/>
  <path class="cls-20" d="M82.97,93.04h.6l-.3.58c-.34-.11-.27-.32-.3-.58Z"/>
  <path class="cls-10" d="M54.36,205.71c-3.1-2.97-2.18-6.95-2.48-10.94l-.87-.88-1.42.49c1.19-8.01-2.77-13.34-7.14-19.39,5.63,3.06,11.99,5.79,18.51,5.41l.89-2.17c2.65.52,5.35.8,8.01,1.24.69.11,1.57-.22,2.29.08.79,1.28.56,2.7.69,4.09.15,1.59-.36,3.28.6,4.77v.89c-.11.4-.4.24-.6.31l-1.47-.6-.31.6v7.75c.07.3.44.42.6.6.82.93,2.45,1.73,3.25,3.01,1.57,2.51,1.51,5.85-1.46,7.13-3.8,1.63-14.34.16-17.88-1.79l4.4.56c1.14-.39.34-3.22,3.65-2.97,2.68.2.33,3.45,2.38,3.59,1.48-1.18.79-3.16.91-4.76l2.97.59-1.19-13.71-3.57,2.38-.61-4.77c-1.61-.49-.89.97-1.9,1.39-3.71,1.51-4.48-1.65-5.54-1.38-.29,2.16-3.07,2.99-3.3,3.4-1.85,3.21.12,11.43.61,15.08Z"/>
  <path class="cls-7" d="M54.36,205.71c-.5-3.66-2.47-11.87-.61-15.08.23-.4,3.02-1.24,3.3-3.4,1.05-.27,1.83,2.9,5.54,1.38,1.01-.41.28-1.88,1.9-1.39l.61,4.77,3.57-2.38,1.19,13.71-2.97-.59c-.11,1.6.58,3.59-.91,4.76-2.05-.14.31-3.39-2.38-3.59-3.31-.25-2.51,2.58-3.65,2.97l-4.4-.56c-.35-.19-.64-.06-1.19-.6Z"/>
  <path class="cls-7" d="M4.29,158.62c-1.2-3.79-1.77-5.9-.79-10.04.15-.62-.07-1.46.78-1.29,2.44,8.87,11,16.69,20.27,17.29,1,1.27,4.06.19,4.77.6.04.02-.11.79.19.97.93.57,2.2.53,2.77,1.77-2.45,4.5-8.17,6.7-13.1,6.79l2.38-3.57c-5.71.4-10.86-.07-14.89-4.48l2.97-1.77-4.17-3.88c-.12-.33-.42-.7-.6-1.19l.59-.3v-.89s-1.19,0-1.19,0Z"/>
  <path class="cls-10" d="M5.48,161l4.17,3.88-2.97,1.77c4.03,4.42,9.18,4.89,14.89,4.48l-2.38,3.57c4.92-.09,10.65-2.29,13.1-6.79-.57-1.24-1.83-1.2-2.77-1.77-.3-.18-.15-.95-.19-.97v-.6c.65-.04,1.81-1.11,2.87-.49.28,2.28,5.14,6.34,4.79,7.8-.47,1.93-5.42,6.41-7.38,6.99-2.07.61.71-3.23-1.19-3.57-.31-.06-3.23,2.11-4.58,2.56-4.32,1.46-7.54.93-11.8-.18-1.58-1.46,4.08-.98,3.57-3.26-.13-.57-5.09-1.92-6.36-2.58-2.98-1.55-6.15-4.42-6.74-7.85l4.17,1.19c.15-.15-.95-3.53-1.19-4.17Z"/>
  <path class="cls-23" d="M76.29,219.29c-3.01,1.71-6.36-1.86-8.8-2.57s-4.87.34-6.5-2.44c-2.97-5.07,6.06-3.22,9.19-3.17,2.58.04,5.01-1.48,7.13,1.15.74,1.49.33,6.26-1.03,7.03Z"/>
  <path class="cls-1" d="M75.22,188.43c-.4,4.03-1.59,3.2-1.8,3.99-1.24,4.71,1.77,4.49,3.38,7.24,2.15,3.66,1.58,6.18-.39,9.63-.65-.24-2.15.18-2.99,0v-1.19c2.98-1.27,3.04-4.61,1.47-7.13-.8-1.28-2.43-2.08-3.25-3.01l-.6-.6v-7.75c.53-.1,1.37.14,1.79,0,.19-.07.48.1.59-.31v-.89h1.79Z"/>
  <path class="cls-22" d="M29.33,164.58v.6c-.71-.4-3.77.67-4.77-.6,1.47.09,3.29.09,4.77,0Z"/>
  <path class="cls-10" d="M4.29,158.62h1.19s0,.89,0,.89l-.59.3c-.11-.31-.43-.66-.6-1.19Z"/>
  <path class="cls-20" d="M75.22,183.66c.1,1.81.16,3.14,0,4.77h-1.79c-.95-1.49-.45-3.18-.6-4.77h2.38Z"/>
  <path class="cls-20" d="M85.36,175.31c-1.78.05-3.58-.03-5.36,0l-.6-.59,5.96.59Z"/>
  <path class="cls-20" d="M105.62,184.85c-.88,1.48-2.19.25-2.98,0,.98.06,2-.09,2.98,0Z"/>
  <path class="cls-20" d="M76.42,178.89l-1.19.6c.49-.56.5-.47,1.19-.6Z"/>
  <polygon class="cls-20" points="90.12 174.12 88.93 174.12 89.82 173.52 90.12 174.12"/>
  <path class="cls-3" d="M124.7,169.35c.37.07.85-.08,1.19,0l1.19.6c.19.04.41-.04.6,0,8.18,5.22-.61,8.16-3.24,11.96-1.71,2.47-2.24,6.43-4.51,8.61-1.84,1.77-7.67,3.96-10.14,2.68-.53-1.76-1.48-1.1-1.79-4.77-.03-.38-.03-.81,0-1.19s-.07-.85,0-1.19l.6-1.19c2.2-3.6,7.72-4.22,10.73-9.54.67-.17.84-.84,1.19-1.19,1.13-1.15,1.46-1.09,1.79-2.98.7-.81,1.17-1.84,2.38-1.79Z"/>
  <path class="cls-20" d="M86.55,173.52h-8.34c1.76-1.05,6.58-.95,8.34,0Z"/>
  <path class="cls-20" d="M106.81,182.46c-.89.46-1.01,1.25-2.7,1.24-1.79,0-1.53-.87-2.07-1.24,1.64.78,3.09.3,4.77,0Z"/>
  <path class="cls-20" d="M124.7,169.35c-1.21-.05-1.69.98-2.38,1.79.12-.72-.1-1.62,0-2.39,1.05-.47,1.91.51,2.38.6Z"/>
  <path class="cls-20" d="M90.12,171.14h-2.38c.26-.44.43-.91.9-1.19,1.04-.22,1.11.86,1.48,1.19Z"/>
  <path class="cls-20" d="M115.76,169.94l-2.38-.6c1.88-1.04,1.83.28,2.38.6Z"/>
  <path class="cls-20" d="M94.89,176.5c2-2.95,1.48-.47,1.79,0-.56-.08-1.29.12-1.79,0Z"/>
  <path class="cls-20" d="M120.52,170.54c-.12.34.31,1.23-.3,1.2h-.89c-.08-.38.1-.92,0-1.2h1.19Z"/>
  <path class="cls-20" d="M108.01,188.43l-.41-.72.41-.47c-.03.38-.03.81,0,1.19Z"/>
  <path class="cls-20" d="M108.01,186.04c.15-.71.32-.74.6-1.19l-.6,1.19Z"/>
  <path class="cls-20" d="M127.08,169.94l-1.19-.6c.89.21,1.13.58,1.19.6Z"/>
  <path class="cls-20" d="M99.07,179.48l-1.19-1.19c.18.23.78.71,1.19,1.19Z"/>
  <path class="cls-20" d="M97.87,177.69l-.6-.6c.15.2.42.36.6.6Z"/>
  <path class="cls-20" d="M119.33,175.31c.31-.55.53-.99,1.19-1.19-.35.36-.52,1.02-1.19,1.19Z"/>
  <path class="cls-23" d="M130.82,215.67c-.68-.56-1.86-3.42-1.94-4.37-.5-6.12,7.36-5.14,10.14-8.25,2.05-2.3,2.58-9.06,5.01-10.49,2.87-1.7,6.87-.1,7.82,2.99,1.06,3.45-.28,15.32-2.71,18.22-3.31,3.95-7.61,2.08-11.62,2.03-2.13-.02-4.59,1.61-6.69-.12Z"/>
  <path class="cls-23" d="M144.19,25.8c8.04-1.83,3.6,7.18,4.48,11.96.97,5.23,7.52,7.1,2.98,13.99-4.65,7.05-8.14-4.61-10.27-6.7-3.38-3.32-7.69-1.36-6.52-8.9.48-3.11,6.22-9.64,9.32-10.34ZM139.95,32.88c-.72.22-1.55,1.9-1.53,2.64l2,2.03c2.29-.9,2.16-5.49-.47-4.68Z"/>
  <path class="cls-23" d="M157.9,103.94c.81,1.01.88,2.41.75,3.64-.11,1.03-2.92,9.87-3.42,10.93-1.31,2.74-3.61,3.89-6.53,2.7-.61-.25-4.38-3.21-4.61-3.72-1.95-4.23,3.47-7.07,5.65-9.83,1.87-2.36,1.53-5.68,5.62-5.05.59.09,2.2.91,2.55,1.35ZM149.73,113.9l2.72-.55c1.08-4.72-3.29-3.22-2.72.55Z"/>
  <path class="cls-17" d="M124.7,132.98c-1.16-3.61-1.6-.53-3.8-.6-2.01-.06-4.14-2.04-6.07-2.35s-4.22.13-6.22-.04c.55-2.39,7.86-8.7,10.4-8.36s1.95,3.15,2.77,5.03c1.08,2.45,3.21,3,2.93,6.31Z"/>
  <path class="cls-18" d="M108.6,130c2,.17,4.28-.27,6.22.04s4.06,2.28,6.07,2.35c2.2.07,2.64-3.01,3.8.6-.12,1.44-1.71,4.13-3.27,4.16-1.36.03-4.43-2.82-6.25-3.29-2.2-.57-4.41.36-5.98-1.47l.59-.3v-.89s-1.19,0-1.19,0c-.04-.32-.06-.92,0-1.19Z"/>
  <path class="cls-17" d="M108.6,131.19h1.19s0,.89,0,.89l-.59.3c-.41-.48-.5-.45-.6-1.19Z"/>
  <path class="cls-21" d="M127.68,8.98c.04,1.33-3.99,3.38-4.93,3.72-2.36.84-5.25.54-7.59,1.65-2.01-6.36,9.22-7.27,12.52-5.37Z"/>
  <path class="cls-15" d="M115.16,14.35c2.34-1.11,5.23-.8,7.59-1.65.94-.33,4.97-2.39,4.93-3.72,1.23.71,1.41.94.95,2.4-1.32,4.23-12.65,5.56-13.47,2.96Z"/>
  <path class="cls-17" d="M93.7,211.68c-.46-3.46,1.77-9.01,5.99-7.48,2.96,3.8-2.09,8.09-5.99,7.48Z"/>
  <path class="cls-21" d="M136.15,148.96c-1.03-1.77,1.39-5.1,3.18-5.28,2.92-.3,6.13,7.06,1.17,7.12-.74,0-4.12-1.43-4.36-1.84Z"/>
  <path class="cls-20" d="M116.95,163.39c-.63-.21-1.13-.58-1.19-.6l1.19.6Z"/>
  <path class="cls-20" d="M115.16,162.79c-.16.58-.69.56-1.19.6.16-.51.71-.64,1.19-.6Z"/>
  <path class="cls-20" d="M110.99,162.19c-.1-.2-.5-.38-.6-.6l.6.6Z"/>
  <path class="cls-20" d="M36.48,64.42v.6c.05,2.07-.15,4.22,0,6.27.06.89-.46,1.72.89,1.48,2.41-2.48,3.91-5.45,5.67-8.34l2.38-.6c-.04,1.15-.24,2.13-.52,3.23.21.97,1.22.72,1.71.94s1.28.18,1.79.6c-.33,1.04-1.08.9-1.79,1.19-.3.12-.52.58-.6.6-.35.08-.81-.05-1.19,0-.11-.24-.55-.45-.6-.6-.14-.43.09-1.25,0-1.79l-.3-.59-.89.59c-1.19,2.39-2.14,4.89-4.77,5.96l-.6.6c.77,2.4.84,6.61,0,8.94-.04.11-.42.43-.6.6-.6.59-1.42.25-1.9,1.41-.57,1.36-.52,3.23.12,4.55-1.43-.31-1.47,1.52-2.24,1.8-.56.2-1.36-.1-1.93-.01,1.85-3.6,2.3-7.9,2.39-11.92l2.37,1.79c.79-4.74-1.18-8.63-1.19-13.12l-.3-.58-.3.58-1.19.6c-.03-.1-.77-.47-1.19-1.79.24-.54.88-.42,1.19-.6,1.21-.67,1.5-1.57,2.38-2.38.27-.24.86-.36,1.19-.6.04.18-.01.4,0,.6Z"/>
  <path class="cls-19" d="M31.71,67.4c-1.29-4.06-.47-9,2.09-12.51,1.33-.23.87.46.76,1.35-.42,3.35-2.32,6.91-1.66,10.56-.31.17-.95.05-1.19.6Z"/>
  <path class="cls-19" d="M43.04,64.42c.48-.79.68-1.79,1.5-2.38h.88c0,.59.02,1.19,0,1.78l-2.38.6Z"/>
  <path class="cls-19" d="M36.48,63.83c-.34.24-.93.35-1.19.6l1.19-1.78c.06.39-.07.84,0,1.19Z"/>
  <path class="cls-19" d="M36.48,65.02v-.6c.02.34,0,.43,0,.6Z"/>
  <path class="cls-20" d="M78.8,73.96c-.33,3.71-3.15,5.49-6.73,4.65-1.04-.24-2.28-1.57-2.52-1.57-1.19,0-3.08,5.65-9.07,3.62-1.68-.57-4.34-2.66-2.25-4.29,3.28,4.32,10.02,2.65,9.79-2.95-12.34-2.5-8.25-11.85,2.76-10.81,7.2.68,3.57,7.67-.66,10.19l.47,2.82c4.18,2.05,4.54.48,7-1.64h1.19ZM71.64,64.43c-.8-.3-8.22-.03-6.55,1.78,1.84.76,3.57.42,5.36-.32.93-.39,1.47.09,1.19-1.45Z"/>
  <path class="cls-2" d="M78.8,73.96h-1.19c.26-.22.58-1.52,1.19,0Z"/>
  <path class="cls-20" d="M42.44,91.85l-.79.02c-.7,1.39-.81,1.14-2.19,1.18-.23-1.54.22-2.66,1.49-3.57,1.09.38,1.19,2.01,1.49,2.37Z"/>
  <polygon class="cls-19" points="44.23 68 43.04 68 43.92 67.41 44.23 68"/>
  <path class="cls-19" d="M44.82,70.39l-.6-.6c.05.15.49.35.6.6Z"/>
  <path class="cls-19" d="M46.02,70.39c.08-.02.3-.47.6-.6l-.6.6Z"/>
  <path class="cls-19" d="M37.67,74.56l.6-.6-.6.6Z"/>
  <path class="cls-19" d="M37.08,84.1c.17-.17.56-.48.6-.6l-.6.6Z"/>
  <path class="cls-20" d="M38.27,93.04h.6l-.3.59c-.21-.14-.18-.51-.29-.59Z"/>
  <polygon class="cls-19" points="34.69 68.6 34.09 68.6 34.39 68.01 34.69 68.6"/>
  <path class="cls-1" d="M77.61,130c1.38-3.65,3.29-4.17,2.98,0-.14,1.94-3.61,9.8-5.66,10.14-2.68.45,1.3-5.39,1.59-6.16.52-1.33.62-2.77,1.08-3.99Z"/>
  <path class="cls-20" d="M72.84,189.62c-.42.14-1.26-.1-1.79,0l.31-.6,1.47.6Z"/>
  <path class="cls-20" d="M71.65,197.96c-.15-.17-.53-.3-.6-.6l.6.6Z"/>
  <path class="cls-14" d="M139.95,32.88c2.63-.81,2.75,3.78.47,4.68l-2-2.03c-.02-.74.81-2.42,1.53-2.64Z"/>
  <path class="cls-14" d="M149.73,113.9c-.57-3.78,3.8-5.27,2.72-.55l-2.72.55Z"/>
  <path class="cls-4" d="M71.64,64.43c.27,1.54-.26,1.06-1.19,1.45-1.79.75-3.52,1.08-5.36.32-1.67-1.81,5.75-2.08,6.55-1.78Z"/>
</svg>