<?xml version="1.0" encoding="UTF-8"?>
<svg id="_레이어_1" data-name=" 레이어 1" xmlns="http://www.w3.org/2000/svg" viewBox="0 0 203.95 234.73">
  <defs>
    <style>
      .cls-1 {
        fill: #251e29;
      }

      .cls-2 {
        fill: #42443e;
      }

      .cls-3 {
        fill: #8a9ca7;
      }

      .cls-4 {
        fill: #554e41;
      }

      .cls-5 {
        fill: #fcfcfb;
      }

      .cls-6 {
        fill: #27221f;
      }

      .cls-7 {
        fill: #e5e3d7;
      }

      .cls-8 {
        fill: #bdc6c9;
      }

      .cls-9 {
        fill: #642942;
      }

      .cls-10 {
        fill: #d3d8da;
      }

      .cls-11 {
        fill: #582039;
      }

      .cls-12 {
        fill: #ebebea;
      }

      .cls-13 {
        fill: #702b47;
      }

      .cls-14 {
        fill: #9b8164;
      }

      .cls-15 {
        fill: #63864c;
      }

      .cls-16 {
        fill: #81a458;
      }

      .cls-17 {
        fill: #342d31;
      }

      .cls-18 {
        fill: #2c2e32;
      }
    </style>
  </defs>
  <path class="cls-16" d="M95.95,194.05c.19,1.2,1.42,3.1,1.11,4.36-.21.86-3.15,2.43-4.21,4.16-8.44,13.71,16.17,12.4,23.6,11.08,12.85-2.29,7.98-10.22,12.89-19.01,5.77.41,11.65.49,17.29,1.79.5,1.21,3.49,5.23,3.41,6.27-.03.32-2.9,3.59-3.44,5.32-4.76,15.2,24.05,10.99,31.23,6.2,4.11-2.74,3.64-8.15,3.97-12.42,7.69.59,14.49,4.41,20.86,8.35.19.21.42.4.6.6,2.36,5.95-1.73,8.3-6.43,10.56-11.03,5.29-23.46,6.58-35.29,9.12-.4.02-.8-.02-1.19,0-13.4.54-27.34,3.04-40.53,3.58-.59.02-1.19-.02-1.79,0-10.42.37-22.37.41-32.78,0-.59-.02-1.19.03-1.79,0-12.54-.57-26-2.39-38.74-3.58-.39-.04-.8.04-1.19,0-8.77-2-17.86-2.74-26.49-5.4-2.92-.9-7.99-2.83-10.68-4.22-17.37-8.97,5.42-16.55,13.92-18.4.36-.08.86.09,1.19,0,3.19,2.41,11.23,5.08,15.13,4.74,4.88-.42,10.82-6.7,14.08-10.11l1.19-.6c14.69-1.01,29.35-2.57,44.11-2.38h-.03ZM62.57,220.88c-10.84,2.23-3.92,6.07,3.28,6.01s13.02-4.14,2.69-6.01c.82-2.04,1.69-4.62,2.73-6.51.63-1.14,2.07-1.8,2.76-3.2,5.04-10.25-9.89-20.64-16.73-8.98-4.15,7.08,2.59,11.07,5,16.9.26.64.13,1.41.28,1.79h-.01ZM32.65,212.71c-1.83.09-12.99,1.19-12.39,3.69.66,2.74,14.35,3.48,16.98,3.28,1.65-.13,12.76-1.82,9.26-5.07-2.01-1.86-10.92-2.04-13.84-1.9h0Z"/>
  <path class="cls-6" d="M181.79,200.01c-.05.59.05,1.2,0,1.79-.33,4.28.14,9.68-3.97,12.42-7.18,4.79-35.99,9-31.23-6.2.54-1.73,3.42-5,3.44-5.32.08-1.04-2.91-5.05-3.41-6.27-.41-1.01-1.48-7.01-2.15-7.19-7.71.35-10.96-2.08-15.13,5.4-4.9,8.79-.04,16.71-12.89,19.01-7.42,1.32-32.04,2.63-23.6-11.08,1.07-1.73,4-3.3,4.21-4.16.31-1.26-.92-3.16-1.11-4.36-.55-3.55-.8-7.13-.6-10.73h2.38c-.44,5.54.92,10.44,2.25,15.72-.25,1.3-4.64,3.24-5.5,5.76-.6,1.75-1.02,5.45,1.46,5.34-.05-2.34.81-5.61,3.58-5.96.39,1.73-3,5.76-1.21,6.88l4.79.87c-.18-2.15.25-6.48,3.28-6.56l-.89,6.56c1.69-.09,3.43.14,5.12.02.78-.05,1.32-.61,1.44-.62,3.37-.33,8.41.03,10.74-3.26,3.11-4.38,1.29-15.24,7.73-19.1-1.99-1.05-8.26-.88-8.88-3.13-.22-.78.54-1.27.53-1.34,7.91,2.54,15.53,2.6,23.77,2.46l6.49,15.84c-1.89,3.65-6.77,8.25-1.66,11.52-.05-2.34.81-5.61,3.58-5.96-2.01,6.02-1.82,7.07,4.77,7.75-.33-2.11.56-6.27,2.69-7.15s-.37,2.64-.51,3.07c-.36,1.14-.49,2.29-.4,3.48,2.82.6,4.76-.56,7.16-1.19.58-.15,2.18.19,2.39,0,.17-.15-.15-1.37,0-1.79.26-.74,1.13-1.07,1.19-1.19,2.36.23,4.47,1.63,6.25-.61,2.75-3.47,1.07-15.51,1.57-20.48s2.92-10.18,4.1-14.68c1.4.17,2.37.2,2.98-1.19-2.93,10.31-3.91,14.72-4.77,25.64h.02Z"/>
  <path class="cls-7" d="M83.43,233.99c-2.59.97-6.45.76-9.26.62-8.35-.41-19.37-1.39-27.51-2.92-1.11-.21-2.32.5-1.97-1.28,12.74,1.18,26.21,3.01,38.74,3.58Z"/>
  <path class="cls-12" d="M80.45,160.07c-.14.49-3.69,4.03-4.46,4.75-3.3,3.09-7.05,5.94-10.44,8.96.21-3.7,4.16-5.32,6.52-7.49.66-.61.62-1.69,1.24-2.33.96-.98,5.56-3.7,7.14-3.89Z"/>
  <path class="cls-12" d="M80.45,159.47c.69-5.06-2.07-6.99-3.42-11.21-.3-.94,0-1.97-.16-2.5,3.02,3.87,6.05,7.44,6.31,12.52,0,0-2.73,1.19-2.73,1.19Z"/>
  <path class="cls-2" d="M150.19,38.45c3.38,9.56,4.69,17.53,1.47,27.4-1.06,3.26-4.66,9.92-6.83,12.54-3.06,3.72-12.83,9.06-17.29,13.12-4.69,1.08-8.93,3.55-13.68,4.5-11.67,2.34-21.93-.22-32.22-5.69-2.77-1.47-1.77-2.67-3.57-5.11l-2.98.94c-.88-2.47-.79-4.67,0-7.15l-2.95-.97c2.99-7.74,1.24-15.85,1.88-23.95,4.65-2.79,9.53-5.2,14.63-7.12,19.35-7.3,40.95-10.16,61.54-8.5h0ZM120.81,53.47c-3.91,1.2-2.5,11.11,3.34,9.32,3.91-1.2,2.5-11.11-3.34-9.32ZM90.45,69.9c2.92-2.93.55-10.84-4.64-8.5-2.35,2.78-1.16,7.22,1.62,9.17.82.23,2.43-.08,3.01-.66h0ZM103.54,61.84c-10.81,1.83-13.72,17.75-7.31,25.51,3.31,4.01,8.23,4.02,13.15,3.59,22.34-1.96,14.37-32.51-5.84-29.09h0Z"/>
  <path class="cls-13" d="M137.08,100.45l10.2-6.2c17.16-6.74,23.5,17.82,25.89,30.02,2.18,11.12,4.3,23.01-7.25,29.16-14.88,7.92-33.36,7.52-49.7,8.42-.33-1.42.24-.96.77-1.33,1.89-1.29,4-2.25,5.82-3.71.68-.54,1.01-1.83,1.28-1.98.68-.39,2.07,0,3-.27,6.04-1.76,11.25-4.94,16.54-8.21,2.5,3.14,6.83,6.38,10.73,7.15.64-3.17-2.89-3.62-5.05-5.38-1.66-1.35-2.77-2.77-3.89-4.16,6.28-5.22,13.14-11.4,14.9-19.67.04-.21-.07-.54,0-.6.15-.11,1.03.21,1.21-.29l-.46-1.49-1.35-.3c-.27-1.6,3.01-7.54-1.79-6.02-2.34.74-11.42,11.34-14.28,13.78-5.41,4.62-13.15,9.52-20.27,10.43-.14-.34-3.38-4.8-3.87-5.37-4.08-4.79-9.26-4.57-3.29-10.43,6.92-6.8,17.63-13.69,20.87-23.54h0Z"/>
  <path class="cls-11" d="M137.08,100.45c1.54-4.69,10.79-8.9,15.63-10.3,14.89-4.31,16.95,2.41,22.43,14.26,3.4,7.34,13.41,29.35,13.22,36.25-.16,5.86-2.76,7.91-7.37,10.57-17.59,10.19-51.09,15.69-71.02,13.6-3.3-.35-6.56-1.36-9.84-1.79l4.15-6.31c5.34,1.23,8.68-.4,13.09-2.96.94-.54,1.49-1.73,2.46-2.31,3.52-2.07,8.3-2.06,11.88-3.62,2.8-1.21,6.01-4.04,8.73-5.61,1.17-.18,2.33,3.05,3.19,4.11-5.29,3.27-10.51,6.45-16.54,8.21-.93.27-2.32-.12-3,.27-.27.15-.6,1.44-1.28,1.98-1.82,1.45-3.92,2.42-5.82,3.71-.54.36-1.1-.09-.77,1.33,16.33-.89,34.82-.5,49.7-8.42,11.55-6.15,9.42-18.04,7.25-29.16-2.39-12.2-8.73-36.76-25.89-30.02l-10.2,6.2h0Z"/>
  <path class="cls-2" d="M112.64,176.76l1.19.6,7.07,14.01c-2.2,7.42-1.8,15.11-8.86,19.97-.12,0-.66.57-1.44.62-1.69.12-3.43-.12-5.12-.02l.89-6.56c-3.03.08-3.46,4.41-3.28,6.56l-4.79-.87c-1.79-1.12,1.6-5.15,1.21-6.88-2.76.35-3.63,3.61-3.58,5.96-2.48.11-2.05-3.59-1.46-5.34.86-2.53,5.25-4.46,5.5-5.76-1.33-5.29-2.69-10.18-2.25-15.72.26-3.26,1.02-6.41,2.98-8.94,3.62,1.28,8.23,2.79,11.92,2.38h.02Z"/>
  <path class="cls-13" d="M145.43,27.72c.58,3.02,3.37,5.04,2.98,8.35-24.37-1.76-44.82,1.83-67.16,11.22-2.61,1.1-5.03,3.24-7.94,3.08.42-6.8,1.3-9.41,7.21-12.75,17.18-9.69,45.7-13.89,64.91-9.9h0ZM102.51,35.47c2.97-1.22,1.96-4.89-.9-4.74-.3.02-5.52,1.76-5.71,2-.52.64-1.48,3.81.65,3.34v.6c.2,1.04,3.32,2.57,4.35,2.31.4-.1,4.75-3.66,1.61-3.5h0Z"/>
  <path class="cls-13" d="M97.14,125.49c-.67-2.94-.65-6.11-1.5-8.96-.32-1.06-.11-1.39-1.48-1.17v9.54l-2.97-.9c1.31,2.39,7.41,8.33,5.67,11.06-1.2.92-2.51-.15-4.11,0-2.58.25-6.08,1.66-8.15,3.23-1.42,1.08-4.54,6.03-5.94,5.08-3.06-8.38-1.46-17.11,1.16-25.36.57-1.8,4.33-11.27,5.37-11.94,1.17-.76,5.18,2.17,6.77,2.82,2.84,1.17,5.75,2,8.64,2.98.64.97.13,12.55.1,14.8l-3.58-1.19h.02Z"/>
  <path class="cls-18" d="M183.57,175.57c-1.18,4.5-3.59,9.55-4.1,14.68s1.18,17.02-1.57,20.48c-1.78,2.24-3.89.84-6.25.61,3.99-8.64.46-19.13,1.17-28.34.38-4.83,2.56-9.54,1.81-14.58-8.08,2.13-15.95,6-24.44,5.96.71-.78,1.3-2.02,1.79-2.98,11.91-2.52,23.71-6.55,33.97-13.12.59,6.07-.87,11.52-2.38,17.29h0Z"/>
  <path class="cls-13" d="M172.84,75.41c-1.56-.33-1.21.77-1.62,1.63-.34.71-2.06,4.89-2.33,4.96-5.6.23-11.43.45-16.79,2.18-6.1,1.97-14.28,8.16-19.21,12.38-2.4,2.05-6.62,5.03-7.14,8.06-.45.35-.9.4-1.19.6h-4.77c.08-.34-.05-.81,0-1.19,9.54-11.17,20.41-20.83,34.17-26.93,2.5-1.11,13.02-3.96,13.83-5.24.39-.62.31-1.14.28-1.8l-4.76,1.19c-1.11-5.19,3.72-6.32,7.17-3.3,2.31,2.01,2.69,4.54,2.36,7.48v-.02Z"/>
  <path class="cls-18" d="M150.19,38.45c1.19.1,6.73.94,7.2,1.58.93,2.69,1.85,5.45,3.22,7.97.78,1.44,4.31,5.72,4.44,6.31.33,1.54-2.29,1.18-2.36,1.74.63,2.87,2.51,4.82,1.8,8.04l-2.93-.55-2.57,9.35-14.17,5.5c2.17-2.63,5.77-9.29,6.83-12.54,3.23-9.87,1.92-17.84-1.47-27.4h0Z"/>
  <path class="cls-3" d="M47.67,197.03c-3.05,3.06-7.36,7.38-11.81,7.61-2.77.15-10.08-2.13-12.63-3.44-2.24-1.15-5.12-3.58-5.96-5.96,1.5.3,1.27-.68,1.6-1.65.83-2.43,1.6-7.29,4.67-7.88,1.58-.3,4.39.93,4.46-1.8.44.27,1.05.25,1.8.85,2.26,1.79,9.24,10.56,10.54,10.95,5.15,1.56,8.27-5.89,10.59-5.24,3.27.92-2.21,5.51-3.26,6.55h0ZM34.79,194.4l2.14.55c-3.75-2.71-7.19-7.27-11.91-8.05-.02,1.51,1.97,2.39,3.04,3.21,2.18,1.67,4.65,2.66,6.72,4.29h0ZM35.75,198.81c-3.52-3.54-8.9-6.65-13.71-7.74-.36,1.42.91,1.46,1.86,1.98,3.73,2.07,7.83,4.34,11.85,5.76h0ZM35.15,201.21c-5.44-.33-9.07-5.01-14.3-5.37l4.83,3.21c2.67.9,5.84,2.99,8.61,3.32,1.18.14.9-.16.86-1.16h0Z"/>
  <path class="cls-11" d="M172.84,75.41c-.17,1.47-1.88,4.87-1.73,5.6.66,3.02,2.46-.93,2.9-1.17,2.79-1.53,5.23,7.13,5.33,9.08s-1.83,11.06-4.69,9.12c-1.36-3.84-3.73-7.61-7.18-9.81l2.38-.9c-4.04-3.61-13.35-1.15-18.35.44-9.77,3.1-17.84,10.65-25.76,16.86.52-3.02,4.74-6.01,7.14-8.06,4.94-4.22,13.11-10.41,19.21-12.38,5.36-1.73,11.19-1.95,16.79-2.18.26-.07,1.99-4.25,2.33-4.96.41-.86.06-1.96,1.62-1.63h0Z"/>
  <path class="cls-14" d="M151.98,171.39c-.48.96-1.08,2.2-1.79,2.98-6.35,7.01-19.2,9.03-28.02,6.56-2.93-.82-5.66-2.2-8.34-3.58l-1.19-.6-2.38-2.98c14.63,1.09,27.33.66,41.72-2.38h0Z"/>
  <path class="cls-11" d="M123.37,139.8c7.13-.91,14.86-5.81,20.27-10.43,2.87-2.45,11.94-13.04,14.28-13.78,4.81-1.51,1.52,4.42,1.79,6.02l1.35.3.46,1.49c-.18.51-1.05.18-1.21.29l-1.77-1.21c-.51-.59,1.71-5.57-.31-4.75-7.45,12.46-18.57,26.03-33.69,28.61-.3-1.76-.56-5.04-1.19-6.56l.02.02Z"/>
  <path class="cls-18" d="M127.54,91.51c-4.6,4.18-9.22,9.47-13.11,14.31l-6.56.6c-1.17-.88-3.8-1.44-4.77-3.28,1.04-.8,4.02.06,3.57-2.08-8.46-.65-16.65-3.36-23.45-8.45-.88-.66-1.59-1.01-1.59-2.29,10.29,5.47,20.55,8.04,32.22,5.69,4.74-.95,8.99-3.43,13.68-4.5h0Z"/>
  <path class="cls-11" d="M101.32,169.61c-1.92-.64-2.71-1.4-2.39-3.57,16.87,1.88,34.1,2.1,50.79-1.37,6.62-1.38,15.63-3.73,21.91-6.11,3.56-1.35,12.59-7.15,14.63-7.44,1.61-.23.93,2.21.58,2.98-1.74,3.84-12.56,7.49-16.38,8.96.33-1.75-.87-1.27-2.01-1.13-3.3.42-6.63,2.05-9.79,2.74-19.83,4.37-35.71,4.9-55.87,3.16-1.95-.17-1.5.14-1.47,1.79h0Z"/>
  <path class="cls-2" d="M99.53,142.78c-.42-3.24,6.45-8.58,8.92-7.47.83.38,6.27,7.04,6.48,7.93.52,2.18-1.98,3.91-2.19,5.33-.18,1.2,2.59,1.95,1.43,3.77-1.72,2.68-11.26,3.16-11.66-.92-.29-2.97,4.75-11.24-2.97-8.64h-.01Z"/>
  <path class="cls-2" d="M73.9,38.45c-1.2.57-1.47,4.6-2.67,4.17-1.65-.6-4.43-3.89-5.18-5.55-5.39-11.93,7.79-23.12,18.03-14.37.16,1.03-1.72,3.27-2.42,4.16-.6.76-1.69.76-1.79.87-7.48-6.13-13.98,6.92-5.96,10.73h-.01Z"/>
  <path class="cls-13" d="M101.32,169.61c-.02-1.65-.48-1.95,1.47-1.79,20.16,1.74,36.05,1.21,55.87-3.16,3.16-.7,6.5-2.33,9.79-2.74,1.14-.14,2.33-.62,2.01,1.13-12.29,4.74-23.42,7.25-36.66,8.34-8.25.68-24.81.77-32.48-1.78h0Z"/>
  <path class="cls-13" d="M107.87,109.99c1.98,1.45,4.22,4.66,5.96,1.79.99.12,1.73.66,2.5,1.23,1.37,1.03,1.38,2.87,2.86,2.94.03.53.09,1.33,0,1.79-.22.18-.41.38-.6.6-1.82,2.15-4.79,3.94-6.56,6.25s-1.78,3.13-4.17,5.67c-2.03-.97-1.02-4.18-1.21-6.27-.09-.96-.58-.83-.58-.88-.16-2.28-.18-5.48,0-7.75,1.56-.12,2.97-1.43,2.1-2.98-.21-.37-.82-.46-.91-.6-.23-.35-.37-.95-.6-1.19l1.19-.6h.02Z"/>
  <path class="cls-13" d="M104.89,108.2c-.23.12-.46.57-.6.6-5.37,1.13-16.84-3.82-19.94-8.38-.44-.64-1.83-3.84-1.52-4.14l14.72,5.84c2.73,1.35,5.18,4.48,7.33,6.08h0Z"/>
  <path class="cls-17" d="M149,5.07c4.93,3.26,6.73,9.56,4.64,15.08-.92,2.43-3.24,3.61-4.44,5.83-2.11-.81-5.59-.59-7.36-1.83-1.28-.9-4.32-4.98-5.36-6.56,2.13.84,4.15,1.98,6.16,3.08,2.24,1.22.73,1.87,3.97,1.1.43-.1,1.33.26,1.69-.08.3-.3,2.3-7.38,2.34-8.11.17-2.73-1.35-5.8-1.64-8.5h0Z"/>
  <path class="cls-11" d="M145.43,143.97c-.7-.87-2.81-2.22-2.13-3.56s6.79-6.7,8.39-8.35c1.16-1.2,2.15-3.46,3.31-4.44,1.39-1.16,3.94-1.71,5.32-3.32-1.76,8.27-8.62,14.45-14.9,19.67h0Z"/>
  <path class="cls-2" d="M97.05,142.28l.69,2.29-2.94.97c.53,2.41,1.67,6.84-2.07,6.77-3.3-.06-1.86-4.08-5.12-3.56l.31,4.15c-.86,1.08-1.76,2.06-3.29,1.81-2.17-7.58,5.09-13.64,12.42-12.42h0Z"/>
  <path class="cls-3" d="M84.63,160.07l1.78,1.49c-1.25.86-2.17,2.08-3.19,3.05-8.67,8.25-18.73,15.87-27.51,24.07-.52.48-.87,1.07-.89,1.8l-1.51-1.2v-1.18c3.69-3.09,7.03-7.14,11.06-9.54,2.18-1.3,4.75-3.32,6.87-5.34,1.38-1.32,3.39-2.89,3.86-4.8.36-.23.86-.35,1.19-.6.03-.02.31.47.59.27,2.68-1.99,6.32-4.94,7.76-8.02h-.01Z"/>
  <path class="cls-14" d="M79.86,27.72c-1.78,1.95-3.79,8.51-5.96,10.73-8.02-3.81-1.52-16.86,5.96-10.73Z"/>
  <path class="cls-9" d="M167.19,19.37l5.02,5.58c-1.64,2.65-7.76,6.89-10.68,5.45-3.93-1.94,4.98-8.28,5.66-11.03Z"/>
  <path class="cls-6" d="M50.65,197.03c-3.27,3.41-9.2,9.69-14.08,10.11-3.9.34-11.94-2.34-15.13-4.74.2-.06,1.09-1.23,1.79-1.19,2.55,1.32,9.87,3.59,12.63,3.44,4.45-.24,8.75-4.56,11.81-7.61.93.73,1.95.34,2.98,0h0Z"/>
  <path class="cls-18" d="M197.28,158.88c.1,6.19-3.6,9.32-9.53,10.13.95-3.47.23-7.11.57-10.48.08-.79.59-1.27.62-1.44,2.55,3.97,4.48,2.91,8.34,1.79Z"/>
  <path class="cls-9" d="M111.24,130.95c1.45-.28,6.93,5.49,7.86,6.86,1.02,1.5,4.8,9.49,2.18,10.33-2.18.7-2.2-2.78-2.94-4.2-.96-1.84-2.74-4.44-4.01-6.13-1.52-2.04-6.73-5.09-3.09-6.86Z"/>
  <path class="cls-9" d="M173.44,36.66l-.6,6.56c-2.18.82-10.89-2.83-11.22-4.55l1.1-3.8s10.72,1.79,10.72,1.79Z"/>
  <path class="cls-2" d="M197.28,158.88c-3.86,1.12-5.8,2.18-8.34-1.79.39-2.5,1.67-4.46.6-6.55,5.56.46,7.66,2.82,7.75,8.34h-.01Z"/>
  <path class="cls-10" d="M28,183.91c-.06,2.73-2.87,1.5-4.46,1.8-3.07.59-3.84,5.45-4.67,7.88-.33.97-.1,1.95-1.6,1.65-2.09-5.93,1.79-15.72,9.41-12.66.78.31,1.04,1.16,1.32,1.34h0Z"/>
  <path class="cls-11" d="M145.43,27.72c4.08.85,5.68.95,8.25,4.57.56.79,3.04,4.21.98,4.39-1.51.14-4.38-.48-6.25-.62.39-3.31-2.4-5.32-2.98-8.35h0Z"/>
  <path class="cls-2" d="M101.23,154.2c1.05,6.1-4.89,8.41-10.04,7.66l7.16-8.08,2.89.43h0Z"/>
  <path class="cls-9" d="M97.14,138.62c.14,1.56.07.98-.9,1.16-3.38.62-5.73.46-8.83,2.5l-5.16,5.26c-1-7.03,9.3-12.12,14.89-8.93h0Z"/>
  <path class="cls-11" d="M107.87,130.26c-.21.22-.13,1.18-1.2,2.07-.54.45-5.26,2.77-5.62,2.69-1.91-2.94-3.14-6.14-3.91-9.52l3.58,1.19c-.02,1.91-1.73,5.46,1.62,5.86,5.38.63,1.88-6.61,3.74-9.43,0,.05.49-.07.58.88.19,2.09-.83,5.3,1.21,6.27h0Z"/>
  <path class="cls-11" d="M132.91,102.84c.42.36-3.66,5.62-4.19,6.24s-4.24,5.07-4.75,4.49c-1.32-4.98,3.31-7.74,7.08-10.05.35-.22.41-1.18,1.86-.67h0Z"/>
  <path class="cls-11" d="M119.79,105.22c-1.27,5.43-.87,5.38-.6,10.73-1.49-.07-1.49-1.91-2.86-2.94-.77-.58-1.51-1.11-2.5-1.23,2.39-3.94,3.18-4.5,5.96-7.75-.05.38.08.85,0,1.19Z"/>
  <path class="cls-18" d="M110.26,173.78l2.38,2.98c-3.69.4-8.3-1.11-11.92-2.38.09-.11-.16-.75.14-1.03,1.33-1.14,7.24.27,9.4.44h0Z"/>
  <path class="cls-2" d="M94.16,154.71l-5.19,5.3-1.36-.21-1.17-1.29c1.51-3.37,4.17-4.37,7.71-3.79h.01Z"/>
  <path class="cls-10" d="M104.3,110.59v9.24c0,.19-.55,1.01-.62,1.77-.15,1.67.14,3.42.02,5.09h-1.19v-11.62c0-.8,1.23-3.04.6-4.47h1.19Z"/>
  <path class="cls-4" d="M114.43,105.82c-.45.56-1.91,4.07-2.67,4.14-1.81-.44-2.86-2.77-3.88-3.54l6.56-.6h-.01Z"/>
  <path class="cls-11" d="M159.73,36.66c-1.63.32-1.02-.41-1.44-1.2s-2.65-4.84-2.13-5.35c3.85.01,3.84,3.55,3.57,6.55Z"/>
  <path class="cls-8" d="M120.99,116.54c.69-2.99-2.27-7.39.59-9.54l1.16,8.1-1.75,1.43h0Z"/>
  <path class="cls-8" d="M76.28,167.82l8.34-7.75c-1.44,3.07-5.07,6.03-7.76,8.02-.27.2-.56-.29-.59-.27h0Z"/>
  <path class="cls-2" d="M100.72,145.76c.35,2.37-.2,5-2.97,5.36-.35-2.37.2-5,2.97-5.36Z"/>
  <path class="cls-8" d="M75.09,168.41c-.47,1.91-2.48,3.48-3.86,4.8-2.12,2.02-4.68,4.04-6.87,5.34l10.73-10.13h0Z"/>
  <path class="cls-11" d="M106.09,115.36c.18-2.38,1.38-1.47,1.19-3.58.09.14.71.23.91.6.86,1.55-.54,2.86-2.1,2.98Z"/>
  <path class="cls-11" d="M107.87,109.99l-1.19.6c-.57-.6-1.7-1.21-2.38-1.79.13-.03.37-.48.6-.6.58.43,1.8.93,2.98,1.79h-.01Z"/>
  <path class="cls-8" d="M103.7,128.47v2.38c-2.37,0-2.34-2.38,0-2.38Z"/>
  <path class="cls-11" d="M124.56,105.22c-.61.4-1.69,2.83-1.79,0h1.79Z"/>
  <path class="cls-11" d="M118.6,118.34c.18-.22.37-.42.6-.6-.04.19-.42.42-.6.6Z"/>
  <path class="cls-11" d="M133.21,101.64c.39.2.39.4,0,.6v-.6Z"/>
  <path class="cls-2" d="M149,5.07c.29,2.69,1.81,5.77,1.64,8.5-.04.73-2.04,7.82-2.34,8.11-.35.34-1.26-.02-1.69.08,5.28-9.71-7.34-17.73-11.71-6.26.22.89,1.14,1.43,1.58,2.09,1.04,1.57,4.08,5.66,5.36,6.56-21.62-2.28-44.07,1.36-63.17,11.63,2.3-4.67,8.87-13.11,13.74-14.92,1.33-.49,4.34,1.16,4.72-.59.41-1.84-5.8-1.75-3.91-4.5s9.41.68,9.87-1.47l-2.97-3.58.98-1.41c3.23-1,8.12,2.83,10.77,3.38,4.7.96,9.97-.69,15.08,1.02,1.22.41,1.73,1.69,2.97,1.5.41-10.34,10.22-15.99,19.08-10.13h0Z"/>
  <path class="cls-18" d="M68.53,220.88c-.73,1.83-.41,4.57-2.67,4.73-2.6.19-2.52-2.81-3.29-4.73-.15-.38,0-1.14-.28-1.79-2.4-5.83-9.15-9.82-5-16.9,6.84-11.66,21.77-1.27,16.73,8.98-.69,1.4-2.13,2.06-2.76,3.2-1.04,1.89-1.92,4.47-2.73,6.51ZM59.59,210.15c.83,2.15.81.76,1.19,1.19.69.77-.08,1.9,2.72,2.34,6.38,1.01,11.1-4.07,8.01-10.09-3.69-7.21-15.79-3.41-11.92,6.56ZM67.34,216.71h-3.57c.86,1.67,1.35,3.46,1.19,5.36,1.88.31.9-.59,1.18-1.48.41-1.29.84-2.59,1.2-3.89h0Z"/>
  <path class="cls-15" d="M32.65,212.71c2.92-.14,11.84.04,13.84,1.9,3.5,3.24-7.6,4.94-9.26,5.07-2.62.21-16.32-.53-16.98-3.28-.6-2.5,10.57-3.6,12.39-3.69h0Z"/>
  <path class="cls-15" d="M62.57,220.88c.77,1.93.69,4.92,3.29,4.73,2.26-.16,1.94-2.9,2.67-4.73,10.34,1.87,4.61,5.96-2.69,6.01s-14.12-3.79-3.28-6.01h.01Z"/>
  <path class="cls-2" d="M150.19,174.38c8.48.04,16.36-3.83,24.44-5.96.75,5.04-1.43,9.75-1.81,14.58-.71,9.2,2.82,19.7-1.17,28.34-.06.13-.93.46-1.19,1.19-1.16.11-1.93.74-2.38,1.79-2.39.64-4.33,1.79-7.16,1.19-.09-1.19.04-2.34.4-3.48.13-.43,2.54-3.91.51-3.07-2.13.88-3.03,5.03-2.69,7.15-6.59-.68-6.78-1.73-4.77-7.75-2.77.35-3.63,3.62-3.58,5.96-5.1-3.26-.23-7.87,1.66-11.52l-6.49-15.84c-8.25.14-15.87.08-23.77-2.46-.06-1.23-1.19-1.85-1.22-2.63l1.22-.94c8.81,2.47,21.66.45,28.02-6.56h-.02Z"/>
  <path class="cls-18" d="M122.18,180.93l-1.22.94c.04.79,1.17,1.4,1.22,2.63,0,.07-.75.56-.53,1.34.62,2.25,6.88,2.08,8.88,3.13-6.44,3.86-4.62,14.72-7.73,19.1-2.33,3.29-7.38,2.93-10.74,3.26,7.06-4.86,6.67-12.55,8.86-19.97l-7.07-14.01c2.69,1.38,5.41,2.75,8.34,3.58h-.01Z"/>
  <path class="cls-18" d="M170.46,212.53c-.15.42.17,1.64,0,1.79-.21.19-1.81-.16-2.39,0,.45-1.05,1.23-1.68,2.38-1.79h0Z"/>
  <path class="cls-14" d="M103.54,61.84c20.21-3.42,28.18,27.14,5.84,29.09-4.91.43-9.83.42-13.15-3.59-6.42-7.75-3.5-23.68,7.31-25.51h0ZM106.27,78.2c-4.45-3.23,2.93-6.22,2.76-9.68-.21-4.2-15.21-2-12.78,3.29,1.54,3.34,6.53,1.99,6.85,5.74.22,2.54-1.65,4.06-4.17,3.81v1.78c3.22,1.48,5.03-2.59,6.33-2.84.66-.12,2.34.51,3.49.5,4.94-.03,6.69-2.34,6.87-7.2-2.77-.53-1.98,1.81-2.95,3.31-1.28,1.98-4.49,2.66-6.4,1.27v.02Z"/>
  <path class="cls-1" d="M120.81,53.47c5.84-1.8,7.25,8.12,3.34,9.32-5.84,1.8-7.25-8.12-3.34-9.32Z"/>
  <path class="cls-1" d="M90.45,69.9c-.58.59-2.2.89-3.01.66-2.78-1.95-3.97-6.38-1.62-9.17,5.19-2.33,7.56,5.57,4.64,8.5h0Z"/>
  <path class="cls-14" d="M146.62,21.76c-3.24.77-1.73.12-3.97-1.1-2.01-1.09-4.03-2.24-6.16-3.08-.44-.66-1.36-1.2-1.58-2.09,4.37-11.46,16.99-3.45,11.71,6.26h0Z"/>
  <path class="cls-10" d="M102.51,35.47c-.08.03-1.7.02-1.79,0-2.03-.42-1.43-1.44-2.97-2.38-.09,1.39.69,3.33-1.2,2.98-2.14.47-1.17-2.69-.65-3.34.19-.24,5.41-1.98,5.71-2,2.86-.15,3.87,3.52.9,4.74Z"/>
  <path class="cls-8" d="M102.51,35.47c3.14-.17-1.21,3.4-1.61,3.5-1.02.26-4.14-1.27-4.35-2.31.77.18,2.49-.82,2.9-.54.31.21.34,1.75,1.27,1.73v-2.38c.09.02,1.71.03,1.79,0Z"/>
  <path class="cls-4" d="M100.72,35.47v2.38c-.94.02-.96-1.52-1.28-1.73-.41-.28-2.13.72-2.9.54v-.6c1.89.34,1.11-1.59,1.2-2.98,1.54.94.94,1.96,2.97,2.38h.01Z"/>
  <path class="cls-1" d="M166.88,15.8c1.81.93,8.35,7.77,8.24,9.14-.09,1.14-2.27,3.18-3.19,3.96l-6.84,4.18c2.5,1.03,9.42-.2,10.79,1.45,1.21,1.46-.73,4.99-1.11,6.76-.24,1.11-.04,2.11-.14,3.12-.04.38.1.95,0,1.19-5.84.93-9.72-1.84-14.3-4.77-.15,4.85,8.57,11.92,6.75,15.97-.34.76-1.43.69-1.42,1.04,0,.48.98,2.54,1.23,3.85.12.62-.25,1.97.06,2.32,5.07.81,7.51,3.43,8.74,8.25.32,1.26-.05,2.62.28,3.89.98,3.75,5.66,5.24,5.86,12.66.14,5.38-2.01,8.57-5.31,12.41l12.85,30.09c1.69,5.6,2.3,11.41-.43,16.82,15.9-.53,13.67,24.14-1.76,22.68-.02,1.22-.29,2.39-.62,3.55-.61,1.39-1.58,1.36-2.98,1.19,1.51-5.77,2.96-11.22,2.38-17.29-10.26,6.57-22.06,10.59-33.97,13.12-14.39,3.05-27.1,3.48-41.72,2.38-2.16-.16-8.07-1.57-9.4-.44-.3.28-.05.92-.14,1.03-1.96,2.53-2.72,5.68-2.98,8.94h-2.38c.22-3.99,2.44-9,2.41-11.64-.02-1.93-2.09-4.34-1.22-6.85-3.29.71-5.51-1.39-8.57-1.73l-36.14,33.33-1.19.6c-1.03.34-2.05.73-2.98,0,1.05-1.05,6.53-5.63,3.26-6.55-2.32-.65-5.44,6.79-10.59,5.24-1.29-.39-8.28-9.16-10.54-10.95-.76-.6-1.37-.58-1.8-.85-.28-.17-.54-1.03-1.32-1.34-7.62-3.06-11.5,6.73-9.41,12.66.84,2.38,3.72,4.81,5.96,5.96-.7-.04-1.59,1.14-1.79,1.19-.33.09-.83-.08-1.19,0-.64-1.5-4.13-3.31-4.77-4.17-3.03-4.06-.69-13.58,2.98-16.99,8.39-7.78,17.74,8.09,23.53,12.21.99-.04,1.65-.66,2.4-1.19,6.75-4.82,14.78-12.78,21.16-18.48,3.39-3.03,7.14-5.87,10.44-8.96.77-.72,4.32-4.26,4.46-4.75.05-.17-.03-.39,0-.6l2.73-1.19c-.26-5.08-3.28-8.65-6.31-12.52-4.04-13.58-2.17-24.38,3.65-37.19.59-1.31,2.9-3.93,2.9-4.84,0-1.04-2.31-3.22-2.72-5.03s.1-3.94-.56-5.4c-.1-.21-2.75-3.48-2.94-3.62-1.33-.97-3.36-.41-4.44-2.11-1-1.56-.4-3.41-.92-5.05-.4-1.25-1.84-1.83-2.11-3.26-.63-3.23,1.51-6.22,1.8-9.5.69-7.72-2.17-16.54-.59-24.37-8.4-4.12-11.74-14.34-6.25-22.42,2.6-3.83,8.89-7.31,13.53-6.46,2.58.47,8,4.78,8.94,4.55,4.8-1.17,1.95-4.84,3.38-6.82,1.26-1.74,5.17-2.33,7.19-2.04-2.22-6.69,4.13-6.62,8.93-5.05,1.76.58,4.48,2.7,5.91,2.94,1.65.28,5.24-.42,7.51-.26,1.39.09,7.48,1.51,8,1.14,5.55-20.37,34.79-9.49,28.11,9.92-.68,1.96-2.04,3.17-2.9,4.86-.36.73-1.1.97-.14,1.68.72.4,1.89.41,2.72.32,3.32-.35,8.69-9.17,11.01-11.97v.06ZM149,5.07c-8.86-5.85-18.67-.2-19.08,10.13-1.23.19-1.75-1.09-2.97-1.5-5.11-1.71-10.38-.05-15.08-1.02-2.65-.54-7.54-4.38-10.77-3.38l-.98,1.41,2.97,3.58c-.45,2.15-8.04-1.18-9.87,1.47-1.83,2.65,4.31,2.66,3.91,4.5s-3.4.1-4.72.59c-4.87,1.81-11.43,10.25-13.74,14.92,19.1-10.28,41.55-13.91,63.17-11.63,1.77,1.24,5.26,1.02,7.36,1.83,1.19-2.22,3.52-3.4,4.44-5.83,2.09-5.52.29-11.82-4.64-15.08h0ZM79.86,27.72c.1-.11,1.19-.1,1.79-.87.7-.88,2.59-3.13,2.42-4.16-10.24-8.75-23.41,2.44-18.03,14.37.75,1.66,3.53,4.95,5.18,5.55,1.2.44,1.47-3.59,2.67-4.17,2.17-2.22,4.18-8.78,5.96-10.73h.01ZM167.19,19.37c-.69,2.75-9.59,9.09-5.66,11.03,2.92,1.44,9.04-2.8,10.68-5.45l-5.02-5.58h0ZM145.43,27.72c-19.2-3.99-47.72.21-64.91,9.9-5.91,3.34-6.79,5.95-7.21,12.75,2.91.16,5.33-1.98,7.94-3.08,22.34-9.39,42.79-12.98,67.16-11.22,1.87.13,4.74.75,6.25.62,2.06-.18-.42-3.61-.98-4.39-2.57-3.62-4.17-3.72-8.25-4.57h0ZM159.73,36.66c.27-3,.28-6.54-3.57-6.55-.52.51,1.7,4.54,2.13,5.35s-.19,1.53,1.44,1.2ZM173.44,36.66l-10.72-1.79-1.1,3.8c.33,1.72,9.03,5.37,11.22,4.55,0,0,.6-6.56.6-6.56ZM150.19,38.45c-20.59-1.66-42.19,1.2-61.54,8.5-5.1,1.92-9.98,4.33-14.63,7.12-.64,8.1,1.11,16.22-1.88,23.95l2.95.97c-.79,2.48-.87,4.68,0,7.15l2.98-.94c1.8,2.44.8,3.64,3.57,5.11,0,1.28.71,1.63,1.59,2.29,6.8,5.08,14.99,7.8,23.45,8.45.44,2.14-2.53,1.28-3.57,2.08.97,1.85,3.6,2.41,4.77,3.28,1.02.77,2.07,3.1,3.88,3.54.76-.07,2.22-3.58,2.67-4.14,3.9-4.84,8.52-10.13,13.11-14.31s14.22-9.4,17.29-13.12l14.17-5.5,2.57-9.35,2.93.55c.71-3.21-1.17-5.16-1.8-8.04.07-.56,2.69-.2,2.36-1.74-.12-.59-3.65-4.87-4.44-6.31-1.37-2.51-2.29-5.27-3.22-7.97-.47-.64-6.02-1.49-7.2-1.58h0ZM172.84,75.41c.33-2.93-.05-5.46-2.36-7.48-3.46-3.01-8.28-1.89-7.17,3.3l4.76-1.19c.04.67.11,1.19-.28,1.8-.82,1.29-11.33,4.13-13.83,5.24-13.76,6.1-24.63,15.77-34.17,26.93-2.78,3.25-3.57,3.81-5.96,7.75-1.74,2.87-3.98-.34-5.96-1.79-1.18-.86-2.41-1.36-2.98-1.79-2.16-1.6-4.6-4.73-7.33-6.08l-14.72-5.84c-.32.3,1.08,3.5,1.52,4.14,3.1,4.56,14.57,9.5,19.94,8.38.68.58,1.82,1.19,2.38,1.79.23.24.37.84.6,1.19.19,2.11-1.01,1.2-1.19,3.58s-.16,5.47,0,7.75c-1.86,2.83,1.64,10.06-3.74,9.43-3.36-.39-1.64-3.94-1.62-5.86.02-2.25.53-13.83-.1-14.8-2.89-.98-5.8-1.81-8.64-2.98-1.59-.65-5.6-3.58-6.77-2.82-1.04.67-4.8,10.13-5.37,11.94-2.62,8.24-4.22,16.98-1.16,25.36,1.4.95,4.52-3.99,5.94-5.08,2.06-1.58,5.56-2.98,8.15-3.23,1.6-.16,2.91.91,4.11,0,1.73-2.73-4.36-8.66-5.67-11.06l2.97.9v-9.54c1.37-.22,1.17.11,1.48,1.17.85,2.85.82,6.02,1.5,8.96.78,3.38,2,6.58,3.91,9.52.36.08,5.08-2.24,5.62-2.69,1.07-.89.99-1.84,1.2-2.07,2.39-2.54,2.43-3.41,4.17-5.67s4.74-4.1,6.56-6.25c.17-.18.56-.41.6-.6.09-.46.03-1.26,0-1.79-.27-5.35-.67-5.3.6-10.73h2.98c.1,2.83,1.18.4,1.79,0,.3-.19.75-.25,1.19-.6,7.92-6.21,15.99-13.76,25.76-16.86,5-1.59,14.3-4.04,18.35-.44l-2.38.9c3.45,2.21,5.82,5.97,7.18,9.81,2.87,1.94,4.8-7.11,4.69-9.12s-2.54-10.61-5.33-9.08c-.44.24-2.24,4.19-2.9,1.17-.16-.73,1.56-4.13,1.73-5.6l-.05.03ZM137.08,100.45c-3.24,9.85-13.95,16.74-20.87,23.54-5.97,5.86-.79,5.64,3.29,10.43.48.57,3.73,5.03,3.87,5.37.63,1.52.9,4.8,1.19,6.56,15.11-2.58,26.23-16.15,33.69-28.61,2.02-.82-.21,4.16.31,4.75l1.77,1.21c-.07.05.04.39,0,.6-1.38,1.61-3.93,2.16-5.32,3.32-1.16.98-2.15,3.24-3.31,4.44-1.61,1.66-7.72,7.03-8.39,8.35s1.43,2.7,2.13,3.56c1.12,1.39,2.23,2.81,3.89,4.16,2.16,1.75,5.69,2.21,5.05,5.38-3.89-.77-8.23-4.02-10.73-7.15-.85-1.07-2.02-4.29-3.19-4.11-2.73,1.57-5.94,4.39-8.73,5.61-3.58,1.55-8.36,1.55-11.88,3.62-.97.57-1.53,1.76-2.46,2.31-4.42,2.56-7.75,4.2-13.09,2.96l-4.15,6.31c3.29.43,6.54,1.44,9.84,1.79,19.93,2.09,53.44-3.41,71.02-13.6,4.6-2.67,7.2-4.72,7.37-10.57.19-6.9-9.82-28.91-13.22-36.25-5.49-11.85-7.55-18.57-22.43-14.26-4.84,1.4-14.08,5.61-15.63,10.3l-.02-.02ZM133.21,101.64v.6c.39-.2.39-.4,0-.6ZM132.91,102.84c-1.45-.51-1.5.46-1.86.67-3.77,2.31-8.4,5.07-7.08,10.05.51.59,4.22-3.86,4.75-4.49s4.6-5.87,4.19-6.24h0ZM120.99,116.54l1.75-1.43-1.16-8.1c-2.86,2.14.1,6.55-.59,9.54h0ZM104.3,110.59h-1.19c.63,1.44-.6,3.67-.6,4.47v11.63h1.19c.12-1.67-.17-3.42-.02-5.09.07-.76.62-1.57.62-1.77,0,0,0-9.24,0-9.24ZM103.7,128.47c-2.34,0-2.37,2.37,0,2.38v-2.38ZM111.24,130.95c-3.64,1.78,1.57,4.83,3.09,6.86,1.27,1.69,3.05,4.29,4.01,6.13.74,1.42.76,4.9,2.94,4.2,2.63-.84-1.16-8.83-2.18-10.33-.93-1.37-6.41-7.14-7.86-6.86ZM99.53,142.78c7.72-2.6,2.68,5.67,2.97,8.64.4,4.08,9.94,3.6,11.66.92,1.16-1.82-1.61-2.56-1.43-3.77.21-1.42,2.71-3.15,2.19-5.33-.21-.89-5.65-7.55-6.48-7.93-2.46-1.11-9.34,4.23-8.92,7.47h.01ZM97.14,138.62c-5.59-3.19-15.89,1.9-14.89,8.93l5.16-5.26c3.1-2.04,5.45-1.88,8.83-2.5.97-.18,1.04.4.9-1.16h0ZM97.05,142.28c-7.32-1.22-14.59,4.84-12.42,12.42,1.53.26,2.43-.72,3.29-1.81l-.31-4.15c3.26-.52,1.82,3.5,5.12,3.56,3.75.07,2.6-4.36,2.07-6.77l2.94-.97-.69-2.29h0ZM100.72,145.76c-2.78.36-3.33,2.99-2.97,5.36,2.78-.36,3.33-2.99,2.97-5.36ZM188.94,157.09c-.03.18-.54.65-.62,1.44-.34,3.36.38,7.01-.57,10.48,5.93-.81,9.63-3.94,9.53-10.13-.09-5.52-2.19-7.88-7.75-8.34,1.08,2.09-.2,4.05-.6,6.55h.01ZM170.46,163.05c3.81-1.47,14.64-5.12,16.38-8.96.35-.77,1.03-3.2-.58-2.98-2.03.29-11.07,6.09-14.63,7.44-6.28,2.38-15.29,4.73-21.91,6.11-16.68,3.48-33.91,3.25-50.79,1.37-.32,2.17.46,2.93,2.39,3.57,7.67,2.56,24.23,2.46,32.48,1.78,13.25-1.09,24.37-3.61,36.66-8.34h0ZM101.23,154.2l-2.89-.43-7.16,8.08c5.15.75,11.09-1.55,10.04-7.66h.01ZM94.16,154.71c-3.55-.58-6.2.43-7.71,3.79l1.17,1.29,1.36.21,5.19-5.3h-.01ZM76.28,167.82c-.33.25-.83.37-1.19.6l-10.73,10.13c-4.04,2.4-7.37,6.45-11.06,9.54v1.18l1.51,1.2c0-.73.37-1.32.89-1.8,8.78-8.2,18.84-15.81,27.51-24.07,1.02-.97,1.94-2.19,3.19-3.05l-1.78-1.49-8.34,7.75h0Z"/>
  <path class="cls-14" d="M35.75,198.81c-4.02-1.41-8.11-3.69-11.85-5.76-.95-.52-2.22-.56-1.86-1.98,4.8,1.1,10.18,4.2,13.71,7.74h0Z"/>
  <path class="cls-14" d="M35.15,201.21c.04,1,.31,1.3-.86,1.16-2.77-.33-5.94-2.42-8.61-3.32l-4.83-3.21c5.23.36,8.86,5.03,14.3,5.37h0Z"/>
  <path class="cls-14" d="M34.79,194.4c-2.08-1.63-4.55-2.62-6.72-4.29-1.07-.82-3.06-1.7-3.04-3.21,4.71.78,8.16,5.34,11.91,8.05l-2.14-.55h-.01Z"/>
  <path class="cls-5" d="M71.51,203.59l-2.39,6.25-8.34,1.5v-1.18h-1.19c-3.87-9.98,8.23-13.78,11.92-6.57h0Z"/>
  <path class="cls-8" d="M60.78,211.34c-.38-.43-.36.96-1.19-1.19h1.18v1.19s8.35-1.5,8.35-1.5l2.39-6.25c3.09,6.03-1.63,11.11-8.01,10.09-2.8-.44-2.03-1.57-2.72-2.34Z"/>
  <path class="cls-3" d="M67.34,216.71c-.36,1.3-.79,2.59-1.2,3.89-.28.89.7,1.79-1.18,1.48.16-1.91-.34-3.69-1.19-5.36h3.57Z"/>
  <path class="cls-6" d="M106.27,78.2c1.91,1.39,5.13.71,6.4-1.27.97-1.49.18-3.84,2.95-3.31-.18,4.86-1.93,7.17-6.87,7.2-1.15,0-2.83-.63-3.49-.5-1.3.25-3.11,4.32-6.33,2.84v-1.78c2.52.25,4.39-1.27,4.17-3.81-.32-3.75-5.32-2.4-6.85-5.74-2.43-5.29,12.57-7.49,12.78-3.29.17,3.45-7.21,6.44-2.76,9.68v-.02Z"/>
</svg>