<?xml version="1.0" encoding="UTF-8"?>
<svg id="_레이어_1" data-name=" 레이어 1" xmlns="http://www.w3.org/2000/svg" viewBox="0 0 181.4 186.07">
  <defs>
    <style>
      .cls-1 {
        fill: #41443e;
      }

      .cls-2 {
        fill: #222328;
      }

      .cls-3 {
        fill: #28272e;
      }

      .cls-4 {
        fill: #1b1b1a;
      }

      .cls-5 {
        fill: #424b4f;
      }

      .cls-6 {
        fill: #5a233c;
      }

      .cls-7 {
        fill: #5c6466;
      }

      .cls-8 {
        fill: #866850;
      }

      .cls-9 {
        fill: #b8b7af;
      }

      .cls-10 {
        fill: #a18667;
      }

      .cls-11 {
        fill: #c3cbce;
      }

      .cls-12 {
        fill: #752a47;
      }

      .cls-13 {
        fill: #323731;
      }

      .cls-14 {
        fill: #e8e6dd;
      }

      .cls-15 {
        fill: #712945;
      }

      .cls-16 {
        fill: #858e90;
      }
    </style>
  </defs>
  <path class="cls-2" d="M110.34,7.01c2.12.66,4.21,1.56,6.3,2.33l.64-.04c.08-.49.31-.91.5-1.36.05-.13-.05-.33,0-.47.92.04,1.43-.45,1.39-1.4.22-.14.36-.15.46-.47.89.18,1.12-.76,1.39-.93.17-.11.7-.36.93-.47,1.34-.59,2.94-.71,4.18-1.4,1.46.05,3.3-.2,4.65,0,.25.04,2.32.76,2.79.93,2.9,1.08,5.71,3.68,6.97,6.51l.46.93c.12.52-.08,1.28,0,1.86l.46.93c-.07.92.05,1.87,0,2.79-.97,3.52-2.17,7.19-6.04,8.38l3.71.92.28.91c-.47.43-1.08.73-1.67.95-.31.11-.97-.12-1.38,0,0,.59-.1,1.29,0,1.85l-1.86.47c-1.42-5.21-3.51-5.16-7.9-6.98-15.66-6.46-34.1-8.07-50.74-4.98-6.12,1.14-13.67,2.42-13.84,10.09,17.34-4.03,35.05-4.37,52.59-1.25,4.25.76,10.3,1.84,14.32,3.11,1.77.56,3.52,2.18,5.58,2.33.02.4.31,1.59.57,1.76,2.6.38,3.48.62,3.62,3.35.22,4.44.64,6.86,2.32,11.16h-.93c.13,1.16-.46,2.92.46,3.72-.14.21-.45.76-.46.93-.08.9.59,1.95.46,2.79-.07.49-1.75,2.27-1.38,2.77,3.38,1.27,3.57,3.57,4.17,6.53.67,3.28.92,2.02,2.03,4.22.83,1.64,1.33,3.42,1.18,5.25-.11,1.4-1.51,4.13-1.28,5.07.13.57,4.78,5.76,5.61,6.97,4.26,6.14,12.72,25.4,10.58,32.43-.12.39-.75.29-.93,2.33-.2,2.22-.53,5.3-.46,7.44-.43-.1-1.68.14-1.86,0-.09-.07.21-.84-.22-.93-3.11,1.77-7.4,1.67-10.93,1.86l-.93-1.86c2.12.02,11.97-.49,12.48-2.65l-.71-2.03c-4.73,1.26-9.56.6-14.29,1.38l.2,2.84c-.39-.09-.96.06-1.39,0-.09-.22-.34-.71-.46-.93v-2.32c-.42-.12-1.08.11-1.39,0-1.01-.36-1.08-1.34-1.75-1.87-2.08-1.66-3.24-1.32-5.69-1.39-2.28-.06-1.84.33-2.79.47-1.2.17-2.42-.21-3.74.21-.92.29-1.94,1.52-2.76,2.12-2.02,1.47-1.84.87-3.25,3.26-1.64,2.77-2.55,5.13-2.79,8.37-.18,2.45-.16,5.55.46,7.91h-1.54l-.31.93h-.46c-13.45-.44-27.38.94-40.89-1.4-1.13-.19-2.39-.69-3.72-.93v-1.86c4.69.1,10.89,2.06,16.01,2.34,7.43.41,18.49.45,25.81-.48.94-.12,1.84-.39,2.79-.47l-.47-3.72c-17.17,1-34.75,1.26-51.37-3.71l-.92.45c-.34.5-.03,1.94.27,2.46s.86.28.91.34-.17.63.33.92c1.29.74,4.39.53,5.71,1.87-.43.06-1.65.88-2.32.93-.92-.17-1.86-.32-2.79-.47-1.25-.19-1.6.06-2.32,0-16.13-1.25-32.75,0-49.04-.48-1.09.09-2.49.91-3,1.88l-1.39-.93c.51-.67,1.39-2.79,2.56-2.79h49.95c-1.61-1.82-.47-4.32-1.02-6.18-.21-.72-1.39-1.41-1.86-2.32-2.5-4.82-2.22-8.55-1.76-13.82-14.17,3.76-26-3.66-30.55-17.11-.22-.66.02-1.53-.11-1.96.29-.47.82-1.39.93-1.86,1.41,1.81,10.41,2.98,11.64,2.12l.44-3.52c-3.4.03-6.44.18-9.76-.46-.16-.77.35-1.04.93-1.4,2.16.37,5.36-.02,7.43-.47.53-.11,1.28.09,1.86,0,.16-.18-.13-2.17,0-2.79l2.32.47c-.19,1.09-.39,2.14-.46,3.26s-.08,2.59,0,3.72c-3.05-.52-1.15,3.68-.22,4.65.45.47.99.35,1.15.46,1.59,1.14,2.9,1.59,4.65,2.33.82.34,1.96,1.22,2.69,1.33.69.11.97-.4,1.02-.4.73-.01,1.66.11,2.32,0v.93c1.15.18,1.83-.15,1.86-1.39.28-.08.64-.32.93-.47,2.01-1.03,1.58-1.65,1.86-1.86.77-.59,1.87-.78,2.8-1.62,3.7-3.34,7.16-11.08,6.96-16.05l1.4-1.14c-1.14-1.67-1.33-3.51-1.86-5.37.88.31.73,1.39,1.26,1.89,1.64,1.53,6.76,5.02,8.84,5.45,1.4.28,4.17-.29,4.99,1.05.61,1.01-.14,2.57,2.11,2.32.39,1.73-1.8.29-2.26,1.68-.08.25-.54,4.11-.55,4.63-.01.66.49,1.06.49,1.12-.02.46.02.93,0,1.4-.09,1.88-.18,5.59-.48,7.2-.57,3.09-5.98,2.87-6.05-.43-.02-.72.39-2.06.49-3.05.34-3.3.8-6.98,1.39-10.23.04-.23.79-.72.45-1.58-.31-.78-1.37-.51-1.72-.87-.26-.27-.13-1.01-.61-1.47-.53-.5-4.73-2.26-5.36-1.7-.42.37-2.21,8.72-3.23,10.74-2.08,4.13-3.42,4-4.88,9.3-.25.89-.29,1.61-.46,2.33-.16.64-.32,1.19-.46,1.86-.38,1.72-.62,2.9-.93,4.65-.43,2.41-1.35,4.97-1.39,7.44-.02,1.11.32,1.82.46,2.79.43,2.84,1.01,5.49,3.55,7.37,2.72,2.01,13.44,3.72,17.18,4.2,11.68,1.5,23.81,1.27,35.48.05-.03-1.39.13-2.84.47-4.18.22-.85.99-3.04,1.39-3.72.13-.23,1.18-.67,1.38-1.16-.23-.62-1.23-.56-1.38-.7-.38-.35-.85-1.29-1.39-1.86-1.72-1.77-3.88-3.84-5.11-6.05-.25-.44-.67-1.7-.93-2.33-.15-.38-.41-.78-.46-.93-.08-.23.08-.67,0-.93l1.86-.47c.09.94.48,1.93,1.39,2.33.04.14-.05.33,0,.47.53,1.57,1.88,4.39,3.72,4.65.38,1.83,2.16,4.21,4.33,3.75.44-.09,2.07-4.62,6.82-5.15,1.9-.21,4.1.15,6.04,0-.67-5.76-3.42-11.52-6.78-16.23-.5-.7-1.56-2.4-2.51-2.37-.08-.91.06-1.87,0-2.79,1.81-.37,2.22,1.53,3.25,2.32.17.13.29.33.46.47,1.17,3.37,3.74,6.17,5.2,9.44.77,1.73,2.45,8.5,2.94,9.15.23.3,4.67,3.17,5.34,3.26,1.09.15,2.54-.02,3.72,0,2.8.06,6.59.09,9.29-.47,6.56-1.35,4.06-6.34,3.25-11.16-.42-2.48-.69-4.08-1.39-6.51-1.92-6.58-5.53-14.04-10.22-19.07-.14-.31-.3-.63-.46-.93-1.61-2.92-4.94-5.04-7.43-6.51-.13-.08.19-1.68-2.33-1.21-2.21.41-6.89,3.08-9.51,4.01-8.57,3.05-17.48,5.04-25.97,8.32-.96.73.21,6.55.5,7.89.17.82-.21,1.73,1.07,1.46v.47c-.02.77.02,1.55,0,2.33,0,.08-.43.35-.45.73-.13,3.71,2.23,4.28-3.27,4.85-.3.03-.63,0-.93,0,.07-.82-.85-1.74-.93-2.33-.16-1.13.1-2.53,0-3.72-.28-3.28-.48-6.62-.93-9.88l-2.32-1.04c.51-.79,1.75-.85,2.31-1.41.61-.61.56-1.9,1.4-2.32,1.03-.52,2.3-.03,3.26-.22-.12,1.38.53.94,1.41.73,5.8-1.37,14.02-4.24,19.85-6.19s11.17-4.19,16.65-6.62l1.08.03c-.47,1.4,3.32,4.29,4.22,3.67.97-2.83.78-8.65-3.25-8.37.19-1.3.46-2.36.47-3.72,0-.45.06-.98,0-1.4-.4-2.91-1.74-3.48-4.37-4.21l-2.13,3.74c.79-.12,1.53-.35,2.32-.46.14,1.41-.68,2.05-1.75,2.67-5.69,3.3-14.56,5.51-20.87,8.41-6.08,2.79-13.21,6.71-18.49,10.79-1.28.99-5.43,5.42-6.55,5.58-2.35.35-3.84-3.33-5.3-4.91-2.62-2.82-6.81-6.94-9.81-9.25-1.28-.98-5.84-3.91-7.17-4.45-.85-.35-.69.4-.69.92-1.12-.1-1.5-1.31-2.34-2.08-.43-.39-1.27-.43-1.55-.67-.67-.59.39-1.7-1.69-1.43.22-1.54-.53-2.58-1.86-3.26.11-.33-.08-.98,0-1.4.44.06,1.29.1,1.39-.47.38.68,2.31,1.61,2.32,3.26,0,.64-1.49,1.66.69,1.39l.23-.46c2.25,1.88,7.15,4.49,9.91,5.67,1.99.85,9.2,2.67,10.06,3.42.43.38.61.5.48,1.14-.38.34-4.76-.7-4.18.69,1.52,1.81,3.49,3.2,5.11,4.89,1.31,1.37,2.42,3.43,4.01,4.62.75.13,4.43-3.97,5.28-4.62,4.08-3.11,9.96-6.59,14.56-8.91,8.11-4.09,19.14-6.15,24.47-13.64,1.66-2.33,1.08-4.76,4.65-3.95l-.47-6.05,1.87-.22c1.45-.94-1.33-4-1.75-5.26-.92-2.81-.26-9.09-2.74-10.75-.59-.4-2.6-1.15-3.43-1.46-17.22-6.37-41.93-8.12-59.95-4.9-2.11.38-8.79,1.68-9.96,3.05-3.72,4.38-.9,13.12-5.82,17.66v-.93h-.93c-.02.62,0,1.24,0,1.86,0,.67-.06,1.34,0,2,.15.5.64.26.93.32l.09,2,.37.33c-.28.94-.39,2.26-.46,3.26-.06-.06-.81.2-.94-.3-.19-.78.31-2.4-.09-2.87-.18-.21-.79-.02-.83-.08-.32-.44-1.93-3.5-1.88-3.91,1.23-.44.95-1.4,1.49-2.29.63-1.04,2.24-2.66,2.51-3.54.68-2.18,1-7,1.6-9.79.18-.85.73-1.48.93-2.33.64-2.66.57-5.42,1.42-8.05-9.06-5.1-6.73-17.29,2.58-20.73,6.24-2.3,12.03-.13,15.27,5.52,1.84-1.12,4.12-1.92,6.28-1.85-1.59-4.91,3.93-5.34,7.43-4.18l.22-2.81c2.48-1.65,4.69-.79,7.07.4,1.97.98,4.19,3.53,5.61,4.15s4.31.94,6.15,1.52l-.03.03ZM134.96,7.47c-2.89-2.32-4.59-2.91-8.63-2.37-.88.12-.6.94-.95.96-.4.02-.9-.44-1.6-.27-.45.11-3.36,2.36-3.71,2.82-.93,1.22-.76,2.24-1.27,3.38-.23.51.09.71-.79.59-1.14-.16-3.98-2.2-5.57-2.82-2.65-1.04-6.58-1.34-8.89-2.26-2.85-1.13-5.94-6.09-9.95-5.15l1.39,4.65c-3.09-.67-6.08-2.18-9.29-.92-.63.88,3.04,2.57,3.25,3.49-.36,2.14-2.11.39-3.54.24-2.4-.24-8.64,2.61-10.87,3.93-1.66.98-2.65,2.06-4.17,3.04-.12.88.83.24,1.31.15,17.54-3.12,34.56-3.11,51.65,2.63.21.07.54.32.93.47.14.05.33-.05.46,0,2.46.93,5.49,2.71,7.78,4.11,6.82-1.83,8.86-10.42,4.04-15.71-.8-.88-1.34-.74-1.6-.95h.02ZM71.31,12.59c.29-.21,4.49-1.03,4.17-2.52-3.44-3.89-7.75-5.72-12.86-3.62-3.28,1.35-6.58,6.36-6.09,9.97.21,1.54,2.94,6.33,4.34,6.86.87.33,1.58-2.26,2.07-2.78,2-2.08,6.2-6.35,8.36-7.91h.01ZM79.67,101.88c-.03-2.83.15-5.75.52-8.55.2-1.53,2.12-6.08.63-6.8-1.07-.22-.66.77-.82,1.48-1.06,4.53-1.56,9.23-1.72,13.86h1.39ZM99.19,87.93h-1.39c-.34,4.6,1.01,9.05,1.01,13.64l1.31.77-.93-14.42h0ZM35.07,108.39c5.16,5.46,11.1,7.98,18.7,6.39,6.71-1.41,5.08-5.34,6.39-11.04-2.35.67-4.28,3-6.79,3.23-2.36.22-4.46-1.5-6.68-.91-1.16-.73-2.93-1.03-3.59-1.53-1.07-.81-2.44-4.04-2.97-5.39-3.61.63-7.03.47-10.63-.05.74,3.69,3.11,6.69,5.57,9.3ZM77.82,102.81c-.3.3.01,2.58,1.15,2.32,1.78-.4-.09-3.38-1.15-2.32ZM99.43,103.28c-.93.26-.93,2.05,0,2.32,2.14.6,2.14-2.92,0-2.32Z"/>
  <path class="cls-3" d="M161.45,119.55c2.13.19,4.64-.29,6.71.03,2.66.41,3.97,2.87,5.86,4.37.67.53,1.64.56,2.26.99,6.68,4.58,6.88,21.56.28,26.24-.73.52-1.71.56-2.28.99-1.59,1.21-3.51,4.58-6.09,4.58h-8.13l2.79,13.95c.8.82,11.96-1.53,14.54-.02,1.69.99,1.81,7.9.49,8.33l-36.18.06c-1.5.29-1.1,2.12-2.3,3.27-2.92,2.8-15.43,3.93-19.52,3.7-5.34-.3-10.81-1.35-9.42-8.03.36-1.74,2.76-3.98,2.69-5.18s-3.24-7.82-3.95-9.59c-.48-1.18-.6-2.69-1.12-3.9-1.7-.03-7.7-1.43-8.65-.28-.17.2-1.43,3.84-1.59,4.45-1.27,4.76-.74,9.43-1.53,13.82-1.24,6.92-11.26,6.75-16.62,6.85-1.53.03-3.12.07-4.65,0-5.57-.27-12-.89-10-8.38.63-2.35,4.07-3.55,3.97-5.3l-4.94-15.65-32.19.08-3.3,15.76c3.29.8,14.43-2.09,16.21.75.83,1.32.94,6.34-.18,7.63H3.94c-.46-1.58-.63-3.26-.48-4.91.4-4.46,2.88-4.01,6.52-3.93.77.02,1.55-.03,2.32,0,.27,0,.92.44,1.6.47,1.76.08,3.56,0,5.32-.05l4.23-20.88h-12.31c-.16,0-2.09-2.01-2.3-2.35-.92-1.47-1-3.46-.51-5.14.36-1.23,1.13-.81,1.19-.89l1.39.93c-.06.11.05.31,0,.47-.28.92-.72.99-.37,2.45.15.64,1.62,2.66,2,2.66h50.41c.23,0,0-4,0-4.65v-2.33c.72.06,1.07-.19,2.32,0v1.4c0,7.74,1.41,14.12,3.23,21.56l1.34.34c-.55,2.2,1.86,5.24,1.94,6.74.11,1.92-2.64,2.77-3.66,4.21-1.14,1.62-1.7,4.29.86,4.81.14-1.71.61-4,2.79-3.72l-.93,5.58,4.18.46c-.72-1.25,1.85-6.92,3.25-5.58l-1.39,5.58c2.39.08,4.62.05,6.97-.46,1.74-.38,2.49-1.38,2.64-1.41,1.06-.19,2.32.69,3.98.38,5.08-.95,3.47-7.42,3.58-11.32.05-1.83.84-3.3.02-5.33h1.87c-.49-1.92.87-3.65.94-5.35.04-1.08-.09-.53-.71-.69-4.09-1.02-8.41-1.46-11.84-4.19-.05-.78-.33-1.55.69-1.4,1.27.19,3.03,1.53,4.52,1.99,6.4,1.98,12.76,2.16,19.41,2.43,2.75,5.16,4.04,11.1,6.96,16.28,0,1.1-2.91,3.79-3.17,5.22s.45,3.85,2.25,3.38c-.1-1.58.88-4.01,2.79-3.72l-.93,5.58h6.04c-.45-1.25.56-5.8,2.09-5.57s-.94,4.47-.24,5.57c.77-.02,1.55.03,2.33,0,3.85-.18,11.4-1.28,12.04-5.86.66-4.74,1.42-12.03,1.47-16.73,0-.84-.86-.58-.96-.98-.21-.9.22-4.08,0-4.33-3.38,1-9.23,1.52-12.67.82-3.78-.77-5.94-5.83-9.16-7.8-.52-1.35-1.05-2.77-1.39-4.19l.31-.94h1.54c.47,1.8,2.32,5.6,4.01,6.46,6.21,3.18,9-6.96,9.02-11.36.02-3.59-2.39-12.1-6.52-12.77-1.83-.3-2.61.98-4.18,1.4,1.41-2.39,1.23-1.79,3.25-3.26,16.28-3.22,16.7,29.61,1.39,28.84,2.39,2.99,6.22,1.39,8.35-1.18,6.23-7.5,4.63-23.9-3.24-29.98.94-.14.51-.53,2.79-.47.12.18.37.31.46.47.98,1.66,2.63,2.98,3.25,4.19.06.12.84,2.08.93,2.33,1.64,4.45,2.63,12.64,1.39,17.21-.74,2.72-3.27,6.86-5.11,9.07,6.42,1.25,7.52-4.3,8.83-9.07,1.71-6.26,1.95-10.97-.46-17.21-.05-.14.05-.33,0-.47.44.06,1-.09,1.39,0,.9.21,1.03.45,2.32.47l.93,1.86c-.85.04-1.97-.48-1.83.66.14,1.22.68,2.55.85,3.81.23,1.7.88,4.46.98,5.54.11,1.3-1.45,3.38,1.61,3.49,3.98.15,2.17-2.93,4.08-3.87,1.32-.66,2.28-.18,3.58.12,1.36-3.45,2.21-6.95,1.89-10.69.17.14,1.43-.1,1.86,0,.02.54.44,3.94.56,4.33.42,1.46,2.63,1.75,2.14,5.08-.61,4.17-3.33,2.57-5.63,3.24-.98.29-2.72,2.88-4.5,2.73,2.29,11.12,10.97,14.04,14.88,1.62,2.14-6.83.96-18.71-4.88-23.52-.69-.57-1.05-1.09-2.11-.91.18-2.04.81-1.94.93-2.33v.04ZM165.16,121.88c.29,1.77,2.6,3.29,3.25,4.65.07.14.37,1.09.46,1.4,1.81,5.73,2.32,11.41.93,17.21-.76,3.19-1.55,6.43-4.18,8.61-.2,1.02.47.68,1.17.71,4.85.18,6.77-6.03,7.65-9.78,1.48-6.28,1.35-9.86-.93-15.81-.63-1.65-.66-1.5-1.39-2.79-.16-.28-.24-.58-.46-.93-.42-.65-.61-1.68-1.07-2.19-1.35-1.48-4.64-1.9-6.59-2-.57.67.83.84,1.16.93h0ZM132.17,147.45c3.19-6.76,3.37-16.13-3.02-20.92l1.16,1.28c1.58,4.25,3.15,8.18,2.74,12.84-.15,1.7-.86,3.65-1.12,5.39-.07.49-.62,1.52.25,1.41h-.01ZM176.78,146.53c3.05-3.04,3.16-9.21,2.2-13.14-.14-.57-2.61-7.01-3.6-5.93,2.7,6.01,1.95,12.7,1.4,19.06h0ZM160.52,136.3c-1.34-.25-.75.36-1.04,1.02-.4.93-.54,1.84-1.28,2.69l2.12-.43.2-3.28h0ZM144.72,147.92h6.5l-.73-2.35c-2.46.18-5.36-.86-5.78,2.35h0ZM176.55,146.99v.47c.3-.16.3-.31,0-.47ZM24.85,155.83c-1.07,5.02-2.65,9.97-3.26,15.11l4.68.03c1.45-4.88,2-10.15,3.23-15.14.24-.99.33-2.06,1.16-2.79h33.22l-.75-3.28H26.06c-.73.2-1.01,5.13-1.21,6.07h0ZM143.33,153.04h8.83l4.16,17.92,4.2.22c0-.38,0-.77.02-1.16,0-1.36-2.45-13.39-2.94-14.05-.32-.43-2.13-1.2-2.9-1.98-1.3-1.3-1.95-3.86-3.71-4.19-2.03-.38-4.99.2-7.14.04l-.51,3.2h-.01ZM141.93,171.17c-.08,1.06-1.25,5.36-.49,5.83,2.61.43,5.3.18,7.92.22,6.81.08,13.64-.06,20.45,0l-.44-3.98-20.94-.2c-.03-.11-1.4-.83-.93-1.86h6.5l-3.25-16.27h-7.9l-1.23,15.67c-.02.33.3.56.3.6h0ZM174.55,172.93c-.5-.3-.65-2.03-2.88-1.28l.46,5.11h4.65v-3.73c-.68-.08-1.66.24-2.23-.1ZM10.45,176.76l-.44-3.99c-3.28-.56-6.06.55-4.24,4.26l4.67-.27h0ZM36.46,173.03H12.3v4.19h24.16v-4.19ZM43.44,173.03h-4.65v3.73h4.65v-3.73Z"/>
  <path class="cls-3" d="M22.99,57.7c.53.13,2.8.77,3.25.93,6.38,2.31,5.64,7.65,5.57,13.49,3.26-.63,5.93.8,8.83,1.39.15.03.31-.03.46,0l3.48,3.25c1.6-2.08,3.69-5.44,5.81-6.97.17-.12,1.32-.9,1.39-.93.21-.09,1.23-.44,1.39-.47,2.65-.38,3.98.78,5.86.91.81.05,1.2-.4,1.57-.45,2.07-.28,1.02.84,1.69,1.43.28.25,1.12.28,1.55.67.84.78,1.22,1.99,2.34,2.08,0,.29-.06.71,0,.93l-1.39.47c-3.77-5.99-11.48,3.22-12.08,7.44l2.3-3.03c1.82-1.77,3.47-3.98,6.29-3.98,1.1,0,2.66.37,3.96.5.63.06,1.24.35,1.86.47.15.62.29,1.25.46,1.86.53,1.86.72,3.7,1.86,5.37l-1.4,1.14c-.03-.82-.8-3.73-1.21-4.6-2.83-5.91-8.28,1.83-9.73,5.04-1.07,2.37-2.69,8.44-2.56,10.94.09,1.75,1.44,6.52,3.74,6.3-.28.21.15.83-1.86,1.86-9.4-1.64-7.01-14.21-3.95-20.47.37-.77.49-1.06-.45-.92-2.94,6.51-5.9,16.22-.7,22.32-.06,0-.34.51-1.02.4-.73-.11-1.87-.99-2.69-1.33-.74-3.39-1.2-6.73-.93-10.23.39-4.95,2.77-11.54,5.38-15.77,1.41-2.28,3.59-3.83,4.84-6.09.45.04,1.54.28,1.39-.46-4.91-2.89-9.11,1.95-11.15,6.04-1.42.2-4.32,10.28-4.65,12.09l-2.32-.47c.52-2.5,3.05-7.6,2.79-9.77-.09-.75-.17-1.38-1.14-1.4l-3.5,1.86,1.36-3.89c-.39-1.4-3.9-1.48-5.07-.98-1.43.61-1.98,3.86-3.73,2.78-.2-1.59.66-1.89,1.4-3.02-2.59-.15-5.55,3.71-5.84,6.02-.12.95.41,1.78.28,2.51-.06.33-.85.26-.94.62-.43,1.68.57,5.67,1.83,6.91.3.3,2.97,1.56,3.27,1.61-.58.36-1.09.62-.93,1.4-.78-.15-1.55-.3-2.32-.46-.11.71.14,1.68,0,2.32-.11.47-.64,1.39-.93,1.86-.09-.29-.92-1.04-1.17-1.85-.36-1.18-.24-2.55-.69-3.73-2.26,1.29-4.42,4.02-7.2,4.21-1.76.12-8.57-1.95-10.15-2.89-2.92-1.72-2.2-4.17-3.2-5.4-.28-.34-1.26-.41-1.72-.83-6.07-5.48-.24-21.3,5.54-25.57,2.3-1.7,2.78-.68,4.79-1.25.69-.2,2-1.67,2.96-2.15,2.45-1.21,4.57-.68,7.13-.08v.02ZM10.91,66.54c-3.13,3.82-4.04,9.54-4.65,14.42-.03.22-.45.7-.5,1.57-.2,3.73,1.24,10.16,6.07,9.59-1.12-3.09-1.14-6.49-.93-9.76.38-5.76,4.68-17.35,9.29-20.93.59-.46,1.82-.34,2.31-1.16-4.86-3.65-9.9,1.86-11.61,6.28h.02ZM25.19,61.05c-1.09.15-5.09,3.37-5.92,4.32-3,3.42-6.15,13.12-6.49,17.69-.78,10.6,4.4,14.71,11.5,5.52l-.57-5.78c-3.18-1.26-4.89-1.32-4.44-5.34.63-5.67,6.03-2.05,8.03-2.63,3.25-.95,2.92-4.85,2.66-7.58-.25-2.57-1.38-6.65-4.76-6.2h0ZM4.87,69.79c-1.83,3.07-2.74,5.61-2.79,9.3,0,.91.54,5.81,1.17,6.05,1.04.4.66-1.07.69-1.62.09-1.77.19-2.71.46-4.43.83-5.3,2.29-9.01,4.18-13.95.97-1.02,2.22-1.8,2.79-3.25-1.03-.89-7.2,5.98-6.5,7.9ZM21.6,77.23c-.25.63-.84,1.06-.41,2.01.34,1,2.21,1.43,3.15,1.21.4-.66.29-1.69.51-2.29.05-.13,1.12-.38.93-1.15l-3.43-1.14c-.78.24-.57.91-.76,1.36h.01ZM61.09,76.77c-.89-.18-4.91,2.49-4.18,3.25l4.18-3.25ZM56.44,80.49c-3.81,4.78-5.67,11.71-4.18,17.67l1.98-11.26,2.66-5.94s-.46-.47-.46-.47Z"/>
  <path class="cls-3" d="M148.44,20.96c.57-.07,1.42-.86,2.24-.38,1.31,4.54,7.65,8.32.55,10.62-2.18.7-4.25.93-6.5,1.16,1.95,1.59,4.62,2.22,6.97,3.03.61.21,1.88-.21,1.85,1.15-3.44,3.28-3.36,9.18-9.29,6.29-1.66-.81-4.85-3.31-5.58-5.12-.14-2.73-1.02-2.98-3.62-3.35-.26-.18-.55-1.37-.57-1.76-.03-.55.5-.49,0-2.33l1.86-.47c.2,1.25,1.34,1.96,1.4,3.25,2.16-1.23.18-3.32,0-5.11.59-.22,1.2-.52,1.67-.95l-.28-.91c2.64-1.55,5.15-2.03,7.43-4.19.29-.28.79-.41.93-.93.31-.02.63.04.93,0h.01ZM145.65,25.15c-1.06.46-5.27,1.9-5.52,2.62-1.03,3.99,5.16,2.41,7.38,2.03,1.37-.23,2.79-.59,4.12-.98.77-1.21-1.55-4.54-2.55-5.5-.33-.06-2.72,1.52-3.43,1.83ZM150.3,36.78c-1.78-.56-3.72-1.01-5.43-1.78-2.12-.95-5.54-4.77-5.71.2-.07,2.06,5.95,5.93,8.03,6.16l3.12-4.58h0Z"/>
  <path class="cls-3" d="M53.66,54.91c.04.06.65-.13.83.08.4.47-.1,2.09.09,2.87.13.51.88.24.94.3.07.07-.2.9.27.95l2.5-.47c.06,1.59,1.13,2.83,1.88,4.17.1.19-.1.74,0,.93-.1.57-.96.52-1.39.47-.32-.04-.92-.59-1.39-.47.18-.67-.27-.98-.46-1.4-.95-2.07-1.09-.91-2.58-1.84-1.81-1.13-1.19-3.87-.67-5.6h-.02Z"/>
  <path class="cls-3" d="M141,48.86c.18.46.64.97.93,1.4,0,.31.02.62,0,.93-.26.53-1.16,1.04-1.39,1.4-.92-.8-.33-2.56-.46-3.72h.93,0Z"/>
  <path class="cls-1" d="M131.25,33.52c4.08,17.64-4,30.3-20.12,36.83-13.82,5.6-33.7,5.94-46.01-3.43-1.73-1.32-2.88-3.4-4.96-4.11-.75-1.33-1.82-2.58-1.88-4.17l-2.5.47c-.47-.04-.2-.88-.27-.95.07-1,.18-2.32.46-3.26.12-.4,1.39-1.24.93-2.32-.44-.07-.99.08-1.39,0-.29-.06-.79.18-.93-.32-.06-.67,0-1.34,0-2,.52-.12.67-.69.93-.93,4.92-4.53,2.1-13.28,5.82-17.66,1.17-1.38,7.85-2.68,9.96-3.05,18.03-3.22,42.73-1.47,59.95,4.9h.01ZM73.01,39.66c-3.51.66-4.37,7.16-.98,7.81,5.72,1.09,5.96-7.13.98-7.81ZM105.12,39.65c-3.64.89-3.73,7.56-.1,7.8,5.87.39,4.37-8.85.1-7.8ZM77.51,65.44c5.61,5.25,23.97,4.8,24.95-5.16,1.05-10.7-9.43-20.17-19.86-15.69-6.77,2.91-11.09,15.25-5.1,20.85h0Z"/>
  <path class="cls-12" d="M128.92,82.81c-.41,1.59,2.75.95,3.38.83.17-.03,2.35-1.75,1.72-.13-.69,1.78-3.25.77-4.2,1.38-.63.4-.77,2.75-1.36,3.75-1.07,1.8-5.26,3.34-5.96,5.66-.11.38-.46,5.38-.42,5.89.12,1.26,1.64,3.35,1.27,5.05l2.77,1.29c.33,1.53,1.14,3.15,1.37,4.45.46,2.6.42,5.91.49,8.58-4.75.52-6.38,5.05-6.82,5.15-2.17.46-3.95-1.92-4.33-3.75-.25-1.21-.33-2.95,0-4.18l-3.72-.47c-.05-.14.04-.32,0-.47-.14-.46.23-1.21-.23-1.87-.31-.45-1.04-.35-1.17-.46-.06-.06.14-.68-.07-.86l-2.26.4c-.2.49.42.77.47.93.08.26-.08.7,0,.93l-.46.93h.93c.26.63.68,1.89.93,2.33-.18,2.5-2.55,6.77.69,7.91l4.42-1.86c.55.57,1.01,1.51,1.39,1.86v1.86c-.4.68-1.18,2.87-1.39,3.72-1.31.64-2.81.6-4.18.93-1.72-1.17-3.78-1.57-4.18.93-1.22.09-2.49-.08-3.72,0l-.24-.93h-.69v.93c-1.72.1-3.55.45-5.11.47l-.24-.93h-.69v.93c-3.58.04-7.13-.23-10.69-.47.2-1.47-.3-3.89-2.09-4.19-1.31-.22-.47,1.6-.69,2.47-.12.48-1.25.57-1.4,1.26-3.7-.37-6.08-.52-9.76-1.4-.47-2.69-3.44-2.86-5.58-1.86-1.44-.64-2.94-.99-4.14-2.13l-3.29-3.45c-.15-.97-.49-1.68-.46-2.79l4.65.93-.47,2.79c.29.07.71-.08.93,0,.46.17.88.43,1.39.47.72.04,2.32.16,2.82-.2-.02-1.22,1.63-2.87,1.74-3.36.07-.32-.39-.59-.38-.62.47-1.18.94-2.35,1.86-3.26.48-.47.52.98.93-1.4.03-.16-.04-.33,0-.47,3.91-.98,1.39-6.3-1.72-6.44-1.83-.08-.32,2.61-.8,4.13-.22.71-2.31,4.84-2.85,5.07-.25.11-1.2.24-1.13-.28-.87-3.87-1.64-4.8-5.58-4.8.31-1.75.55-2.93.93-4.65h.93l-.46-1.86c.18-.71.22-1.43.46-2.33,1.49.16,1.05-1.53,1.89-2.53.24-.29,2.69-2.14,2.98-2.13.63.02,1.12.86,1.85.9.49.03,1.38-.6,1.62-.42.14.1,1.41,2.88,1.42,3.05.12,1.22-1.34,2.49-.94,3.92,2.07-.7,2.45,1.59,3.15,1.85s3.03.49,3.83.28c.41-.11,4.48-2.16,4.65-2.36,1.22-1.37.12-3.72,4.78-2.57.6.15.68,2.69,3.71,1.78,1.45-.44,1.55-2.44,1.04-3.65-.8-1.27-2.29,1.22-3.69.98-.47-.08-.64-2.38-2-2.76l-3.85.87c-.45-.44,2.77-4.87-.47-5.11.02-.46-.02-.93,0-1.4,1.38-.94.77-2.66.93-3.96.08-.65-.26-.81.69-.68,1.74.79,2.47,2.96,4.4,3.5,1.13.32,2.14,0,2.95.2.49.12.42,1.11,1.09,1.34.6.2,1.55-.11,1.95.14.67.4.62,4.81,2.39,4.58.1,1.19-.16,2.59,0,3.72h-.93c-.12.98.02,2.06.96,2.6.61.35.85-.27.9-.27.3,0,.63.03.93,0-.04.29.07.67,0,.93-.03.13-.71.31-.27.91l2.73,1.36,2.66-2.49c0-.38-.47-.65-.47-.71-.02-.46,0-.93,0-1.4l.94-.26v-1.6h-.94c.01-.31-.03-.62,0-.93,0-.05.66-.4.46-.93h-.93c0-.15-.02-.32,0-.47.08-.74.58-1.51.46-2.32h-.93v-1.4h.93v-.69l-.93-.24c.04-1.81-.17-3.83,0-5.58h.93v-.93c8.39-2.41,17.37-4.48,25.55-7.44l.04-.02ZM87.57,95.37h-.92v.93h.92v-.93ZM107.55,103.28h-1.39v.93h1.39v-.93ZM101.97,111.65h-.92v1.39h.92v-1.39ZM117.31,116.76c3.15.74,5.02-3.09.98-2.72l-.98,2.72Z"/>
  <path class="cls-1" d="M77.82,146.06c.54.14.87.23,1.39.47.35.16.81.84,1.43,1.11,10.93,4.82,22.13,6.54,32.49-.65.99-.69,2.21-1.17,2.79-2.33h.46c.35,1.42.87,2.83,1.39,4.19,1.35,3.49,3.16,6.91,6.28,9.29,2.87,2.18,5.92,2.67,9.44,2.87.81.49.71,13.05.33,14.84-.33,1.55-1.41,2.94-2.34,4.17l-4.42,3.71c-.77.04-1.56-.02-2.33,0-.7-1.1,1.71-5.35.24-5.57s-2.54,4.32-2.09,5.57h-6.04l.93-5.58c-1.91-.29-2.89,2.14-2.79,3.72-1.8.47-2.5-1.99-2.25-3.38s3.18-4.12,3.17-5.22c-2.93-5.18-4.22-11.12-6.96-16.28-6.65-.27-13.01-.45-19.41-2.43-1.5-.46-3.25-1.81-4.52-1.99-1.02-.15-.74.61-.69,1.4.24,3.54,3.77,5.4,4.45,8.34.59,2.54.34,13.3-.82,15.52l-4.09,4.05c-2.35.52-4.58.55-6.97.46l1.39-5.58c-1.41-1.34-3.97,4.32-3.25,5.58l-4.18-.46.93-5.58c-2.18-.28-2.65,2.01-2.79,3.72-2.55-.52-2-3.2-.86-4.81,1.02-1.44,3.77-2.29,3.66-4.21-.09-1.5-2.49-4.54-1.94-6.74l-1.34-.34c-1.83-7.44-3.23-13.82-3.23-21.56,3.3,1.45,6.78,2.44,10.21,3.51.86.27,1.76.06,2.33.21v-.02ZM69.91,163.27v-1.39h-.46v1.39h.46Z"/>
  <path class="cls-12" d="M146.11,84.67c.16.3.33.62.46.93.29.67.1,1.86.72,2.78.46.69,1.51.82,1.62,1.27.42,1.72.07,3.12.81,5.61.17.58,0,1.78.14,1.94s2.01-.04,2.65.6c.49.49.57,2.38,1.09,3.33.39.72,2.25,3.35,3.19,3.55.71,2.43.98,4.04,1.39,6.51-1.26,1.9.41,3.94-.09,6.18-.08.36-1.3,2.71-1.57,3.1-.59.86-1.79.7-1.59,1.89-2.71.56-6.49.52-9.29.47l-1.4-2.59-3.24.26c-3.37-8.62-3.04-12.51-10.91-19.09-.65-.55-1.54-.37-1.64-.44-.17-.13-.3-.34-.46-.47,1.97-.91.99-3.21,1.63-4.64,1.03-2.31,4.83-2.74,3.48-5.12l1.35-.03.5-3.01c.69-.71,3.42-.49,4.31-.22.68.21.61,1.93,2.2,1.39.7-1.94-1.07-1.88-1.32-2.61-.33-.94.05-2.39-.07-3.43l6.04,1.86v-.02Z"/>
  <path class="cls-13" d="M131.25,33.52c.83.31,2.83,1.06,3.43,1.46,2.48,1.66,1.82,7.94,2.74,10.75.41,1.26,3.19,4.32,1.75,5.26l-1.87.22.47,6.05c-3.57-.81-2.99,1.62-4.65,3.95-5.33,7.5-16.36,9.55-24.47,13.64-4.6,2.32-10.48,5.8-14.56,8.91-2.91.94-6.35.51-9.29,0-1.62-1.69-3.58-3.08-5.11-4.89-.58-1.39,3.8-.36,4.18-.69.13-.64-.04-.77-.48-1.14-.86-.75-8.07-2.57-10.06-3.42-2.76-1.18-7.65-3.79-9.91-5.67-.08-.07.25-1.29-.93-.93,0-1.64-1.94-2.57-2.32-3.26-.1-.19.1-.74,0-.93,2.07.71,3.23,2.79,4.96,4.11,12.31,9.37,32.18,9.02,46.01,3.43,16.12-6.53,24.2-19.19,20.12-36.83v-.02Z"/>
  <path class="cls-15" d="M126.6,23.29c.43,1.49,1.49,1.43,2,3.34.33,1.24.42,2.36.32,3.63-4.01-1.27-10.07-2.35-14.32-3.11-17.53-3.13-35.25-2.78-52.59,1.25.17-7.68,7.72-8.96,13.84-10.09,16.64-3.09,35.08-1.48,50.74,4.98h0ZM86.64,20.96c.16.27.19.59.46.93.85,1.04,1.51,2.14,3.03,2.32.67-.02,2.55-1.68,3.01-2.32.49-.68.32-.78.46-1.4.07-.31.72-.54.41-1.51-1.14-2.51-2.76-.57-3.89-.53-1.38.05-2.91-1.73-4.37.96-.32,1.21.73,1.27.88,1.54h.01Z"/>
  <path class="cls-1" d="M123.35,19.56c-17.09-5.74-34.11-5.76-51.65-2.63-.48.08-1.43.73-1.31-.15,1.51-.98,2.51-2.06,4.17-3.04,2.23-1.32,8.48-4.17,10.87-3.93,1.42.14,3.18,1.89,3.54-.24-.2-.92-3.88-2.61-3.25-3.49,3.21-1.26,6.19.25,9.29.92l-1.39-4.65c4.01-.94,7.1,4.02,9.95,5.15,2.32.92,6.24,1.22,8.89,2.26,1.59.62,4.43,2.66,5.57,2.82.88.12.57-.08.79-.59.51-1.14.34-2.17,1.27-3.38.35-.46,3.26-2.71,3.71-2.82.7-.18,1.2.29,1.6.27.34-.02.07-.84.95-.96,4.04-.54,5.74.05,8.63,2.37,1.17,2.2,1.61,5.99.02,8.05-.33.43-.92.28-.94.32-1.53-6.13-9.48-8.25-11.62-1.6.02,1.01,2.34,2.01,3.11,2.69.22.19.09.73.14.77l-2.3.49-.02,1.37h-.02Z"/>
  <path class="cls-15" d="M141,64.21c.06.42,0,.95,0,1.4-2,.84-3.13,3.16-4.89,4.64-6.43,5.43-21.4,10.14-29.62,13.14-1.71.62-4.42,2.39-5.92,2.68-.96.19-2.23-.3-3.26.22-.83.42-.79,1.71-1.4,2.32-.55.56-1.79.62-2.31,1.41l2.32,1.04c.46,3.27.65,6.6.93,9.88-1.77.22-1.73-4.18-2.39-4.58-.4-.24-1.35.06-1.95-.14-.67-.22-.6-1.22-1.09-1.34-.81-.2-1.82.12-2.95-.2-1.93-.54-2.66-2.71-4.4-3.5-.94-.12-.6.04-.69.68-.16,1.3.45,3.02-.93,3.96,0-.06-.5-.47-.49-1.12,0-.51.47-4.37.55-4.63.46-1.39,2.65.05,2.26-1.68-2.25.25-1.5-1.31-2.11-2.32-.81-1.34-3.59-.77-4.99-1.05-2.08-.42-7.2-3.92-8.84-5.45-.53-.49-.37-1.57-1.26-1.89-.18-.61-.31-1.24-.46-1.86-.25-1.03-.85-1.58-.93-1.86-.06-.22,0-.64,0-.93,0-.53-.16-1.27.69-.92,1.33.54,5.89,3.47,7.17,4.45,3,2.31,7.19,6.43,9.81,9.25,1.46,1.58,2.95,5.26,5.3,4.91,1.11-.16,5.27-4.6,6.55-5.58,5.27-4.09,12.41-8,18.49-10.79,6.31-2.9,15.18-5.11,20.87-8.41,1.07-.62,1.88-1.27,1.75-2.67,2.3-.33,1.97-.11,4.18.93h0Z"/>
  <path class="cls-5" d="M160.52,121.88c1.06-.18,1.42.34,2.11.91,5.84,4.82,7.03,16.69,4.88,23.52-3.9,12.42-12.59,9.5-14.88-1.62,1.77.15,3.52-2.44,4.5-2.73,2.3-.67,5.02.93,5.63-3.24.49-3.33-1.72-3.63-2.14-5.08-.11-.38-.54-3.79-.56-4.33-.07-2.14.27-5.22.46-7.44h0Z"/>
  <path class="cls-1" d="M30.89,92.11c-.31-.05-2.97-1.31-3.27-1.61-1.26-1.24-2.26-5.23-1.83-6.91.09-.36.88-.29.94-.62.12-.73-.4-1.56-.28-2.51.29-2.3,3.26-6.16,5.84-6.02-.74,1.12-1.6,1.43-1.4,3.02,1.75,1.08,2.29-2.17,3.73-2.78,1.18-.5,4.68-.42,5.07.98l-1.36,3.89,3.5-1.86c.97.02,1.05.65,1.14,1.4-4.2,1.84-6.15,8.39-4.65,12.56-2.07.44-5.27.83-7.43.47h0Z"/>
  <path class="cls-15" d="M138.68,78.16c2.49,1.47,5.83,3.59,7.43,6.51l-6.04-1.86c.12,1.04-.26,2.49.07,3.43.25.73,2.03.67,1.32,2.61-1.59.54-1.52-1.18-2.2-1.39-.89-.27-3.62-.5-4.31.22l-.5,3.01-1.35.03c1.35,2.38-2.44,2.81-3.48,5.12-.64,1.44.34,3.74-1.63,4.64-1.03-.79-1.44-2.69-3.25-2.32.05.92-.09,1.88,0,2.79.17,1.82.99,3.74,1.39,5.58l-2.77-1.29c.37-1.7-1.15-3.8-1.27-5.05-.05-.51.3-5.51.42-5.89.7-2.32,4.89-3.86,5.96-5.66.59-1,.73-3.35,1.36-3.75.95-.61,3.5.4,4.2-1.38.63-1.62-1.56.1-1.72.13-.64.13-3.79.77-3.38-.83,3.4-1.23,6.72-2.65,9.76-4.65h-.01Z"/>
  <path class="cls-7" d="M118.24,143.74c-.62-2.35-.65-5.45-.46-7.91l2.85-6.21,4.12-3.55c4.13.67,6.54,9.17,6.52,12.77-.02,4.39-2.81,14.54-9.02,11.36-1.69-.87-3.54-4.67-4.01-6.45h0ZM126.02,134.55c-.42-.4-1.4-.59-1.99-.6-5.02-.15-4.87,8.14-1.28,9.23,4.39,1.33,6.16-5.84,3.27-8.62h0Z"/>
  <path class="cls-15" d="M62.48,105.14c1.46-5.3,2.79-5.18,4.88-9.3,1.02-2.02,2.81-10.36,3.23-10.74.62-.56,4.83,1.2,5.36,1.7.48.45.35,1.2.61,1.47.35.36,1.41.09,1.72.87.34.86-.41,1.35-.45,1.58-3.25.78-1.09-2.1-2.14-2.84-1.93-.73-3.24-1.36-4.86.37.81,1.81-.61,4.03.25,5.74.34.68,1.53.84,1.85,1.4.95,1.61.24,6.31,3.49,5.57-.1.99-.51,2.32-.49,3.05.08,3.3,5.49,3.52,6.05.43.29-1.61.39-5.32.48-7.2,3.24.24.02,4.67.47,5.11l3.85-.87c1.36.38,1.53,2.68,2,2.76,1.4.24,2.89-2.25,3.69-.98.52,1.21.41,3.21-1.04,3.65-3.03.91-3.11-1.63-3.71-1.78-4.66-1.15-3.57,1.2-4.78,2.57-.17.19-4.24,2.25-4.65,2.36-.8.21-3.13-.02-3.83-.28s-1.08-2.55-3.15-1.85c-.4-1.44,1.06-2.7.94-3.92-.02-.17-1.29-2.95-1.42-3.05-.24-.17-1.13.46-1.62.42-.73-.05-1.22-.89-1.85-.9-.3,0-2.74,1.84-2.98,2.13-.84,1-.4,2.69-1.89,2.53h-.01Z"/>
  <path class="cls-5" d="M68.06,84.21c.2,4.97-3.26,12.71-6.96,16.05-.93.84-2.03,1.03-2.8,1.62-2.3.22-3.65-4.55-3.74-6.3-.13-2.5,1.49-8.56,2.56-10.94,1.44-3.22,6.9-10.95,9.73-5.04.42.87,1.18,3.78,1.21,4.6h0ZM60.3,86.21c-2.89,2.68-2.13,11.3,3.1,7.52,3.74-2.71,1.66-11.93-3.1-7.52Z"/>
  <path class="cls-6" d="M59.7,124.2l3.29,3.45c1.2,1.14,2.71,1.49,4.14,2.13,2.31,1.03,3.07,1.27,5.58,1.86,3.68.87,6.06,1.03,9.76,1.4,1.31.13,2.71.37,4.18.47,3.56.24,7.11.5,10.69.47h.93c1.56,0,3.39-.36,5.11-.47.31-.02.62.02.93,0,1.23-.08,2.49.09,3.72,0,2-.15,2.57-.54,4.18-.93,1.38-.33,2.88-.29,4.18-.93-.34,1.34-.5,2.79-.47,4.18-11.67,1.22-23.8,1.45-35.48-.05-3.74-.48-14.46-2.19-17.18-4.2-2.54-1.88-3.12-4.53-3.55-7.37h-.01Z"/>
  <path class="cls-6" d="M141,65.61c0,1.35-.28,2.41-.47,3.72,4.03-.28,4.22,5.54,3.25,8.37-.9.62-4.69-2.27-4.22-3.67l-1.08-.03c-5.47,2.43-10.96,4.71-16.65,6.62s-14.06,4.82-19.85,6.19c-.87.21-1.53.65-1.41-.73,1.49-.29,4.21-2.06,5.92-2.68,8.22-3,23.19-7.71,29.62-13.14,1.76-1.49,2.89-3.8,4.89-4.64h0Z"/>
  <path class="cls-16" d="M62.95,140.95v2.33l-52.04-.47c.05-.15-.06-.36,0-.47.51-.97,1.92-1.79,3-1.88,16.28.47,32.91-.77,49.04.48h0Z"/>
  <path class="cls-1" d="M158.19,129.32c.33,3.74-.53,7.24-1.89,10.69-1.31-.3-2.26-.77-3.58-.12-1.9.94-.1,4.02-4.08,3.87-3.06-.11-1.49-2.19-1.61-3.49-.1-1.08-.75-3.84-.98-5.54-.17-1.27-.7-2.59-.85-3.81-.13-1.14.99-.62,1.83-.66,3.53-.19,7.82-.09,10.93-1.86.43.09.12.86.22.93h.01Z"/>
  <path class="cls-6" d="M46.69,106.07c2.22-.59,4.32,1.13,6.68.91,2.51-.23,4.44-2.56,6.79-3.23-1.31,5.7.32,9.63-6.39,11.04-7.6,1.59-13.54-.93-18.7-6.39,4.06.57,7.54,2.58,11.82,1.83.45-.38,3.48-.68,3.05-1.59-.09-.19-2.87-2.33-3.25-2.56h0Z"/>
  <path class="cls-15" d="M35.07,108.39c-2.46-2.6-4.83-5.61-5.57-9.3,3.6.52,7.02.68,10.63.05.54,1.35,1.91,4.58,2.97,5.39.66.5,2.43.8,3.59,1.53.38.24,3.16,2.38,3.25,2.56.44.91-2.6,1.21-3.05,1.59-4.28.75-7.76-1.27-11.82-1.83h0Z"/>
  <path class="cls-1" d="M71.31,12.59c-6.24-5.32-13.61,1.29-8.36,7.91-.5.52-1.21,3.11-2.07,2.78-1.4-.53-4.13-5.32-4.34-6.86-.5-3.61,2.8-8.62,6.09-9.97,5.11-2.1,9.42-.27,12.86,3.62.33,1.5-3.87,2.31-4.17,2.52h-.01Z"/>
  <path class="cls-15" d="M113.13,142.34c-7.32.94-18.38.9-25.81.48-5.12-.28-11.32-2.25-16.01-2.34-.3,0-.64-.04-.93,0-1.32-1.33-4.42-1.13-5.71-1.87-.51-.29-.28-.87-.33-.92.07-1.17-.53-1.53.96-1.2,11.66,2.58,23,4.27,35.06,4.01l12.32-.76.44,2.6h0Z"/>
  <path class="cls-7" d="M56.91,71.65c-1.24,2.25-3.43,3.81-4.84,6.09-2.61,4.23-5,10.82-5.38,15.77l-4.65-.93c.07-1.11.27-2.17.46-3.26.32-1.81,3.23-11.89,4.65-12.09l.44.47c.54-2.05,5.24-6.27,7.29-6.51,1.03-.12,1.53.41,2.04.46h0Z"/>
  <path class="cls-6" d="M102.44,98.62c-1.28.27-.9-.63-1.07-1.46-.28-1.34-1.45-7.16-.5-7.89,8.49-3.28,17.4-5.27,25.97-8.32,2.62-.93,7.3-3.6,9.51-4.01,2.53-.47,2.2,1.14,2.33,1.21-3.04,2-6.35,3.42-9.76,4.65-8.18,2.96-17.16,5.03-25.55,7.44-.23.07-.62-.1-.91.02-.09.3.01.62-.02.91-.17,1.75.04,3.77,0,5.58v1.86h0Z"/>
  <path class="cls-8" d="M115.91,144.67c-.57,1.16-1.8,1.64-2.79,2.33-2.34-.97-5.61.35-8.11.48-5.88.32-11.89-.02-17.68-.94h-8.13c-.52-.24-.86-.33-1.39-.47l-2.79-2.79c13.51,2.34,27.43.95,40.89,1.4h0Z"/>
  <path class="cls-6" d="M64.34,137.69c-.06-.06-.62.17-.91-.34s-.61-1.96-.27-2.46l.92-.45c16.62,4.97,34.2,4.71,51.37,3.71l.47,3.72c-.94.08-1.85.35-2.79.47l-.44-2.6-12.32.76c-12.07.26-23.4-1.43-35.06-4.01-1.49-.33-.89.03-.96,1.2h-.01Z"/>
  <path class="cls-13" d="M124.74,20.03l-.23-.46-.24.46c-.39-.14-.72-.39-.93-.47l.02-1.37,2.3-.49c.42.36,3.08,2.48,3.26,2.56,2.88,1.34,3.97-2.78,5.1-4.43.03-.04.62.11.94-.32,1.59-2.06,1.16-5.86-.02-8.05.26.21.8.07,1.6.95,4.82,5.29,2.78,13.88-4.04,15.71-2.29-1.4-5.32-3.17-7.78-4.11l.02.02Z"/>
  <path class="cls-15" d="M72.7,116.3c.18-.7,1.19-3.47.93-3.72-2.83-.6-2.68,2.87-3.79,4.81-1.55,2.73-4.54,4.84-5.5,7.75-.22-.08-.64.06-.93,0l.47-2.79-4.65-.93c.05-2.47.97-5.04,1.39-7.44,3.94,0,4.71.94,5.58,4.8-.07.52.88.39,1.13.28.54-.23,2.62-4.36,2.85-5.07.48-1.52-1.03-4.21.8-4.13,3.11.14,5.63,5.46,1.72,6.44Z"/>
  <path class="cls-6" d="M141,120.48c.31.78.69,1.52.93,2.33-.66-.09-5.11-2.96-5.34-3.26-.49-.65-2.16-7.42-2.94-9.15-1.46-3.27-4.03-6.07-5.2-9.44.09.07.98-.11,1.64.44,7.87,6.58,7.54,10.47,10.91,19.09h0Z"/>
  <path class="cls-6" d="M124.74,100.95c.96-.03,2.02,1.67,2.51,2.37,3.36,4.71,6.11,10.47,6.78,16.23-1.95.15-4.14-.21-6.04,0-.07-2.67-.04-5.97-.49-8.58-.23-1.29-1.03-2.92-1.37-4.45-.4-1.84-1.23-3.76-1.39-5.58h0Z"/>
  <path class="cls-5" d="M130.32,121.88c7.87,6.09,9.47,22.49,3.24,29.98-2.13,2.57-5.96,4.17-8.35,1.18,15.3.78,14.88-32.05-1.39-28.84.82-.6,1.84-1.83,2.76-2.12,1.33-.41,2.54-.03,3.74-.21h0Z"/>
  <path class="cls-12" d="M76.42,100.95c-3.26.74-2.55-3.96-3.49-5.57-.33-.55-1.51-.72-1.85-1.4-.86-1.71.56-3.93-.25-5.74,1.62-1.72,2.92-1.09,4.86-.37,1.05.74-1.11,3.62,2.14,2.84-.6,3.25-1.05,6.93-1.39,10.23h-.02Z"/>
  <path class="cls-10" d="M71.31,12.59c-2.16,1.55-6.36,5.83-8.36,7.91-5.25-6.62,2.12-13.22,8.36-7.91Z"/>
  <path class="cls-15" d="M143.79,127.92l-.2-2.84c4.73-.78,9.56-.11,14.29-1.38l.71,2.03c-.51,2.16-10.36,2.67-12.48,2.65-1.3,0-1.42-.26-2.32-.47h0Z"/>
  <path class="cls-5" d="M46.69,93.51c-.27,3.5.19,6.84.93,10.23-1.75-.73-3.05-1.18-4.65-2.33-.38-1.84-.79-3.18-.93-5.12-.08-1.13-.07-2.59,0-3.72l4.65.93h0Z"/>
  <path class="cls-15" d="M29.96,93.51c3.32.64,6.36.49,9.76.46l-.44,3.52c-1.23.86-10.23-.32-11.64-2.12.15-.65-.11-1.61,0-2.32.77.16,1.54.31,2.32.46Z"/>
  <path class="cls-15" d="M156.8,104.67c-.95-.2-2.8-2.83-3.19-3.55-.52-.95-.6-2.84-1.09-3.33-.64-.64-2.5-.43-2.65-.6s.03-1.37-.14-1.94c-.75-2.49-.39-3.89-.81-5.61-.11-.44-1.16-.57-1.62-1.27-.62-.92-.42-2.11-.72-2.78,4.69,5.03,8.3,12.48,10.22,19.07h0Z"/>
  <path class="cls-5" d="M51.33,104.67c-5.19-6.1-2.24-15.81.7-22.32.94-.14.83.15.45.92-3.05,6.26-5.45,18.83,3.95,20.47-.29.15-.65.38-.93.47-.59.18-1.25.37-1.86.47-.66.11-1.59-.01-2.32,0h0Z"/>
  <path class="cls-6" d="M134.5,30.26c.5,1.84-.03,1.78,0,2.33-2.06-.15-3.8-1.77-5.58-2.33.1-1.27,0-2.39-.32-3.63-.52-1.91-1.57-1.86-2-3.34,4.39,1.81,6.48,1.77,7.9,6.98h0Z"/>
  <path class="cls-13" d="M42.97,79.09c.26,2.17-2.27,7.27-2.79,9.77-.13.62.17,2.62,0,2.79-.58.08-1.33-.12-1.86,0-1.5-4.17.45-10.72,4.65-12.56Z"/>
  <path class="cls-15" d="M116.38,124.2l-4.42,1.86c-3.24-1.14-.86-5.41-.69-7.91,1.23,2.21,3.39,4.27,5.11,6.05Z"/>
  <path class="cls-13" d="M68.06,141.41c.88.16,2.15.73,3.25.93,1.33.24,2.59.74,3.72.93l2.79,2.79c-.57-.15-1.47.06-2.33-.21-3.44-1.07-6.91-2.06-10.21-3.51v-1.4c.93.14,1.86.3,2.79.47h-.01Z"/>
  <path class="cls-11" d="M79.67,101.88h-1.39c.16-4.63.66-9.33,1.72-13.86.17-.71-.24-1.71.82-1.48,1.48.71-.43,5.27-.63,6.8-.37,2.8-.55,5.72-.52,8.55h0Z"/>
  <path class="cls-11" d="M99.19,87.93l.93,14.42-1.31-.77c0-4.6-1.35-9.05-1.01-13.64h1.39Z"/>
  <path class="cls-11" d="M94.08,83.74c-.85.65-4.52,4.75-5.28,4.62-1.6-1.18-2.7-3.25-4.01-4.62,2.94.51,6.38.94,9.29,0Z"/>
  <path class="cls-15" d="M154.94,122.34c-.2-1.18,1-1.03,1.59-1.89.26-.38,1.49-2.73,1.57-3.1.5-2.24-1.16-4.28.09-6.18.81,4.82,3.31,9.81-3.25,11.16h0Z"/>
  <path class="cls-6" d="M141,64.21c-2.21-1.04-1.89-1.26-4.18-.93-.79.11-1.53.35-2.32.46l2.13-3.74c2.64.73,3.97,1.3,4.37,4.21Z"/>
  <path class="cls-16" d="M124.74,126.06l-4.12,3.55-2.85,6.21c.24-3.24,1.15-5.6,2.79-8.37,1.58-.41,2.35-1.69,4.18-1.4h0Z"/>
  <path class="cls-16" d="M133.11,121.41c2.44.07,3.6-.27,5.69,1.39.67.53.74,1.51,1.75,1.87-.21,1.24,1.13,1.86,1.39,2.33.13.22.37.71.46.93.05.13-.05.33,0,.47h-4.65c-.09-.24-.87-2.21-.93-2.33h3.02c.4.01.31-1,.23-1.16-.25-.54-5.35-3.48-6.5-3.02-.09-.16-.35-.29-.46-.47h0Z"/>
  <path class="cls-6" d="M102.91,101.42c-.02.15,0,.32,0,.47.02.4.02.78.46.93-.03.31.01.62,0,.93-.03.62,0,1.24,0,1.86,0,.46-.02.93,0,1.4-1.52,1.51-2.61,1.75-4.65.93.07-.26-.04-.64,0-.93,5.51-.57,3.15-1.14,3.27-4.85.01-.38.44-.65.45-.73h.47Z"/>
  <path class="cls-15" d="M113.13,116.3l3.72.47c-.34,1.23-.26,2.97,0,4.18-1.84-.27-3.18-3.08-3.72-4.65Z"/>
  <path class="cls-15" d="M145.65,122.81c-1.17-.02-2.63.15-3.72,0-.24-.81-.62-1.54-.93-2.33l3.24-.26,1.4,2.59h0Z"/>
  <path class="cls-6" d="M137.75,27.94c.19,1.79,2.17,3.89,0,5.11-.06-1.29-1.2-2-1.4-3.25-.09-.56.03-1.27,0-1.85.41-.12,1.07.11,1.38,0h0Z"/>
  <path class="cls-3" d="M42.04,96.3c.14,1.93.55,3.28.93,5.12-.16-.12-.7,0-1.15-.46-.93-.97-2.83-5.17.22-4.65h0Z"/>
  <path class="cls-11" d="M99.43,103.28c2.14-.6,2.14,2.92,0,2.32-.93-.26-.93-2.05,0-2.32Z"/>
  <path class="cls-11" d="M77.82,102.81c1.06-1.06,2.93,1.92,1.15,2.32-1.14.26-1.45-2.02-1.15-2.32Z"/>
  <path class="cls-15" d="M96.87,104.67c.08.58,1,1.5.93,2.33-.05,0-.29.62-.9.27-.94-.53-1.07-1.61-.96-2.59h.93Z"/>
  <path class="cls-3" d="M71.31,140.48v1.86c-1.11-.2-2.38-.77-3.25-.93.67-.05,1.89-.87,2.32-.93.29-.04.63,0,.93,0h0Z"/>
  <path class="cls-3" d="M55.51,52.58c.4.09.95-.06,1.39,0,.47,1.09-.81,1.93-.93,2.32l-.37-.33-.09-2h0Z"/>
  <path class="cls-3" d="M140.54,124.67c.31.11.97-.11,1.38,0v2.32c-.26-.47-1.59-1.09-1.38-2.33h0Z"/>
  <path class="cls-15" d="M109.87,113.97c-.05-.16-.67-.44-.47-.93l2.26-.4c.21.18,0,.8.07.86.12.11.85,0,1.17.46.46.66.09,1.41.23,1.87-.91-.4-1.3-1.38-1.39-2.33l-1.86.47h-.01Z"/>
  <path class="cls-3" d="M55.51,104.21c-.03,1.24-.7,1.58-1.86,1.39v-.93c.61-.1,1.26-.29,1.86-.47h0Z"/>
  <path class="cls-15" d="M102.44,99.09h.93c.12.82-.38,1.59-.46,2.33h-.46c.02-.77-.02-1.55,0-2.33h-.01Z"/>
  <path class="cls-3" d="M62.48,67c1.18-.36.85.86.93.93l-.23.46c-2.18.27-.69-.75-.69-1.39h-.01Z"/>
  <path class="cls-15" d="M117.77,127.92v-1.86c.15.14,1.15.08,1.38.7-.2.49-1.25.93-1.38,1.16Z"/>
  <path class="cls-15" d="M62.02,107.46l.46,1.86h-.93c.15-.66.3-1.22.46-1.86h.01Z"/>
  <path class="cls-3" d="M54.58,50.26c0-.62,0-1.24,0-1.86h.92v.93c-.26.24-.41.81-.93.93h.01Z"/>
  <path class="cls-15" d="M110.34,115.83h-.93l.46-.93c.05.15.31.55.46.93h.01Z"/>
  <path class="cls-1" d="M124.74,20.03c-.14-.05-.33.05-.46,0l.24-.46.23.46h-.01Z"/>
  <path class="cls-5" d="M62.95,143.27c0,.65.23,4.65,0,4.65H12.54c-.38,0-1.85-2.02-2-2.66-.34-1.47.09-1.53.37-2.45l52.04.47h0Z"/>
  <path class="cls-13" d="M117.77,148.85c3.23,1.97,5.38,7.03,9.16,7.8,3.44.7,9.29.18,12.67-.82.23.25-.2,3.44,0,4.33.1.4.97.14.96.98-.05,4.7-.81,11.99-1.47,16.73-.64,4.58-8.19,5.67-12.04,5.86l4.42-3.71c.93-1.23,2.01-2.62,2.34-4.17.38-1.8.48-14.35-.33-14.84-3.52-.2-6.57-.69-9.44-2.87-3.13-2.38-4.93-5.8-6.28-9.29Z"/>
  <path class="cls-13" d="M84.32,153.97c3.44,2.74,7.76,3.17,11.84,4.19.62.16.75-.39.71.69-.06,1.69-1.42,3.43-.94,5.35h-1.87c.82,2.02.03,3.5-.02,5.33-.11,3.9,1.5,10.37-3.58,11.32-1.66.31-2.92-.57-3.98-.38-.16.03-.91,1.02-2.64,1.41l4.09-4.05c1.16-2.21,1.41-12.97.82-15.52-.68-2.94-4.21-4.79-4.45-8.34h.02Z"/>
  <path class="cls-16" d="M24.85,155.83c.2-.95.48-5.87,1.21-6.07h37.06l.75,3.28H30.66c-.83.73-.92,1.8-1.16,2.79h-4.65Z"/>
  <path class="cls-16" d="M143.33,153.04l.51-3.2c2.15.16,5.11-.42,7.14-.04,1.76.33,2.41,2.89,3.71,4.19.77.77,2.58,1.55,2.9,1.98.49.66,2.96,12.69,2.94,14.05,0,.39,0,.78-.02,1.16l-4.2-.22-4.16-17.92h-8.83.01Z"/>
  <rect class="cls-9" x="12.3" y="173.03" width="24.16" height="4.19"/>
  <path class="cls-16" d="M148.44,173.03l20.94.2.44,3.98c-6.81-.07-13.64.08-20.45,0-.83-1.24-.62-3.21-.93-4.19h0Z"/>
  <path class="cls-7" d="M173.53,128.85c2.28,5.95,2.41,9.53.93,15.81l-4.65.47c1.39-5.8.88-11.48-.93-17.21l4.65.93Z"/>
  <path class="cls-7" d="M142.4,128.39c2.42,6.24,2.17,10.94.46,17.21h-3.72c1.24-4.56.24-12.76-1.39-17.21h4.65Z"/>
  <path class="cls-9" d="M29.5,155.83c-1.23,4.99-1.78,10.26-3.23,15.14l-4.68-.03c.6-5.14,2.19-10.09,3.26-15.11h4.65Z"/>
  <path class="cls-7" d="M147.51,171.17c-.47,1.03.9,1.75.93,1.86.31.98.1,2.95.93,4.19-2.63-.03-5.31.21-7.92-.22-.76-.47.41-4.77.49-5.83h5.58,0Z"/>
  <path class="cls-5" d="M174.46,144.67c-.89,3.76-2.81,9.97-7.65,9.78-.7-.03-1.36.31-1.17-.71,2.62-2.18,3.42-5.42,4.18-8.61l4.65-.47h0Z"/>
  <path class="cls-5" d="M142.86,145.6c-1.3,4.77-2.41,10.32-8.83,9.07,1.83-2.21,4.37-6.35,5.11-9.07h3.72Z"/>
  <path class="cls-7" d="M176.78,146.53c.55-6.37,1.3-13.05-1.4-19.06.99-1.08,3.46,5.35,3.6,5.93.96,3.93.84,10.1-2.2,13.14h0Z"/>
  <path class="cls-7" d="M132.17,147.45c-.87.11-.32-.92-.25-1.41.26-1.74.97-3.69,1.12-5.39.41-4.66-1.15-8.59-2.74-12.84l-1.16-1.28c6.39,4.79,6.21,14.15,3.02,20.92h.01Z"/>
  <path class="cls-5" d="M174.55,172.93c.57.35,1.55.03,2.23.1v3.73h-4.65l-.46-5.11c2.23-.74,2.38.98,2.88,1.28Z"/>
  <path class="cls-5" d="M10.45,176.76l-4.67.27c-1.82-3.71.95-4.82,4.24-4.26l.44,3.99h0Z"/>
  <rect class="cls-5" x="38.79" y="173.03" width="4.65" height="3.73"/>
  <path class="cls-7" d="M171.67,125.13c.23.35.31.65.46.93l-3.72.47c-.65-1.36-2.97-2.88-3.25-4.65,1.02.29,2.39.31,3.23.72.96.46,1.83,2.32,3.27,2.54h0Z"/>
  <path class="cls-7" d="M133.57,121.88c1.15-.45,6.25,2.49,6.5,3.02.08.16.17,1.17-.23,1.16h-3.02c-.62-1.2-2.28-2.53-3.25-4.19h0Z"/>
  <path class="cls-5" d="M144.72,147.92c.42-3.21,3.32-2.17,5.78-2.35l.73,2.35h-6.51Z"/>
  <path class="cls-16" d="M172.13,126.06c.73,1.29.76,1.14,1.39,2.79l-4.65-.93c-.1-.31-.4-1.26-.46-1.4l3.72-.47h0Z"/>
  <path class="cls-16" d="M165.16,121.88c-.33-.09-1.73-.27-1.16-.93,1.95.1,5.24.52,6.59,2,.46.51.65,1.53,1.07,2.19-1.44-.22-2.31-2.07-3.27-2.54-.84-.41-2.21-.43-3.23-.72Z"/>
  <path class="cls-16" d="M160.52,136.3l-.2,3.28-2.12.43c.74-.85.88-1.76,1.28-2.69.29-.67-.3-1.27,1.04-1.02h0Z"/>
  <path class="cls-7" d="M176.55,146.99c.3.16.3.31,0,.47v-.47Z"/>
  <path class="cls-5" d="M25.19,61.05c3.38-.45,4.51,3.63,4.76,6.2.27,2.73.6,6.63-2.66,7.58-2,.59-7.4-3.04-8.03,2.63-.45,4.02,1.26,4.07,4.44,5.34l.57,5.78c-7.1,9.19-12.28,5.08-11.5-5.52.34-4.57,3.48-14.27,6.49-17.69.83-.95,4.84-4.17,5.92-4.32h0Z"/>
  <path class="cls-7" d="M20.2,61.42c-4.62,3.57-8.91,15.17-9.29,20.93-1.67.1-3.21-.64-4.65-1.4.61-4.88,1.51-10.6,4.65-14.42.84-1.03,4.84-5.34,5.71-5.71,1.41-.59,2.3.05,3.58.59h0Z"/>
  <path class="cls-5" d="M10.91,82.35c-.22,3.27-.19,6.68.93,9.76-4.83.58-6.27-5.86-6.07-9.59.05-.87.47-1.36.5-1.57,1.44.76,2.97,1.49,4.65,1.4h-.01Z"/>
  <path class="cls-7" d="M4.41,79.09h-2.32c.04-3.69.96-6.23,2.79-9.3,1.32-2.22,1.93-2.78,3.72-4.65-1.89,4.94-3.35,8.65-4.18,13.95h-.01Z"/>
  <path class="cls-5" d="M65.27,75.37c-1.29-.13-2.86-.5-3.96-.5-2.82,0-4.46,2.22-6.29,3.98l-2.3,3.03c.59-4.22,8.31-13.43,12.08-7.44.13.21.07.74.46.93h.01Z"/>
  <path class="cls-5" d="M56.91,80.95l-2.66,5.94-1.98,11.26c-1.5-5.96.37-12.89,4.18-17.67,0,0,.46.47.46.47Z"/>
  <path class="cls-16" d="M20.2,61.42c-1.28-.55-2.18-1.18-3.58-.59-.87.36-4.87,4.68-5.71,5.71,1.71-4.42,6.75-9.93,11.61-6.28-.5.82-1.72.7-2.31,1.16h-.01Z"/>
  <path class="cls-16" d="M47.15,77.23c2.04-4.09,6.23-8.93,11.15-6.04.15.74-.94.5-1.39.46-.51-.05-1-.58-2.04-.46-2.05.24-6.75,4.46-7.29,6.51l-.44-.47h0Z"/>
  <path class="cls-5" d="M4.41,79.09c-.27,1.72-.37,2.66-.46,4.43-.03.56.35,2.02-.69,1.62-.62-.24-1.18-5.14-1.17-6.05h2.32Z"/>
  <path class="cls-16" d="M24.85,78.16c-.22.6-.11,1.63-.51,2.29-.94.22-2.82-.21-3.15-1.21-.44-.95.15-1.38.41-2.01.73,1.07,2.12.98,3.25.93Z"/>
  <path class="cls-9" d="M24.85,78.16c-1.14.05-2.53.14-3.25-.93.18-.45-.02-1.12.76-1.36l3.43,1.14c.19.78-.89,1.03-.93,1.15h-.01Z"/>
  <path class="cls-16" d="M4.87,69.79c-.69-1.93,5.47-8.8,6.5-7.9-.57,1.45-1.81,2.23-2.79,3.25-1.79,1.87-2.4,2.43-3.72,4.65h.01Z"/>
  <path class="cls-2" d="M67.13,75.84c-.62-.12-1.23-.4-1.86-.47-.4-.19-.33-.72-.46-.93l1.39-.47c.08.28.67.83.93,1.86h0Z"/>
  <path class="cls-7" d="M61.09,76.77l-4.18,3.25c-.73-.76,3.29-3.43,4.18-3.25Z"/>
  <path class="cls-7" d="M56.91,80.95l-.46-.47.46.47Z"/>
  <path class="cls-6" d="M150.3,36.78l-3.12,4.58c-2.08-.23-8.09-4.1-8.03-6.16.17-4.98,3.59-1.15,5.71-.2,1.71.77,3.65,1.22,5.43,1.78h0Z"/>
  <path class="cls-12" d="M145.65,25.15c.71-.31,3.1-1.89,3.43-1.83,1,.96,3.32,4.29,2.55,5.5-1.34.39-2.75.75-4.12.98l-3.25-.47,1.39-4.18Z"/>
  <path class="cls-6" d="M145.65,25.15l-1.39,4.18,3.25.47c-2.22.38-8.41,1.96-7.38-2.03.25-.72,4.46-2.16,5.52-2.62Z"/>
  <path class="cls-10" d="M77.51,65.44c-6-5.6-1.68-17.94,5.1-20.85,10.43-4.48,20.91,4.99,19.86,15.69-.98,9.96-19.34,10.41-24.95,5.16h-.01ZM88.15,57.59c-.61-.61-.78-2.95-.5-3.77.41-1.22,5.72-2.19,3.88-5.89-.96-1.92-11.85-2.13-10.83,1.97.71,2.86,4.98,2.19,4.6,6.64-.26,3.04-4.58,1.99-4.22,3.71,1.86,2.31,4.49-1.1,5.8-1.14,1.54-.05,3.84,2.26,6.9,1.3l.56-.36.2-1.42c-1.53.06-5.3.06-6.39-1.04Z"/>
  <path class="cls-4" d="M73.01,39.66c4.98.68,4.74,8.9-.98,7.81-3.39-.65-2.53-7.15.98-7.81Z"/>
  <path class="cls-2" d="M105.12,39.65c4.28-1.05,5.78,8.19-.1,7.8-3.64-.24-3.54-6.91.1-7.8Z"/>
  <path class="cls-2" d="M64.34,125.13c.96-2.9,3.95-5.02,5.5-7.75,1.1-1.94.96-5.41,3.79-4.81.26.24-.74,3.02-.93,3.72-.04.14.03.31,0,.47-.67.2-.92.72-.93,1.4-.92.9-1.39,2.08-1.86,3.26l-4.18,4.19c-.52-.03-.93-.3-1.39-.47h0Z"/>
  <path class="cls-15" d="M86.64,133.5c-1.48-.1-2.87-.33-4.18-.47.15-.68,1.28-.78,1.4-1.26.22-.87-.62-2.69.69-2.47,1.79.31,2.28,2.73,2.09,4.19h0Z"/>
  <path class="cls-15" d="M98.72,107.93c2.03.82,3.12.58,4.65-.93,0,.07.47.33.47.71l-2.66,2.49-2.73-1.36c-.44-.59.24-.78.27-.91Z"/>
  <path class="cls-15" d="M72.7,131.64c-2.51-.59-3.26-.83-5.58-1.86,2.14-1,5.11-.83,5.58,1.86Z"/>
  <path class="cls-15" d="M117.31,116.76l.98-2.72c4.04-.36,2.16,3.47-.98,2.72Z"/>
  <path class="cls-15" d="M65.74,125.6l4.18-4.19s.45.31.38.62c-.11.49-1.77,2.14-1.74,3.36-.5.36-2.09.24-2.82.2h0Z"/>
  <path class="cls-15" d="M112.2,132.57c-1.61.39-2.18.78-4.18.93.4-2.51,2.47-2.1,4.18-.93Z"/>
  <path class="cls-15" d="M103.37,103.74h.93v1.6l-.94.26c0-.62-.03-1.24,0-1.86h.01Z"/>
  <rect class="cls-15" x="106.16" y="103.28" width="1.39" height=".93"/>
  <rect class="cls-15" x="101.05" y="111.65" width=".92" height="1.39"/>
  <path class="cls-15" d="M72.7,116.76c-.41,2.38-.45.92-.93,1.4,0-.68.26-1.19.93-1.4Z"/>
  <path class="cls-15" d="M102.91,101.88h.93c.2.53-.46.88-.46.93-.45-.15-.44-.53-.46-.93h-.01Z"/>
  <path class="cls-15" d="M102.44,96.76l.93.24v.69h-.93v-.93Z"/>
  <path class="cls-15" d="M97.33,133.97v-.93h.69l.24.93h-.93Z"/>
  <rect class="cls-15" x="86.65" y="95.37" width=".92" height=".93"/>
  <path class="cls-15" d="M103.37,133.5v-.93h.69l.24.93c-.31.02-.62-.02-.93,0Z"/>
  <path class="cls-15" d="M103.37,90.25v.93h-.93c.03-.3-.07-.62.02-.91.29-.11.68.05.91-.02Z"/>
  <path class="cls-10" d="M113.13,146.99c-10.36,7.18-21.56,5.47-32.49.65-.62-.27-1.08-.95-1.43-1.11h8.13c5.79.93,11.8,1.27,17.68.95,2.5-.14,5.77-1.45,8.11-.48h0Z"/>
  <rect class="cls-3" x="69.46" y="161.88" width=".46" height="1.39"/>
  <path class="cls-14" d="M93.61,20.49c-1.05-.05-2.42.5-2.36-.88l-.88-.05c.04,1.37-.99,1.11-1.4,1.39-.09-.39.06-.95,0-1.39-1.42-.38-.8,1.58-2.32,1.39-.16-.27-1.2-.34-.88-1.54,1.46-2.69,3-.91,4.37-.96,1.13-.04,2.75-1.98,3.89.53.31.97-.34,1.2-.41,1.51h-.01Z"/>
  <path class="cls-11" d="M88.97,20.96c.22.97.04,1.62,1.16,2.32l.7-2.33,2.32.93c-.46.63-2.33,2.3-3.01,2.32-1.53-.18-2.19-1.28-3.03-2.32.76-.06,1.27-.53,1.86-.93h0Z"/>
  <path class="cls-7" d="M86.64,20.96c1.52.18.9-1.77,2.32-1.39.07.44-.09,1,0,1.39.42-.29,1.44-.02,1.4-1.39l.88.05c-.06,1.38,1.31.83,2.36.88-.15.62.02.72-.46,1.4l-2.32-.93-.7,2.33c-1.12-.7-.94-1.35-1.16-2.32-.59.4-1.1.87-1.86.93-.28-.34-.31-.66-.46-.93v-.02Z"/>
  <path class="cls-10" d="M134.03,15.84c-1.12,1.65-2.22,5.76-5.1,4.43-.19-.09-2.84-2.21-3.26-2.56-.05-.05.07-.58-.14-.77-.77-.68-3.1-1.68-3.11-2.69,2.14-6.65,10.09-4.53,11.62,1.6h0Z"/>
  <path class="cls-3" d="M126.02,134.55c2.89,2.78,1.12,9.95-3.27,8.62-3.59-1.08-3.74-9.38,1.28-9.23.58.02,1.57.2,1.99.6h0ZM124.68,135.9h-1.73c-.77,1.88-1.31,6.4,1.73,5.45.76-1.71.76-3.73,0-5.45Z"/>
  <path class="cls-2" d="M60.3,86.21c4.76-4.41,6.84,4.81,3.1,7.52-5.23,3.78-5.99-4.84-3.1-7.52ZM62.26,87c-.92.19-3.13,4.67-1.39,5.58,1.83.55,2.77-3.55,2.5-4.81l-1.1-.77h-.01Z"/>
  <path class="cls-2" d="M88.15,57.59c1.09,1.1,4.86,1.11,6.39,1.04l-.2,1.42-.56.36c-3.06.96-5.36-1.35-6.9-1.3-1.31.04-3.94,3.45-5.8,1.14-.36-1.71,3.95-.66,4.22-3.71.38-4.45-3.89-3.78-4.6-6.64-1.02-4.11,9.88-3.9,10.83-1.97,1.84,3.7-3.47,4.67-3.88,5.89-.28.83-.11,3.16.5,3.77Z"/>
  <path class="cls-16" d="M124.68,135.9c.76,1.72.76,3.73,0,5.45-3.04.95-2.5-3.57-1.73-5.45h1.73Z"/>
  <path class="cls-16" d="M62.26,87l1.1.77c.28,1.26-.67,5.36-2.5,4.81-1.74-.9.47-5.38,1.39-5.58h.01Z"/>
</svg>