<?xml version="1.0" encoding="UTF-8"?>
<svg id="_레이어_1" data-name="레이어 1" xmlns="http://www.w3.org/2000/svg" viewBox="0 0 98.31 137.91">
  <defs>
    <style>
      .cls-1 {
        fill: #575a57;
      }

      .cls-2 {
        fill: #fdfdfc;
      }

      .cls-3 {
        fill: #fefdfd;
      }

      .cls-4 {
        fill: #313630;
      }

      .cls-5 {
        fill: #edebe7;
      }

      .cls-6 {
        fill: #9b8364;
      }

      .cls-7 {
        fill: #fdfdfb;
      }

      .cls-8 {
        fill: #192228;
      }

      .cls-9 {
        fill: #343732;
      }

      .cls-10 {
        fill: #9e8364;
      }

      .cls-11 {
        fill: #746f65;
      }

      .cls-12 {
        fill: #bbc4c7;
      }

      .cls-13 {
        fill: #bec7c9;
      }

      .cls-14 {
        fill: #9d8362;
      }

      .cls-15 {
        fill: #fcfbfa;
      }

      .cls-16 {
        fill: #42443f;
      }

      .cls-17 {
        fill: #fcfcfa;
      }

      .cls-18 {
        fill: #6d2944;
      }

      .cls-19 {
        fill: #1f262d;
      }

      .cls-20 {
        fill: #4d5048;
      }

      .cls-21 {
        fill: #abb5b8;
      }

      .cls-22 {
        fill: #353733;
      }

      .cls-23 {
        fill: #a6afb4;
      }

      .cls-24 {
        fill: #bcc6c7;
      }

      .cls-25 {
        fill: #f0eaea;
      }

      .cls-26 {
        fill: #40433e;
      }

      .cls-27 {
        fill: #f2f2ef;
      }

      .cls-28 {
        fill: #f7f7f5;
      }
    </style>
  </defs>
  <path class="cls-19" d="M37.98,113.69c-4.75,3.16-5.28,3.66-7.31,9.08-.66,1.78-1.22,3.59-1.82,5.39-.27.59-2.18.35-2.37.62-.53,3.56-.43,6.23-4.3,7.53-4.81,1.61-13.34,2.21-18.22.87-5.63-1.54-4.73-6.32-.64-9.13,1.09-.75,3.23-1.48,3.6-2.8.27-.97-1.68-1.2-1.82-2.14-.08-.52,1.02-4.53,1.24-5.37.85-3.33,1.85-7.39,3.24-10.49,1.71-3.8,4.51-7.22,7.05-10.49,0-.16-2.12-1.01-1.53-2.48,2.56-3.47,5.36-6.76,8.57-9.65.01-.87.04-1.66.2-2.52.11-.58.66-1.8.64-2.21-.02-.37-.58-1.15-.74-1.58-1.92-5.13.94-6.4,1.99-10.66.55-2.24.64-4.88.96-7.2.11-.76.51-2.12.52-2.76,0-.19,0-.24-.12-.4-.2-.26-1.6-1.17-1.98-1.42-4.18-2.77-12.23-6.23-14.4-10.76-1.85-3.86-1.21-8.63,1.54-11.89,4.68-5.53,12.8-3.91,19.16-3.35.34-1.63,1.94-2.89,2.53-4.34.64-1.57.85-3.89,1.43-5.65.51-1.55,1.24-3.01,1.91-4.5l-.13-.4c-5.31-3.58-4.44-11.85,1.44-14.32,4.43-1.86,8.76.17,10.33,4.61l2.89-1.04c-.34-2.68,3.82-2.19,5.46-1.55-.58-3.48,3.03-2.04,4.8-1.06,1.12.62,2.32,1.94,3.1,2.34.72.38,2.64.66,3.62,1.01,1.53.53,3.27,1.3,4.6,2.2,2.03-4.66,7.38-5.95,11.58-3.16,4.93,3.28,5.33,10.61.24,13.91-.48.31-1.87.74-1.84,1.28.02.35.61,1.6.75,2.12.68,2.52.69,4.85,1.19,7.25.18.86,1.12,2.03,1.47,2.88.64,1.54,1.14,3.74-1.23,3.74.28,1.52.79,3.74-.81,4.69.69.88.47,1.92.72,2.95.14.56.57,1.25.61,1.85.03.37-.16.61-.06.98.07.23,1.16,1.46,1.42,1.86,4.57,7.06,5.42,18.32,1.32,25.75-2.05,3.72-5.81,6.48-9.71,8.04.17,1.79-.84,3-2.03,4.16v3.65c2.26,3.08,4.46,6.22,6.31,9.58.18.76-.88,1.56-1.43,1.97,1.2,1.88,2.46,3.74,3.55,5.69,2.79,5,4.43,10.65,6.45,16,.07.61-.63.95-.97,1.37-.11.22.44,1.2.63,1.41.7.77,3.17,1.71,4.25,2.55,2.13,1.67,3.8,5.6,1.17,7.52-3.56,2.59-13.33,1.76-17.56.99-1.42-.26-3.43-.66-4.58-1.54-2.03-1.54-2.11-3.91-2.8-6.18-.36-.43-1.94.32-2.71-.69-.9-1.18-1.84-3.81-2.64-5.25-1-1.82-2.19-3.98-3.77-5.34-1.8-1.56-4.22-2.94-6.24-4.21-.9.2-3.07.99-3.88.75-1-.3-.47-2.17-.88-2.93-.15-.21-1.58-.48-1.92-.53-2.08-.31-6.27-.63-7.97.79-.28.23-.1.68-.64.96-1.32-.2-2.37.95-3.4,1.63ZM35.4,11.01c.04.09-.1.32.13.27l.14-.41c-.03.41.75.96.79,1.17s-.19.4-.04.73c.04.1.88.91.99.94.81.22,1.76-1.13,2.21-1.61,1.68-1.77,3.08-3.27,5.17-4.62.9-.58,1.91-1.06,2.86-1.56.4-.43-.57-1.94-.9-2.37-.47-.6-1.07-1.11-1.69-1.51-1.11-.72-2.11-1.03-3.46-.95-4.84.28-8.34,5.46-6.19,9.93ZM57.15,3.8c-.91-.29-1.94-.62-2.91-.53-.22.02-1.16.25-1.25.39-.26.38.23.64.35.82.22.33.12.4.58.71.49.33,1.66.48,1.61,1.12-.07.87-1.91.04-2.32-.2-.45-.27-.55-.74-1.14-.68-.34.03-2.08.71-2.53.89-7.39,2.92-11.7,8.53-13.66,16.11-.28,1.06-.34,2.35-.72,3.36s-2.53,3.44-2.59,4.08c-.01.15,1.17.93,1.3.97.34.1.77,0,1.13.03,3.13.33,5.93.95,8.23,3.26l1.29,1.91c-.07.47.33,1.19.39,1.71.12,1-.12,1.97-.39,2.91,0,.02-.25.07-.26.33-.05,1.16,1.01,3.75,1.35,4.98.15.55.34,2.32.68,2.65.52.29,3.44,1.17,3.53,1.64-.28,1.03-2.6-.61-2.84.15.09.71.3,1.49.51,2.17.19.6.77,1.65.97,2.23.05.14.01.42.09.65.84,2.38,1.78,4.72,2.63,7.1l.34-.13c1.82-2.27,4.11-4.08,6.31-5.93.12-.1.12-.31.14-.33.63-.52,1.44-.97,2.08-1.52.18-.16.37-.22.36-.52.2-.06.33-.02.59-.15s2.47-1.68,2.53-1.82c.03-.06.06-.34-.06-.34-.56.19-1,.14-1.56,0,0-.15-.02-.27.06-.41.17-.27,5.27-1.45,6.05-1.69,5.16-1.58,10.63-3.96,13.6-8.7.28-.45,1.1-2.26,1.28-2.4.38-.3.89.35,1.23.53.78-.49.68-1.66.61-2.49-.06-.62-1.06-2.91-.07-2.92l1.06.39c.91-.23.08-1.84-.15-2.39-.35-.81-1.01-1.75-1.24-2.57-.79-2.87-.57-6.09-1.77-9.11-.6-1.5-.88-.41-1.36-.95-.87-.97,1.11-1.07,1.63-1.23,5.34-1.71,6.58-8.5,2.32-12.17-.5-.43-.71-.74-1.36-.95-1.13-1-3.1-1.09-4.54-.93-2.82.3-4.87,2.93-5.39,5.56-.14-.04-.38.04-.58-.03-.66-.21-.2-1.15-.46-1.35-1.93-.94-3.79-1.8-5.87-2.4-.61-.18-1.58-.23-2.03-.41-.48-.2-1.67-1.43-2.24-1.83-.83-.57-2.88-1.74-3.84-1.74-1.37,0,.85,2.35.22,2.8-.25.18-1.5-.49-1.91-.62ZM11.06,38.34c-1.08,5.2,1.7,9.48,6.63,11.11.68.23,4.83,1.25,5.19.99-.82-1.47-.87-2.97-.82-4.62.2-5.67,3.71-11.97,8.84-14.55l-.13-.2c-7.29-1.21-17.79-2.01-19.71,7.28ZM31.05,32.63c-.32.03-.41,0-.73.16-1.54.71-3.74,3.55-4.63,5.02-1.45,2.39-2.25,5.09-2.53,7.88.24.21,4.54-.58,5.19-.72.75-.16,1.65-.36,2.37-.62.2-.07.19-.27.28-.29.86-.2,1.22.69,1.82,1.14,1.45,1.08,3.81,1.49,5-.15-.16-.51-.04-1.1-.14-1.58-.04-.21-.21-.28-.25-.36-.2-.44-1.14-1.79-.69-2.12.76-.17,1.35.85,1.64,1.44.31.63.56,1.32.54,2.04,2.31-.07,3.32-2.19,2.55-4.25-.16-.44-.35-.51-.51-.78-.09-.14-.07-.37-.27-.61-.37-.45-1.02-.45-.82-1.29.65-.08,1.2.22,1.63.68.6.65.9,1.67,1.29,2.45,1.83-1.26.94-4.56-.75-5.58,0-.04,0-.09,0-.14.06-.32,0-.33-.27-.62-1.9-1.99-6.98-2.68-9.59-2.38-.31.04-1.16.25-1.15.68ZM64.35,53.03c-.78.33-2.12,1.36-2.85,1.9-.16.12-.33.19-.41.41-.03.02-.1-.02-.14,0-.79.52-1.45,1.18-2.17,1.77-2.09,1.69-3.74,3.2-5.57,5.17-.22.23-1.44,1.38-1.46,1.56l1.12,2.52c.52-.3,1.09-.65,1.69-.75.55-.09,1.26.04,1.68-.09.34-.1.65-.7.91-.92.56-.49,1.09-1,1.63-1.5.94-.85,1.88-1.78,2.85-2.58.68-.56,1.59-1.23,2.31-1.77,6.54-4.9,14-8.39,20.76-12.96.6-.99-.11-1.66-.37-2.41s0-1.53-.23-2.29c-.09-.3-.48-1.03-.84-.82-.08.04-.66,1.3-.83,1.55-1.91,2.86-4.86,5.11-7.93,6.62-3.4,1.67-7.22,2.1-10.15,4.6ZM43.42,42.97c-.08-.33.06-.89-.2-1.22-.59.24-.5.97-.75,1.5-.57,1.22-1.57,1.87-2.8,2.31-.16.22.42,1.62.49,1.91.03.15-.01.37.03.57,1.86,7.93,4.73,15.63,8.54,22.81.23.13,1.22-.69,1.62-.8.5-.14,1.11-.19,1.63-.27.12-.02,1.15,0,1.09-.2-3.9-8.31-6.96-17.05-9.38-25.91-.07-.26-.24-.55-.27-.68ZM31.32,45.28c-2.63.83-5.39,1.43-8.16,1.49.04,2.11.56,4.74,3.22,3.43,1.94-.96,3.83-3.1,4.94-4.92ZM33.22,51.53c.35-1.47,1.07-2.86,1.36-4.35-.9-.09-1.65-.6-2.38-1.06-1.92,2.7-4.69,5.8-8.3,5.69-1.45-.04-2.97-.54-4.41-.68l7.97,5.02c.25.06.16-.02.22-.16.4-.9.74-2.78,1.46-3.44.13-.12.19-.25.41-.2.12,1.09-.3,2.09-.54,3.13-.5,2.13-1.03,4.15-1.34,6.34-.41,2.89-.3,5.28-1.45,8.07-.64,1.55-1.56,2.78-1.83,4.49-.31,1.93.45,4.63,2.05,5.9s4.1,2.24,5.97,3.07c.05-.21-.17-.08-.27-.24-.07-.11-.06-.31-.14-.44l.11-.09.03-.59h.27c.36.57,1.58,1.94,2.13,2.29,1.09.7,2.78.89,3.99,1.38.09-.07.45-1.88.55-2.18,1.04-3.1,2.78-6.59,4.49-9.38.1-.17,1.05-1.37.95-1.49-.16,0-.32-.07-.45-.16-1.46-.98-2.95-1.98-4.3-3.11-.11-.09-.24-.26-.41-.41l-.14-.68h.41c.79.6,1.64,1.18,2.45,1.77.65.47,4.9,3.2,5.01,3.48.34.81-1.32-.18-1.44-.2-.49-.07-1.02,1.33-1.26,1.75-1.68,2.94-2.99,5.46-4.08,8.7-.24.72-.56,1.42-.68,2.17.87.06,2.7.92,3.46.82.06,0,.96-.4,1-.44.1-.12.33-1.18.44-1.46.77-1.98,1.7-3.99,2.72-5.85.18-.32.73-.82.8-1.19.07-.4-.16-1.51-.12-2.14.03-.35.26-.68.26-.95,0-.35-.33-.92-.34-1.38s.29-.95.2-1.44c-.1-.53-.8-1.48-1.06-2.01-2.4-4.85-4.53-9.91-6.12-15.1-.62-2.05-1.26-4.18-1.77-6.26-.19-.79-.32-1.64-.41-2.45-.59.23-.97.69-1.59.92-.53.19-1.1.26-1.65.32-.16.14-1.03,3.52-1.24,4.06-.27.69-.77,1.53-1.16,2.18-.14-.64.05-1.4.2-2.04ZM73.32,53.98c-.73.44-1.45.91-2.17,1.36-2.26,1.41-4.38,2.76-6.52,4.35-.14.1-.22.23-.27.27-.08.06-.2.08-.27.14-.83.63-1.73,1.29-2.45,2.04-.09.04-.2.08-.27.14-.22.15-.43.29-.54.54-.13.1-.2.21-.27.27-.67.55-1.01.85-1.63,1.5-.16.16-1.08.91-1.08,1.02l2.93,1.26.67-.92c2.68-1.13,5.58-1.83,8.4-2.61.37-.21,1.37-2.84,1.7-3.47.29-.53.91-1.61,1.25-2.08.24-.35,1.36-1.53,1.7-1.63.24-.03.21,0,.21.2,0,.52-2.16,4.17-2.59,5.1-.04.09-.09.18-.14.27-.09.2-.65,1.11-.54,1.22.47-.06,1.03-.23,1.49-.27.98-.08,1.89-.08,2.85.14.41.09,1.2.12,1.22.68-1.51.25-2.97.06-4.51.31-2.96.48-5.97,1.86-8.94,2.41-.03.19-.03.17.09.28.53.5,1.13.91,1.6,1.5,2.18,2.73,3.37,7.43,3.48,10.87.02.66.05,1.46,0,2.11-.02.3-.61,2.8-.47,2.79,7.28-1.74,16.57-4.62,20.03-11.92,1.7-3.6,2.29-8.63,1.92-12.56-.09-.93-.35-1.81-.54-2.72-.58-2.76-1.36-5.51-2.88-7.93-.21-.34-1.23-1.87-1.54-1.86-3.78,2.7-7.93,4.82-11.89,7.21ZM62.72,67.72c-.69.05-1.68.32-2.23.26-.76-.08-1.7-.83-2.46-1.08-1.55-.51-3.34-.61-4.68.44l.8,2.01,1.27-.52.34.35c.17.66-1.55,1.31-2.05,1.44-1.67.43-3.94-.05-4.62,2.04-.47,1.44.29,2.03,1.61,2.26.59.1,1.76.02,2.28.17s.05.84-.39.93c-.55.1-1.96.02-2.51-.13-.18-.05-.93-.58-1.09-.41-.34,3.14,1.47,4.04,4.29,3.94.26,0,.55.14.47-.27.34.09.73.13,1.09.14l-.41.68c-.26,0-.73.28-1.08.35-.54.1-1.12.04-1.64.26,2.86,2.86,6.98,1.84,10.16.1l5.75-.58c.03-4.42-1.13-9.18-4.22-12.44-.43-.2-.54.06-.68.07ZM47.9,80.5c-.93,1.73-1.51,2.7-2.17,4.62-.05.13-.44.78-.41.81.62-.02,1.31.32,1.84.4.5.08.95-.04,1.53.1.84.21,1.45,1.06,2.03,1.23.94.28,4.21.27,5.27.18,2.15-.2,4.03-2.35,6.04-3l-.81,1.02-2.45,1.7c-.04.22.18.13.34.13,2.34.13,6.4-.57,8.8-.99,1.83-.32,7.19-1.29,8.47-2.27.69-.53,1.36-1.4,1.55-2.26.05-.21.02-.21-.19-.19-1.71.69-3.43,1.36-5.2,1.87-1.34.38-4.55,1.28-5.81,1.13-1.85-.23-3.12-3.23-3.55-3.38-.89-.31-1.88.61-2.67.95-2.96,1.26-7.31,1.45-9.53-1.26-.25-.31-.39-.75-.62-1.01-.42-.47-1.31-.82-1.7-1.42-.28,0-.65,1.45-.75,1.63ZM42.05,87.72c-4.81-1.07-9.46-2.73-13.82-5.01-.55-.29-2.34-1.67-2.81-1.51s-.88,3.04-.29,3.66c.36.37,2.3,1.45,2.87,1.75,1.08.56,2.5,1.19,3.63,1.67,2.64,1.12,5.37,2.02,8.16,2.67.4-.4,2.55-2.82,2.26-3.23ZM67.48,81.32c-.87.07-1.95.03-2.79.14-.14.02-.29-.03-.2.2.19.49,1.78,2.22,2.36,2.12.45-.72.62-1.61.63-2.46ZM26.7,87.17c-.62-.34-1.64-1.22-2.18-1.43-.15-.06-.25-.11-.4,0-2.88,2.78-5.61,5.7-7.87,9.01-.08.3.85,1.11,1.2.92,1.55-1.59,3.09-3.44,4.76-4.9.92-.8,2-1.83,1.9.27-.12,2.63-1,5.51-1.09,8.17-.01.34.05.56.36.72l9.56,3.15c1-3.49,2.09-6.96,3.4-10.34.11-.28.74-1.25.54-1.49-3.45-1-7.03-2.37-10.19-4.09ZM76.04,86.08c-1.93.28-3.78.92-5.68,1.32-4.43.92-9.03,1.4-13.55,1.54-1.65.05-3.91-.22-5.45,0-.19.03-.23-.08-.2.21l2.4,3.31c4.39.13,8.8-.08,13.13-.83,2.3-.4,5.31-1.05,7.55-1.83.79-.27,1.8-.49,1.8-1.47v-2.24ZM46.54,87.17c-.9-.45-3.04.25-3.34,1.22-.41,1.33.43,3.4,1.37,4.36l.54-.41c.18.38.29.47.75.41-.24-1.86.03-3.81.68-5.57ZM47.86,87.46c-.18.05-.26.19-.35.33-.47.71-1,4.83-.3,5.29.2.13.87.09,1.13.03,1.51-.31,1.5-3.17,1.59-4.38-.31-.66-1.3-1.51-2.08-1.27ZM40.02,96.69c.18-.93.39-1.87.71-2.76.29-.81,1.3-2.36,1.44-2.92.06-.27-.1-.71-.18-.98-4.17,5.31-5.95,12.41-6.33,19.09.63.33,4.69,1.92,5.04,1.59.09-4.98.39-9.97,1.4-14.85.13-.6.9-2.99.87-3.29-.02-.19-.29-.68-.51-.77l-2.45,4.9ZM73.32,91.25c-1.01.31-2.1.58-3.13.82-2.89.66-5.94,1.11-8.91,1.36-2.37.2-4.77.26-7.14.14-.08.06.87,1.6.95,1.77,1.51,3.2,2.48,6.69,3.48,10.07,5.09-.25,10.01-1.59,15-2.46l.41-8.36c.14-.68.18-1.38,1.03-.89.98.57,2.37,2.85,3.46,3.68-.03.34.26.39.41.54.2.21.24.37.54.54.12.3.36.47.54.68.2.23.37.36.54.54.03.03,0,.19.07.27.4.5,1.23-.77,1.55-1.04.04-.22-.68-1.07-.8-1.27-1.13-1.86-2.27-3.67-3.53-5.44-.48-.68-.94-1.39-1.45-2.05-1.03.3-2.01.79-3.04,1.1ZM58.37,111.38c-.83-6.63-2.74-13.6-6.39-19.25-.1-.15-.96-1.52-1.09-1.42-.11.39-.19.7-.11,1.12.11.54,1.15,2.18,1.43,2.92.36.92.78,2.13.85,3.1.01.15.08.37-.13.34l-2.45-5.3c-.21-.15-.55.38-.51.59,2.08,6.16,2.85,12.67,3.36,19.13l5.03-1.23ZM37.57,92.88c-.56,1.31-1.07,2.63-1.53,3.98-.59,1.69-1.79,4.81-1.98,6.47-.08.69.41.66.86.98.93-3.78,1.85-7.65,3.6-11.15.15-.29.68-.85.68-1.15l-1.21-.33c-.14.4-.26.83-.42,1.21ZM17.45,97.5c-1.63,2.03-3.57,4.61-4.95,6.81-3.47,5.54-4.48,12.2-6.19,18.43.02.37,1.79,1.35,2.21,1.58,2.54,1.36,7.72,3.09,10.56,2.97,2.88.51,5.92.28,8.83.13,0-.44.16-.85.31-1.25.99-2.68,2.64-8.26,4.59-10.1,1.82-1.72,4.23-3.01,6.25-4.49-.82-.39-3.99-1.2-4.41-1.84-.46-.71.1-3.33.18-4.27l-.11-.14c-1.05-.05-1.65-.94-2.41-1.27-2.77-1.19-6.4-1.65-9.28-3.02-1.31-.62-1.17-1.13-1.09-2.51s.36-2.95.54-4.29c.11-.8.38-1.64.34-2.45-1.89,1.85-3.72,3.65-5.37,5.71ZM42.74,105.39c2.53.2,5.07.44,7.61.41.2,0,1.23.05,1.23-.07-.67-3.91-1.26-7.87-2.6-11.62-.7.2-1.4.06-2.09.13-.31.03-.51.28-.95.27-.65-.02-1.47-.53-2.04-.83-1.13,3.7-1.76,7.61-1.82,11.48.1.3.43.2.66.22ZM81.21,101.86c-.57-.71-.59-.34-1.1-.74-1.07-.84-2.87-3.53-4-4.71-.13-.14-.88-.97-1.02-.81.1,1.12-.08,2.24-.14,3.33-.04.81,0,4.37-.41,4.76-.22.2-2,.58-2.44.68-4.38,1.03-8.84,1.71-13.31,2.26-.14.21.84,4.05.66,4.95-.13.67-1.22.77-1.22.95,1.76,1.39,3.96,2.55,5.63,4.02,2.9,2.53,4.04,6.72,6.03,9.88.38.61.38.79,1.17.87,1.7.16,4.38.08,6.13,0,.84-.04,1.79-.25,2.65-.28.05.01.21.01.27,0,.07-.01.12-.07.14-.14,2.17-.32,4.2-.84,6.21-1.74.74-.33,4.05-2.09,4.12-2.82-2.08-6.13-4.16-12.2-7.56-17.73-.57-.93-1.14-1.87-1.82-2.73ZM41.92,106.34v2.86c3.31-.43,6.65-.37,9.92.27l-.16-2.36-.2-.21-4.6-.02-4.96-.54ZM90.18,125.52c-.07-.15-.03-.75-.34-.95-4.86,3.19-10.79,4.01-16.52,3.94.38,1.79.68,4.54,2.45,5.5,2.35,1.27,9.26,1.99,12,1.93.24,0,1.3-.09,1.39-.21.2-.56,0-1.13-.08-1.64-.05-.33,0-.48-.15-.87-.29-.72-1.2-1.14-1.01-1.85.56-1.12,2.16,1.4,2.32,2.04.07.27.05.43.07.68.04.58-.03,1.18,0,1.77.15.14,3.72-.47,3.99-.67.11-.08.23-.86.23-1.04,0-.34-.13-.46-.15-.61-.1-.66-.13-.99-.52-1.59-.22-.34-1.31-1.19-.72-1.61.93-.66,2.17,1.92,2.32,2.66.08.42.1.87.14,1.29.01.12-.09.46.2.34.05-.02.76-.6.82-.67.51-.57.49-1.06.47-1.77-.05-2.09-1.43-3.31-3.09-4.33-.75-.46-3.54-1.7-3.85-2.34ZM7.8,126.2c-1.08,2.44-6.17,2.21-6.52,6.8,0,.1-.17.18-.11.57.13.89,1.02,2.15,2.01,2.15,0-.58.04-1.2.14-1.77.19-1.07.74-2.62,1.95-2.83,1.06.65.07.99-.35,1.64-.3.47-.41.92-.52,1.45-.13.66-.25,1.21.03,1.87.25.28,4.02.74,4.18.58-.02-.73-.09-1.2,0-1.9.12-.87.73-2.78,1.83-2.73,1.28.06-.09,1.27-.32,1.6-.25.37-.35.7-.43,1.13s-.16,1.76.27,1.97c1.8.05,3.68-.02,5.49-.22,1.59-.18,6.72-1.07,7.83-1.96.06-.05,1.05-1.18,1.1-1.25.56-.88.65-3.36.94-4.44l-.32-.21c-.45.15-.91.15-1.38.14-5.25-.19-10.67-.87-15.36-3.4h-.33s-.08.68-.14.81Z"/>
  <path class="cls-5" d="M41.38,112.06c-.45.24-.88.05-1.07.16-.1.06-.41,1.09-1.01,1.37-.31.14-1.01.3-1.32.1,1.03-.68,2.08-1.83,3.4-1.63Z"/>
  <path class="cls-26" d="M57.15,3.8c.41.13,1.66.81,1.91.62.63-.46-1.58-2.8-.22-2.8.97,0,3.02,1.17,3.84,1.74.58.4,1.76,1.64,2.24,1.83s1.43.24,2.03.41c2.08.6,3.94,1.45,5.87,2.4.26.2-.2,1.14.46,1.35.2.06.44,0,.58.03.02,0,.09.24.21.26l.2-.05c1.43-3.86,5.5-6.17,9.51-4.83.65.22.86.52,1.36.95.9,2.61.74,5.29-.98,7.52-.2.26-.4.66-.79.37.83-1.49.77-3.06-.28-4.42-.27-.35-.95-1.02-1.36-1.16-.02-.31-.17-.48-.48-.54-1.85-.35-3.74.3-4.71,1.94-1.05,1.78-.23,1.87.46,3.4,4.1,9.09,5.22,19.48-1.92,27.36-5.8,6.41-17.03,9.26-25.32,7.23-1.45-.35-2.8-.95-4.19-1.46-.34-1.23-1.4-3.82-1.35-4.98,0-.26.26-.31.26-.33,1.04,2.67,3.81,4.2,6.52,4.7,2.47.46,6.49.57,8.3-1.3.03-.03.37.07.27-.27.27-.17.32-.22.54-.41,2.49-2.11,1.69-6.08.68-8.7-.15-.38-.21-.7-.41-1.09-1.12-2.27-2.2-3.51-4.62-4.35-3.55-1.24-6.66-.46-9.03,2.46-.66.81-2.1,3.37-2.25,4.34l-1.29-1.91c-2.3-2.31-5.09-2.93-8.23-3.26.19-.7-.81-.36-1.03-.67-.1-.19-.08-.39-.03-.59.15-.68,1.72-2.45,2.08-3.36.74-1.86.96-4.37,1.73-6.43,2.66-7.08,8.29-11.61,15.46-13.7.41.25,2.25,1.08,2.32.2.05-.64-1.12-.79-1.61-1.12-.46-.31-.36-.38-.58-.71.57-.43,1.55-.62,2.24-.65.42-.02,1.14.34,1.56-.03ZM46.54,26.65c1.42.47,1.9-.23.74-1.22-.5-.43-3.52-2.48-4.01-2.65-.33-.11-.85-.18-1.09.11l-.13.41c.41.93,1.59,1.11,2.18,1.91-1.64.88-2.33,3.63-.81,4.9,2.1,1.75,3.92-1.56,3.13-3.47ZM65.17,26.92c.59-.18,2.53-.77,2.59-1.44,0-.56-.4-.64-.89-.61s-4.81,1.7-5.33,2.02c-1.17.71-.03,1.67,1.05,1.12-.89,1.59-.21,4.86,2.05,4.43s2.31-4.44.54-5.52Z"/>
  <path class="cls-3" d="M22.48,94.24c-.19,1.34-.46,2.96-.54,4.29s-.22,1.89,1.09,2.51c-.3.88.02.87.64,1.33,2.64,2,5.88,3.41,8.68,5.19.11,1.04-.64,2.9.19,3.75.26.27.69.18.82.47-1.35.79-2.73,1.68-3.98,2.61-.25.18-3.38,2.61-3.08,2.83l1.49-.07c-1.78,2.12-2.12,5.23-3.16,7.72-.33.79-.52,1.14-1.32,1.53-.99.49-3.16.84-4.22.88-2.84.12-8.02-1.6-10.56-2.97-.42-.22-2.19-1.21-2.21-1.58,1.7-6.23,2.72-12.89,6.19-18.43,1.38-2.2,3.32-4.78,4.95-6.81l5.03-3.26Z"/>
  <path class="cls-2" d="M89.63,56.57c-.27.88-.07,1.82-.14,2.72-.25,3.54-1.37,7.11-3.37,10.03-4,5.82-10.84,8.03-17.43,9.56-.11-3.44-1.3-8.14-3.48-10.87-.47-.59-1.07-.99-1.6-1.5-.12-.11-.12-.09-.09-.28,2.97-.55,5.98-1.93,8.94-2.41,1.55-.25,3-.06,4.51-.31-.02-.56-.81-.59-1.22-.68l.27-.34c-1.06-.86-2.39-.75-3.67-.75-.09,0-.18,0-.27,0v-.27c.43-.93,2.59-4.58,2.59-5.1,0-.21.03-.24-.21-.2-.34.1-1.46,1.28-1.7,1.63-1.47.96-2.55,2.54-3.87,3.68-2.03,1.74-4.97,2.35-7.55,2.85-.06.01-.12.07-.14.14-.21.03-.46-.03-.68,0v-1.36c.07-.06.14-.17.27-.27.21-.16.43-.28.54-.54.07-.05.19-.09.27-.14.43-.22,1.15-.41,1.46-.72.07-.07,0-.27.12-.38.3-.26.8-.22.87-.94.07-.06.2-.08.27-.14l.27-.27c2.14-1.59,4.26-2.95,6.52-4.35,1.02.17,2.02-.24,2.17-1.36,3.97-2.39,8.12-4.51,11.89-7.21.31,0,1.33,1.52,1.54,1.86,1.51,2.42,2.3,5.17,2.88,7.93ZM80.25,55.34c-.35.13-.76.65-1.35.55l.26,1.76s0,.09,0,.14c.03.22.13.26.14.27.01.04-.01.1,0,.14.08.23.35.48.37.63.02.14-.15.38-.1.45.04.05.24-.02.27,0,.22.19.45.75.68,1.02.73.81,1.62,1.49,2.52,2.12,1.07-.44,2.11-1.2,2.92-2.05.88-.14,1.43-1.3,1.63-2.04.01-.04,0-.09,0-.14h.27c-.04-.34.13-.85-.14-1.09,0-.05,0-.09,0-.14-.03-1.46-.22-1.45-1.5-1.63-.09-.01-.18,0-.27,0-.02,0-.03-.13-.27-.14-.93-.01-1.52.25-2.13.94-1.13-.91-1.84-1.35-3.31-.81Z"/>
  <path class="cls-3" d="M34.17,51.4l2.17-.95c.41,1.49.69,3.03,1.13,4.52.15.52.39.88.5,1.47.02.12-.02.28,0,.41.2.06.24-.12.27-.14.06-.03.24.08.28-.09-.02-.79.02-1.58,0-2.36.43.08.23-.22.27-.47.07-.37.14-.73.26-1.09l.28-.08c-.17.63.84.69.93.84.19.31-.31,1.2.57,1.34,1.58,5.18,3.71,10.25,6.12,15.1.03.45-.07.25-.27.07-1.89-1.69-3.2-4.24-5.16-5.92.5,2.23,2.4,4,3.37,5.94.13.27.63,1.25-.02,1.11-.97-.21-1.79-1.12-2.81-1.06-.81-.58-1.66-1.17-2.45-1.77-.29-.22-.64-.62-.97-.87-.16-.12-1.25-1-1.34-.9-.03.4.32.72.55,1.02.48.63.95.97,1.49,1.43.17.15.3.32.41.41.74,1.93,2.42,3.29,3.81,4.76-1.7,2.79-3.45,6.28-4.49,9.38-2.13-.27-4.13-1.25-6.03-2.2l-1.99-2.56s.01-.09,0-.14c-.02-.06-.08-.11-.14-.14,0-.04,0-.09,0-.14l-1.36-2.86c-.03,1.56.15,3.12.54,4.62-2.41-1.09-4.71-3.23-5.71-5.71.27-1.71,1.19-2.94,1.83-4.49,1.14-2.79,1.03-5.18,1.45-8.07.31-2.19.84-4.21,1.34-6.34l4.21-3.94c-.15.64-.35,1.4-.2,2.04.39-.65.89-1.49,1.16-2.18Z"/>
  <path class="cls-3" d="M81.21,101.86c.69.86,1.25,1.8,1.82,2.73,3.39,5.53,5.48,11.6,7.56,17.73-.07.72-3.38,2.48-4.12,2.82-2.01.9-4.03,1.42-6.21,1.74-.06,0-.12.07-.14.14-.06.01-.22.01-.27,0-1.25-.32-2.56-.54-3.83-.86-1.43-.35-2.25-.37-3.07-1.69-1.81-2.9-3.17-6.36-5.47-8.95-1.41-1.59-3.6-2.51-5.23-3.88l-.08-2.64c3.6-.52,7.14-1.48,10.51-2.83.7-.28,2.63-.94,2.89-1.59.09-.23.13-.64.18-.91.27-1.49.26-3.03.43-4.53.4.39.89.71,1.29,1.08,1.26,1.15,1.79,2.81,3.73,1.64Z"/>
  <path class="cls-4" d="M85.15,5.7c4.26,3.67,3.02,10.46-2.32,12.17-.52.16-2.5.26-1.63,1.23.48.54.77-.55,1.36.95,1.2,3.02.99,6.23,1.77,9.11.22.82.89,1.76,1.24,2.57.23.55,1.07,2.15.15,2.39l-1.06-.39c-.99.02.01,2.3.07,2.92.07.83.18,2-.61,2.49-.34-.18-.85-.83-1.23-.53-.18.14-1,1.94-1.28,2.4-2.97,4.74-8.44,7.13-13.6,8.7-.79.24-5.89,1.43-6.05,1.69-.09.14-.07.26-.06.41.56.13,1,.19,1.56,0,.12,0,.09.28.06.34-.06.14-2.28,1.7-2.53,1.82s-.39.09-.59.15c-1.41.42-2.7.42-4.13.56-.22.02-.47.09-.62.26-2.11-.8-5.07-.87-7.2-.14-.2-.58-.79-1.63-.97-2.23-.21-.68-.42-1.47-.51-2.17.24-.77,2.56.88,2.84-.15-.1-.47-3.01-1.35-3.53-1.64-.34-.33-.53-2.11-.68-2.65,1.39.5,2.74,1.1,4.19,1.46,8.29,2.02,19.51-.83,25.32-7.23,7.14-7.89,6.03-18.27,1.92-27.36-.69-1.53-1.51-1.62-.46-3.4.97-1.64,2.86-2.3,4.71-1.94.31.06.46.23.48.54-.86-.3-2.25-.21-3.04.29-.58.37-2.05,1.87-1.83,2.6.05.19,2,1.85,2.36,2.27.61.73,1.02,1.6,1.66,2.3,1.05-.15,1.99-1,2.49-1.89.39.3.59-.1.79-.37,1.72-2.24,1.88-4.91.98-7.52Z"/>
  <path class="cls-7" d="M73.32,91.25c.71.54,1.47.31,2.23.42s1.47.48,2.26.53c1.26,1.77,2.41,3.58,3.53,5.44-.69.64.74,1.83-.82,2.04-.18-.19-.34-.31-.54-.54.13-.8-.3-.54-.54-.68-.3-.17-.35-.34-.54-.54.11-.54-.26-.43-.41-.54-1.09-.83-2.47-3.11-3.46-3.68-.85-.49-.89.21-1.03.89l-.41,8.36c-4.99.87-9.92,2.21-15,2.46-1-3.38-1.97-6.87-3.48-10.07l9.11-.95c-1.3,1.34-3.15,2.11-4.72,3.09-.14.09-.38.09-.11.3,3.93-.96,7.85-2.95,10.81-5.71,1.03-.23,2.12-.51,3.13-.82Z"/>
  <path class="cls-2" d="M11.06,38.34c1.92-9.29,12.42-8.49,19.71-7.28l.13.2c-5.13,2.58-8.63,8.89-8.84,14.55-4.22-.84-10.55-2.32-11.01-7.48Z"/>
  <path class="cls-17" d="M26.7,87.17c.05.41.42.44.61.68,1.53,2.01,2.5,3.72,4.56,5.37.1.08,1.34,1.04,1.22.68-.36-.4-2.39-3.37-2.17-3.6,1.78.88,3.51,1.92,5.44,2.45-1.31,3.38-2.4,6.85-3.4,10.34l-9.56-3.15c-.32-.16-.38-.38-.36-.72.1-2.66.97-5.54,1.09-8.17.1-2.1-.99-1.07-1.9-.27-1.67,1.46-3.2,3.31-4.76,4.9-.35.19-1.28-.62-1.2-.92,2.26-3.31,4.99-6.24,7.87-9.01.15-.11.25-.05.4,0,.54.21,1.57,1.09,2.18,1.43Z"/>
  <path class="cls-16" d="M62.72,67.72c1.77,2.93,2.67,6.33,2.15,9.76-2.49,1.01-5.34,2.42-8.05,2.62-.83.06-1.68-.14-2.38-.14l.41-.68c-.36,0-.74-.04-1.09-.14-1.58-.42-3.31-1.57-3.67-3.26.56.15,1.96.24,2.51.13.44-.08.91-.77.39-.93s-1.68-.07-2.28-.17c-1.32-.23-2.08-.82-1.61-2.26.68-2.08,2.96-1.61,4.62-2.04.5-.13,2.23-.77,2.05-1.44l-.34-.35-1.27.52-.8-2.01c1.33-1.04,3.13-.95,4.68-.44.76.25,1.7,1,2.46,1.08.55.06,1.54-.21,2.23-.26Z"/>
  <path class="cls-24" d="M81.21,101.86c-1.95,1.17-2.48-.48-3.73-1.64-.41-.38-.89-.7-1.29-1.08-.17,1.5-.16,3.04-.43,4.53-.05.27-.09.68-.18.91-.27.66-2.19,1.31-2.89,1.59-3.37,1.36-6.91,2.32-10.51,2.83l.08,2.64c1.63,1.37,3.82,2.29,5.23,3.88,2.3,2.59,3.65,6.04,5.47,8.95.82,1.32,1.64,1.33,3.07,1.69,1.27.31,2.58.53,3.83.86-.86.03-1.8.24-2.65.28-1.75.08-4.43.16-6.13,0-.79-.07-.79-.26-1.17-.87-1.99-3.16-3.13-7.35-6.03-9.88-1.67-1.46-3.88-2.63-5.63-4.02,0-.18,1.09-.28,1.22-.95.17-.9-.81-4.74-.66-4.95,4.47-.54,8.93-1.22,13.31-2.26.44-.1,2.23-.48,2.44-.68.41-.39.37-3.95.41-4.76.06-1.1.24-2.22.14-3.33.14-.16.89.68,1.02.81,1.12,1.18,2.93,3.87,4,4.71.51.4.53.02,1.1.74Z"/>
  <path class="cls-10" d="M55.79,29.23c-.46.24-.97,0-1.3.01-.2.01-.33.24-.53.25-.31.02-.73-.26-1.16.01l.54,1.22c-.48-.09-2.02-.28-2.45-.27v-1.02c-.42-.29-.67.4-.96.54-.23.11-.5.04-.75.2-.09.06-.58.64-.6.83-2.11,1.09.98,4.61,2.59,4.71l.25,2.76c-.47.22-1.98.47-2.03,1.04,0,.46.27.64.72.58,1.09-.14,2.62-.98,3.78-1.27.85-.21,1.76-.42,2.64-.33.61.06,2.31.96,2.51.16-.02-1.06-1.47-.95-2.16-1.4.31,0,.63.03.94-.01.08-.38.2-.96.44-1.26.25-.32,1.11-.63,1.27-.91.19-.33.17-1.38.89-1.49.19.39.26.71.41,1.09.03.25-.05.58,0,.82-.22.58-.84.3-1.1.47-.19.12-.08.47-.13.66-.04.14-.72.24.14.72l-.54,1.08c1.1.75-.1.64-.69.81-.28.08-.52.26-.77.32-.32.08-.9-.07-1.06.16-.08.12-.04.37-.14.55-.02.04-.79.45-.11.66.75.23,1.72-.32,2.09.91l-.4.36c-.25.69.85.61.93.87.13.5-.68.45-.54.95.07.26.72.14.81.07.02-.01-.07-.06.27-.27.1.35-.24.24-.27.27-1.81,1.87-5.83,1.76-8.3,1.3-2.71-.5-5.47-2.03-6.52-4.7.27-.94.51-1.91.39-2.91-.06-.53-.47-1.24-.39-1.71.15-.97,1.59-3.53,2.25-4.34,2.37-2.92,5.48-3.7,9.03-2.46Z"/>
  <path class="cls-26" d="M42.06,34.94s0,.09,0,.14c0,.02-.15.1-.14.33.02.86.61,2.27-.4,2.8-.43-.46-.98-.75-1.63-.68-.2.84.45.84.82,1.29.2.24.18.47.27.61-.46,1.35-1.22,2.46-2.58,2.99-.29-.59-.88-1.61-1.64-1.44-.46.32.49,1.68.69,2.12-2.26,1.87-4.23-.61-6.22-.92-1.02-.16-1.96.21-2.83.11-.73-.09-.76-1.62-.74-2.25.03-1.44.88-3.4,1.66-4.61.64-1,1.59-1.77,2.15-2.81,3.46-.15,7.76.21,10.6,2.31Z"/>
  <path class="cls-24" d="M23.03,101.04c2.88,1.37,6.51,1.83,9.28,3.02.76.33,1.36,1.22,2.41,1.27l.11.14c-.08.93-.64,3.55-.18,4.27.42.64,3.59,1.45,4.41,1.84-2.02,1.48-4.43,2.77-6.25,4.49-1.95,1.84-3.6,7.41-4.59,10.1-.15.4-.31.81-.31,1.25-2.91.15-5.95.38-8.83-.13,1.06-.04,3.23-.39,4.22-.88.8-.39.99-.74,1.32-1.53,1.04-2.49,1.38-5.6,3.16-7.72l-1.49.07c-.29-.22,2.84-2.64,3.08-2.83,1.25-.93,2.64-1.82,3.98-2.61-.13-.29-.56-.2-.82-.47-.83-.85-.08-2.7-.19-3.75-2.8-1.78-6.04-3.19-8.68-5.19-.61-.46-.93-.46-.64-1.33Z"/>
  <path class="cls-15" d="M43.69,43.65c2.42,8.86,5.48,17.6,9.38,25.91.06.2-.97.18-1.09.2-.37.05-.4-.04-.55-.33-.83-1.54-1.28-3.59-2.44-4.97l1.36,5.58c-.4.11-1.39.93-1.62.8-3.82-7.17-6.69-14.87-8.54-22.81-.05-.2,0-.42-.03-.57.36-.06.98-1.26,1.22-1.09.37.96.67,1.97,1.11,2.9.06.14.69,1.58.93,1.31l-1.06-5.49c.42-.44.74-1.23,1.33-1.45Z"/>
  <path class="cls-24" d="M90.18,59.29c.37,3.93-.22,8.96-1.92,12.56-3.46,7.3-12.75,10.18-20.03,11.92-.14,0,.45-2.5.47-2.79.05-.64.02-1.45,0-2.11,6.59-1.53,13.43-3.73,17.43-9.56,2-2.92,3.12-6.49,3.37-10.03h.68Z"/>
  <path class="cls-17" d="M84.33,43.37c.26.75.97,1.42.37,2.41-6.76,4.57-14.22,8.06-20.76,12.96-.83-.08-1.3.65-1.83,1.09-.28.23-.62-.04-.48.67-.98.8-1.92,1.73-2.85,2.58-.82.13-1.5.66-1.9,1.36-1.32-.28-3.12-.81-3.67-2.18,1.83-1.97,3.49-3.48,5.57-5.17.95-.19,1.21-.53,1.87-1.19.18-.18.38-.2.31-.58.03-.02.1.02.14,0,.18-.11.32-.2.41-.41.74-.54,2.07-1.57,2.85-1.9,2.02-.85,4.67-1.37,6.79-2.11,3.72-1.3,8.2-3.24,11.22-5.78.65-.55,1.24-1.37,1.97-1.76Z"/>
  <path class="cls-16" d="M9.7,134.77c.08-.43.18-.77.43-1.13.22-.33,1.6-1.54.32-1.6-1.1-.05-1.72,1.86-1.83,2.73l-4.21-.54c.1-.54.22-.99.52-1.45.41-.65,1.41-.99.35-1.64-1.21.2-1.76,1.75-1.95,2.83-.7-.26-1.43-.49-2.04-.95.35-4.59,5.44-4.36,6.52-6.8.32.51,1.01.82,1.54,1.11,1.77.98,3.78,1.72,5.77,2.12,1.15.23,4.47.39,5.2,1.05,1.06.95-.85,2.6-1.78,3-2.64,1.13-6,1.06-8.83,1.3Z"/>
  <path class="cls-24" d="M47.9,80.5c.1-.18.47-1.63.75-1.63.39.6,1.29.96,1.7,1.42.23.26.37.7.62,1.01,2.22,2.71,6.57,2.53,9.53,1.26.79-.34,1.79-1.26,2.67-.95.43.15,1.7,3.15,3.55,3.38,1.26.16,4.47-.74,5.81-1.13,1.77-.51,3.5-1.18,5.2-1.87.21-.02.24-.02.19.19-.2.86-.86,1.73-1.55,2.26-1.28.99-6.64,1.95-8.47,2.27-2.39.42-6.46,1.13-8.8.99-.15,0-.37.09-.34-.13l2.45-1.7.81-1.02c-2.02.64-3.9,2.8-6.04,3-1.07.1-4.33.11-5.27-.18-.58-.18-1.19-1.02-2.03-1.23-.58-.14-1.03-.02-1.53-.1-.53-.09-1.22-.42-1.84-.4-.04-.03.36-.68.41-.81,3.31.67,6.7,1.17,10.06.48l1.9-.62h-2.38c-1.56,0-3.48-.87-4.63-1.9-1-.9-1.45-2.03-2.78-2.59Z"/>
  <path class="cls-16" d="M90.18,125.52c.31.64,3.1,1.88,3.85,2.34,1.66,1.01,3.03,2.24,3.09,4.33-.56.29-.93.91-1.63.82-.15-.74-1.39-3.32-2.32-2.66-.6.42.5,1.28.72,1.61.39.6.42.93.52,1.59l-4.08.54c-.02-.25,0-.41-.07-.68-.16-.64-1.76-3.16-2.32-2.04-.19.7.72,1.13,1.01,1.85.16.39.1.54.15.87-2.89.13-6-.23-8.7-1.29-.9-.36-2.85-1.32-1.72-2.47.53-.54,4.74-1.25,5.9-1.64,1.31-.45,3.41-1.34,4.51-2.15.42-.31.64-.86,1.1-1.01Z"/>
  <path class="cls-9" d="M76.04,86.08v2.24c0,.97-1.01,1.19-1.8,1.47-2.24.78-5.25,1.43-7.55,1.83-4.33.75-8.73.96-13.13.83l-2.4-3.31c-.03-.28.01-.18.2-.21,1.53-.22,3.8.06,5.45,0,4.51-.14,9.12-.62,13.55-1.54,1.9-.4,3.75-1.04,5.68-1.32Z"/>
  <path class="cls-22" d="M58.37,111.38l-5.03,1.23c-.52-6.46-1.29-12.97-3.36-19.13-.05-.21.3-.74.51-.59l2.45,5.3c.22.04.14-.19.13-.34-.07-.97-.49-2.18-.85-3.1-.29-.74-1.32-2.38-1.43-2.92-.09-.42,0-.73.11-1.12.13-.1.99,1.27,1.09,1.42,3.64,5.64,5.55,12.62,6.39,19.25Z"/>
  <path class="cls-22" d="M40.02,96.69l2.45-4.9c.22.08.49.57.51.77.03.29-.75,2.68-.87,3.29-1.02,4.88-1.31,9.87-1.4,14.85-.34.34-4.41-1.25-5.04-1.59.38-6.68,2.16-13.78,6.33-19.09.08.27.24.71.18.98-.13.56-1.15,2.12-1.44,2.92-.32.89-.53,1.83-.71,2.76Z"/>
  <path class="cls-4" d="M7.8,126.2c.06-.13.09-.77.14-.81h.33c4.69,2.53,10.11,3.22,15.36,3.4.47.02.93.02,1.38-.14l.32.21c-.29,1.08-.38,3.56-.94,4.44-.04.07-1.03,1.2-1.1,1.25-1.11.89-6.24,1.78-7.83,1.96-1.81.2-3.69.28-5.49.22-.43-.21-.35-1.53-.27-1.97,2.83-.24,6.19-.17,8.83-1.3.93-.4,2.83-2.04,1.78-3-.73-.66-4.05-.82-5.2-1.05-1.99-.4-4-1.14-5.77-2.12-.53-.29-1.22-.6-1.54-1.11Z"/>
  <path class="cls-4" d="M90.18,125.52c-.45.15-.68.71-1.1,1.01-1.1.81-3.2,1.7-4.51,2.15-1.16.4-5.37,1.11-5.9,1.64-1.13,1.15.83,2.11,1.72,2.47,2.7,1.07,5.81,1.42,8.7,1.29.08.51.28,1.08.08,1.64-.09.13-1.15.21-1.39.21-2.74.06-9.65-.66-12-1.93-1.78-.96-2.07-3.71-2.45-5.5,5.73.07,11.66-.75,16.52-3.94.31.2.27.8.34.95Z"/>
  <path class="cls-9" d="M42.05,87.72c.3.41-1.86,2.83-2.26,3.23-2.8-.64-5.53-1.55-8.16-2.67-1.13-.48-2.55-1.11-3.63-1.67-.57-.3-2.51-1.38-2.87-1.75-.59-.62-.21-3.5.29-3.66s2.26,1.22,2.81,1.51c4.35,2.29,9.01,3.95,13.82,5.01Z"/>
  <path class="cls-4" d="M31.05,32.63c.13-.01.27,0,.41,0-.56,1.05-1.51,1.82-2.15,2.81-.77,1.2-1.62,3.17-1.66,4.61-.02.63.01,2.16.74,2.25.87.1,1.81-.27,2.83-.11,1.99.31,3.96,2.78,6.22.92.04.08.2.15.25.36.1.48-.02,1.07.14,1.58-1.18,1.65-3.55,1.23-5,.15-.6-.45-.96-1.34-1.82-1.14-.09.02-.08.22-.28.29-.72.25-1.62.46-2.37.62-.65.14-4.95.93-5.19.72.27-2.78,1.07-5.49,2.53-7.88.89-1.47,3.09-4.31,4.63-5.02.32-.15.4-.13.73-.16Z"/>
  <path class="cls-26" d="M45.05,2.03c.61.4,1.22.9,1.69,1.51.33.42,1.3,1.94.9,2.37-.95.5-1.96.98-2.86,1.56-3.29-6.31-9.93.28-5.17,4.62-.46.48-1.4,1.84-2.21,1.61-.1-.03-.94-.84-.99-.94-.15-.33.08-.53.04-.73s-.82-.76-.79-1.17l-.14.41c-.24.05-.09-.18-.13-.27-.08-2.28-.15-4.02,1.17-5.97,1.84-2.74,5.31-4.06,8.48-3Z"/>
  <path class="cls-7" d="M50.35,105.8c-2.54.04-5.08-.21-7.61-.41.21-3.11.97-6.17,1.97-9.12l.24-.11c1.01.39,2.11.08,3.09-.3,1.27,3.16,1.82,6.57,2.31,9.93Z"/>
  <path class="cls-13" d="M22.07,45.82c-.06,1.65,0,3.15.82,4.62-.37.26-4.51-.76-5.19-.99-4.93-1.63-7.71-5.91-6.63-11.11.47,5.16,6.79,6.64,11.01,7.48Z"/>
  <path class="cls-4" d="M62.72,67.72c.13,0,.25-.27.68-.07,3.08,3.26,4.24,8.02,4.22,12.44l-5.75.58c-3.17,1.74-7.3,2.76-10.16-.1.52-.22,1.1-.17,1.64-.26.35-.06.82-.35,1.08-.35.7,0,1.55.2,2.38.14,2.71-.19,5.56-1.61,8.05-2.62.52-3.44-.37-6.83-2.15-9.76Z"/>
  <path class="cls-24" d="M29.01,55.48c.25-1.04.66-2.04.54-3.13-.22-.05-.28.08-.41.2-.72.66-1.07,2.54-1.46,3.44-.06.14.03.22-.22.16l-7.97-5.02c1.44.14,2.96.64,4.41.68,3.61.11,6.38-2.99,8.3-5.69.73.46,1.48.97,2.38,1.06-.29,1.49-1.01,2.88-1.36,4.35l-4.21,3.94Z"/>
  <path class="cls-14" d="M55.65,54.94c.75.28,1.52.95,2.31,1.22-.02.02-.02.23-.14.33-2.2,1.85-4.49,3.66-6.31,5.93l-.34.13c-.84-2.38-1.79-4.72-2.63-7.1-.08-.24-.05-.51-.09-.65,2.13-.74,5.09-.66,7.2.14Z"/>
  <path class="cls-15" d="M47.22,79.01c-1.02,1.86-1.95,3.87-2.72,5.85-1.21-.24-2.43-.49-3.63-.79-.22-.06-.5,0-.59-.3,1.09-3.24,2.4-5.76,4.08-8.7,1.58.78,2.38,2.33,2.85,3.94Z"/>
  <path class="cls-11" d="M53.2,6.11c-7.17,2.09-12.8,6.62-15.46,13.7-.78,2.06-.99,4.57-1.73,6.43-.36.91-1.93,2.68-2.08,3.36-.04.2-.07.4.03.59.22.31,1.22-.02,1.03.67-.36-.04-.78.07-1.13-.03-.13-.04-1.32-.82-1.3-.97.06-.64,2.21-3.08,2.59-4.08s.45-2.29.72-3.36c1.97-7.58,6.28-13.2,13.66-16.11.45-.18,2.19-.85,2.53-.89.6-.06.69.41,1.14.68Z"/>
  <path class="cls-12" d="M42.74,105.39c-.24-.02-.56.08-.66-.22.06-3.87.69-7.78,1.82-11.48.57.29,1.39.81,2.04.83.44.01.64-.24.95-.27.69-.07,1.39.07,2.09-.13,1.33,3.75,1.93,7.71,2.6,11.62,0,.12-1.03.07-1.23.07-.49-3.36-1.05-6.77-2.31-9.93-.98.38-2.07.69-3.09.3l-.24.11c-1,2.94-1.77,6.01-1.97,9.12Z"/>
  <path class="cls-24" d="M84.33,43.37c-.74.4-1.33,1.22-1.97,1.76-3.02,2.54-7.5,4.48-11.22,5.78-2.12.74-4.77,1.26-6.79,2.11,2.93-2.5,6.75-2.93,10.15-4.6,3.07-1.51,6.02-3.76,7.93-6.62.17-.25.75-1.51.83-1.55.37-.21.76.53.84.82.22.75-.04,1.52.23,2.29Z"/>
  <path class="cls-6" d="M44.78,7.47c-2.09,1.35-3.48,2.86-5.17,4.62-4.77-4.34,1.88-10.93,5.17-4.62Z"/>
  <path class="cls-24" d="M70.2,92.06c-2.96,2.76-6.87,4.75-10.81,5.71-.27-.21-.03-.22.11-.3,1.57-.99,3.42-1.75,4.72-3.09l-9.11.95c-.08-.17-1.03-1.71-.95-1.77,2.36.13,4.76.06,7.14-.14,2.96-.25,6.01-.7,8.91-1.36Z"/>
  <path class="cls-13" d="M42.06,70.03c1.03-.06,1.85.85,2.81,1.06.65.14.15-.84.02-1.11-.97-1.94-2.87-3.71-3.37-5.94,1.96,1.67,3.27,4.22,5.16,5.92.2.18.3.38.27-.07.26.52.96,1.48,1.06,2.01.09.49-.2.96-.2,1.44s.34,1.03.34,1.38c0,.28-.23.6-.26.95-.05.63.19,1.74.12,2.14-.06.36-.62.87-.8,1.19-.47-1.62-1.27-3.16-2.85-3.94.24-.42.77-1.82,1.26-1.75.12.02,1.78,1.01,1.44.2-.12-.28-4.36-3.01-5.01-3.48Z"/>
  <path class="cls-15" d="M47.9,80.5c1.33.56,1.79,1.69,2.78,2.59,1.15,1.03,3.07,1.9,4.63,1.9h2.38l-1.9.62c-3.36.69-6.75.18-10.06-.48.67-1.92,1.24-2.89,2.17-4.62Z"/>
  <path class="cls-12" d="M58.91,64.59c.58.1,1.11-.07,1.63-.14.22-.03.47.03.68,0,.06,0,.12-.07.14-.14,2.58-.5,5.52-1.11,7.55-2.85,1.32-1.14,2.4-2.72,3.87-3.68-.34.47-.96,1.55-1.25,2.08-.33.63-1.33,3.25-1.7,3.47-2.82.77-5.72,1.48-8.4,2.61l-.67.92-2.93-1.26c0-.11.93-.86,1.08-1.02Z"/>
  <path class="cls-12" d="M41.92,106.34l4.96.54,4.6.02.2.21.16,2.36c-3.27-.64-6.62-.7-9.92-.27v-2.86Z"/>
  <path class="cls-24" d="M34.17,51.4c.21-.54,1.08-3.93,1.24-4.06.56-.06,1.12-.13,1.65-.32.62-.23,1.01-.69,1.59-.92.09.81.22,1.66.41,2.45-.19.09-.36.25-.44.44-.54,1.36-.14,3.79-.1,5.27.02.78-.02,1.58,0,2.36-.04.17-.22.06-.28.09l-.27-.27c-.12-.58-.35-.95-.5-1.47-.43-1.48-.72-3.03-1.13-4.52l-2.17.95Z"/>
  <path class="cls-23" d="M31.32,45.28c-1.11,1.82-3,3.96-4.94,4.92-2.66,1.32-3.18-1.32-3.22-3.43,2.76-.06,5.53-.66,8.16-1.49Z"/>
  <path class="cls-24" d="M24.39,74.38c1,2.48,3.3,4.62,5.71,5.71-.39-1.5-.58-3.07-.54-4.62l1.36,2.86-.54-.27c-.08,1.81.76,3.17,1.63,4.62.08.13.07.33.14.44.1.16.31.03.27.24-1.87-.83-4.37-1.79-5.97-3.07s-2.36-3.98-2.05-5.9Z"/>
  <path class="cls-24" d="M26.7,87.17c3.16,1.72,6.74,3.09,10.19,4.09.21.24-.43,1.21-.54,1.49-1.93-.53-3.66-1.57-5.44-2.45-.22.24,1.81,3.21,2.17,3.6.11.36-1.13-.6-1.22-.68-2.06-1.66-3.03-3.37-4.56-5.37-.19-.24-.56-.28-.61-.68ZM30.71,90.16v.14c.09-.05.09-.09,0-.14Z"/>
  <path class="cls-13" d="M31.05,78.74l1.99,2.56c1.9.95,3.9,1.92,6.03,2.2-.1.3-.45,2.11-.55,2.18-1.21-.49-2.89-.68-3.99-1.38-.55-.35-1.77-1.72-2.13-2.29-.57-.9-1.09-2.23-1.36-3.26Z"/>
  <path class="cls-9" d="M47.86,87.46c.77-.23,1.77.61,2.08,1.27-.09,1.22-.08,4.07-1.59,4.38-.26.05-.93.1-1.13-.03-.7-.46-.18-4.58.3-5.29.09-.14.17-.28.35-.33Z"/>
  <path class="cls-22" d="M46.54,87.17c-.65,1.76-.92,3.71-.68,5.57-.45.06-.57-.03-.75-.41l-.54.41c-.95-.96-1.78-3.02-1.37-4.36.3-.96,2.44-1.67,3.34-1.22Z"/>
  <path class="cls-27" d="M38.52,93.15c-1.75,3.5-2.67,7.37-3.6,11.15-.45-.32-.94-.29-.86-.98.18-1.66,1.39-4.78,1.98-6.47.47-1.34.98-2.67,1.53-3.98.33-.01.74-.04.95.27Z"/>
  <path class="cls-11" d="M45.05,2.03c-3.17-1.06-6.64.27-8.48,3-1.31,1.95-1.25,3.69-1.17,5.97-2.15-4.47,1.35-9.64,6.19-9.93,1.35-.08,2.36.23,3.46.95Z"/>
  <path class="cls-13" d="M43.42,42.97c.03.13.2.42.27.68-.59.22-.91,1.01-1.33,1.45l1.06,5.49c-.24.27-.87-1.18-.93-1.31-.44-.93-.74-1.94-1.11-2.9-.24-.17-.86,1.03-1.22,1.09-.07-.29-.65-1.69-.49-1.91,1.23-.43,2.23-1.09,2.8-2.31l.95-.27Z"/>
  <path class="cls-13" d="M56.87,64.46c.05.01.17.14.27.14-.26.23-.57.82-.91.92-.42.13-1.13,0-1.68.09-.61.1-1.17.45-1.69.75l-1.12-2.52c.01-.18,1.24-1.33,1.46-1.56.55,1.37,2.35,1.9,3.67,2.18Z"/>
  <path class="cls-12" d="M44.5,84.86c-.11.29-.33,1.34-.44,1.46-.04.04-.94.43-1,.44-.75.1-2.59-.76-3.46-.82.12-.76.44-1.46.68-2.17.09.31.36.24.59.3,1.2.3,2.42.55,3.63.79Z"/>
  <path class="cls-11" d="M83.79,4.75c-4.02-1.34-8.08.97-9.51,4.83l-.2.05c-.12-.03-.19-.26-.21-.26.52-2.63,2.57-5.25,5.39-5.56,1.44-.16,3.41-.06,4.54.93Z"/>
  <path class="cls-4" d="M40.97,39.43c.17.27.35.34.51.78.77,2.07-.24,4.18-2.55,4.25.02-.72-.23-1.41-.54-2.04,1.36-.53,2.13-1.64,2.58-2.99Z"/>
  <path class="cls-4" d="M8.62,134.77c-.09.71-.02,1.18,0,1.9-.17.17-3.94-.3-4.18-.58-.29-.66-.16-1.21-.03-1.87l4.21.54Z"/>
  <path class="cls-4" d="M94.39,133.55c.02.15.15.26.15.61,0,.18-.12.96-.23,1.04-.28.2-3.85.81-3.99.67-.03-.58.04-1.19,0-1.77l4.08-.54Z"/>
  <path class="cls-4" d="M42.06,35.08c1.69,1.01,2.58,4.32.75,5.58-.39-.77-.69-1.8-1.29-2.45,1.01-.53.42-1.94.4-2.8,0-.23.14-.31.14-.33Z"/>
  <path class="cls-11" d="M42.06,34.94c-2.84-2.1-7.14-2.46-10.6-2.31-.13,0-.27-.01-.41,0-.01-.43.84-.65,1.15-.68,2.61-.31,7.7.38,9.59,2.38.27.28.32.3.27.62Z"/>
  <path class="cls-9" d="M50.08,75.88c.36,1.69,2.09,2.84,3.67,3.26.08.41-.21.26-.47.27-2.82.1-4.63-.8-4.29-3.94.16-.17.91.36,1.09.41Z"/>
  <path class="cls-28" d="M40.83,54.8c-.87-.14-.38-1.03-.57-1.34-.09-.15-1.11-.2-.93-.84l-.28.08c-.12.36-.19.72-.26,1.09-.05.25.16.55-.27.47-.04-1.48-.44-3.91.1-5.27.08-.2.25-.35.44-.44.51,2.07,1.14,4.21,1.77,6.26Z"/>
  <path class="cls-12" d="M22.48,94.24l-5.03,3.26c1.65-2.06,3.48-3.86,5.37-5.71.04.8-.23,1.65-.34,2.45Z"/>
  <path class="cls-12" d="M39.75,69.35c1.35,1.13,2.84,2.13,4.3,3.11.13.09.29.15.45.16.1.12-.85,1.33-.95,1.49-1.38-1.47-3.06-2.83-3.81-4.76Z"/>
  <path class="cls-21" d="M67.48,81.32c0,.85-.18,1.74-.63,2.46-.58.1-2.17-1.63-2.36-2.12-.09-.24.06-.18.2-.2.84-.11,1.92-.07,2.79-.14Z"/>
  <path class="cls-13" d="M51.98,69.76c-.52.08-1.14.13-1.63.27l-1.36-5.58c1.16,1.39,1.61,3.44,2.44,4.97.16.29.18.38.55.33Z"/>
  <path class="cls-16" d="M60.41,54.12c0,.3-.18.36-.36.52-.64.55-1.46,1-2.08,1.52-.79-.27-1.56-.94-2.31-1.22.15-.17.4-.24.62-.26,1.43-.14,2.73-.13,4.13-.56Z"/>
  <path class="cls-13" d="M73.32,91.25c1.03-.31,2.01-.8,3.04-1.1.51.66.96,1.37,1.45,2.05-.79-.05-1.5-.42-2.26-.53s-1.52.12-2.23-.42Z"/>
  <path class="cls-4" d="M3.32,133.95c-.1.57-.14,1.19-.14,1.77-1,0-1.88-1.25-2.01-2.15-.06-.39.1-.47.11-.57.61.47,1.33.69,2.04.95Z"/>
  <path class="cls-16" d="M30.91,78.33s0,.09,0,.14c.02.07.07.12.14.14.01.04-.01.09,0,.14.27,1.03.79,2.36,1.36,3.26h-.27s-.03.59-.03.59l-.11.09c-.88-1.46-1.71-2.82-1.63-4.62l.54.27Z"/>
  <path class="cls-13" d="M72.37,61.74c1.28,0,2.61-.11,3.67.75l-.27.34c-.97-.21-1.87-.22-2.85-.14.13-.54-.54-.49-.54-.95Z"/>
  <path class="cls-20" d="M57.15,3.8c-.42.37-1.14.01-1.56.03-.7.03-1.67.22-2.24.65-.12-.18-.61-.45-.35-.82.09-.13,1.03-.37,1.25-.39.97-.09,2,.24,2.91.53Z"/>
  <path class="cls-4" d="M97.11,132.19c.02.72.04,1.21-.47,1.77-.07.07-.78.65-.82.67-.29.12-.19-.22-.2-.34-.04-.42-.06-.87-.14-1.29.7.1,1.07-.53,1.63-.82Z"/>
  <path class="cls-13" d="M39.61,68.26h-.41s.14.68.14.68c-.54-.46-1.01-.81-1.49-1.43-.22-.29-.58-.62-.55-1.02.09-.1,1.18.77,1.34.9.32.25.68.65.97.87Z"/>
  <path class="cls-5" d="M80.53,99.68c1.55-.21.12-1.4.82-2.04.12.2.84,1.05.8,1.27-.31.27-1.15,1.54-1.55,1.04-.06-.08-.04-.24-.07-.27Z"/>
  <path class="cls-21" d="M37.57,92.88c.16-.39.28-.82.42-1.21l1.21.33c0,.31-.54.86-.68,1.15-.21-.31-.62-.29-.95-.27Z"/>
  <path class="cls-5" d="M60.54,63.1v1.36c-.52.06-1.05.23-1.63.14.62-.64.96-.95,1.63-1.5Z"/>
  <path class="cls-13" d="M90.18,59.29h-.68c.06-.9-.14-1.84.14-2.72.19.91.46,1.79.54,2.72Z"/>
  <path class="cls-21" d="M72.37,61.74c0,.46.67.41.54.95-.46.04-1.02.21-1.49.27-.11-.11.45-1.03.54-1.22h.14c.09,0,.18,0,.27,0Z"/>
  <path class="cls-27" d="M71.15,55.34c.73-.45,1.44-.92,2.17-1.36-.15,1.12-1.15,1.53-2.17,1.36Z"/>
  <path class="cls-5" d="M63.94,58.74c-.72.54-1.63,1.21-2.31,1.77-.14-.72.2-.45.48-.67.54-.44,1-1.18,1.83-1.09Z"/>
  <path class="cls-5" d="M58.78,63.1c-.55.5-1.08,1-1.63,1.5-.11,0-.22-.12-.27-.14.41-.7,1.08-1.23,1.9-1.36Z"/>
  <path class="cls-23" d="M43.42,42.97l-.95.27c.24-.53.16-1.26.75-1.5.26.34.12.89.2,1.22Z"/>
  <path class="cls-5" d="M60.95,55.34c.08.37-.12.39-.31.58-.65.66-.91,1-1.87,1.19.73-.59,1.38-1.25,2.17-1.77Z"/>
  <path class="cls-5" d="M64.08,60.1c-.07.73-.56.69-.87.94-.12.11-.05.31-.12.38-.31.31-1.03.5-1.46.72.72-.75,1.62-1.41,2.45-2.04Z"/>
  <path class="cls-5" d="M79.98,99.14c-.19-.21-.42-.38-.54-.68.24.14.67-.12.54.68Z"/>
  <path class="cls-5" d="M78.9,97.91c-.14-.15-.44-.2-.41-.54.15.11.51,0,.41.54Z"/>
  <path class="cls-13" d="M72.1,61.74h-.14c.04-.09.09-.18.14-.27v.27Z"/>
  <path class="cls-5" d="M60.82,62.82c.12-.25.33-.39.54-.54-.11.26-.33.38-.54.54Z"/>
  <path class="cls-5" d="M64.35,59.97c.06-.04.13-.17.27-.27l-.27.27Z"/>
  <path class="cls-5" d="M61.09,55.34c.08-.22.24-.29.41-.41-.08.21-.23.3-.41.41Z"/>
  <path class="cls-24" d="M80.12,127.02c.01-.07.07-.13.14-.14-.02.06-.07.12-.14.14Z"/>
  <path class="cls-14" d="M55.79,29.23c2.42.84,3.51,2.09,4.62,4.35-.72.11-.7,1.16-.89,1.49-.16.28-1.02.59-1.27.91s-.36.88-.44,1.26c-.31.04-.63,0-.94.01-.8.02-1.55.02-2.34.17-.45.09-1.85.72-2.08.38-.14-.2-.29-1.85-.18-2.03,3.13-.62,5.9-4.17,1.07-5.05l-.54-1.22c.43-.28.85,0,1.16-.01.2-.01.33-.24.53-.25.33-.02.84.23,1.3-.01Z"/>
  <path class="cls-6" d="M81.75,8.01c.41.14,1.09.81,1.36,1.16,1.04,1.36,1.11,2.93.28,4.42-.5.89-1.44,1.74-2.49,1.89-.64-.7-1.04-1.57-1.66-2.3-.36-.42-2.3-2.08-2.36-2.27-.21-.73,1.25-2.23,1.83-2.6.79-.5,2.18-.6,3.04-.29Z"/>
  <path class="cls-8" d="M65.17,26.92c1.77,1.08,1.69,5.09-.54,5.52s-2.94-2.84-2.05-4.43c-1.07.56-2.22-.41-1.05-1.12.52-.32,4.83-1.99,5.33-2.02s.88.05.89.61c-.06.66-2,1.26-2.59,1.44Z"/>
  <path class="cls-8" d="M46.54,26.65c.8,1.91-1.03,5.22-3.13,3.47-1.52-1.27-.83-4.02.81-4.9-.59-.8-1.77-.98-2.18-1.91l.13-.41c.24-.3.77-.22,1.09-.11.49.16,3.52,2.22,4.01,2.65,1.16.99.68,1.69-.74,1.22Z"/>
  <path class="cls-14" d="M60.82,35.49c.22,1.15,1.15,2.11.41,3.6.24.79-.19,1.7-.34,2.52-.26.3-1.05-.07-1.29.48-.16.4.84.11.95.2.11.5-1.18.65-.41,1.09-.23.19-.27.24-.54.41-.34.21-.25.26-.27.27-.1.07-.74.19-.81-.07-.13-.5.67-.45.54-.95-.08-.26-1.18-.18-.93-.87l.4-.36c-.38-1.22-1.34-.67-2.09-.91-.69-.21.08-.62.11-.66.1-.17.06-.43.14-.55.16-.24.74-.08,1.06-.16.25-.06.5-.24.77-.32.59-.17,1.79-.06.69-.81l.54-1.08c-.86-.48-.18-.58-.14-.72.05-.19-.06-.54.13-.66.26-.17.88.12,1.1-.47ZM60.54,38.75c.04-.26-.16-.45-.41-.41v.41s.41,0,.41,0ZM58.5,40.66h-.27v.41h.27v-.41Z"/>
  <path class="cls-6" d="M60.14,43.37c-.77-.44.52-.59.41-1.09-.1-.09-1.11.19-.95-.2.24-.55,1.03-.18,1.29-.48.15-.82.57-1.73.34-2.52.74-1.49-.19-2.45-.41-3.6-.05-.24.03-.56,0-.82,1.01,2.62,1.81,6.6-.68,8.7Z"/>
  <path class="cls-18" d="M85.69,55.21l.27.14c.09,0,.19-.01.27,0,.7.43,1.18.86,1.5,1.63,0,.05,0,.09,0,.14,0,.44-.05.67-.14,1.09,0,.04.01.09,0,.14-.62.69-1.47.7-2.36.69l-.62-1.69c-.53-.75-1.08,1.98-1.3,2.23-.35-.4-.48-2.99-.95-2.99-.49.26-.74,2.06-1.01,2.25-.32.22-1.64-.47-2.05-.62-.01-.04.01-.1,0-.14l-.14-.27s0-.09,0-.14c-.05-1.27.3-1.45,1.09-2.31,1.47-.54,2.18-.1,3.31.81.6-.69,1.19-.96,2.13-.94Z"/>
  <path class="cls-18" d="M79.85,59.29c.55-.32,1.22.45,1.82.26.26-.09.36-.78.48-1.02.07-.15-.07-.26.28-.19l.75,2.86c.47.11.8-2.23,1.02-2.45.32-.31.38.89.63.96l1.81-.14c-.21.27-.44.57-.68.81-.81.85-1.84,1.61-2.92,2.05-.89-.63-1.79-1.31-2.52-2.12-.24-.26-.47-.83-.68-1.02Z"/>
  <path class="cls-25" d="M79.3,58.2c.41.15,1.72.85,2.05.62.27-.19.52-1.99,1.01-2.25.48,0,.6,2.59.95,2.99.23-.25.77-2.98,1.3-2.23l.62,1.69c.89.02,1.73,0,2.36-.69-.2.74-.75,1.9-1.63,2.04.23-.25.47-.55.68-.81l-1.81.14c-.25-.06-.31-1.27-.63-.96-.22.21-.55,2.56-1.02,2.45l-.75-2.86c-.35-.06-.21.05-.28.19-.12.24-.22.93-.48,1.02-.6.19-1.26-.58-1.82-.26-.03-.02-.23.04-.27,0-.05-.06.12-.3.1-.45-.03-.16-.29-.4-.37-.63Z"/>
  <path class="cls-25" d="M86.24,55.34c1.28.18,1.46.18,1.5,1.63-.31-.77-.8-1.21-1.5-1.63Z"/>
  <path class="cls-25" d="M79.17,57.66l-.26-1.76c.59.09,1-.43,1.35-.55-.79.86-1.13,1.05-1.09,2.31Z"/>
  <path class="cls-25" d="M87.73,57.11c.27.23.1.75.14,1.09h-.27c.09-.42.13-.65.14-1.09Z"/>
  <path class="cls-25" d="M85.96,55.34l-.27-.14c.24,0,.26.13.27.14Z"/>
  <path class="cls-25" d="M79.3,58.06s-.11-.05-.14-.27l.14.27Z"/>
  <path class="cls-5" d="M61.22,64.46c.02-.06.07-.12.14-.14-.01.07-.07.13-.14.14Z"/>
  <path class="cls-28" d="M38.25,56.7s-.07.2-.27.14c-.02-.13.02-.29,0-.41l.27.27Z"/>
  <path class="cls-24" d="M31.05,78.6c-.06-.02-.12-.07-.14-.14.06.03.12.07.14.14Z"/>
  <path class="cls-8" d="M53.34,30.73c4.83.88,2.06,4.43-1.07,5.05-.11.18.04,1.82.18,2.03.23.34,1.63-.29,2.08-.38.8-.15,1.54-.15,2.34-.17.68.45,2.13.34,2.16,1.4-.19.8-1.9-.1-2.51-.16-.87-.09-1.79.11-2.64.33-1.15.29-2.69,1.12-3.78,1.27-.45.06-.71-.12-.72-.58.05-.57,1.56-.82,2.03-1.04l-.25-2.76c-1.61-.1-4.7-3.61-2.59-4.71.34-.18,1.94-.54,2.31-.54.43,0,1.97.18,2.45.27ZM53.34,32.09c.28-.31-.99-.65-1.17-.67-.37-.05-2.49-.04-2.64.13.04.62.96.75,1.44.8.85.08,1.54-.1,2.36-.26Z"/>
  <path class="cls-6" d="M48.58,31c.02-.19.51-.77.6-.83.25-.16.52-.09.75-.2.29-.14.53-.83.96-.54v1.02c-.38,0-1.97.37-2.31.54Z"/>
  <path class="cls-17" d="M30.71,90.16c.09.05.09.09,0,.14v-.14Z"/>
  <path class="cls-10" d="M60.54,38.75h-.41s0-.41,0-.41c.25-.04.45.15.41.41Z"/>
  <rect class="cls-10" x="58.23" y="40.66" width=".27" height=".41"/>
  <path class="cls-1" d="M53.34,32.09c-.82.15-1.51.34-2.36.26-.48-.05-1.4-.18-1.44-.8.15-.16,2.27-.17,2.64-.13.17.02,1.45.36,1.17.67Z"/>
</svg>