<?xml version="1.0" encoding="UTF-8"?>
<svg id="_레이어_1" data-name=" 레이어 1" xmlns="http://www.w3.org/2000/svg" viewBox="0 0 182.64 203.61">
  <defs>
    <style>
      .cls-1 {
        fill: #41443e;
      }

      .cls-2 {
        fill: #f9f8f6;
      }

      .cls-3 {
        fill: #222328;
      }

      .cls-4 {
        fill: #28272e;
      }

      .cls-5 {
        fill: #5a233c;
      }

      .cls-6 {
        fill: #5c6466;
      }

      .cls-7 {
        fill: #fefefd;
      }

      .cls-8 {
        fill: #a16576;
      }

      .cls-9 {
        fill: #dfa299;
      }

      .cls-10 {
        fill: #c3cbce;
      }

      .cls-11 {
        fill: #752a47;
      }

      .cls-12 {
        fill: #323731;
      }

      .cls-13 {
        fill: #e8e6dd;
      }

      .cls-14 {
        fill: #712945;
      }

      .cls-15 {
        fill: #c09367;
      }

      .cls-16 {
        fill: #858e90;
      }
    </style>
  </defs>
  <path class="cls-4" d="M73.91.16c.15.04,2.66,1.3,2.79,1.4.5.39,2.88,4.68,3.11,5.49,3.12,10.8-4.33,24.96-4.97,35.9,4.6-1.06,9.8-1.44,14.4-.46,1.66-12.27,7-31.01,18.27-37.76,6.91-4.14,16.1-2.73,17.05,6.36.8,7.66-5.05,16.86-9.29,23.03l-2.04.36-.28-.36c3.46-4.84,6.94-9.94,8.36-15.81.09-.39-.08-.97,0-1.4,0-.03.41-.1.46-.47,1.14-7.55-.21-12.74-9.07-11.64-1.36.17-2.46.84-3.61,1.5-11.22,6.4-16.67,25.93-17.73,38.06l-.52.39c-6.37-1.68-12.44-.42-18.78.52.98-11.07,6.89-22.58,6.06-33.75-.05-.61-.47-1.01-.48-1.13-.7-5.49-1.84-9.58-8.7-7.54-11.48,3.41-12.65,25.14-11.22,34.69.47,3.12,3.27,9.76,3.22,11.71s-1.92,2.05-2.82,3.47c14.77-2.83,30.19-3.67,45.07-.93,1.78.33,4.31,1.56,6.3,1.82.18,0,.15-.31.21-.42.23-.48.06-1.21.93-1.4,14.53,13.05,16.32,36.16-2.32,46.51-.41.23-1.33.06-1.39.93.62.03,1.24-.02,1.86,0,6.76.23,14.4.37,21.08.99,10.86,1.01,12.86,8.06,2.47,12.12-6.74,2.63-14.65,2.38-21.69,3.64l2.82,9.73c4.73-1.58,6.87,2.34,10.41,4.69.66,4.06-.41,9.95-5.33,10.45,3.07,3.27,6.48,6.91,8.37,10.93l.81-4.53c1.3-2.51,4.28-2.71,6.85-2.44,4.98.51,3.89,4.01,3.95,7.91,1.42,1.39,22.06-6.89,23.45-9.32.4-.69.23-1.78.6-2.66.95-2.26,4.53-3.11,6.62-1.98.07.1,1.29-.1,1.42,1.17.22,2.18-.77,4.46-.96,6.27-1.11-.13-.91.68-1.19,1.34-.79,1.9-1.26,3.95-2.12,5.81-2.45,5.31-6.44,9.54-11.56,12.38-.55-.48-1.65-.21-1.39-2.33,4.88.96,13.32-14.03,13.47-18.6-.96,0-1.95-.14-2.9.11-1.78.46-7.17,4.25-9.54,5.33-3.12,1.42-6.48,2.63-9.81,3.44.38,1.78-.52,4.06-.51,5.54l-2.32.93c.09-1.85-.06-3.73,0-5.58l-3.24.47c-.16,2.42.2,5.04,0,7.44-.1,1.13-.69,2.87-.68,4.21-1.36.32-1.51,1.29-2.76,1.4-1.38.12-2.52.4-2.14-1.43,1.08-.03,2.17.03,3.25,0,.33-2.59-.38-3.89-3.01-4.2-4.17-.49-8.79.53-13.04.5-1.33,0-2.47-.5-3.67-.51-20.44-.16-40.89.18-61.33,0l-.25,1.43c-1.35-.82-2.36.14-2.37,1.64,0,.65.48.99.51,1.15.07.43-.04.94,0,1.39-2.47.81-2.55-1.23-2.79-1.39-.64-2.36,1.51-5.56,3.72-6.05.71-.16,1.94.04,2.79,0,1.54-.07,3.11.06,4.65,0l-2.79-4.18c.07-.4-.41-.75-.46-.93-.12-.41-.93-4.19-.93-4.42v-7.91c0-.17,1.16-2.75,1.41-3.14.99-1.63,4.86-3.9,5.35-5.02.57-1.33-.71-3.01-.71-3.93v-14.18c-7.04-.19-15.74-.56-22.41-2.92-3.81-1.35-10.72-5.78-6.18-10.12,1.75-1.67,7.3-2.19,9.75-2.33,5.31-.31,10.74.07,16.05-.45.29-1.33-1.55-1.21-2.57-1.85-13.05-8.24-16.21-21.24-11.04-35.73,2.16-6.05,7.32-9.94,11.66-14.34-4.72-12.98-6.05-33.45,3.81-44.35.2-.22,1.25-1.28,1.39-1.4,2.35-1.85,7.24-3.99,10.22-3.26h-.06ZM106.43,54.57c-10.49-3.05-28.37-2.88-39.19-1.33-4.33.62-12.18,1.64-14.92,5.06l-2.57,4.63c13.68-3.74,27.84-5.39,42.04-4.18,5.94.5,13.98,1.48,19.75,2.79.07.02.56.64,1.26.81.57.14,3.65.77,3.85.58-.89-4.59-4.06-6.77-8.36-7.9-.37-.1-.96.05-1.39,0-.09-.19-.26-.41-.46-.47h-.01ZM112.47,64.34c-15.5-4.31-34.44-4.92-50.28-2.19-2.47.43-10.92,2.04-12.63,3.17-1.08.71-2.31,5.71-2.55,7.21-1.41,8.76,1.69,16.35,8.31,22.04,3.01,2.59,5.9,4.13,9.64,5.46,2.38.85,11.88,2.59,12.63,3.17.47.36.62.48.49,1.13h-3.71c-.2,1.16.47,1.88.93,2.79,3.09,6.08,10.55,4.89,14.4,0,1.2-1.53,2.08-2.4,1.93-4.58,16.54-3.43,32.13-14.63,27.12-33.56-1.22-4.61-2.22-3.52-6.28-4.65h0ZM103.64,112.24c.56,1.27.73,2.6,2.32,3.26l.27-1.43c7.11-.68,14.52-.9,21.49-2.61,2.56-.63,10.53-2.84,8.44-6.66-1.14-2.08-3.83-1.78-5.81-2.32l-26.4-1.33c-2.83,3.02-1.82,7.63-.31,11.09ZM99.46,102.94c-.87-.64-3.78.06-4.65.47-1.39.65-1.96,3.06-2.79,4.19-3.03,4.13-8.46,6.52-13.47,4.88-2.34-.77-4.62-2.82-5.58-4.88-.55-1.18-.95-2.37-.96-3.7-.29-.12-.62.02-.9-.02-.55-.08-1.26,0-1.86,0-.05,0-.4-.73-.94-.28-1.64,3.74-1.93,7.9-2.32,11.91-.07.74-.4,1.57-.46,2.79-.17,3.32-.63,15.12,1.88,16.95.92.67,4.62,1.69,5.91,1.99,8.23,1.9,20.18,1.42,28.45-.34,1.82-.39,9.31-2.32,9.99-3.72,1.05-2.17-1.37-10.74-2.09-13.49-.62-2.36-1.74-1.01-3.25-1.4-5.04-1.29-7.19-11.86-5.58-16.27-.78-.23-1.13.34-1.39.93h.01ZM35.81,106.66c-.08.64-.03,1.24.24,1.83,2.33,4.99,22.1,6.59,27.35,6.57.51-.14.63-2.25.75-2.82.62-2.94,1.1-5.9,2.25-8.7l-.67-1.04c-2.35.26-5.07.76-7.39.9-5.45.33-11.84-.04-17.13.53-1.23.13-4.49.82-5.17,1.81-.22.27-.19.6-.23.92ZM108.75,115.5l-2.32.23c.56.79,1.43.77,2.32.7v-.93ZM114.79,134.1c.32,1.32,1.55,4.53,3.04,4.67,2.24.2,4.31-1.95,3-4.2,1.12-.71,1.79-2.28.9-3.45-.72-.95-1.76-.59-2.55-1.17-1.37-.99-2.02-4.25-5.26-1.62.65,1.75.47,4.1.87,5.78h0ZM71.12,138.75c-.28-.06-.66.07-.93,0-.07-.02-.23-.4-.46-.47-1.41-.37-3.55-1.55-4.65-1.21-.36.11-3.25,2.42-3.55,2.77-3.54,4.19-2.19,14.44,1.23,18.44,3.01,3.52,8.5,3.38,10.09-1.29s-.62-7.13,5.12-9.29c4.96-1.87,6.02-.48,10.58-.12,2.11.17,4.34-.19,6.45.06,4.58.55,14.03,7.63,18.86,9.96,3.01,1.45,10.04,4.8,12.09.69,1.08-2.16.42-3.27-.56-5.26-2.48-5.06-9.25-11.06-12.45-16.14-.17-.27.31-1.39-.24-1.4-13.26,5.38-27.63,6.47-41.58,3.26h0ZM168.69,140.61c-1.15-.73-4.71-.33-4.17,1.62.11.39.93,1,1.39.48l2.78-2.1h0ZM136.17,161.53v-13.25c0-1.89-4.38-1.75-5.69-1.15-1.62.74-.46,11.34-.82,13.48,2.26-.04,4.48-.24,6.51.93h0ZM73.44,160.6h41.35l-18.12-10.46c-5.99-.18-13.51-2.72-19.05,0-.51.25-1.03.46-1.43.89-.99,3.2-.41,6.87-2.75,9.57Z"/>
  <path class="cls-3" d="M175.19,131.31v1.4c-.94.08-2.56-.27-3.29.21-.58.44-.3,1.19-.43,1.65-.17.59-1.17,1.64,0,2.33v29.77h3.72v-33.95c.24-.02.64-.38.93-.47.56.67,1.59.87,1.43,2.06l-.06,32.07c3.48.78,4.32,2.15,4.67,5.64.6,5.99.73,22.01-.12,27.78-.41,2.76-1.16,3.23-3.88,3.56-2.41.29-9.65.5-11.36-1.08-1.62-1.49-.77-8.56-.9-11.19-.1-1.9-.83-3.97-.46-6.05l-.7-1.16H17.92l-.7.7v15.81c0,3.83-10.2,3.34-12.74,2.98-3-.43-3.79-1.55-4.01-4.36-.52-6.78-.73-20.87.02-27.45.18-1.56,1.88-4.88,3.48-4.88h15.1c-1.08-1.07-1.27-2.58-1.86-3.72l1.86-.47c1.57,3.03,3.34,6.5,5.03,9.62,1.38,2.55,2.35,5.73,5.79,4.7,3.44-1.03.37-5.31-.6-7.34l.46-2.79c2.66.49,19.51-.64,20.44,0,.24.17.31,2.2,2.79,1.39-.04-.45.07-.97,0-1.39,19.82-.03,39.66.04,59.47,0l.24,1.4h.69v-1.4c6.48-.02,13.04.19,19.51,0-.39,1.83.76,1.55,2.14,1.43,1.25-.11,1.4-1.08,2.76-1.4,0-1.34.58-3.08.68-4.21h3.26c.03-.77-.04-1.55,0-2.33l2.32-.93c0,.65.89,2.19.46,3.26.23.25,5.64-.17,6.76-.03s1.65.87,2.07.95c-.26,2.11.84,1.85,1.39,2.33.06.05-.25,1.13.67.97l13.74-.04c1.05-.34.15-6.18.47-7.59.09-.37.88-.36.93-.55.35-1.32-1.55-.95-.93-3.17.11-.38.83-.12.95-.98.36-2.5-.83-2.84-.96-4.92-.06-.97-.1-2.31,0-3.26.19-1.82,1.18-4.09.96-6.27-.13-1.27-1.35-1.06-1.42-1.17-.12-.18-.05-3.74.04-4.38.49-3.46,2.98-4.2,6-3.06v-.02ZM152.89,166.65c.45-.9-.94-2.33-1.63-2.33h-12.78v2.33h14.41ZM2.82,170.6v29.76l.7.7h10.69l.7-.7v-16.74c0-2.27,8.8-1.58,10.47-1.61,43.01-.71,86.48.64,129.63,0,2.22-.03,12.75-1.88,12.75,2.07v16.28l.7.7h10.92c-.15-.46.46-1.01.46-1.16v-29.3c0-1.59-3.61-2.12-4.88-2.13-11.54-.09-23.26.55-34.84.5-33.3-.13-69.53-2.31-102.68-.46-1.83.1-3.82.84-5.81.46.22,1.62,1.51,2.9,1.75,4.53.4,2.69-1.03,5.05-3.82,5.26-6.77.52-6.27-5.51-9.4-9.82-4.45.7-9.61-.9-13.86-.44-1.31.14-3.16.58-3.49,2.09h0Z"/>
  <path class="cls-4" d="M17.22,162.93c-4.61-8.94-9.6-17.72-13.85-26.86-.61-2.21,1.85-4.88,3.89-5.2,3.7-.58,5.01,1.17,6.63,4.01,5.79,10.15,10.75,21.37,15.88,31.78l-.46,2.79c-5.56-11.64-12.74-22.89-18.03-34.74-1.77-3.28-6.35-2.21-5.1,1.85,4.55,8.5,8.47,17.37,12.9,25.91l-1.86.47h0Z"/>
  <path class="cls-12" d="M115.26,34.11c-3.1,4.51-6.71,8.64-9.67,13.26,1.93,1.31,3.4,2.95,5.02,4.41-.87.19-.7.91-.93,1.4-.75-1.23-7.1-4.59-6.99-5.33.33-2.15,8.46-11.25,10.24-13.74l.28.36,2.04-.36h.01Z"/>
  <path class="cls-10" d="M108.29,98.29l.46.93c-.62-.02-1.24.02-1.86,0,.06-.86.98-.7,1.39-.93h.01Z"/>
  <path class="cls-12" d="M175.19,131.31c1.59.6.58.51.93.93-.29.09-.69.44-.93.47v-1.4Z"/>
  <path class="cls-7" d="M112.47,64.34c3.51,8.18,1.67,17.94-3.94,24.65-9.54,11.42-27.47,13.62-41.22,10.09l-11.98-4.52c-6.62-5.69-9.73-13.28-8.31-22.04.24-1.5,1.47-6.5,2.55-7.21,1.71-1.12,10.16-2.74,12.63-3.17,15.84-2.73,34.77-2.12,50.28,2.19h0ZM61.69,71.87c-2.67.82-2.77,9.17,2.13,7.72,3.38-1,2.35-9.1-2.13-7.72ZM89.08,71.86c-2.68.93-2.56,8.74,2.14,7.74,3.7-.78,3.05-9.54-2.14-7.74ZM78.51,79.26c-2.19-.77-4.7-.77-6.89,0-.47,1.98.98,2.59,2.31,3.52.28,2.06-1.64,3.04-3.44,2.41-.95-.33-1.31-3.2-3.1-1.08.61,2.53,3.05,3.95,5.59,3.27.7-.19,1.46-1.03,2.16-1.09.91-.08,2.04,1.1,3.21,1.27,2.79.41,5.23-1.3,5.3-4.16-2.07-.57-2.06,1.14-3.07,1.81-1.94,1.29-5.36-.79-4.27-2.66,1.47-.58,2.59-1.58,2.19-3.3h0ZM60.32,85.15c4.05-4.05-8.73-7.44-10.04-2.35-.97,3.76,8.1,4.3,10.04,2.35ZM96.55,80.26c-1.67.31-4.4,2.06-3.16,3.87,2.38,3.49,12.26,2.49,11.11-1.78-.66-2.48-5.95-2.45-7.95-2.09Z"/>
  <path class="cls-2" d="M77.62,10.39c-.68,12.19-6.13,23.38-7.9,35.34.88.3,1.7-.37,2.32-.46,6.34-.94,12.41-2.2,18.78-.52l.52-.39c1.06-12.13,6.51-31.67,17.73-38.06,1.15-.66,2.25-1.33,3.61-1.5,8.86-1.1,10.21,4.08,9.07,11.64l-.46.47c-.08.42.09,1,0,1.4-1.27-.28-.86.69-1.17,1.36-4.59,9.91-12.79,18.14-18.93,27.13-1.32,2.39,1.34,3.16,1.97,4.99-14.88-2.75-30.3-1.9-45.07.93.9-1.41,2.77-1.44,2.82-3.47s-2.75-8.59-3.22-11.71c-1.43-9.55-.26-31.28,11.22-34.69,6.86-2.04,8,2.06,8.7,7.54h.01ZM67.28,14.19c-6.62,1.38-6.75,17.43-6.4,22.49.15,2.14,1.3,8.58,2.23,10.32,1.01,1.88,3.67.64,4.93-.39,1.84-1.5,1.01-4.97,1.27-7.1.69-5.47,4.57-20.02,1.27-24.18-.88-1.1-1.92-1.44-3.31-1.15h.01ZM94.36,45.25c1.69.06,3.39,2.07,4.88.99,2.99-4.34,6.72-8.91,9.43-13.37,1.99-3.28,8.17-14.09,3.52-16.84-3.88-2.29-8.47,3.44-10.32,6.31-4.3,6.68-6.4,15.1-7.5,22.91h0Z"/>
  <path class="cls-11" d="M71.12,103.87v.93c-.55.27-.08.31,0,.47.54,1.1.79,2.03,1.39,3.26.26.53.2,1.13.71,1.83,4.15,5.68,14.03,5.17,18.34-.21.67-.84.64-1.65.93-2.09.43-.66,1.39-1.27,1.86-2.33,2.1-.34.01,3.38,1.39,3.72v-4.19h2.79c-.3,1.65.15,2.8.46,4.19.03.15-.04.32,0,.47l.46,1.4c.42,1.21,1.53,3.82,2.32,4.76.74.89,2.41,1.41,2.8,2.68.77,2.54,1.35,9.29.9,11.83-.4,2.28-2.9,4.23-3.69,6.31-8.27,1.76-20.22,2.23-28.45.34-1.3-.3-4.99-1.32-5.91-1.99-2.52-1.83-2.05-13.63-1.88-16.95.67-.71.71-1.86.93-2.79.93-3.88,2.14-7.67,2.79-11.63.6,0,1.31-.08,1.86,0h0Z"/>
  <path class="cls-7" d="M69.73,138.28l.46.47c.27.07.65-.06.93,0-.2,1.31,3.17,2.02,4.07,2.21,12.48,2.67,26.33,1.77,37.75-4.07,3.21,5.08,9.97,11.08,12.45,16.14.97,1.98,1.64,3.09.56,5.26-2.71.18-5.39-.66-7.89-1.64-5.33-2.08-16.27-9.5-20.79-10.35-6.01-1.12-12.87-.08-18.97-2.02-1.12-.34-1.11.77-1.47.96-7.27,3.82-3.98,4.1-7.01,10.1-1.92,3.79-3.05,2.95-7.05,2.94-3.42-4-4.77-14.26-1.23-18.44.29-.35,3.19-2.66,3.55-2.77,1.11-.34,3.25.85,4.65,1.21h0Z"/>
  <path class="cls-10" d="M112.47,64.34c4.06,1.13,5.06.04,6.28,4.65,5.01,18.93-10.58,30.13-27.12,33.56.15,2.18-.72,3.05-1.93,4.58-2.2-.79-4.86.44-7.18.49-2.52.05-4.73-.65-7.22-.49-.46-.91-1.13-1.63-.93-2.79h3.71c.13-.65-.03-.77-.49-1.13-.75-.58-10.25-2.32-12.63-3.17-3.74-1.34-6.63-2.87-9.64-5.46l11.98,4.52c13.75,3.52,31.69,1.33,41.22-10.09,5.61-6.72,7.45-16.48,3.94-24.65v-.02Z"/>
  <path class="cls-14" d="M106.43,54.57c.05.22.25.44.46.47.44.05,1.03-.1,1.39,0l3.25,6.51c-5.76-1.31-13.81-2.28-19.75-2.79-14.21-1.21-28.36.44-42.04,4.18l2.57-4.63c2.74-3.43,10.59-4.44,14.92-5.06,10.82-1.55,28.7-1.72,39.19,1.33h.01Z"/>
  <path class="cls-6" d="M53,166.65c-.03-.16-.51-.5-.51-1.15,0-1.5,1.01-2.46,2.37-1.64l.25-1.43c20.44.2,40.89-.15,61.33,0,1.21,0,2.35.5,3.67.51,4.25.03,8.87-.98,13.04-.5,2.63.31,3.34,1.6,3.01,4.2-1.08.02-2.17-.03-3.25,0-6.48.19-13.03-.02-19.51,0h-.93c-19.82.04-39.66-.03-59.47,0h0Z"/>
  <path class="cls-2" d="M136.17,104.8c-1.84,2.71-5.8,3.69-8.82,4.42-7.74,1.88-15.85,1.81-23.7,3.02-1.51-3.46-2.53-8.07.31-11.09l26.4,1.33c1.98.54,4.68.24,5.81,2.32h0Z"/>
  <path class="cls-2" d="M64.15,112.24c-9.52-.23-20.09-.32-28.34-5.58.04-.32,0-.64.23-.92.68-.99,3.94-1.68,5.17-1.81,5.29-.57,11.68-.2,17.13-.53,2.32-.14,5.04-.64,7.39-.9l.67,1.04c-1.16,2.8-1.63,5.76-2.25,8.7Z"/>
  <path class="cls-10" d="M125.94,158.28c-2.05,4.11-9.08.76-12.09-.69-4.83-2.33-14.28-9.41-18.86-9.96-2.1-.25-4.33.11-6.45-.06-4.56-.36-5.62-1.75-10.58.12-5.73,2.16-3.48,4.47-5.12,9.29s-7.09,4.81-10.09,1.29c4.01.02,5.14.86,7.05-2.94,3.03-6-.26-6.28,7.01-10.1.36-.19.35-1.3,1.47-.96,6.1,1.94,12.96.9,18.97,2.02,4.53.84,15.47,8.27,20.79,10.35,2.5.97,5.18,1.82,7.89,1.64h.01Z"/>
  <path class="cls-5" d="M106.43,118.75c.5.18,1.5,1.66,3.25.93.72,2.75,3.15,11.32,2.09,13.49-.68,1.39-8.17,3.33-9.99,3.72.79-2.07,3.29-4.02,3.69-6.31.45-2.54-.13-9.29-.9-11.83.53.1,1.46-.15,1.86,0Z"/>
  <path class="cls-6" d="M136.17,161.53c-2.03-1.16-4.25-.97-6.51-.93.36-2.14-.8-12.74.82-13.48,1.31-.6,5.69-.73,5.69,1.15v13.25h0Z"/>
  <path class="cls-10" d="M136.17,104.8c2.09,3.82-5.88,6.04-8.44,6.66-6.97,1.7-14.38,1.93-21.49,2.61l-.27,1.43c-1.59-.66-1.76-1.98-2.32-3.26,7.85-1.21,15.96-1.14,23.7-3.02,3.02-.73,6.99-1.72,8.82-4.42Z"/>
  <path class="cls-10" d="M71.12,138.75c13.95,3.2,28.32,2.12,41.58-3.26.55,0,.07,1.13.24,1.4-11.42,5.84-25.27,6.74-37.75,4.07-.9-.19-4.27-.9-4.07-2.21Z"/>
  <path class="cls-10" d="M64.15,112.24c-.12.57-.24,2.68-.75,2.82-5.25.02-25.01-1.57-27.35-6.57-.28-.59-.33-1.2-.24-1.83,8.25,5.26,18.82,5.35,28.34,5.58Z"/>
  <path class="cls-10" d="M121.3,18.3c-1.42,5.87-4.9,10.97-8.36,15.81-1.78,2.49-9.91,11.6-10.24,13.74-.11.73,6.23,4.1,6.99,5.33-.06.11-.03.41-.21.42-1.99-.26-4.51-1.49-6.3-1.82-.64-1.83-3.29-2.6-1.97-4.99,6.13-8.99,14.34-17.22,18.93-27.13.31-.68-.1-1.65,1.17-1.36h0Z"/>
  <path class="cls-10" d="M72.05,45.27c-.63.09-1.44.76-2.32.46,1.77-11.97,7.22-23.15,7.9-35.34.02.12.44.51.48,1.13.84,11.17-5.08,22.69-6.06,33.75Z"/>
  <path class="cls-2" d="M120.83,134.56c-2.08,1.31-3.87-.67-6.04-.47-.4-1.67-.22-4.03-.87-5.78,3.23-2.63,3.89.63,5.26,1.62.79.58,1.83.22,2.55,1.17.89,1.17.23,2.75-.9,3.45h0Z"/>
  <path class="cls-2" d="M89.7,107.12c-3.85,4.89-11.32,6.08-14.4,0,2.49-.16,4.7.54,7.22.49,2.32-.05,4.97-1.28,7.18-.49Z"/>
  <path class="cls-13" d="M72.98,107.59c.96,2.06,3.24,4.11,5.58,4.88,5.01,1.64,10.44-.75,13.47-4.88l.46.47c-.29.44-.25,1.25-.93,2.09-4.31,5.37-14.19,5.89-18.34.21-.51-.7-.45-1.31-.71-1.83l.46-.93h0Z"/>
  <path class="cls-5" d="M108.29,55.04c4.3,1.13,7.47,3.31,8.36,7.9-.2.19-3.28-.44-3.85-.58-.7-.17-1.19-.8-1.26-.81l-3.25-6.51Z"/>
  <path class="cls-13" d="M99.46,102.94c.26-.59.61-1.16,1.39-.93-1.61,4.41.54,14.98,5.58,16.27v.47c-.4-.15-1.33.1-1.86,0-.38-1.27-2.06-1.8-2.8-2.68-.79-.94-1.9-3.55-2.32-4.76-.12-.34-.4-1.16-.46-1.4-.04-.14.03-.32,0-.47.13-2.06-.37-4.59.46-6.51h.01Z"/>
  <path class="cls-10" d="M120.83,134.56c1.31,2.25-.76,4.4-3,4.2-1.48-.13-2.72-3.35-3.04-4.67,2.17-.21,3.96,1.77,6.04.47Z"/>
  <path class="cls-5" d="M99.46,102.94c-.83,1.92-.34,4.45-.46,6.51-.31-1.39-.76-2.54-.46-4.19h-2.79v4.19c-1.38-.34.71-4.06-1.39-3.72.29-.66.37-1.6.46-2.33.87-.41,3.78-1.1,4.65-.47h-.01Z"/>
  <path class="cls-10" d="M69.26,103.87c-.65,3.96-1.86,7.74-2.79,11.63h-.46c.39-4.01.67-8.16,2.32-11.91.54-.45.89.28.94.28h-.01Z"/>
  <path class="cls-16" d="M168.69,140.61l-2.78,2.1c-.47.52-1.29-.09-1.39-.48-.53-1.95,3.02-2.35,4.17-1.62h0Z"/>
  <path class="cls-10" d="M94.35,105.73c-.47,1.06-1.43,1.66-1.86,2.33l-.46-.47c.82-1.12,1.4-3.54,2.79-4.19-.09.73-.17,1.67-.46,2.33h-.01Z"/>
  <path class="cls-16" d="M109.68,119.68c-1.75.73-2.75-.75-3.25-.93v-.47c1.52.39,2.63-.96,3.25,1.4Z"/>
  <path class="cls-10" d="M71.12,103.87c.28.04.61-.1.9.02.01,1.33.41,2.51.96,3.7l-.46.93c-.61-1.23-.86-2.15-1.39-3.26v-1.4h-.01Z"/>
  <path class="cls-10" d="M108.75,115.5v.93c-.89.08-1.76.09-2.32-.7l2.32-.23Z"/>
  <path class="cls-8" d="M66.47,115.49c-.22.93-.26,2.08-.93,2.79.06-1.22.39-2.05.46-2.79h.47Z"/>
  <path class="cls-5" d="M106.9,55.04c-.21-.03-.41-.25-.46-.47.2.06.37.27.46.47Z"/>
  <path class="cls-10" d="M70.19,138.75l-.46-.47c.23.06.4.45.46.47Z"/>
  <path class="cls-10" d="M121.3,16.9l.46-.47c-.06.37-.46.43-.46.47Z"/>
  <path class="cls-15" d="M2.82,170.6c.32-1.51,2.17-1.95,3.49-2.09,4.25-.46,9.41,1.14,13.86.44,3.13,4.31,2.63,10.34,9.4,9.82,2.79-.22,4.22-2.57,3.82-5.26-.24-1.63-1.53-2.92-1.75-4.53,1.99.37,3.98-.36,5.81-.46,33.15-1.86,69.39.32,102.68.46,11.58.05,23.3-.59,34.84-.5,1.27,0,4.88.54,4.88,2.13v29.3c0,.15-.62.71-.46,1.16h-10.92l-.7-.7v-16.28c0-3.95-10.53-2.1-12.75-2.07-43.15.64-86.62-.71-129.63,0-1.67.03-10.47-.66-10.47,1.61v16.74l-.7.7H3.52l-.7-.7v-29.76h0Z"/>
  <path class="cls-16" d="M29.3,169.44c.97,2.03,3.94,6.34.6,7.34s-4.42-2.15-5.79-4.7c-1.68-3.12-3.45-6.59-5.03-9.62-4.44-8.54-8.36-17.42-12.9-25.91-1.26-4.06,3.32-5.13,5.1-1.85,5.29,11.84,12.47,23.1,18.03,34.74h-.01Z"/>
  <path class="cls-15" d="M175.19,132.7v33.95h-3.72v-32.1c.13-.46-.15-1.21.43-1.65.73-.48,2.35-.13,3.29-.21h0Z"/>
  <path class="cls-15" d="M152.89,166.65h-14.4v-2.33h12.78c.69,0,2.08,1.43,1.63,2.33h-.01Z"/>
  <path class="cls-4" d="M113.4,166.65v1.39h-.69l-.24-1.4h.93Z"/>
  <path class="cls-1" d="M171.48,136.89c-1.17-.68-.17-1.73,0-2.33v2.33Z"/>
  <path class="cls-12" d="M78.51,79.26c.4,1.72-.72,2.71-2.19,3.3-1.09,1.87,2.33,3.96,4.27,2.66,1.01-.67,1-2.39,3.07-1.81-.08,2.87-2.51,4.57-5.3,4.16-1.17-.17-2.3-1.35-3.21-1.27-.7.06-1.46.9-2.16,1.09-2.53.68-4.97-.74-5.59-3.27,1.78-2.12,2.15.75,3.1,1.08,1.8.62,3.72-.35,3.44-2.41-1.33-.94-2.78-1.55-2.31-3.52,2.19-.77,4.7-.77,6.89,0h0Z"/>
  <path class="cls-9" d="M96.55,80.26c2-.37,7.29-.39,7.95,2.09,1.15,4.27-8.73,5.27-11.11,1.78-1.24-1.81,1.49-3.56,3.16-3.87Z"/>
  <path class="cls-9" d="M60.32,85.15c-1.95,1.95-11.01,1.41-10.04-2.35,1.31-5.09,14.1-1.7,10.04,2.35Z"/>
  <path class="cls-4" d="M89.08,71.86c5.19-1.8,5.84,6.96,2.14,7.74-4.7.99-4.82-6.81-2.14-7.74Z"/>
  <path class="cls-4" d="M61.69,71.87c4.48-1.38,5.51,6.72,2.13,7.72-4.9,1.45-4.8-6.9-2.13-7.72Z"/>
  <path class="cls-9" d="M94.36,45.25c1.1-7.81,3.2-16.24,7.5-22.91,1.85-2.87,6.44-8.59,10.32-6.31,4.65,2.74-1.53,13.56-3.52,16.84-2.7,4.46-6.44,9.03-9.43,13.37-1.49,1.08-3.19-.93-4.88-.99h0Z"/>
  <path class="cls-9" d="M67.28,14.19c1.39-.29,2.43.05,3.31,1.15,3.3,4.15-.58,18.71-1.27,24.18-.27,2.12.56,5.6-1.27,7.1-1.26,1.03-3.92,2.27-4.93.39-.94-1.74-2.08-8.18-2.23-10.32-.35-5.06-.22-21.12,6.4-22.49h-.01Z"/>
  <path class="cls-5" d="M99.46,111.31l-.46-1.4c.06.24.35,1.06.46,1.4Z"/>
  <path class="cls-4" d="M71.12,105.26c-.08-.16-.55-.2,0-.47v.47Z"/>
</svg>