<?xml version="1.0" encoding="UTF-8"?>
<svg id="_레이어_1" data-name="레이어 1" xmlns="http://www.w3.org/2000/svg" viewBox="0 0 178.5 204.57">
  <defs>
    <style>
      .cls-1 {
        fill: #575044;
      }

      .cls-2 {
        fill: #5e8448;
      }

      .cls-3 {
        fill: #c9cdd1;
      }

      .cls-4 {
        fill: #232028;
      }

      .cls-5 {
        fill: #201f1e;
      }

      .cls-6 {
        fill: #762946;
      }

      .cls-7 {
        fill: #81a955;
      }

      .cls-8 {
        fill: #926f51;
      }

      .cls-9 {
        fill: #a88d6e;
      }

      .cls-10 {
        fill: #fafaf9;
      }

      .cls-11 {
        fill: #323531;
      }

      .cls-12 {
        fill: #5d203c;
      }

      .cls-13 {
        fill: #769655;
      }

      .cls-14 {
        fill: #c1c9ce;
      }

      .cls-15 {
        fill: #d58541;
      }

      .cls-16 {
        fill: #765057;
      }

      .cls-17 {
        fill: #444640;
      }

      .cls-18 {
        fill: #e5e4e2;
      }
    </style>
  </defs>
  <path class="cls-4" d="M129.62,20.09c-.76,1.17-2.93,2.47-3.72,3.71,2.54,1.1,3.02-.26,4.65-.92,3.57-1.46,6.31-2.75,9.47-5.08.78,1.23,5.12,6.48,5.33,7.27,1.09,3.93-7.03,4.21-9.22,5.48l7.86,2.6c.53.77-3.73,7.86-4.14,8.12-1.14.71-5.33-1.17-6.52-1.87-1.6-.93-2.81-2.33-4.16-3.5.65,2.21.79,5.36,1.62,7.44,1.1,2.78,5.82,5.46.75,7.97-.07,2.79,1.35,1.96,2.74,2.96,2.59,1.86,1.75,4.41,2.57,6.27.3.67,1.75,1.53,2.29,2.35,1.33,2.02,1.22,4.13,1.23,6.45,8.67,1.91,20.12,5.82,25.96,12.85.95,1.14,1.62,2.86,2.34,3.7,4.74,5.58,10.49,9.12,9.18,17.56-.76,4.93-6.13,9.24-11.22,8.68-1.29-.14-2.28-.96-3.42-1.25-1.3-.34-2.52,0-3.96-.68-2.8-1.34-2.51-4.98-6.5-6.51-1.15-.44-2.27-.3-3.46-.72-2.97-1.04-4.76-4.46-8.49-3.82,1.68,6.4,6.61,12.6,4.64,19.53,9.94,1.64,8.47,14.84-.93,16.29l1.22,3.19c6.39.24,10.23.48,13.74,6.25,3.31,5.44,6.19,14.86.14,19.39-4.38,3.28-10.69,2.32-13.97-1.89-9.36,4.87-18.88,3.87-27.76-1.45-2.18-1.31-4.21-4.18-6.98-4.07-1.04.04-8.87,1.31-9.18,1.66-1.76,4.05-2.35,8.78-2.28,13.19.03,2.16.58,4.11.46,6.51-.14,2.93-.47,5.2-3.1,6.9-5,3.24-19.05,4.58-24.43,2.28-2.48-1.06-3.45-3.32-3.14-5.93.24-1.97,2.04-3.88,3.18-5.42.16-.83-1.79-3.02-2.25-3.88-2.72-5.08-5.26-11.24-6.63-16.84-.84-3.44-.95-9.06-1.8-11.69-.23-.72-1.32-.89-1.79-1.46-1.76-2.1-.89-3.68-1.62-5.35-.43-.99-3.4-3.1-4.33-4.5-.68-1.03-2.86-6.41-2.86-7.36v-13.25c-6.43,2.95-12.12,4.12-19.16,3.13-5-.71-11.18-.54-15.81-2.31-7.46-2.85-10.66-12.79-5.23-18.98,4.16-4.75,10.38-2.7,15.81-3.71.89-.16,2.64-1.98,4.44-2.54,2.16-.67,4.43-.45,6.41-1.02,3.63-1.06,9-6.47,12.62-8.29-4.84-3-1-8.67-1.47-11.5-.54-3.29-1.48-2.22-3.35-3.2-3.82-2.02-.91-4.59-1.18-6.15-.06-.37-1.71-.59-1.89-2.45-.25-2.52,2.98-5.04,3.51-8.07.86-4.93,1.24-10.16,1.7-15.03.14-1.42,1.94-3.13,1.07-4.52-.26-.42-2.16-1.36-2.95-2.17-.96-.98-2.51-3.34-2.76-4.68-2.52-13.86,15.3-20.75,23.12-9.62l5.6-1.9c.93-.85-1.33-2.94,2.19-4.28,2.23-.85,3.42-.64,5.68-.13-.06-6.89,7.43-2.69,10.85-.86.95.51,1.4,1.5,2.63,2.02,3.6,1.52,9.21.93,12.79,3.43,4.51-7.53,13.41-9.88,20.62-4.31,4.65,3.59,6.58,10.91,3.29,16ZM125.44,6.6c-6.38-5.98-15.94-3.5-17.69,5.08-.74.51-4.17-1.71-5.44-2.16-3.28-1.16-7.64-1.13-10.44-2.1-1.23-.43-7.84-6.76-9.63-5.01l1.39,4.65c-.98.96-8.53-3.47-9.29-.24,1.09,1.36,3.51,1.81,3.25,3.96-1.3.42-2.47-.87-3.47-.89-2.07-.04-13.39,5.76-14.18,7.64-.25.59.05.82.66.67,1.57-.38,3.25-1.14,4.99-1.52,11.08-2.39,21.83-2.6,33.07-1.18,4.95.63,9.78,1.96,14.7,2.73.66.7,4.94,2.25,5.5,1.76.2-.18.02-.77.08-.83.12-.11.75.11.93,0,.39,2.78,3.12,3.42,5.34,1.86,5.06-3.56,4.45-10.46.23-14.41ZM59.92,14.04c.62-.58,3.86-1.68,3.66-2.49-.41-1.68-3.45-3.86-5.04-4.27-11.19-2.85-19.35,12.26-7.92,17.45.21-.51.76-2.6.94-2.79,2.11-2.32,6.27-5.12,8.36-7.9ZM117.54,22.42c-17.02-6.57-38.87-7.44-56.42-2.3-5.69,1.67-9.53,3.76-10.49,10.19,22.13-6.91,46.87-6.94,69.22-.92,1.68.45,3.73,1.43,5.37,1.84.64.16.85-.01.66-.66-.1-.33-2.98-5.83-3.22-6.08-1-1.03-3.76-1.54-5.14-2.07ZM59.23,18.22v.47c.3-.15.3-.31,0-.47ZM133.33,24.28c-.53.24-2.52.69-2.71,1-.66,3.36,1.23,2.67,3.64,2.72,1.72.03,8.99-.43,8.31-2.94l-2.99-4.06c-2.11,1.05-4.1,2.29-6.25,3.28ZM128.68,30.79c.22-1.99.11-4.29-2.32-4.65-.46.51,1.27,4.37,2.32,4.65ZM121.25,32.18c-19.38-5.97-44.01-6.72-63.65-1.64-2.24.58-4.46,1.34-6.65,2.06-.4.27-1.88,5.51-2.05,6.44-.63,3.46-.19,7.31-1.64,10.46-.7,1.52-2.68,2.81-2.21,4.99h2.32c.19,1.55-1.18,2.58-1.38,3.99-.58,4.12,2.34,1.5,3.18,2.11.32.23,2.04,4.86,4.23,6.46.03,1.03.73,1.48,1.43,2.06,3.21,2.62,10.02,5.69,14.01,6.9.91.28,9.19,1.29,7.32,3.13l-5.57-.23c2.06,1.25,3.96,2.75,6.04,3.96.89.52,1.13,1.04,2.32,1.4l4.42,4.66c.9,0,3.83-3.74,4.87-4.66.87-.77,1.88-1.57,2.79-2.32,9.64-8.09,20.87-14.04,32.04-19.78,2.04-1.64,3.03-6.43,3.32-6.67.69-.58,3.57,1.13,3.12-2.03-.18-1.22-1.25-2.56-.84-4.07h2.33c-.08-2.67-2.12-4.26-3.01-6.99-.75-2.28-.87-6.07-1.75-8.01-.81-1.77-3.41-1.72-5-2.21ZM137.51,38.23c2.26-.5,2.57-1.79,3.72-3.71-2.39-.59-4.7-1.39-6.97-2.33-.93-.39-2.03-1.57-3.41-1.43-3.04,2.28,1.5,5.75,3.72,6.92,1.37.72,1.55.86,2.94.55ZM131.47,56.37c-.53.33-.87.9-.93.93-.28.13-1.27-.19-1.85.22l-.47,1.4,2.33-.23c-.12.53-.11.67-.44,1.17-1.82,2.8-17.16,9.93-21.18,12.31-6.93,4.1-13.99,9.02-19.96,14.43-1.7,1.54-2.92,3.54-4.68,4.66-1.27.12-6.19-4.7-7.68-5.8-6.55-4.86-12.59-8.1-19.41-12.2-2.24-1.35-4.38-3.35-6.56-4.82-1.01,3.05-.59,6.01,1.6,8.39,2.7,2.93,16.02,8.64,20.05,9.27,1.6.25,3.59-1.07,5.05,1.42l.16,18.28-.67.75c-1.41,1.05-5.59-.68-5.76-2.54-.07-.72.45-1.55.47-2.32.07-3.82.21-7.58.47-11.39.01-.2.91-1.13.43-1.82-6.88-1.76-13.1-5.01-19.48-7.94-.39-.18-.82-.78-1.23-.83-1.67-.19-10.02,6.99-12.71,8.03s-5.95.28-8.36,1.88c-.31,1.12,1.73,2.51,2.41,3.62,2.18,3.56,3.38,9.76,2.23,13.81-.37,1.3-1.79,3.11-2.26,4.5-.2,2.15,7.07.73,8.39.48,3.44-.64,6.73-1.93,9.83-3.54.87-.94,1.76-12.2,2.16-14.46.33-1.89,1-5.17,2.8-2.1-.69,5.56-1.88,11.17-2.33,16.75-.57,6.9-1.2,12.9,1.39,19.3.37.92.24,1.72,1.01,2.95,2.3,3.69,5.44,3.86,9.21,4.5,20.2,3.41,43.26.42,62.26-6.97,3.25-1.27,12.67-5.01,14.34-7.74,3.67-6-2.16-16.18-4.35-22.01-1.17-1.37-9.45.22-8.58-2.56.26-.82,1.84-.76,2.56-.73,3.44.12,10.74,1.11,13.81,2.48,1.87.84,3.15,2.88,5.22,3.17,1.23-.09,1.44-2.54,2.1-3.76,2.69-4.95,7.03-9.54,12.52-11.18,1.3-1.52-4.26-5.59-5.41-6.4-7.3-5.19-17.3-8.38-26.16-8.93-.27-.02-.72-.78-1.98-.39-10.2,8.21-22.73,12.54-34.77,17.31-.92,1.17.62,7.87,1.1,9.67.25.93.94,4.3,2.19,4.09.06.28-.05.64,0,.93-.79,2.71-.97,3.66-4.18,3.25-.13-.11-.84-.07-1.17-.44-1.71-1.93-.6-2.18-.9-3.77-.69-3.6-2.03-7.05-2.31-10.71l-2.13-.43c-.47-1.67,1.09-1.56,1.6-2.35.42-.66.17-1.53.93-2.33,1.33-1.4,2.24-.54,3.52-.44,5.38.43,26.75-10.57,32.03-14.21,1.25-.86,4.26-4.38,5.79-3.9.57.18.49,1.13,1.1,1.36.73.28,2.45.21,3.36.47.14-2.75-.61-6.75-4.18-6.05-.24-.95.45-2,.47-2.79.04-2.12.11-3.29-1.86-4.19-.12-.05-.19-.71-.92-.46v.93ZM97.08,101.01l-2.4-13.64-1.31-.78c-.1,4.79,1.18,9.52,2.28,14.14l1.43.27ZM74.78,101.47c-.72-3.94,1.4-8.61.96-12.35-.09-.8-.13-1.6-1.18-1.61l-1.18,13.68,1.4.28ZM155.16,98.23c-.4.92-1.83,4.15-.23,4.65s2.37-2.78,3.02-3.72c2.71-3.93,6.51-7.83,11.15-9.31l-1.72-2.25c-4.93.92-10.25,6.11-12.22,10.62ZM29.71,106.58c-.48,1.89-1.78,3.18-1.86,5.11,3.63.72,3.84-1.92,4.64-4.65.36-1.24.91-1.9.96-3.49.09-3.12-2.02-11.51-5.39-12.31-3.15-.75-.46,2.09.18,3.54,1.75,3.95,2.57,7.46,1.46,11.79ZM173.58,106.9c2.81-3.3,2.19-9.29-.3-12.63-2.66-3.56-3.66-2.67-6.94-.43-3.51,2.4-6.55,6.11-7.95,10.17l2.13,4.48,1.59-.02v-2.79c3.51-.1,3.29,3.11,5.83,4.2,1.29.12,4.78-1.97,5.63-2.96ZM12.52,106.58c1.92,2.92,5.23,4.25,8.64,4.6,4.66.47,5.53-1.93,6.23-5.99.5-2.96.29-5.14-.45-8.07-.06-.48-.58-.35-.95-.3-.29-6.15-6.81-6.1-5.56.22.88,4.47,4.11-.05,5.56-.22.2,4.31-1.77,3.07-2.25,4.49-.33.96.04,2.37-.08,3.41-1.17.29-1.99,4.02-4.81,3.27-.48-.13-.26-.92-.3-.94,1.18-1.96,2.56-1.35,2.79-3.96.26-3.07-.61-1.63-2.1-3-2.1-1.93-1.2-5.82.25-7.92-8.03-.33-11.23,7.96-6.97,14.41ZM98.01,102.41c-.2-.2-2.45-.45-1.85,1.16.66,1.79,2.62-.39,1.85-1.16ZM73.39,104.72c2.47.22,2.45-2.08,0-1.86v1.86ZM147.56,131.08c3.11-2.64,2.8-7.21-.54-9.6-4.67-3.34-2.94,2.97-2.98,4.88-.06,2.82-2.05,9.44,3.52,4.72ZM127.74,135.43c2.4-.92,13.72-6.25,14.32-8.23.26-.87.26-2.45-1.06-2.47-24.01,12.78-53.38,17.51-80.16,12.09-.31.84.31,1.35.46,1.86.09.3-.18.81.11,1.27.93,1.45,7.1,2.17,9.01,2.4,17.64,2.13,40.7-.5,57.32-6.91ZM117.05,141.01c-13.33,3.41-27.12,4.56-40.89,4.18.33.84,1.15,1.37,1.86,1.86-4.52.3-9.06-.4-13.47-1.4,1,10.81,4.86,21.21,11.15,30.01-1.85,2.94-6.9,5.74-2.34,9.06,0-1.87-.12-5.16,2.52-4.62,1.83.55-1.17,4.14-.46,5.1l4.44.45c-.22-2.06.25-4.82,2.78-4.65l-.46,4.65c1.88.13,3.74-.19,5.58-.47,2.58-.38,8.2-1.33,9.09-4.16.99-3.14-.1-10.8.22-14.67.23-2.88,1.3-5.57,1.86-8.37l-11.63-2.57c0-.64-.04-1.61.73-1.8,5.17,1.2,10.4,2.23,15.75,1.8,5.67-.46,6.92-2.89,12.78-.46-.41,2.97,5.46,5.54,7.81,6.36,5.74,2,10.83,2.08,16.58.16,1.66-.55,5.37-2.73,6.49-2.81,1.78-.12-.26,1.35-.02,1.87.66.69,1.31,1.34,2.12,1.86,1.09.7,2.37,1.41,3.71,1.39.57-.53-3.06-3.31-1.15-3.72,1.68-.36,2.81,2.8,4.17,2.8,1.37-.62,3.3-1.48,3.03-3.26-1.38.08-3.48-1.11-3.73-2.56-.31-1.87,2.43.37,2.77.48.77.26,1.55.25,2.35.21-.05-2.56-.25-6.32-1.86-8.37-1.29-6.41-5.7-9.2-12.08-8.84-.27.29.62,2.21-.7,1.87-3.27-.53-3.94-8.58-4.88-11.17-7.53,4.37-15.72,7.6-24.16,9.76Z"/>
  <path class="cls-7" d="M119.84,168.91l.46.47c.06.11-.06.33,0,.47.34.8.45,1.74,1.16,2.32.93-.5.82-1.71,1.16-2.32.05-.09.61-.44.93-.93h1.86c.02.39.08,1.1,0,1.4-.1.36-1.4,1.26-.93,2.32.92-.04,1.87.07,2.79,0,.31-.02.62.02.93,0,.32.7,1.25.45,1.86.47.75.02,1.58.06,2.32,0l.93.47c.77-.05,1.56.07,2.32,0,.61.09,1.25.41,1.86.47.87.08,1.89,0,2.79,0l.31.37c1.63-.02,3.19.52,4.8.56.46.01.94.03,1.39,0,.22.6.88.45,1.39.47.46.01.93.01,1.39,0,1.09.7,2.9.91,4.18.93.3,0,.66.05.93,0l.93.47c.43.07,1.02-.1,1.39,0,.66.18,1.32.82,2.32.47v-1.4c.11-.05.37-1.07,1.12-.92l2.13,1.85c.45-2.25,1.62-4.04,4.19-3.72l-.46,4.18,2.56-1.4,1.15.71-1.4,3.47c6.41,1.79,15.07,7.16,5.88,12.64-13.84,8.26-50.86,11.04-67.43,11.56-28.08.88-66.33.28-93.17-7.71-7.66-2.28-22.09-8.09-7.9-14.66.65-.89-3.04-2.7-2.32-4.18,2.38-.44,3.65,1.07,5.57,1.86l-.88-3.91,1.12-.77c1.78-.52,2.74,3.65,3.32,3.79l4.34-.96c.98,3.63,5.27,9.43,8.36,11.63.03,1.71-3.16,1.09-3.67,2.63-.54,1.64.77,2.07,2.02,2.51,7.03,2.49,27.53,2.69,34.39-.03,6.11-2.42-2.24-4.47-4.4-5.57,5.17-3.99,8.6-10.07,8.37-16.74l7.9-.46c.46.87,2.41,3.05,2.25,3.88-1.14,1.54-2.94,3.45-3.18,5.42-6.58,1.43-9.71,4.18-1.4,6.75,14.18,4.38,42.19,4.18,57.4,3.51,6.61-.29,23.5-1.66,28.97-4.48,4.51-2.33,1.72-3.6-1.57-4.84-7.19-2.71-15.72-2.54-23.24-3.71l-29.5-.47c.12-2.4-.43-4.35-.46-6.51l18.59.47.2-2.36,1.65-.44ZM13.44,189.82c3.07-.15,2.16-6.19-.4-3.41l.4,3.41ZM12.04,190.28c.18-1.68-.7-3.97-2.78-3.72-.18,1.68.7,3.97,2.78,3.72ZM156.52,188.46c-1.82-1.2-2.99,4.8-1.6,5.1,1.62.35,2.3-3.98,1.6-5.1ZM150.97,190.31c-.26.98.73,4.48,2.08,4.18,1.59-.35-.05-5-2.08-4.18ZM160.25,190.31c-2.22.03-2.51,1.92-2.78,3.71,2.54.42,2.93-1.64,2.78-3.71ZM107.75,199.6l-.44-5.84-1.42-.2.44,5.84,1.42.2ZM110.98,199.58c.22-.15,2.14-4.46.72-5.09-.71-.31-2.27,3.34-2.56,3.97-.08.97,1.31,1.5,1.84,1.12ZM104.5,200.06c.32-1.6-.44-3.55-2.32-3.72-.32,1.6.44,3.55,2.32,3.72Z"/>
  <path class="cls-4" d="M62.22,172.16c.23,6.68-3.2,12.75-8.37,16.74-8.22,6.35-19.87,6.49-28.34.46-3.09-2.2-7.38-8-8.36-11.63-3.41-12.64,7.55-24.8,19.81-25.98s24.81,7.57,25.26,20.41ZM32.95,154.95c-.39-.43-9.61,4.27-9.29,6.5.62.57,5.73-3.55,6.72-4.19,1.25-.81,3.04-.39,2.57-2.31ZM55.25,161.46c.12-2.17-7.93-6.76-8.82-6.04-.83.67.62,1.03.87,1.2.86.61,7.6,5.18,7.95,4.84ZM38.45,159.67c-2.08-.71-4.12-2.46-6.44-1.73-.76.24-5.92,3.92-6.03,4.31-.22.8.06,5.11.57,5.61l6.06,1.43c1.28-1.05,5.66-2.98,5.92-4.34l-.08-5.28ZM45.39,157.82c-.78.1-4.94,1.69-5.25,2.22l.48,5.6,5.6,3.74c4.26-.81,6.87-.71,6.74-5.85-.05-2.15-5.5-5.98-7.56-5.71ZM31,181.82c1.14-2.28,3.21-2.6,2.79-5.59-.52-3.75-2.47-6.25-6.3-6.77-2.54-.35-5.35,2.73-5.23,5.23.25,5.21,3.58,7.97,8.74,7.13ZM54.79,171.69c-.11-.12-.19-.91-.65-1.42-1.79-1.99-4.88.25-7.13.6l-2.42,6.65c.03.62,2.16,2.83,2.77,3.47.45.47.62,1.41,1.6,1.36,4.09-1.02,5.44-.36,6.9-4.72.48-1.43,1.32-4.03.37-5.31-.39-.52-1.34-.54-1.43-.64ZM19.94,172.62c-.88-.04-.94-.22-.94.7.02,3.02,1.5,6.52,3.04,9.07.35.58-.1,1.18,1.15.92-.24-3.61-2.47-7.1-3.25-10.69ZM56.64,183.31c.69-2.3,2.13-3.95,2.68-6.39.12-.53.82-4.33-.11-4.29l-3.4,8.7.84,1.98ZM32.49,184.24c.33.86,1.89,3.86,2.63,4.11,2.05-.17,7.88.71,9.21-.39.18-.15,2.44-3.83,2.49-4.06.46-1-.73-1.28-.86-1.51-.54-.96-1.57-3.3-2.64-3.63l-8.18-.1-3.06,4.07c-.33,1.02.24,1.1.41,1.52ZM44.8,189.83c-2.93-.41-7.53,0-10.69,0-.09,0-.83.75-.7.92,4.07,1.33,8.45,1.35,12.54,0,.17-.47-.97-.9-1.16-.92Z"/>
  <path class="cls-18" d="M130.54,22.88c-1.62.66-2.11,2.03-4.65.92.79-1.24,2.96-2.55,3.72-3.71-.06,1.01,0,2.18.93,2.79Z"/>
  <path class="cls-18" d="M140.28,174.03c.08,0,.73-.51,1.59-.52,1.17,0,2.31.56,3.49.56l.03.89c-1.61-.04-3.17-.59-4.8-.56l-.31-.37Z"/>
  <path class="cls-18" d="M125.41,170.31c.51.99.45,1.56,1.77,1.47l.09.86c-.92.07-1.87-.04-2.79,0-.48-1.06.83-1.97.93-2.32Z"/>
  <path class="cls-18" d="M149.57,175.42c.06,0,.37-.45,1.07-.44.89.01,2.05.69,3.1.46v.92c-1.27-.02-3.08-.23-4.18-.93Z"/>
  <path class="cls-18" d="M122.63,169.84c-.34.6-.23,1.81-1.16,2.32-.71-.57-.82-1.51-1.16-2.32h2.32Z"/>
  <path class="cls-18" d="M159.33,175.89v1.4c-1,.35-1.66-.29-2.32-.47.57-.78,1.61-.63,2.32-.93Z"/>
  <path class="cls-18" d="M123.55,168.91c.11-.16-.27-.84.25-.95l1.61.02c.03.31-.01.62,0,.93h-1.86Z"/>
  <path class="cls-18" d="M128.2,172.63c.22-.02,1.1-.86,1.86-.46v.93c-.61-.02-1.53.24-1.86-.47Z"/>
  <path class="cls-18" d="M146.78,174.96c.12,0,.73-.76,1.39-.46v.93c-.51-.01-1.17.14-1.39-.47Z"/>
  <path class="cls-18" d="M135.63,173.56c.25-.02,1.09-.85,1.86-.46v.93c-.6-.06-1.24-.37-1.86-.47Z"/>
  <path class="cls-18" d="M132.38,173.1c.05,0,.44-.65.93-.46v.93s-.93-.47-.93-.47Z"/>
  <path class="cls-18" d="M154.68,176.36c.06-.01.39-.66.93-.46v.93s-.93-.47-.93-.47Z"/>
  <path class="cls-18" d="M120.3,169.37l-.46-.47.46.47Z"/>
  <path class="cls-6" d="M134.26,60.09c-4.04.56-2.57.22-3.84,2.9-4.79,10.14-20.63,15.46-30.4,19.8-1.44.64-3.11,1.41-4.33,2.41-1.28-.1-2.18-.96-3.52.44-.76.79-.5,1.67-.93,2.33-.51.79-2.07.68-1.6,2.35l2.13.43c.28,3.66,1.63,7.11,2.31,10.71.3,1.59-.81,1.84.9,3.77.33.37,1.03.33,1.17.44.16.14-.12,1.31,1.15,1.42,1.62.13,3.37-.87,3.54-2.59.12-1.21-.43-1.59-.51-2.08-.05-.29.06-.65,0-.93-.84-4.16-2.24-8.31-2.79-12.55,12.52-3.21,24.66-9.16,35.09-16.75.56-.4,1.39-.33,1.15-1.38,8.86.55,18.86,3.73,26.16,8.93,1.15.81,6.71,4.88,5.41,6.4-5.49,1.65-9.83,6.23-12.52,11.18-2.77-.33-5.2-2.74-7.89-3.5-4.53-1.28-10.85-1.41-15.36,0-2.48.77-4.2,2.01-2.99,4.89.92,2.19,3.52,1.31,4.51,2.92,2.24,3.65,3.49,13.79,2.24,17.81-1.11,3.6-4.49,5.57-5.61,9.04-19,7.39-42.06,10.37-62.26,6.97.27-1.24-.64-.92-1.28-1.25-3.41-1.75-6.14-3.53-8.94-6.19-2.59-6.39-1.95-12.39-1.39-19.3.46-5.58,1.64-11.19,2.33-16.75-1.8-3.08-2.47.21-2.8,2.1-1.34-.07-1.14.72-1.47,1.56-.66,1.72-.91,3.29-2.05,4.92-3.42,4.86-9.25,5.31-14.61,6.54,1.15-4.05-.05-10.25-2.23-13.81-.68-1.11-2.72-2.5-2.41-3.62,2.4-1.6,5.62-.82,8.36-1.88s11.04-8.21,12.71-8.03c.41.05.85.65,1.23.83.48,1.95,3.04,3.43,4.7,4.37,4.34,2.45,9.73,3.56,14.35,5.4-.26,3.8-.4,7.57-.47,11.39-.01.77-.53,1.6-.47,2.32.17,1.86,4.34,3.59,5.76,2.54l.67-.75-.16-18.28c-1.46-2.49-3.44-1.17-5.05-1.42-4.03-.63-17.35-6.34-20.05-9.27-2.19-2.38-2.61-5.34-1.6-8.39,2.18,1.47,4.32,3.47,6.56,4.82,6.82,4.1,12.86,7.34,19.41,12.2,1.49,1.11,6.41,5.92,7.68,5.8,1.76-1.13,2.98-3.13,4.68-4.66,5.98-5.41,13.03-10.33,19.96-14.43,4.02-2.38,19.36-9.51,21.18-12.31.32-.5.32-.64.44-1.17.03-.12-.58-.92,0-1.4.06-.03.4-.6.93-.93.19-.12.78.05.93-.46,1.97.9,1.9,2.06,1.86,4.19ZM108.47,110.78c-2.52.5,2.67,6.43,3.23,6.99,1.35,1.38,6.79,6.07,8.63,4.88,1.73-1.13-1.85-2.19-2.5-2.65-2.01-1.44-4.22-3.44-5.87-5.28-.7-.78-2.33-4.17-3.49-3.94ZM68.97,114.96c-.47.13-1.46,4.45-1.91,5.53-.71,1.65-4.16,5.93-4.29,6.41-.23.83.04,1.07.64,1.55,2.23.59,5.74-7.18,6.35-8.98.36-1.07,1.88-5.27-.78-4.5Z"/>
  <path class="cls-17" d="M121.25,32.18c9.8,29.51-20.99,44-45.79,42.33-6.29-.42-16.96-3.74-22.05-7.46-2.19-1.6-3.92-6.23-4.23-6.46-.84-.61-3.76,2.01-3.18-2.11.2-1.41,1.57-2.44,1.38-3.99h-2.32c-.47-2.19,1.51-3.47,2.21-5,1.45-3.14,1-7,1.64-10.46.17-.93,1.65-6.17,2.05-6.44,2.2-.72,4.41-1.48,6.65-2.06,19.65-5.08,44.28-4.33,63.65,1.64ZM94.61,39.23c-2.02.71-2.59,6.22.27,7.48,6.05,2.65,6.17-9.74-.27-7.48ZM62.11,41.11c-2.49.73-2.49,6.51,0,7.24,4.49,1.33,5.23-4.33,2.93-7.11-.68-.41-2.16-.35-2.93-.13ZM77,43.92c-11.42,1.55-16.71,19.53-4.79,24.08,5.83,2.23,20.08,1.44,21.52-6.4,1.76-9.6-6.92-19-16.73-17.68Z"/>
  <path class="cls-17" d="M115.19,143.8c.38.83,1.53.21,2.16.08,2.14-.43,4.39-.86,6.49-1.41s10.5-3.81,11.58-3.76,4.49,5.5,7.86,6.5c5.2,1.56,8.7-1.3,13.72,2.56.29.22,1.78,1.51,1.86,1.61,1.61,2.05,1.81,5.81,1.86,8.37-.79.04-1.58.05-2.35-.21-.34-.11-3.08-2.35-2.77-.48.24,1.45,2.34,2.64,3.73,2.56.27,1.78-1.66,2.63-3.03,3.26-1.35,0-2.49-3.15-4.17-2.8-1.91.41,1.72,3.19,1.15,3.72-1.34.01-2.63-.69-3.71-1.39.1-1.87.36-5.73-2.16-5.95-.73-.06-7.7,2.43-9.73,2.64-9.42.99-12.99-.79-21.09-4.14-5.87-2.43-7.12,0-12.78.46-5.35.44-10.58-.6-15.75-1.8-.77.19-.74,1.16-.73,1.8.05,3.32,4.14,4.55,4.56,5.9.53,1.74-.08,5.66.09,7.81.36,4.53,2,6.3-.38,11.26-1.05,2.18-2.83,2.85-3.81,4.79-1.84.27-3.7.6-5.58.47l.46-4.65c-2.54-.17-3,2.59-2.78,4.65l-4.44-.45c-.71-.96,2.29-4.55.46-5.1-2.64-.54-2.53,2.75-2.52,4.62-4.57-3.32.48-6.12,2.34-9.06-6.29-8.8-10.15-19.2-11.15-30.01,4.41,1,8.95,1.7,13.47,1.4.51.35,1.27.63,1.86.93,10.83,5.55,24.66,4.57,33.92-3.25.23-.19.61-.11,1.39-.93Z"/>
  <path class="cls-2" d="M99.86,177.74l29.5.47c7.53,1.17,16.05,1,23.24,3.71,3.29,1.24,6.08,2.52,1.57,4.84-5.47,2.82-22.36,4.19-28.97,4.48-15.21.67-43.22.87-57.4-3.51-8.31-2.57-5.18-5.31,1.4-6.75-.31,2.6.66,4.86,3.14,5.93,5.38,2.31,19.43.96,24.43-2.28,2.63-1.7,2.95-3.97,3.1-6.9Z"/>
  <path class="cls-11" d="M121.25,32.18c1.58.49,4.19.44,5,2.21.88,1.94,1,5.74,1.75,8.01.89,2.73,2.93,4.32,3.01,6.99h-2.33c-.4,1.51.67,2.85.84,4.07.45,3.16-2.43,1.45-3.12,2.03-.29.24-1.28,5.03-3.32,6.67-11.17,5.74-22.4,11.69-32.04,19.78-.48-.86-1.67-.42-2.42-.33-4,.44-8.08.28-11.99,1.26-2.08-1.21-3.98-2.7-6.04-3.96l5.57.23c1.87-1.84-6.41-2.86-7.32-3.13-3.99-1.21-10.8-4.28-14.01-6.9-.7-.58-1.4-1.02-1.43-2.06,5.09,3.72,15.76,7.04,22.05,7.46,24.8,1.67,55.59-12.82,45.79-42.33Z"/>
  <path class="cls-6" d="M117.54,22.42l2.32,6.98c-22.35-6.02-47.1-5.99-69.22.92.95-6.44,4.79-8.53,10.49-10.19,17.55-5.15,39.4-4.27,56.42,2.3ZM75.72,21.01c.16.28.18.59.46.93,1.88,2.24,3.67,3.21,6.04.67.47-.5.34-.94.47-1.14.07-.11-.06-.33,0-.47.08-.19,1.2-.33.88-1.53-.77-2.9-3.39-1.11-4.44-.93-1.3.22-3.72-1.45-4.36,1.31-.01.86.85.99.95,1.15Z"/>
  <path class="cls-17" d="M113.35,18.23c-4.92-.76-9.75-2.1-14.7-2.73-11.24-1.42-21.99-1.21-33.07,1.18-1.75.38-3.43,1.14-4.99,1.52-.61.15-.91-.08-.66-.67.79-1.87,12.11-7.67,14.18-7.64,1,.02,2.17,1.3,3.47.89.26-2.15-2.15-2.6-3.25-3.96.75-3.23,8.31,1.19,9.29.24l-1.39-4.65c1.8-1.75,8.4,4.58,9.63,5.01,2.8.97,7.16.94,10.44,2.1,1.28.45,4.7,2.66,5.44,2.16,1.75-8.58,11.31-11.05,17.69-5.08l-.06,5.28c-.31.91-1.89.98-2.73,1.23-.47-4.08-5.38-5.03-8.7-3.39-1.82.9-1.86,2.58-1.99,4.31,0,.08-.52.35-.4,1.03.04.26,1.58,2.92,1.8,3.15Z"/>
  <path class="cls-12" d="M152.84,97.29c-.66,1.22-.86,3.67-2.1,3.76-2.08-.29-3.35-2.34-5.22-3.17-3.07-1.37-10.37-2.36-13.81-2.48-.72-.02-2.3-.09-2.56.73-.87,2.79,7.42,1.2,8.58,2.56,2.18,5.83,8.01,16.01,4.35,22.01-1.67,2.73-11.08,6.47-14.34,7.74,1.12-3.47,4.49-5.43,5.61-9.04,1.24-4.02,0-14.16-2.24-17.81-.99-1.61-3.59-.73-4.51-2.92-1.21-2.88.52-4.12,2.99-4.89,4.5-1.4,10.83-1.27,15.36,0,2.68.76,5.11,3.17,7.89,3.5Z"/>
  <path class="cls-17" d="M173.58,106.9c-.85.99-4.34,3.08-5.63,2.96-2.54-1.09-2.32-4.3-5.82-4.2v2.79s-1.6.02-1.6.02l-2.13-4.48c1.4-4.06,4.43-7.76,7.95-10.17,3.28-2.24,4.28-3.13,6.94.43,2.49,3.34,3.12,9.33.3,12.63Z"/>
  <path class="cls-11" d="M117.05,141.01c8.44-2.16,16.63-5.39,24.16-9.76.94,2.59,1.6,10.63,4.88,11.17,1.32.33.43-1.58.7-1.87,6.38-.36,10.79,2.43,12.08,8.84-.08-.1-1.57-1.39-1.86-1.61-5.02-3.86-8.51-1-13.72-2.56-3.37-1.01-6.76-6.45-7.86-6.5s-9.42,3.19-11.58,3.76-4.36.99-6.49,1.41c-.63.13-1.78.75-2.16-.08.8-.83,1.71-1.43,1.86-2.79Z"/>
  <path class="cls-12" d="M127.74,135.43c.17-1.78-.04-1.45-1.56-1.34-2.09.15-3.62,1.19-5.38,1.59-19.49,4.48-39.67,6.99-59.49,2.99-.15-.51-.77-1.02-.46-1.86,26.78,5.42,56.15.7,80.16-12.09,1.32.01,1.32,1.6,1.06,2.47-.6,1.98-11.92,7.31-14.32,8.23Z"/>
  <path class="cls-11" d="M87.32,155.42l11.63,2.57c-.56,2.8-1.63,5.49-1.86,8.37-.32,3.87.77,11.52-.22,14.67-.89,2.83-6.51,3.78-9.09,4.16.98-1.94,2.76-2.61,3.81-4.79,2.38-4.96.74-6.73.38-11.26-.17-2.16.44-6.07-.09-7.81-.41-1.36-4.51-2.58-4.56-5.9Z"/>
  <path class="cls-6" d="M61.3,138.67c19.83,4,40,1.49,59.49-2.99,1.77-.41,3.29-1.44,5.38-1.59,1.52-.11,1.73-.44,1.56,1.34-16.62,6.4-39.68,9.04-57.32,6.91-1.91-.23-8.08-.95-9.01-2.4-.29-.45-.02-.97-.11-1.27Z"/>
  <path class="cls-12" d="M53.41,94.03c-.4,2.26-1.29,13.52-2.16,14.46-3.09,1.6-6.38,2.9-9.83,3.54-1.33.25-8.59,1.67-8.39-.48.47-1.39,1.89-3.2,2.26-4.5,5.36-1.23,11.19-1.67,14.61-6.54,1.14-1.63,1.39-3.2,2.05-4.92.32-.84.13-1.63,1.47-1.56Z"/>
  <path class="cls-17" d="M51.56,21.94c-.18.19-.73,2.28-.94,2.79-11.43-5.19-3.27-20.3,7.92-17.45,1.59.4,4.63,2.59,5.04,4.27.2.81-3.04,1.91-3.66,2.49-6.17-5.91-13.43,1.1-8.36,7.9Z"/>
  <path class="cls-12" d="M134.26,60.09c-.01.79-.71,1.84-.47,2.79,3.57-.7,4.32,3.3,4.18,6.05-.91-.27-2.63-.2-3.36-.47-.61-.23-.53-1.18-1.1-1.36-1.52-.48-4.54,3.03-5.79,3.9-5.28,3.64-26.65,14.64-32.03,14.21,1.22-.99,2.89-1.76,4.33-2.41,9.77-4.34,25.61-9.66,30.4-19.8,1.27-2.68-.2-2.34,3.84-2.9Z"/>
  <path class="cls-17" d="M12.52,106.58c-4.26-6.45-1.06-14.74,6.97-14.41-1.45,2.1-2.35,5.99-.25,7.92,1.5,1.37,2.37-.07,2.1,3-.22,2.61-1.61,2-2.79,3.96-.25-.17-5.01,0-6.04-.47Z"/>
  <path class="cls-8" d="M117.05,141.01c-.15,1.36-1.06,1.96-1.86,2.79s-1.17.74-1.39.93c-5.84.69-12.04,2.39-17.89,2.78-4.33.29-9.08-.05-13.47,0-.79,0-2.07-.3-2.55.47-.58-.3-1.35-.58-1.86-.93-.71-.48-1.53-1.02-1.86-1.86,13.76.38,27.56-.77,40.89-4.18Z"/>
  <path class="cls-11" d="M149.57,162.4c-.81-.52-1.46-1.17-2.12-1.86-.24-.52,1.8-2,.02-1.87-1.11.08-4.83,2.26-6.49,2.81-5.75,1.92-10.84,1.85-16.58-.16-2.36-.82-8.23-3.39-7.81-6.36,8.1,3.35,11.67,5.13,21.09,4.14,2.03-.21,9-2.7,9.73-2.64,2.52.22,2.26,4.08,2.16,5.95Z"/>
  <path class="cls-12" d="M133.79,70.78c.24,1.06-.6.98-1.15,1.38-10.43,7.59-22.57,13.54-35.09,16.75.55,4.24,1.95,8.4,2.79,12.55-1.25.21-1.94-3.15-2.19-4.09-.48-1.81-2.03-8.5-1.1-9.67,12.04-4.77,24.57-9.1,34.77-17.31,1.26-.39,1.71.37,1.98.39Z"/>
  <path class="cls-9" d="M122.65,13.11c.35,3.09-.26,4.52-2.79,6.05-.18.11-.81-.11-.93,0-1.69-2.16-4.36-4.26-6.97-5.12.13-1.74.17-3.41,1.99-4.31,3.32-1.64,8.23-.69,8.7,3.39Z"/>
  <path class="cls-11" d="M125.44,6.6c4.22,3.95,4.83,10.85-.23,14.41-2.22,1.56-4.95.92-5.34-1.86,2.53-1.52,3.14-2.96,2.79-6.05.83-.24,2.41-.32,2.73-1.23l.06-5.28Z"/>
  <path class="cls-9" d="M59.92,14.04c-2.09,2.79-6.25,5.58-8.36,7.9-5.06-6.8,2.2-13.81,8.36-7.9Z"/>
  <path class="cls-11" d="M147.56,131.08c-5.56,4.72-3.58-1.9-3.52-4.72.04-1.91-1.69-8.22,2.98-4.88,3.34,2.39,3.65,6.97.54,9.6Z"/>
  <path class="cls-11" d="M27.39,105.18c-.69,4.07-1.57,6.47-6.23,5.99-3.41-.35-6.72-1.68-8.64-4.6,1.03.47,5.79.3,6.04.47.04.03-.18.81.3.94,2.82.75,3.64-2.97,4.81-3.27s2.57.44,3.72.47Z"/>
  <path class="cls-6" d="M155.16,98.23c1.97-4.51,7.29-9.7,12.22-10.62l1.72,2.25c-4.64,1.48-8.44,5.38-11.15,9.31l-2.79-.93Z"/>
  <path class="cls-6" d="M32.5,107.04l-2.79-.47c1.11-4.33.29-7.84-1.46-11.79-.64-1.45-3.33-4.29-.18-3.54,3.36.8,5.48,9.19,5.39,12.31-.05,1.59-.6,2.25-.96,3.49Z"/>
  <path class="cls-6" d="M133.33,24.28c2.14-.99,4.14-2.23,6.25-3.28l2.99,4.06c.68,2.5-6.59,2.97-8.31,2.94l.47-2.79-1.33-.05-.06-.88Z"/>
  <path class="cls-12" d="M52.94,80.54c6.37,2.94,12.6,6.19,19.48,7.94.48.69-.41,1.63-.43,1.82-4.63-1.84-10.02-2.96-14.35-5.4-1.66-.94-4.21-2.42-4.7-4.37Z"/>
  <path class="cls-12" d="M117.54,22.42c1.38.53,4.14,1.04,5.14,2.07.24.25,3.12,5.75,3.22,6.08.19.65-.02.82-.66.66-1.65-.4-3.69-1.38-5.37-1.84l-2.32-6.98Z"/>
  <path class="cls-1" d="M91.04,81.94c-.91.76-1.92,1.56-2.79,2.32-3.3-.11-5.99,1-9.29,0-1.19-.36-1.43-.88-2.32-1.4,3.91-.98,7.99-.82,11.99-1.26.75-.08,1.93-.53,2.42.33Z"/>
  <path class="cls-17" d="M25.99,96.81c.36-.04.88-.18.95.3.74,2.92.95,5.11.45,8.07-1.15-.02-2.6-.75-3.72-.47.12-1.04-.25-2.46.08-3.41.48-1.42,2.45-.18,2.25-4.49-1.45.17-4.68,4.7-5.56.22-1.25-6.32,5.27-6.38,5.56-.22Z"/>
  <path class="cls-12" d="M134.26,32.18c-.62,3.17,1.07,4.29,3.25,6.05-1.39.31-1.57.17-2.94-.55-2.22-1.17-6.77-4.64-3.72-6.92,1.38-.14,2.48,1.04,3.41,1.43Z"/>
  <path class="cls-6" d="M134.26,32.18c2.27.94,4.58,1.74,6.97,2.33-1.14,1.92-1.46,3.21-3.72,3.71-2.18-1.75-3.87-2.88-3.25-6.05Z"/>
  <path class="cls-18" d="M97.08,101.01l-1.43-.27c-1.1-4.63-2.38-9.35-2.28-14.14l1.31.78,2.4,13.64Z"/>
  <path class="cls-11" d="M118.93,19.16c-.06.06.13.65-.08.83-.56.49-4.84-1.06-5.5-1.76-.22-.24-1.75-2.89-1.8-3.15-.11-.68.4-.95.4-1.03,2.61.86,5.28,2.95,6.97,5.12Z"/>
  <path class="cls-18" d="M88.26,84.26c-1.04.92-3.97,4.67-4.87,4.66l-4.42-4.66c3.3,1,5.99-.1,9.29,0Z"/>
  <path class="cls-18" d="M74.78,101.47l-1.4-.28,1.18-13.68c1.05,0,1.09.81,1.18,1.61.44,3.74-1.68,8.41-.96,12.35Z"/>
  <path class="cls-12" d="M55.26,127.97c2.8,2.66,5.53,4.44,8.94,6.19.64.33,1.55,0,1.28,1.25-3.77-.64-6.91-.8-9.21-4.5-.76-1.22-.63-2.02-1.01-2.95Z"/>
  <path class="cls-12" d="M32.5,107.04c-.8,2.73-1.01,5.37-4.64,4.65.08-1.93,1.37-3.23,1.86-5.11l2.79.47Z"/>
  <path class="cls-12" d="M133.33,24.28l.06.88,1.33.05-.47,2.79c-2.41-.04-4.3.64-3.64-2.72.19-.31,2.18-.76,2.71-1Z"/>
  <path class="cls-12" d="M157.95,99.16c-.65.94-1.37,4.23-3.02,3.72s-.17-3.73.23-4.65l2.79.93Z"/>
  <path class="cls-12" d="M96.15,105.66c3.21.4,3.39-.55,4.18-3.25.08.49.63.88.51,2.08-.17,1.73-1.92,2.73-3.54,2.59-1.27-.11-.99-1.28-1.15-1.42Z"/>
  <path class="cls-12" d="M128.68,30.79c-1.05-.28-2.78-4.13-2.32-4.65,2.43.36,2.54,2.66,2.32,4.65Z"/>
  <path class="cls-14" d="M73.39,104.72v-1.86c2.45-.22,2.47,2.07,0,1.86Z"/>
  <path class="cls-3" d="M98.01,102.41c.76.76-1.19,2.95-1.85,1.16-.59-1.6,1.65-1.36,1.85-1.16Z"/>
  <path class="cls-12" d="M130.54,57.3c-.58.47.03,1.27,0,1.4l-2.33.23.47-1.4c.58-.42,1.57-.09,1.85-.22Z"/>
  <path class="cls-12" d="M132.4,55.9c-.15.51-.74.35-.93.46v-.93c.74-.25.81.41.93.46Z"/>
  <path class="cls-17" d="M59.23,18.22c.3.16.3.31,0,.47v-.47Z"/>
  <path class="cls-2" d="M53.86,188.9c2.16,1.1,10.51,3.15,4.4,5.57-6.86,2.72-27.36,2.52-34.39.03-1.25-.44-2.56-.87-2.02-2.51.51-1.53,3.7-.92,3.67-2.63,8.47,6.03,20.12,5.89,28.34-.46Z"/>
  <polygon class="cls-13" points="107.75 199.6 106.33 199.4 105.9 193.56 107.32 193.76 107.75 199.6"/>
  <path class="cls-13" d="M156.52,188.46c.7,1.12.02,5.45-1.6,5.1-1.39-.3-.22-6.31,1.6-5.1Z"/>
  <path class="cls-13" d="M110.98,199.58c-.53.37-1.92-.15-1.84-1.12.28-.63,1.85-4.28,2.56-3.97,1.42.63-.5,4.93-.72,5.09Z"/>
  <path class="cls-2" d="M13.44,189.82l-.4-3.41c2.56-2.78,3.47,3.26.4,3.41Z"/>
  <path class="cls-13" d="M150.97,190.31c2.03-.82,3.67,3.84,2.08,4.18-1.36.29-2.34-3.2-2.08-4.18Z"/>
  <path class="cls-2" d="M12.04,190.28c-2.08.25-2.96-2.04-2.78-3.72,2.08-.25,2.96,2.04,2.78,3.72Z"/>
  <path class="cls-2" d="M160.25,190.31c.15,2.07-.24,4.14-2.78,3.71.27-1.8.56-3.69,2.78-3.71Z"/>
  <path class="cls-2" d="M104.5,200.06c-1.88-.17-2.63-2.11-2.32-3.72,1.88.17,2.63,2.11,2.32,3.72Z"/>
  <path class="cls-10" d="M31,181.82c-5.17.84-8.5-1.92-8.74-7.13-.12-2.5,2.7-5.58,5.23-5.23,3.83.52,5.78,3.03,6.3,6.77.42,2.98-1.65,3.3-2.79,5.59Z"/>
  <path class="cls-10" d="M38.45,159.67l.08,5.28c-.26,1.36-4.64,3.29-5.92,4.34l-6.06-1.43c-.52-.51-.79-4.81-.57-5.61.11-.39,5.28-4.07,6.03-4.31,2.32-.73,4.36,1.02,6.44,1.73Z"/>
  <path class="cls-10" d="M45.39,157.82c2.06-.27,7.51,3.56,7.56,5.71.13,5.14-2.48,5.04-6.74,5.85l-5.6-3.74-.48-5.6c.31-.53,4.47-2.11,5.25-2.22Z"/>
  <path class="cls-10" d="M54.79,171.69c-1.56,3.6-3.78,7.54-7.44,9.3-.6-.64-2.73-2.85-2.77-3.47l2.42-6.65c2.25-.35,5.34-2.59,7.13-.6.46.51.54,1.29.65,1.42Z"/>
  <path class="cls-10" d="M45.96,182.39c-4.62,1.53-8.51,2.34-13.47,1.86-.16-.42-.74-.5-.41-1.52l3.06-4.07,8.18.1c1.07.33,2.1,2.68,2.64,3.63Z"/>
  <path class="cls-14" d="M45.96,182.39c.13.23,1.33.51.86,1.51-.05.23-2.31,3.91-2.49,4.06-1.33,1.1-7.16.22-9.21.39-.74-.25-2.3-3.25-2.63-4.11,4.96.48,8.85-.33,13.47-1.86Z"/>
  <path class="cls-14" d="M47.36,180.99c3.65-1.76,5.88-5.7,7.44-9.3.09.1,1.03.12,1.43.64.96,1.27.12,3.87-.37,5.31-1.46,4.35-2.81,3.69-6.9,4.72-.98.04-1.15-.89-1.6-1.36Z"/>
  <path class="cls-14" d="M44.8,189.83c.19.03,1.33.46,1.16.92-4.09,1.34-8.47,1.33-12.54,0-.13-.17.61-.92.7-.92,3.16,0,7.76-.41,10.69,0Z"/>
  <path class="cls-14" d="M19.94,172.62c.79,3.59,3.01,7.09,3.25,10.69-1.25.26-.8-.34-1.15-.92-1.54-2.55-3.02-6.05-3.04-9.07,0-.92.06-.75.94-.7Z"/>
  <path class="cls-14" d="M56.64,183.31l-.84-1.98,3.4-8.7c.93-.04.23,3.76.11,4.29-.54,2.45-1.98,4.09-2.68,6.39Z"/>
  <path class="cls-3" d="M32.95,154.95c.47,1.92-1.32,1.5-2.57,2.31-.99.64-6.1,4.77-6.72,4.19-.32-2.23,8.9-6.93,9.29-6.5Z"/>
  <path class="cls-3" d="M55.25,161.46c-.36.34-7.09-4.23-7.95-4.84-.25-.17-1.7-.54-.87-1.2.89-.72,8.94,3.87,8.82,6.04Z"/>
  <path class="cls-4" d="M108.47,110.78c1.16-.23,2.79,3.16,3.49,3.94,1.65,1.85,3.86,3.85,5.87,5.28.64.46,4.23,1.52,2.5,2.65-1.84,1.2-7.28-3.5-8.63-4.88-.55-.56-5.74-6.5-3.23-6.99Z"/>
  <path class="cls-4" d="M68.97,114.96c2.66-.77,1.14,3.43.78,4.5-.61,1.81-4.12,9.57-6.35,8.98-.6-.48-.86-.72-.64-1.55.13-.47,3.59-4.75,4.29-6.41.46-1.07,1.45-5.39,1.91-5.53Z"/>
  <path class="cls-9" d="M77,43.92c9.81-1.33,18.49,8.07,16.73,17.68-1.44,7.84-15.68,8.63-21.52,6.4-11.92-4.55-6.63-22.53,4.79-24.08ZM78.1,53.62c2.02-.57,5.91-3.03,4.15-5.43-1.88-2.58-16.28-1.37-9.29,4.18,1.59,1.26,3.9,1.08,3.16,3.7-.26.76-2.16,1.26-2.94,1.21-1.76-.12-3.51-3.58-4.44-.69,3.98,2.29,4.7,8.74,9.55,9.51,8.15,1.29,10.89-6.15,9.96-12.99-1.94-.18-2.12,1.98-3.54,2.73-2.01,1.05-7.48,1.14-6.61-2.21Z"/>
  <path class="cls-4" d="M94.61,39.23c6.44-2.26,6.33,10.13.27,7.48-2.87-1.26-2.29-6.77-.27-7.48Z"/>
  <path class="cls-4" d="M62.11,41.11c.77-.23,2.25-.28,2.93.13,2.3,2.79,1.56,8.44-2.93,7.11-2.49-.74-2.49-6.51,0-7.24Z"/>
  <path class="cls-9" d="M113.8,144.73c-9.25,7.83-23.09,8.8-33.92,3.25.48-.77,1.76-.46,2.55-.47,4.4-.05,9.14.29,13.47,0,5.85-.39,12.06-2.09,17.89-2.78Z"/>
  <path class="cls-18" d="M82.69,21.02l-2.55-1.39-1.15,1.38-1.17-1.39-2.1,1.39c-.1-.17-.96-.29-.95-1.15.64-2.76,3.05-1.09,4.36-1.31,1.05-.17,3.67-1.97,4.44.93.32,1.21-.79,1.35-.88,1.53Z"/>
  <path class="cls-18" d="M76.18,21.94l2.32-.93c.35.84.02,2.69,1.4,2.33v-1.87s2.79,0,2.79,0c-.13.2,0,.64-.47,1.14-2.37,2.53-4.15,1.57-6.04-.67Z"/>
  <path class="cls-16" d="M75.72,21.01l2.1-1.39,1.17,1.39,1.15-1.38,2.55,1.39c-.06.14.07.36,0,.47h-2.79s0,1.86,0,1.86c-1.38.36-1.05-1.49-1.4-2.33l-2.32.93c-.28-.34-.31-.65-.46-.93Z"/>
  <path class="cls-5" d="M78.1,53.62c-.87,3.36,4.61,3.27,6.61,2.21,1.42-.75,1.61-2.91,3.54-2.73.93,6.84-1.81,14.28-9.96,12.99-4.85-.77-5.57-7.22-9.55-9.51.93-2.89,2.68.57,4.44.69.78.05,2.68-.44,2.94-1.21.74-2.62-1.57-2.43-3.16-3.7-6.99-5.55,7.42-6.76,9.29-4.18,1.75,2.4-2.14,4.87-4.15,5.43ZM85.47,59.15c.05-.23.77-.67.46-1.39-.24-.24-4.01.88-4.89.85-1.01-.04-1.88-.8-2.81-.84-.68-.03-3.89,1.35-3.94,1.66-.02,2.32,1.64,2.55,2.82,3.44.09.07-.37.95,1.25,1.28,4.72.97,6.27-.93,7.11-5Z"/>
  <path class="cls-15" d="M85.47,59.15c-.84,4.07-2.39,5.97-7.11,5-1.62-.33-1.16-1.22-1.25-1.28,1.12-2.6,5.71-3.55,8.36-3.72Z"/>
  <path class="cls-8" d="M77.11,62.87c-1.18-.89-2.85-1.12-2.82-3.44.05-.31,3.26-1.69,3.94-1.66.94.04,1.8.8,2.81.84.88.03,4.66-1.09,4.89-.85.31.73-.42,1.17-.46,1.39-2.65.17-7.24,1.12-8.36,3.72Z"/>
</svg>