<?xml version="1.0" encoding="UTF-8"?>
<svg id="_레이어_1" data-name=" 레이어 1" xmlns="http://www.w3.org/2000/svg" viewBox="0 0 168.15 214.62">
  <defs>
    <style>
      .cls-1 {
        fill: #251e29;
      }

      .cls-2 {
        fill: #42443e;
      }

      .cls-3 {
        fill: #8a9ca7;
      }

      .cls-4 {
        fill: #554e41;
      }

      .cls-5 {
        fill: #fcfcfb;
      }

      .cls-6 {
        fill: #c8ab8e;
      }

      .cls-7 {
        fill: #27221f;
      }

      .cls-8 {
        fill: #e5e3d7;
      }

      .cls-9 {
        fill: #bdc6c9;
      }

      .cls-10 {
        fill: #642942;
      }

      .cls-11 {
        fill: #d3d8da;
      }

      .cls-12 {
        fill: #582039;
      }

      .cls-13 {
        fill: #b6b4a7;
      }

      .cls-14 {
        fill: #ebebea;
      }

      .cls-15 {
        fill: #702b47;
      }

      .cls-16 {
        fill: #9b8164;
      }

      .cls-17 {
        fill: #63864c;
      }

      .cls-18 {
        fill: #e1d197;
      }

      .cls-19 {
        fill: #81a458;
      }

      .cls-20 {
        fill: #342d31;
      }

      .cls-21 {
        fill: #2c2e32;
      }
    </style>
  </defs>
  <path class="cls-21" d="M114.5,34.58c0-3.16-.26-6.41.29-9.54L157.99.28l10.15-.28v2.39h-7.75v209.25h7.75v2.39c-2.94-.41-8.37.95-10.7-.93l-42.62-46.21-34.3.04v-.6c.04-.39-.06-.82,0-1.19l33.67.61c.57.02.25-.79.31-1.2.68-5.31.63-20.56.02-25.96-.1-.87-.11-1.52-.92-2.06-.35,1.61-2.41,1.21-3.02,2.38s1.08,3.57-.81,5.7c-3.18,2.02-8.37.9-9.92-2.74-4.19,1.75-8.4,1.35-12.76.61.8,1.91-1.03,2.43-1.15,2.84-.82,2.89-.71,6.53-1.55,9.7-.26,1,.09,2.11-1.47,1.77-.07-.33-.89-1.03-.6-1.79.09-.34-.08-.84,0-1.19.11-.49,0-.57,0-.6.5-2.7,1.54-6.44.6-8.94.19.02.4,0,.6,0,3.11-.02,1.25-.91,1.79-1.79.05-.08,1.28.42,1.25-.85-.04-1.62-1.45-9.06-1.97-10.64s-2.88-1.77-3.45-3.41l1.78,1.19v-2.39h-1.19c.22-.79.4-1.59.6-2.38.07-.05,1.09-1.07,1.19-1.19,1.72.09,3.26-.62,3.58-2.38-.46,2.18,3.91,1.11,4.8.92,5.82-1.22,8.38-6.73,14.29-7.17.35-2.01,2.44-5.21,2.83-6.71,3.95-15.38-9.75-29.74-5.82-49.04h1.19l-.6,3.27c.55,4.87.22,9.65,1.47,14.63.83,3.29,2.74,6.18,3.72,9.39,2.06,6.75,3.05,15.15,2.01,22.13l2.9.64c1.72-7.01,5.83-13.06,10.45-18.47,1.35-1.58,11.12-10.3,9.84-11.91-4.13,2.17-4.86,6.09-9.66,7.92-13.54,5.15-18.98-8.4-19-19.54,0-.85.16-4.36,1.84-3.88l.6.6c-.05.38.07.83,0,1.19-.04.19.03.4,0,.6-.34,1.96-.02,1.45,0,2.38,0,.2-.02.4,0,.6.04.35.05.86,0,1.19-.01.06-.38.13-.49.32l.49.28c-.44,1.28.5,2.65.6,3.58.05.46-.7,1.52-.5,1.72l1.09.07c-.93,1.25.45,1.49.6,1.79.19.39-.2.96.6,1.79.64.66.88.68,1.79.6.59-.05,1.12-.02,1.51-.58.44-.54.15-1.33.28-1.81h.6v2.99h1.19c-.38.08-1.31.94-1.79,1.19-.09.02-.12.75-.59.6-.1-.36.11-.97,0-1.19-.1-.2-.13-.42-.3-.58-.47.06-1.11-.13-1.49-.01-2.37.76,1.7,2.27,2.19,2.59.67.44.54,2.25,1.98.99h.6c.06.54-.16,1.02.6,1.19.38.06.87-.09,1.19,0,2.53.7,1.5.36,3.58,0,.91-.16,1.94.3,2.98-.3.71-.41.79-1.6,1.19-2.09.5-.61,1.97-.88,1.79-2.38.12.1.47-.1.6,0,.03.02-.05.5.3.59h.89c.03-.39-.03-.79,0-1.19.02-.2,0-.4,0-.6l3-3.24-2.06-.89-.94,1.75h-1.19c.03-.39-.02-.8,0-1.19.21-.16.5-.35.6-.6.14-.35.57-1.56.6-1.79.06-.53.04-1.24,0-1.79l.6.6c-.1.53.06,1.22,0,1.79l.89.6.89-.6v-3.58c.22-.38.38-.8.6-1.19.29-.53,1.16-3.01,1.19-3.58,0-.19.05-.48,0-.6,1.54-1.05,2.23-.29,2.98-2.98.79-.03,1.59.04,2.38,0,.4-.02.8.03,1.19,0,.02-1.19-.02-2.39,0-3.58h2.38c.06,1.16-.17,2.35.08,3.5,5.67,1,9.32,7.07,8.27,12.6-.62,3.26-5.72,7.31-8.94,7.75-.35.05-.83.03-1.19,0-.09,0-.7-.46-1.79-.6-.97-.13-1.92-.91-2.97-.33-4.97,6.35-11.53,11.3-15.76,18.27-2.81,4.64-4.71,11.41-3.33,16.82.08.32,1.96,1.18,2.58,3.52,2.13,8.01-1.9,10.08-2.58,15.67-1.09,8.94.83,20.03.03,29.21,13.14,15.45,26.92,30.52,41.12,45.02V2.98l-40.54,22.94-.59,12.23c-.15.33.24,1.48-.04,1.74-.32.3-1.73-.08-2.35.05v-5.36h-.05ZM137.75,64.98c-.63.44-.75.72-1.19,1.19-1.59,1.73-3.21,3.12-2.98,5.96.16,1.99,1.61,3.55,2.98,4.77,3.52,3.15,7.35,3.54,10.44-.59,4.19-5.58-.14-13.33-7.2-12.56-1.88.2-1.44.79-2.05,1.23ZM113.91,110.89l-4.77-.6c.1,2.25,2.84,3.19,4.76,2.98v-2.38h0ZM111.52,116.25c1.12-1.01-4.92-4.59-2.4-.28l2.4.28ZM91.25,123.41c-1.15,0-6.32-.29-6.6.99l2.55,15.58c2.67,1.51,13.06.9,14.37-1.81.65-1.34.64-3.19,1.01-4.62.43-1.68,1.82-6.17,1.82-7.46,0-1.65-1.19-2.37-1.22-3.86,1.38-.09,1.64,1.27,3.21,1.2,5.04-.23,2.51-7.9-1.43-6.92-2.38.59-5.51,3.99-7.94,5.22-2.12,1.08-3.65,1.21-5.76,1.69h-.01ZM108.54,128.77c-.17,7.37,3.86,9.25,7.15,2.38,1.45-3.01,3.71-12.3-.57-13.46-3.76-1.02-3.43,2.77-4.35,4.67-1.49,3.08-2.14,2.23-2.23,6.41ZM108.54,138.91c.59-2.87-1.46-4.46-3.57-5.96-1.16,3.39-.44,6.17,3.57,5.96ZM108.54,140.71l-4.49-1.72-2.06,2.6c1.5,1.42,3.52,2.26,5.6,2.13l.95-3.01h0Z"/>
  <path class="cls-1" d="M44.76,94.79c3.44-.24,1.79,3.06,4.17,2.98.04.19-.04.4,0,.6.25,1.37-.7,3.56,1.19,4.17.09.34-.1.88,0,1.19v1.19h1.19c.07.18-.07.43,0,.6,2.15,4.91,4.62,6.71,8.94,9.54.26.17.77.35,1.19.6.53,2.16,1.85,2.27,3.58,2.98.16.07.41-.06.6,0v1.19c.59.04,1.19-.02,1.79,0,.19,0,.4.02.6,0-.24,2.59,3.36.1,4.54,0,1.1-.08,2.69.72,3.1.5,2.18-3.09,4.81-6.12,5.18-10.04.77-1.21,2.4-.85,3.28-1.2.47.25,1.3.7,1.79.6.68.92.51,1.94.6,2.98h-1.19v2.05l1.2.33c.15,1.54.99,3.15.6,5.37-.31,1.77-1.86,2.47-3.58,2.38.79-.97,2.01-3.84,1.83-5.07-.22-1.51-1.78-1.27-1.88-1.88-.16-.98,1.22-3.51.64-4.98-.66-.01-1.21-.15-1.81.27-.54.38-3.62,8.25-4.75,9.55l2.98.91-1.79,3.57c.14.13,3.29-1,3.57-1.19-.2.79-.38,1.6-.6,2.38-.1.36-.5.77-.6,1.19.56,1.64,2.94,1.86,3.45,3.41s1.93,9.03,1.97,10.64c.04,1.27-1.2.78-1.25.85-.6-5.11-1.04-12.28-7.15-13.71l2.38,6.55-4.76-4.17c-.78,5.99,3.6,10.93,9.53,11.33-.54.88,1.32,1.77-1.79,1.79-.31-.84-1.18-.49-1.79-.6-.2-.04-.43.05-.6,0l-.12-1.09c-1.74.14-1.68-1.82-3.45-1.29-.5-.43-.76-.73-1.19-1.19l-2.98-7.15c-.05-.2.08-.55,0-.6l-.3-.59-.89.59c.05,1.4-.09,2.86-.6,4.17-.22.58-1.86,2.88-2.38,3.58-2.75,3.68-6.58,5.88-11.33,5.37-.25-4.89,0-9.34,2.39-13.71.33-.6,3.06-3.01,2.38-3.57-6.1-.13-11.58-4.31-16.4-7.75l-.82.09-.07,1.1c-.59.04-1.2-.06-1.79,0,.6-3.08-1.64-5.61-3.57-7.75-.97,2.75-1.81,6.35-2.99,8.94-2.6,5.71-6.22,5.23-8.34,12.52-.07.08-.79-.34-1.2.4-2.39,4.2-1.72,15.75-.58,20.47-1.47-.09-1.52.91-2.1,1.78-3.61,5.39-6.64,10.23-11.93,14.35l.32,2.95c-.55-.09-1.21.06-1.79,0h-.6c-.06-.31-.58-.51-.6-.6-.19-.8-.51-1.56-.6-2.38.41-.27.89-.42,1.15-.88-1.23-1.59-3.23-3.98-4.13-5.68-1.36-2.56-3.55-7.98-4.17-10.73-.48-2.14-.45-3.86-.6-5.96-1.49-21.25,9.17-40.66,30.13-47.06,4.48-1.37,6.43-.11,9.82-4.05.9-1.04.52-2.97,2.96-3.14h.02ZM60.85,122.81c-1.03-.53-3.14-1.6-2.98-2.98.46-.42,7.11,2.86,8.3,3.32.74.28,1.72.54,1.23-.63-.36-.86-12.27-9.05-14.6-11.63-1.35-1.49-3.58-4.53-4.39-6.34-1.05-2.35-1.12-5.33-2.31-7.21-1.35-2.13-1.82.54-1.94,1.91-.55,6.11,3.85,8.4,4.77,14.01-5.44-1.59-4.5-7.83-7.45-11.32-2.09,3.7-.63,10.17,2.66,12.84s3.71,3.81,6.29,6.23c2.25,2.11,4.79,2.57,7.45,3.58,3.04,1.16,5.98,3.28,9.53,1.78,1.14-1.55-5.53-3.04-6.55-3.57h-.01ZM37.01,103.74c-7.68.22-14.04,4.56-19.67,9.25-.3,1.36,1.65,1.31,1.79,1.48.83,1.06,1.69,4.72,3.86,4.76,1.24.02,4.77-2.15,6.29-2.66,2.02-.68,7.81-1.58,8.63-3.29.99-2.05-.78-5.75-.9-8.35v-.6l.29-1.19-.29.59h0ZM5.42,135.93c.13.71,3.76,8.43,4.17,8.69l3.49-1.33c1.03-4.86,2.63-9.55,4.25-14.23.92-2.66,3.85-7.24,2.43-9.57-.93-1.52-3.48-1.88-3.61-2.05-.19-.24.17-1.94-.89-2.37-3.79,4.38-10.87,15-9.84,20.85h0ZM36.41,116.26l-13.1,5.07c-2.35,6.42-8.75,16.9-7.72,23.8.26,1.75,4.67,10.74,6.31,11.03,5.18-2.54,2.26-8.04,2.61-12.77.32-4.24,2.21-9.8,4.51-13.37,2.88-4.48,7.97-7.38,7.4-13.76h-.01ZM70.77,121.71c-2.23.75-.03,7.09,1.41,7.97,4.67,2.86,6.71-10.69-1.41-7.97ZM68,128.18c-6.07,1.99-7.93,9.19-8.34,14.9,5.53-.09,10.58-6.54,10.72-11.92l-5.36,3.57,2.97-6.55h.01ZM12.4,146.15c-2.53,1.36-8.1,1.43-8.2,4.95-.09,3.15,5.07,18.26,9.19,17.55,10.12-6.65,3.86-14.18-.22-22.33l-.76-.17h0Z"/>
  <path class="cls-7" d="M43.57,121.62c.58-.06,1.2.04,1.79,0l2.38,3.58c1.05,2.91,1.47,5.51,1.18,8.64-.24,2.69-2.58,6.96-2.28,8.79.5,3.03,5.35,6.84,7.05,9.4.23.34,1.15,1.69,1.19,1.79,2.31,5.17,1.85,9.97-2.38,13.71-.83.73-1.92,1.18-2.38,2.38-1.67.08-3.12,1.22-5.36,1.19-4.51-.05-11.22-3.55-13.12-7.75-1.33-.92-3.19,4.32-4.16,5.07,9.2,1.62,15.63,7.07,15.49,16.99,11.77.36,22.04-3.76,29.81-12.52,3.84-4.34,8.12-12.3,9.54-17.88-.29.76.53,1.46.6,1.79s-.03.8,0,1.19c.01.2,0,.4,0,.6.05,2.59-1.74,3.22-2.38,5.96-.04.18.03.4,0,.6-.06.38.04.81,0,1.19-.21.19-.42.38-.6.6-1.12,1.34-3.26,3.09-3.35,5.08-.05,1.18,1.37,1.7,1.56,2.07.96,1.88,1.68,3.96,2.38,5.96,2.55,7.22,1.91,12.56,3.58,19.67-.27,1.26-1.47,2.38-1.79,2.98.54-.84-.06-4.33-2.08-3.57l-.9,4.16,2.98-.59c-.45.84-.85,2.06-1.19,2.98-4.71,1.99-13.07,2.04-17.87.28-4.35-1.6-4.52-3.98-4.79-8.03-.03-.39.05-.81,0-1.19-.03-.27-.33-.52-.6-.6-.25-1.98-.45-9.31-3.22-9.5-2.57-.18-8.22,2.26-11.62,1.22-.53,3.22-1.41,6.39-2.44,9.48-.59,1.78-2.08,3.99-2.69,5.95-1.33,4.25.64,6.2-6,7.11-7.03.96-19.49-.24-19.92-9.49-.29-6.18,5.3-12.23,5.36-18.48-3.92,1.87-15.06-.35-16.83-4.33-1.51-3.38.6-3.31,3.13-4.02,2.1-.59,3.72-.31,5.96-1.79.09.82.4,1.59.6,2.38l-7.14,2.68c2.19,2.19,4.45,2.24,7.14,2.68,2.26.37,7.52,1.88,8.33-1.5.4-1.68-2.16-.22-3.27-.22-2.03,0-3.51-.93-3.87-3.05.57.06,1.24-.09,1.79,0,1.98.34,2.04,1.12,4.52.04,2.48-1.08,11.23-11.58,11.44-14.15.09-1.1-1.81-3.12-2.25-4.97-1.14-4.71-1.81-16.26.58-20.47.42-.74,1.13-.31,1.2-.4-.23.79-.42,2.08-.6,2.98-.21,1.07-1.01,2.18-1.18,3.89-1.1,10.84,5.24,25.04,17.28,25.92v-3.58c.66,0,3.2-1.99,4.77-1.2-1.53-3.8,1.22-5.51,4.77-5.66-1.38-4.92-6.18-8.25-8.37-12.5-3.33-6.47.6-5.67,1.21-11.34,1.29-11.96-6.42-12.07-13.43-5.09-1.86,1.85-2.83,4.75-4.45,6.58,2.13-7.29,5.74-6.81,8.34-12.52,2.18-.76,4.28-.95,6.56-1.19v.02ZM51.32,165.14c.45.34,2.74-2.51,2.35-3.81l-.95-.88-2-.08s.6,4.77.6,4.77ZM50.12,166.92c-.73-1.8-2.87-2.62-4.16-.88l.9,2.08,3.26-1.2ZM17.34,205.08c.31.04.94.07,1.19,0l.35,1.85,3.82,1.13c.06-.39-.05-.82,0-1.19.02-.11.48-.28,0-.6-.07-.37.1-.9,0-1.19.15-.69.99-.45,1.19-.6.13-.09.51.1.6,0l.6,1.19c-.1.19.05.82,0,1.19v.6c.04.19-.03.4,0,.6l.87.6c1.35.04,3,.39,3.88-.91,0-.13-.56-.19-.58-.29-.18-.89-.06-1.78-.65-2.64-.66-.97-1.29-.66-1.74-.94-.52-.32-.67-.57-.6-1.19,1.83-.72,2.87-.98,3.87,1.19,1.1-2.64,4.91-1.11,5.97-2.38.97-1.16,3.91-9.5,4.2-11.3.34-2.17.49-5.02.27-7.18-.83-7.9-9.49-15.25-16.99-10.14-3.95,2.69-3.3,10.23-4.76,14.91-1.67,5.35-7.35,11.69-2.68,16.99.37.22.77.24,1.18.29h0ZM74.56,174.68c-4.62,4.92-10.05,8.99-16.69,10.74-.36.48,2.01,5.15,2.25,6.39,1.26,6.67-1.32,13.46,9.08,12.68,3.13-.24,1.25-1.05,2.73-3.54,2.16-3.65,3.78-1.27,5.34-1.42.21-.02,3.23-2.41,3.28-2.62,1.22-4.98-.86-16.56-4.78-20.45.01-.18.04-.43,0-.6-.12-.49-.64-1.2-1.19-1.19h-.02ZM74.85,200.43l-2.03,3.71c3.8,3.3,6.31-2.23,2.03-3.71ZM31.65,208.06l3.56-1.53c-.79-4.67-4.28-2.19-3.56,1.53Z"/>
  <path class="cls-9" d="M58.47,197.93c.26,4.05.43,6.43,4.79,8.03,4.79,1.76,13.15,1.7,17.87-.28,2.27-.96,3.87-2,3.58-4.77.93.12,2.11-.17,2.98,0,1.32.25,3.11,1.5,4.77,1.79.08,1,1.73,1.1,1.79,1.19.3.45-.09,2.91-.6,3.58-.39.04-1.25,1.01-1.79,1.19-3.75,1.3-7.49,2.54-11.33,3.58-.2.02-.4-.02-.6,0-9.78.9-17.84,2.27-28.02,2.38h-2.38c-8.18,0-15.71-.25-23.84-1.19-1.14-.13-2.47.16-3.58,0-.2-.03-.93-.46-1.79-.6-1.03-.16-1.97-.39-2.98-.6-1.5-.3-3.28-.78-4.77-1.19-.49-.13-1.32.14-1.79,0l-.6-.6c-.18-.06-.42.06-.6,0-11.08-3.83-6.42-8.14,2.38-9.54.43,9.25,12.88,10.45,19.92,9.49,6.64-.91,4.67-2.86,6-7.11.61-1.96,2.1-4.17,2.69-5.95,5.7,1.37,12.03.23,17.88.6h.02Z"/>
  <path class="cls-7" d="M88.27,107.91c-2.08.53-2.05.36-4.17,1.19-.88.35-2.5-.01-3.28,1.2-.37,3.92-3,6.96-5.18,10.04-.41.22-2-.58-3.1-.5-1.18.09-4.78,2.58-4.54,0,1.62-.14,7.42-.62,8.05-1.19l3.87-7.16c-1.84-.48-3.62.03-5.36,0v-1.19c7.6-.9,16.91-5.13,21.46-11.33,2.95-4.02,4.51-6.3,4.19-11.65l-5.37-19.67c-15.61-2.71-34.26.78-47.71,9.26-.59.37-2.29,1.18-2.4,1.61-1.38,7.09,2.77,13.02,4.18,19.25-2.39.08-.74-3.22-4.17-2.98-.72-2.97-1.24-5.93-1.79-8.94-.09-.48-.59-.56-.6-.6-.12-.48.08-1.24,0-1.79,1.04-1.93,1.05-6.23,1.26-6.49.25-.31,6.78-1.66,6.49-4.24.63-.31,1.3-.37,1.79-.6l.36.5c1.11-.14,2.36-.33,2.02-1.69,1.97-.84,4.56-2.38,6.56-2.98,8.49-2.56,19.47-4.28,28.3-3.57,1.92.16,3.78.9,5.67,1.18-1.48-6.29-4.16-7.92-10.4-8.37-10.11-.73-17.37,1.53-26.55,4.79-2.27.81-4.78,2.33-7.15,2.38-3.23.08-2.01-1.34-4.17-1.79.09-.13-.09-.45,0-.6.21-.16.49-.36.6-.6.7-1.62,4.52-6.04,5.96-7.15.18-.14.77-.32,1.19-.6,9.9-6.52,21.81-6.2,32.01-.71,11.78,6.34,10.3,11.06,13.1,22.67,1.87,7.73,5.19,11.97,1.69,20.38-1.87,4.48-8.05,10.7-12.82,11.92v.02ZM73.07,54.85c3.7-.36,7.87.26,11.62,0-.6-.94-2.97-1.91-4-2.25-11.8-3.88-23.09-.64-30.87,8.81-.39.48-1.58,1.2-.59,1.8,7.03-3.11,16.16-7.61,23.84-8.35h0Z"/>
  <path class="cls-20" d="M116.88,38.16c.39-.89,6.16-1.86,7.45-1.84,11.84.18,17.62,10.87,18.18,21.51h-2.38c.27-19.52-20.2-26.35-30.88-9.72-2.09,3.25-3.13,6.92-4.88,10.32h-1.19c.11-.53-.13-1.3,0-1.79.35-1.35,1.25-4.1,1.79-5.37,1.61-3.74,4.88-6.56,6.56-9.54.25-.45.38-.74.6-1.19.91.19,1.69-.45,2.38-.6.62-.13,2.03.25,2.35-.05.28-.26-.11-1.41.04-1.74h-.02Z"/>
  <path class="cls-5" d="M114.5,36.96v2.98c-.7.15-1.48.78-2.38.6.5-1.07-.09-3.6,2.38-3.58Z"/>
  <rect class="cls-3" x="160.4" y="2.39" width="7.75" height="209.25"/>
  <path class="cls-4" d="M80.52,166.93h-.6c.18-.22.39-.41.6-.6v.6Z"/>
  <path class="cls-11" d="M116.88,38.16l.59-12.23L158.01,2.98v206.27c-14.2-14.51-27.97-29.58-41.12-45.02.8-9.18-1.12-20.27-.03-29.21.68-5.59,4.72-7.66,2.58-15.67-.62-2.33-2.5-3.2-2.58-3.52-1.37-5.4.52-12.18,3.33-16.82,4.23-6.97,10.78-11.91,15.76-18.27,1.05-.58,2.01.21,2.97.33l1.79.6c.37.03.84.05,1.19,0,1.42.4,1.04,1.62,1.24,2.63.48,2.4,1.78,12.67,6.25,9.33,2.89-2.15,3.5-12.83,3.07-16.28-.14-1.12-.39-2.96-1.63-3.44,1.05-5.53-2.59-11.6-8.27-12.6-.25-1.15-.02-2.34-.08-3.5-.56-10.63-6.35-21.33-18.18-21.51-1.28-.02-7.05.94-7.45,1.84l.03.02Z"/>
  <path class="cls-18" d="M76.35,140.1c.43.46.69.76,1.19,1.19,1.42,1.24,1.51,1.73,3.58,2.38.16.05.39-.04.6,0,.19.58.68.55,1.19.6.94,2.5-.09,6.24-.6,8.94v.6c-.08.36.09.85,0,1.19-1.42,5.58-5.7,13.55-9.54,17.88-1.05-.84-1.57-.39-2.57.09-3.64,1.75-6.48,4.28-11.14,3.49.91-1.07,2.4-4.5,3.57-5.07,1.72-.84,9.51,0,10.73-2.39.57-1.12-.85-.91-1.5-.9-2.62,0-5.33,1.46-8.03,1.21l5.6-13.76,10.45-1.78-.27-1.75-9.82,1.79,2.34-14.55,2.42-1.54c.63.76.83,1.37,1.79,2.38h.01Z"/>
  <path class="cls-15" d="M140.13,57.83c-.02,1.19.02,2.39,0,3.58-.39.03-.8-.03-1.19,0,1.59-12.99-8.83-26.7-22.22-18.48-.53.32-.38,1.16-.43,1.19-.35.26-1.66-.04-3.03,1.45-3.42,3.73-7.18,10.83-5.91,15.84.08.33-.06.81,0,1.19-1.68-.48-1.84,3.03-1.84,3.88.02,11.14,5.45,24.69,19,19.54,4.8-1.83,5.53-5.75,9.66-7.92,1.28,1.61-8.49,10.34-9.84,11.91-4.63,5.41-8.73,11.46-10.45,18.47l-2.9-.64c1.04-6.97.05-15.37-2.01-22.13-.98-3.21-2.9-6.11-3.72-9.39-1.26-4.99-.92-9.76-1.47-14.63l.6-3.27c1.75-3.39,2.8-7.06,4.88-10.32,10.68-16.63,31.15-9.8,30.88,9.72h-.01ZM121.65,88.83c-3.74.54-6.68-.8-10.13-1.79.6,4.24.65,8.59,1.17,12.84.11.89.04,1.51.92,2.06,1.32.28,2.88-4.18,3.62-5.31.78-1.2,5.45-6.81,4.42-7.8Z"/>
  <path class="cls-19" d="M91.25,123.41c2.12-.48,3.64-.61,5.76-1.69,2.43-1.23,5.56-4.63,7.94-5.22,3.94-.99,6.47,6.68,1.43,6.92-1.57.07-1.83-1.28-3.21-1.2.03,1.5,1.21,2.21,1.22,3.86,0,1.29-1.39,5.78-1.82,7.46-3.95.87-7.17,3.26-11.5,2.26-3.77-.87-4.69-8.51-4.6-11.8,1.91.43,3.25-.25,4.77-.59h0Z"/>
  <path class="cls-2" d="M136.55,76.91v-4.77h-2.98c-.23-2.84,1.39-4.23,2.98-5.96-.57,2.18,1.66,4.9,3.58,2.98s-.74-3.29-2.38-4.17c.61-.43.17-1.02,2.05-1.23,7.06-.77,11.39,6.99,7.2,12.56-3.1,4.13-6.92,3.73-10.44.59h0Z"/>
  <path class="cls-20" d="M116.29,46.5l.03,3.57c.37.14.9-.08,1.16,0-.28.33-1.12.88-1.19,1.19-.22.99.14,2.48,0,3.58.77.08,1.65-.12,2.39,0,.38.06.85-.08,1.19,0,.24.06,3.36,3.24,3.58,0h1.19c-.02.79,0,1.6,0,2.39h1.19c-.27.09-.75.41-1.19.59-.25.1-.8-.14-1.16,0l.23,3.6,3.32-.64c.06.16.47.36.6.6.09.17-.1.49,0,.6.75.81,1.26,1.11,2.38,1.19-.39.18-.8.4-1.19.6-.5.25-1.36-.12-1.71.97-1.17,2.78,2.55,5.19,3.5,1.41.1.3.42.69.6,1.19.09.27-.14.8.03,1.16l1.17.03c-.21.39-.37.81-.6,1.19-.07.12-1.44-.14-1.79,1.79l-.6-.6c-.03-.5.23-1.31-.1-1.66l-2.53-.73c-.48.05-.93,1.93-.94,2.39-.37.07-.89-.1-1.19,0v-2.98l-2.98.6c-.14,0-1.07-.47-1.19-.6-.35-.36.99-1.25-1.79-1.19.15-.67.77-.45,1.19-.6.24-.08.81.2,1.1-.08.26-.26.77-3.19.7-3.79-.14-.57-1.29-.32-1.8-.3-.08-.9-1.7-.9-1.79,0-.06.58.09,1.24,0,1.79-.43-.07-.57.19-.6.6-.05.87-.14.89.6,1.19-.22.38-.35.83-.6,1.19-.8,1.2-1.56,1.76-1.19,3.57h1.79c-.11.01-1.72.97-1.79,1.2v4.18c1.37-.09,3.34.68,2.98-1.2h.6c-.12.48.08,1.24,0,1.79-.07,0-.61.6-1.19.6-1.22,0-2.76-1.26-4.17,0h-.6c.09-.34-.09-.85,0-1.19.1-.39.55-.86.6-1.19.15-1.08.49-2.11.55-3.2-.27-1.03-1.2-.75-1.74-.97.34-.33.75-.49,1.19-.6.33-.08.81.07,1.19,0l-.6-3.57-.6-.6c-.19-.03-.41.04-.6,0l1.19-1.19c.18.02.42.03.6,0,.19-.04.4.03.6,0l1.19-2.97c-.37-.07-.91.1-1.19,0-.18-.06-.42.06-.6,0-.35-.13-.96-1-1.49-1.18l-.89,2.37c-.05-.18-.55-.4-.6-.6-.13-.52.37-1.42-.35-1.85-.52-.34-2.64-.71-3.23-.54v-1.19l3.57.6.61-3.87-2.99-.3c.21-.34,1.14-.73,1.19-1.19l2.38.6c.38-1.76,1.49-3.28-.59-4.18.21-.19.39-.41.6-.6.79-.73,1.46-.83,1.19-2.38.37-.18.49-.48,1.19-.6h-.01ZM115.69,59.62c-.05-1.39.53-3.55-1.18-4.18l-.6,4.17h1.78ZM118.07,56.04h-1.78l.89,4.16.89-4.16ZM120.46,60.81c.14.05.3.64.82.55.32-.07.26-.43.38-.55,3.99-4.17-4.07-5.2-2.95-.96.25.94,1.19.75,1.75.96ZM126.42,63.2l-3.58-.6-.6,4.17,3.01.35,1.16-3.92h0Z"/>
  <path class="cls-9" d="M141.92,81.68c3.22-.44,8.32-4.49,8.94-7.75,1.24.48,1.49,2.32,1.63,3.44.42,3.45-.18,14.12-3.07,16.28-4.48,3.33-5.78-6.94-6.25-9.33-.2-1.01.17-2.23-1.24-2.63h0Z"/>
  <path class="cls-20" d="M138.94,61.41c-.79.04-1.59-.03-2.38,0,.05-.18-.04-.4,0-.6.07-.33-.03-.8,0-1.19.13-2.05,1.15-4.23-2.38-4.17-.1.36.11.98,0,1.19s-.58.44-.6.6c-.02.19-.02.41,0,.6-.37.07-.89-.1-1.19,0l.6-2.98c-1.79-.34-2.01-.58-3.58,0-.19.07-.49-.09-.6,0,.2-1.57-.51-.98-1.19-1.19.3-.38,1.03-.82,1.19-1.19,1.69-3.99-.54-3.29-2.98-4.17-.4-.14-.83-.52-1.19-.6-.19-.04-.4.04-.6,0,.88-1.52,1.57-.67,2.38-.6,1.86.16,1.34.76,3.58,0,.2-.07.49.08.6,0l3.57,1.79-2.09-3.57c-1.47-.34-.66.89-.89,1.19-.29-.06-.56-.32-.6-.6-.3-2.05-.24-2.19-2.78-2.81-.37-.09-.75.43-.8.43-.36-.05-.89-.58-1.19-.6-1.84-.11-2.5.47-3.58.6-.32.04-.35-.39-1.79,0-1.06.29-2.04.62-2.98,1.19-.11-.12-1.27.15-1.19-.6.05-.04-.1-.87.43-1.19,13.39-8.22,23.82,5.49,22.22,18.48h.01ZM136.55,54.25c-.55-3.9-2.47-4.12-5.96-4.77l-1.2,3.57,4.17.61.59-2.39v2.98h2.4Z"/>
  <path class="cls-17" d="M91.25,123.41c-1.52.34-2.86,1.03-4.77.59-.09,3.29.82,10.93,4.6,11.8,4.33,1,7.55-1.39,11.5-2.26-.36,1.42-.36,3.28-1.01,4.62-1.31,2.71-11.7,3.32-14.37,1.81l-2.55-15.58c.28-1.28,5.45-.99,6.6-.99h0Z"/>
  <path class="cls-19" d="M115.69,131.16l-5-.07-1.07-2.22-1.09-.1c.1-4.18.75-3.33,2.23-6.41.92-1.9.58-5.69,4.35-4.67,4.28,1.16,2.02,10.45.57,13.46h0Z"/>
  <path class="cls-10" d="M82.31,124c-.29.19-3.44,1.32-3.57,1.19l1.79-3.57-2.98-.91c1.12-1.3,4.21-9.17,4.75-9.55.6-.43,1.15-.28,1.81-.27.58,1.47-.8,4-.64,4.98.1.61,1.66.37,1.88,1.88.18,1.23-1.04,4.1-1.83,5.07-.1.12-1.12,1.15-1.19,1.19h-.02Z"/>
  <path class="cls-2" d="M121.65,68.56c-1.22,3.38.2,3.29,2.98,2.38.3-.1.82.07,1.19,0-.01.48-.22,1.03.35,1.25l3.23.54c-.03.23-.46,1.43-.6,1.79h-.6l-2.97-1.19c-.68,3.94-1.82,4.62,2.97,4.17-.2.43-1.76.95-2.38,1.19-1.02.4-1.67-.69-2.38,1.79-.11-.22-.5-.4-.6-.6-.19-.4.2-1.62-.55-2.12-1.99-1.35-3.61.77-3.03,2.72-.39-.25-.57-1.21-1.19-1.19.31-.63.32-1.67.6-2.38.58,0,1.12-.6,1.19-.6,1.31.03,2.33.3,3.57.6l.62-3.86-3.03-.65c-.1.07-1.1,1.9-1.16,2.12h-.6v-2.98h-2.98c.07-.22,1.68-1.18,1.79-1.19.48-.05,1.69.67,1.78.6l.6-2.99c.12.13,1.06.61,1.19.6h.01Z"/>
  <path class="cls-4" d="M114.5,164.54c-.05.41.26,1.22-.31,1.2l-33.67-.61c.03-.2-.04-.41,0-.6h33.98Z"/>
  <path class="cls-11" d="M110.92,69.75c.19.04.41-.05.6,0,.23.06,1.58.51,1.79.6.54.22,1.47-.06,1.74.97-.06,1.09-.4,2.12-.55,3.2-.96.09-2.06-.14-2.98,0v-3.57l-2.98,2.38c-.1-.92-1.03-2.29-.6-3.58v-.6c1.05-.07,1.99.4,2.98.6Z"/>
  <path class="cls-17" d="M108.54,128.77l1.09.1,1.07,2.22,5,.07c-3.3,6.87-7.32,4.99-7.15-2.38h0Z"/>
  <path class="cls-20" d="M119.27,80.48c1.42.9,2.8,1.12,3.58-.6.09.2.48.37.6.6.58,1.12.14,2.09,2.38,1.79-.4.49-.48,1.68-1.19,2.09-1.04.6-2.07.14-2.98.3l-.08-2.3-2.58-.69-.92,3c-.32-.09-.82.06-1.19,0,.33-1.33.98-1.87,0-2.98-.47-.53-.48-.51-1.19-.6-.46-.06-1.36-.08-1.79,0,.48-.25,1.41-1.12,1.79-1.19.71-.15,1.51,1.2,2.38-.6.63-.02.8.94,1.19,1.19h0Z"/>
  <path class="cls-2" d="M108.54,140.71l-.95,3.01c-2.07.13-4.1-.71-5.6-2.13l2.06-2.6,4.49,1.72h0Z"/>
  <path class="cls-8" d="M109.14,59.62c.59-.18,2.71.19,3.23.54.72.43.22,1.33.35,1.85l-.93,1.83-3.84-.64-.6-.6c-.06-.38.08-.86,0-1.19.74-.17,1.41-1.67,1.79-1.79Z"/>
  <path class="cls-2" d="M108.54,138.91c-4.01.21-4.72-2.57-3.57-5.96,2.1,1.5,4.16,3.08,3.57,5.96Z"/>
  <path class="cls-11" d="M113.9,75.72c-.09.35.09.86,0,1.19-.13.47.17,1.27-.28,1.81-.39.56-.92.53-1.51.58l-1.79-.6c-.8-.83-.4-1.4-.6-1.79l.6-1.79c.2,0,.4-.02.6,0,1.02.12,2,.27,2.98.6Z"/>
  <path class="cls-9" d="M118.67,76.91c-.28.71-.29,1.75-.6,2.38-.87,1.79-1.67.45-2.38.6h-1.19v-2.98c1.41-1.26,2.95,0,4.17,0Z"/>
  <path class="cls-14" d="M111.52,65.58c.04,1.03-.45,2-.6,2.98l-2.98-.6c-.02-.19,0-.4,0-.6v-2.38c.03-.19-.04-.4,0-.6,1.85-.92,3.38,1.14,3.58,1.19h0Z"/>
  <path class="cls-11" d="M128.21,74.52v.6c-.02.39.03.8,0,1.19s.1.99,0,1.19c-4.79.44-3.66-.24-2.97-4.17,0,0,2.97,1.19,2.97,1.19Z"/>
  <path class="cls-9" d="M125.83,70.95c.01-.46.46-2.35.94-2.39l2.53.73c.32.35.06,1.17.1,1.66.04.55.06,1.26,0,1.79l-3.23-.54c-.57-.22-.36-.77-.35-1.25h0Z"/>
  <path class="cls-11" d="M136.55,60.81c-.04.19.05.42,0,.6-.75,2.69-1.44,1.93-2.98,2.98-.43-1.05-1.99-.94-.59-4.17l3.57.6h0Z"/>
  <path class="cls-11" d="M125.83,78.7l1.67.12c.31.27.04,1.01.12,1.07.18,1.5-1.29,1.78-1.79,2.38-2.25.3-1.81-.67-2.38-1.79.71-2.48,1.36-1.39,2.38-1.79h0Z"/>
  <path class="cls-9" d="M118.08,84.66l.92-3,2.58.69.08,2.3c-2.08.36-1.05.7-3.58,0h0Z"/>
  <path class="cls-2" d="M113.31,62.6c.18.62-1.73,1.47,1.79,1.79l-1.19,1.19c-.37-.07-.89.1-1.19,0s-.85.09-1.19,0c-.2-.05-1.73-2.12-3.58-1.19.07-.36-.05-.81,0-1.19l3.84.64.93-1.83c.05.19.55.42.6.6h0Z"/>
  <path class="cls-2" d="M113.91,110.89v2.38c-1.93.22-4.67-.72-4.77-2.98,0,0,4.77.6,4.77.6Z"/>
  <path class="cls-20" d="M133.57,72.14h2.98v4.77c-1.37-1.22-2.82-2.78-2.98-4.77Z"/>
  <path class="cls-9" d="M129.4,76.31l.94-1.75,2.06.89-3,3.24v-2.39h0Z"/>
  <path class="cls-9" d="M113.31,80.48c.11.23-.09.83,0,1.19.47.15.5-.58.59-.6.42-.08,1.32-.06,1.79,0v2.38c-1.44,1.26-1.31-.55-1.98-.99-.49-.32-4.56-1.83-2.19-2.59l1.79.6h0Z"/>
  <path class="cls-20" d="M108.54,73.33l2.98-2.38v3.57c-.28.04-.53.31-.59.6-.19-.02-.4,0-.6,0-.4-.01-.8,0-1.19,0l-1.09-.07c-.2-.2.55-1.26.5-1.72h-.01Z"/>
  <path class="cls-2" d="M111.52,116.25l-2.4-.28c-2.52-4.31,3.51-.73,2.4.28Z"/>
  <path class="cls-9" d="M131.79,69.75v3.58h-1.79c.06-.57-.1-1.25,0-1.79.35-1.93,1.72-1.67,1.79-1.79Z"/>
  <path class="cls-20" d="M129.4,76.31v1.19l-.58.3.58.3v.6c0,.2.02.4,0,.6l-1.19.6c-.13-.1-.48.1-.6,0-.07-.06.19-.81-.12-1.07l-1.67-.12c.63-.25,2.19-.77,2.38-1.19.1-.2-.03-.82,0-1.19h1.19v-.02Z"/>
  <path class="cls-9" d="M132.98,64.98h.6c-.03.57-.9,3.05-1.19,3.58l-1.17-.03c-.16-.37.07-.89-.03-1.16.86-.4.35-1.77.72-2.28.24-.33.92-.02,1.07-.1h0Z"/>
  <path class="cls-4" d="M140.13,69.16c.35-.34,0-3.35-1.48-2.98-3.18.79-.1,4.49,1.48,2.98-1.92,1.92-4.14-.8-3.58-2.98.44-.48.56-.75,1.19-1.19,1.64.88,4.37,2.18,2.38,4.17h0Z"/>
  <path class="cls-2" d="M110.92,68.56c-.06.38.04.8,0,1.19-.99-.2-1.94-.67-2.98-.6.05-.33.04-.84,0-1.19l2.98.6Z"/>
  <path class="cls-13" d="M81.72,126.39h1.19v2.38l-1.78-1.19c.09-.43.5-.83.6-1.19h-.01Z"/>
  <path class="cls-9" d="M116.88,84.66c-.75-.17-.53-.66-.6-1.19-.04-.34-.05-.86,0-1.19.04-.27.33-.52.6-.6.98,1.11.33,1.65,0,2.98Z"/>
  <path class="cls-2" d="M110.33,75.12l-.6,1.79c-.15-.3-1.52-.54-.6-1.79.4,0,.8-.01,1.19,0h0Z"/>
  <path class="cls-2" d="M107.94,67.37c-.02-.93-.34-.42,0-2.38v2.38Z"/>
  <path class="cls-2" d="M129.4,79.29c-.03.39.03.8,0,1.19h-.89c-.35-.09-.27-.57-.3-.59,0,0,1.19-.6,1.19-.6Z"/>
  <polygon class="cls-20" points="131.79 73.33 130.89 73.93 130 73.33 131.79 73.33"/>
  <path class="cls-20" d="M112.12,79.29c-.9.08-1.15.07-1.79-.6l1.79.6Z"/>
  <path class="cls-20" d="M83.5,144.27c-.2,0-.4.02-.6,0-.51-.05-1.01-.02-1.19-.6.61.11,1.48-.24,1.79.6Z"/>
  <path class="cls-9" d="M140.73,81.68l-1.79-.6c1.09.14,1.69.59,1.79.6Z"/>
  <path class="cls-20" d="M113.31,80.48l-1.79-.6c.38-.12,1.02.07,1.49.01.17.16.2.39.3.58h0Z"/>
  <path class="cls-20" d="M116.29,83.47h-.6v-1.19h.6c-.05.33-.04.85,0,1.19Z"/>
  <path class="cls-20" d="M133.57,64.98h-.6c.2-.11.37-.44.6-.6.05.11,0,.41,0,.6Z"/>
  <path class="cls-20" d="M107.94,69.75l-.49-.28c.11-.19.48-.25.49-.32v.6Z"/>
  <path class="cls-7" d="M82.31,153.81v-.6s.11.11,0,.6Z"/>
  <path class="cls-20" d="M128.21,75.12v-.6h.6c-.1.24-.38.44-.6.6Z"/>
  <path class="cls-17" d="M96.02,98.97c-4.55,6.2-13.86,10.43-21.46,11.33-.77.09-1.6-.07-2.38,0-.41,1.78,1.03,1.16,2.38,1.19,1.74.04,3.53-.47,5.36,0l-3.87,7.16c-.63.57-6.44,1.04-8.05,1.19-.19.02-.4,0-.6,0-.27-1.1-1.01-.94-1.79-1.19-.19-.06-.43.07-.6,0-.74-1.66-2.18-2.16-3.58-2.98-.42-.25-.94-.43-1.19-.6-3.32-2.89-6.04-6.22-8.94-9.54-.07-.16.07-.42,0-.6-.32-.84-1.17-1.11-1.19-1.19-.1-.31.09-.85,0-1.19-.33-1.22.17-3.13-1.19-4.17-.04-.19.04-.41,0-.6-1.42-6.23-5.57-12.17-4.18-19.25.11-.44,1.81-1.24,2.4-1.61-.02,23.3,18.44,34.79,40.09,26.68,3.37-1.26,5.56-3.58,8.79-4.63Z"/>
  <path class="cls-12" d="M36.41,116.26c.57,6.39-4.51,9.28-7.4,13.76-2.3,3.57-4.19,9.13-4.51,13.37-.35,4.73,2.57,10.23-2.61,12.77-1.63-.28-6.05-9.28-6.31-11.03-1.03-6.9,5.37-17.38,7.72-23.8l13.1-5.07h0Z"/>
  <path class="cls-18" d="M47.74,125.2c.84-.88.94.77,1.63,1.21,3.19,2,7.64,3.27,10.89,5.35-2.4,4.38-2.64,8.82-2.39,13.71,4.74.51,8.58-1.69,11.33-5.37,1.71,1.42-.69,13.26-1.27,13.63l-14.23-1.71c-1.71-2.56-6.56-6.36-7.05-9.4-.3-1.83,2.04-6.1,2.28-8.79.28-3.13-.14-5.73-1.18-8.64h-.01Z"/>
  <path class="cls-10" d="M57.87,124.6c-2.65-1.02-5.2-1.48-7.45-3.58-2.58-2.42-2.99-3.54-6.29-6.23s-4.75-9.14-2.66-12.84c2.95,3.49,2.02,9.73,7.45,11.32-.92-5.62-5.31-7.9-4.77-14.01.12-1.37.59-4.05,1.94-1.91,1.19,1.88,1.26,4.86,2.31,7.21.81,1.81,3.04,4.85,4.39,6.34,2.34,2.58,14.24,10.77,14.6,11.63.49,1.17-.49.91-1.23.63-1.19-.46-7.84-3.74-8.3-3.32-.16,1.38,1.95,2.45,2.98,2.98v1.19l-2.57.12-.41.48h.01Z"/>
  <path class="cls-12" d="M12.4,146.15l.76.17c4.08,8.15,10.34,15.68.22,22.33-4.12.71-9.27-14.4-9.19-17.55.1-3.51,5.67-3.59,8.2-4.95h0Z"/>
  <path class="cls-12" d="M5.42,135.93c1.65.35,1.12-.86,1.47-1.78,2.3-5.95,5.33-11.7,9.26-16.71.13.17,2.69.53,3.61,2.05,1.42,2.33-1.51,6.91-2.43,9.57-1.62,4.68-3.23,9.37-4.25,14.23l-3.49,1.33c-.41-.26-4.04-7.97-4.17-8.69Z"/>
  <path class="cls-16" d="M71.58,136.52c1.74-1.19,1.49-.42,2.38.6.18.21.42.38.6.6l-2.42,1.54-2.34,14.55,9.82-1.79.27,1.75-10.45,1.78-5.6,13.76c2.7.26,5.41-1.2,8.03-1.21.64,0,2.07-.21,1.5.9-1.22,2.39-9.01,1.55-10.73,2.39-1.17.57-2.66,4-3.57,5.07-1.71,2.02-3.4,4.4-6.25,4.78-.94-1.64,1.99-3.36,3.27-4.78,1.34-1.49,3.81-2.79,3.57-5.36-3.09.76-6.77-1.32-9.53-1.2.46-1.21,1.56-1.65,2.38-2.38,1.47,1.51,7.45,2.4,8.95,1.5,1.21-1.75,6.42-12.12,5.33-13.39l-11.89-1.82c-.04-.1-.96-1.44-1.19-1.79l14.23,1.71c.58-.38,2.98-12.21,1.27-13.63.52-.7,2.16-3,2.38-3.58h-.01Z"/>
  <path class="cls-12" d="M37.01,104.93c.11,2.59,1.88,6.3.9,8.35-.82,1.71-6.62,2.61-8.63,3.29-1.51.51-5.05,2.68-6.29,2.66-2.17-.03-3.03-3.7-3.86-4.76,5.04-4.13,11.53-7.87,17.88-9.54Z"/>
  <path class="cls-16" d="M26.88,156.2c.44,1.85,2.35,3.87,2.25,4.97-.21,2.57-8.86,13.03-11.44,14.15s-2.54.29-4.52-.04l-.32-2.95c5.29-4.12,8.32-8.95,11.93-14.35.58-.87.63-1.87,2.1-1.78Z"/>
  <path class="cls-10" d="M68,128.18l-2.97,6.55,5.36-3.57c-.14,5.38-5.2,11.82-10.72,11.92.41-5.71,2.27-12.91,8.34-14.9h0Z"/>
  <path class="cls-10" d="M85.29,142.49c-5.93-.4-10.31-5.34-9.53-11.33l4.76,4.17-2.38-6.55c6.11,1.43,6.55,8.6,7.15,13.71Z"/>
  <path class="cls-6" d="M45.36,121.62l.07-1.1.82-.09c4.82,3.44,10.3,7.61,16.4,7.75.68.56-2.05,2.97-2.38,3.57-3.25-2.08-7.69-3.34-10.89-5.35-.7-.44-.79-2.09-1.63-1.21l-2.38-3.58h0Z"/>
  <path class="cls-15" d="M16.15,117.45c-3.93,5.01-6.95,10.76-9.26,16.71-.36.92.17,2.13-1.47,1.78-1.04-5.85,6.04-16.47,9.84-20.85,1.06.43.71,2.13.89,2.37h0Z"/>
  <path class="cls-15" d="M37.01,103.74v1.2c-6.35,1.67-12.84,5.41-17.88,9.54-.14-.18-2.09-.12-1.79-1.48,5.63-4.69,11.99-9.03,19.67-9.25h0Z"/>
  <path class="cls-10" d="M70.77,121.71c8.11-2.72,6.07,10.83,1.41,7.97-1.43-.88-3.63-7.22-1.41-7.97Z"/>
  <path class="cls-16" d="M43.57,121.62c-2.27.24-4.38.43-6.56,1.19,1.18-2.59,2.01-6.19,2.99-8.94,1.93,2.14,4.17,4.67,3.57,7.75Z"/>
  <path class="cls-19" d="M10.78,175.28c0,.05-.75-.03-.56.86.29,1.39,1.02,2.52,1.16,3.91h-1.19c-2.69-.44-4.95-.49-7.14-2.68l7.14-2.68c.02.08.54.29.6.6h0Z"/>
  <path class="cls-17" d="M11.38,175.28c.36,2.12,1.84,3.06,3.87,3.05,1.11,0,3.67-1.46,3.27.22-.81,3.38-6.07,1.87-8.33,1.5h1.19c-.14-1.39-.87-2.52-1.16-3.91-.18-.88.57-.81.56-.86,0,0,.6,0,.6,0Z"/>
  <path class="cls-12" d="M60.85,122.81c1.03.53,7.7,2.02,6.55,3.57-3.55,1.49-6.5-.62-9.53-1.78l.41-.48,2.57-.12s0-1.19,0-1.19Z"/>
  <path class="cls-18" d="M73.37,132.35c.08.04-.05.4,0,.6.3,1.11.22,2.94.6,4.17-.9-1.02-.65-1.79-2.38-.6.5-1.31.65-2.77.6-4.17h1.19-.01Z"/>
  <path class="cls-21" d="M88.27,107.91c-.39.86-1.52,1.61-2.38,1.79-.49.1-1.32-.34-1.79-.6,2.12-.83,2.09-.66,4.17-1.19Z"/>
  <path class="cls-7" d="M51.32,105.52c2.9,3.32,5.62,6.65,8.94,9.54-4.32-2.83-6.79-4.63-8.94-9.54Z"/>
  <path class="cls-7" d="M50.12,102.54c-1.89-.61-.94-2.81-1.19-4.17,1.36,1.04.87,2.95,1.19,4.17Z"/>
  <path class="cls-20" d="M73.37,132.95l2.98,7.15c-.96-1.02-1.16-1.63-1.79-2.38-.18-.22-.41-.39-.6-.6-.38-1.24-.29-3.07-.6-4.17h0Z"/>
  <path class="cls-21" d="M86.48,112.68c.07.78-.07,1.6,0,2.38l-1.2-.33v-2.06h1.2Z"/>
  <path class="cls-7" d="M65.03,118.64c-1.73-.71-3.05-.82-3.58-2.98,1.4.82,2.84,1.32,3.58,2.98Z"/>
  <path class="cls-20" d="M77.54,141.29c1.77-.52,1.71,1.43,3.45,1.29l.12,1.09c-2.07-.66-2.16-1.14-3.58-2.38h.01Z"/>
  <path class="cls-7" d="M67.41,119.83c-.6-.02-1.2.04-1.79,0v-1.19c.78.25,1.52.09,1.79,1.19Z"/>
  <path class="cls-7" d="M51.32,104.93h-1.19v-1.19c.03.08.87.35,1.19,1.19Z"/>
  <polygon class="cls-12" points="37.01 104.33 37.01 103.74 37.31 103.14 37.01 104.33"/>
  <polygon class="cls-20" points="73.37 132.35 72.18 132.35 73.07 131.76 73.37 132.35"/>
  <path class="cls-19" d="M28.67,135.33c1.62-1.83,2.59-4.73,4.45-6.58,7.02-6.98,14.72-6.87,13.43,5.09-.61,5.67-4.55,4.87-1.21,11.34,2.19,4.25,6.99,7.57,8.37,12.5-3.55.16-6.31,1.86-4.77,5.66-1.57-.79-4.1,1.2-4.77,1.2-.62,0-6.38-2.71-7.11-3.32-1.01-.84-5.24-6-5.91-7.21-2.91-5.25-2-10.13-3.07-15.71.18-.9.37-2.19.6-2.98h0ZM33.82,135.98c-3.22,1.37-2.89,6.89.81,5.02,1.98-1,1.55-4.77-.81-5.02ZM33.44,144.28h-2.99v2.98l2.72-.56.26-2.42h.01ZM38.15,144.91l-1.74-.05v3.58h2.38l-.64-3.53Z"/>
  <path class="cls-19" d="M17.34,204.49c-.87-4.7,3.13-10.05,4.79-14.58,1.42-3.88,1.52-11.8,6.86-12.81,4.92-.93,7.08,2.25,10.06,5.4.63.67-.18,1.79,1.53.53.23,2.16.07,5.02-.27,7.18-.28,1.8-3.23,10.14-4.2,11.3-1.06,1.27-4.87-.27-5.97,2.38-1-2.18-2.04-1.91-3.87-1.19-2.41.94-1.31,1.26-1.79,1.79-.09.1-.47-.09-.6,0-.68-3.74-5.28-2.96-6.56,0h.02Z"/>
  <path class="cls-19" d="M75.76,176.47c3.92,3.89,5.99,15.46,4.78,20.45-.05.2-3.07,2.6-3.28,2.62-1.56.15-3.17-2.23-5.34,1.42-1.47,2.48.4,3.3-2.73,3.54-.52-2.36-2.71-2.74-3.32-5.32-.28-1.21-.96-9.34-.74-10.34,1.03-4.73,10.3-7.09,10.62-12.36h.01Z"/>
  <path class="cls-6" d="M72.78,172.89c-7.76,8.76-18.04,12.88-29.81,12.52.14-9.92-6.29-15.37-15.49-16.99.97-.75,2.83-5.99,4.16-5.07,1.9,4.2,8.62,7.7,13.12,7.75,3.01,2.86,7.23,4.76,11.33,5.37-1.28,1.42-4.21,3.14-3.27,4.78,2.85-.38,4.54-2.76,6.25-4.78,4.66.79,7.5-1.74,11.14-3.49.99-.48,1.52-.92,2.57-.09h0Z"/>
  <path class="cls-17" d="M40.59,183.03c-1.71,1.26-.9.14-1.53-.53-2.98-3.14-5.14-6.32-10.06-5.4-5.34,1.01-5.44,8.93-6.86,12.81-1.66,4.53-5.66,9.89-4.79,14.58v.6c-.41-.06-.82-.07-1.18-.29-4.68-5.31,1.01-11.65,2.68-16.99,1.46-4.68.81-12.22,4.76-14.91,7.5-5.11,16.17,2.24,16.99,10.14h0Z"/>
  <path class="cls-17" d="M74.56,174.68v1.19h1.19c.04.16.01.42,0,.6-.32,5.27-9.59,7.63-10.62,12.36-.22,1,.46,9.13.74,10.34.61,2.59,2.8,2.97,3.32,5.32-10.4.79-7.82-6.01-9.08-12.68-.23-1.24-2.6-5.91-2.25-6.39,6.65-1.75,12.07-5.82,16.69-10.74h.01Z"/>
  <path class="cls-18" d="M54.89,153.81l11.89,1.82c1.09,1.27-4.12,11.64-5.33,13.39-1.5.91-7.48.02-8.95-1.5,4.23-3.74,4.69-8.54,2.38-13.71h.01Z"/>
  <path class="cls-17" d="M44.16,164.54v3.58c-12.03-.89-18.38-15.09-17.28-25.92.17-1.7.97-2.81,1.18-3.89,1.07,5.57.16,10.45,3.07,15.71.67,1.2,4.9,6.37,5.91,7.21.73.61,6.49,3.31,7.11,3.32h0Z"/>
  <path class="cls-18" d="M50.12,169.91c2.76-.13,6.44,1.95,9.53,1.2.23,2.57-2.23,3.87-3.57,5.36-4.1-.6-8.32-2.5-11.33-5.37,2.25.02,3.69-1.12,5.36-1.19h0Z"/>
  <path class="cls-18" d="M74.85,200.43c4.28,1.48,1.77,7.01-2.03,3.71l2.03-3.71Z"/>
  <path class="cls-18" d="M29.26,207.47c-.84,1.13-2.87.46-4.17.6-.03-.19.04-.41,0-.6-.04-.16-.02-.43,0-.6.05-.38-.1-1,0-1.19.13-.24,1.71-.9,1.79-1.79.44.28,1.08-.04,1.74.94.58.86.47,1.75.65,2.64h-.01Z"/>
  <path class="cls-18" d="M18.53,205.08c1.07-.27,3.23-2.81,4.17,0,.1.3-.07.82,0,1.19v.6c-.06.37.05.81,0,1.19l-3.82-1.13-.35-1.85Z"/>
  <path class="cls-2" d="M23.9,204.49c-.21.15-1.04-.1-1.19.6-.94-2.81-3.1-.27-4.17,0-.26.07-.89.04-1.19,0v-.6c1.27-2.96,5.88-3.74,6.56,0h0Z"/>
  <path class="cls-18" d="M82.31,202.7l-2.98.59.9-4.16c2.02-.76,2.62,2.73,2.08,3.57Z"/>
  <path class="cls-18" d="M31.65,208.06c-.72-3.72,2.76-6.2,3.56-1.53l-3.56,1.53Z"/>
  <path class="cls-18" d="M51.32,165.14l-.6-4.77,2,.08.95.88c.39,1.3-1.9,4.15-2.35,3.81Z"/>
  <path class="cls-2" d="M84.7,200.91c.29,2.77-1.3,3.81-3.58,4.77.35-.92.75-2.14,1.19-2.98.32-.6,1.51-1.72,1.79-2.98.04.16.52.48.6,1.19h0Z"/>
  <path class="cls-6" d="M50.12,166.92l-3.26,1.2-.9-2.08c1.29-1.74,3.44-.92,4.16.88Z"/>
  <path class="cls-2" d="M26.28,202.7c-.07.62.08.87.6,1.19-.08.89-1.66,1.55-1.79,1.79l-.6-1.19c.48-.53-.62-.84,1.79-1.79Z"/>
  <path class="cls-2" d="M25.09,208.06c1.3-.14,3.33.53,4.17-.6.02.09.58.16.58.29-.89,1.3-2.54.95-3.88.91l-.87-.6h0Z"/>
  <path class="cls-19" d="M75.76,175.87h-1.19v-1.19c.55,0,1.07.71,1.19,1.19Z"/>
  <path class="cls-2" d="M22.71,206.87v-.6c.48.32.02.49,0,.6Z"/>
  <path class="cls-2" d="M25.09,207.47v-.6c-.02.17-.04.44,0,.6Z"/>
  <path class="cls-9" d="M58.47,196.74c-.29-.06-.56-.32-.6-.6.27.08.56.33.6.6Z"/>
  <path class="cls-21" d="M82.91,158.58c0-.2.01-.4,0-.6l.58.3-.58.3Z"/>
  <path class="cls-19" d="M96.02,98.97c-3.23,1.05-5.42,3.37-8.79,4.63-21.65,8.11-40.11-3.39-40.09-26.68,13.44-8.48,32.09-11.97,47.71-9.26l5.37,19.67c.32,5.35-1.24,7.62-4.19,11.65h0ZM93.45,75.21c-4.01.35-3.3,8.3-.11,8.28,3.91-.02,3.17-8.54.11-8.28ZM67.8,76.44c-4.09.37-3.77,9.61,1.08,8.84,3.32-.52,2.85-9.2-1.08-8.84ZM87.67,84.66c-.73-.78-2.55,1.56-1.78,2.38s2.55-1.56,1.78-2.38ZM80.53,85.26c-1.15,1.15,1.89,3.68,2.38,1.48.28-1.26-1.94-1.91-2.38-1.48ZM91.25,90.62c-2.6.54-4.14,4.36-6.94,4.61-2.38.21-5.95-3.11-8.26-3.42-1.25-.17-1.13.81-.9,1.5.46,1.41,8.34,4.15,10.4,3.85,2.18-.31,6.29-4,5.71-6.53h0Z"/>
  <path class="cls-1" d="M46.55,62.6c2.16.45.94,1.87,4.17,1.79-.67,2.57-4.48,2.66-5.98,5.05-.65,1.04-2.3,6.56-.28,6.28.95-.13,4.16-2.26,5.66-2.99.29,2.58-6.23,3.93-6.49,4.24-.21.26-.23,4.56-1.26,6.49-.7,1.31-5.25,5.76-6.6,6.27-2.97,1.11-4.03-2.73-5.6-4.5-1.29-1.45-3.94-1.75-3.24-4.35l9.48-5.16-8.56-.69-.9-.89c-.47-1.39,2.15-10.5,3.31-10.87,4.68-.2,8.47,3.4,12.1,5.89,1.02-2.4,2.7-4.55,4.18-6.56h0ZM29.26,72.73h8.34l.1-1.69,1.69-.1c1.83-1.75-6.12-5.07-8-4.8l-2.13,6.6h0ZM38.2,78.7l-7.75,2.39c-.56.63,3.4,5.7,3.97,5.9,2.32.78,6.73-4.64,5.56-5.9l-2.97.59s1.19-2.98,1.19-2.98Z"/>
  <path class="cls-15" d="M57.87,62c9.18-3.27,16.44-5.52,26.55-4.79,6.25.45,8.93,2.08,10.4,8.37-1.89-.28-3.75-1.02-5.67-1.18-8.83-.71-19.82,1-28.3,3.57-.76-2.21-3.36-2.78-2.98-5.96h0Z"/>
  <path class="cls-19" d="M73.07,54.85c-7.68.74-16.81,5.24-23.84,8.35-.99-.6.19-1.32.59-1.8,7.78-9.45,19.07-12.69,30.87-8.81,1.04.34,3.4,1.31,4,2.25-3.76.26-7.92-.36-11.62,0h0Z"/>
  <path class="cls-10" d="M57.87,62c-.38,3.18,2.22,3.75,2.98,5.96-2,.6-4.58,2.14-6.56,2.98-1.01.43-1.63.84-2.38,1.19-.48.22-1.16.29-1.79.6-1.5.73-4.71,2.86-5.66,2.99-2.02.27-.37-5.24.28-6.28,1.49-2.39,5.31-2.48,5.98-5.05,2.37-.06,4.88-1.58,7.15-2.38h0Z"/>
  <path class="cls-1" d="M54.3,70.95c.34,1.36-.91,1.55-2.02,1.69l-.36-.5c.76-.35,1.38-.76,2.38-1.19Z"/>
  <path class="cls-2" d="M74.56,110.29v1.19c-1.35-.03-2.79.59-2.38-1.19.78-.07,1.61.09,2.38,0Z"/>
  <path class="cls-1" d="M46.55,62c.14-.23.4-.41.6-.6-.1.24-.38.44-.6.6Z"/>
  <path class="cls-1" d="M42.97,85.85l-.6-.6s.51.12.6.6Z"/>
  <path class="cls-20" d="M121.65,88.83c1.03.99-3.64,6.6-4.42,7.8-.74,1.13-2.29,5.6-3.62,5.31-.89-.56-.81-1.17-.92-2.06-.52-4.25-.57-8.6-1.17-12.84,3.44.99,6.39,2.33,10.13,1.79ZM115.09,90.02h-1.78l1.2,6.56c1.04.14.56-1.35.59-2.07.06-1.49-.03-3,0-4.48h0ZM118.67,90.62c-.21-.2-1.83-.09-2.1.58l-.28,2.99c.95-.11,2.89-3.1,2.38-3.57Z"/>
  <path class="cls-21" d="M116.29,44.12c-.08.75,1.08.48,1.19.6.08.08-.05.4,0,.6v.6c-.24.13-.43.38-.6.6-.2.02-.41-.03-.6,0-.7.12-.82.42-1.19.6-1.32.63-2.19.27-1.77,2.07l.58.31c-.2.19-.39.4-.6.6-.22.2-1.5-.06-2.09,1.86-.42,1.37.31,1.63.3,1.72-.05.47-.98.85-1.19,1.19-.99,1.57-1.18,1.38-1.19,3.58v1.19c-.38.11-1.05,1.61-1.79,1.79-1.27-5.01,2.5-12.11,5.91-15.84,1.36-1.49,2.68-1.19,3.03-1.45v-.02Z"/>
  <path class="cls-2" d="M122.25,43.52c-.27,2.18.27,3.3,2.66,3.01l.91-3.6c.3.02.83.54,1.19.6l-.6,3.58c-.82-.07-1.51-.92-2.38.6-.8-.16-1.55-.57-2.38-.6-.94,3.56-1.56,4.12,2.37,4.78l.6-4.18c.36.08.79.45,1.19.6l-.6,3.57,3.58.6c-.16.37-.9.82-1.19,1.19-.96-.3-1.95-.62-2.98-.59-.02.59.02,1.19,0,1.79h-1.19v-2.39c-.96.04-1.96-.16-2.9.09l-.68,2.3c-.34-.08-.81.06-1.19,0l.35-3.01-2.73-.57c.07-.32.91-.87,1.19-1.19.44.15,2.24.75,2.38.6l.6-4.17c-1.18.07-2.4-.11-3.57,0,.17-.21.36-.47.6-.6.33-.17.93-.08,1.19-.6,1.71.29,3.42.63,1.79-1.79,1.44-.39,1.47.04,1.79,0v-.02Z"/>
  <path class="cls-4" d="M129.4,54.85c-.9,3.61-.51,4.11,2.98,2.98.3-.1.82.07,1.19,0,.19,1.97,1.2,1.9,2.98,1.79-.03.39.07.86,0,1.19l-3.57-.6c-1.4,3.23.16,3.13.59,4.17-.22.15-.4.48-.6.6-.15.09-.83-.23-1.07.1-.37.51.15,1.88-.72,2.28-.17-.5-.49-.89-.6-1.19-.4-1.16.66-1.64-1.79-2.38.39-.19.81-.42,1.19-.6,1.87-.87,1.79-.98,1.79-3.57-1.94-.33-3.04-.36-4.77.59-.13-.44.18-1.21-.03-1.75l-2.36-.63c.45-.18.92-.5,1.19-.6,3.16-1.06,1.15-.92,2.98-2.38.11-.09.4.07.6,0h.02Z"/>
  <path class="cls-14" d="M110.33,54.85l2.99.3-.61,3.87-3.57-.6c.01-2.19.2-2.01,1.19-3.58h0Z"/>
  <path class="cls-11" d="M116.88,46.5c1.17-.1,2.4.07,3.57,0l-.6,4.17c-.14.15-1.94-.45-2.38-.6-.27-.09-.8.13-1.16,0l-.03-3.57c.19-.03.4.02.6,0h0Z"/>
  <path class="cls-11" d="M119.86,74.52c.06-.22,1.06-2.06,1.16-2.12l3.03.65-.62,3.86c-1.24-.3-2.26-.57-3.57-.6.08-.55-.12-1.31,0-1.79Z"/>
  <path class="cls-11" d="M118.67,66.77c2.78-.05,1.44.83,1.79,1.19l-.6,2.99c-.09.07-1.31-.65-1.78-.6h-1.79c-.37-1.81.39-2.38,1.19-3.58h1.19Z"/>
  <polygon class="cls-9" points="126.42 63.2 125.26 67.12 122.25 66.77 122.85 62.6 126.42 63.2"/>
  <path class="cls-11" d="M127.61,53.66c.69.21,1.39-.38,1.19,1.19-1.83,1.46.18,1.33-2.98,2.38h-1.19c0-.79-.03-1.59,0-2.38.02-.59-.02-1.19,0-1.79,1.03-.03,2.01.3,2.98.59h0Z"/>
  <path class="cls-11" d="M119.86,62c.51,0,1.66-.26,1.8.3.07.6-.44,3.53-.7,3.79-.28.28-.86,0-1.1.08-.31-.85-1.35-.42-1.79-.6-.74-.3-.65-.33-.6-1.19.29-.07.55-.31.6-.6.09-.55-.06-1.21,0-1.79.59,0,1.19,0,1.79,0h0Z"/>
  <path class="cls-11" d="M127.02,60.22c1.73-.95,2.84-.92,4.77-.59,0,2.59.08,2.71-1.79,3.57-1.13-.08-1.63-.38-2.38-1.19l.59-.3-.59-.29c-.12-.24-.54-.43-.6-.6s.06-.41,0-.6h0Z"/>
  <path class="cls-9" d="M124.63,57.83l2.36.63c.21.54-.11,1.31.03,1.75.06.18-.06.42,0,.6l-3.32.64-.23-3.6c.36-.15.92.09,1.16,0h0Z"/>
  <path class="cls-11" d="M128.81,63.79c2.45.75,1.39,1.22,1.79,2.38-.95,3.78-4.67,1.36-3.5-1.41.35-1.09,1.21-.72,1.71-.97Z"/>
  <path class="cls-11" d="M116.29,71.54h2.98v2.98c.36,1.88-1.61,1.1-2.98,1.2v-4.18Z"/>
  <path class="cls-9" d="M121.65,60.81h-1.19c-.57-.22-1.5-.02-1.75-.96-1.13-4.24,6.94-3.21,2.95.96h0Z"/>
  <path class="cls-11" d="M119.86,54.85l.68-2.3c.94-.25,1.94-.05,2.9-.09v2.39c-.21,3.24-3.33.06-3.58,0Z"/>
  <path class="cls-11" d="M121.65,68.56l2.98-.6v2.98c-2.78.9-4.2,1-2.98-2.38Z"/>
  <path class="cls-14" d="M113.9,65.58c.19.04.4-.03.6,0l.6.6.6,3.57c-.38.07-.86-.08-1.19,0-.1-.73-1.24-.67-1.79-.6h-1.19l1.19-3.58c.31.1.82-.07,1.19,0h0Z"/>
  <path class="cls-11" d="M113.31,50.08c2.08.89.96,2.41.59,4.18l-2.38-.6c0-.09-.73-.35-.3-1.72.59-1.92,1.87-1.65,2.09-1.86Z"/>
  <path class="cls-9" d="M118.67,54.85c-.74-.11-1.62.09-2.39,0,.15-1.1-.21-2.59,0-3.58l2.73.57-.35,3.01h0Z"/>
  <path class="cls-9" d="M115.69,61.41v2.98c-.17.03-.42.02-.6,0-3.51-.32-1.61-1.17-1.79-1.79l.89-2.37c.53.17,1.14,1.05,1.49,1.18h.01Z"/>
  <polygon class="cls-13" points="118.07 56.04 117.18 60.2 116.29 56.04 118.07 56.04"/>
  <path class="cls-13" d="M115.69,59.62h-1.78l.6-4.18c1.71.62,1.14,2.78,1.18,4.18Z"/>
  <path class="cls-9" d="M113.9,49.48l-.58-.31c-.41-1.8.46-1.45,1.77-2.07.26,1.55-.4,1.66-1.19,2.38Z"/>
  <path class="cls-2" d="M114.5,74.52c-.05.33-.5.8-.6,1.19-.98-.32-1.96-.48-2.98-.6.06-.29.32-.55.6-.6.92-.14,2.02.09,2.98,0h0Z"/>
  <path class="cls-3" d="M116.29,61.41c.28.1.82-.07,1.19,0l-1.19,2.97v-2.98h0Z"/>
  <path class="cls-2" d="M114.5,69.75c-.45.11-.86.27-1.19.6-.21-.08-1.56-.54-1.79-.6.45.06,1.02-.57,1.19-.6.55-.07,1.69-.14,1.79.6Z"/>
  <path class="cls-2" d="M116.29,64.39c-.19.03-.41-.04-.6,0v-2.98c.18.06.42-.06.6,0v2.98Z"/>
  <path class="cls-2" d="M119.86,66.18c-.42.15-1.04-.08-1.19.6h-1.19c.24-.36.38-.81.6-1.19.44.18,1.48-.25,1.79.6h0Z"/>
  <path class="cls-2" d="M119.86,62c-.6,0-1.19,0-1.79,0,.08-.9,1.7-.9,1.79,0Z"/>
  <path class="cls-2" d="M121.65,60.81c-.12.12-.06.48-.38.55-.51.09-.68-.5-.82-.55h1.2Z"/>
  <path class="cls-4" d="M127.61,62c-.1-.1.09-.43,0-.6l.59.29-.59.3h0Z"/>
  <path class="cls-2" d="M117.48,64.39c.02-.41.16-.66.6-.6-.05.28-.31.53-.6.6Z"/>
  <path class="cls-2" d="M115.1,66.18l-.6-.6.6.6Z"/>
  <path class="cls-9" d="M136.55,54.25h-2.38v-2.97l-.59,2.39-4.17-.61,1.2-3.57c3.48.64,5.41.87,5.96,4.77h-.02Z"/>
  <path class="cls-11" d="M127.02,43.52c.05,0,.43-.52.8-.43,2.54.62,2.47.76,2.78,2.81l-.6,1.19c-2.23.76-1.72.16-3.58,0l.6-3.58h0Z"/>
  <path class="cls-11" d="M128.81,52.47l-3.58-.6.6-3.57c2.44.88,4.67.18,2.98,4.17Z"/>
  <path class="cls-9" d="M129.4,54.85c1.57-.57,1.79-.33,3.58,0l-.6,2.98c-3.49,1.13-3.88.63-2.98-2.98Z"/>
  <path class="cls-11" d="M124.04,47.7c.19.04.41-.04.6,0l-.6,4.18c-3.93-.65-3.31-1.22-2.37-4.78.83.03,1.58.44,2.38.6h0Z"/>
  <path class="cls-11" d="M125.83,42.93l-.91,3.6c-2.39.3-2.93-.82-2.66-3.01,1.08-.13,1.73-.71,3.58-.6h0Z"/>
  <path class="cls-11" d="M136.55,59.62c-1.78.11-2.79.18-2.98-1.79-.02-.19-.02-.41,0-.6l.6-.6c.11-.21-.1-.83,0-1.19,3.53-.06,2.51,2.12,2.38,4.17h0Z"/>
  <path class="cls-9" d="M131.19,46.5c.23-.3-.59-1.53.89-1.19l2.09,3.57-3.57-1.79c.26-.21.39-.33.6-.6h0Z"/>
  <path class="cls-9" d="M120.46,43.52c1.63,2.42-.08,2.08-1.79,1.79-.37-.06-.81.04-1.19,0-.05-.2.08-.52,0-.6.94-.58,1.92-.9,2.98-1.19Z"/>
  <path class="cls-2" d="M131.19,46.5c-.2.27-.33.39-.6.6-.11.08-.4-.07-.6,0l.6-1.19c.04.28.31.54.6.6h0Z"/>
  <path class="cls-4" d="M133.57,57.23c.02-.15.48-.38.6-.6l-.6.6Z"/>
  <path class="cls-11" d="M122.84,79.89c-.78,1.72-2.16,1.5-3.58.6-.58-1.95,1.04-4.07,3.03-2.72.74.5.36,1.73.55,2.12Z"/>
  <path class="cls-20" d="M112.71,65.58l-1.19,3.57h1.19c-.18.03-.74.66-1.19.6-.18-.05-.4.04-.6,0,.04-.39-.06-.81,0-1.19.15-.98.63-1.95.6-2.98.35.09.87-.1,1.19,0Z"/>
  <path class="cls-4" d="M116.88,81.68c-.27.08-.56.32-.6.6h-.6v-1.19c.71.09.72.07,1.19.6h0Z"/>
  <path class="cls-2" d="M129.4,78.1l-.58-.3.58-.3v.6Z"/>
  <path class="cls-18" d="M140.13,69.16c-1.58,1.51-4.66-2.18-1.48-2.98,1.47-.37,1.83,2.64,1.48,2.98Z"/>
  <path class="cls-17" d="M33.82,135.98c2.36.25,2.79,4.02.81,5.02-3.7,1.87-4.03-3.65-.81-5.02Z"/>
  <polygon class="cls-17" points="33.44 144.28 33.17 146.7 30.46 147.26 30.45 144.27 33.44 144.28"/>
  <polygon class="cls-17" points="38.15 144.91 38.8 148.44 36.42 148.45 36.42 144.87 38.15 144.91"/>
  <path class="cls-7" d="M67.8,76.44c3.93-.36,4.4,8.32,1.08,8.84-4.85.77-5.17-8.47-1.08-8.84Z"/>
  <path class="cls-7" d="M91.25,90.62c.59,2.53-3.52,6.22-5.71,6.53-2.06.3-9.94-2.44-10.4-3.85-.23-.69-.34-1.67.9-1.5,2.3.31,5.88,3.63,8.26,3.42,2.8-.24,4.34-4.07,6.94-4.61h0Z"/>
  <path class="cls-7" d="M93.45,75.21c3.06-.26,3.81,8.26-.11,8.28-3.19.02-3.9-7.93.11-8.28Z"/>
  <path class="cls-2" d="M80.53,85.26c.43-.43,2.65.22,2.38,1.48-.48,2.2-3.53-.33-2.38-1.48Z"/>
  <path class="cls-2" d="M87.67,84.66c.76.82-1.05,3.16-1.78,2.38-.76-.82,1.05-3.16,1.78-2.38Z"/>
  <path class="cls-10" d="M29.26,72.73l2.13-6.6c1.88-.27,9.83,3.05,8,4.8l-1.69.1-.1,1.69h-8.34Z"/>
  <path class="cls-10" d="M38.2,78.7l-1.19,2.98,2.97-.59c1.16,1.26-3.24,6.68-5.56,5.9-.57-.19-4.53-5.27-3.97-5.9,0,0,7.75-2.39,7.75-2.39Z"/>
  <path class="cls-9" d="M115.09,90.02c-.03,1.48.06,2.99,0,4.48-.03.72.45,2.22-.59,2.07l-1.2-6.55h1.79Z"/>
  <path class="cls-9" d="M118.67,90.62c.51.47-1.43,3.47-2.38,3.57l.28-2.99c.27-.67,1.88-.78,2.1-.58Z"/>
  <path class="cls-20" d="M118.67,45.31c-.26.51-.86.42-1.19.6v-.6c.39.04.82-.06,1.19,0Z"/>
</svg>