<?xml version="1.0" encoding="UTF-8"?>
<svg id="_레이어_1" data-name="레이어 1" xmlns="http://www.w3.org/2000/svg" viewBox="0 0 179.7 143.16">
  <defs>
    <style>
      .cls-1 {
        fill: #222328;
      }

      .cls-2 {
        fill: #5a233c;
      }

      .cls-3 {
        fill: #8ebdc6;
      }

      .cls-4 {
        fill: #bde0ef;
      }

      .cls-5 {
        fill: #5c6466;
      }

      .cls-6 {
        fill: #866850;
      }

      .cls-7 {
        fill: #a16576;
      }

      .cls-8 {
        fill: #c3cbce;
      }

      .cls-9 {
        fill: #78add2;
      }

      .cls-10 {
        fill: #c4b182;
      }

      .cls-11 {
        fill: #e3d099;
      }

      .cls-12 {
        fill: #6c8f50;
      }

      .cls-13 {
        fill: #752a47;
      }

      .cls-14 {
        fill: #fff;
      }

      .cls-15 {
        fill: #91b062;
      }

      .cls-16 {
        fill: #75a6a3;
      }

      .cls-17 {
        fill: #858e90;
      }

      .cls-18 {
        fill: #28272e;
      }

      .cls-19 {
        fill: #323731;
      }

      .cls-20 {
        fill: #712945;
      }
    </style>
  </defs>
  <path class="cls-9" d="M58.23,87.96c-.05.29.07.69,0,.93-.08.27-.28.33-.46.47-1.25.92-3.33,1.49-4.87,2.8-6.05,5.16-2.5,9.5,3.69,11.63,3.89,1.34,8.92,1.74,13.02,1.37,2.09-.19,5.69-1.68,7.42-1.4.75.12,3.3,2.08,3.97,2.8-.4.04-3.92.54-2.79,1.39,2.16-.15,4.72.91,6.76.95.98.02,1.87-.49,2.53-.48-.27,1.23.62.91,1.38,1.16,1.35.44,7.93,1.95,8.26,2.22.23.19,2.25,3.96,3.13,5,4.47,5.31,14.36,10.7,21.4,8.39,5.99-1.96.2-10.87-2.12-13.97.84-.65,5.96,4.62,7.29,5.49,5.55,3.63,14.26,5.48,20.82,4.74,8.97-1.01,5.3-7.57,2.09-12.56.41-.15,3.93-2.38,4.4-2.8.57-.51,1.33-.95,1.17-1.85-2.42-.23-4.3,1.5-6.4,2.22-.67.23-1.46-.02-1.96.1l-4.64-2.56c.22-.53,5.78-1.42,6.96-1.87,2.29-.87,6.53-2.97,5.52-5.97-.45-1.36-6.22-.59-7.96-.87-1.35-.22-1.79-.88-2.67-1.28.23-1.79-.54-3.95-2.5-4.14l-.29-1.44h32.53s2.79,1.86,2.79,1.86c.65.75.56.84.93,1.4l.46.47c.07.11-.06.34,0,.47l.46.47c.05.13-.05.33,0,.47l.46.93c.13.46.36.84.46,1.4-.58,2.61-.89,4.9-1.86,7.44-.05.14.05.33,0,.47-1.85.32-2.93,2.56-4.18,3.72-.16.15-.3.32-.46.47-1.83-.31-2.67.74-3.25,2.33-.11.07-.35-.07-.46,0-1.05.65-1.63.85-2.57,1.85-4.44,4.76-1.49,6.45-2.07,11.42-.1.86-.65,2.55-.94,3.47-.04.14.04.32,0,.47-1.61-.13-1.51,1.43-1.86,1.86s-.64.62-.93.93c-1.43.36-2.94.7-3.25,2.33-.14.04-.33-.05-.46,0-10.67,3.7-17.86,5.37-29.07,7.4-.8.15-1.75-.12-2.05.97-.98.12-1.93.37-2.79.47-.89-.77-2.85-.56-3.97-.48-13.93.95-26,1.24-39.92.93-5.51-.12-11.01-.18-16.51-.45h-1.39c-4.71-1.24-9.7-1.19-14.51-1.99-7.88-1.32-15.67-3.6-23.13-6.38h-.46l-.46-.47c-.13-.05-.33.05-.46,0v-.93s-1.39,0-1.39,0c-.26-.15-.51-.18-.93-.47l-.93-.93c-.09-.08-.38.08-.46,0l-1.86-1.86c-.28-.37-.31-.66-.46-.93-.9-1.53-1.7-2.48-1.86-4.42-.35-4.15,3.03-7.3-.92-10.93-.27-.24-1.18-.8-1.86-1.4-2.49-2.18-6.42-4.22-8.13-6.05-1.07-1.15-1.21-3.03-2.56-3.25-.03-.15.02-.31,0-.47-.18-1.83-.18-5.14,0-6.98.01-.15-.03-.32,0-.47l4.18-4.65c.11-.18.38-.31.46-.47,8.52.66,18.35-.89,26.72,0,2.44.26,5.35,1.56,7.95,1.81,5.91.57,12.21-.54,17.83-2.27ZM34.53,96.34c-2.73.09-5.36.72-8.13.46-3.82-.36-6.23-1.88-10.69-1.39-.54.06-5.65,1.29-4.41,2.33,2.44-.17,4.7-.69,7.2-.46,5.29.49,11.25,4.29,16.03-.93ZM166.95,104.24c.07-2.69-6.85-3.4-7.89-2.32-.1,1.21-.06.77.7.91,2.44.44,4.75,1.13,7.19,1.41ZM42.43,104.24c-3.45-.57-3.65,3.72-1.36,5.31,5.73,3.99,12.87-.42,18.8-.22,6.58.21,13.23,5.14,20.2,2.81-.19-.9-.93-.82-1.62-.93-1.89-.3-3.81-.32-5.74-.77-3.57-.83-6.86-3.05-10.53-3.41-7.41-.74-14.64,4.8-21.1-.28-.65-1.56,1.6-1.01,1.35-2.51ZM68.92,120.52c-2.8-.28-5.27.71-8.08.41-3.54-.38-7.05-2.91-10.74-3.2s-7,1.57-10.66,1.87c-3.3.27-6.08-.07-9.07-1.41.33,2.35,4.31,3.53,6.27,3.72,4.52.45,8.38-2.07,12.56-1.89,2.99.13,6.68,2.33,9.87,2.7,2.88.34,7.6-.18,9.87-2.2ZM130.24,131.68c-.4-.34-5.63,1.23-6.79,1.33-10.83.97-16.54-6.39-29.58-1.23-.41.16-4.53,1.86-3.59,2.68,3.42-.41,6.57-1.98,10.05-2.26,9.21-.76,19.03,5.47,27.9,1.42.83-.38,2.17-.78,2-1.94Z"/>
  <path class="cls-18" d="M92.61,43.32c22.33-2.95,45.29,10.88,48.83,33.9l28.06.05,1.16,1.86c-.15-.01-.31,0-.46,0-9.42-.55-19.33.4-28.8,0,.81,2.63.23,4.81,0,7.44,9.74.19,19.54-.26,29.27,0,.46.01.93-.03,1.39,0h.46c1.77.6,1.1,1.15,1.39,1.4v.47h-32.53s.29,1.44.29,1.44c1.95.19,2.73,2.35,2.5,4.14-.52-.24-1.29-.26-1.86-.47-.07-3.55-4.66-1.5-6.28-1.4-12.55.79-25.55-5.94-34.83-13.96-5.63-4.86-7.69-10.37-10.93-16.73,1.5-1.15-.72-3.02-1.86-3.26-.24-.47-.95-.09-.93-1.4.02-1.15.43-2.37.03-3.71.26-.12.81.07.9-.01-.62,2.66,2.15,4.02,3.15,5.92.42.8,1.32,4.62,1.52,4.76l15.12-7.42c-.66-2.32-1.05-4.83-1.78-7.12-.22-.68-.72-1.02-.81-1.26-.22-.55.42-1.88-.76-2.26-3.75-.36-7.58-1.06-11.32-.07-.51.14-1.07-.23-1.62.46-.87,1.09-.89,3.49-1.42,4.63-.34.74-1.15.96-1.61,1.41-.7-.37-.51-1.6-.46-2.33,0-.15-.02-.32,0-.47,1.21.25.94-.6,1.26-1.27.55-1.17,1.75-4.5,2.92-4.77ZM126.06,54.94c-3.69-3.01-7.79-5.67-12.42-7.33-.97-.35-5.63-2.05-6.16-1.5-.68,1.4.87,2.12.93,2.32.54,1.86.9,6.47,2.1,7.89l15.91,10.61c.9.22,4.64-.68,5.69-1.06,2.79-1,.56-2.49-.12-4.08-.37-.86-.2-1.97-.6-2.65-.34-.59-4.42-3.63-5.33-4.2ZM107.82,58.76c-.81.16-5.62,2.52-6.69,3.09-1.31.69-6.17,3.13-6.19,4.48-.03,1.81,7.32,9.89,9.04,11.42,3.89,3.47,12.96,9.05,17.89,10.47.62.18,1.31.44,1.9.01s1.24-5.84,1.36-7.02c.22-2.15.41-5.24.49-7.42.05-1.27.21-3.85-.26-4.89-.41-.91-9.23-6.96-10.75-7.84-1.94-1.13-4.54-2.74-6.79-2.3ZM139.02,89.77c.65-.56.59-7.22.51-8.55-.31-4.71-1.12-9.89-4.01-13.67l-8.04,1.36-1.4,20.43c4.43.9,8.48.82,12.95.43Z"/>
  <path class="cls-18" d="M49.87,1c17.07-3.85,37.13,3.54,42.72,21.19.97,3.06,2.27,9.95,2.37,13.01.05,1.51-.41,5.68-2.35,5.8-.47-1.39-2.81-.78-3.72-1.4.64-.16,2.9-.68,3.05-.9l.17-3.73c-1.33-.06-2.59-.54-3.94-.54-1.01,0-1.92.51-2.07.51-.77.02-1.56-.05-2.32,0l.93-3.26c2.75,2.01,4.02,1.6,7.23.5.27-7.74-3.91-17.25-10.02-22.13-2.72-2.17-2.81-2.4-6.05-1.16-3.93,1.52-7.24,4.52-9.17,8.26-.56,1.08-1.45,2.7-.59,3.83-2.54-.62-2.07-1.01-2.79-1.4,1.88-3.2,3.57-6.67,6.54-9.03l5.55-3.76c-.04-.69-.46-1.01-.98-1.36-1.63-1.1-10.09-3.12-12.05-3.05-7.95-.09-19.63-.15-22.77,8.84-1.69,2.08-2.5,5.27-2.32,7.91-.7.13-1.64.31-2.32.47.6-1.67.81-4,1.39-5.58.77-2.09,2.32-3.92,3.03-6.04-2.74,1.73-5.78,4.32-7.67,6.97l-.93-1.4c4.9-6.44,9.61-9.89,17.66-12.09.5-.14,1.11-.4,1.39-.47Z"/>
  <path class="cls-8" d="M170.2,79.13c.03.77-.05,1.56,0,2.33.1,1.72.68,3.37.46,5.12-9.74-.26-19.53.19-29.27,0,.23-2.63.81-4.81,0-7.44,9.47.4,19.39-.55,28.8,0Z"/>
  <path class="cls-19" d="M19.2,86.1c-.06,1.63-.29,1.28,1.14,1.4,1.79.14,4.81.19,6.56.03,1.94-.18,2.46-1.27,4.38-1.42.3-.02.63-.02.93,0v.93c.61.05,1.25-.05,1.86,0,.15.01.31-.02.46,0l.69.46.24-.46c8.56,1.4,10.87.65,19.05-.47l.23.46.23-.46c.15-.02.31.02.46,0,1.28-.15,4.61-.8,5.11.47-.92-.11-1.74.75-2.32.93-5.62,1.73-11.92,2.84-17.83,2.27-2.6-.25-5.51-1.55-7.95-1.81-8.37-.88-18.2.67-26.72,0,.14-.25-.21-1.22.44-1.64.1-.07,2.14-.65,2.35-.68,2.76-.39,7.71-.09,10.69,0Z"/>
  <path class="cls-8" d="M8.98,79.13c3.32.29,6.99-.21,10.36,0,1.96,2.88,4.37,4.76,7.3,6.52v.93c-2.71.14-5.04-.39-7.43-.47-2.97-.09-7.93-.39-10.69,0,.33-.91.42-1.82.46-2.79.07-1.39-.05-2.8,0-4.19Z"/>
  <path class="cls-3" d="M123.28,141.44c-18.49,1.97-37.42,2.2-55.98.92-1.24-.09-3.29-.41-4.42-.92,5.5.27,11,.32,16.51.45,13.91.31,25.99.02,39.92-.93,1.12-.08,3.08-.29,3.97.48Z"/>
  <path class="cls-1" d="M31.75,14.95c-1.45,2.02-2.59,4.96-3.71,7.21,1.25.48,3-1.54,3.24-1.63.66-.25,2.83-.73,3.72-.93.68-.15,1.62-.34,2.32-.47,6.26-1.16,12.39-1.11,18.58-.47v.93s.69,0,.69,0l.24-.93c.98.13,6.21.78,6.5.93.72.38.24.78,2.79,1.4,3.62.88,3.84,1.17,6.97,2.79.24,1.49,2.49,2.27,3.76,2.98.45.25,1.51,1.26,1.82.27.55.32,1.21.83,1.39.93l.46.47c.11.04.3,0,.46,0,1.1,1.01,2.55,2.4,3.72,3.26l-.93,3.26c-.15,0-.31-.01-.46,0-.31.02-.62,0-.93,0l-.24-.93h-.69s0,.93,0,.93c-.77.05-1.56-.04-2.33,0-.02.46.02.93,0,1.4h-1.86c-1.2-9.85-18.34-10.76-24.31-5.04-1.21,1.16-1.58,2.66-2.95,3.55-1.98.22-3.97.03-5.95.09-.78.02-1.62.53-2.33.48-1.31-.1-1.62-2.28-2.35-3.24-6.78-8.94-21.9-3.52-18.22,7.54,1.82,5.48,8.33,6.98,13.36,5.22,6.45-2.26,3.24-9.17,13.48-6.74.05.8.54,1,.93,1.86.84.23,1.49.71,2.32.93,2.95,4.28,9.17,6.77,14.4,6.51.33-.02.43-.46.46-.47.58-.07,1.34.11,1.86,0-.23,1.41.6.95,1.5.81,2-.31,3.48-1.31,5.25-2.19l3.07-5.07c1.66-.12,3.1.4,4.82.42.88,0,1.89.42,1.62-.94.31-.01.62.02.93,0,1.26-.1,2.49-.17,3.72-.47.91.62,3.25,0,3.72,1.4.18.53-.12,1.67,0,2.33-1.17.27-2.37,3.6-2.92,4.77-.32.68-.05,1.53-1.26,1.27.41-2.56,2.53-5.39,1.86-8.37l-11.17,1.14c-5.5,6.35-11.73,7.94-19.95,6.3-5.14-1.02-8.18-3.81-10.22-8.37-2.08-.58-4.26-.63-6.41-.37-2.63,6.69-10.5,9.67-17.06,6.89-1.67,1.87.07,5.47,1.17,7.43,4.21,7.5,14.11,10.78,22.2,11.97,5.84.86,11,.31,16.83.13l-7.89,2.09c6.25,7.09,16.21,8.78,22.3.47,2.61-3.56,1.16-3.69,1.36-6.97.15-2.43,4.06-7.94,5.52-10.33.4-.65.73-1.24,1.49-1.53-.05.72-.23,1.96.46,2.33-.07.06,0,.54-.46.93-.1.08-.64-.11-.9.01.4,1.34,0,2.56-.03,3.71l-1.09-.48c-.35.03-.55.82-.77.94-.39.21-1.02-.29-1.81.74-.71.94-.92,1.86.41,1.58-.53,1.09-1.17,2.14-.84,3.37.26.98,3.27,6.37,4.01,7.64,7.77,13.41,22.39,23.86,37.71,26.66,2.08.38,5.88.92,7.9.93,2.75,0,9.37-.91,9.29-4.65.57.2,1.34.23,1.86.47.88.4,1.32,1.06,2.67,1.28,1.73.28,7.5-.48,7.96.87,1,3-3.23,5.1-5.52,5.97-1.18.45-6.73,1.34-6.96,1.87l4.64,2.56c-2.3.56-1.64.32-3.72.47-2.92-1.84-6.02-3.57-8.83-5.58-.04-.03.08-.64-.33-.94-2.64-1.93-9.16-.24-12.55-2.22l-.6.11c-.45.53-1.01,1.08-1.4,1.65-.28.41-.3.51-.46.93-.05.12.04.31,0,.47-.04.18-.56.42-.49,1.13.04.47.45.62.49.73.32.89,1.09,1.67.93,2.79-1.24-.01-1.73-.4-2.32-.47v-4.65c.24-1.15.53-2.16.73-3.27-.47-.74-5.12-1.76-6.3-2.31-.3-.14-.62-.31-.93-.47-2.42-1.17-8.1-4.52-10.22-6.05-.37-.26-.84-.39-.93-.47-.07-.05-.04-.78-.48-1.13-.48-.38-3.94-3.28-4.16-3.06-.74,5.15-4.54,8.93-7.9,12.56-.65.7-1.41,1.02-1.39,2.33-1.94.8-4.03,1.51-5.9,2.69-.74.47-1.41.53-.6,1.49-1.07-.61-1.38-.22-1.63-1.87-5.3,2.02-10.01,2.85-15.74,2.29-3.43-.34-5.02-1.06-7.58-2.76-1.44-.96-2.11.37-2.46-2.3h.46c1.08,1.97,3.34,2.64,5.34,3.26,14.86,4.64,31.22-4.18,36.03-18.82l-7.45-9.8c-1.43-.76-2.03.59-2.78,1.18-.44.35-.64.67-.93.93-5.88,5.19-9.85,9.26-17.19,12.79-3.37,1.62-11.19,3.62-13.01,7.21-.52,1.02-.47,1.7-.46,2.79-1.78.47-.57-2.78-.32-3.12.74-1.02,2.58-1.83,3.37-2.44.45-.36.52-1.15.78-1.33.92-.61,2.22.96,1.76-1.95.19-.14.38-.19.46-.47l2.26-.53c.13-.18.14-1.12.06-1.33-.5-1.27-3.83-.62-5.11-.47l3.73-1.64c-.99-2.03-1.49-4.17-2.02-6.35-.29-1.18-.77-5.64-.99-5.98-.81-1.28-2.53.42-3.04.49-3.5.49-8.28.41-11.79-.06-5.87-.77-15.14-5.35-20.31-3.93-.94.26-1.06.82-1.35,1.66-.75,2.13-.43,3.54.46,5.58,2.08,4.74,7.16,7,11.15,9.77-1.93.15-2.44,1.24-4.38,1.42-1.75.17-4.77.11-6.56-.03-1.43-.11-1.2.23-1.14-1.4,2.39.07,4.73.6,7.43.47.46-.02.93.02,1.39,0-.05-.87-1.02-.7-1.39-.93-2.93-1.76-5.33-3.64-7.3-6.52-3.37-.2-7.04.3-10.36,0-.15-.01-.32.03-.46,0,.2-.71-.64-1.77.68-1.86,2.84-.19,5.76.15,8.61,0-3.63-11.43,4.45-11.68,13.01-9.3.64.18,1.27.3,1.86.47.18.05.49.35.93.47,6.78,1.82,10.79,3.66,18.23,2.2,1.18-.23,7.37-1.85,3.36-2.65-7-1.39-12.83-1.01-19.73-4.2-.96-.44-1.72-1.2-2.79-1.4-.86-.72-2.13-1.72-3.25-1.86l-6.04-7.91c-.09-1.68-.93-3.2-.97-4.89-.02-1.03.61-2.64.46-3.18-.13-.45-1.71-1.24-2.37-2.3-2.14-3.39-2.04-7.96-.36-11.49.11-.23.39-.82.46-.93.77-1.09,4.22-2.91,4.42-3.25.48-.8.1-2.33.34-3.38,1.03-4.56,2.85-6.68,5.46-10.12l.93,1.4ZM83.32,33.08c-12.17-11.63-31.7-15.71-47.86-11.39-2.54.68-6.56,1.93-7.89,4.19,4.48.18,9.2.12,12.32,3.94.99,1.21,1.45,3.48,2.78,3.73.88.17,5.18.15,5.95-.09.62-.19,2.59-3.04,3.57-3.87,6.82-5.83,21.56-4.66,26.33,3.42l4.8.07ZM80.53,71.68c-2.31,2.41-8.51,4.8-11.85,4.68-4.61-.17-6.98-2.72-10.45-5.15-.15,3.38.85,6.61,1.85,9.77.15.48.29.92.46,1.4.27.72,1.8,4.63,2.14,4.69,2.13-.18,3.68-1.86,5.3-2.83.69-.41,2.24,0,1.86-1.4,3.11-.29,7.65-5.24,9.99-7.43.66-.62,1.1-1.88,1.62-2.33.35-.3,3.52-1.67,3.66-1.91l-1.35-3.67c-1.07-.27-.76.21-1.06.59-.61.78-1.78,3.17-2.19,3.6ZM142.33,97.73c-1.82.76-4.02,1.39-5.58,2.09-1.33.6,1.37,1.47,1.73,1.52,4.11.65,7.23-.08,10.81-1.75,1.02-.48,2.6-1.03,3.25-1.86-2.65.72-5.88-1-8.16-.96-1.15.02-1.37.66-2.06.95Z"/>
  <path class="cls-3" d="M163.7,127.03c.29-.92.84-2.62.94-3.47.58-4.96-2.37-6.65,2.07-11.42.93-1,1.52-1.2,2.57-1.85-1.26,1.33-3.42,2.77-3.97,4.63-1.18,4,2.09,8.97-1.61,12.11Z"/>
  <path class="cls-3" d="M13.63,112.14c3.96,3.63.57,6.77.92,10.93.16,1.94.96,2.89,1.86,4.42-5.89-4.25.74-10.09-2.79-15.35Z"/>
  <path class="cls-14" d="M170.67,79.13c1.44.14,2.77.12,2.3,1.83l-2.76.5c-.05-.77.03-1.55,0-2.33.15,0,.31-.01.46,0Z"/>
  <path class="cls-3" d="M1.08,100.98c-1.43-1.44-1.46-5.47,0-6.98-.18,1.84-.18,5.14,0,6.98Z"/>
  <path class="cls-3" d="M177.64,103.31c.97-2.55,1.28-4.83,1.86-7.44.53,2.92.08,5.1-1.86,7.44Z"/>
  <path class="cls-3" d="M1.08,101.45c1.35.22,1.49,2.1,2.56,3.25,1.7,1.83,5.64,3.87,8.13,6.05-3.11-2.08-9.91-5.29-10.69-9.3Z"/>
  <path class="cls-3" d="M163.7,127.49c-.35,1.13-.45,1.69-1.86,1.86.35-.43.25-1.99,1.86-1.86Z"/>
  <path class="cls-3" d="M5.26,88.89l-4.18,4.65c.17-.99,2.77-5.02,4.18-4.65Z"/>
  <path class="cls-3" d="M160.91,130.28c-1.01,1.09-1.75,1.85-3.25,2.33.31-1.63,1.82-1.96,3.25-2.33Z"/>
  <path class="cls-3" d="M21.06,131.68h1.39s0,.93,0,.93c-1.1-.44-1.07-.74-1.39-.93Z"/>
  <path class="cls-3" d="M173.92,87.96c.91.79,1.69,1.06,2.79,2.33l-2.79-1.86v-.47Z"/>
  <path class="cls-3" d="M179.03,94.47l-.46-.93c.07.19.31.39.46.93Z"/>
  <path class="cls-8" d="M172.53,86.57h-.46c.12,0-.05-.17.46,0Z"/>
  <path class="cls-3" d="M23.38,133.07l-.46-.47.46.47Z"/>
  <path class="cls-3" d="M20.13,131.21c-.55-.37-.68-.73-.93-.93l.93.93Z"/>
  <path class="cls-3" d="M178.57,93.08l-.46-.47s.33.14.46.47Z"/>
  <path class="cls-3" d="M18.74,130.28c-.83-.72-1.14-.91-1.86-1.86l1.86,1.86Z"/>
  <path class="cls-3" d="M178.1,92.15l-.46-.47c.07.11.32.21.46.47Z"/>
  <path class="cls-17" d="M92.61,108.42c1.42.23,3.91,1.49,5.86,1.8,6.12.99,13.63.86,19.61-.75.8-.22,1.75.29,1.47-1.06.92,0,1.87.06,2.79,0,.24,1.36.91,2.51,1.84,3.51,4.62,4.96,19.2,9.93,25.44,6.82,3.57-1.78-.68-7.14-2.19-9.4.53-.11,2.18-.41,2.32-.47,3.21,4.99,6.88,11.55-2.09,12.56-6.56.74-15.27-1.11-20.82-4.74-1.33-.87-6.45-6.14-7.29-5.49,2.31,3.11,8.1,12.01,2.12,13.97-7.05,2.31-16.94-3.08-21.4-8.39-.88-1.05-2.9-4.82-3.13-5-.33-.27-6.91-1.77-8.26-2.22-.76-.25-1.64.08-1.38-1.16,1.54.02,3.72-.23,5.11,0ZM100.05,112.15c1.35,6.28,15.53,13.76,20.89,11.38,3.56-1.58-1.41-9.31-3.24-11.15-5.8-.16-11.82.87-17.66-.23Z"/>
  <path class="cls-4" d="M106.55,102.38s-.19.7.34.91c1.85.75,6.87,1.97,8.95,2.34.55.1,1.27-.07,1.86,0s1.09.45,2.32.47c1.6.02,2.73-.35,4.18-.47,6.67-.55,11.49,1.94,19.05,1.4,2.08-.15,1.42.09,3.72-.47.5-.12,1.29.12,1.96-.1,2.1-.72,3.98-2.45,6.4-2.22.15.9-.6,1.33-1.17,1.85-.47.42-3.99,2.65-4.4,2.8-.15.05-1.79.35-2.32.47-8.86,1.88-13.67-1.86-20.68-1.85-1.39,0-3.07.84-4.41.92-.92.06-1.87,0-2.79,0-8.77-.03-12.18-4.22-22.2-1.99-1.29.29-3.87.96-4.75,1.99-1.4-.23-3.57.02-5.11,0-.65,0-1.54.5-2.53.48-2.04-.04-4.61-1.1-6.76-.95-1.14-.85,2.39-1.35,2.79-1.39,1.48-.14,3.18.17,4.65,0,5.86-.68,11.38-3.03,17.19-3.72.73-.09,3.56-.57,3.72-.47Z"/>
  <path class="cls-4" d="M42.43,104.24c.24,1.5-2,.95-1.35,2.51,6.46,5.08,13.68-.45,21.1.28,3.67.36,6.96,2.58,10.53,3.41,1.92.45,3.85.47,5.74.77.69.11,1.43.02,1.62.93-6.97,2.33-13.62-2.6-20.2-2.81-5.93-.19-13.07,4.21-18.8.22-2.29-1.59-2.08-5.89,1.36-5.31Z"/>
  <path class="cls-4" d="M130.24,131.68c.17,1.17-1.18,1.57-2,1.94-8.87,4.05-18.69-2.18-27.9-1.42-3.47.29-6.62,1.85-10.05,2.26-.94-.82,3.18-2.52,3.59-2.68,13.03-5.16,18.74,2.21,29.58,1.23,1.16-.1,6.39-1.68,6.79-1.33Z"/>
  <path class="cls-4" d="M68.92,120.52c-2.27,2.02-6.99,2.54-9.87,2.2-3.18-.38-6.88-2.57-9.87-2.7-4.17-.18-8.03,2.34-12.56,1.89-1.95-.19-5.94-1.37-6.27-3.72,2.99,1.34,5.77,1.68,9.07,1.41,3.67-.3,6.82-2.17,10.66-1.87s7.2,2.82,10.74,3.2c2.82.3,5.28-.69,8.08-.41Z"/>
  <path class="cls-18" d="M57.76,89.36c.46,2.91-.84,1.34-1.76,1.95-.26.17-.32.97-.78,1.33-.78.62-2.63,1.43-3.37,2.44-.24.33-1.46,3.58.32,3.12,0,.15-.02.32,0,.47.35,2.68,1.02,1.35,2.46,2.3,2.56,1.7,4.15,2.42,7.58,2.76,5.73.57,10.44-.27,15.74-2.29.25,1.65.57,1.25,1.63,1.87,1.9,1.1,4.43,1.76,6.04,3.26-1.46.17-3.16-.14-4.65,0-.67-.72-3.22-2.68-3.97-2.8-1.72-.28-5.32,1.21-7.42,1.4-4.1.37-9.13-.03-13.02-1.37-6.19-2.13-9.74-6.47-3.69-11.63,1.54-1.31,3.62-1.88,4.87-2.8Z"/>
  <path class="cls-4" d="M34.53,96.34c-4.78,5.22-10.74,1.42-16.03.93-2.5-.23-4.76.29-7.2.46-1.24-1.03,3.87-2.27,4.41-2.33,4.46-.49,6.88,1.04,10.69,1.39,2.77.26,5.4-.37,8.13-.46Z"/>
  <path class="cls-4" d="M166.95,104.24c-2.45-.28-4.76-.97-7.19-1.41-.76-.14-.8.3-.7-.91,1.05-1.08,7.97-.37,7.89,2.32Z"/>
  <path class="cls-17" d="M60.55,87.03c.08.21.07,1.15-.06,1.33l-2.26.53c.07-.24-.05-.64,0-.93.59-.18,1.4-1.04,2.32-.93Z"/>
  <path class="cls-2" d="M107.82,58.76c2.24-.44,4.85,1.17,6.79,2.3,1.52.89,10.34,6.93,10.75,7.84.47,1.04.31,3.62.26,4.89-.08,2.18-.27,5.27-.49,7.42-.12,1.17-.74,6.57-1.36,7.02s-1.28.17-1.9-.01c-4.93-1.42-14-7.01-17.89-10.47-1.72-1.53-9.07-9.61-9.04-11.42.02-1.35,4.88-3.79,6.19-4.48,1.07-.56,5.89-2.93,6.69-3.09Z"/>
  <path class="cls-12" d="M59.16,48.43c8.23,1.64,14.46.05,19.95-6.3l11.17-1.14c.68,2.98-1.45,5.81-1.86,8.37-.02.15,0,.31,0,.47-.76.3-1.09.88-1.49,1.53-1.45,2.39-5.37,7.9-5.52,10.33-.2,3.28,1.25,3.4-1.36,6.97-6.09,8.31-16.05,6.62-22.3-.47l7.89-2.09c-5.83.18-10.99.73-16.83-.13-8.09-1.19-17.99-4.46-22.2-11.97,1.21-.84.7-.39,1.21.41,1.64,2.59,2.21,3.14,5.18,4.59,17.15,8.34,46.79,5.03,52.15-16.39-5.25-.22-7.06,3.77-10.91,5.82-4.37,2.32-9.01,2.36-13.73,1.14-.78-.2-1.64.06-1.38-1.15Z"/>
  <path class="cls-7" d="M87.5,56.8c-.02,1.31.69.92.93,1.4.62,1.23,1.35,2.26,1.86,3.26,3.25,6.36,5.31,11.86,10.93,16.73,9.28,8.02,22.28,14.75,34.83,13.96,1.61-.1,6.21-2.15,6.28,1.4.07,3.74-6.54,4.66-9.29,4.65v-3.72c-3.09.15-6.87-1.09-7.9,2.79-15.33-2.8-29.94-13.26-37.71-26.66-.74-1.27-3.74-6.66-4.01-7.64-.33-1.22.31-2.28.84-3.37.37-.77,1.13-1.45,1.39-2.33.22-.12.42-.91.77-.94l1.09.48Z"/>
  <path class="cls-2" d="M139.02,89.77c-4.47.4-8.52.48-12.95-.43l1.4-20.43,8.04-1.36c2.88,3.79,3.7,8.96,4.01,13.67.09,1.32.14,7.99-.51,8.55Z"/>
  <path class="cls-2" d="M126.06,54.94c.91.57,4.99,3.61,5.33,4.2.4.68.23,1.79.6,2.65.68,1.59,2.91,3.08.12,4.08-1.05.38-4.79,1.28-5.69,1.06l-15.91-10.61c-1.2-1.42-1.56-6.03-2.1-7.89,5.92.35,12.68,3.4,17.66,6.51Z"/>
  <path class="cls-2" d="M93.54,45.64c-.27,3.07,5.95,1.72,8.15,1.84,1.33.07,2.58.64,3.93.48.1.24.6.57.81,1.26.73,2.29,1.12,4.8,1.78,7.12l-15.12,7.42c-.2-.14-1.11-3.96-1.52-4.76-.99-1.9-3.77-3.26-3.15-5.92.47-.39.4-.87.46-.93.45-.45,1.26-.67,1.61-1.41.53-1.14.56-3.54,1.42-4.63.55-.69,1.11-.33,1.62-.46Z"/>
  <path class="cls-13" d="M105.62,47.97c-1.35.15-2.6-.41-3.93-.48-2.2-.12-8.42,1.23-8.15-1.84,3.73-1,7.57-.29,11.32.07,1.18.38.54,1.71.76,2.26Z"/>
  <path class="cls-13" d="M108.41,48.43c-.06-.2-1.61-.92-.93-2.32.53-.55,5.2,1.15,6.16,1.5,4.63,1.66,8.73,4.32,12.42,7.33-4.98-3.11-11.74-6.16-17.66-6.51Z"/>
  <path class="cls-1" d="M88.43,58.2c1.14.24,3.36,2.11,1.86,3.26-.51-1-1.23-2.03-1.86-3.26Z"/>
  <path class="cls-13" d="M62.41,2.39c1.96-.07,10.42,1.95,12.05,3.05.52.35.94.67.98,1.36l-5.55,3.76c-2.97,2.36-4.66,5.83-6.54,9.03-.29-.15-5.52-.8-6.5-.93-.3-.04-.63.03-.93,0-6.19-.65-12.32-.69-18.58.47-.18-2.63.63-5.82,2.32-7.91,1.4-1.72,6.22-4.01,8.37-4.88,2.83-1.14,11.68-3.87,14.4-3.96Z"/>
  <path class="cls-13" d="M75.88,8.9c.81,1.13,1.98-.39,3.04.42.45.34,3.49,4.81,3.82,5.51,1.5,3.14,2.3,9.03.81,12.21-.68,1.45-.92,1.48-2.56,1.4-.16,0-.35.04-.46,0-.13-.04-.29-.37-.46-.47s-.84-.61-1.39-.93c-1.93-1.11-3.5-2.18-5.58-3.26-3.13-1.62-3.35-1.91-6.97-2.79-.86-1.13.03-2.75.59-3.83,1.93-3.74,5.23-6.75,9.17-8.26Z"/>
  <path class="cls-2" d="M84.71,31.69c-1.17-.85-2.61-2.25-3.72-3.26,1.63.08,1.88.05,2.56-1.4,1.49-3.18.69-9.08-.81-12.21-.34-.7-3.37-5.17-3.82-5.51-1.05-.8-2.23.72-3.04-.42,3.23-1.25,3.33-1.01,6.05,1.16,6.11,4.88,10.28,14.39,10.02,22.13-3.21,1.1-4.48,1.51-7.23-.5Z"/>
  <path class="cls-7" d="M62.41,2.39c-2.72.09-11.56,2.82-14.4,3.96-2.15.86-6.97,3.16-8.37,4.88,3.14-8.99,14.82-8.92,22.77-8.84Z"/>
  <path class="cls-2" d="M86.11,34.94c.15,0,1.06-.51,2.07-.51,1.35,0,2.61.48,3.94.54l-.17,3.73c-.15.22-2.41.74-3.05.9-1.23.3-2.46.37-3.72.47l1.86-.93c-.21-1.43.73-3.44-.93-4.19Z"/>
  <path class="cls-13" d="M86.11,34.94c1.66.75.73,2.76.93,4.19l-1.86.93c-.31.02-.62-.01-.93,0s-.62,0-.93,0l-1.78-.99c-.59-1.03-.59-2.1,0-3.13l1.78-.99c.15-.01.31,0,.46,0,.77-.05,1.55.02,2.32,0Z"/>
  <path class="cls-20" d="M35,19.6c-.89.2-3.06.68-3.72.93.99-2.42,3.07-4.86,5.11-6.51-.58,1.58-.8,3.91-1.39,5.58Z"/>
  <path class="cls-12" d="M53.12,73.08c.51-.07,2.23-1.77,3.04-.49.22.35.7,4.8.99,5.98.53,2.18,1.03,4.31,2.02,6.35l-3.73,1.64c-.15.02-.31-.02-.46,0s-.31-.02-.46,0c-8.18,1.12-10.49,1.87-19.05.47-.29-.05-.63.03-.93,0-.15-.02-.31.01-.46,0-.43-.66-1.12-.87-1.86-.93-.3-.02-.63-.02-.93,0-3.99-2.77-9.07-5.02-11.15-9.77,2.42,1.38,4.06,3.41,6.54,4.85,6.17,3.57,15.97,5.11,22.41,1.58,3.53-1.93,3.97-3.95,4.03-7.82.01-.62,0-1.24,0-1.86Z"/>
  <path class="cls-1" d="M34.07,87.03c-.61-.05-1.25.05-1.86,0v-.93c.74.06,1.43.28,1.86.93Z"/>
  <path class="cls-1" d="M35.46,87.03l-.24.46-.69-.46c.3.03.64-.05.93,0Z"/>
  <path class="cls-1" d="M54.51,86.57c.15-.02.31.02.46,0l-.23.46-.23-.46Z"/>
  <path class="cls-19" d="M26.64,85.64c.37.22,1.34.06,1.39.93-.46.03-.93-.02-1.39,0v-.93Z"/>
  <path class="cls-18" d="M79.14,36.34c-.04,1.24.02,2.49,0,3.72,1.39.01,2.79-.02,4.18,0,.31,0,.62.01.93,0,.27,1.36-.74.95-1.62.94-1.73-.02-3.17-.54-4.82-.42l-3.07,5.07c-1.77.88-3.25,1.88-5.25,2.19-.9.14-1.73.59-1.5-.81,5.45-1.18,10.05-4.49,9.29-10.7h1.86Z"/>
  <path class="cls-15" d="M48.94,40.06c2.04,4.56,5.09,7.35,10.22,8.37-.26,1.21.6.95,1.38,1.15,4.72,1.22,9.36,1.18,13.73-1.14,3.85-2.05,5.66-6.04,10.91-5.82-5.36,21.42-35.01,24.72-52.15,16.39-2.97-1.44-3.54-2-5.18-4.59-.51-.8,0-1.25-1.21-.41-1.1-1.96-2.83-5.56-1.17-7.43,6.56,2.78,14.42-.2,17.06-6.89,2.15-.26,4.33-.21,6.41.37ZM42.89,47.03c.06-.77.1-2-.7-2.32-2.51-.99-.09,3.2.7,2.32ZM47.54,44.71c-.64-.64-3.38,2.22-.47,2.32l.47-2.32ZM37.79,50.76c.78,2.25,4.95,4.61,7.19,4.69,1.95.07,8.53-2.68,8.59-4.46.07-1.98-5.11,1.68-5.57,1.86-5.12,2.06-5.73-1.66-10.22-2.09Z"/>
  <path class="cls-15" d="M52.65,98.66h-.46c-.02-.15,0-.31,0-.47,0-1.09-.06-1.77.46-2.79l15.8-6.51c-.73.98-1.59,3.12.24,3.28,2.95.26,4.76-4.28.69-3.74,5.3-3.86,11.06-6.35,13.47-13.02.29-.26.49-.58.93-.93,12.05,8.44,1.47,19.58-8.37,23.48-7.51,2.97-15.04,2.65-22.76.71ZM77.61,84.32c-.85.17-1.63.92-2.19,1.56.53,2.26,3.18.85,4.18-.48-.08-1.19-1-1.28-1.99-1.08ZM76.21,88.49c-1.41.36-3.39,3.54-1.42,4.52,4.46,1.5,5.16-5.48,1.42-4.52Z"/>
  <path class="cls-15" d="M83.32,33.08l-4.8-.07c-4.77-8.08-19.51-9.25-26.33-3.42-.97.83-2.95,3.68-3.57,3.87-.78.24-5.08.25-5.95.09-1.33-.25-1.79-2.52-2.78-3.73-3.12-3.82-7.84-3.76-12.32-3.94,1.33-2.26,5.35-3.51,7.89-4.19,16.16-4.32,35.69-.23,47.86,11.39Z"/>
  <path class="cls-15" d="M19.67,70.75c1.84-.74,6.57-1.06,7.43.93.12.27-.11,1.09.24,1.83,1.14,2.39,5.83,2.05,3.94-1.37,1.8.36,3.05.98,4.65,1.4l-.93,2.1c-.06,2.3,5.18,2.38,4.65-.7,4.1,1.01,9.29.38,13.47,0-.07,3.88-.5,5.89-4.03,7.82-6.44,3.52-16.24,1.99-22.41-1.58-2.48-1.43-4.12-3.47-6.54-4.85-.9-2.04-1.22-3.45-.46-5.58ZM33.6,78.66v-.69c-.49-.73-1-.81-1.85-.7v1.39s1.85,0,1.85,0Z"/>
  <path class="cls-2" d="M77.28,36.34c.76,6.21-3.84,9.52-9.29,10.7-.52.11-1.27-.07-1.86,0l-.46.47c-5.24.26-11.46-2.23-14.4-6.51-1.15-1.67.12-1.99-3.25-2.79-10.24-2.43-7.03,4.48-13.48,6.74-5.03,1.76-11.54.26-13.36-5.22-3.68-11.06,11.44-16.48,18.22-7.54.73.96,1.04,3.14,2.35,3.24.71.05,1.55-.45,2.33-.48,1.98-.06,3.97.14,5.95-.09,1.38-.89,1.74-2.4,2.95-3.55,5.97-5.73,23.11-4.81,24.31,5.04ZM28.86,29c-7.95.78-9.63,11.66-2.22,14.54,6.86,2.67,13.38-1.83,11.39-9.54-.83-3.22-6.15-5.3-9.17-5ZM60.44,29.48c-7.67,1.05-11.72,8.61-4.76,13.83,5.79,4.35,18.59,2.09,17.86-6.22-.54-6.25-7.76-8.34-13.1-7.61Z"/>
  <path class="cls-12" d="M52.65,98.66c7.71,1.95,15.25,2.27,22.76-.71,9.85-3.9,20.42-15.04,8.37-23.48.75-.59,1.35-1.94,2.78-1.18l7.45,9.8c-4.81,14.64-21.17,23.47-36.03,18.82-1.99-.62-4.26-1.29-5.34-3.26Z"/>
  <path class="cls-11" d="M80.53,71.68c0,.68.26,1.19.93,1.4-.52.45-.96,1.71-1.62,2.33-2.34,2.2-6.89,7.14-9.99,7.43s-6.71-.99-9.76-1.86c-1-3.16-2-6.38-1.85-9.77,3.47,2.42,5.84,4.98,10.45,5.15,3.34.12,9.54-2.27,11.85-4.68Z"/>
  <path class="cls-10" d="M93.08,96.33l-.93,5.58c3.42-.38,7.88.52,11.15,0l-.46.93c-5.81.69-11.33,3.04-17.19,3.72-1.61-1.49-4.14-2.16-6.04-3.26-.8-.97-.14-1.02.6-1.49,1.87-1.18,3.96-1.9,5.9-2.69,2.43-1,4.5-1.4,6.97-2.79Z"/>
  <path class="cls-12" d="M119.56,100.05c.39-.57.94-1.12,1.4-1.65l.6-.11c3.39,1.98,9.91.29,12.55,2.22.41.3.29.91.33.94-2.97.91-9.55.3-10.22,4.19-1.45.12-2.58.48-4.18.47.16-1.12-.61-1.9-.93-2.79v-1.86c.04-.16-.05-.34,0-.47l.46-.93Z"/>
  <path class="cls-15" d="M134.43,101.45c2.8,2.01,5.91,3.74,8.83,5.58-7.56.54-12.38-1.94-19.05-1.4.67-3.89,7.25-3.28,10.22-4.19Z"/>
  <path class="cls-10" d="M53.12,73.08c0,.62.01,1.24,0,1.86-4.18.38-9.38,1.01-13.47,0-.43-.11-2.32-1.03-3.72-1.4-1.59-.41-2.84-1.03-4.65-1.4-1.4-.28-2.71-.69-4.18-.47-.86-1.99-5.59-1.67-7.43-.93.3-.84.41-1.4,1.35-1.66,5.17-1.43,14.44,3.15,20.31,3.93,3.51.46,8.29.54,11.79.06Z"/>
  <path class="cls-10" d="M69.38,88.43c-.56.07-.56-.03-.93.47l-15.8,6.51c1.82-3.59,9.64-5.59,13.01-7.21,7.34-3.52,11.31-7.59,17.19-12.79-2.41,6.67-8.17,9.16-13.47,13.02Z"/>
  <path class="cls-10" d="M100.05,88.43c-3.07,3.64-6.52,5.91-10.73,8.09-.46.24-1.5,1.28-1.81.28,3.36-3.62,7.16-7.4,7.9-12.56.22-.22,3.67,2.68,4.16,3.06.44.34.42,1.07.48,1.13Z"/>
  <path class="cls-10" d="M111.2,94.94c-.91.6-1.6,1.53-2.32,2.33-3.27-1.56-6.44-3.31-9.29-5.58.33-.4.86-2.2,1.39-2.79,2.12,1.52,7.8,4.88,10.22,6.05Z"/>
  <path class="cls-10" d="M117.7,100.98c-.17.84-1.23,2.3,0,3.26v1.4c-.59-.07-1.3.1-1.86,0,.29-3.56-1.48-7.47-5.58-6.98.8-.94,1.3-2.17,1.86-3.26,1.18.55,5.84,1.57,6.3,2.31-.2,1.11-.49,2.12-.73,3.27Z"/>
  <path class="cls-6" d="M100.97,88.89c-.53.59-1.06,2.39-1.39,2.79-.91,1.09-5.09,3.86-6.5,4.65-2.47,1.39-4.54,1.79-6.97,2.79-.02-1.3.74-1.62,1.39-2.33.31,1,1.35-.05,1.81-.28,4.21-2.18,7.66-4.45,10.73-8.09.09.07.56.2.93.47Z"/>
  <path class="cls-12" d="M149.29,99.59c-3.59,1.68-6.7,2.41-10.81,1.75-.36-.06-3.06-.92-1.73-1.52,1.56-.7,3.76-1.33,5.58-2.09,1.48,2.59,4.86.53,6.97,1.86Z"/>
  <path class="cls-6" d="M125.13,97.26c1.03-3.88,4.81-2.64,7.9-2.79v3.72c-2.03,0-5.82-.55-7.9-.93Z"/>
  <path class="cls-6" d="M112.13,95.4c-.56,1.09-1.05,2.32-1.86,3.26-.99,1.16-2.96,2.17-3.72,3.72-.15-.11-2.99.38-3.72.47l.46-.93c2.14-.34,4.2-3.12,5.58-4.65.72-.8,1.42-1.72,2.32-2.33.31.15.63.32.93.47Z"/>
  <path class="cls-11" d="M67.99,84.24c-1.61.97-3.17,2.64-5.3,2.83-.34-.06-1.86-3.96-2.14-4.69,2.41.92,4.86,1.59,7.43,1.86Z"/>
  <path class="cls-15" d="M142.33,97.73c.69-.29.92-.93,2.06-.95,2.28-.04,5.5,1.67,8.16.96-.65.83-2.23,1.38-3.25,1.86-2.11-1.33-5.49.73-6.97-1.86Z"/>
  <path class="cls-10" d="M80.53,71.68c.41-.43,1.58-2.82,2.19-3.6.3-.38-.01-.85,1.06-.59l1.35,3.67c-.15.25-3.31,1.61-3.66,1.91-.67-.2-.92-.72-.93-1.4Z"/>
  <path class="cls-2" d="M81.46,34.94c.31-.02.62,0,.93,0s.62.02.93,0l-1.78.99c-.59,1.03-.59,2.1,0,3.13l1.78.99c-1.39-.02-2.79.02-4.18,0,.03-1.24-.03-2.49,0-3.72.01-.47-.02-.93,0-1.4.77-.04,1.56.05,2.33,0Z"/>
  <path class="cls-6" d="M69.84,82.85c.38,1.39-1.17.98-1.86,1.4-2.57-.27-5.03-.94-7.43-1.86-.18-.48-.31-.91-.46-1.4,3.04.88,6.52,2.16,9.76,1.86Z"/>
  <path class="cls-18" d="M78.67,27.04c-.3.99-1.37-.02-1.82-.27-1.27-.71-3.51-1.49-3.76-2.98,2.08,1.08,3.65,2.15,5.58,3.26Z"/>
  <path class="cls-18" d="M48.01,38.2c3.37.8,2.1,1.12,3.25,2.79-.83-.22-1.48-.7-2.32-.93-.38-.86-.88-1.06-.93-1.86Z"/>
  <path class="cls-18" d="M85.64,57.27c-.26.88-1.02,1.55-1.39,2.33-1.33.28-1.13-.64-.41-1.58.79-1.04,1.41-.53,1.81-.74Z"/>
  <path class="cls-19" d="M117.7,104.24c-1.23-.95-.17-2.42,0-3.26v3.26Z"/>
  <path class="cls-18" d="M81.46,34.94v-.93s.69,0,.69,0l.24.93c-.31,0-.62-.02-.93,0Z"/>
  <path class="cls-19" d="M119.09,103.31c-.04-.11-.45-.26-.49-.73-.07-.71.45-.95.49-1.13v1.86Z"/>
  <path class="cls-18" d="M56.84,18.67l-.24.93h-.69s0-.93,0-.93c.3.03.63-.04.93,0Z"/>
  <path class="cls-19" d="M119.09,100.98c.17-.42.19-.52.46-.93l-.46.93Z"/>
  <path class="cls-2" d="M80.53,28.43l-.46-.47c.18.09.33.42.46.47Z"/>
  <path class="cls-7" d="M36.39,14.02c-2.04,1.65-4.12,4.09-5.11,6.51-.25.1-2,2.11-3.24,1.63,1.12-2.25,2.26-5.19,3.71-7.21,1.89-2.65,4.93-5.24,7.67-6.97-.7,2.12-2.26,3.95-3.03,6.04Z"/>
  <path class="cls-16" d="M147.44,109.35c1.51,2.26,5.75,7.62,2.19,9.4-6.24,3.11-20.82-1.86-25.44-6.82-.93-1-1.6-2.15-1.84-3.51,1.35-.08,3.03-.92,4.41-.92,7.01,0,11.82,3.73,20.68,1.85Z"/>
  <path class="cls-16" d="M100.05,112.15c5.84,1.1,11.86.06,17.66.23,1.83,1.84,6.79,9.57,3.24,11.15-5.36,2.38-19.54-5.1-20.89-11.38Z"/>
  <path class="cls-9" d="M119.56,108.42c.28,1.35-.67.84-1.47,1.06-5.98,1.61-13.49,1.73-19.61.75-1.96-.32-4.45-1.57-5.86-1.8.88-1.04,3.45-1.71,4.75-1.99,10.02-2.22,13.43,1.96,22.2,1.99Z"/>
  <path class="cls-11" d="M115.84,105.63c-2.08-.37-7.1-1.6-8.95-2.34-.53-.21-.3-.88-.34-.91.76-1.55,2.72-2.56,3.72-3.72,4.09-.5,5.87,3.42,5.58,6.98Z"/>
  <path class="cls-19" d="M37.79,50.76c4.49.43,5.1,4.15,10.22,2.09.46-.18,5.64-3.84,5.57-1.86-.06,1.78-6.64,4.53-8.59,4.46-2.24-.08-6.42-2.44-7.19-4.69Z"/>
  <path class="cls-19" d="M42.89,47.03c-.79.88-3.21-3.31-.7-2.32.8.32.76,1.55.7,2.32Z"/>
  <path class="cls-19" d="M47.54,44.71l-.47,2.32c-2.91-.11-.17-2.96.47-2.32Z"/>
  <path class="cls-12" d="M76.21,88.49c3.73-.96,3.03,6.03-1.42,4.52-1.96-.98.02-4.16,1.42-4.52Z"/>
  <path class="cls-12" d="M69.38,88.43c4.07-.53,2.26,4-.69,3.74-1.82-.16-.97-2.3-.24-3.28.37-.49.37-.39.93-.47Z"/>
  <path class="cls-12" d="M77.61,84.32c.99-.2,1.91-.11,1.99,1.08-.99,1.33-3.65,2.74-4.18.48.56-.63,1.34-1.38,2.19-1.56Z"/>
  <path class="cls-12" d="M39.64,74.94c.53,3.09-4.71,3-4.65.7l.93-2.1c1.4.36,3.29,1.29,3.72,1.4Z"/>
  <path class="cls-12" d="M31.28,72.15c1.9,3.42-2.8,3.76-3.94,1.37-.35-.75-.13-1.56-.24-1.83,1.47-.22,2.78.18,4.18.47Z"/>
  <path class="cls-12" d="M33.6,78.66h-1.85s0-1.39,0-1.39c.86-.11,1.36-.03,1.85.7v.69Z"/>
  <path class="cls-18" d="M60.44,29.48c5.34-.73,12.56,1.36,13.1,7.61.72,8.31-12.08,10.57-17.86,6.22-6.96-5.22-2.9-12.78,4.76-13.83ZM60.09,31.22c-3.72.83-6.41,2.2-6.04,6.51.11,1.27.33,1.36.93,2.33,4.1,6.56,19.27,4.58,16.97-4.2-.95-3.63-6.26-5.07-9.54-5.1-.8,0-1.56.29-2.32.47Z"/>
  <path class="cls-18" d="M28.86,29c3.02-.3,8.34,1.79,9.17,5,1.99,7.71-4.53,12.21-11.39,9.54-7.41-2.88-5.73-13.76,2.22-14.54ZM24.78,40.06c5.09,6.48,14.89.32,11.56-6.22-.96-1.87-3.5-2.93-5.52-3.08-4.07-.31-7.49,1.95-7.47,6.28,0,2.04.53,1.87,1.43,3.02Z"/>
  <path class="cls-18" d="M65.66,47.5l.46-.47s-.14.45-.46.47Z"/>
  <path class="cls-11" d="M108.87,97.26c-1.38,1.53-3.44,4.31-5.58,4.65-3.27.52-7.73-.38-11.15,0l.93-5.58c1.42-.79,5.59-3.56,6.5-4.65,2.85,2.27,6.02,4.02,9.29,5.58Z"/>
  <path class="cls-3" d="M54.98,40.06c2.21-.47,4.29-3.88,5.59-5.8.7-1.03,1.47-2.31,1.85-3.5,3.28.03,8.59,1.47,9.54,5.1,2.3,8.79-12.87,10.76-16.97,4.2ZM65.05,35.55c-.32-.44-1.79-1.14-2.39-1.1-3.38.82-3.21,7.86.41,7.45,2.85-.32,3.31-4.5,1.97-6.36Z"/>
  <path class="cls-4" d="M62.41,30.76c-.37,1.19-1.15,2.47-1.85,3.5-1.3,1.92-3.37,5.33-5.59,5.8-.6-.96-.82-1.05-.93-2.33l6.04-6.51c.77-.17,1.52-.47,2.32-.47Z"/>
  <path class="cls-3" d="M60.09,31.22l-6.04,6.51c-.37-4.31,2.32-5.68,6.04-6.51Z"/>
  <path class="cls-3" d="M24.78,40.06l6.04-9.3c2.02.15,4.56,1.21,5.52,3.08,3.34,6.54-6.47,12.7-11.56,6.22ZM33.95,34.14c-2.79-2.63-6.27,5.18-1.87,6.79,3.59.39,3.65-5.11,1.87-6.79Z"/>
  <path class="cls-4" d="M30.82,30.76l-6.04,9.3c-.9-1.15-1.43-.98-1.43-3.02-.02-4.33,3.4-6.59,7.47-6.28Z"/>
  <path class="cls-5" d="M65.05,35.55c1.34,1.86.87,6.04-1.97,6.36-3.62.4-3.79-6.63-.41-7.45.6-.05,2.07.65,2.39,1.1Z"/>
  <path class="cls-5" d="M33.95,34.14c1.78,1.67,1.72,7.17-1.87,6.79-4.4-1.6-.92-9.42,1.87-6.79Z"/>
</svg>