<?xml version="1.0" encoding="UTF-8"?>
<svg id="_레이어_1" data-name="레이어 1" xmlns="http://www.w3.org/2000/svg" viewBox="0 0 169.54 201.76">
  <defs>
    <style>
      .cls-1 {
        fill: #d0b295;
      }

      .cls-2 {
        fill: #142d42;
      }

      .cls-3 {
        fill: #c9cdd1;
      }

      .cls-4 {
        fill: #e4a299;
      }

      .cls-5 {
        fill: #fefefd;
      }

      .cls-6 {
        fill: #232028;
      }

      .cls-7 {
        fill: #efefed;
      }

      .cls-8 {
        fill: #762946;
      }

      .cls-9 {
        fill: #3f6e98;
      }

      .cls-10 {
        fill: #926f51;
      }

      .cls-11 {
        fill: #2a272b;
      }

      .cls-12 {
        fill: #a88d6e;
      }

      .cls-13 {
        fill: #70787b;
      }

      .cls-14 {
        fill: #fafaf9;
      }

      .cls-15 {
        fill: #5d203c;
      }

      .cls-16 {
        fill: #c1c9ce;
      }

      .cls-17 {
        fill: #3f678b;
      }

      .cls-18 {
        fill: #e5e4e2;
      }
    </style>
  </defs>
  <path class="cls-11" d="M17.26,188.7l-3.72-.24-11.12,12.58-2.35.67c-.66-2.6,3.82-4.9,4.17-6.75.06-9.94.57-19.83.5-29.78-.02-2.63-1.55-6.86,1.67-8.52,4.29-2.21,6.51,1.8,6.91,1.8h69.46s-.93-11.62-.93-11.62c-4.34,2.21-10.2,3.73-15.09,3.75-1.92,0-3.76-.75-5.6-.53-1.45.18-2.11,1.34-3.27,1.42-2.22.15-3.18-2.49-4.21-2.68-.49-.09-1.19.39-1.76.31-6.07-.9-11.19-6.71-9.11-12.97-9.18,2.52-19.67-3.86-23.32-12.24-8.56-19.7,16.29-32.35,31.24-17.3,6.51,6.55,7.56,15.6,2.76,23.49,3.21-1.15,5.44,1.94,7.69,2.31,6.17,1,14.48-3.99,18.79-8.11-10.9-3.33-21.45-9.03-25.78-20.23-3.14-8.12-2.91-21.16.14-29.15,2.45-6.41,7.78-9.9,12.11-14.89.26-1.02-3.07-6.73-3.67-8.26-4.71-11.93-7.31-29.29-.99-41.02,3.68-6.84,12.77-12.65,19.43-6.03,8.9,8.84,3.12,34.73,3.65,46.35,5.58-1.26,11.21-2.23,16.95-1.86.51-14.41,4.59-33.98,15.8-43.95,12.39-11.03,25.52-3.69,22.65,12.91-2.2,12.75-12.35,24.99-19.4,35.46,2.5,1.25,5.09,2.63,7.4,4.22,9.55,6.58,12.69,12,15.15,23.44,2.51,11.67-.56,21.91-9.08,30.24-1.12,1.1-2.97,1.73-3.72,3.25,2.26-.25,4.34.16,6.5.47,9.19,1.31,21.7,7.42,25.96,16.11,3.49,7.12-.32,13.83-8.5,12.69-5.13-.71-9.34-8.32-15.14-8.79l5.09,12.82c.57.34,5.15-2.63,8.17,1.1.55.68.68,1.54,1.14,2.12,1.63,2.03,3.78,2.94,3.25,6.28,5.85-3.61,7.98-.51,8.38,5.33.71,10.4-1.05,21.19-.48,31.63.38,2,7.06,5.61,3.47,7.24-1.46,0-10.65-11.56-12.3-13.28-1.36-.46-2.8-.18-4.19-.23-.46-.02-.93,0-1.39,0,.37-.74-.43-1.56-.46-1.86s.04-.63,0-.93c-.12-1.03.09-2.2,0-3.26-.93-.01-1.86.02-2.79,0-.15,0-.31,0-.46,0l-.46-1.4c.5.03,3.25.4,2.78-.69-.11-.26-2.26-2.77-2.61-2.98-1.54-.92-1.79-.05-2.5-.05-.31,0-.62,0-.93,0-1.85.02-3.72-.01-5.58,0-.1-.6-1.07-2.19-1.39-2.33v-3.72s-5.31,0-5.31,0l-.27,3.73c1.38.07,2.8-.1,4.18,0v.92c-1.53-.16-2.74.2-3.72,1.4-.15,0-.31,0-.46,0-.46,0-.93,0-1.39,0-.15,0-.31,0-.46,0l-.23-.46-.23.46h-4.65c-.46,0-.93,0-1.39,0-.15,0-.31,0-.46,0l-.23-.46-.23.46c-.77,0-1.55,0-2.32,0l-.06-1.35-1.27-.09-.07-.88c1.53-.13,3.12.09,4.65,0l-.24-3.73-5.33.94v2.79c-.1,0-.61.44-1.4.46v-2.79c-1.22-.08-2.5.12-3.72,0v-2.79c1.08-.04,2.18.03,3.26,0l-.27-3.73h-4.85s0,3.73,0,3.73c-.46,0-.93-.01-1.39,0l-.2-3.29c-.61-.9-4.2-.24-5.37-.44v3.72c-.22.05-1.62,1.23-2.12,1.39l.27,1.86c-1.7.03-3.41-.02-5.11,0v1.86c-.75.15-2.48,1.34-2.32,2.32-1.12-.04-3.96.25-4.65,0-.17-.06-1.32-2.31-1.39,0-.46.02-.93-.03-1.39,0-.92.06-1.87-.08-2.79,0-.05-.61-.37-1.25-.46-1.86.91.02,3.03.25,3.52-.43l-.06-3.76h-4.38s0,4.19,0,4.19c-.75-.04-1.32-.46-1.39-.47l-.27-3.73h-5.31s0,3.73,0,3.73c-.96.32-1.25,1.73-1.39,1.86-.1.09-1.13-.1-1.39.46-1.08-.03-2.17.02-3.25,0l-.23-.46-.23.46c-.15,0-.31,0-.46,0-.31,0-.62,0-.93,0-.93.01-1.86-.03-2.79,0,.01-1.84-2.75-1.67-4.18-1.86v-4.19s-5.77,0-5.77,0l-.27,3.73c1.44-.18,2.79.3,4.18.46l-.93,1.86c-.93-.03-1.86.01-2.79,0-.44,0-.94,0-1.39,0-.15,0-.31,0-.46,0l-.23-.46-.23.46c-1.54-.02-3.1.02-4.65,0-.12-.81-.54-1.66-1.39-1.86l-.27-4.19h-5.78s0,4.19,0,4.19c-.43-.03-.83-.46-.93-.47v-3.72s-5.31,0-5.31,0l-.27,3.73c.46.02.93-.02,1.39,0v1.86c-.4,0-.83,0-.93.46-.15,0-.31,0-.46,0-.46,0-.93,0-1.39,0-.15,0-.31,0-.46,0l-.23-.46-.23.46c-1.21.04-2.55-.12-3.72,0l-.23-.46-.23.46c-.57.05-.42.53-.46.93h-1.39s-.29-.95-.29-.95c-1.97-.47-3.22,2.32-4.35,3.51.89.41,2.25.26,3.25.23l-.46,1.4c-.15,0-.31,0-.46,0-1.08-.02-2.17,0-3.25,0-.04,1.23.05,2.49,0,3.72,0,.15.01.31,0,.47-.04.41.19.93-.1,1.3-.14.18-1.02.22-1.29.56l-.93.46ZM137.62,10.6c-.81-9.35-9.97-9.9-16.48-5.11-8.34,6.14-13.61,20.16-15.44,30.12-.94,5.11-.96,10.34-1.73,15.47-.58.86-6.81.31-8.39.44-4.62.39-9.09,1.81-13.71,2.32-1.24-1.58.41-1.1.5-2.06.18-1.91-.19-4.1-.03-6.07.82-10.4,3.14-21.15.46-31.4,0-.31,0-.62,0-.93,0-.4-.42-.75-.46-.93-.37-1.69-1.47-4.4-2.76-5.84-2.99-3.33-7.64-2.65-10.95-.21-7.15,5.28-8.88,18.46-8.13,26.73.33,3.67,4.04,19.16,6.5,21.17-.32,1.16.64,1.72.93,2.33.15.31.37.69.46.93.33.82,1.11,2.67.96,3.41l-3.75,3.57c2.99-.47,5.9-1.66,8.83-2.32,14.54-3.26,31.62-4.29,46.46-2.78.09,0,.36.38.75.42,1.91.2,3.84.44,5.76.5l-3.11-2.22c-1.85-1.29-3.96-1.95-5.99-2.85-.43-.19-.81.27-.64-.73,7.35-12.08,19.54-25,20.44-39.77.06-1,.08-2.26,0-3.26-.03-.39-.01-.81-.46-.93ZM119.49,61.75c-17-1.71-35.8-.17-52.23,4.68-6.76,2-8.96,4.18-10.95,11.12,23.5-8.24,49.25-10.58,73.87-6.97,2.66.39,5.28.8,7.9,1.39-2.79-6.97-5.29-8.6-12.54-9.3-.3-.03-.62.02-.93,0-.12-.47-.54-.41-.93-.47-1.09-.14-2.17-.34-3.25-.47-.3-.04-.63.03-.93,0ZM71.63,118.48c8.01,3.94,15.76,4.76,24.62,5.12l-.2,1.42-3.97.44c-.56.54,1.43,3.15,1.86,3.72,1.02,1.37,1.14,1.91,3.07,2.74,5.75,2.48,11.13-.24,13.66-5.53.99-2.08,1.73-3.04.96-5.54,16.9-4.95,31.98-16.06,30.17-35.61-.16-1.73-2.06-9.37-3.02-10.46-1.2-1.35-4.18-1.08-5.79-1.41-25.03-5.1-52.75-1.76-76.67,6.72-5.3,15.98.27,30.97,15.33,38.38ZM32.49,102.32c-12.48,1.83-15.33,16.2-7.78,25.21,2,2.39,6.91,6.68,10.08,5.47,2.47-2.39,18.1-10.34,18.94-12.2.72-1.6.03-3.94-.48-5.55-2.61-8.32-12.13-14.19-20.76-12.93ZM127.84,129.19c1.75,3.77,3.66,6.55,8.36,6.04v-1.39s-3.91-.43-3.91-.43l-.28-1.43c4.94-.42,9.45.75,13.63,3.34,2.34,1.45,6.32,5.86,8.55,6.32,2.48.52,6.49-.09,7.56-2.68,2.9-6.99-8.98-15.81-14.41-18.37-2.2-1.03-9.21-3.5-11.38-3.5h-8.6c-2.47,4.39-1.51,7.85.46,12.09ZM122.73,119.42c-2.15.77-4.22,1.14-6.5,2.32-2.43,1.27-1.81,2.84-3,5.13-5.36,10.35-20.44,11.12-23.48-.49-.07-.25.06-.63,0-.93-.46-.04-.93.03-1.39,0-1.2-.09-2.27-.31-2.79.93-.07-.93.43-1.64-.92-1.39-.54,5.54-1.63,11.7-.47,17.21-.19,4,.52,7.49.92,11.4.15,1.46-.48,3.34.47,4.41l.46.47,22.55-.02c8.46.3,17.24.12,25.77.02,3.57-.04,7.16-.16,10.68.46.73-.7-5.27-17.26-6.14-19.2-.37-.82-1.23-1.15-1.29-1.26-.12-.24.1-1.01,0-1.4-1.56.22-2.65.64-4.3.36-.64-.11-4.08-1.84-4.52-2.22-3.62-3.04-6.18-12.17-4.65-16.74-.95-.37-1.18.85-1.39.93ZM36.78,134.29h8.6c.39,0,3.91-.68,4.19-.92,1.62-2.93,2.49-6.15,3.72-9.3l-16.5,10.22ZM81.38,139.41l.7-13.48c-5.69,4.71-14.58,10.22-22.32,8.83-.97-.17-1.27-1.7-2.99-2.1-1.9-.45-3.58-.43-4.91,1.16-1.1,4.25,4.11,2.65,5.82,3.48.41.2,5.15,6.42,5.57,7.21.68,1.31,1.29,1.94.93,3.72,5.99-.03,12.14-.77,17.44-3.71l-.24-5.12ZM53.5,140.8c-.83-2.2-1.47-1.59-3.03-2.78-1.17-.89-1.4-3.1-4.4-1.64-1.8.88-.88,5.49-.01,6.89.27.43.91.28.94.32.14.16.08.93.67,1.41,4.1,3.37,7.74.84,5.84-4.2ZM61.86,146.85l-6.03-7.9c.06,1.36.95,2.58.93,3.96-.03,2.13-2.48,4.79,1.07,6.21l4.03-2.27ZM151.12,153.33c-.61-.74,1.21-4.69-3.98-3.66-3.17.63-.42,6.46.2,8.61l6.93.16c2.14-4.36-2.58-4.42-3.15-5.11ZM7.04,159.17v32.79s3.47-3.73,3.47-3.73c-.29-8.73,1.25-19.53.2-28.09-.29-2.38-2.04-2.19-3.67-.97ZM162.68,191.98v-32.32c0-.16-.5-1.11-.78-1.18-2.87-.69-2.82.69-2.95,3.02-.49,8.34.38,17.18.04,25.57l3.69,4.91ZM156.65,160.82l-143.57-.02v2.79s143.57.02,143.57.02v-2.79ZM18.19,165.91h-5.12s0,3.72,0,3.72h5.12s0-3.72,0-3.72ZM25.16,165.91h-5.58s0,3.72,0,3.72h5.58s0-3.72,0-3.72ZM32.13,165.91h-5.58s0,3.72,0,3.72h5.58s0-3.72,0-3.72ZM39.1,165.91h-5.58s0,3.72,0,3.72h5.58s0-3.72,0-3.72ZM46.07,165.91h-6.04s0,3.72,0,3.72h6.04s0-3.72,0-3.72ZM53.04,165.92h-5.58s0,3.72,0,3.72h5.58s0-3.72,0-3.72ZM60.01,165.92h-5.58s0,3.72,0,3.72h5.58s0-3.72,0-3.72ZM66.98,165.92h-5.58s0,3.72,0,3.72h5.58s0-3.72,0-3.72ZM73.48,165.92h-5.58s0,3.72,0,3.72h5.58s0-3.72,0-3.72ZM80.45,165.92h-5.58s0,3.72,0,3.72h5.58s0-3.72,0-3.72ZM84.11,165.97l-2.28-.05v3.72s2.79,0,2.79,0l-.52-3.67ZM94.39,165.92h-5.58s0,3.72,0,3.72h5.58s0-3.72,0-3.72ZM101.36,165.92l-5.14.2c-.78.54-.35,2.58-.44,3.52h5.58s0-3.72,0-3.72ZM122.27,165.93h-5.58s0,3.72,0,3.72l5.53-.52.05-3.21ZM128.77,165.93h-5.11s0,2.79,0,2.79c1.73-.43,5.49-.33,5.11-2.79ZM143.17,165.93c-3.1-.04-6.38-.38-5.58,3.72h5.58s0-3.72,0-3.72ZM145.49,165.93c-1.78-.37-.62,2.7-.92,3.72,1.78.37.62-2.7.92-3.72ZM150.14,169.65v-3.72s-2.3.49-2.3.49l-.03,3.24h2.33ZM156.65,165.93h-5.12s0,3.72,0,3.72h5.12s0-3.72,0-3.72ZM136.2,169.65v-2.33s-5.57,1.87-5.57,1.87c-.11.81,1.06.44,1.62.46,1.32.05,2.65-.03,3.96,0ZM18.19,171.03h-5.12s0,4.19,0,4.19h5.12s0-4.19,0-4.19ZM25.16,171.03h-5.58s0,4.19,0,4.19h5.58s0-4.19,0-4.19ZM32.13,171.03h-5.58s0,4.19,0,4.19h5.58s0-4.19,0-4.19ZM53.04,171.03h-5.58s0,3.72,0,3.72h5.58s0-3.72,0-3.72ZM66.97,171.03h-5.58s0,3.72,0,3.72h5.58s0-3.72,0-3.72ZM73.48,171.03h-5.58s0,3.72,0,3.72h5.58s0-3.72,0-3.72ZM129.23,171.04h-5.58s0,3.72,0,3.72h5.58s0-3.72,0-3.72ZM143.17,171.04h-5.58s0,3.72,0,3.72h5.58s0-3.72,0-3.72ZM145.96,171.04h-1.39s0,4.19,0,4.19h1.39s0-4.19,0-4.19ZM150.14,171.05h-1.85s0,4.19,0,4.19h1.85s0-4.19,0-4.19ZM156.65,171.05h-5.12s0,4.19,0,4.19h5.12s0-4.19,0-4.19ZM88.81,173.83c.01.31-.02.62,0,.93h5.3c.49.06.26-.59.28-.93.02-.37.13-1.14-.05-1.33l-5.28-1c-.41-.02-.26,1.83-.24,2.33ZM18.19,176.61h-5.12s0,4.19,0,4.19l4.46-.42.65-3.77ZM20.97,176.61h-1.39s0,.92,0,.92h.69s.7-.92.7-.92ZM156.65,176.63h-5.12c-.59,4.44,1.34,4.45,5.11,4.19v-4.19ZM15.86,182.19h-2.79s0,2.79,0,2.79l2.78-2.79ZM156.64,182.21h-2.79s2.56,2.79,2.56,2.79l.23-2.79ZM154.32,186.39c.57-.5-2.63-3.43-3.24-3.72v3.72s3.24,0,3.24,0ZM18.18,183.59c-.62-.71-2.59,2.28-2.79,2.78h2.79s0-2.78,0-2.78Z"/>
  <path class="cls-9" d="M150.6,188.25c.46,0,.93-.02,1.39,0l10.22,13.02h-75.27s-.46-13.03-.46-13.03c21.34,0,42.79-.42,64.12,0Z"/>
  <path class="cls-9" d="M82.77,188.24v13.02s-75.27-.01-75.27-.01l9.76-12.56.93-.46c21.52-.01,43.06.03,64.58,0Z"/>
  <path class="cls-6" d="M39.09,174.75c.1,0,.5.44.93.47,1.75.12,4.57-.34,6.04,0,.86.2,1.27,1.05,1.39,1.86.11.75-.31,3.64.27,3.73h5.31s0-3.73,0-3.73c.45,0,.95,0,1.39,0v3.72s4.84.03,4.84.03l.74-3.75c-.93-.03-1.86.03-2.79,0l.93-1.86c.6.07,1.26-.08,1.86,0,1.43.19,4.19.02,4.18,1.86-1.08.04-2.17-.03-3.25,0l.2,3.29,5.84.44v-3.72c.31,0,.62,0,.93,0v3.72s5.58,0,5.58,0c.02-.46-.02-.93,0-1.4h1.39c.01.47-.02.93,0,1.4h5.58s0-3.45,0-3.45c-.05-.35-5.06-.43-5.58-.27-.25.08-.44.63-.48.92l-.92-1.39c.14-.13.44-1.54,1.39-1.86.22-.07.63.04.93,0v.93s1.16,0,1.16,0l.23-.93c1.07-.02,2.18-.05,3.25,0,.07,0,.64.42,1.39.47.31.02.62,0,.93,0,.09.61.41,1.25.46,1.86-.43.04-1.33-.26-1.4.27v3.45c.47.02.94-.02,1.4,0,.92.03,1.87.03,2.79,0,.46-.01.93.02,1.39,0v-3.72c.08-2.31,1.22-.06,1.39,0v3.72c1.23-.02,2.48.02,3.72,0v1.4c-1.23-.06-2.49.04-3.72,0v4.19c1.82-.38,4.97.96,6.04-.93.67,1.04,5.2,1.03,6.51.93v-4.19s-5.58,0-5.58,0l-.94-.23v-.93c.1-.33.92-.19.94-.23l5.58-.27v-3.46s-5.58,0-5.58,0c-.55.54-1.07,0-1.39,0s-.62.01-.93,0c-.16-.99,1.57-2.18,2.32-2.32,1.56-.31,3.89.22,5.58,0,.07.65.34,1.34.47,1.98.2.43.57.3.92.34v3.72s5.58,0,5.58,0v-3.26s1.39,0,1.39,0v3.26c1.77-.26,3.69.24,5.37.24.4,0,.92-.71,1.14-.71.06,0,.49.49,1.13.48,1.64-.02,3.28-.01,4.92-.01v-3.72c.46,0,.93,0,1.39,0v3.72c1.85.06,3.73-.09,5.57,0,.18,0,1.85-.51,1.85.7s-1.67.69-1.85.7c-.88.04-5.51-.25-5.58.27v3.92s5.29-.07,5.29-.07l.57-.9c-.18-.44-.23-.89-.27-1.36h1.39c-.03.46,0,.93,0,1.4,0,.05-.35.15-.34.26l.34.2,5.58.47v-4.19c-1.08.04-2.18-.05-3.25,0v-1.4c1.08.05,2.18-.03,3.26,0v-3.73c-1.7-.02-3.41.04-5.11,0,.98-1.2,2.19-1.56,3.72-1.4v-.92c.41.03,1.16-.1,1.39,0,.33.14,1.3,1.72,1.39,2.33.12.75-.31,3.64.27,3.73h5.31s0-3.73,0-3.73c.31,0,.62,0,.93,0l.49,3.7c.6.12,1.22-.02,1.83.03l.46,1.4c-.77.04-1.56-.04-2.33,0v4.19s5.58,0,5.58,0c.04.3.83,1.12.46,1.86-21.33-.43-42.78,0-64.12,0-1.24,0-2.48,0-3.72,0-21.52.02-43.06-.02-64.58,0,.27-.34,1.16-.38,1.29-.56.29-.37.07-.89.1-1.3h5.58s0-4.19,0-4.19c-.62-.02-1.24.02-1.86,0l.46-1.4c.46-.01.93.02,1.39,0v-2.79s1.39,0,1.39,0c-.1.88.07,1.89,0,2.79h5.58s0-3.72,0-3.72c.46,0,.93,0,1.39,0v3.72c1.77-.17,3.86.22,5.57,0,.26-.03.63-.37.93-.46.02.15-.01.31,0,.47.02.29.45.84.46,1.4.03.84-.46,1.32-.46,1.4h-.46c-.24-.41-.49-1.35-.76-1.42l-5.28.02v4.19c2.51-.29,5.04,1.01,6.51-1.4.07.33.44,1.33.78,1.41l5.26-.48h1.39s5.58.47,5.58.47v-3.92s-5.58.2-5.58.2h-1.39c-.68-.69-1.51-.42-2.32-.47v-1.4c.77-.04,1.55.03,2.33,0v-3.73c-1.63,0-3.28,0-4.91-.01-.6,0-1.07.48-1.13.48-.25,0-.71-.46-.93-.47-.15,0-.31,0-.46,0l-.23-.46-.23.46c-.77,0-1.55,0-2.32,0-.1-.47-.53-.47-.93-.47v-1.86c1.38.04,2.81-.09,4.18,0ZM109.72,186.39l5.37-.43.2-4.21-5.57.46c0,1.08,0,2.17,0,3.26l-.47.68.47.25ZM32.13,182.19h-5.58s0,4.19,0,4.19h5.58s0-4.19,0-4.19ZM60,182.19h-6.04s.2,3.75.2,3.75l5.4.23.44-3.98ZM66.97,186.38c-.12-1.01.38-3.41-.44-3.98l-5.14-.21v4.19s5.58,0,5.58,0ZM73.48,182.2h-5.58s0,4.19,0,4.19h5.58s0-4.19,0-4.19ZM80.45,182.2h-5.58s0,4.19,0,4.19h5.58s0-4.19,0-4.19ZM83.23,186.38c.85.13,1.9-.09,2.79,0l.42-.26c0-1.12.45-2.6-.42-3.46-.75-.74-1.77-.5-2.79-.47-.46.02-.93-.02-1.39,0l.22,3.75c.27.44.76.37,1.18.44ZM108.32,182.2h-5.58s0,4.19,0,4.19h6.04s-.46-4.19-.46-4.19ZM122.26,182.2h-5.58s0,4.19,0,4.19h5.58s0-4.19,0-4.19ZM143.17,182.21h-5.58s0,4.19,0,4.19h5.58s0-4.19,0-4.19Z"/>
  <path class="cls-11" d="M19,134.4c10.9-1.77,12.72,14.97-.12,13.38-7.66-.95-7.61-12.13.12-13.38ZM16.33,143.12c1.69,4.6,10.74,3.04,8.62-3.75-.25-.79-.66-.92-1.18-1.36-3.83-3.22-9.4-.24-7.43,5.11Z"/>
  <path class="cls-13" d="M12.62,133.82c-.77.7-5.82-3.37-6.81-4.1-.57-.42-1.29-.48-1.08-1.47,1.83-1.09,8.78,4.77,7.89,5.58Z"/>
  <path class="cls-18" d="M134.35,111.52c.32,1.7,2.64,2.19,2.79,3.72-2.17-.31-4.25-.72-6.5-.47.75-1.52,2.6-2.15,3.72-3.25Z"/>
  <path class="cls-1" d="M15.87,132.43c-.05.05-1.31.19-1.42-.29l-3.22-6.22c.8-.85,5.79,5.37,4.64,6.51Z"/>
  <path class="cls-12" d="M10.7,136.21c1.88,2.64-4.02-.05-4.58-.32-.66-.33-1.17.11-.93-1.13.94-.45,5.15.94,5.51,1.45Z"/>
  <path class="cls-5" d="M132.96,73.38c.56,4.25,2.77,8.95,2.82,13.26.32,27.96-35.86,37.79-58.14,33.03-1.87-.4-4.31-1.89-6.02-1.18-15.06-7.41-20.63-22.4-15.33-38.38,23.92-8.49,51.64-11.82,76.67-6.72ZM104.95,85.57c-3.57,1.07-2.73,8.78,1.41,9.6,5.36,1.06,5.25-11.6-1.41-9.6ZM71.95,89.28c-3.04.93-2.59,11,3.53,9.12,3.04-.93,2.59-11-3.53-9.12ZM124.45,98.82c4.78-6.04-12.89-6.83-13.38-.57,0,4.34,11.02,3.54,13.38.57ZM92.93,95.77c-.72-1.2-11.07-.85-7.58,3.17.86.99,5.58,1.88,2.04,4.41-3.03,2.17-5.83-2.2-6.94-1.13-.73,2.54,4.01,3.7,4.23,4,.92,1.26.89,3.77,2.96,5.29,4.61,3.41,9.44,1.21,10.73-4.15.29-1.19.01-2.42.3-3.42s3.5-3.15.61-4.05c-1.82,2.94-6.91,4.58-8.62.69,0-1.44,3.82-2.24,2.27-4.82ZM72.41,101.88c-2.53-3-13.09-2.51-12.41,2.4.53,3.82,12.06,3.56,13-.89-.05-.56-.22-1.07-.59-1.5Z"/>
  <path class="cls-14" d="M137.62,10.6c.03.39,0,.82.46.93.08.99.06,2.25,0,3.26-1.41-.27-.82.68-.99,1.54-2.78,13.63-14.16,25.35-21.12,37.06-.81,3.26,3.75,3.73,4.92,6.05-14.84-1.51-31.93-.47-46.46,2.78.35-1.94-3,.25-3.72-.46.14-2.25.36-3.92-2.32-4.19-.1-.24-.32-.62-.46-.93l.36-.27c.17-2.07-.87-1.72-1.28-2.05-2.46-2.01-6.17-17.49-6.5-21.17-.75-8.27.98-21.45,8.13-26.73,3.3-2.44,7.96-3.13,10.95.21,1.29,1.44,2.39,4.15,2.76,5.84l-.46.24v.69s.92,0,.92,0c0,.31,0,.62,0,.93,0,.06-.48.11-.48,1.13.91,12.79-1.95,25.15-3.72,37.71.42,2.13,2.2.81,3.27.69,4.62-.51,9.09-1.93,13.71-2.32,1.58-.13,7.81.42,8.39-.44.77-5.13.79-10.36,1.73-15.47,1.84-9.96,7.11-23.97,15.44-30.12,6.51-4.8,15.67-4.25,16.48,5.11ZM123.09,16.29c-7.74,1.25-13.03,19.53-14.21,26.24-.25,1.42-1.2,8.32-.79,9,1.33.92,5.13,2.09,6.31.71,3.75-8.44,17.07-23.83,14.18-33.3-.72-2.36-3.3-3.01-5.49-2.66ZM72.62,57.97c.59.35,4.03-1.51,4.56-2.07,1.89-1.98.52-3.83.48-5.99-.14-7.5.83-16.91-.56-24.08-2.31-11.88-10.58-6.85-11.49,2.21-1.02,10.09,2.37,21.13,7.01,29.94Z"/>
  <path class="cls-8" d="M113.9,129.19c2.97-.46,2.03-4.57,3.25-5.82.38-.39,4.41-1.87,4.65-1.62-.18,1.96.01,3.32.47,5.11,1,3.96,2.76,6.3,5.57,8.84,1.06.96,1.06,1.57,2.79,2.33,2.76,6.77,5.46,12.89,3.71,20.46-8.53.09-17.31.28-25.77-.02l-22.55.02-.46-.47c-.94-1.08-.32-2.95-.47-4.41-.41-3.91-1.11-7.4-.92-11.4.23-4.95,1.76-10.88,1.4-15.81.52-1.24,1.59-1.02,2.79-.93-.04.35.44.77.46.93,2.02,13.1,18.7,13.52,25.09,2.79Z"/>
  <path class="cls-8" d="M32.49,102.32c8.63-1.27,18.16,4.61,20.76,12.93.51,1.61,1.2,3.95.48,5.55-.84,1.86-16.46,9.81-18.94,12.2-3.17,1.22-8.08-3.08-10.08-5.47-7.55-9.01-4.71-23.38,7.78-25.21Z"/>
  <path class="cls-8" d="M119.49,61.75l.69.46.24-.46c1.08.13,2.16.32,3.25.47.13.45.53.44.93.47.31.02.62-.03.93,0,1.24,2.77,4.54,4.51,4.65,7.91-24.62-3.61-50.37-1.27-73.87,6.97,1.99-6.94,4.19-9.13,10.95-11.12,16.43-4.85,35.23-6.39,52.23-4.68Z"/>
  <path class="cls-3" d="M132.96,73.38c1.61.33,4.59.06,5.79,1.41.97,1.08,2.86,8.73,3.02,10.46,1.81,19.55-13.27,30.66-30.17,35.61.77,2.5.04,3.46-.96,5.54l-16.73,2.79c-.43-.57-2.42-3.17-1.86-3.72l3.97-.44.2-1.42c-8.86-.36-16.61-1.18-24.62-5.12,1.71-.71,4.15.78,6.02,1.18,22.28,4.77,58.46-5.07,58.14-33.03-.05-4.31-2.26-9.01-2.82-13.26Z"/>
  <path class="cls-14" d="M161.76,138.96c-7.21,3.14-11.36-3.5-16.95-6.53-5.26-2.85-11.07-3.4-16.97-3.25-1.97-4.24-2.93-7.7-.46-12.09h8.6c2.17,0,9.17,2.46,11.38,3.5,5.43,2.55,17.31,11.37,14.41,18.37Z"/>
  <rect class="cls-14" x="13.08" y="160.81" width="143.57" height="2.79"/>
  <path class="cls-14" d="M81.38,139.41c-5.26,4.39-11.34,5.65-18.12,5.11-.42-.8-5.16-7.02-5.57-7.21-1.72-.83-6.93.77-5.82-3.48,1.33-1.59,3-1.61,4.91-1.16,1.72.41,2.02,1.93,2.99,2.1,7.74,1.39,16.63-4.12,22.32-8.83l-.7,13.48Z"/>
  <path class="cls-15" d="M137.6,138.49c.06.11.92.44,1.29,1.26.87,1.94,6.87,18.51,6.14,19.2-3.52-.62-7.11-.5-10.68-.46,1.74-7.57-.95-13.69-3.71-20.46,2.05.9,4.84,1.44,6.97.47Z"/>
  <path class="cls-13" d="M7.04,159.17c1.63-1.22,3.38-1.41,3.67.97,1.05,8.56-.49,19.36-.2,28.09l-3.48,3.73v-32.79Z"/>
  <path class="cls-13" d="M162.68,191.98l-3.69-4.91c.34-8.4-.53-17.23-.04-25.57.14-2.33.09-3.7,2.95-3.02.28.07.79,1.02.79,1.18v32.32Z"/>
  <path class="cls-16" d="M138.08,14.79c-.91,14.77-13.1,27.69-20.44,39.77-.18,1,.2.54.64.73,2.03.9,4.15,1.56,5.99,2.85l3.11,2.22c-1.92-.06-3.85-.3-5.76-.5-.39-.04-.66-.41-.75-.42-1.17-2.32-5.73-2.79-4.92-6.05,6.96-11.71,18.34-23.42,21.12-37.06.17-.86-.41-1.81.99-1.54Z"/>
  <path class="cls-16" d="M161.76,138.96c-1.07,2.59-5.08,3.2-7.56,2.68-2.23-.46-6.21-4.87-8.55-6.32-4.18-2.59-8.69-3.76-13.63-3.34l.28,1.43,3.91.43v1.39c-4.7.51-6.61-2.28-8.37-6.04,5.9-.16,11.71.4,16.97,3.25,5.59,3.02,9.74,9.67,16.95,6.53Z"/>
  <path class="cls-16" d="M82.79,14.31c2.68,10.25.36,21-.46,31.4-.16,1.98.22,4.17.03,6.07-.09.96-1.74.48-.5,2.06-1.06.12-2.84,1.44-3.27-.69,1.76-12.55,4.63-24.92,3.72-37.71,0-1.02.48-1.07.48-1.13Z"/>
  <path class="cls-16" d="M81.38,139.41l.24,5.12c-5.29,2.94-11.45,3.68-17.44,3.71.37-1.78-.24-2.42-.93-3.72,6.78.53,12.86-.72,18.12-5.11Z"/>
  <path class="cls-1" d="M36.78,134.29l16.5-10.22c-1.23,3.15-2.09,6.36-3.72,9.3-.27.24-3.8.92-4.19.92h-8.6Z"/>
  <path class="cls-18" d="M116.23,121.75c.25,2.6-1.02,5.26-2.32,7.44-6.39,10.73-23.07,10.31-25.09-2.79h.93c3.04,11.61,18.12,10.83,23.48.49,1.19-2.3.57-3.87,3-5.13Z"/>
  <path class="cls-14" d="M110.65,126.4c-2.53,5.29-7.91,8-13.66,5.53-1.93-.83-2.05-1.37-3.07-2.74l16.73-2.79Z"/>
  <path class="cls-14" d="M151.12,153.33c.57.69,5.28.75,3.15,5.11l-6.93-.16c-.62-2.15-3.37-7.98-.2-8.61,5.19-1.03,3.37,2.92,3.98,3.66Z"/>
  <path class="cls-15" d="M125.53,62.69c7.25.7,9.75,2.33,12.54,9.3-2.62-.59-5.24-1-7.9-1.39-.1-3.39-3.41-5.14-4.65-7.91Z"/>
  <path class="cls-14" d="M53.5,140.8c-1.74,2.27-3.4,4.16-6.51,2.79-.04-.04-.67.11-.94-.32-.87-1.41-1.79-6.02.01-6.89,3-1.46,3.23.75,4.4,1.64,1.57,1.19,2.2.58,3.03,2.78Z"/>
  <path class="cls-10" d="M61.86,146.85l-4.03,2.27c-3.55-1.42-1.1-4.08-1.07-6.21.02-1.38-.87-2.6-.93-3.96l6.03,7.9Z"/>
  <path class="cls-18" d="M122.73,119.42c.21-.08.44-1.29,1.39-.93-1.54,4.57,1.03,13.7,4.65,16.74l-.93.46c-2.82-2.53-4.57-4.88-5.57-8.84.1-2.48-.34-5.05.47-7.44Z"/>
  <path class="cls-6" d="M108.32,169.65c.46-.01.93,0,1.39,0,.62,0,1.24.02,1.86,0v2.79c-.45-.04-.95.06-1.39,0-1.87-.26-5.14-2.71-6.04.46-.46-.01-.93,0-1.39,0s-.93,0-1.39,0c-.15,0-.31,0-.46,0l-.27-1.86c.51-.17,1.9-1.34,2.13-1.39,1.27-.29,4.02.04,5.58,0Z"/>
  <path class="cls-18" d="M40.02,175.22v-4.19s5.77,0,5.77,0l.27,4.19c-1.47-.34-4.29.12-6.04,0Z"/>
  <path class="cls-18" d="M58.14,175.22c-1.39-.16-2.75-.65-4.18-.46l.27-3.73h5.77s0,4.19,0,4.19c-.6-.08-1.26.07-1.86,0Z"/>
  <rect class="cls-7" x="19.58" y="171.03" width="5.58" height="4.19"/>
  <rect class="cls-18" x="26.55" y="171.03" width="5.58" height="4.19"/>
  <rect class="cls-18" x="40.02" y="165.91" width="6.04" height="3.73"/>
  <path class="cls-17" d="M64.18,177.08c.93-.03,1.86.01,2.79,0v3.72s-5.84-.44-5.84-.44l-.2-3.29c1.08-.03,2.17.04,3.25,0Z"/>
  <path class="cls-17" d="M128.3,177.09c.15,0,.31,0,.46,0s.31,0,.46,0v.93s.93,0,.93,0c-.02.29-.03.65,0,.93h-.93s0,1.86,0,1.86c-1.85-.09-3.73.06-5.58,0v-3.72s4.65,0,4.65,0Z"/>
  <path class="cls-17" d="M119.01,177.09c.77,0,1.55,0,2.32,0,.15,0,.31,0,.46,0s.31,0,.46,0v3.72c-1.63,0-3.28,0-4.91.01-.63,0-1.07-.48-1.13-.48.05-.29-.07-.69,0-.93.22-.72.8-1.31.46-2.33.77,0,1.55,0,2.32,0Z"/>
  <rect class="cls-14" x="13.07" y="171.03" width="5.12" height="4.19"/>
  <rect class="cls-14" x="151.53" y="171.05" width="5.12" height="4.19"/>
  <path class="cls-9" d="M131.09,177.09c1.7.03,3.41-.02,5.11,0v3.73c-1.08-.04-2.18.05-3.26,0-.76-.04-1.54.1-2.29-.04.22-.69-.46-1.51-.5-1.82-.03-.28-.02-.64,0-.93,0-.12.51-.59.46-.93.15,0,.31,0,.46,0Z"/>
  <rect class="cls-7" x="19.58" y="165.91" width="5.58" height="3.73"/>
  <path class="cls-14" d="M156.65,176.63v4.19c-3.77.26-5.71.25-5.12-4.19h5.12Z"/>
  <rect class="cls-8" x="88.81" y="165.92" width="5.58" height="3.73"/>
  <rect class="cls-14" x="26.55" y="165.91" width="5.58" height="3.73"/>
  <path class="cls-17" d="M68.83,177.08c1.08.02,2.17-.03,3.25,0,.46.01.93-.02,1.39,0,0,.77.02,1.55,0,2.33-.02.47.02.93,0,1.4h-5.58s0-3.72,0-3.72c.15,0,.31,0,.46,0s.31,0,.46,0Z"/>
  <rect class="cls-14" x="33.52" y="165.91" width="5.58" height="3.73"/>
  <polygon class="cls-14" points="18.19 176.61 17.53 180.37 13.07 180.8 13.07 176.61 18.19 176.61"/>
  <rect class="cls-7" x="74.87" y="165.92" width="5.58" height="3.73"/>
  <path class="cls-17" d="M27.48,177.08c1.17-.12,2.51.04,3.72,0,.15,0,.31,0,.46,0s.31,0,.46,0v3.72s-5.58,0-5.58,0c.07-.91-.1-1.91,0-2.79.05-.4-.11-.88.46-.93.15-.01.31.02.46,0Z"/>
  <rect class="cls-7" x="67.9" y="165.92" width="5.58" height="3.73"/>
  <rect class="cls-7" x="137.59" y="171.04" width="5.58" height="3.73"/>
  <path class="cls-7" d="M134.81,174.77c-1.38-.09-2.8.07-4.18,0l.27-3.73h5.31s0,3.73,0,3.73c-.24-.1-.99.03-1.39,0Z"/>
  <path class="cls-17" d="M143.17,177.09v3.72s-5.31,0-5.31,0c-.58-.09-.15-2.98-.27-3.73,1.85-.01,3.72.02,5.58,0Z"/>
  <rect class="cls-18" x="123.65" y="171.04" width="5.58" height="3.73"/>
  <rect class="cls-14" x="61.4" y="165.92" width="5.58" height="3.73"/>
  <path class="cls-9" d="M35.84,177.08c.77,0,1.55,0,2.32,0,.15,0,.31,0,.46,0s.31,0,.46,0v3.72c-1.72.23-3.8-.16-5.58,0v-3.72c.16,0,.31,0,.47,0,.62,0,1.24,0,1.86,0Z"/>
  <rect class="cls-14" x="47.46" y="165.92" width="5.58" height="3.73"/>
  <path class="cls-14" d="M34.91,174.75c-.46-.01-.93.02-1.39,0l.27-3.73h5.31s0,3.73,0,3.73c-1.38-.09-2.8.04-4.18,0Z"/>
  <path class="cls-14" d="M74.87,174.76v-3.72s5.31,0,5.31,0l.27,3.73c-1.07-.05-2.18-.03-3.25,0-.45.01-.96-.06-1.39,0-.3.04-.71-.07-.93,0Z"/>
  <path class="cls-17" d="M93.45,177.09c.31.01.62,0,.93,0v3.72c-.62.01-1.24-.01-1.86,0-1.24.02-2.48-.02-3.72,0v-3.72c.69.25,3.53-.04,4.65,0Z"/>
  <rect class="cls-7" x="54.43" y="165.92" width="5.58" height="3.73"/>
  <rect class="cls-7" x="67.9" y="171.03" width="5.58" height="3.73"/>
  <rect class="cls-14" x="61.39" y="171.03" width="5.58" height="3.73"/>
  <rect class="cls-7" x="47.46" y="171.03" width="5.58" height="3.73"/>
  <path class="cls-17" d="M52.1,177.08c.15,0,.31,0,.46,0s.31,0,.46,0v3.72s-5.31,0-5.31,0c-.57-.09-.15-2.98-.27-3.73,1.55.02,3.1-.02,4.65,0Z"/>
  <path class="cls-8" d="M108.32,169.65c-1.55.04-4.31-.29-5.58,0v-3.72c1.18.19,4.76-.46,5.37.44l.2,3.29Z"/>
  <path class="cls-8" d="M101.36,165.92v3.73s-5.58,0-5.58,0c.09-.94-.34-2.98.44-3.52l5.14-.2Z"/>
  <polygon class="cls-8" points="122.27 165.93 122.21 169.13 116.68 169.65 116.69 165.92 122.27 165.93"/>
  <path class="cls-17" d="M57.21,177.08c.93.03,1.86-.03,2.79,0l-.74,3.75-4.84-.03v-3.72c.93.01,1.86-.03,2.79,0Z"/>
  <path class="cls-15" d="M122.73,119.42c-.8,2.39-.37,4.96-.47,7.44-.45-1.79-.64-3.15-.47-5.11-.24-.25-4.27,1.23-4.65,1.62-1.22,1.25-.28,5.36-3.25,5.82,1.3-2.19,2.58-4.84,2.32-7.44,2.28-1.19,4.36-1.55,6.5-2.32Z"/>
  <path class="cls-3" d="M143.17,165.93v3.72s-5.58,0-5.58,0c-.8-4.11,2.48-3.76,5.58-3.72Z"/>
  <path class="cls-18" d="M81.84,175.22v-4.19s4.38,0,4.38,0l.06,3.76c-.49.69-2.6.46-3.52.43-.31,0-.62.02-.93,0Z"/>
  <path class="cls-3" d="M84.17,142.2c-1.15-5.5-.07-11.67.47-17.21,1.35-.25.85.46.92,1.39.36,4.94-1.17,10.87-1.4,15.81Z"/>
  <rect class="cls-14" x="13.07" y="165.91" width="5.12" height="3.73"/>
  <rect class="cls-14" x="151.53" y="165.93" width="5.12" height="3.73"/>
  <path class="cls-7" d="M68.38,57.56c2.68.26,2.46,1.93,2.32,4.19.72.71,4.07-1.48,3.72.46-2.93.66-5.84,1.85-8.83,2.32l3.75-3.57c.15-.74-.63-2.58-.96-3.41Z"/>
  <path class="cls-8" d="M109.72,169.65v-3.72s4.84,0,4.84,0l.27,3.73c-1.08.03-2.17-.04-3.25,0-.62.02-1.24,0-1.86,0Z"/>
  <path class="cls-3" d="M53.5,140.8c1.9,5.04-1.74,7.56-5.84,4.2-.58-.48-.53-1.25-.67-1.41,3.11,1.37,4.77-.52,6.51-2.79Z"/>
  <path class="cls-3" d="M116.69,174.76v-2.79s5.34-.94,5.34-.94l.24,3.73c-1.53.09-3.12-.13-4.65,0-.31.03-.62-.02-.93,0Z"/>
  <path class="cls-9" d="M146.89,182.21c.15,0,.31,0,.46,0,.67,1.06,1.52,3.3,2.79,3.26.04.3-.04.63,0,.93h-5.58s0-4.19,0-4.19c.77-.03,1.55.05,2.33,0Z"/>
  <path class="cls-17" d="M23.3,182.19c.62.01,1.24-.02,1.86,0v4.19s-5.58,0-5.58,0c.01-.15,0-.31,0-.47l3.25-3.72c.15,0,.31,0,.46,0Z"/>
  <path class="cls-16" d="M111.58,172.44c1.22.12,2.5-.09,3.72,0v2.79c-1.29.04-2.94.13-4.18,0-2.18-.23-2.77-1.54-.93-2.79.45.06.94-.04,1.39,0Z"/>
  <path class="cls-7" d="M144.1,177.09c.71,0,.96-.87,2.5.05.34.21,2.5,2.72,2.61,2.98.46,1.09-2.28.73-2.78.69-.61-.04-1.23.09-1.83-.03l-.49-3.7Z"/>
  <path class="cls-16" d="M128.77,135.23c.45.38,3.89,2.11,4.52,2.22,1.66.28,2.74-.15,4.3-.36.1.39-.12,1.16,0,1.4-2.12.98-4.92.43-6.97-.47-1.73-.76-1.72-1.37-2.79-2.33l.93-.46Z"/>
  <path class="cls-6" d="M117.62,174.76l.07.88,1.27.09.06,1.35c-.77,0-1.55,0-2.32,0-.46,0-.93,0-1.39,0-.15,0-.31,0-.46,0-.15-.7-1.67-.72-1.86,0-.62,0-1.24,0-1.86,0v-1.86c1.24.13,2.89.04,4.18,0,.79-.02,1.3-.46,1.39-.46.31-.02.62.03.93,0Z"/>
  <path class="cls-18" d="M23.76,180.8c-1,.03-2.36.18-3.25-.23,1.13-1.19,2.38-3.98,4.35-3.51l.29.95v2.79c-.46.02-.93-.02-1.39,0Z"/>
  <path class="cls-8" d="M128.77,165.93c.39,2.46-3.38,2.36-5.11,2.79v-2.79s5.11,0,5.11,0Z"/>
  <path class="cls-3" d="M100.89,172.9c.15,0,.31,0,.46,0,.05.61-.07,1.25,0,1.86-1.68.22-4.02-.31-5.58,0v-1.86c1.7-.02,3.41.03,5.11,0Z"/>
  <path class="cls-18" d="M86.02,177.08v3.72c-.92.03-1.87.03-2.79,0-.07-1.23.11-2.5,0-3.72.92-.08,1.87.07,2.79,0Z"/>
  <path class="cls-16" d="M88.81,173.83c-.02-.5-.17-2.35.24-2.33l5.28,1c.18.19.07.97.05,1.33h-5.58Z"/>
  <polygon class="cls-18" points="84.11 165.97 84.63 169.64 81.84 169.64 81.84 165.92 84.11 165.97"/>
  <rect class="cls-18" x="148.28" y="171.04" width="1.85" height="4.19"/>
  <polygon class="cls-18" points="150.14 169.65 147.81 169.65 147.84 166.42 150.14 165.93 150.14 169.65"/>
  <path class="cls-3" d="M154.32,186.39h-3.25s0-3.72,0-3.72c.61.29,3.81,3.22,3.24,3.72Z"/>
  <path class="cls-16" d="M136.2,169.65c-1.31-.04-2.64.05-3.96,0-.56-.02-1.73.35-1.62-.46l5.57-1.87v2.33Z"/>
  <path class="cls-7" d="M22.83,182.19l-3.25,3.72c.05-1.23-.04-2.49,0-3.72,1.08.01,2.17-.01,3.25,0Z"/>
  <path class="cls-7" d="M147.35,182.21c.93.01,1.86-.01,2.79,0,.09,1.06-.13,2.22,0,3.26-1.27.05-2.11-2.19-2.79-3.26Z"/>
  <rect class="cls-16" x="144.57" y="171.04" width="1.39" height="4.19"/>
  <path class="cls-18" d="M18.18,183.59v2.79s-2.79,0-2.79,0c.2-.51,2.17-3.49,2.79-2.78Z"/>
  <path class="cls-7" d="M94.38,173.83c-.02.34.21.99-.28.94h-5.3c-.02-.32.02-.63,0-.94h5.58Z"/>
  <path class="cls-17" d="M87.41,177.08v3.72c-.46.02-.93-.02-1.39,0v-3.72c.46-.03.93.02,1.39,0Z"/>
  <polygon class="cls-7" points="15.86 182.19 13.08 184.98 13.07 182.19 15.86 182.19"/>
  <polygon class="cls-18" points="156.64 182.21 156.41 185 153.85 182.21 156.64 182.21"/>
  <path class="cls-3" d="M145.49,165.93c-.3,1.02.86,4.09-.92,3.72.3-1.02-.86-4.09.92-3.72Z"/>
  <path class="cls-7" d="M66.99,54.31c.41.34,1.45-.02,1.28,2.05l-.36.27c-.28-.6-1.25-1.16-.93-2.33Z"/>
  <path class="cls-16" d="M88.35,125.46c.46.03.93-.04,1.39,0,.06.3-.07.68,0,.93h-.93c-.02-.16-.5-.58-.46-.93Z"/>
  <path class="cls-6" d="M130.62,177.09c.05.35-.46.81-.46.93h-.93s0-.93,0-.93c.46,0,.93,0,1.39,0Z"/>
  <polygon class="cls-16" points="20.97 176.61 20.27 177.54 19.58 177.54 19.58 176.61 20.97 176.61"/>
  <path class="cls-16" d="M82.79,13.38h-.93s0-.69,0-.69l.46-.24c.04.18.46.53.46.93Z"/>
  <path class="cls-2" d="M34.91,176.61c.4,0,.83,0,.93.47-.62,0-1.24,0-1.86,0,.1-.47.53-.46.93-.46Z"/>
  <path class="cls-2" d="M73.48,176.62l.92,1.39c.03-.29.23-.85.48-.92.02.77-.02,1.55,0,2.33h-1.39c.03-.77,0-1.56,0-2.33-.46-.02-.93.02-1.39,0,.26-.56,1.3-.38,1.39-.46Z"/>
  <path class="cls-16" d="M138.08,11.53c-.46-.11-.43-.54-.46-.93.45.12.43.54.46.93Z"/>
  <path class="cls-15" d="M124.6,62.68c-.4-.03-.8-.02-.93-.47.39.05.81,0,.93.47Z"/>
  <path class="cls-15" d="M120.42,61.75l-.24.46-.69-.46c.3.03.63-.04.93,0Z"/>
  <path class="cls-2" d="M52.57,177.08c-.15,0-.31,0-.46,0l.23-.46.23.46Z"/>
  <path class="cls-6" d="M31.66,177.08c-.15,0-.31,0-.46,0l.23-.46.23.46Z"/>
  <path class="cls-6" d="M27.48,177.08c-.15.02-.31-.01-.46,0l.23-.46.23.46Z"/>
  <path class="cls-2" d="M68.83,177.08c-.15,0-.31,0-.46,0l.23-.46.23.46Z"/>
  <path class="cls-2" d="M121.8,177.09c-.15,0-.31,0-.46,0l.23-.46.23.46Z"/>
  <path class="cls-6" d="M128.77,177.09c-.15,0-.31,0-.46,0l.23-.46.23.46Z"/>
  <path class="cls-15" d="M86.02,158.48l-.46-.47.46.47Z"/>
  <path class="cls-11" d="M110.18,172.44c-1.85,1.25-1.25,2.56.93,2.79v1.86s-1.39.46-1.39.46h-1.39c-1.56-1-3.77-.24-5.58-.47-.35-.04-.71.09-.92-.34-.13-.65-.4-1.34-.47-1.98-.07-.61.05-1.25,0-1.86.46,0,.93,0,1.39,0l.26,2.33,5.32-.48v-1.85c-1.39-.03-2.79.03-4.18,0,.9-3.18,4.17-.72,6.04-.46Z"/>
  <polygon class="cls-17" points="60 182.19 59.57 186.18 54.16 185.95 53.96 182.19 60 182.19"/>
  <path class="cls-17" d="M95.78,182.2h5.58s0,4.19,0,4.19c-1.31.1-5.84.11-6.51-.93-.13-.2.11-1.03,0-1.4.15-.15.36-.28.46-.46.18-.31.76-.47.46-1.4Z"/>
  <path class="cls-17" d="M40.02,184.98c-1.47,2.41-3.99,1.1-6.51,1.4v-4.19s5.28-.02,5.28-.02c.27.07.52,1,.76,1.42.1.18.31.32.46.47,0,.29-.05.68,0,.93Z"/>
  <path class="cls-9" d="M92.53,182.2c.54.03,1.38-.19,1.77.1.02.49.46.97.55,1.3.04.14-.04.32,0,.47.11.37-.13,1.2,0,1.4-1.07,1.89-4.22.55-6.04.93v-4.19c1.23.04,2.49-.06,3.72,0Z"/>
  <path class="cls-9" d="M43.74,182.19c.82.05,1.65-.22,2.32.47v3.26s-5.26.48-5.26.48c-.34-.08-.71-1.08-.78-1.41-.05-.25,0-.64,0-.93,0-.15,0-.31,0-.47,0-.07.49-.56.46-1.4,1.08.04,2.18-.06,3.25,0Z"/>
  <path class="cls-17" d="M129.23,182.21c.04.62-.05,1.25,0,1.86.04.47.09.92.27,1.36l-.57.9-5.28.07v-3.92c.07-.51,4.69-.22,5.58-.27Z"/>
  <polygon class="cls-17" points="108.32 182.2 108.79 186.38 102.74 186.39 102.74 182.2 108.32 182.2"/>
  <rect class="cls-17" x="26.55" y="182.19" width="5.58" height="4.19"/>
  <polygon class="cls-17" points="47.46 182.66 53.04 182.46 53.03 186.38 47.46 185.91 47.46 182.66"/>
  <path class="cls-17" d="M109.72,186.39c0-.31,0-.62,0-.93,0-1.08,0-2.18,0-3.26l5.57-.46-.2,4.21-5.37.43Z"/>
  <rect class="cls-9" x="67.9" y="182.2" width="5.58" height="4.19"/>
  <rect class="cls-17" x="74.87" y="182.2" width="5.58" height="4.19"/>
  <rect class="cls-17" x="116.68" y="182.2" width="5.58" height="4.19"/>
  <path class="cls-17" d="M132.95,182.21c1.08-.05,2.18.03,3.25,0v4.19s-5.58-.47-5.58-.47v-.47c0-.46-.03-.94,0-1.4.04-.62-.03-1.25,0-1.86.77-.03,1.55.04,2.33,0Z"/>
  <rect class="cls-17" x="137.59" y="182.2" width="5.58" height="4.19"/>
  <path class="cls-17" d="M66.97,186.38h-5.58s0-4.19,0-4.19l5.14.21c.82.57.32,2.97.44,3.98Z"/>
  <path class="cls-9" d="M40.02,177.54c.06,0,.53-.49,1.13-.48,1.64.02,3.28.01,4.91.01v3.73c-.77.03-1.55-.04-2.33,0-1.23.06-2.48-.04-3.72,0-.01-.15.02-.31,0-.47-.09-.91.06-1.87,0-2.79Z"/>
  <path class="cls-9" d="M111.11,177.09c.62,0,1.24,0,1.86,0s1.24,0,1.86,0c.15,0,.31,0,.46,0v2.33s.93,0,.93,0c-.07.24.05.64,0,.93-.22,0-.74.71-1.14.71-1.67,0-3.6-.5-5.37-.24v-3.26s1.4-.46,1.4-.46Z"/>
  <path class="cls-9" d="M74.87,177.08c.52-.16,5.53-.08,5.58.27v3.46s-5.59,0-5.59,0c-.02-.46.02-.93,0-1.4-.02-.77.02-1.55,0-2.33Z"/>
  <path class="cls-17" d="M108.32,177.55v3.26s-5.58,0-5.58,0v-3.72c1.8.22,4.02-.54,5.58.47Z"/>
  <path class="cls-17" d="M95.78,177.09h5.58s0,3.45,0,3.45l-5.58.27c.24-.39-.17-2.94,0-3.72Z"/>
  <path class="cls-7" d="M86.02,182.66v3.72c-.89-.09-1.94.13-2.79,0v-4.19c1.02-.04,2.04-.28,2.79.47Z"/>
  <path class="cls-2" d="M95.78,177.09c-.17.78.24,3.34,0,3.72-.03.04-.84-.1-.94.23v.93s.94.23.94.23c.3.92-.28,1.09-.46,1.4h-.46c-.1-.33-.53-.81-.55-1.3-.39-.29-1.23-.07-1.77-.1v-1.4c.62-.01,1.24.02,1.86,0v-3.72c.32,0,.84.54,1.39,0Z"/>
  <path class="cls-17" d="M83.23,182.2v4.19c-.42-.07-.91,0-1.18-.44l-.22-3.75c.46-.02.93.02,1.39,0Z"/>
  <path class="cls-17" d="M83.23,177.08c.11,1.22-.08,2.49,0,3.72-.46-.01-.93.02-1.39,0v-3.45c.07-.53.97-.23,1.4-.27Z"/>
  <path class="cls-2" d="M43.74,180.8v1.4c-1.08-.06-2.17.04-3.25,0-.02-.55-.44-1.1-.46-1.4,1.23-.04,2.48.06,3.72,0Z"/>
  <rect class="cls-2" x="46.06" y="182.66" width="1.39" height="3.26"/>
  <path class="cls-2" d="M130.16,178.95c.04.31.72,1.13.5,1.82.76.14,1.53,0,2.29.04v1.4c-.77.04-1.56-.03-2.33,0-.03.62.04,1.25,0,1.86h-1.39c-.05-.61.04-1.25,0-1.86.18,0,1.85.51,1.85-.7s-1.67-.69-1.85-.7v-1.86s.93,0,.93,0Z"/>
  <path class="cls-2" d="M40.02,177.54c.06.92-.09,1.88,0,2.79-.3.09-.67.43-.93.46v-3.72c.22,0,.68.46.93.47Z"/>
  <path class="cls-16" d="M86.02,186.39v-3.72c.87.86.43,2.35.42,3.46l-.42.26Z"/>
  <path class="cls-11" d="M77.19,174.76l-.23.93h-1.16s0-.93,0-.93c.44-.06.94.01,1.39,0Z"/>
  <path class="cls-2" d="M109.72,186.39l-.47-.25.47-.68c0,.31,0,.62,0,.93Z"/>
  <path class="cls-2" d="M38.63,177.08c-.15,0-.31,0-.46,0l.23-.46.23.46Z"/>
  <path class="cls-2" d="M130.62,185.93l-.34-.2c-.01-.11.34-.21.34-.26v.47Z"/>
  <path class="cls-2" d="M40.02,184.05c-.15-.14-.36-.28-.46-.47h.46c0,.15,0,.31,0,.47Z"/>
  <path class="cls-14" d="M23.77,138.01c.45,4.62-3.34,6.57-7.43,5.11-1.96-5.35,3.6-8.33,7.43-5.11Z"/>
  <path class="cls-16" d="M16.33,143.12c4.09,1.46,7.89-.49,7.43-5.11.52.44.94.57,1.18,1.36,2.12,6.79-6.93,8.36-8.62,3.75Z"/>
  <path class="cls-11" d="M92.93,95.77c1.55,2.58-2.27,3.38-2.27,4.82,1.7,3.88,6.79,2.25,8.62-.69,2.89.9-.31,3.01-.61,4.05s-.01,2.23-.3,3.42c-1.29,5.36-6.12,7.56-10.73,4.15-2.06-1.52-2.04-4.03-2.96-5.29-.22-.3-4.96-1.46-4.23-4,1.11-1.07,3.91,3.31,6.94,1.13,3.53-2.53-1.18-3.42-2.04-4.41-3.49-4.02,6.86-4.37,7.58-3.17ZM89.28,109.65c3.54,3.1,7.08.48,6.97-3.72,0-.31.02-.62,0-.93-3.81.7-6.43-2.34-9.25,1.21.28,1.64,1.15,2.45,2.28,3.44Z"/>
  <path class="cls-4" d="M124.45,98.82c-2.36,2.98-13.39,3.77-13.38-.57.49-6.27,18.16-5.48,13.38.57Z"/>
  <path class="cls-4" d="M72.41,101.88c.36.43.54.94.59,1.5-.94,4.45-12.47,4.71-13,.89-.68-4.9,9.89-5.4,12.41-2.4Z"/>
  <path class="cls-11" d="M104.95,85.57c6.66-2,6.76,10.66,1.41,9.6-4.14-.82-4.98-8.53-1.41-9.6Z"/>
  <path class="cls-11" d="M71.95,89.28c6.12-1.88,6.57,8.19,3.53,9.12-6.12,1.88-6.57-8.19-3.53-9.12Z"/>
  <path class="cls-4" d="M123.09,16.29c2.19-.35,4.77.3,5.49,2.66,2.89,9.47-10.43,24.86-14.18,33.3-1.18,1.37-4.98.21-6.31-.71-.41-.68.54-7.58.79-9,1.18-6.71,6.47-24.99,14.21-26.24Z"/>
  <path class="cls-4" d="M72.62,57.97c-4.64-8.81-8.03-19.85-7.01-29.94.91-9.06,9.18-14.09,11.49-2.21,1.4,7.18.42,16.58.56,24.08.04,2.17,1.42,4.01-.48,5.99-.53.56-3.97,2.42-4.56,2.07Z"/>
  <path class="cls-16" d="M104.14,172.9c1.39.04,2.79-.03,4.18,0v1.85s-5.32.48-5.32.48l-.26-2.33c.46,0,.93-.01,1.39,0Z"/>
  <path class="cls-2" d="M116.69,177.09c.34,1.01-.24,1.61-.46,2.33h-.93s0-2.33,0-2.33c.46,0,.93,0,1.39,0Z"/>
  <path class="cls-2" d="M114.83,177.09c-.62,0-1.24,0-1.86,0,.19-.72,1.71-.7,1.86,0Z"/>
  <path class="cls-6" d="M94.85,184.06c-.04-.14.04-.32,0-.47h.46c-.11.18-.31.32-.46.47Z"/>
  <path class="cls-4" d="M96.25,105.93c.11,4.2-3.43,6.82-6.97,3.72,1.81-2.45,3.65-4.17,6.97-3.72Z"/>
  <path class="cls-8" d="M89.28,109.65c-1.13-.99-2-1.8-2.28-3.44,2.83-3.55,5.45-.51,9.25-1.21.02.31-.01.62,0,.93-3.32-.45-5.16,1.27-6.97,3.72Z"/>
</svg>