<?xml version="1.0" encoding="UTF-8"?>
<svg id="_레이어_1" data-name="레이어 1" xmlns="http://www.w3.org/2000/svg" viewBox="0 0 173.48 212.91">
  <defs>
    <style>
      .cls-1 {
        fill: #d0b295;
      }

      .cls-2 {
        fill: #575044;
      }

      .cls-3 {
        fill: #c9cdd1;
      }

      .cls-4 {
        fill: #fefefd;
      }

      .cls-5 {
        fill: #232028;
      }

      .cls-6 {
        fill: #efefed;
      }

      .cls-7 {
        fill: #201f1e;
      }

      .cls-8 {
        fill: #762946;
      }

      .cls-9 {
        fill: #2a272b;
      }

      .cls-10 {
        fill: #a88d6e;
      }

      .cls-11 {
        fill: #ead9bc;
      }

      .cls-12 {
        fill: #323531;
      }

      .cls-13 {
        fill: #de873a;
      }

      .cls-14 {
        fill: #5d203c;
      }

      .cls-15 {
        fill: #c1c9ce;
      }

      .cls-16 {
        fill: #d58541;
      }

      .cls-17 {
        fill: #765057;
      }

      .cls-18 {
        fill: #444640;
      }

      .cls-19 {
        fill: #bf6d32;
      }

      .cls-20 {
        fill: #e5e4e2;
      }
    </style>
  </defs>
  <path class="cls-5" d="M128.88,51.29c-.24.91-1.62,2.28-2.31,2.94-.79.76-.53.13-1.58,1.52-.28.37-.82.33-1.03,1.07-.4,1.41-.22,4.25,1.2,5.17.03.15-.03.32,0,.47.09.41-.11.85.23,1.38s1.14.63,1.63.94c.33.21.61.67.93.93v.47c.17.52,1.33,1.02,1.86,1.4.1.07.65.32.93.47.15.08.15.76,1.16.93.85.14,1.88.16,2.56-.47.15.01.31,0,.46,0,.93.04,1.86-.03,2.79,0-1.11.97-5.41,4.91-6.05,5.81-1.07,1.52-1.26,3.38-2.83,5.07-4.23,4.54-12.87,7.24-17.41,11.9l.73,6.51c2.14-.78,3.55-2.38,5.71-3.35,10.76-4.85,18.8-14.57,28.98-20.75.77-.47,1.73-.43,2.44-.82,4.11-2.22,2.2-2.35,1.9-5.53-.73-7.74,4.84-13.26,12.23-8.99,4.1,2.37,9.12,10.58,9.86,15.24,1.33,8.44-3.86,9.81-9.02,14.77-.16,4.48,4.54,9.09.41,12.95-13.07,9.37-27.42,17.36-39.93,27.46-3.32,2.68-12.14,10.13-13.77,13.68-.62,1.37.95,3.18-.34,4.52-.58.6-2.25.6-2.67,1.39-.71,1.35-2.34,9.2-2.67,11.16-1.19,6.98-1.11,14.13-1.6,21.19-.67,2.2-4.83,1.43-5.02,3.58h42.98s22.09,25.8,22.09,25.8l.44,2.12c-2.2.5-4.22-.03-6.25-.02-46.11.07-93.18,1.54-138.94.1-1.37-.04-3.22,1.08-4.68-.06l-.45-1.4,22.32-26.53h39.72c-.41-1.17-1.95-.92-2.77-1.64-1.49-1.3-1.16-8.8-1.41-11.14-.42-3.95-1.26-7.88-1.39-11.86-9.52,11.28-26.13,13.24-37.4,3.25-2.64-2.34-3.92-5.38-7.68-6.73-5.8-2.08-6.09,1.02-10.36,2.63-7.07,2.67-12.52-4.4-8.22-10.55,4.72-6.74,15.83-7.71,22.94-4.82,9.63,3.92,14.13,18.26,26.26,12.22,2.16-1.08,7.79-5.33,5.63-7.87l.86-10.58c-1.37-.91-2.71-4.03-3.68-4.72-.78-.56-2.33-.7-3.39-1.26-.67-.35-1.54-1.66-1.92-1.69-.24-.02-3.34,1.77-4.31,2.1-5.61,1.92-11.21,2.5-16.69-.26-12.35-6.21-9.27-21.37-3.4-31.23-1.98-.36-3.88-3.64-4.1-5.48-.28-2.41,1.47-3.45,1.68-4.61.13-.73-1.22-2.44-1.27-3.67-.04-.96.84-2.65.37-3.39-2.03-.93-3.17-1.6-5.51-1.46v-1.86c.31,0,.62.01.93,0,.52.81,1.91.41,2.79.47.15,0,.31-.02.46,0,.08.21.25.4.46.47.14.04.33-.05.46,0,.18.48.59.36.93.47,12.2,3.8,16.41,5.1,29.48,5.1.59,0,8.39-.38,6.76,1.42l-1.17.94c1.7,1.03,3.64,1.82,5.35,2.78,3.69,2.06,7.37,4.15,11.14,6.05.93-3.97,1.02-8.08,1.4-12.09.04-.38.9-1.44.46-2.32l-3.71.93c-.01-.51-.12-.94.22-1.41.29-.4,6.78-3.38,7.99-4.09,4.45-2.62,8.32-5.25,11.76-9.16s3.36-6.41,8.38-8.59c.71-.31,1.18-.06,1.86-.93.12-.15.45-.79.46-.93.81-.08,1.62.08,1.86.93-1.48,3.02-5.93,2.3-6.96,5.83-.58,2.01,4.16-1.18,4.59-1.45,2.19-1.38,4.45-3.48,6.55-4.84,2.98-1.94,3.81-1.53,6.52-2.55,3.85-1.45,5.69-3.84,9.75-5.36ZM126.09,70.36c2.48,1.75,3.86,3.13,6.5.23,0-.32-4.68-1.85-5.57-2.56-2.23-1.77-5.15-7.27-4.65-10.23-5.41.63-.04,9.77,2.3,11.9.57.51,1.16.47,1.42.65ZM160.93,59.67c-7.48-2.66-9.26,7.41-6.04,12.09-1.5.57-2.25,1.86-3.25,2.79-.39.36-1.65.04-1.87,1.65-.04,1.75.88,3.28,1.41,4.86.6,1.8.87,3.59,2.32,5.12.15.16.3.32.46.47.04.15-.05.33,0,.47.61,1.7,2.03,3.14,3.02,4.64,1.26-1.29,2.6-2.53,3.95-3.71,1.23-1.08,2.41-2.5,3.25-3.25.37-.33,1.9-.81,2.79-1.62,1.45-1.32,2.4-2.22,3.25-3.96.56-1.16.97-1.48.94-3-.11-5.15-5.24-14.75-10.23-16.53ZM123.3,71.29c-2.59-2.26-4.48-5.45-5.36-8.81-.27-1.04.24-2.98-.91-2.82-2.94.41-10.43,7.34-13.96,8.35-1.33,6.55-5.64,9.19-9.69,13.55-.23.25-4.24,6.28-3.44,2.61,1.23-5.59,10.14-9.6,10.6-16.14-.81-.17-1.15.42-1.63.92-3.06,3.18-5.9,6.42-9.46,9.13-1.33,4.18-5.51,35.98-4.24,37.38,1.71-.98,4.52-.94,6.01-1.65,1.74-.82,7.9-6.85,9.78-8.58,2.76-2.55,3.97-3.62,6.04-6.51.07-.1,1.6-.32,2.08-1.4,1.83-4.09-2.21-5.75-3.86-8.68-1.01-1.79-1.71-3.62-1.47-5.73,1.75-.48,1.75,1.29,2.32,2.33.72,1.32,1.32,2.72,1.98,4.07l1.32.36c2.2-1.5,4.24-3.21,6.5-4.63,4.62-2.9,11.43-5.32,12.97-10.96-2.33-.02-3.95-1.37-5.58-2.8ZM116.79,102.91c-2.11,6.09-2.15,12.94-4.32,19.17-1.28,3.69-3.43,6.24-5.45,9.46.82,2.42,1.44,5.01,2.35,7.39.19.49.2,1.12.9,1.18.74-1.6,2.11-3.57,3.31-4.83,13.19-13.81,33.57-23.89,48.98-35.15l-6.74-5.58c-3.63-5.56-6.79-10.39-8.37-16.98-.12-.5.33-.89-.69-.7-.77.14-6.46,4.51-7.62,5.39-6.68,5.06-12.98,10.64-19.79,15.54-1.28,1.5-1.94,3.35-2.56,5.12ZM82.77,119.09c.52-11.25,1.01-22.52,2.92-33.64l-2.18-3.85-1.57.71c-.37,7.31-2.09,14.51-2.78,21.77-.38,4.03-.38,8.03-.47,12.08-.04,1.73-.88,3.34,0,5.35l4.08-2.42ZM34.09,88.95s-.1-.71.46-1.15c.66-.52,2.2-.26,2.32-1.17-2.02.15-7.6-3.29-8.86-1.67-1.55,1.99,2.25,4.65,2.36,6.78l-2.58.44c-.8,1.65-.09,6.18,2.26,5.57,1.79-.47,1.13-2.77,1.66-3.45.44-.56,2.56-1.42,3.3-1.62,5.71-1.53,13.09.17,18.12,3.03.28,1.09-.8.56-.93.69-4.44-.53-8.61-2.6-13.18-2.27-3.37.24-4.22,1.63-6.08,4.17-.32.44-.17,1.22-.26,1.35-.03.04-.61-.08-.76.15-3.95,6.17-6.93,15.4-4.82,22.63.87,2.97,3.92,5.71,6.73,6.98,5.04,2.27,10.09,1.72,15.1-.24.51-.2,4.65-2.01,3.95-2.54-1.37-1.03-3.17-1.87-4.4-3.26-2.78-3.16-5.2-8.86-3.72-13.02-4.2.13-6.95,3.7-10.68,4.18-.93-.81,4.64-4.41,5.11-4.88l-3.25-.23c1.09-3.19,6.2-1.35,8.61-1.35.96,0,1.54-.44,2.08-.5,2.15-.24,1.77.43,3.72-.93,4.46-3.11,7.09-5.69,13.16-2.7s6.49,8.1,4.96,13.87c-1.29.9-1.63,2.36-2.82,3.46-2.94,2.73-6.79,1.86-9.29,5.59-1.21,1.81.95,2.96,2.59,3.07,2.38.17,12.69-4.33,15.19-5.74.66-.37,2.05-.98,2.23-1.73v-16.51s-17.82-9.14-17.82-9.14c-1.68-.93-2.46-2.99-3.78-4.13-5.06-4.38-14.41-4.04-20.68-3.71ZM52.67,89.41c6.07,3.78,6.97-1.77.69-.93-.64.09-1.36.25-.69.93ZM163.71,97.8c.26-2.65-1.2-5.03-2.09-7.44-1.14,1.64-3.28,1.48-2.46,3.85.28.8,3.81,4.36,4.55,3.59ZM77.29,103.84c1.02-4.96-2.09-5.52-5.72-7.52-1.48-.81-7.92-4.32-9.01-4.48-1.51-.22-2.84.68-3.31,2.08-.29.87.17.5.51.74,1.35.95,3.2,1.91,4.68,2.75,4.15,2.34,8.55,4.38,12.85,6.43ZM115.16,99.19v.47c.3-.15.3-.31,0-.47ZM110.52,99.66v.47c.3-.15.3-.31,0-.47ZM105.17,116.86c-.1-.35,1.81-4.85.24-4.18-1.77,1.89-3.32,4.65-5.82,5.58-.27.39,1.24,1.16,1.39,1.39.68.97,1.77,2.79,2.41,3.86.55.92,2.14,5.67,3.15,4.97,5.83-8.6,5.86-18.65,8.37-28.36-.83-.91-3.54,3.79-3.8,4.33-1.04,2.2-3.2,11.41-4.57,12.18-.52.29-1.14.11-1.38.22ZM110.28,100.59l-16.17,13.56-.05,1.27,3.52,1.84c5.67-4.27,10.34-9.79,12.7-16.67ZM66.61,113.14c-.03-6-5.47-9.81-11.1-7.62-6.52,2.54-4.22,9.69-.52,13.67,2.53,2.71,3.08,3.79,6.99,1.65,3.24-1.77,4.64-4.08,4.62-7.7ZM48.95,109.42l-1.63.46c-1.77,5.74,1.65,14.67,8.3,14.84l.77-1.1c-4.3-3.12-7.69-8.74-7.43-14.19ZM92.11,116.45c-2.87-.53-6.69.28-6.86,3.61l7.37,1.92-.51-5.53ZM108.85,145.17c-2.66-9.68-5.16-21.37-13.89-27.38-.5,2.95,1.76,4.97,2.68,7.31,2.81,7.17,3.83,15.76,4.75,23.38l6.46-3.32ZM81.94,122.91l-19.69,8.42-.72.71c-.28,1.03,2.08,3.35,2.9,3.34.87-.01,6.61-2.64,7.93-3.23,1.13-.51,8.25-3.86,8.54-4.24s1.25-4.78,1.04-5ZM87.51,153.6c-.79-7.95-1.2-15.96-.95-23.97.06-1.94,1.82-5.81-2.01-4.89-.98.24-3.39,13.73-3.55,15.61-.35,4.18-.03,8.29-.03,12.47.27,1.17,5.46.69,6.53.77ZM88.91,130.35c-.23,3.52.17,7.17,0,10.69.8.83,6.12-3.15,6.97-3.72.61-.41,2.26-.14,2.3-1.59l-3.2-10.77c-.5-.39-4.64,1.48-5.13,1.9-1.11.98-.86,2.21-.94,3.48ZM75.9,145.23c.86-.15,2.32.43,2.72-.76.48-1.42.24-7.37.57-9.66.12-.87,1.76-3.76.2-3.53l-14.57,6.12-.53,9.24c.93-.01,1.86.02,2.79,0,3.13-.07,5.82-.86,8.83-1.39ZM89.83,151.74c-.02.77,0,1.55,0,2.33-.25,4.02-7.18.49-9.76,1.39-.33-.45-.96-.54-1.2-1.36-.29-1.02-.12-1.87-.2-2.83-.08-1.03.57-4.31-.67-4.17-.76.09-5.61.95-5.86,1.12-.84.55-.07,2.86.02,3.98.78,9.59,1.55,19.2,2.89,28.72,1.56,1.77,16.47.94,19.4.58,1.09-.13,6.8-.89,6.99-1.7-.43-9.97,1.63-19.71,3.23-29.46-.36-.38-2.93,1.45-3.93-.48s-1.3-7.83-2.09-10.47c-.16-.52.3-.82-.7-.67l-8.84,5.1.7,7.91ZM16.89,144.75c-3.64.75-6.61,2.26-8.36,5.58-.08.15-.74.18-.92,1.15-.51,2.68.95,5.2,3.7,5.64s5.35-2.76,8.37-3.53c1.16-.3,3.02-.63,4.18-.46,1.63.23,3.34,2.19,5.11,1.86.39,2.02,2.43,2.44,3.72,3.72,2.4,2.38,2.49,2.7,5.57,4.65,3.29,2.08,3.76,2.62,7.9,3.26,3.17.49,4.73.52,7.9,0,3.99-.65,4.75-1.28,7.9-3.25,3.48-2.18,2.65-1.96,5.11-4.65.08-.09.85-.09,1.16-.45,1.8-2.01,1.49-2.09,1.63-4.67.06-1.08.39-4.76-.75-5.08-.22-.06-3.63.51-3.9.66-.53.3-.61,1.2-.92,1.63-.59.79-1.97,3.36-2.32,3.72-.57.58-4.6,2.81-5.58,3.25-1.34.61-2.7,1.24-4.18,1.39-1.94.2-3.69-.04-5.58-.47s-2.66-.86-4.18-1.86c-1.71-1.13-3.15-2.8-4.65-4.19-2.44-2.26-2.78-2.72-5.57-4.65-.04-.03.12-.68-.31-.94-1.21-.73-5.39-2.6-6.65-2.78-1.62-.23-5.76-.19-7.43,0-.46.05-.78.43-.93.46ZM104.93,149.42v.47c.3-.15.3-.31,0-.47ZM88.9,184.29c-.31,0-.62,0-.93,0-1.39.03-2.79-.02-4.18,0-1.85.03-3.72-.02-5.58,0,0,1.08,0,2.17,0,3.26,0,.31,0,.62,0,.93-3.4.46-8.55,3.57-8.36,7.44.08,1.8.67,1.91,2.09,2.79.53-.49.11-1.64.23-2.32.29-1.69.6-3.42,2.79-3.25.25,1.51-.78,2.78-.93,4.18-.07.6.02,1.25,0,1.85,1.2-.19,2.34.4,3.48.48,1.33.09.48-1.46.69-2.33.13-.55.86-2.5,1.15-2.8.44-.46,1.87-.67,2.1-.45.28.26-.85,2.78-.93,3.72-.05.61.03,1.25,0,1.86,3.74-.74,11.3-.74,13.94-3.72,2.35-2.65,1.1-8.49,1.86-12.09-2.51-.02-4.92.4-7.44.47ZM67.53,192.66c1.14-.49,2.18-2.17,3.29-2.98,1.52-1.11,3.42-1.67,4.61-3.06h-37.87s-18.81,21.62-18.81,21.62l-.94,2.08,142.64.02-19.51-23.72h-42.28c-.31,1.74-.21,3.91-.47,5.57-.21,1.36-.21,2.77-.83,4.05-2.58,5.3-18.43,5.76-23.56,5.24s-6.95-3.8-6.28-8.83Z"/>
  <path class="cls-7" d="M108.43,51.29c-.41.48-1.3.48-1.41,1.65.32,2.7,2.83,3.84,1.41,6.73-.24-.85-1.05-1.01-1.86-.93.3-2.6-2.41-4.45-2.3-6.3.09-1.54,3-1.93,3.19-3.63-1.18-1.3-2.4-2.6-3.67-3.82-.51-.49-1.32-.58-1.41-.66-.3-.3-.64-.63-.93-.93-1.98-2.07-3.29-5.39-4.65-7.91-.73-1.35-2.05-4.85-3.48-5.12-2.62-.5-10.43-.16-13.47,0-4.83.26-10.75,1.09-15.57,1.85-.37.06-.43.46-.46.46-.15.03-.31-.03-.46,0-1.79.3-4.2-.02-5.58,1.39h-.93c-.25-.32-.35-.02-.46,0-13.66,2.95-25.96,6.35-38.57,12.55-1.2.59-3.12,1.14-4.18,1.86-3.37,2.28-1.38,7.36-1.86,11.16-.02.2-.36,1.42-.46,1.86-.39,1.62-3.57,8.52-2.74,9.71l5.94,1.03.71,6.96c.5.72,3.81.46,4.91.44v1.86c-.08,0-.52.46-1.12.48-6.32.24-6.94-1.92-6.77-7.93-10.73.51-4.2-8.3-3.3-13.77,1.12-6.82-.77-13.28,1.01-19.91C-13.54,30.17,9.74.35,26.43,19.11c12.13-8.84,27.87-11.52,42.52-8.75,1.7-10.73,14.52-13.39,22.31-6.75,5.93,5.05,6.3,13.41,1.01,19.07,1,1.76,2.87,3.2,3.72,5.02,2.63,5.58,4.27,10.72,8.73,15.45,2.6,2.75,7.3,3.94,3.71,8.14ZM74.99,5.24c-.14.1-.99-.14-1.62.46-.42.4-2.17,4.4-2.07,4.86,1.14,1.24,3.67,1.1,5.08,1.66,3.74,1.49,7.74,4.35,11.15,6.51.68.43,1.24.59,1.86.93.24.13.39,1.26,1.57.9,1.68-1.52,4.25-7.77,1.22-8.34.05-.2.96-.33.97-1.15.06-6.81-12.71-11.41-17.5-7.24-.57.49-.6,1.37-.66,1.41ZM56.4,11.75c-.15,0-.31,0-.46,0-5.13.17-7.19.51-12.08,1.86-2.41.67-3.06,1.08-5.11,1.86-2.21.84-5.36,1.11-6.97,3.25l-5.74,3.14c-.98-.02-3.64-3.93-5.33-4.85-1.2-.65-1.64-.37-2.4-.62-.48-.16-.65-.78-2.07-.94-8.72-.99-14.87,6.46-13.26,14.89.49-.32,1.74.02,1.86,0-.96.5-1.65.1-1.31,1.52.68,2.84,4.4,5.61,7.14,6.4l.7-.21c.41-.27.34-1.1.43-1.19.2-.18,2.18-1.78,2.32-1.86s.79-.14,1.39-.46c7.05-3.79,18.88-8.41,26.48-10.69,1.02-.31,2.53-.61,3.72-.93,1.4-.37,3.72-1.19,4.65-1.39,2.27-.5,6.28-.99,8.83-1.39,1.53-.24,3.43-.78,4.65-.93,1.44-.18,3.15.11,4.65,0,4.95-.36,9.89-.5,14.87-.7-4.67-3.02-9.43-4.77-14.87-5.82-2.51-.48-4.38-.78-6.97-.93-1.53-.09-3.11,0-4.65,0l-.23-.46-.23.46ZM60.12,30.36c3.17.5,7.53-.97,10.98-1.33,7.18-.76,14.31-1.26,21.54-.99.99-.96-3.33-5.19-4.21-5.78-4.82-3.2-20.22-1.15-26.22-.25-.87.13-1.88-.59-1.62.91-.45-.12-1.29.04-1.86,0-8.6-.53-30.22,7.93-38.57,12.09-1.52.76-6.18,2.71-6.99,4.05-.86,1.41-1.81,6.76-1.61,8.51,2.51-1.44,5.55-3.49,8.13-4.65,11.59-5.18,25.38-9.18,37.9-11.61.85-.17,1.86.55,1.6-.94.28.06.64-.05.93,0Z"/>
  <path class="cls-7" d="M137.7,68.5c-.93-.03-1.86.04-2.79,0l1.86-2.32c-3.3-.03-3.72-2.78-7.43-1.4-1.12-2.48,1.89-1.74,3.05-2.76,2.21-1.95-.68-4.73-3.05-4.22l.21-1.42c.99-1.36,4.25.38,5.18,1.39.51.55.51,1.25.65,1.42l-.41,3.88c.56,2.1,7.97,1.98,7.85-3.42-.17-7.4-9.24-8.76-14.81-5.76-4.07,2.19-3.65,3.92-2.84,8.08-1.41-.92-1.6-3.76-1.2-5.17.21-.74.75-.7,1.03-1.07,1.05-1.39.79-.76,1.58-1.52.68-.66,2.07-2.02,2.31-2.94,3.56-1.33,4.8-1.83,8.85-.72,5.85,1.61,10.42,9.51,5.32,14.2-1.34,1.23-3.99,2.56-5.34,3.72Z"/>
  <path class="cls-20" d="M108.43,51.29c-1.52,3.3,2.78,5.09.93,8.37l3.25-.46c-2.1,1.37-4.36,3.46-6.55,4.84-.44.27-5.17,3.46-4.59,1.45,1.02-3.53,5.47-2.81,6.96-5.83s-1.09-4.03-1.41-6.73c.11-1.17,1-1.17,1.41-1.65Z"/>
  <path class="cls-8" d="M98.19,192.2c.25-1.66.16-3.83.47-5.58h42.28s19.51,23.73,19.51,23.73l-142.64-.02.94-2.08,18.81-21.63h37.87c-1.19,1.4-3.08,1.96-4.61,3.07-1.11.81-2.15,2.49-3.29,2.98-1.94.84-4.2.25-6.21.52-2.87.4-19.09,2.62-19.78,4.86-.31,1.21,1.25,1.98,2.19,2.39,11.06,4.92,40.66,4.56,53.29,4.3,8.48-.18,34.39-.6,40.84-4.69,1.61-1.02,1.53-1.56.07-2.73-3.74-2.98-25.48-4.83-31.14-5.11-2.85-.14-5.74.09-8.59,0Z"/>
  <path class="cls-8" d="M100.99,105.24c-1.88,1.73-8.04,7.75-9.78,8.58-1.5.71-4.3.67-6.01,1.65-1.27-1.4,2.91-33.2,4.24-37.38,3.56-2.71,6.4-5.96,9.46-9.13.48-.5.82-1.09,1.63-.92-.45,6.54-9.37,10.55-10.6,16.14-.81,3.68,3.21-2.36,3.44-2.61,4.05-4.36,8.36-7,9.69-13.55,3.53-1.01,11.03-7.94,13.96-8.35,1.15-.16.64,1.78.91,2.82.88,3.36,2.78,6.55,5.36,8.81.02,2.41-3.54,5.43-5.36,6.96-3.24,2.73-7.82,5.75-11.84,6.99-.57-1.04-.57-2.81-2.32-2.33-.24,2.11.46,3.94,1.47,5.73,1.65,2.93,5.69,4.59,3.86,8.68-.48,1.08-2.01,1.3-2.08,1.4-.41-.59-1.35-2.28-2.34-1.65-.75.48-3.71,6.76-3.7,8.16ZM96.35,92.21c.29-.05.63.04.93,0v-2.79c1.45-.31.9,1.44,2.19,1.8,4.03,1.11,4.35-6.28-1.39-4.95-1.75.4-2.15,2.2-2.5,2.26-.74.14-1.69-.52-2.6-.41-4.63.54-3.45,7.51,1.46,4.96l.07-3.19c1.25.42,1.41,1.43,1.85,2.33-.29.05-.63-.05-.93,0v1.87c-1.14.04-2.45-.39-3.24.69l6.27,2.11c2.02-1.18,3.08-3.28,3.93-5.37-1.79.3-2.5,1.96-4.17.24l.46,3.25c-2.02.03-1.89-1.92-2.32-2.79Z"/>
  <path class="cls-8" d="M76.36,122.44l-9.29.46c-.17-.17.33-2.82.51-3.35.13-.4.48-.21.89-1.76,1.53-5.77.99-10.94-4.96-13.87s-8.7-.41-13.16,2.7c-1.69.08-.86-2.34-2.05-3.29-.55-.44-.98-.51-1.66-.43v4.65c-.54.06-1.12.5-2.08.5-2.4,0-7.52-1.84-8.61,1.35l3.25.23c-.47.47-6.03,4.07-5.11,4.88,3.74-.48,6.48-4.05,10.68-4.18-1.48,4.16.94,9.86,3.72,13.02-5.42,1.96-10.32,4.19-16.11,1.94-2.12-.82-3.16-2.54-5.26-2.87-2.11-7.24.87-16.46,4.82-22.63.15-.24.73-.12.76-.15,2.72-1.41,6.01-2.96,9.12-3.2,1.89-.15,9.85,1.16,10.31.76.22-.19.03-.76.09-.82.12-.13,1.2.4.93-.69-5.03-2.86-12.41-4.56-18.12-3.03-.55-1.99-3.62.04-4.18-.47.09-1.7,2.09-2.3,3.25-3.25,6.27-.33,15.63-.66,20.68,3.71,1.32,1.14,2.1,3.2,3.78,4.13l17.83,9.14v16.51Z"/>
  <path class="cls-14" d="M67.53,192.66c-.67,5.03,1,8.29,6.28,8.83s20.97.06,23.56-5.24c.62-1.28.62-2.69.83-4.05,2.85.1,5.74-.13,8.59,0,5.65.28,27.39,2.13,31.14,5.11,1.46,1.16,1.54,1.71-.07,2.73-6.45,4.09-32.36,4.51-40.84,4.69-12.63.27-42.23.62-53.29-4.3-.93-.41-2.5-1.18-2.19-2.39.69-2.24,16.91-4.47,19.78-4.86,2.01-.28,4.27.32,6.21-.52Z"/>
  <path class="cls-4" d="M89.83,151.74c0-.08.39-.37.43-.74.14-1.32-.21-2.66.26-3.92l6.96-3.73c.35-.01,1.59,5.69,1.6,6.35.08,4.08-6.61,10.14-6.23,14.59l6.74-6.97-5.11,24.18c-2.93.36-17.84,1.19-19.4-.58-1.34-9.52-2.12-19.13-2.89-28.72l6.5-.93c.08.96-.09,1.81.2,2.83.23.82.87.91,1.2,1.36.13.18.07.8.44,1.17,1.83,1.9,6.51,1.58,9.01,1.64,1.58-1.2.31-3.4.31-4.2s-.02-1.55,0-2.33Z"/>
  <path class="cls-1" d="M106.57,58.73c-.02.14-.35.78-.46.93l-1.86.93c-5.02,2.18-4.99,4.74-8.38,8.59s-7.31,6.54-11.76,9.16c-1.21.71-7.71,3.69-7.99,4.09-.34.47-.23.89-.22,1.41l3.71-.93c.44.88-.43,1.95-.46,2.32-2.22,4.34-8.67,3.89-12.55,6.04-1.71-.96-3.65-1.76-5.35-2.78l1.17-.94c1.64-1.8-6.17-1.42-6.76-1.42-13.08,0-17.28-1.3-29.48-5.1-.25-.3-.59-.35-.93-.47-.14-.05-.32.04-.46,0-.07-.2-.26-.44-.46-.47-.15-.02-.31,0-.46,0-.68-1.88-2.26-.49-2.79-.47-.31.01-.62,0-.93,0-1.1.03-4.41.29-4.91-.44l-.71-6.96-5.94-1.03c-.83-1.19,2.35-8.1,2.74-9.71.98,2.47,2.58,4.07,4.18,6.05,3.98,4.92,5.9,5.67,11.61,8.37,12.59,5.95,24.85,7.68,38.67,4.99,10.83-2.11,26.96-9.41,32.42-19.4.41-.75,1.11-1.28.93-2.33,2.58-.09,3.12-6.31,3.25-8.37s-.1-4.36,0-6.51c.09.09.9.18,1.41.66,1.26,1.22,2.49,2.52,3.67,3.82-.19,1.7-3.11,2.09-3.19,3.63-.11,1.86,2.6,3.7,2.3,6.3Z"/>
  <path class="cls-15" d="M155.82,94.55l6.74,5.58c-15.4,11.26-35.79,21.34-48.98,35.15-1.2,1.26-2.57,3.23-3.31,4.83-.7-.07-.71-.7-.9-1.18-.91-2.38-1.53-4.97-2.35-7.39,2.02-3.22,4.17-5.77,5.45-9.46,2.17-6.22,2.21-13.08,4.32-19.17v7.67c-.66,6.02-1.45,11.43-3.96,16.97-1.02,2.26-2.73,4.12-3.25,6.51,5.13-4.7,9.79-10.14,15.1-14.64,8.55-7.24,19.57-13.24,27.65-20.69,1.1-1.01,2.6-2.91,3.49-4.18Z"/>
  <path class="cls-15" d="M89.83,151.74l-.7-7.91,8.84-5.1c1.01-.15.55.15.7.67.78,2.64,1.07,8.51,2.09,10.47s3.57.1,3.93.48c-1.6,9.74-3.66,19.49-3.23,29.46-.19.81-5.9,1.57-6.99,1.7l5.11-24.18-6.74,6.97c-.38-4.45,6.31-10.52,6.23-14.59-.01-.66-1.25-6.36-1.6-6.35l-6.96,3.73c-.47,1.26-.12,2.6-.26,3.92-.04.37-.43.66-.43.74Z"/>
  <path class="cls-13" d="M66.61,113.14c-2.38,1.09-3.55,3.18-6.02,4.44-1.64.84-3.73,1.56-5.59,1.61-3.7-3.97-6-11.13.52-13.67,5.63-2.19,11.07,1.62,11.1,7.62Z"/>
  <path class="cls-12" d="M82.77,119.09l-4.08,2.42c-.89-2.01-.05-3.62,0-5.35.09-4.05.09-8.05.47-12.08.69-7.26,2.41-14.46,2.78-21.77l1.57-.71,2.18,3.85c-1.9,11.12-2.4,22.39-2.92,33.64Z"/>
  <path class="cls-12" d="M108.85,145.17l-6.46,3.32c-.92-7.62-1.94-16.21-4.75-23.38-.92-2.34-3.18-4.37-2.68-7.31,8.73,6,11.23,17.69,13.89,27.38Z"/>
  <path class="cls-12" d="M87.51,153.6c-1.07-.09-6.25.39-6.53-.77,0-4.18-.32-8.29.03-12.47.16-1.88,2.56-15.38,3.55-15.61,3.83-.92,2.07,2.95,2.01,4.89-.25,8.01.15,16.02.95,23.97Z"/>
  <path class="cls-11" d="M78.21,188.48c4.83-.65,11.41,2.21,14.4,6.05v.47c-.11.02-.61.89-1.83,1.19-3.36.82-6.86.99-10.25,1.6.08-.94,1.2-3.45.93-3.72-.23-.22-1.66,0-2.1.45-.29.3-1.02,2.26-1.15,2.8h-4.18c.15-1.4,1.17-2.67.93-4.18-2.19-.17-2.5,1.56-2.79,3.25l-2.32-.47c-.18-3.87,4.96-6.98,8.36-7.44Z"/>
  <path class="cls-11" d="M160.93,59.67c.08.4-.12,1.1,0,1.4-3.15-.23-6.09,1.69-5.57,5.11,2.02.45,2.01-2.21,3.58-2.69.9-.27,1.98-.05,2.92-.1.03,4.21.68,6.41,2.7,10.09,1.07,1.96,3.13,3.47,3.34,5.73-.3-.02-.63.04-.93,0-4.14-.59-9.73-4.03-12.08-7.44-3.22-4.68-1.44-14.76,6.04-12.09Z"/>
  <path class="cls-16" d="M142.81,59.67c-2.42,1.01-5.6,1.77-7.43-.47-.14-.17-.15-.87-.65-1.42-.93-1.01-4.19-2.76-5.18-1.39l-.21,1.42c2.37-.51,5.26,2.27,3.05,4.22-1.16,1.02-4.17.28-3.05,2.76-.29.11-.82.91-1.39.93-.32-.26-.6-.72-.93-.93-.38-.95-.88-1.9-1.86-2.33-.03-.15.03-.32,0-.47-.81-4.16-1.23-5.89,2.84-8.08,5.57-3,14.65-1.64,14.81,5.76Z"/>
  <path class="cls-13" d="M154.89,71.76c2.35,3.42,7.94,6.85,12.08,7.44-.04,1.9-2.49,4.03-4.18,4.65-.7-.28-4.82-1.67-5.11-1.39.12,1.16.78,3.27,1.39,4.18-1.36,1.78-3.33.41-5.11.46-.05-.13.04-.32,0-.47-.06-.22-.25-.39-.46-.47-1.45-1.53-1.72-3.31-2.32-5.12l2.32.46-1.85-6.97c1.01-.93,1.75-2.22,3.25-2.79Z"/>
  <path class="cls-8" d="M105.17,116.86c.24-.11.86.07,1.38-.22,1.37-.78,3.54-9.98,4.57-12.18.26-.55,2.97-5.24,3.8-4.33-2.52,9.71-2.54,19.76-8.37,28.36-1.02.7-2.61-4.05-3.15-4.97-.64-1.08-1.74-2.89-2.41-3.86,1.43-1.08,2.51-2.03,4.18-2.79Z"/>
  <path class="cls-14" d="M123.3,71.29c1.63,1.42,3.25,2.78,5.58,2.8-1.55,5.64-8.35,8.06-12.97,10.96-2.26,1.42-4.3,3.13-6.5,4.63l-1.32-.36c-.66-1.35-1.26-2.75-1.98-4.07,4.01-1.23,8.6-4.26,11.84-6.99,1.82-1.53,5.38-4.55,5.36-6.96Z"/>
  <path class="cls-14" d="M48.49,123.37c1.23,1.39,3.04,2.23,4.4,3.26.7.53-3.44,2.34-3.95,2.54-5.01,1.96-10.06,2.52-15.1.24-2.81-1.27-5.86-4.01-6.73-6.98,2.1.33,3.14,2.05,5.26,2.87,5.79,2.25,10.69.02,16.11-1.94Z"/>
  <path class="cls-1" d="M170.22,79.2c-.77-.04-1.56.06-2.32,0-.2-2.26-2.27-3.77-3.34-5.73-2.02-3.68-2.67-5.88-2.7-10.09,0-.04.46-.26.39-.61-.11-.53-1.05-1.03-1.32-1.71-.12-.3.08-.99,0-1.4,4.99,1.78,10.12,11.38,10.23,16.53.03,1.53-.38,1.84-.94,3Z"/>
  <path class="cls-12" d="M81.94,122.91c.2.22-.74,4.62-1.04,5s-7.41,3.73-8.54,4.24c-1.31.59-7.06,3.22-7.93,3.23-.82,0-3.18-2.31-2.9-3.34l.72-.71,19.69-8.42Z"/>
  <path class="cls-14" d="M67.07,146.62c-.93.02-1.86,0-2.79,0l.53-9.24,14.57-6.12c1.56-.23-.07,2.67-.2,3.53-.33,2.29-.09,8.24-.57,9.66-.4,1.19-1.86.61-2.72.76-.06-2.53.05-5.14.5-7.64.16-.91,1.71-2.83.19-2.6-4.36.65-10.7,6.7-9.52,11.63Z"/>
  <path class="cls-14" d="M68.47,117.79c-.41,1.55-.75,1.36-.89,1.76-.18.53-.68,3.18-.51,3.35l9.29-.46c-.18.75-1.57,1.35-2.23,1.73-2.5,1.41-12.81,5.91-15.19,5.74-1.64-.12-3.8-1.26-2.59-3.07,2.5-3.73,6.35-2.86,9.29-5.59,1.18-1.1,1.53-2.56,2.82-3.46Z"/>
  <path class="cls-12" d="M77.29,103.84c-4.3-2.05-8.7-4.09-12.85-6.43-1.48-.84-3.32-1.8-4.68-2.75-.34-.24-.81.13-.51-.74.47-1.4,1.8-2.3,3.31-2.08,1.08.16,7.53,3.67,9.01,4.48,3.64,2,6.75,2.56,5.72,7.52Z"/>
  <path class="cls-8" d="M67.07,146.62c-1.17-4.93,5.16-10.98,9.52-11.63,1.52-.23-.03,1.7-.19,2.6-.45,2.49-.56,5.1-.5,7.64-3.01.54-5.69,1.33-8.83,1.39Z"/>
  <path class="cls-12" d="M110.28,100.59c-2.36,6.89-7.03,12.41-12.7,16.67l-3.52-1.84.05-1.27,16.17-13.56Z"/>
  <path class="cls-11" d="M79.16,85.24c-.38,4.01-.47,8.12-1.4,12.09-3.78-1.89-7.46-3.98-11.14-6.05,3.87-2.15,10.32-1.7,12.55-6.04Z"/>
  <path class="cls-8" d="M88.91,130.35l4.64-1.86,2.33,8.84c-.85.56-6.17,4.55-6.97,3.72.17-3.53-.23-7.18,0-10.69Z"/>
  <path class="cls-2" d="M16.89,144.75c-.68,2.51.09,4.47.43,6.93-3.94,1.99-9.43,7.08-8.8-1.35,1.76-3.32,4.72-4.83,8.36-5.58Z"/>
  <path class="cls-14" d="M35.02,92.67c-.74.2-2.86,1.05-3.3,1.62-.53.68.13,2.98-1.66,3.45-2.35.62-3.07-3.92-2.26-5.57l2.58-.44c-.1-2.14-3.91-4.79-2.36-6.78,1.26-1.62,6.84,1.82,8.86,1.67-.12.91-1.67.65-2.32,1.17-.56.44-.41,1.11-.46,1.15-1.16.96-3.16,1.55-3.25,3.25.56.51,3.63-1.52,4.18.47Z"/>
  <path class="cls-18" d="M25.25,144.29c1.27.18,5.44,2.04,6.65,2.78.43.26.27.92.31.94-2.06,2.06-3.27,2.85-3.25,6.05,0,.3-.05.67,0,.93-1.78.33-3.48-1.63-5.11-1.86-1.14-3.32.24-5.83,1.4-8.84Z"/>
  <path class="cls-18" d="M37.8,152.66c1.49,1.38,2.94,3.06,4.65,4.19-.96.11-2.81,1.77-3.28,2.54-.6.98-.26,1.42-.44,2.11-.12.46-.79,1.05-.46,1.86-3.09-1.96-3.18-2.27-5.57-4.65.35-.61.24-1.87.46-2.33.66-1.36,3.07-3.55,4.65-3.72Z"/>
  <path class="cls-16" d="M25.25,144.29c-1.16,3.01-2.53,5.52-1.4,8.84-1.16-.16-3.02.17-4.18.46-1.81-3.19-3.13-5.46-1.86-9.3,1.67-.19,5.81-.23,7.43,0Z"/>
  <path class="cls-2" d="M52.2,159.18c-.41,2.2.27,3.33.93,5.12.29.78.41,1.62.93,2.33-3.17.51-4.73.49-7.9,0,.08-.78-.43-1.64-.46-2.33-.09-2.04.42-3.67.93-5.58,1.89.43,3.63.67,5.58.47Z"/>
  <path class="cls-18" d="M61.96,154.53c1,.7,1.83,1.57,2.79,2.33.82.65,1.82.96,2.32,1.86-2.46,2.69-1.63,2.47-5.11,4.65-.51-.57-1.93-.99-2.32-1.4-1.26-1.29-1.56-3.93-3.25-4.19.97-.44,5-2.68,5.58-3.25Z"/>
  <path class="cls-19" d="M88.9,184.29c2.51-.06,4.93-.49,7.44-.47-.76,3.6.49,9.44-1.86,12.09-.63.13-1.61-.98-1.86-.93v-.47s.41-7.39.41-7.39c-.34-.4-5.35-.7-6.45-.98-.77-.19-1.71-1.02-2.72-1.01l-.06-.86c1.39-.02,2.79.03,4.18,0l.69.46.24-.46Z"/>
  <path class="cls-13" d="M86.58,186.15c1.11.28,6.12.58,6.45.98l-.41,7.39c-2.99-3.83-9.57-6.7-14.4-6.05,0-.31,0-.62,0-.93,2.12.13,4.2-.09,6.28-.45.81-.14,1.76.21,2.08-.94Z"/>
  <path class="cls-8" d="M48.95,109.42c-.25,5.45,3.13,11.07,7.43,14.19l-.77,1.1c-6.64-.17-10.07-9.09-8.3-14.84l1.63-.46Z"/>
  <path class="cls-14" d="M95.88,137.32l-2.33-8.84-4.64,1.86c.08-1.26-.17-2.5.94-3.48.48-.42,4.63-2.29,5.13-1.9l3.2,10.77c-.04,1.45-1.69,1.19-2.3,1.59Z"/>
  <path class="cls-16" d="M37.8,152.66c-1.58.17-3.99,2.36-4.65,3.72-1.35-.84-2.44-2.4-4.18-2.33-.02-3.2,1.19-3.99,3.25-6.05,2.79,1.93,3.14,2.39,5.57,4.65Z"/>
  <path class="cls-14" d="M52.21,96.39c-.06.06.13.63-.09.82-.46.4-8.42-.91-10.31-.76-3.11.24-6.39,1.78-9.12,3.2.09-.13-.07-.91.26-1.35,1.86-2.54,2.71-3.93,6.08-4.17,4.57-.32,8.74,1.74,13.18,2.27Z"/>
  <path class="cls-19" d="M66.61,113.14c.02,3.62-1.38,5.92-4.62,7.7-3.91,2.14-4.47,1.06-6.99-1.65,1.87-.05,3.95-.77,5.59-1.61,2.47-1.26,3.64-3.34,6.02-4.44Z"/>
  <path class="cls-13" d="M42.44,156.85c1.52,1,2.37,1.45,4.18,1.86-.51,1.91-1.02,3.54-.93,5.58l-6.97-2.79c.18-.69-.16-1.13.44-2.11.47-.77,2.32-2.43,3.28-2.54Z"/>
  <path class="cls-18" d="M17.82,144.29c-1.27,3.84.05,6.11,1.86,9.3-3.03.77-5.58,3.98-8.37,3.53s-4.21-2.96-3.7-5.64c.19-.97.84-1,.92-1.15-.63,8.43,4.86,3.34,8.8,1.35-.35-2.46-1.11-4.42-.43-6.93.15-.03.46-.41.93-.46Z"/>
  <path class="cls-8" d="M126.09,70.36c-.26-.18-.85-.14-1.42-.65-2.34-2.13-7.71-11.27-2.3-11.9-.5,2.96,2.42,8.46,4.65,10.23l-.93,2.33Z"/>
  <path class="cls-16" d="M59.63,161.97c-1.94,1.29-4.28,1.79-6.5,2.32-.66-1.78-1.34-2.92-.93-5.12,1.49-.15,2.84-.79,4.18-1.39,1.69.25,1.99,2.9,3.25,4.19Z"/>
  <path class="cls-12" d="M92.11,116.45l.51,5.53-7.37-1.92c.17-3.33,3.99-4.14,6.86-3.61Z"/>
  <path class="cls-15" d="M72.18,152.2c-.09-1.12-.86-3.43-.02-3.98.25-.16,5.1-1.03,5.86-1.12,1.24-.15.59,3.13.67,4.17l-6.5.93Z"/>
  <path class="cls-1" d="M94.47,195.92c-2.64,2.97-10.2,2.98-13.94,3.72.03-.61-.05-1.25,0-1.86,3.39-.61,6.89-.78,10.25-1.6,1.22-.3,1.72-1.17,1.83-1.19.25-.05,1.23,1.06,1.86.93Z"/>
  <path class="cls-15" d="M89.83,154.07c0,.81,1.27,3-.31,4.2-2.5-.06-7.18.27-9.01-1.64-.36-.38-.3-.99-.44-1.17,2.58-.91,9.51,2.63,9.76-1.39Z"/>
  <path class="cls-2" d="M83.79,184.29l.06.86c1.01-.01,1.95.81,2.72,1.01-.33,1.15-1.27.8-2.08.94-2.08.37-4.16.59-6.28.45,0-1.08,0-2.18,0-3.26,1.85-.02,3.72.03,5.58,0Z"/>
  <path class="cls-19" d="M129.34,64.78c3.72-1.38,4.14,1.37,7.43,1.4l-1.86,2.32c-.15,0-.31.01-.46,0-1.27-.1-2.45-.42-3.72-.47-.27-.15-.83-.4-.93-.47-.35-.81-.94-1.36-1.86-1.4v-.47c.57-.02,1.1-.82,1.39-.93Z"/>
  <path class="cls-19" d="M61.95,163.36c-3.15,1.97-3.91,2.61-7.9,3.25-.52-.7-.64-1.54-.93-2.33,2.22-.54,4.57-1.03,6.5-2.32.39.4,1.81.82,2.32,1.4Z"/>
  <path class="cls-18" d="M162.79,83.85c.3.12.82.9,1.39.93-.85.76-2.02,2.18-3.25,3.25-.41-.39-1.63-1.05-1.86-1.4-.61-.91-1.27-3.03-1.39-4.18.29-.28,4.41,1.12,5.11,1.39Z"/>
  <path class="cls-15" d="M163.71,97.8c-.73.77-4.27-2.79-4.55-3.59-.82-2.37,1.33-2.21,2.46-3.85.88,2.4,2.35,4.79,2.09,7.44Z"/>
  <path class="cls-14" d="M107.03,98.73c-2.07,2.89-3.28,3.96-6.04,6.51,0-1.4,2.96-7.68,3.7-8.16.99-.63,1.93,1.06,2.34,1.65Z"/>
  <path class="cls-19" d="M69.85,153.6c-.14,2.58.17,2.67-1.63,4.67-.32.35-1.08.35-1.16.45-.5-.9-1.5-1.21-2.32-1.86,1.66.12,1.85-3.29,1.86-4.65.87.46,2.35.68,3.25,1.4Z"/>
  <path class="cls-19" d="M45.69,164.29c.03.68.55,1.54.46,2.33-4.13-.64-4.61-1.17-7.9-3.26-.33-.81.35-1.4.46-1.86l6.97,2.79Z"/>
  <path class="cls-16" d="M66.6,152.2c0,1.36-.2,4.77-1.86,4.65-.96-.76-1.79-1.63-2.79-2.33.35-.36,1.73-2.93,2.32-3.72,1.08-.05,1.66,1.05,2.32,1.4Z"/>
  <path class="cls-12" d="M69.85,153.6c-.91-.71-2.38-.93-3.25-1.4-.66-.35-1.25-1.44-2.32-1.4.32-.42.4-1.32.92-1.63.27-.15,3.68-.72,3.9-.66,1.14.32.81,4,.75,5.08Z"/>
  <path class="cls-19" d="M160.93,88.04c-1.35,1.18-2.69,2.42-3.95,3.71-.99-1.5-2.41-2.94-3.02-4.64,1.78-.05,3.75,1.31,5.11-.46.23.34,1.45,1,1.86,1.4Z"/>
  <path class="cls-2" d="M151.64,74.55l1.85,6.97-2.32-.46c-.52-1.58-1.44-3.11-1.41-4.86.22-1.62,1.48-1.29,1.87-1.65Z"/>
  <path class="cls-16" d="M167.9,79.2c.77.06,1.55-.04,2.32,0-.84,1.74-1.8,2.63-3.25,3.96-.89.81-2.42,1.29-2.79,1.62-.57-.03-1.09-.81-1.39-.93,1.69-.62,4.14-2.75,4.18-4.65.3.04.63-.02.93,0Z"/>
  <path class="cls-14" d="M100.99,119.65c-.16-.23-1.67-1-1.39-1.39,2.5-.93,4.04-3.7,5.82-5.58,1.57-.67-.34,3.83-.24,4.18-1.67.76-2.75,1.71-4.18,2.79Z"/>
  <path class="cls-14" d="M126.09,70.36l.93-2.33c.89.71,5.57,2.24,5.57,2.56-2.63,2.89-4.02,1.52-6.5-.23Z"/>
  <path class="cls-14" d="M46.63,107.55v-4.65c.69-.08,1.11-.01,1.66.43,1.2.96.36,3.37,2.05,3.29-1.95,1.36-1.57.69-3.72.93Z"/>
  <path class="cls-19" d="M33.15,156.38c-.22.46-.12,1.72-.46,2.33-1.29-1.28-3.32-1.7-3.72-3.72-.05-.26,0-.63,0-.93,1.74-.08,2.83,1.49,4.18,2.33Z"/>
  <path class="cls-1" d="M78.21,197.31c-.21.88.63,2.42-.69,2.33-1.15-.07-2.28-.66-3.48-.48.01-.61-.07-1.25,0-1.85h4.18Z"/>
  <path class="cls-12" d="M52.67,89.41c-.67-.68.05-.84.69-.93,6.28-.84,5.38,4.71-.69.93Z"/>
  <path class="cls-10" d="M72.17,196.38c-.12.68.3,1.83-.23,2.32-1.42-.88-2.01-.99-2.09-2.79l2.32.47Z"/>
  <path class="cls-7" d="M134.45,68.5c-.68.63-1.71.61-2.56.47-1.01-.17-1.01-.86-1.16-.93,1.26.04,2.45.37,3.72.47Z"/>
  <path class="cls-7" d="M23.87,80.11c-.88-.05-2.27.35-2.79-.47.52-.02,2.11-1.42,2.79.47Z"/>
  <path class="cls-7" d="M127.02,64.78c-.48-.31-1.28-.4-1.63-.94s-.14-.98-.23-1.38c.98.43,1.48,1.38,1.86,2.33Z"/>
  <path class="cls-2" d="M88.9,184.29l-.24.46-.69-.46c.31,0,.62,0,.93,0Z"/>
  <path class="cls-7" d="M129.8,67.57c-.53-.37-1.68-.88-1.86-1.4.92.03,1.51.59,1.86,1.4Z"/>
  <path class="cls-7" d="M106.11,59.66c-.68.87-1.15.62-1.86.93l1.86-.93Z"/>
  <path class="cls-7" d="M26.19,81.04c-.34-.11-.75.02-.93-.47.34.12.68.16.93.47Z"/>
  <path class="cls-7" d="M24.8,80.58c-.21-.07-.38-.26-.46-.47.21.03.4.26.46.47Z"/>
  <path class="cls-19" d="M153.96,86.64c-.17-.14-.31-.31-.46-.47.21.08.4.25.46.47Z"/>
  <path class="cls-12" d="M110.52,99.66c.3.16.3.31,0,.47v-.47Z"/>
  <path class="cls-8" d="M115.16,99.19c.3.16.3.31,0,.47v-.47Z"/>
  <path class="cls-15" d="M104.93,149.42c.3.16.3.31,0,.47v-.47Z"/>
  <path class="cls-13" d="M96.82,35.48c0,5-3.34,8.26-4.65,12.55,3.87,1.03,6.67-2.36,9.29-4.64.29.3.63.63.93.93-.1,2.15.14,4.36,0,6.51-1.57.63-2.72,1.69-4.33,2.41-1.92.86-9.1,2.1-4.35,4.66.91.49,4.49,1.34,5.43,1.31.18,1.05-.52,1.58-.93,2.33-3.43.78-6.12,1.3-9.55.03-3.03-1.13-5.28-4.33-7.95-6-1.5-.94-4.9-1.7-5.27-1.94-.06-.04.02-1.08-.74-1.33-2.63-.87-4.7.83-6.95,1.3-1.99.42-3.54-.48-5.66,1.1-.35.26-.42,1.13-.58,1.25-.33.25-1.93.39-2.65.84-9.5,5.88-6.21,16.93-21.51,19.16h-6.97s-.93,0-.93,0v-.93c2.46-1.46,7.05-3.68,6.51-6.97-5.45.51-10.38.7-15.8,0-1.04-2.26-1.73-3.59-2.32-6.05,4.66.56,9.32,1.85,13.88-.06.11-.6.31-1.42-.23-1.85-.84-.67-9.45-3.85-11.32-4.61-.11-.18-.27-.39-.46-.47-.14-.06-.35.06-.46,0-.56-.67-1.27-1.77-1.86-2.33.15-1.99-.43-4.21.47-6.05,12.6-6.2,24.9-9.6,38.57-12.55h.46s.93,0,.93,0c2.67,2.98,5.68,3.62,5.58-1.39.15-.03.31.03.46,0l.46-.46c4.81-.77,10.74-1.59,15.57-1.85,3.04-.16,10.85-.51,13.47,0,1.43.27,2.75,3.77,3.48,5.12ZM80.42,33.69c-1.03.16-6.59,4.21-6.37,5.27,1.55,2.61,8.17-3.34,7.9-4.63-.12-.58-.92-.73-1.53-.63ZM80.43,41.6c-4.55.95-2.75,10.7,2.57,9.6,4.14-.85,2.87-10.74-2.57-9.6ZM50.29,43.44l-9.23-1.46c-.92,2.75,4.28,2.99,6.33,3.19.99.1,1.98.09,2.96.06l-.07-1.79ZM46.05,49.05c-4.12.91-2.63,10.82,3.05,9.11,3.87-1.16,2.47-10.33-3.05-9.11Z"/>
  <path class="cls-8" d="M58.72,22.91c-1.88,2.79-5.14-1.26-5.11,4.18,0,.03-.49.14-.26.45.08.1,1.67,1.7,1.78,1.76.5.3.98.03,1.27.12.8.25,2.26.82,2.79.93.27,1.49-.74.77-1.6.94-12.52,2.43-26.31,6.43-37.9,11.61.4-2.74-.91-5.53.47-7.91,8.35-4.15,29.97-12.62,38.57-12.09Z"/>
  <path class="cls-8" d="M60.58,22.91c-.26-1.5.76-.78,1.62-.91,6-.9,21.4-2.95,26.22.25.88.59,5.2,4.82,4.21,5.78-7.23-.27-14.37.23-21.54.99-3.45.37-7.81,1.83-10.98,1.33.17-.98.85-1.29,1.39-1.86,1.25-1.32,1.73-1.04,1.39-3.26-.25-1.68-.39-1.82-2.32-2.33Z"/>
  <path class="cls-13" d="M18.3,16.4c.76.25,1.2-.03,2.4.62,1.69.93,4.35,4.83,5.33,4.85l5.74-3.14,10.22,5.12c-7.61,2.28-19.44,6.9-26.48,10.69-.34-2.11,6.04-8.25,5.97-8.99-.79-2.01-3.88-4.29-5.97-4.5l2.79-4.65Z"/>
  <path class="cls-11" d="M15.51,21.05c2.09.21,5.18,2.49,5.97,4.5.06.74-6.31,6.88-5.97,8.99-.6.32-1.26.39-1.39.46-2.59-1.16-5.21-3.54-5.57-6.51-.48-3.92,2.96-7.83,6.97-7.44Z"/>
  <path class="cls-2" d="M18.3,16.4l-2.79,4.65c-4.01-.39-7.45,3.52-6.97,7.44-1.8-.45-2.55,1.42-3.25,1.86-.09.06-.3-.03-.46,0-.11.02-1.37-.32-1.86,0-1.61-8.43,4.54-15.88,13.26-14.89,1.42.16,1.59.79,2.07.94Z"/>
  <path class="cls-2" d="M55.94,11.75c1.49,2.58,2.83,5.38,3.25,8.37-2.55.41-6.56.9-8.83,1.39-1.54-3.11-4.42-5.2-6.5-7.91,4.89-1.35,6.95-1.69,12.08-1.86Z"/>
  <path class="cls-2" d="M74.99,5.24c.06-.05.09-.92.66-1.41,4.79-4.17,17.56.43,17.5,7.24,0,.82-.92.95-.97,1.15-.97-.18-2.22.05-3.25-.47-1.43-1.6-2.04-3.1-4.3-3.83-1.94-.63-3.51-.02-4.99-.36-.77-.17-3.64-1.88-4.65-2.33Z"/>
  <path class="cls-11" d="M79.63,7.57c1.48.33,3.05-.27,4.99.36,2.27.73,2.88,2.23,4.3,3.83-.19,2.22.73,5.46-1.39,6.98-3.41-2.16-7.41-5.02-11.15-6.51l3.25-4.65Z"/>
  <path class="cls-2" d="M38.74,15.47c2.44,2.25,5.53,4.34,6.97,7.44-1.19.32-2.69.62-3.72.93l-10.22-5.12c1.61-2.15,4.76-2.41,6.97-3.25Z"/>
  <path class="cls-14" d="M20.16,35c-1.38,2.38-.07,5.17-.47,7.91-2.59,1.16-5.62,3.21-8.13,4.65-.21-1.75.74-7.1,1.61-8.51.82-1.33,5.48-3.29,6.99-4.05Z"/>
  <path class="cls-16" d="M68.48,12.68c5.45,1.04,10.21,2.79,14.87,5.82-4.98.2-9.92.34-14.87.7v-6.51Z"/>
  <path class="cls-18" d="M17.37,52.67c.59.56,1.3,1.66,1.86,2.33-.75-.4-1.25-1.17-2.32-.93-.19,2.52.4,4.99.93,7.44l-6.04-1.86c.48-3.8-1.51-8.88,1.86-11.16.59,2.13,2.47,3.02,3.72,4.19Z"/>
  <path class="cls-2" d="M101.46,43.38c-2.62,2.29-5.43,5.67-9.29,4.64,1.3-4.29,4.65-7.55,4.65-12.55,1.36,2.52,2.66,5.83,4.65,7.91Z"/>
  <path class="cls-16" d="M43.86,13.61c2.08,2.71,4.97,4.8,6.5,7.91-.93.2-3.24,1.02-4.65,1.39-1.44-3.1-4.52-5.19-6.97-7.44,2.05-.78,2.7-1.19,5.11-1.86Z"/>
  <path class="cls-18" d="M68.48,12.68v6.51c-1.5.11-3.21-.18-4.65,0l-2.32-7.44c2.59.15,4.46.45,6.97.93Z"/>
  <path class="cls-16" d="M56.87,11.75c1.53,0,3.12-.09,4.65,0l2.32,7.44c-1.21.15-3.11.69-4.65.93-.43-2.99-1.77-5.79-3.25-8.37.15,0,.31,0,.46,0s.31,0,.46,0Z"/>
  <path class="cls-19" d="M17.83,61.51c.03.15-.04.32,0,.47.59,2.46,1.28,3.78,2.32,6.05-1.54-.2-3.08-.55-4.65-.47-1.6-1.98-3.2-3.57-4.18-6.05.11-.44.44-1.66.46-1.86l6.04,1.86Z"/>
  <path class="cls-16" d="M74.99,5.24c1,.44,3.87,2.15,4.65,2.33l-3.25,4.65c-1.41-.56-3.94-.43-5.08-1.66-.1-.46,1.65-4.46,2.07-4.86.63-.6,1.48-.36,1.62-.46Z"/>
  <path class="cls-13" d="M8.54,28.49c.36,2.97,2.98,5.35,5.57,6.51-.14.08-2.13,1.68-2.32,1.86-3.08-.82-6.21-3.15-6.5-6.51.71-.44,1.45-2.31,3.25-1.86Z"/>
  <path class="cls-20" d="M60.58,22.91c1.93.5,2.07.65,2.32,2.33-1.47,1.83-2.58.49-4.18,0l-.02,1.85h-.45c-.3-.77-.41-1.83-1.62-1.86l-.24,2.33-2.79-.47c-.03-5.45,3.23-1.39,5.11-4.18.57.04,1.4-.12,1.86,0Z"/>
  <path class="cls-16" d="M92.18,12.22c-.24.88.08,2.28-.31,3.64-.32,1.11-1.5,3.04-2.48,3.8-.62-.34-1.18-.5-1.86-.93,2.12-1.52,1.21-4.76,1.39-6.98,1.03.52,2.29.28,3.25.47Z"/>
  <path class="cls-19" d="M5.29,30.35c.3,3.37,3.42,5.7,6.5,6.51-.1.09-.03.92-.43,1.19l-.7.21c-2.74-.79-6.46-3.56-7.14-6.4-.34-1.41.35-1.02,1.31-1.52.17-.03.38.06.46,0Z"/>
  <path class="cls-2" d="M63.37,32.68c.1,5.02-2.91,4.38-5.58,1.39,1.38-1.42,3.79-1.09,5.58-1.39Z"/>
  <path class="cls-19" d="M89.39,19.66c.97-.76,2.16-2.69,2.48-3.8.4-1.37.07-2.76.31-3.64,3.03.57.46,6.82-1.22,8.34-1.18.36-1.33-.77-1.57-.9Z"/>
  <path class="cls-19" d="M17.37,52.67c-1.24-1.17-3.12-2.05-3.72-4.19,1.07-.72,2.98-1.27,4.18-1.86-.9,1.83-.31,4.05-.47,6.05Z"/>
  <path class="cls-3" d="M58.26,27.1c.18.46-.18,1.41.7,1.86l.23-1.85c1.58.21,3.46-.91,2.32,1.39-.54.57-1.22.88-1.39,1.86-.29-.05-.65.06-.93,0-.53-.11-1.99-.68-2.79-.93l-.93-.92,2.78-1.4Z"/>
  <path class="cls-2" d="M56.86,34.08h-.46c.11-.02.22-.32.46,0Z"/>
  <path class="cls-2" d="M63.83,32.68s.1-.41.46-.46l-.46.46Z"/>
  <path class="cls-2" d="M56.87,11.75c-.15,0-.31,0-.46,0l.23-.46.23.46Z"/>
  <path class="cls-19" d="M135.38,59.2c1.83,2.24,5.02,1.47,7.43.47.12,5.4-7.29,5.51-7.85,3.42l.41-3.88Z"/>
  <path class="cls-6" d="M96.35,92.21c-.44-.9-.6-1.9-1.85-2.33l-.07,3.19c-4.9,2.55-6.09-4.41-1.46-4.96.92-.11,1.86.55,2.6.41.35-.07.75-1.86,2.5-2.26,5.74-1.32,5.42,6.07,1.39,4.95-1.29-.36-.74-2.11-2.18-1.8v2.79c-.3.04-.64-.05-.93,0Z"/>
  <path class="cls-20" d="M96.35,92.21c.43.87.3,2.82,2.32,2.79l-.46-3.25c1.66,1.73,2.37.06,4.17-.24-.85,2.09-1.9,4.19-3.93,5.37l-6.27-2.11c.79-1.08,2.11-.65,3.25-.69v-1.87c.3-.04.64.05.93,0Z"/>
  <path class="cls-11" d="M98.21,61.52c-5.46,9.99-21.59,17.29-32.42,19.4-13.81,2.69-26.08.95-38.67-4.99h1.39s.93,0,.93,0h.93c1.21.73,3.86.62,5.4.5.86-.06,1.32-.46,1.57-.5,15.3-2.22,12.01-13.28,21.51-19.16.72-.45,2.32-.59,2.65-.84.16,3.03,5.1,3.76,7.44,3.72,1.15,3.94-3.87,6.62-7.1,5.01-.76-.38-4.58-4.26-3.96-.69.7,4.01,8.4,3.67,11.22,1.67.74-.52,1.33-1.81,1.52-1.84,1.51-.24,3.57,2.23,7.18.31,1.41-.75,4.16-4.72,2.05-5.38-1.95-.61-1.35,2.81-3.45,3.51-2.54.84-5.46-.06-4.68-3.19.11-.45,4.87-3.08,3.73-5.44.36.24,3.77,1,5.27,1.94,2.66,1.66,4.91,4.87,7.95,6,3.43,1.28,6.12.76,9.55-.03Z"/>
  <path class="cls-2" d="M20.15,68.02c5.42.7,10.35.51,15.8,0,.54,3.3-4.04,5.51-6.51,6.97-.28.17-1.22-.4-.93.93h-1.39c-5.72-2.7-7.64-3.46-11.61-8.37,1.57-.08,3.11.27,4.65.47Z"/>
  <path class="cls-2" d="M102.39,50.82c-.13,2.06-.68,8.28-3.25,8.37-.94.03-4.52-.81-5.43-1.31-4.74-2.56,2.43-3.8,4.35-4.66,1.61-.72,2.77-1.78,4.33-2.41Z"/>
  <path class="cls-4" d="M116.79,102.91c.61-1.77,1.27-3.61,2.56-5.12,6.81-4.9,13.11-10.48,19.79-15.54,1.17-.88,6.85-5.26,7.62-5.39,1.02-.18.57.2.69.7,1.58,6.59,4.74,11.41,8.37,16.98-.89,1.27-2.39,3.17-3.49,4.18-8.08,7.45-19.1,13.44-27.65,20.69-5.31,4.5-9.97,9.94-15.1,14.64.52-2.39,2.23-4.25,3.25-6.51,2.51-5.55,3.3-10.96,3.95-16.97v-7.67Z"/>
  <path class="cls-12" d="M160.93,61.06c.27.68,1.2,1.18,1.32,1.71.07.36-.39.57-.39.61-.94.05-2.02-.18-2.92.1-1.57.48-1.56,3.14-3.58,2.69-.52-3.42,2.43-5.34,5.57-5.11Z"/>
  <path class="cls-9" d="M75.44,53.61c1.14,2.36-3.61,4.99-3.73,5.44-.78,3.13,2.15,4.02,4.68,3.19,2.1-.69,1.5-4.12,3.45-3.51,2.1.66-.64,4.62-2.05,5.38-3.6,1.92-5.66-.54-7.18-.31-.19.03-.78,1.31-1.52,1.84-2.82,2.01-10.52,2.34-11.22-1.67-.63-3.57,3.2.31,3.96.69,3.23,1.61,8.25-1.07,7.1-5.01-2.33.04-7.27-.69-7.44-3.72.16-.12.23-1,.58-1.25,2.12-1.57,3.67-.68,5.66-1.1,2.25-.47,4.32-2.17,6.95-1.3.76.25.68,1.29.74,1.33Z"/>
  <path class="cls-2" d="M19.23,55c.11.06.33-.06.46,0,.12.17.27.39.46.47,1.88.76,10.48,3.93,11.32,4.61.54.43.34,1.25.23,1.85-4.56,1.91-9.22.62-13.88.06-.04-.15.03-.32,0-.47-.52-2.45-1.11-4.92-.93-7.44,1.07-.24,1.57.52,2.32.93Z"/>
  <path class="cls-7" d="M80.43,41.6c5.43-1.13,6.7,8.75,2.57,9.6-5.32,1.09-7.11-8.65-2.57-9.6Z"/>
  <path class="cls-7" d="M46.05,49.05c5.52-1.21,6.92,7.95,3.05,9.11-5.68,1.71-7.17-8.21-3.05-9.11Z"/>
  <path class="cls-7" d="M80.42,33.69c.61-.1,1.41.06,1.53.63.27,1.29-6.35,7.24-7.9,4.63-.22-1.06,5.34-5.1,6.37-5.27Z"/>
  <path class="cls-7" d="M50.29,43.44l.07,1.79c-.99.03-1.97.04-2.96-.06-2.05-.2-7.25-.45-6.33-3.19l9.23,1.46Z"/>
  <path class="cls-1" d="M37.34,75.93c-.25.04-.71.43-1.57.5-1.53.12-4.19.23-5.4-.5h6.97Z"/>
  <path class="cls-1" d="M29.44,75v.93s-.93,0-.93,0c-.29-1.33.65-.76.93-.93Z"/>
  <path class="cls-18" d="M20.15,55.46c-.19-.08-.34-.3-.46-.47.19.08.35.29.46.47Z"/>
  <path class="cls-17" d="M58.26,27.1h.45s.02-1.86.02-1.86c1.6.49,2.71,1.83,4.18,0,.34,2.21-.15,1.94-1.39,3.26,1.14-2.3-.74-1.18-2.32-1.39l-.23,1.85c-.89-.45-.52-1.39-.7-1.86l-2.78,1.4.93.92c-.29-.09-.76.18-1.27-.12-.11-.06-1.7-1.66-1.78-1.76-.23-.3.26-.42.26-.45l2.79.47.24-2.33c1.21.03,1.32,1.09,1.62,1.87Z"/>
</svg>