<?xml version="1.0" encoding="UTF-8"?>
<svg id="_레이어_1" data-name="레이어 1" xmlns="http://www.w3.org/2000/svg" viewBox="0 0 181.53 204.48">
  <defs>
    <style>
      .cls-1 {
        fill: #575044;
      }

      .cls-2 {
        fill: #5e8448;
      }

      .cls-3 {
        fill: #c9cdd1;
      }

      .cls-4 {
        fill: #232028;
      }

      .cls-5 {
        fill: #efefed;
      }

      .cls-6 {
        fill: #201f1e;
      }

      .cls-7 {
        fill: #762946;
      }

      .cls-8 {
        fill: #81a955;
      }

      .cls-9 {
        fill: #926f51;
      }

      .cls-10 {
        fill: #2a272b;
      }

      .cls-11 {
        fill: #70787b;
      }

      .cls-12 {
        fill: #ead9bc;
      }

      .cls-13 {
        fill: #fafaf9;
      }

      .cls-14 {
        fill: #5d203c;
      }

      .cls-15 {
        fill: #769655;
      }

      .cls-16 {
        fill: #c1c9ce;
      }

      .cls-17 {
        fill: #d58541;
      }

      .cls-18 {
        fill: #444640;
      }

      .cls-19 {
        fill: #bf6d32;
      }

      .cls-20 {
        fill: #e5e4e2;
      }
    </style>
  </defs>
  <path class="cls-10" d="M132.24,58.93c3.29-3.61,5.55-8.37,8.53-11.46,3.28-3.4,9.6-6.66,13.53-9.94,4.47-3.73,9.41-8.84,13.25-13.25,2.08-2.39,4.39-7.85,8.4-6.53,2.82.93,2.51,7.25,2.18,9.68-.35,2.6-1.64,4.98-2.67,7.33,4.44-1.71,6.21-1.72,6.06,3.51-.15,5.35-3.76,9.96-7.46,13.47,1.73.5,3.43-.36,4.3,1.76,2.01,4.89-9.25,13.92-13.6,15.21.14.9,1.64.46,2.33,1.14,1.74,1.73-.78,4.59-2.12,5.82-3.84,3.52-10.02,5.12-15.04,6.1,1.05,5.24-5.14,5.63-8.87,6.01l4.96,4.09c8.14,6.74,19.19-.11,27.79-.41,6.19-.21,2.87,6.2-.7,7.49v.91c.52.06,1.16.2,1.34.76,1.16,3.43-5.96,6.76-8.78,6.69,1.12,3.01-.51,3.84-3.15,4.52-1.09.28-5.39.49-5.62.65-.69.48.6,1.93-3.08,2.26-3.27.29-8.52-2-9.64-1.77-.52.11-3.84,2.47-4.01,3.03-.7,2.43,4.84,5.68,6.78,6.08,1.45.3,2.7-.26,4.1.54.62.35,7.85,10.3,8.49,11.49,2.88,5.33-1.14,3.53-2.73,4.56-.56.36-.8,2.47-1.35,3.18-1.48,1.92-3.72-.95-5.39-1.05-.96-.06-2.6.87-3.39.37-1.88-4-1.13-8.65-1.7-12.95-.66-1.09-6.18-3.21-7.65-4.44-1.04-.88-2.93-4.35-3.93-4.39-3.07,1.41-6.19,1.9-9.4,2.72-.63.16-1.29-.29-1.07.75.39,1.44,3.99,3.91,5.44,4.32.9.25,1.94,0,2.94.32,2.6.81,3.11,5.18,4.27,7.35s4.82,6.01,4,8.43c-.42,1.23-2.71.5-3.81,1.19-.95.59-.62,3.08-2.5,3.22-1.75.13-2.7-1.94-3.71-2.18-.78-.19-1.67.58-2.6.34-3.15-.83-1.19-10.7-1.36-13.34-4.45-2.26-8.3-4.75-9.73-9.78-1.77-.28-3.89-.29-5.61-.67-5.09-1.12-13.64-4.21-17.34-7.76-2.97-2.85-6.04-7.43-7.65-11.18-3.74,1.18-10.82,5.71-12.08-.47-4.09,1.21-16.83,2.9-14.86-4.18-3.96.71-15.67-1.93-16.98-6.03-.29-.91-.02-2.09-.44-2.81-.31-.53-2.7-1.8-3.32-2.49-2.44-2.7-1.59-5.35-2.74-7.72-.46-.95-2.53-2.46-3.18-3.79-2.31-4.72.48-7.42,5.3-6.93.09-.06-.57-1.13-.73-1.35-9.61-13.41-26.88-11.56-33.78-29.44C-11.71,1.12,39.16-8.79,47.84,26.91c3.11,12.81-4.56,20.97-3.4,33.63.39,4.23,2.5,6.74,4.02,10.51,10.07,3.25,20.69,4.54,31.28,4.15l-4.95-3.88c-5.7-5.56-5.98-9.77-7.32-17.08-.17-.91-1.01-1.63-1.17-2.55-.55-3.07-.06-6.07,1.45-8.73,2.4-4.22,5.9-9.6,9.71-12.6,2.45-1.92,5.85-3.09,8.09-4.92,2.74-2.24,3.16-6.42,7.7-4.91l.43,2.13c3.7-1.41,12.19-4.45,8.83,2.79,1.96-.07,3.99.68,5.81,1.39,2.09.82,5.86,3.75,7.79,3.19s5.07-7.43,6.24-7.76c2.26-.64,2.73,1.58,3.83,2.51,2,1.69,4.49,1.75,2.27,5.03l-4.57,3.55c1.59,1.3,7.03-.53,7.69.45.55.81-.87,6.14-1.44,6.98-1.39,2.03-6.18.65-8.11-.45,1.55,3.49,1.6,7.78,2.92,11.26.32.85,1.11,1.38,1.26,1.76,1.27,3.18,2.53,6.19.15,9.32l-3.86-.49-.47,2.79c4.05,1.34,7.72-3.29,10.22-6.04ZM2.62,29.62c.22,2.31,1.12,3.95,1.86,6.05,5.43,15.44,13.91,14.35,25.24,22.41,3.48,2.47,6.19,5.82,9.36,8.63l3.51-1.57c-.11-3.84-.8-7.63-.43-11.5.51-5.25,2.89-10.35,3.66-15.64.32-2.18.62-3.76.47-6.05-.33-4.97-2.04-9.5-4.73-13.64C29.15-.83.21,4.24,2.62,29.62ZM129.92,85.91c2.01.36,8.2.19,10.45,0,1.03-.09,6.86-1.38,7.19-1.88,1.12-1.71-3.63-2.47-2.76-3.69,4.55-.78,9.04-1.31,13.32-3.18,1.08-.47,8.71-4.64,7.12-6.13h-6.97s.06-1.81.06-1.81c7.15-2.69,15.71-7.13,18.06-14.93-3.27-.48-6.11,1.8-9.1,2.28-.56.09-1.78.47-1.59-.66.15-.87,4.12-3.28,5.12-4.18,4.37-3.89,8.99-9.36,8.36-15.58-.66-.68-5.8,3.03-6.73,3.73-1.99,1.49-3.55,4.52-6.28,4.17-.91-.88,4.11-5.21,4.79-6.16,2.72-3.79,5.53-10.72,4.92-15.42-.15-1.13-.41-2.81-1.84-2.42-1.19.33-4.57,5.43-5.78,6.8-1.41,1.61-7.71,9.1-8.6,9.76-4.89,3.6-11.21,7.13-15.81,11.39s-7.39,10.76-12.3,15.1c-4.64,4.1-10.69,4.06-10,11.64.38,4.08,4.03,10.39,8.36,11.16ZM91.36,26.37c-.36-.37.64-3.86-.46-4.18-3.15,7.68-14.15,8.36-17.2,16.27.36.37,4.86-2.47,5.72-2.87,8.84-4.07,18.42-6.3,28.19-6.43l-4.62-1.65-5.14-.68,2.79-3.71-9.29,3.25ZM123.2,24.98c-1.16,2.11-5.51,5.03-2.24,6.91,4.25-1.28,7.92-3.88,2.24-6.91ZM74.17,41.25c-3.68,2.41-6.3,3.45-5.57,8.84,2.43-1.19,4.59-2.9,6.97-4.18,12.41-6.7,26.8-10.61,41.01-9.64.53.04.92.94.8-.34-.99-1.27-3.42-3.98-4.97-4.33-1.98-.45-7.84-.25-10.12-.09-9.56.64-20.24,4.6-28.12,9.76ZM119.24,34.28c.33-1.49-1.06-2.28-2.32-2.32-.52.5,1.83,2.84,2.32,2.32ZM119.47,34.75v.47c.3-.15.3-.31,0-.47ZM129,35.68h-7.9c-1.2,2.12,5.11,4.3,6.27,4.21,1.51-.12,1.51-3.03,1.62-4.21ZM73.24,50.09c-.68.43-3.63,1.7-3.74,2.19.6,9.24,3.83,15.82,11.49,20.98,1.03.7,6.34,3.14,6.55,3.44s.26,1.5.57,2.22c2.45,5.74,6.82,9.08,13.16,5.96,3.57-1.75,4.73-4.98,6.36-8.29.4-.82.35-1.93.93-2.56l7.69-5.34c.56-.24.52-1.22.67-1.4,1.64-1.91,3.56-3.62,3.71-6.51-6.4,1.58-12.34,5.38-18.35.44-5.55-4.55-1.24-6.05,1.65-9.03,1.11-1.14,1.22-2.46,2.6-3.44,2.58-1.82,4.46-.57,7.13-.07-.5-1.53-1.84-5.23.31-5.97,3.31-1.14,4.71,2.87,3.53,5.4-.85,1.82-2.42.84-3.84.57.07.22-.1.62,0,.91l8.35.95c.53-.76-2.59-10.74-3.35-11.52-.84-.85-10.36-.72-12.22-.59-11.59.77-23.47,5.59-33.2,11.64ZM119.23,58c2.74.46,3.57,1.32,6.04,2.32.88-8.62-3.6-7.24-9.4-8.49-2.52-.54-5.77-2.61-8.04-1.3-1.57.9-2.93,4.77-5.3,5.19-.29.34.44.83.45.88.05.58-.12,1.38,0,1.86,1.09,4.51,10.59,3.75,13.47.93-.02-.35-1.49-.66-.93-1.86,1.02,0,2.31-.13,3.25,0,.06.22.25.43.46.47ZM119.7,69.16l1.63-2.31c-1.7.53-1.41.62-2.1,1.85-.27.48-.31.93-.46,1.4-1.87-.15-2.68,1.8-3.96,2.78-1.04.8-2.03,1.24-3.01,1.87-3.07,1.98-3.37,7.08-7.43,10.47-6.57,5.48-13.17,3.36-17.49-3.43-1.19-1.87-.73-3.35-2.96-4.25-.43-.18-.96-.22-1.39-.47-1.02,12.48,3.52,29.26,14.17,36.73,3.25,2.27,7.7,1.45,11.55.89,13.71-2.01,26.89-10.43,33.76-22.49-1.78-3.1-3.11-3.76-6.52-3.95-4.08-.23-5.66.38-9.44-1.95-4.99-3.07-7.65-9.98-6.82-15.73.23-.06.42-.24.46-.46s.03-.68,0-.93ZM45.34,70.05l-1.21-2.73c-1.43.28-5.39,1.02-4.15,2.78.98,1.4,4.07.69,5.35-.06ZM36.9,70.66c-1.53-.93-4.02.42-3.53,2.8,1.16,5.59,7.84,5.64,12.46,5.46.4-4.64-5.05-5.47-8.05-7.08-.61-.33-.69-1.07-.88-1.18ZM45.82,71.01c-.57-.61-1.98,1.22-1.39,1.86s1.98-1.22,1.39-1.86ZM50.93,74.27c-.24-.05-.97-1.04-1.39-.24,1.9,3.66,3.19,8.1,5.01,11.73.9,1.79,2.77,2.01,1.86,4.93-.58,1.87-9.92,5.1-9.73-.08l-3.65-.07c-1.06.95,4.55,3.99,5.25,4.27,5.37,2.16,10.52,1.13,16.12.85.25,2.28-5.96,3.37-3.43,5.06,3.95,2.62,11.73-.48,15.97-1.34l-.93,4.18,7.83-2.4c.42-.72-1.07-3.6-1.33-4.58-1.42-5.39-1.79-8.97-2.32-14.42-.15-1.52-.63-3.02-.53-4.58-2.08-.83-4.31.02-6.69-.05-3.69-.11-9.29-1.24-12.76-.95-2.77-1.32-6.25-1.66-9.29-2.33ZM47.68,75.66v-.93s-.46,0-.46,0v.93s.46,0,.46,0ZM49.53,80.77l-1.38-3.71c-.07.78.18,1.78-.06,2.5-.28.83-1.42.42-1.33,1.21h2.78ZM37.46,80.31c.12,6.54,6.52,9.6,12.08,6.27-1.92-4.55-7.49-6.22-12.08-6.27ZM50.47,81.25c-.85-.15-1.54.51-1.39,1.39h1.39s0-1.39,0-1.39ZM50.7,83.1v.47c.3-.15.3-.31,0-.47ZM51.16,84.03v.47c.3-.15.3-.31,0-.47ZM49.08,91.47c.48.49,5.39-1.31,5.58-2.1l-2.56-3.48c.1,3.06-3.51,2.74-3.02,5.58ZM120.62,113.34c-5.8,2.31-10.39,3-16.5,3.72-.65.08-1.37.29-.69.93,15.31,5.33,29.78,1.86,41.58-8.83,1.48-1.34,2.95-4.58,5.34-4.18-1.28,2.15-1.92,4.22-4.17,5.81,2.21,1.69,5.18,1.77,7.89,1.62-.08-.9-1.63-.59-2.1-1.38-.34-.58-.23-1.24-.22-1.86,3.82.84,7.27,1.5,11.16.24.79-.45-.08-1.23-.48-1.4-.95-.41-6.88-.02-6.5-1.86.29-1.38,3.81-.18,4.88-.2,3.41-.04,9.39-1.21,11.38-4.22-3.67-.39-7.27.73-10.93.46-.69-.05-1.34.36-1.15-.69,1.02-1.73,2.74-.92,4.29-1.29,3.51-.84,9.42-2.45,10.11-6.39-4.04.27-7.91,1.64-11.92,2.24-2.51.38-8.11,1.21-10.38,1.01-2.77-.25-5.74-2.37-8.1-3.72-5.42,9.02-13.71,16.08-23.49,19.99ZM139.2,122.18c2.45,2.09,5.33,3.5,8.29,4.73l.54,12.02c2.58-1.1,3.64.71,6.03.93-.02-2.34,1.48-3.43,3.72-3.26,1.02-1.02-7.01-10.38-7.65-12.14-.81-.61-2.07.2-3.51-.16-.75-.19-5.96-3-6.5-3.52-1.34-1.3-1.88-5.35-4.17-2.53.55,1.73,1.95,2.82,3.25,3.92ZM119.23,124.04c.07.12-.07.35,0,.47.11.2.37.32.46.47.07.11-.07.37,0,.47,1.28,1.68,1.73,1.7,3.25,2.79.95.68,1.73.98,2.32,1.4.45.31.98.62,1.39.93.28.21,1.76,1.55,1.79,1.67-1.26,3.52-.8,7.22-.86,10.89l3.25.47c.21.38,1.65,1.48,2.06,1.39,1.36-1.84,1.9-2.97,4.44-3.01-2.26-3.96-4.83-7.9-6.06-12.32-.87-.11-1.63.47-2.5.44-.38-.02-.64-.44-.73-.45-.68-.79-2.07-.94-2.79-1.4-.32-.21-1.13-.74-1.39-.93-.17-.12-1.02-1.04-1.39-1.4-.16-.15-.31-.31-.46-.47l-1.39-1.86c-.06-.14.06-.35,0-.47l-2.32-.46v.69c.12.34.83.54.93.7Z"/>
  <path class="cls-6" d="M83.8,143.66l93.98,18.27c.63.62.69,7.67.36,8.76s-5.34,3.3-6.71,3.98c-20.97,10.38-42.45,19.88-63.62,29.81l-99.18-26.73c-.61-.6-.68-7.65-.45-8.86.1-.54.2-.9.78-1.08l74.85-24.15ZM88.56,147.29c.39-1.2-1.57-1.21-2.22-1.26-1-.09-1.92-.34-2.91.08l-69.67,23.03,93.28,24.57,3.2-.76,62.87-29.38c.11-.67-.82-.65-1.3-.78-1.66-.46-3.33-.32-4.74-.61-1.28-.27-2.81-.65-4.18-.93-3.1-.64-6.18-1.25-9.29-1.86-10.83-2.14-21.67-4.45-32.52-6.52-9.12-1.74-18.24-3.65-27.41-5.12-.93-.15-2.36-.92-3.51-.83l-1.6.37ZM175.9,164.97l-66.34,31.02-.57,5.24,65.71-30.72c1.27-.91,1.22-4.12,1.2-5.54ZM106.67,201.7l-.06-5.28-1.05-.8-95.05-25.08.27,5.63,95.9,25.54Z"/>
  <path class="cls-10" d="M52.03,14.12c-2.15-2.53-2.17-7.33-.36-10.04,5.16-7.76,19.06-3.82,17.28,6.6-1.29,7.51-12.16,9.04-16.92,3.44ZM53.27,7.3c-.1.38-.43.53-.46,1.4-.15,3.65,1.45,5.08,4.65,6.05.44.13.56.38,1.39.47.15.02.31,0,.46,0,3.87.12,6.95-1.35,7.43-5.58.05-.4.04-.99,0-1.4-.35-3.31-2.15-4.84-5.11-5.58-.41-.1-1.24-.46-1.39-.47-3.78-.11-6.06,1.64-6.97,5.11Z"/>
  <path class="cls-5" d="M132.24,58.93c-2.51,2.75-6.17,7.38-10.22,6.04l.47-2.79,3.86.49c2.38-3.13,1.12-6.15-.15-9.32,4.74-.91,2.03,4.83,6.04,5.58Z"/>
  <path class="cls-7" d="M118.77,70.09c-.16.46-.77.83-.9,1.64-1.17,6.99,4.38,16.36,11.57,17.68,1.92.35,4.92.77,6.06-1.18,3.41.19,4.74.85,6.52,3.95-6.87,12.07-20.05,20.49-33.76,22.49-3.85.56-8.3,1.39-11.55-.89-10.66-7.47-15.19-24.25-14.17-36.73.43.24.96.29,1.39.47,3.98,18.74,25.66,14.22,27.88-2.79.98-.63,1.96-1.08,3.01-1.87,1.28-.98,2.09-2.93,3.96-2.78Z"/>
  <path class="cls-13" d="M73.24,50.09c9.74-6.06,21.61-10.87,33.2-11.64,1.86-.12,11.39-.26,12.22.59.76.77,3.89,10.75,3.35,11.52l-8.35-.95c-.11-.29.06-.69,0-.91,1.42.26,2.99,1.24,3.84-.57,1.18-2.53-.21-6.54-3.53-5.4-2.16.74-.81,4.44-.31,5.97-2.67-.5-4.55-1.75-7.13.07-1.38.98-1.5,2.3-2.6,3.44-2.9,2.98-7.2,4.48-1.65,9.03,6.02,4.93,11.95,1.13,18.35-.44-.15,2.89-2.07,4.6-3.71,6.51-3.39.96-6.11,3.53-9.44,4.73-17.02,6.14-34.22-3.05-34.23-21.95ZM91.01,53.22c3.97,3.73,6.36-5.45,1.86-6.32-3.38-.65-3.66,4.63-1.86,6.32Z"/>
  <path class="cls-11" d="M159.66,36.61c.89-.66,7.19-8.15,8.6-9.76,1.2-1.37,4.58-6.47,5.78-6.8,1.42-.39,1.69,1.29,1.84,2.42.61,4.69-2.2,11.63-4.92,15.42-.68.95-5.7,5.28-4.79,6.16,2.73.35,4.29-2.68,6.28-4.17.92-.69,6.06-4.4,6.73-3.73.63,6.22-3.99,11.69-8.36,15.58-1,.9-4.97,3.3-5.12,4.18-.19,1.13,1.03.75,1.59.66,2.99-.48,5.83-2.76,9.1-2.28-2.35,7.8-10.91,12.25-18.06,14.93l-.06,1.8h6.97c1.59,1.5-6.04,5.66-7.12,6.13-4.28,1.87-8.77,2.39-13.32,3.18-.87,1.22,3.88,1.98,2.76,3.69-.33.5-6.15,1.79-7.19,1.88-2.24.2-8.43.37-10.45,0-.07-1.05-.03-1.63,1.17-1.86,2.96-.56,7.48-.2,9.07-3.48l-.94-2.09c4.25.27,9.06-1.41,11.17-5.37.18-1.82-2-2.05-1.88-2.3,3.4-1.82,15.01-10.21,5.58-11.16,2.91-2.79,8.47-6.62,6.53-11.2l-3.28.27c1.98-3.69,4.08-6.36,2.79-10.69-.14-.47-.2-.97-.46-1.4Z"/>
  <path class="cls-3" d="M160.12,38.01c1.29,4.33-.81,7-2.79,10.69l3.28-.27c1.94,4.58-3.63,8.41-6.53,11.2,9.43.95-2.17,9.34-5.58,11.16-.12.26,2.06.48,1.88,2.3-2.11,3.96-6.92,5.64-11.17,5.37l.94,2.09c-1.6,3.29-6.12,2.93-9.07,3.48-1.19.22-1.23.81-1.17,1.86-4.33-.77-7.99-7.08-8.36-11.16,1.12.05,2.03-.47,2.94-1.01,11.18-6.7,12.66-11.62,20.05-20.85,2.84-3.55,8.52-6.92,11.81-10.5,1.21-1.31,2.01-3.88,3.76-4.37Z"/>
  <path class="cls-3" d="M57.9,78.45c7.26,2.07,14.83,2.73,22.3,3.72.53,5.45.9,9.03,2.32,14.42-3.69.56-8.12,1.75-11.11-1.24l.42-2.47c-2.61.83-12.24-2.66-9.99-6.07.28-.43,1.3-.33,1.16-.67-3.98-1.88-9.79-3.73-9.75-9.07,1.26.45,3.29,1.01,4.65,1.4Z"/>
  <path class="cls-11" d="M50.93,74.27c-.47,1.92.72,2.21,2.32,2.79-.03,5.35,5.77,7.19,9.75,9.07.13.34-.88.25-1.16.67-2.25,3.41,7.38,6.9,9.99,6.07l-.42,2.47c3,3,7.42,1.8,11.11,1.24.26.98,1.75,3.85,1.33,4.58l-7.83,2.4.93-4.18c-4.25.86-12.03,3.96-15.97,1.34-2.54-1.68,3.68-2.78,3.43-5.06-5.59.29-10.74,1.32-16.12-.85-.7-.28-6.32-3.32-5.25-4.27l3.65.07c-.19,5.18,9.16,1.94,9.73.08.9-2.93-.96-3.14-1.86-4.93-1.82-3.63-3.12-8.07-5.01-11.73.42-.8,1.15.18,1.39.24Z"/>
  <path class="cls-3" d="M116.91,67.3c-.15.18-.11,1.15-.67,1.4l-7.69,5.34c-.58.62-.53,1.74-.93,2.56-6.45,1.89-12.7,3.92-19.51,2.32-.31-.72-.36-1.92-.57-2.22s-5.52-2.75-6.55-3.44c-7.65-5.16-10.88-11.74-11.49-20.98.11-.49,3.06-1.76,3.74-2.19.01,18.89,17.21,28.09,34.23,21.95,3.33-1.2,6.05-3.78,9.44-4.73Z"/>
  <path class="cls-7" d="M74.17,41.25c7.88-5.15,18.55-9.12,28.12-9.76,2.28-.15,8.13-.36,10.12.09,1.55.35,3.98,3.06,4.97,4.33.11,1.28-.28.38-.8.34-14.21-.97-28.6,2.94-41.01,9.64-.92-1.56-1.77-2.7-1.39-4.65Z"/>
  <path class="cls-11" d="M152.22,97.07c2.27.21,7.87-.63,10.38-1.01,4.02-.61,7.88-1.97,11.92-2.24-.69,3.94-6.6,5.55-10.11,6.39-1.56.37-3.27-.44-4.29,1.29-.2,1.05.46.64,1.15.69,3.66.28,7.26-.85,10.93-.46-1.99,3.02-7.98,4.18-11.38,4.22-1.06.01-4.59-1.18-4.88.2-.38,1.84,5.54,1.45,6.5,1.86.4.17,1.27.94.48,1.4-3.88,1.26-7.34.6-11.16-.24-.01.63-.12,1.28.22,1.86.47.8,2.02.48,2.1,1.38-2.71.14-5.67.06-7.89-1.62,2.25-1.59,2.89-3.67,4.17-5.81.9-1.5,2.86-3.42,2.78-5.31-.02-.39-.44-.63-.46-.73-.11-.64-.05-1.3-.46-1.86Z"/>
  <path class="cls-13" d="M152.22,97.07c.41.56.35,1.22.46,1.86l-4.4,4.66c-6.1,5.81-14.47,9.29-22.84,10.16-1.38.14-3.62.42-4.82-.41,9.79-3.91,18.07-10.97,23.49-19.99,2.36,1.35,5.33,3.47,8.1,3.72Z"/>
  <path class="cls-16" d="M152.68,98.93c.02.1.44.34.46.73.08,1.89-1.89,3.81-2.78,5.31-2.4-.39-3.86,2.84-5.34,4.18-11.8,10.69-26.28,14.16-41.58,8.83-.68-.63.04-.85.69-.93,6.11-.72,10.71-1.4,16.5-3.72,1.19.83,3.43.55,4.82.41,8.37-.86,16.74-4.35,22.84-10.16l4.4-4.66Z"/>
  <path class="cls-13" d="M159.66,36.61c.27.43.32.92.46,1.4-1.75.49-2.55,3.06-3.76,4.37-3.29,3.57-8.97,6.94-11.81,10.5-7.39,9.24-8.87,14.16-20.05,20.85-.91.55-1.82,1.06-2.94,1.01-.7-7.58,5.36-7.54,10-11.64,4.91-4.34,7.6-10.76,12.3-15.1s10.91-7.79,15.81-11.39Z"/>
  <path class="cls-7" d="M6.34,35.66c4.2,11.26,16.36,19.89,28.33,14.64,5.04-2.21,8.07-7.05,9.3-12.31h1.86c-.77,5.28-3.15,10.39-3.66,15.64-.38,3.87.32,7.65.43,11.5l-3.51,1.57c-3.17-2.81-5.88-6.15-9.36-8.63-11.33-8.05-19.81-6.96-25.24-22.41h1.86ZM40.25,50.08c-2.41.33-4.06,2.11-6.52,3.01-.94.34-4.86.58-4.65,1.87.24,1.5,5.55,4.36,7,5.56,1.15.95,2.11,3.96,4.16,1.88v-12.32Z"/>
  <path class="cls-7" d="M46.29,31.95h-1.86c-1.3-10.38-9.64-22.23-20.68-23.25C10.3,7.45,4.07,17.16,4.94,29.62h-2.32C.21,4.24,29.15-.83,41.57,18.31c2.68,4.14,4.4,8.66,4.73,13.64Z"/>
  <path class="cls-5" d="M91.36,26.37l9.29-3.25-2.79,3.71,5.14.68,4.62,1.65c-9.77.13-19.35,2.36-28.19,6.43-.86.4-5.37,3.23-5.72,2.87,3.04-7.9,14.04-8.59,17.2-16.27,1.1.32.1,3.81.46,4.18Z"/>
  <path class="cls-17" d="M102.97,56.6c0-.05-.73-.54-.45-.88,2.37-.41,3.73-4.29,5.3-5.19,2.28-1.31,5.53.76,8.04,1.3,5.8,1.25,10.28-.13,9.4,8.49-2.47-1-3.29-1.86-6.04-2.32-.05-.22-.25-.43-.46-.47-.95-.13-2.23,0-3.25,0-4.21-.04-8.51.45-12.54-.93ZM110.83,52l-1.56-.51-.71,1.15c1.08,1.15,2.87,1.24,2.28-.64Z"/>
  <path class="cls-17" d="M140.13,120.79c.54.52,5.74,3.33,6.5,3.52,1.44.36,2.69-.45,3.51.16.64,1.76,8.67,11.12,7.65,12.14-2.25-.17-3.75.92-3.72,3.26-2.39-.22-3.45-2.03-6.03-.93l-.54-12.02c-2.96-1.23-5.83-2.63-8.29-4.73v-1.4s.93,0,.93,0Z"/>
  <path class="cls-13" d="M107.62,76.6c-1.63,3.3-2.79,6.53-6.36,8.29-6.33,3.11-10.71-.22-13.16-5.96,6.81,1.6,13.07-.44,19.51-2.32Z"/>
  <path class="cls-17" d="M128.05,129.62c.09.01.35.43.73.45.87.04,1.63-.55,2.5-.44,1.23,4.41,3.79,8.36,6.06,12.32-2.55.04-3.08,1.17-4.44,3.01-.41.09-1.85-1.01-2.06-1.39-.51-.93-.45-2.65-.47-3.72h-1.39c-.25.23.26,3.67-1.4,3.26.06-3.67-.4-7.37.86-10.89-.03-.12-1.51-1.46-1.79-1.67l-.46-.93c.61.03,1.25-.07,1.86,0Z"/>
  <path class="cls-13" d="M60.23,76.59c3.46-.29,9.07.83,12.76.95,2.39.07,4.62-.78,6.69.05-.1,1.56.38,3.06.53,4.58-7.47-1-15.04-1.65-22.3-3.72v-1.39c.86.38,1.96-.44,2.32-.47Z"/>
  <path class="cls-11" d="M36.9,70.66c.19.12.26.86.88,1.18,3,1.6,8.46,2.44,8.05,7.08-4.62.18-11.29.13-12.46-5.46-.5-2.38,1.99-3.73,3.53-2.8Z"/>
  <path class="cls-20" d="M111.8,74.74c-2.21,17.01-23.9,21.52-27.88,2.79,2.23.9,1.77,2.38,2.96,4.25,4.32,6.79,10.92,8.91,17.49,3.43,4.06-3.39,4.36-8.48,7.43-10.47Z"/>
  <path class="cls-11" d="M37.46,80.31c4.59.05,10.17,1.72,12.08,6.27-5.56,3.33-11.96.27-12.08-6.27Z"/>
  <path class="cls-20" d="M119.7,69.16c.03.25.05.7,0,.93-.22.05-.43.25-.46.46-.83,5.75,1.83,12.66,6.82,15.73,3.78,2.32,5.36,1.72,9.44,1.95-1.14,1.96-4.14,1.54-6.06,1.18-7.19-1.32-12.73-10.69-11.57-17.68.14-.81.75-1.18.9-1.64s.2-.92.46-1.4c.22.06.44.25.46.47Z"/>
  <path class="cls-14" d="M75.56,45.9c-2.37,1.28-4.54,2.99-6.97,4.18-.73-5.38,1.89-6.43,5.57-8.84-.37,1.95.47,3.09,1.39,4.65Z"/>
  <path class="cls-7" d="M123.2,24.98c5.68,3.03,2.01,5.64-2.24,6.91-3.26-1.88,1.09-4.8,2.24-6.91Z"/>
  <path class="cls-7" d="M129,35.68c-.11,1.17-.11,4.09-1.62,4.21-1.17.09-7.47-2.08-6.27-4.21h7.9Z"/>
  <path class="cls-6" d="M115.52,57.53c-.57,1.21.91,1.51.93,1.86-4.5-.24-9.19.71-13.47-.93-.12-.48.05-1.28,0-1.86,4.03,1.38,8.33.89,12.54.93Z"/>
  <path class="cls-17" d="M116.45,59.4c-2.88,2.82-12.38,3.57-13.47-.93,4.28,1.64,8.98.69,13.47.93Z"/>
  <path class="cls-20" d="M60.23,76.59c-.36.03-1.46.86-2.32.47v1.39c-1.36-.39-3.39-.94-4.65-1.4-1.61-.58-2.79-.87-2.32-2.79,3.04.66,6.52,1.01,9.29,2.33Z"/>
  <path class="cls-1" d="M49.08,91.47c-.49-2.84,3.12-2.52,3.02-5.58l2.56,3.48c-.18.79-5.1,2.59-5.58,2.1Z"/>
  <path class="cls-18" d="M45.34,70.05c-1.29.75-4.37,1.46-5.35.06-1.24-1.77,2.71-2.5,4.15-2.78l1.21,2.73Z"/>
  <path class="cls-14" d="M4.94,29.62c.17,2.44.55,3.78,1.39,6.05h-1.86c-.74-2.09-1.64-3.73-1.86-6.05h2.32Z"/>
  <path class="cls-14" d="M46.29,31.95c.15,2.28-.15,3.87-.47,6.05h-1.86c.45-1.93.71-4.08.47-6.05h1.86Z"/>
  <path class="cls-19" d="M140.13,120.79h-.93s0,1.4,0,1.4c-1.3-1.1-2.69-2.19-3.25-3.92,2.29-2.82,2.83,1.23,4.17,2.53Z"/>
  <path class="cls-19" d="M127.59,143.11c1.65.41,1.15-3.02,1.4-3.26h1.39c.01,1.07-.05,2.8.47,3.72l-3.25-.47Z"/>
  <path class="cls-17" d="M120.62,123.11c.06.12-.06.33,0,.47.61,1.45.55.97,1.39,1.86.15.16.31.32.46.47.17,2.11-1.78.35-2.79-.47-.07-.1.07-.36,0-.47l-.46-.47c-.07-.12.07-.35,0-.47v-.93s1.39,0,1.39,0Z"/>
  <path class="cls-18" d="M49.53,80.77h-2.78c-.09-.78,1.05-.38,1.33-1.2.25-.72,0-1.72.06-2.5l1.38,3.71Z"/>
  <path class="cls-17" d="M123.87,127.29c.26.19,1.07.72,1.39.93l.42,1.12-.42.28c-.6-.41-1.37-.71-2.32-1.4v-.93s.93,0,.93,0Z"/>
  <path class="cls-14" d="M119.24,34.28c-.49.52-2.84-1.82-2.32-2.32,1.26.04,2.65.83,2.32,2.32Z"/>
  <path class="cls-19" d="M119.69,125.43c1.01.82,2.96,2.58,2.79.47.38.35,1.23,1.27,1.39,1.4h-.93s0,.93,0,.93c-1.52-1.09-1.97-1.11-3.25-2.79Z"/>
  <path class="cls-19" d="M128.05,129.62c-.61-.07-1.25.04-1.86,0l.46.93c-.41-.31-.94-.62-1.39-.93l.42-.28-.42-1.12c.72.46,2.1.61,2.79,1.4Z"/>
  <path class="cls-18" d="M45.82,71.01c.59.64-.82,2.47-1.39,1.86-.59-.64.82-2.47,1.39-1.86Z"/>
  <path class="cls-16" d="M119.7,69.16c-.03-.22-.25-.4-.46-.47.69-1.23.4-1.32,2.1-1.85l-1.63,2.31Z"/>
  <path class="cls-18" d="M50.47,81.25v1.39s-1.39,0-1.39,0c-.15-.88.54-1.54,1.39-1.39Z"/>
  <path class="cls-19" d="M120.62,123.11h-1.4s0,.93,0,.93c-.09-.16-.81-.36-.93-.7v-.69s2.32.46,2.32.46Z"/>
  <rect class="cls-18" x="47.22" y="74.73" width=".46" height=".93"/>
  <path class="cls-19" d="M122.01,125.43c-.84-.89-.79-.41-1.39-1.86l1.39,1.86Z"/>
  <path class="cls-19" d="M119.69,124.97c-.1-.15-.35-.27-.46-.47l.46.47Z"/>
  <path class="cls-16" d="M119.23,70.56c.03-.22.24-.41.46-.46-.05.23-.24.4-.46.46Z"/>
  <path class="cls-18" d="M51.16,84.03c.3.16.3.31,0,.47v-.47Z"/>
  <path class="cls-14" d="M119.47,34.75c.3.16.3.31,0,.47v-.47Z"/>
  <path class="cls-6" d="M119.23,58c-.21-.04-.41-.25-.46-.47.22.03.42.24.46.47Z"/>
  <path class="cls-18" d="M50.7,83.1c.3.16.3.31,0,.47v-.47Z"/>
  <path class="cls-15" d="M167.08,162.18c1.41.29,3.08.15,4.74.61.48.13,1.41.11,1.3.78l-62.87,29.38-3.2.76-93.28-24.57,69.67-23.03c.99-.42,1.92-.17,2.91-.08.65.06,2.61.06,2.22,1.26l-61.31,20.48-.02,1.36,79.28,19.99,2.04-.19,58.53-26.75Z"/>
  <path class="cls-5" d="M93.67,147.75l-25.09,8.37.46.7c23.56,4.94,47.02,11.28,70.64,15.38l23.22-10.96c1.37.28,2.9.66,4.18.93l-58.53,26.75-2.04.19-79.28-19.99.02-1.36,61.31-20.48,1.6-.37c1.15-.09,2.58.69,3.51.83ZM96.91,165.43l-32.76-7.45-26.69,8.62-3.73,1.6,35.07,8.88,28.11-11.65ZM135.02,173.81l-34.11-7.44c-8.23,4.32-19.07,6.81-27.09,11.06-.43.23-1.02.46-1.07,1.02l34.14,8.41c8.67-4.06,18.7-7.51,27.05-12.03.43-.23,1.02-.45,1.07-1.02Z"/>
  <path class="cls-15" d="M121.08,152.87l.7.93c-5.61.23-12.17.7-17.52,2.45-4.99,1.63-6.71,3.31-.82,5.67,9,3.61,40.25,3.65,48.8-.89.76-.4,1.4-.62,1.37-1.65,3.11.62,6.19,1.23,9.29,1.86l-23.22,10.96c-23.62-4.1-47.08-10.44-70.64-15.38l-.46-.7,25.09-8.37c9.17,1.47,18.29,3.38,27.41,5.12Z"/>
  <polygon class="cls-9" points="106.67 201.7 10.77 176.16 10.5 170.53 105.55 195.61 106.61 196.42 106.67 201.7"/>
  <path class="cls-2" d="M153.6,159.39c.04,1.04-.61,1.25-1.37,1.65-8.55,4.54-39.8,4.49-48.8.89-5.89-2.36-4.17-4.04.82-5.67,5.36-1.75,11.91-2.23,17.52-2.45l-.7-.93c10.85,2.06,21.69,4.37,32.52,6.52Z"/>
  <path class="cls-1" d="M175.9,164.97c.02,1.42.07,4.63-1.2,5.54l-65.71,30.72.57-5.24,66.34-31.02Z"/>
  <path class="cls-8" d="M60.24,2.19c-.69,3.44,1.32,6.54,4.65,7.44-.37,1.22-1.83,2.3-2.81,3-1.15.83-3.11.46-2.77,2.57-.15,0-.31.02-.46,0,.69-4.03-1.5-7.33-5.57-7.91.91-3.47,3.19-5.23,6.97-5.11Z"/>
  <path class="cls-15" d="M66.74,9.63c-.48,4.23-3.56,5.7-7.43,5.58-.34-2.12,1.62-1.75,2.77-2.57.98-.71,2.44-1.79,2.81-3,.48.13,1.3-.09,1.86,0Z"/>
  <path class="cls-8" d="M57.45,14.74c-3.19-.96-4.8-2.4-4.65-6.05,3.06.65,5.17,2.76,4.65,6.05Z"/>
  <path class="cls-8" d="M66.74,8.23c-3.46.14-5.18-2.28-5.11-5.58,2.96.74,4.76,2.27,5.11,5.58Z"/>
  <path class="cls-12" d="M58.84,15.21c-.84-.08-.95-.33-1.39-.47.53-3.29-1.58-5.4-4.65-6.05.04-.86.36-1.01.46-1.4,4.08.57,6.26,3.88,5.57,7.91Z"/>
  <path class="cls-12" d="M61.63,2.65c-.07,3.3,1.65,5.72,5.11,5.58.04.4.05.99,0,1.4-.56-.09-1.37.13-1.86,0-3.33-.9-5.34-4.01-4.65-7.44.16,0,.99.36,1.39.47Z"/>
  <path class="cls-10" d="M91.01,53.22c-1.8-1.69-1.52-6.97,1.86-6.32,4.5.87,2.11,10.05-1.86,6.32Z"/>
  <path class="cls-4" d="M4.94,29.62c-.87-12.45,5.36-22.16,18.81-20.92,11.04,1.02,19.38,12.87,20.68,23.25.25,1.96-.01,4.12-.47,6.05-1.23,5.26-4.26,10.11-9.3,12.31-11.97,5.24-24.13-3.39-28.33-14.64-.84-2.26-1.22-3.61-1.39-6.05ZM18.42,11.02c-.85.15-1.68-.15-2.69.34s-.95,1.48-1.03,1.52c-.17.1-1.2-.1-2.11.44-1.1.66-1.49,2.28-1.61,2.35-.88.5-.33-.69-1.39.93-.66,1-1.56,1.96-1.39,3.26.43-.25.96-.29,1.39-.46v.93c-.27.1-1.41.59-1.43.73.64,3.8,1.43,3.62,4.68,2.52l-.92-3.25c.05,0,.53-.59.93-.46-.17.99.67,1.87,1,2.73l3.65-.87c-1.21-3.4.38-2.83,1.6-.42.26.52.14,1.09.26,1.35-.27.08-.73.48-.93.46-.09,0-.4-.5-1.02-.39-.51.09-2.24.63-2.7.85-.32.16-.37.08-.46.46-.05.19-.03.89,0,.93h-.46c-3.21-1.15-4.47.64-2.73,3.67l3.66-.41v.47c-.21.04-2.38.83-2.49.91-.42.28-.26.92-.3.95-.15.1-.68-.09-.93,0-1.03.37-2.19.53-3.2.99-.28.42.13,2.85.42,3.33s.89.29.92.33c.1.16-.1.7,0,.93.76,1.75,1.39,2.41,1.86,3.26.15.28.2.52.46.93.09.14-.05.86.25,1.36.85,1.43,2.24,2.21,3.93,1.9-.07.13.08.4,0,.47-.11.09-.66-.07-.93,0v.92c1.2.07,2.2,1.77,3.25,1.87.19.02.66-.38.93-.46.61.81,1.1.33,1.86.47v.47c-.68.19-1.12-.46-.93.92,1.05.03,1.88.91,2.77,1.18,1.03.31,2.08.66,1.87-.71h.46s.3.94.3.94h4.35s-.93-3.73-.93-3.73h.46c.41,1.06.87,2.05.98,3.21l4.12-.44c-.16-.57-.34-3.06-.45-3.23h.46c1.37,2.97,2.08,2.01,3.98-.01l-.73-3.71h.46c.53,3.6,2.6,1.36,3.19-.83.21-.79-.26-.77-.4-1.03-.16-.31-.31-.62-.46-.93.42-.24.51-.45.46-.93h.93s.46-3.72.46-3.72c-1.29-.22-1.28.17-1.86.93-.13.17-.46.43-.46.46-.84-1.1-2.52.45-3.72.46,0-.21.38-.65.46-.93,1.88-.16,1.97-1.54,2.32-1.86.09-.08.65.04.93,0,.78-.12,1.9.33,2.26-.76.01-.92.29-2.29.07-3.12-.13-.5-.89-.25-.94-.3-.07-.08.03-.65,0-.93-.16-1.4.03-2.63-1.23-3.76l-3.35,1.05c-.23.22,0,.67-.06.85-.19.52-.47.88-.46.93.08-2.35-3.24.36-4.18,0l1.37,3.53,2.35-.28c-.3.56-.99,1.46-1.39,1.86-.11.11-.77.44-.93.46-.05,0-.34-.4-.91-.28-.94.2-1.85.58-2.79.76-.17.24.27,1.93.45,2.31l-.93.46c-.87-2.2-1.6-1.14-1.86-1.4-.14-.13.66-2.31,0-3.72h.93c.09.24-.02.67.21.94,1.29,1.16,2.65.07,3.91-.53.54-.95-1.19-2.5-1.33-3.2-.16-.8.46-1.31.46-1.4l3.18-1.49c.22-.26.03-.6.08-.84,2.12.69,3.15-.54,5.11-.94l-1.45-3.2c-.39-.28-2.22.18-2.73.41-.42,0-.64-.21-.93-.47l2.33-1.15c-.57-1.5-1.34-2.97-3.26-2.57.05-.11.04-.76,0-.93-.29-1.22-1.48-1.08-1.86-1.4-.06-.05.07-1.88-.93-.93-.31.3.45.88.46.93.08.22-.05.64,0,.93h-.46c-.13-.65-.95-1.49-.96-2.32-.16-.12-1.51.33-1.83.46-.35.04-.78-.44-.93-.47l1.39-.92c-1.29-.64-2.38-.7-3.71-.94-.29-.05-.63.04-.93,0-1.65-.22-2.72-.61-4.65-.47-.44.03-.77.44-.93.46ZM8.19,25.43l-.92-3.25-.47,3.25h1.39ZM10.01,29.58c.03-5.17-4.83-3.92-2.74.97l2.74-.97Z"/>
  <path class="cls-4" d="M40.25,50.08v12.32c-2.05,2.08-3.01-.93-4.16-1.88-1.46-1.2-6.76-4.05-7-5.56-.21-1.3,3.72-1.53,4.65-1.87,2.45-.9,4.11-2.68,6.52-3.01ZM38.39,53.34l-5.58,2.1,5.58,4.88v-6.98Z"/>
  <path class="cls-1" d="M110.83,52c.6,1.88-1.2,1.79-2.28.64l.71-1.15,1.56.51Z"/>
  <path class="cls-15" d="M135.02,173.81c-.05.56-.64.78-1.07,1.02-8.35,4.52-18.38,7.97-27.05,12.03l-34.14-8.41c.05-.55.64-.79,1.07-1.02,8.02-4.24,18.86-6.74,27.09-11.06l34.11,7.44Z"/>
  <polygon class="cls-15" points="96.91 165.43 68.8 177.08 33.73 168.2 37.46 166.6 64.15 157.98 96.91 165.43"/>
  <path class="cls-18" d="M19.35,10.55l2.13,4.21,3.45-.96-.93-2.79c.3.04.64-.05.93,0l.52,1.81c.57.22,1.23-.02,1.8.05.15.02.58.5.93.47-.34.14-1.82.94-1.85,1.16l1.4,3.02,3.18-.99c.15-.21.12-1.03.06-1.33h.46s2.32.47,2.32.47c.04.17.05.82,0,.93-.06.16-.87.14-.73.93.17.95.96,2.16,1.66,2.79.29.26.51.47.93.47-.24.11-.47.57-.93.47.17,1.1.58.94.46,1.85h-.46c-.91-1.15-3.22-1.21-3.98,0-.61.98.76,2.31.72,3.72,0,.09-.63.59-.46,1.4-.62.11-1.23.39-1.86.46-.24-.67-1.16-.33-1.39-.47l2.79-.94-1.43-3.71-3.22.93c0,1.33.68,3,1.86,3.72,0,.15,0,.31,0,.47-.04.6.23,1.75.46,2.33h-.93c-.37-.79-.67-1.07-1.57-.93-5.52.86-.55,3.64-.29,4.53.32,1.12.05,2.96.94,4.31l3.24-.93c.17-.76-.22-1.24-.46-1.85l.93-.46c.14.29.94,1.26,1.21,1.33l2.97-.87-.93-3.25c.16-.03.82-.36.93-.46.42,1.08.82,2.92,2.32,2.79-.08.28-.47.72-.46.93,0,3.02,1.43,4.37,4.18,2.79.15.31.3.62.46.93l-2.76.97c-.07.29-.07.6-.03.89h-.46s-4.18.94-4.18.94c.56.82.58,2.02.93,2.78h-.46s-.59.12-.79-.12c-.37-.45.05-1.76-.85-2.21-.96-.19-3.07,1.71-3.47,1.86-.24.09-.69-.09-.93,0-.13.05-.32-.05-.46,0-.03-.3.05-.64,0-.93-.21-1.37-.85-2.56-1.6-3.69l-3.51,1.37.93,3.25c-.29.05-.79-.09-.93,0l-.94-2.79-3.25.93c-.19.21.72,2.97.93,3.25-.27.09-.74.48-.93.46l-1-2.73-1.33-.06c.08-.06-.07-.34,0-.47.89-1.64-.53-2.65-.96-4.16l-3.22.91c-.26-.41-.31-.65-.46-.93l3.25-.94-1.71-3.2-3.41.88c-.1-.23.1-.77,0-.93l2.76-.96-.9-3.69c.25-.09.78.1.93,0l.93,2.79,3.7-.96-.93-3.68c-.29,0-.64-.07-.91,0v-.47s-.93-3.26-.93-3.26h.46c.06.07.8-.03,1.14.49.29.43.09,1.34.51,1.41.67.12,3.29-.53,3.44-1.23l-.92-2.53c.2.01.66-.38.93-.46.39.91,1.03,1.71.93,2.79l3.71-.93c.34-.37-1.63-3.17-1.86-3.72-.05-.13.06-.34,0-.47-.38-.87-.57-3-1.39-3.52-.76-.48-2.7.46-3.72.73v-.93s2.76-.96,2.76-.96c.18-1.66-.65-3.2-1.37-4.62.16-.03.49-.43.93-.46ZM25.37,14.74l-3.19.97.47,3.17c1.53.43,2.74-.57,4.14-.89l-1.41-3.24ZM28.17,18.46c.57,3.3,2.29,4.1,5.08,2.1l-1.66-3-3.41.9ZM24.97,23.53c1.34.98,5-1.88,2.27-3.94-.66-.41-2.72.23-3.06.7-.41.58.55,3.07.78,3.24ZM24.92,25.43l-3.71.93,1,3.18c.66.41,3.06-.17,3.45-.84l-.73-3.27ZM20.25,27.31l-3.69.92,1.7,3.21,3.41-.9-1.42-3.23ZM22.13,31.48l-3.21.98c-.36.5.45,3.51,1.15,3.66l2.99-.92-.93-3.71ZM17.46,33.35l-3.69.92c0,3.48,1.68,3.61,4.62,2.76l-.93-3.69ZM23.96,36.16l-3.68.9,1.44,3.22,3.67-.9-1.43-3.22ZM35.14,37.06l-3.71.94c.4,2.98,1.78,4.11,4.46,2.34l-.74-3.27ZM20.24,41.19c.27-.37-.46-2.72-.88-3.01-1.88-1.31-4.77,2.09-2.36,3.79.58.41,3.06-.55,3.24-.78ZM30.45,38.96c-3.05.3-4.12,1.09-2.3,3.95l3.07-.71-.77-3.24Z"/>
  <path class="cls-20" d="M22.13,20.32l-1.4.23v1.16s1.4-.93,1.4-.93c.22.55,2.2,3.35,1.86,3.72l-3.71.93c.09-1.08-.54-1.88-.93-2.79-.11-.27,0-.83-.26-1.35-1.21-2.41-2.81-2.99-1.6.42l-3.65.87c-.33-.86-1.17-1.74-1-2.73.07-.39,1.03-1.14.93-1.86.28-.06.4-.48,1.39-.46.66.01.13.45,1.86,0,1.02-.26,2.96-1.21,3.72-.73.82.52,1.01,2.65,1.39,3.52Z"/>
  <path class="cls-20" d="M29.1,36.13c.24.61.63,1.1.46,1.85l-3.24.93c-.89-1.35-.61-3.19-.94-4.31-.26-.89-5.23-3.67.29-4.53.9-.14,1.19.14,1.57.93.66,1.41-.13,3.59,0,3.72.26.26.99-.8,1.86,1.4Z"/>
  <path class="cls-5" d="M28.64,44.97c.4-.15,2.52-2.05,3.47-1.86.9.45.47,1.75.85,2.21.2.24.77.08.79.12.11.17.3,2.66.45,3.23l-4.12.44c-.1-1.16-.57-2.15-.98-3.21-.12-.31-.04-.73-.46-.93Z"/>
  <path class="cls-20" d="M18.42,11.02c.72,1.43,1.54,2.96,1.37,4.62l-2.76.96c-1.22.2-.77-.66-.93-.93-.11-.18-.38-.31-.46-.47-.39-.73-.56-1.58-.93-2.33.08-.05,0-1.02,1.03-1.52s1.84-.18,2.69-.34Z"/>
  <path class="cls-20" d="M37.46,41.71l.73,3.71c-1.91,2.02-2.62,2.98-3.98.01-.35-.76-.37-1.97-.93-2.78l4.18-.94Z"/>
  <path class="cls-5" d="M14.7,12.87c.37.74.53,1.59.93,2.33h-.46s-.46.23-.46.23l.46.23c.04.35.06.5.46.47-.17.43-.17.98-.46,1.4-.99-.02-1.12.4-1.39.46-.45.1-1.66.61-1.85.47l-.94-2.79c.12-.07.52-1.7,1.61-2.35.91-.54,1.93-.34,2.11-.44Z"/>
  <path class="cls-5" d="M27.71,44.97v.93s.93,0,.93,0l.93,3.72h-4.35s-.3-.93-.3-.93c.17-.69-.39-1.37-.46-1.86-.04-.28,0-.63,0-.93.61-.17,1.25-.27,1.86-.46.31-.1.61-.36.93-.46.14-.05.33.05.46,0Z"/>
  <path class="cls-20" d="M36.54,26.36c.07-.19-.16-.63.06-.85l3.35-1.05c1.26,1.13,1.06,2.36,1.23,3.76-1.12.17-2.33.55-2.32,1.86h-.46c-.18-.59-.67-1.25-.93-1.86s-.12-1.45-.93-1.86Z"/>
  <path class="cls-5" d="M37,30.09c.16,1.2,1.02,1.08,1.39,1.86l.46,1.4c-.35.32-.45,1.7-2.32,1.86-1.51.13-1.9-1.71-2.32-2.79.4-.4,1.1-1.3,1.39-1.86.07-.14.07-.41.23-.46h1.16Z"/>
  <path class="cls-20" d="M23.99,11.02l.93,2.79-3.45.96-2.13-4.21c1.92-.15,3,.24,4.65.47Z"/>
  <path class="cls-20" d="M35.61,30.55l-2.35.28-1.37-3.53c.94.36,4.26-2.35,4.18,0,.02.46.56,1.47.93,1.86-.03.27-.04.66,0,.93h-1.16c-.16.05-.16.33-.23.46Z"/>
  <path class="cls-20" d="M35.61,20.78c.51-.23,2.34-.69,2.73-.41l1.45,3.2c-1.96.4-2.99,1.63-5.11.94.03-.14,0-.32,0-.47.15-.14.38-.29.46-.46.05-.1-.02-.3,0-.47.12-.92-.29-.76-.46-1.85.45.1.69-.36.93-.47Z"/>
  <path class="cls-5" d="M14.7,28.69c.28-.06.62,0,.91,0l.93,3.68-3.7.96-.93-2.79s-.12-.67.3-.95c.11-.07,2.28-.86,2.49-.91Z"/>
  <path class="cls-20" d="M11.91,20.32l.92,3.25c-3.25,1.11-4.04,1.28-4.68-2.52.02-.15,1.16-.64,1.43-.73,1.37-.48,1.63.02,2.32,0Z"/>
  <path class="cls-5" d="M9.12,36.13l3.41-.88,1.71,3.2-3.25.94c-.47-.85-1.1-1.5-1.86-3.26Z"/>
  <path class="cls-20" d="M33.28,32.88l.93,3.25-2.97.87c-.27-.06-1.07-1.03-1.21-1.33-.19-.38-.62-2.07-.45-2.31.95-.17,1.85-.55,2.79-.76.57-.12.87.28.91.28Z"/>
  <path class="cls-20" d="M30.96,28.22c.14.7,1.87,2.25,1.33,3.2-1.27.61-2.62,1.7-3.91.53-.22-.27-.11-.7-.21-.94-.23-.58-.5-1.72-.46-2.33.46-.04.94.06,1.39,0,.62-.08,1.24-.36,1.86-.46Z"/>
  <path class="cls-5" d="M39.79,35.67c-.04.49.43,2.11.93,2.33.05.48-.05.69-.46.93-2.75,1.58-4.17.23-4.18-2.79,1.2-.01,2.88-1.57,3.72-.46Z"/>
  <path class="cls-20" d="M13.77,24.97l.93,3.26-3.66.41c-1.73-3.02-.47-4.81,2.73-3.67Z"/>
  <path class="cls-5" d="M10.98,30.55l.9,3.69-2.76.96s-.62.16-.92-.33-.7-2.91-.42-3.33c1.01-.46,2.16-.62,3.2-.99Z"/>
  <path class="cls-20" d="M18.88,46.36c-.21-.28-1.12-3.05-.93-3.25l3.25-.93.94,2.79c-.07.04-.16,1.24-.93,1.16.5.73,1.1.65,1.86.7l1.39,1.86c.21,1.37-.84,1.02-1.87.71-.89-.27-1.72-1.16-2.77-1.18-.2-1.38.25-.73.93-.92.34-.1.93.23.93-.23,0-.44-.62-.18-.93-.23-.76-.13-1.25.35-1.86-.47Z"/>
  <path class="cls-5" d="M18.42,23.11l.92,2.53c-.15.69-2.77,1.34-3.44,1.23-.43-.07-.22-.98-.51-1.41-.35-.52-1.09-.42-1.14-.49-.03-.04-.05-.74,0-.93l.46-.46c.45-.22,2.18-.76,2.7-.85.62-.11.93.38,1.02.39Z"/>
  <path class="cls-5" d="M34.68,23.11v.47c0,.15,0,.31,0,.47s.03.32,0,.47c-.04.24.14.58-.08.84l-3.18,1.49c.03-1.41-1.33-2.75-.72-3.72.75-1.21,3.06-1.14,3.98,0Z"/>
  <path class="cls-20" d="M28.18,13.34c.33-.13,1.67-.57,1.83-.46,0,.83.83,1.67.96,2.32.06.3.09,1.12-.06,1.33l-3.18.99-1.4-3.02c.02-.22,1.51-1.02,1.85-1.16Z"/>
  <path class="cls-20" d="M11.45,40.31l3.22-.91c.44,1.51,1.85,2.53.96,4.16-1.69.32-3.09-.47-3.93-1.9-.3-.5-.16-1.22-.25-1.36Z"/>
  <path class="cls-5" d="M41.18,29.16s.8-.2.94.3c.22.83-.06,2.2-.07,3.12-.36,1.09-1.48.64-2.26.76l-.93-.47c-.05-.45.07-.97,0-1.4-.05-.31-.34-.97-.46-1.4h.46s2.32-.93,2.32-.93Z"/>
  <path class="cls-5" d="M33.75,16.6c1.91-.4,2.68,1.07,3.26,2.57l-2.33,1.15c-.7-.63-1.49-1.84-1.66-2.79-.14-.79.67-.77.73-.93Z"/>
  <path class="cls-20" d="M10.01,29.58l-2.74.97c-2.09-4.89,2.78-6.15,2.74-.97Z"/>
  <path class="cls-18" d="M10.98,15.66l.94,2.79c.19.14,1.4-.36,1.85-.47.1.72-.86,1.47-.93,1.86-.39-.13-.88.46-.93.46-.69.02-.95-.48-2.32,0v-.93c2.01-.81,1.6-2.52,0-2.79,1.06-1.62.51-.43,1.39-.93Z"/>
  <path class="cls-3" d="M40.72,39.85c.14.26.62.24.4,1.03-.59,2.19-2.66,4.43-3.19.83-.04-.29-.04-.6.03-.89l2.76-.97Z"/>
  <path class="cls-20" d="M9.59,16.59c1.6.27,2.01,1.98,0,2.79-.43.18-.96.22-1.39.46-.17-1.3.73-2.25,1.39-3.26Z"/>
  <path class="cls-3" d="M24.92,11.02c1.33.24,2.42.3,3.71.94l-1.39.92c-.56-.08-1.23.17-1.8-.05l-.52-1.81Z"/>
  <path class="cls-20" d="M40.25,35.2c.58-.76.57-1.15,1.86-.93l-.46,3.72-1.39-2.79Z"/>
  <path class="cls-16" d="M15.63,44.03l1.33.06,1,2.73c-1.05-.1-2.05-1.8-3.25-1.87v-.92c.26-.07.82.09.93,0Z"/>
  <polygon class="cls-16" points="8.19 25.43 6.8 25.43 7.27 22.18 8.19 25.43"/>
  <path class="cls-18" d="M41.65,37.99h-.93c-.5-.22-.97-1.84-.93-2.33,0-.03.33-.3.46-.46l1.39,2.79Z"/>
  <path class="cls-18" d="M41.18,28.23c.03.28-.07.85,0,.93l-2.32.93c-.01-1.31,1.2-1.69,2.32-1.86Z"/>
  <path class="cls-18" d="M24.45,46.83c.08.49.63,1.17.46,1.86h-.46s-1.39-1.86-1.39-1.86c.46.03.93-.02,1.39,0Z"/>
  <path class="cls-3" d="M33.75,15.67l-2.32-.47c-.05-.29.08-.71,0-.93h.46c.38.31,1.57.18,1.86,1.4Z"/>
  <path class="cls-18" d="M37.47,28.23c-.46.14-.42.54-.46.93-.37-.39-.91-1.4-.93-1.86,0-.05.28-.41.46-.93.81.41.67,1.26.93,1.86Z"/>
  <path class="cls-1" d="M28.64,44.97c.43.2.34.62.46.93h-.46s-.93,0-.93,0v-.93c.24-.09.69.09.93,0Z"/>
  <path class="cls-18" d="M31.43,14.27s-.77-.63-.46-.93c1-.95.86.87.93.93h-.46Z"/>
  <path class="cls-18" d="M39.79,33.34c-.28.04-.84-.08-.93,0v-.47s.93.47.93.47Z"/>
  <path class="cls-18" d="M20.74,46.83c.31.06.93-.21.93.23,0,.46-.6.14-.93.23v-.47Z"/>
  <path class="cls-18" d="M14.24,24.04c.1-.39.14-.31.46-.46l-.46.46Z"/>
  <polygon class="cls-5" points="38.39 53.34 38.39 60.31 32.81 55.44 38.39 53.34"/>
  <path class="cls-20" d="M27.24,44.04c-.37-.02-.71.4-.93.46-.58.16-1.27.33-1.86.46-.4.09-.97-.08-1.39,0l-.93-3.25,3.51-1.37c.76,1.13,1.39,2.32,1.6,3.69Z"/>
  <path class="cls-5" d="M28.17,18.46l3.41-.9,1.66,3c-2.79,2-4.51,1.21-5.08-2.1Z"/>
  <path class="cls-20" d="M17.46,33.35l.93,3.69c-2.94.84-4.63.71-4.62-2.76l3.69-.92Z"/>
  <path class="cls-20" d="M24.92,25.43l.73,3.27c-.39.67-2.78,1.25-3.45.84l-1-3.18,3.71-.93Z"/>
  <path class="cls-20" d="M22.13,31.48l.93,3.71-2.99.92c-.7-.15-1.51-3.16-1.15-3.66l3.21-.98Z"/>
  <polygon class="cls-5" points="20.25 27.31 21.67 30.54 18.26 31.44 16.56 28.23 20.25 27.31"/>
  <path class="cls-20" d="M25.37,14.74l1.41,3.24c-1.4.32-2.61,1.32-4.14.89l-.47-3.17,3.19-.97Z"/>
  <polygon class="cls-20" points="23.96 36.16 25.38 39.38 21.71 40.28 20.27 37.06 23.96 36.16"/>
  <path class="cls-5" d="M35.14,37.06l.74,3.27c-2.67,1.77-4.06.64-4.46-2.34l3.71-.94Z"/>
  <path class="cls-20" d="M24.97,23.53c-.24-.17-1.19-2.66-.78-3.24.34-.47,2.4-1.12,3.06-.7,2.73,2.07-.93,4.92-2.27,3.94Z"/>
  <path class="cls-5" d="M27.71,28.22c-1.18-.72-1.86-2.39-1.86-3.72l3.22-.93,1.43,3.71-2.79.94Z"/>
  <path class="cls-5" d="M20.24,41.19c-.17.24-2.65,1.19-3.24.78-2.41-1.71.48-5.1,2.36-3.79.41.29,1.14,2.64.88,3.01Z"/>
  <path class="cls-5" d="M30.45,38.96l.77,3.24-3.07.71c-1.82-2.87-.75-3.66,2.3-3.95Z"/>
  <path class="cls-4" d="M23.06,44.97c.42-.08,1,.09,1.39,0v.93c0,.3-.04.65,0,.93-.46-.02-.93.03-1.39,0-.76-.05-1.36.03-1.86-.7.77.08.86-1.12.93-1.16.14-.09.64.05.93,0Z"/>
  <path class="cls-4" d="M16.1,15.67c.16.27-.29,1.13.93.93v.93c-1.73.45-1.2.01-1.86,0,.3-.41.3-.97.46-1.4.07-.19.3-.34.46-.46Z"/>
  <path class="cls-4" d="M22.13,20.32c.06.13-.05.33,0,.47l-1.39.93v-1.16s1.39-.23,1.39-.23Z"/>
  <path class="cls-4" d="M27.24,44.04c.05.29-.03.63,0,.93-.32.1-.62.37-.93.46v-.93c.21-.06.56-.49.93-.46Z"/>
  <path class="cls-4" d="M29.1,28.69c-.45.06-.94-.04-1.39,0,0-.15,0-.31,0-.47.23.14,1.16-.21,1.39.47Z"/>
  <path class="cls-4" d="M35.14,23.57h-.46s0-.47,0-.47h.46c-.02.17.05.37,0,.47Z"/>
  <path class="cls-18" d="M16.1,15.67c-.17.12-.39.28-.46.46-.4.04-.42-.12-.46-.47-.02-.15.01-.31,0-.47h.46c.08.15.36.29.46.47Z"/>
  <path class="cls-4" d="M15.17,15.67l-.46-.23.46-.23c.01.15-.02.31,0,.47Z"/>
  <path class="cls-18" d="M26.31,44.5v.93c-.61.19-1.25.29-1.86.46v-.93c.59-.14,1.28-.3,1.86-.46Z"/>
  <path class="cls-4" d="M38.4,30.09c.13.42.42,1.09.46,1.4l-.46.46c-.38-.78-1.23-.66-1.39-1.86-.04-.27-.03-.66,0-.93.04-.39,0-.8.46-.93.26.61.75,1.27.93,1.86Z"/>
  <path class="cls-1" d="M38.86,32.88v.47s-.46-1.4-.46-1.4l.46-.46c.07.43-.05.95,0,1.4Z"/>
  <path class="cls-18" d="M34.68,24.04c0-.15,0-.31,0-.47h.46c-.09.18-.32.32-.46.47Z"/>
</svg>