<?xml version="1.0" encoding="UTF-8"?>
<svg id="_레이어_1" data-name="레이어 1" xmlns="http://www.w3.org/2000/svg" viewBox="0 0 177.94 201.5">
  <defs>
    <style>
      .cls-1 {
        fill: #424b4f;
      }

      .cls-2 {
        fill: #222328;
      }

      .cls-3 {
        fill: #5a233c;
      }

      .cls-4 {
        fill: #5c6466;
      }

      .cls-5 {
        fill: #866850;
      }

      .cls-6 {
        fill: #b8b7af;
      }

      .cls-7 {
        fill: #c3cbce;
      }

      .cls-8 {
        fill: #1b1b1a;
      }

      .cls-9 {
        fill: #752a47;
      }

      .cls-10 {
        fill: #e8e6dd;
      }

      .cls-11 {
        fill: #858e90;
      }

      .cls-12 {
        fill: #41443e;
      }

      .cls-13 {
        fill: #28272e;
      }

      .cls-14 {
        fill: #323731;
      }

      .cls-15 {
        fill: #712945;
      }
    </style>
  </defs>
  <path class="cls-13" d="M125.87,130.33c1.14-.51,4.28-2.91,5.11-3.95,1.51-1.89,2.55-4.84,3.69-7h1.9s1.37,2.12,1.37,2.12c1.26-1.91,2.53-11.26,3.72-11.87,4.53-2.31,9.01,9.32,6.98,12.8,5.13-1.7,1.66,7.65.2,9.74-.5.72-2.42,2.18-2.48,2.65-.13.9,1.87,1.13-.25,3.45-3.05,3.32-7.52,4.36-11.87,4.63,1.72,3.9-6.29,3.2-8.54,2.74s-4.13-1.75-6.32-2.28c.47,4.21,1.13,8.99-.93,12.83l-1.39-.28c-.98,2.04.31,11.42-1.69,12.08l-2.03-.44-.47,5.58h42.51c4.11,4.13,7.51,8.93,11.39,13.25.54.61.94,1.15,1.85,1.17v.47c.2.61.55,1.11.93,1.62,1.83,2.46,6.94,6.85,8.01,9.2.31.68.51,1.42.31,2.16l-2.04.51-173.79.02c-4.19-.96-.81-3.27.72-5.14.35-.43.58-.97.93-1.4,4.91-5.9,11.49-11.87,15.33-18.14.16-.26.33-.81.46-.93.73-.62,2.55-1.26,3.26-2.55,17.58-.49,35.32-.18,52.96-.24,3.87-.01,7.75,0,11.62,0v-2.33c-1.75,2.42-8.09-.46-8.83,0l-4.05-5.94c-1.94.11-4.68-1.12-6.43-1.06s-2.36,1.38-5.44.84c-3.33-.58-6.34-3.9-8.21-4.34-.65-.15-1.02,1.1-2.79.5-3.21-1.09-5.26-7.77-5.71-10.84-.4-.26-.93,0-1.29-.08-.12-4.06-.48-5.56,2.13-9.26.54-.76,2.1-1.88,2.3-2.38.29-.73-.42-1.43-.04-2.3.79-1.83,5.63-3.26,7.23-4.2l.46,1.4c-.97,1.94-6.04,1.93-3.78,4.04l-.13.6c-2.97,2.19-5.94,5.55-6.3,9.31l1.57-.44.72.74c-.77,3.26.02,5.66,1.43,8.54.43.88,1.39,1.63,1.4,2.79.86.09.64-1.59.97-1.81,1.24-.85,4.24,2.55,5.57,3.41.89.57,5.83,3.14,6.44,2.58l.75-1.79c3.02,1.16,9.8.91,11.83,3.42.97,1.21.97,3.05,2.54,3.97-.24-.86.26-2.96.23-3.25.37-.02.71.4.93.47.78,3.09,3.3,5.7,6.04,2.8-1.81-.19-2.04-2.26-3.25-3.26.17-.36-.09-2.15,1.16-1.86.24.06,1.31,2.07,2.1,2.79.49.44.57,1.29,1.83.9,1.99-3.27,1.93-15.27-.9-17.41-1.55-1.18-7.05-1.58-9.29-2.09-.31-.07-.79-.33-1.39-.47l1.06-1.78c2.36.85,4.82,1.08,7.3,1.32.3.03.62-.02.93,0,.03,0,.12.46.46.47h.93c4.78,3.08,4.74,11.34,4.13,16.46-.27,2.22-1.39,3.31-1.88,5.09s-.08,3.55-.84,5.21l1.38.46-1.39,3.47c2.49.4.94,3.93,1.6,6.08,1.06,3.45,8.37,3.97,11.41,4.16-.01-.62.03-1.24,0-1.86-.06-1.26-1.65-3.97-.23-3.73,1.92.32,1.88,2.33,2.09,3.73.09.59-.07,1.26,0,1.86l4.91-.45c.27-.44.19-.93.2-1.41.06-1.62-1.09-3.13-.93-3.94.39-1.94,2.33,1.58,2.79,1.62-.11,1.04.08,2.19,0,3.25,1.96-.42,3.29-2.32,2.69-4.32-.3-.98-1.32-1.2-1.77-1.73-1.07-1.25-2.23-2.44-3.25-3.72-.11-.14.11-.79,0-.93.98-.05,1.11,1.13,1.38-.23.78-3.94,1.36-7.85,1.63-11.86,1.54-1.54.91,1.1,2.56.93l.47-12.55,2.78.46c.09-6.05-.1-12.14-.93-18.14v-.47c.48-.43.08-1.13,2.32-1.4.19,1.94-.32,4.32.1,6.18.94,4.19,9.96,4.94,13.37,4.51-.21-.96-1.99-.41-2.56-1.38-.34-.58-.23-1.24-.23-1.86,5.27.6,10.75.25,14.87-3.49-1.64-.38-4.43,1.49-4.18-1.62,4.92-.93,8.56-5.79,8.82-10.7-1.55,1.6-2.13.59-3.25.47.77-4.55,2.23-11.28-3.25-13.48.37,2.71-3.15,13.07-5.43,13.86-.49.17-1.03.08-1.54.09l-.46-2.79c-.94,3.2-3.97,6.62-6.82,8.31-.83.49-1.56.33-2.02.53l-.46-1.4ZM87.3,178.69c-.95-.68-.54-3.1-1.21-3.28-20.49-.68-41.1-.47-61.65-.34-1.74.52-9.38,10.76-11.24,12.93-2.83,3.31-6.2,6.27-8.84,9.76-.35.47-.9.58-.69,1.4h170.98l-20.77-24.09c-4.87.46-40.03-1.11-41.46.39-1.29,1.36,1.45,4.7,3.23,5.09,1.3,4.87-.08,7.65-4.99,8.72-5.72,1.25-20.63,2.16-22.22-5.44-.24-1.17-.08-4.89-.26-5.11-.15-.18-.77.05-.87-.03Z"/>
  <path class="cls-13" d="M59.89,11.74c.88-.39,1.6-1.09,2.78-.94-.19-.93-1.88-.7-1.87-2.09.03-3.92,14.01-4.71,16.74-3.49.27-.2-2.23-2.24-.81-3.6,2.17-2.08,9.92,1.99,11.73,4.06,2.2-3.19,7.11-6.35,11.14-5.56,3.69.73-.12,4.76.25,5.1,4.57-.59,11.09-1.17,15.19,1.3s.26,3.95.6,4.28c3.29.53,10.57,5.07,11.5,8.26s-1.35,2.31-1.28,2.67c2,2.2,2.37,6.39,3.52,8.57.17.33,2.61,3.08,3.04,3.47,1.16,1.09,5.61,3.64,5.92,4.8.42,2.13-1.31,2.7-3.19,2.46,1.8,3.94,3.64,8.41,1.39,12.55l-1.29-.1c-.22-.2-.04-.78-.1-.83-.08-1.45.14-2.97,0-4.41-.39-3.85-2.2-6.04-3.24-9.54l3.25.24c-.78-.86-1.98-1.04-2.81-1.84-2.36-2.27-3.82-5.96-6.93-7.02-15.26-5.2-44.53-4.8-60.51-2.41-2.75.41-11.49,1.74-13.51,2.76s-5.72,7.89-9.16,8.28c.64,1.2,3.03-.48,4.18,0,.2.19-1.14,3.63-1.39,4.18-.04.1-.68.33-.86.75-1.22,2.9-1.67,5.86-1.46,9.01l3.71-2.79c-.35,2.31,1.97,10.32,3.96,11.16,1.24.52.54-2.87,1.85-2.32l3.49,3.25c-.86-3.54-.44-7.33.93-10.69-3,1.38-3.23-2.4-3.25-4.65s.55-3.53.93-5.58c.04-.22.37-.56.46-1.4.53.07.69,0,.93-.47l.43.22c-.69,1.17-1,2.22-.43,3.5-.72,2.45-.39,4.07,0,6.51.23.24,3.3-1.56,3.71-1.86h.93s-.46,1.4-.46,1.4c-.4.3-.9.96-1.38,1.29-1.04,5.4-2.42,13.02,1.84,17.31l.48-3.25c.49,0,.96-.12,1.41.2.33.24,2.67,5.79,3.95,7.21.98,1.09,2.52,1.92,3.7,2.81,1.61.48-.2-4.97,1.38-4.18.67,1.66,7.74,8.28,9.06,6.97v-2.09c.03-.44.8-.28,1.09-.17,1.74.67,5.33,5.06,7.49,5.08,3.07.04,5.83-4.54,7.94-5.12,1.07-.29.78,1.67,1.14,2.29,3.93-.59,6.49-4.23,9.05-6.96,1.39-.57.35,3.79.69,4.18l4.64-2.79c.09.3.44.68.46.93.05.47.08,1.43,0,1.86-1.75-.05-2.76,1.62-4.45,1.84-1.5.19-3.06-.65-4.04-.38-1.92.52-5.36,6.02-8.94,2.72l-3.86,3.13c-.58,1.62.75,3.91.84,5.25.05.69-.23,1.66-.46,2.33-.03.08-.7.17-.46.93.3.03.63-.04.93,0,2.03.27,3.4.08,5.13,1.6.96.84,3.71,5.6,3.69,6.77-.01.75-.96,2.86-.47,4.19h-.93c-.14-2.7-.88-4.97-2.24-7.3s-1.31-2.21-3.8-2.94c-.3-.09-2.32-1.1-2.33-.23l2.33.7c1.3.23,3.67,5.67,3.25,6.04-2.53.37-2.06-3.12-3.75-4.37-4.35-3.22-3.3,6.19-3.21,8.56.09,2.61-.19,4.46.93,6.98-.07,0-.71.36-1.39.47-.04,0-.26-.45-.63-.39-.51.09-.66.81-.76.86-2.14.97-2.42.32-3.25.47,4.25-2.95,3.27-6.8,2.79-11.16-.05-.45.06-.95,0-1.4.8-1.28.94-3.28-.46-4.19-3.53-2.27-4.3,4-4.88,4.19l-1.17-.27c-.31-1.8.76-4.15,2.09-5.33.73-.65,1.92-.58,2.1-1.38-4.08-.58-7.09,6.83-7.43,9.99-.36,3.37.45,5.16,1.39,8.14.25.78.82,1.8.93,2.33s-.08,1.28,0,1.86c-3.64,1.13-7.19,3.88-11.04,4.53s-7.79,0-11.7.14c0,1.25-.55,2.44-.49,3.7h-.93s0,2.79,0,2.79c-.05-.1-.58-.21-.81-.8-.98-2.49-.2-4.11-.19-6.58-15.21-4.81-13.26-18.2-6.34-29.51,3.5-5.72,8.47-10.83,14.33-14.12.19-2.01-.01-3.51-.96-5.27-1.14-.48-.8.87-1.21.95-3.94.78-4.08-5.74-4.91-6.45-.22-.19-1.18-.09-1.72-.34s-1.17-1.01-1.66-.97c-.32.02-.84.68-1.44.77-2.84.44-6.37-6.18-6.25-8.84-.17-.18-2.47,2.75-3.95-.92-1.62-4.03.35-8.72,1.63-12.56-1.38.24-3.4-.74-3.08-2.35.17-.86,7.52-5.41,8.85-8.38.14-.32,1.15-3.41,1.2-3.69s-.02-.63,0-.93c.87-.45,1.83-2.21,1.87-3.07.06-1.47-1.45-1.44-.58-3.77.92-2.46,3.08-3.08,4.75-4.32l.93.93c-.26.18-1.06,1.06-1.39,1.4h-1.39c-.16.42.47.84.46.93-.01.29-.6.9-.46,1.4-.1-.1-.48.07-.46.23.03.51.68-.01.46-.23,22.74-6.03,48.06-6.73,70.62.46-1.25-3.39-6.63-6.33-9.96-7.46-1.72-.59-3.65-.15-4.89-1.6l5.1-1.63c-5.34-3.95-12.52-1.88-18.58-.93l2.32-6.04c-4.59.13-6.67,3.72-9.99,6.06-2.89-2-5.65-4.94-9.52-4.66,1.02,1.6,2.85,3.02,2.79,5.11-5.26-1.31-9.45-2.66-14.97-1.27-.36.09-3.59.99-2.68,1.73.86-.2,6.01,1.08,5.11,2.32-3.51.58-6.56,1.25-9.75,2.79l.46-2.33ZM70.11,17.78c-.37.05-.43.46-.46.47-.87.11-1.88-.06-2.79,0-.54.04-1,.02-1.39.47-1.25-.13-2.13.26-3.25.47-4.94.89-9.49,3.48-10.22,8.83l10.68-1.86c.45-.04.95.06,1.39,0,2.46-.33.95-.6,1.39-.93.35-.26,7.37-.36,8.61-.45.6-.04,1.22-.48,1.37-.48h7.9c.9,0,3.83-.6,4.88-.93h1.39c.31.31.69.47,1.12.48,6.47.2,12.91.53,19.32,1.38,1.84.24,4.45,1.08,6.5,1.4.85.13,1.93-.13,2.79,0,1.86.27,4.18,1.25,6.27,1.4.72.05.8.08.68-.69l-3.58-5.85c-2.31-1.02-5.16-2.4-7.56-2.77-7.73-1.19-15.13-1.69-22.77-1.4-2.33.09-4.18.08-6.5,0-5.44-.19-10.23-.22-15.8.47ZM52.69,18.25v.47c.3-.16.3-.31,0-.47ZM84.05,90.33c.65-.15,1.6.11,2.32,0-.02-1.07-.87-1.33-.97-2.55-.14-1.66.76-3.92.93-5.62l-3.45-3.91-.62.08c.05,1.35-2.85.99-3.92.75-1.69-.38-4.28-3.41-5.29-3.55-.53-.07-1.11.72-1.8.85-2.36.44-4.07-.95-5.78-2.32.31,3.69,5.76,6.04,8.84,7.19,2.19.82,5.1,1.15,7.16,2.13.69.32,1.38.3,1.18,1.37-6,.06-11.65-2.68-16.72-5.58-.85-.48-1.03-.53-1.86-.93-.21-.1-.45-.94-.76-.95-7.61,3.79-16.38,16.21-17.36,24.67-.1.86-.14,2.64.08,3.42.17.58.76.64.84.76.2.31.41.86.46.93-.74.54-1.15.3-.74,1.41,2.71,7.37,11.64,9.2,18.64,8.84,1.39-.07,6.5-.74,7.23-1.61,1.02-1.21-.64-3.09-.98-4.46-.14-.56-.4-1.1-.46-1.4-.12-.52.07-1.28,0-1.86-.07-.52-.46-1.16-.46-1.4-.1-2.68.9-4.55.73-6.99-4.54-2.45-9.02-.74-13.74-.45-.42-2.13,1.84-1.91,3.25-2.33l-1.39-2.32,4.66.27c1.07-.74.46-4.79,2.07-4.46,1.75.37-.24,5.39.28,6.01,1.31.51,3.05.27,4.27.6,1.86.5,2.45,2.3,5.21,1.77,1.35-.26,2.87-4.78,4.4-6.31,1.12-1.12,2.18-1.72,3.74-2.07ZM89.6,83.84l-1.31.04-.99,3.66h3.25s-.95-3.7-.95-3.7ZM88.24,92.19l1.34-.76v-1.27l-1.34-.76v2.79ZM75.69,100.56c-3.13-.82-3.07,4.58-2.82,6.78.1.92,1.16,4.7,1.53,5.45.83,1.67,2.33,1.56,3.65.52-1.42-4.13-2.8-8.3-2.36-12.74Z"/>
  <path class="cls-9" d="M115.65,180.55c-1.78-.39-4.51-3.74-3.23-5.09,1.43-1.5,36.59.07,41.46-.39l20.77,24.09H3.67c-.21-.82.34-.93.69-1.4,2.63-3.48,6-6.44,8.84-9.76,1.86-2.18,9.5-12.41,11.24-12.93,20.55-.13,41.16-.34,61.65.34.68.18.27,2.6,1.21,3.28.26,1.4-.71.9-1.61.93-13.74.46-31.29.43-44.5,3.85-16.04,4.15,2.01,7.71,7.83,8.65,22.54,3.62,66.6,4.37,88.45-1.56,2-.54,6.52-1.45,5.97-4.1-.63-2.19-10.99-4.01-13.31-4.39-4.54-.74-10.33-.59-14.51-1.52Z"/>
  <path class="cls-10" d="M58.03,133.12c.47.91,1.89,1.33,2.8,1.62,16.08,5.1,31.15,8.69,48.05,3.47,1.57-.48,5-1.37,5.37-3.23.56-.16,1.49-.33,1.86-.47l.46.47c.82,6,1.02,12.08.93,18.14l-2.78-.46-.47,12.55c-1.65.17-1.02-2.48-2.56-.93-.27,4.02-.85,7.92-1.63,11.86-.27,1.37-.4.18-1.38.23-.13-.17-2.02-1.79-2.16-1.82l-2.95,1.35c-.33-.24-.02-2.67-1.17-2.34l-4.4,2.8v-3.72s-3.72,1.39-3.72,1.39v-6.74l2.79-9.76c-1.33-.91-1.34,1.98-2.79,1.62-.48-5.17,2.04-9.73,3.71-14.41l-10.22,2.32h-.93l-.46-.47c-.31-.02-.62.03-.93,0l-8.91-3.87-2.7-.31.46,1.85c-.51.37-3.94-.86-3.71,1.39,2.15.52,4.35.9,6.5,1.4.6.14,1.09.4,1.39.47-1.5,2.38.47,1.96.93,3.72l-2.32.69,3.25,3.96h-5.11s1.85,3.72,1.85,3.72c-5.99-.74-11.82-2.48-17.42-4.66-1.9-.26.94,2.82-.92,2.79l-6.29-6.5-.92.24-1.4,4.4c-1.41-2.88-2.2-5.27-1.43-8.54l-.72-.74-1.57.44c.37-3.75,3.33-7.12,6.3-9.31l.13-.6c-2.26-2.12,2.82-2.11,3.78-4.04.45-.05.96.07,1.39,0Z"/>
  <path class="cls-3" d="M87.3,178.69c.11.08.73-.15.87.03.18.22.02,3.94.26,5.11,1.59,7.6,16.5,6.7,22.22,5.44,4.91-1.08,6.29-3.85,4.99-8.72,4.18.93,9.97.79,14.51,1.52,2.32.38,12.68,2.19,13.31,4.39.55,2.64-3.97,3.55-5.97,4.1-21.85,5.93-65.91,5.18-88.45,1.56-5.82-.94-23.88-4.49-7.83-8.65,13.21-3.42,30.76-3.39,44.5-3.85.89-.03,1.86.47,1.61-.93Z"/>
  <path class="cls-2" d="M107.28,97.31c-.08.4.12,1.09,0,1.4-.09.24-.97.33-.97,1.15-.01,1.83,1.13,3.86.97,6.75,0,.07-.38.71-.46,1.4-.07.59.11,1.32,0,1.86-.08.38-.35.88-.46,1.4-.77,3.44-3.07,4.31,1.74,5.46,5.92,1.42,15.07.58,19.87-3.13.64-.5,2.18-2.12,2.55-2.8h.93s0,1.4,0,1.4c-.81.99-1.66,2.58-2.8,3.46-1.71,1.32-3.83,2.34-5.99,2.62.24,2.7.69,4.7-.3,7.37-.28.75-1.37,1.54-1.46,2.19-.13.92.86,2.23-.13,3.42,1.64-.04,3.62-.25,5.11-.93l.46,1.4c-.63.28-1.33,1.2-2.79,1.4s-3.19-.17-4.65,0c-2.25.27-1.85.97-2.32,1.4-.08.07-.32-.06-.46,0-.36.14-1.3.31-1.86.47-16.25,4.51-32.52,3.9-48.79,0v-1.86c6.41,1.87,13.78,2.99,20.44,3.26.15,0,.31,0,.46,0,.5.02,1.29-.47,1.86-.47.23,0,.88.64,1.39.46v-3.02c-.17-.69-1.2.25-1.39.23-.6-.05-1.39-.48-1.86-.47-1.36.04-1.79.3-2.79.47-.57.09-2.11-.14-2.32,0l-21.6-5.12-.21,2.78c.4.16,1.08-.09,1.36.02.15.06.3.41.46.47v1.86c-.72-.21-2.31-.9-2.56-.91-.38-.02-.6.43-.7.45-.43.07-.94-.05-1.39,0l-.46-1.4c.37-.21.69-.22.85-.76.14-1.13.16-2.3.08-3.42-.03-.39-.02-.81-.46-.93-.13-.31-.3-.63-.46-.93v-2.79s.93,0,.93,0c.05,1.06.89,2.66,1.74,3.27,1.18.84,7.64,2.64,9.4,3.03,2.28.51,17.16,2.81,18.14,2.08.02-.31-.02-.62,0-.93.06-1.23-.02-2.49,0-3.72h.93s-.02,3.89-.02,3.89c.12.57.74.2.95.29.38.17.64.73,1.39.46.03-.46-.03-.93,0-1.39.59.06,1.3-.09,1.86,0,.01.47-.02.93,0,1.4,8.09-.5,18.55-1.08,26.01-4.43,3.37-1.51,3.68-4.3,2.8-7.67h-11.38c-1.96,0-8.72-3.81-11.85-4.65v-1.86c.15.03.31-.02.46,0,.62.08,1.2.51,1.86.46v-2.02s-.93-.3-.93-.3c.09-.2-.09-.71,0-.93,1.17-3.01,1.6-3.13,1.39-6.98h.93c-.5-1.33.45-3.44.47-4.19,2.26.43,3.98-.73,6.04-1.4ZM101.71,100.56v7.67c0,.84-2.09,5.08-1.86,5.34l2.96.44c1.94-.63,5.27-15.08-1.1-13.45ZM118.44,129.4c-6.5.61-12.8,2.83-19.34,3.66-2.13.27-4.87.57-6.88.11-.98.21-1.55,3.18.89,3.24,1.31.04,4.5-.36,6.04-.51,3.14-.29,17.19-2.4,18.81-4.42.58-.72.55-1.22.47-2.08Z"/>
  <path class="cls-10" d="M145.85,125.21c-.44-.05-.87.11-1.18.43l-2.07,3.06,2.55.23.23.92c-4.03,2.7-7.89,5.49-13.01,5.59-.13,1.07,3.85,1.16,2.79,2.31-1.3,1.4-9.83-.61-11.16-2.08-.68-.76-.48-1.67-.46-2.56,1.46-.19,2.16-1.12,2.79-1.4.46-.2,1.19-.04,2.02-.53,2.85-1.68,5.88-5.11,6.82-8.31l.46,2.79c.5,0,1.05.08,1.54-.09,2.28-.79,5.8-11.15,5.43-13.86,5.48,2.21,4.02,8.93,3.25,13.48Z"/>
  <path class="cls-6" d="M87.77,147.07l10.22-2.32c-1.67,4.68-4.19,9.25-3.71,14.41,1.45.36,1.46-2.52,2.79-1.62l-2.79,9.76v6.74l3.71-1.39v3.72s4.41-2.8,4.41-2.8c1.15-.34.84,2.09,1.17,2.34l2.95-1.35c.14.03,2.03,1.65,2.16,1.82.11.14-.11.79,0,.93-1.75,1.36-2.12.02-3.02,0-.7-.02-1.48,1.23-2.72.96-.51-.11-.71-2.01-1.85-1.83l-4.26,2.27-.24-2.79c-1.94.15-2.89,2.75-2.81,4.41.19,3.99,5.02,5.67,8.39,5.82.03.62,0,1.25,0,1.86-3.04-.19-10.35-.71-11.41-4.16-.66-2.15.89-5.68-1.6-6.08l1.39-3.47-1.38-.46c.75-1.66.33-3.38.84-5.21s1.62-2.87,1.88-5.09c.62-5.12.65-13.38-4.13-16.46Z"/>
  <path class="cls-6" d="M78.48,147.53c2.24.51,7.74.92,9.29,2.09,2.83,2.14,2.89,14.14.9,17.41-1.26.39-1.34-.46-1.83-.9-.01-1.72,1.42-2.29,1.75-4.06.96-5.19-1.22-12.34-7.75-9.85.54,3.4,1.07,4.69-2.81,5.57-.23.31,1.73,6.23,1.85,7.41.03.29-.47,2.4-.23,3.25-1.57-.91-1.57-2.76-2.54-3.97-2.03-2.51-8.81-2.26-11.83-3.42l-.75,1.79c-.62.56-5.55-2.01-6.44-2.58-1.33-.85-4.33-4.25-5.57-3.41-.33.23-.11,1.9-.97,1.81-.01-1.15-.97-1.9-1.4-2.79l1.4-4.4.92-.24,6.29,6.5c1.86.02-.98-3.06.92-2.79,5.6,2.17,11.43,3.92,17.42,4.66l-1.85-3.72h5.11s-3.25-3.96-3.25-3.96l2.32-.69c-.46-1.76-2.42-1.34-.93-3.72Z"/>
  <path class="cls-6" d="M145.85,125.21c1.12.12,1.7,1.13,3.25-.47-.26,4.91-3.9,9.77-8.82,10.7-.25,3.11,2.54,1.23,4.18,1.62-4.12,3.74-9.59,4.09-14.87,3.49,0,.63-.11,1.28.23,1.86.57.98,2.35.42,2.56,1.38-3.41.43-12.44-.32-13.37-4.51-.42-1.86.09-4.24-.1-6.18,1.46-.17,3.21.19,4.65,0-.02.9-.23,1.8.46,2.56,1.32,1.47,9.86,3.48,11.16,2.08,1.06-1.15-2.92-1.25-2.79-2.31,5.11-.11,8.97-2.9,13.01-5.59l-.23-.92-2.55-.23,2.07-3.06c.31-.32.73-.48,1.18-.43ZM146.08,128.46v.47c.3-.16.3-.31,0-.47Z"/>
  <path class="cls-10" d="M102.17,186.13c-3.38-.14-8.21-1.83-8.39-5.82-.08-1.66.88-4.26,2.81-4.41l.24,2.79,4.26-2.27c1.14-.18,1.34,1.72,1.85,1.83,1.24.27,2.02-.98,2.72-.96.9.02,1.26,1.36,3.02,0,1.02,1.28,2.19,2.47,3.25,3.72-.3.51-.88,2.34-.93,2.79-.46-.04-2.4-3.56-2.79-1.62-.16.82.99,2.32.93,3.94h-5.11c-.2-1.4-.17-3.4-2.09-3.73-1.43-.24.17,2.46.23,3.73Z"/>
  <path class="cls-10" d="M86.84,166.13c-.79-.71-1.85-2.73-2.1-2.79-1.24-.29-.98,1.5-1.16,1.86-.11.23-.54.48-.5.91-.72-.2-1.62-.26-2.29-.45-.22-.06-.56-.48-.93-.47-.12-1.18-2.07-7.1-1.85-7.41,3.89-.88,3.36-2.17,2.81-5.57,6.53-2.49,8.71,4.65,7.75,9.85-.33,1.78-1.76,2.35-1.75,4.06Z"/>
  <path class="cls-6" d="M77.08,147.07c-2.16-.5-4.35-.88-6.5-1.4-.22-2.26,3.21-1.02,3.71-1.39l-.46-1.85,2.7.31,8.91,3.87c-2.48-.24-4.94-.47-7.3-1.32l-1.06,1.78Z"/>
  <path class="cls-10" d="M78.48,170.79c.74-.46,7.08,2.42,8.82,0v2.33c-3.86,0-7.74-.02-11.61,0l.05-.86c.69-.29,1.81-.2,2.4-.54.49-.29.29-.89.33-.92Z"/>
  <path class="cls-6" d="M83.59,165.2c1.21,1,1.44,3.08,3.25,3.26-2.74,2.9-5.25.29-6.04-2.8.67.19,1.57.25,2.29.45-.04-.44.39-.68.5-.91Z"/>
  <path class="cls-7" d="M111.93,181.02c.45.52,1.47.74,1.77,1.73.6,1.99-.74,3.9-2.69,4.32.07-1.06-.11-2.21,0-3.25.05-.45.63-2.28.93-2.79Z"/>
  <path class="cls-6" d="M109.14,186.13c-.02.48.07.97-.2,1.41l-4.91.45c-.06-.6.09-1.28,0-1.86h5.11Z"/>
  <path class="cls-6" d="M116.58,134.98l-.46-.47c.15-.06.39.07.46,0v.47Z"/>
  <path class="cls-6" d="M86.84,147.07c-.35,0-.43-.46-.46-.47l.46.47Z"/>
  <path class="cls-14" d="M122.15,49.4c.95-4.01-.51-7.32-1.39-11.16,1.27-.38.71.67,1.24.94.32.16.93-.11,1.08,0,.08.05.31,1.31.46,1.86,1.01,3.55,1.27,6.87.06,10.43l-1.92.27c-.33.28.93,2.61.93,3.02v6.74l3.03-2.35,1.86,1.89c1.09.28,3.07-4.9,3.34-5.95.44-1.69.7-3.45.6-5.21,1.41-.11,1.73,1.53,2.55,2.35.38.37,1.03.33,1.17.44.06.05-.12.63.1.83l1.29.1c-1.15,2.12-1.45,2.61-3.71.93.13,2.84-2.59,9.09-5.81,8.89-.91-.06-1.55-.86-2.11-.77-4.31.68-3.01,5.26-5.22,7.09-1.83,1.52-2.88-.22-3.36-.23s-.93,1.16-1.15,1.3c-.17.11-1.01-.21-1.32.07-.24.22,0,.73-.07.86-.24.43-.4.77-.93.93-.03-.25-.37-.63-.46-.93-.22-1.38,1.07-1.69,1.38-2.2.73-1.21,2.06-6.32,3.49-4.77l.93,2.78c.91-1.07,1.77-3.19,1.98-4.53.41-2.63.4-13.05-1.75-14.54l.93-.93c.78.62,1.5,1.3,2.32,1.86l.23.46.23-.46Z"/>
  <path class="cls-13" d="M119.36,78.24c2.73,2.2,4.33,3.12,6.7,6.08,5.46,6.84,11.59,19.22,6.33,27.55-.27.43-.91.28-.94.31v-1.4s-.93,0-.93,0c.89-1.61.69-2.59.93-4.19s.56-2.49.46-4.19c-.4-7.26-7.91-18.67-13.47-23.25l.93-.93Z"/>
  <path class="cls-2" d="M115.18,71.73c0,.37.07.74-.04,1.11-.09.18-.26.21-.42.29-.22.1-.86-.27-.95.26-.43,1.07.5,2.81.49,3.46,0,.58-.45,1.13-.46,1.4h-1.39s0,1.4,0,1.4c-1.68-.08-5.07,2.28-6.98,3.01-1.71.65-7.65,2.5-9.16,2.48-.63,0-1.2-.46-1.05-1.07,4.19-1.97,16.61-4.02,17.65-9.54.08-.43.05-1.39,0-1.86.53-.16.69-.5.93-.93h1.39Z"/>
  <path class="cls-13" d="M114.72,73.12c-.61,2.29,1.67,2.29,3.12,3.41.36.28.44,1.12.6,1.24l-.46.93c-.75-.57-2.81-1.2-3.72-1.86,0-.65-.93-2.38-.49-3.46.09-.54.74-.17.95-.26Z"/>
  <path class="cls-12" d="M59.89,11.74l-.46,2.33c-.52.25-2.56,1.24-2.79,1.4l-.93-.93c1.7-1.27,1.41-1.57,4.18-2.79Z"/>
  <path class="cls-14" d="M119.36,78.24l-.93.93c-.17-.14-.31-.34-.46-.47l.46-.93c.14.11.56.16.93.47Z"/>
  <path class="cls-13" d="M115.18,70.8c0,.31,0,.62,0,.93h-1.39c.07-.13-.17-.64.07-.86.31-.28,1.15.04,1.32-.07Z"/>
  <path class="cls-10" d="M45.02,42.89c.25-.55,1.59-3.99,1.39-4.18-1.14-.47-3.54,1.21-4.18,0,3.44-.39,7.19-7.29,9.16-8.28s10.76-2.35,13.51-2.76c15.98-2.39,45.25-2.79,60.51,2.41,3.11,1.06,4.56,4.75,6.93,7.02.83.8,2.03.98,2.81,1.84l-3.25-.24c-.2-.66.47-1.13-.93-.93-.05,3.64,2.84,6.15,1.85,10.23-1.18-.58-1.67-2.19-3.25-1.86-.05,1.33-.63,6.44-1.63,6.97-.81.43-.7-.6-.82-1.02l-2.66-11.07c.47,0,.93.01,1.39,0,.9-2.1-2.69-8.91-4.42-9.29-.76-.12-.75-.03-.7.7.1,1.5,2.23,3.78,2.9,5.47.35.87.87,1.33-.56,1.26-.15-.1-.76.16-1.08,0-.53-.26.03-1.31-1.24-.94.89,3.83,2.34,7.14,1.39,11.16h-.46c-.82-.56-1.54-1.24-2.32-1.86-.41-.32-.54-.88-1.39-1.4.11-1.77-1.93-2.35-2.32-2.79s.07-2.3-1.39-1.86l.93,4.18c-4.28-.9-7.87-4.42-10.92-7.44-1.91-.79.91,5.81-.92,5.11-1.18-.46-4.11-3.78-4.81-4.95-.84-1.4-2.77-8.37-4.02-8.06-.36.09-3.06,5.22-3.94,6.29-2.66,3.22-7.38,6.39-11.63,6.73.69-1.11,3.59-7.96,1.17-7.43-2.88,2.83-7.69,8.61-11.63,9.76-1.55.45.03-2.56.13-3.12.15-.81.15-1.63.11-2.45-.87-.13-1.38.02-2.11.44-1.78,1.04-5.08,5.47-7.18,7-.41.3-3.48,2.1-3.71,1.86-.39-2.45-.72-4.06,0-6.51.29-.99,1.78-2.78,1.4-4.41l-1.4-.23c-.09.28.08.75,0,.92-.24.47-.4.53-.93.47,0-.08-.59-.46-.4-1.49.38-2.1,3.13-4.03,2.72-6.42-1.03-1.21-8.6,10.18-2.79,9.3-.38,2.05-.95,3.37-.93,5.58-1.15-.23-1.01.52-1.25,1.28-.59,1.87-.68,4.21-1.49,5.97-.19.4-.18,1.42-.97.65-.75-.73-1.61-6.99-1.4-8.37-1.68-.48-1.66,1.3-2.78,1.86l-.47-5.12Z"/>
  <path class="cls-9" d="M113.79,80.56c2.41.31,7.76,6.6,9.21,8.69,11.82,17.08.02,19.33-15.71,17.35.16-2.9-.98-4.93-.97-6.75,0-.83.88-.91.97-1.15,4.6-.9,8.97.37,13.48.23-.04-1.8-2.96-1.7-4.19-2.09l1.86-2.32-4.63.45-1.18-4.18-1.17.28-.02,5.29c-1.51-.04-2.78.51-4.16.95-2.06.66-3.78,1.83-6.04,1.4.02-1.17-2.74-5.92-3.69-6.77-1.74-1.53-3.11-1.33-5.13-1.6l-.46-.93c.23-.66.51-1.64.46-2.33.53-1.22.67-.66,1.36-.73,4.43-.49,7.88-.59,12.22-2.19,1.92-.71,6.46-3.76,7.8-3.59Z"/>
  <path class="cls-9" d="M84.05,90.33c-1.56.35-2.61.95-3.74,2.07-1.53,1.52-3.05,6.05-4.4,6.31-2.76.53-3.34-1.26-5.21-1.77-1.23-.33-2.96-.09-4.27-.6-.52-.62,1.47-5.64-.28-6.01-1.6-.34-1,3.71-2.07,4.46l-4.66-.27,1.39,2.32c-1.41.42-3.67.2-3.25,2.33,4.72-.29,9.19-2,13.74.45.17,2.44-.83,4.31-.73,6.99-13.76,1.4-26.82.93-16.45-15.77,2.57-4.14,5.74-7.22,9.49-10.27,2.59-.73,3.5,1.22,5.16,2.04,1.89.94,4.92,2.39,6.9,2.86,3.66.87,9.25-.63,8.39,4.86Z"/>
  <path class="cls-10" d="M59.43,14.06c3.19-1.55,6.24-2.21,9.75-2.79.9-1.24-4.25-2.52-5.11-2.32-.9-.74,2.32-1.64,2.68-1.73,5.52-1.39,9.71-.05,14.97,1.27.07-2.09-1.76-3.5-2.79-5.11,3.87-.28,6.64,2.67,9.52,4.66,3.32-2.34,5.4-5.93,9.99-6.06l-2.32,6.04c6.06-.96,13.24-3.03,18.58.93l-5.1,1.63c1.24,1.45,3.17,1.02,4.89,1.6,3.33,1.13,8.71,4.07,9.96,7.46-22.56-7.2-47.88-6.49-70.62-.46-.13-.5.45-1.1.46-1.4.56-.11.67-.66.93-.93.33-.34,1.13-1.21,1.39-1.4.23-.16,2.26-1.14,2.79-1.4Z"/>
  <path class="cls-6" d="M76.62,45.22s-.57-.07-.75.16c-2.71,3.52-5.97,4.69-10.4,4.49-.07-.6.09-1.28,0-1.86-.78.19-1.07-.13-1.88.67-.31.31-2.77,4.85-2.77,5.14v6.74l3.25-2.32c-.36,2.01,1.89,9.58,3.49,10.22.99.4,1.29-3.56,1.97-4.05l1.04-.59c.85,3.1,3.14,5.76,5.82,7.43,1.12.32.72-2.13,1.16-2.78,1.16-.78,4.92,4.02,6.27,4.65,1.63.75-.77-2.62.92-2.32,4.76,5.2,4.54,4.26,9.37,1,1.96-1.32,3.99-2.07,5.5-4.26l.7,3.72c1.04,1.03,6.72-5.81,6.51-7.44,2.02-.13,2.04,4.5,3.46,4.18,1.74-.39,4.79-9.95,4.43-12.08l2.78,4.18v-8.6c0-.24-.53-1.07-.57-1.53-3.14.92-9.52-4.76-11.05-4.75l.69-2.32c1.54,1.62,3.36,3,5.41,3.89,1.72.74,5.72,1.19,6.44,1.69,2.15,1.49,2.16,11.91,1.75,14.54-.21,1.34-1.07,3.46-1.98,4.53l-.93-2.78c-1.43-1.56-2.75,3.56-3.49,4.77-.31.51-1.6.82-1.38,2.2l-4.64,2.79c-.34-.39.7-4.75-.69-4.18-2.57,2.73-5.12,6.37-9.05,6.96-.36-.62-.08-2.58-1.14-2.29-2.11.58-4.87,5.16-7.94,5.12-2.17-.03-5.75-4.41-7.49-5.08-.3-.11-1.07-.27-1.1.17v2.09c-1.32,1.31-8.39-5.32-9.06-6.97-1.58-.8.23,4.66-1.38,4.18-1.18-.89-2.72-1.72-3.7-2.81-1.28-1.42-3.61-6.97-3.95-7.21-.45-.32-.92-.21-1.41-.2l-.48,3.25c-4.26-4.29-2.88-11.91-1.84-17.31.48-.34.99-.99,1.38-1.29,1.47-1.12,3.96-1.76,4.65-4.18l.93.23c-.49,1.2-.17,1.93,0,3.02,4.74-1.13,7.65-2.2,11.39-5.57-.23.67-.11,2.51-.24,2.78Z"/>
  <path class="cls-12" d="M59.43,47.54c2.1-1.53,5.39-5.96,7.18-7,.73-.43,1.24-.57,2.11-.44.04.82.04,1.63-.11,2.45-.1.57-1.68,3.57-.13,3.12,3.94-1.14,8.75-6.93,11.63-9.76,2.42-.53-.48,6.32-1.17,7.43,4.24-.34,8.96-3.51,11.63-6.73.89-1.07,3.58-6.2,3.94-6.29,1.24-.3,3.18,6.66,4.02,8.06.7,1.17,3.64,4.5,4.81,4.95,1.83.71-.99-5.9.92-5.11,3.05,3.02,6.65,6.53,10.92,7.44.04,0,.08.36.24.47l.88-.9c.41.59,1.25.64,1.67.89.85.52.99,1.07,1.39,1.4l-.93.93c-.73-.5-4.72-.95-6.44-1.69-2.05-.88-3.87-2.27-5.41-3.89l-.69,2.32c-.36,0-.89.59-1.96.39-4.55-.86-6.99-6.64-9.08-10.02-.18-.29.04-.87-.8-.6-.26.08-2.55,3.83-3.19,4.49-2.99,3.11-9.85,7.09-14.24,5.74.13-.27.01-2.11.24-2.78-3.74,3.37-6.65,4.44-11.39,5.57-.16-1.08-.49-1.82,0-3.02l-.93-.23c-.7,2.41-3.18,3.06-4.65,4.18l.46-1.39h-.93Z"/>
  <path class="cls-9" d="M115.18,18.71c-.26,1.41,1.11.62,1.78,1.7.89,1.43,2.11,4.52,2.4,6.21-.86-.13-1.93.13-2.79,0-.43-2.68-4.51-2.18-6.5-1.4-6.41-.85-12.85-1.17-19.32-1.38-.44-.01-.82-.17-1.12-.48.45-.8,1.74-1.01,2.2-1.53.23-.26.06-.69.12-.79.2-.32.36-.53.46-.93.23-.89.98-1.55,0-2.79,7.64-.29,15.04.2,22.77,1.4Z"/>
  <path class="cls-9" d="M85.91,17.32c-1.09,1.2-.94,1.45-.46,2.79.53,1.51.7.64.93.93.48.6.86,1.68,1.86,2.33-1.05.33-3.98.93-4.88.93h-7.9c-.16,0-.77.44-1.37.48-1.25.09-8.27.19-8.61.45h-1.4s0,.93,0,.93c-.45.06-.94-.04-1.39,0l-2.79-.47c-.35-2.52,1.41-4.39,2.33-6.51,1.13-.2,2.01-.59,3.25-.47.08,0,.25.82,1.39.46v-.93c.91-.06,1.92.11,2.79,0l.46-.47c5.57-.69,10.35-.65,15.8-.47Z"/>
  <path class="cls-3" d="M86.38,113.12v3.72c-8.27,1.14-14.97,6.38-23.7,6.28.07,3.28,13.37,6.24,16.11,6.66,2.51.39,5.04.69,7.59.54-.01.31.02.62,0,.93-.98.73-15.86-1.57-18.14-2.08-1.75-.39-8.22-2.19-9.4-3.03-.85-.6-1.68-2.2-1.74-3.27-.06-1.26.48-2.45.49-3.7,3.91-.14,7.81.52,11.7-.14s7.39-3.4,11.04-4.53c1.62-.5,4-.77,6.04-1.4Z"/>
  <path class="cls-6" d="M124.47,41.03l2.66,11.07c.12.41,0,1.45.82,1.02,1-.54,1.58-5.64,1.63-6.97,1.57-.33,2.06,1.28,3.25,1.86.99-4.08-1.9-6.59-1.85-10.23,1.4-.2.73.26.93.93,1.04,3.5,2.86,5.69,3.24,9.54.15,1.45-.08,2.96,0,4.41-.14-.11-.79-.07-1.17-.44-.82-.81-1.14-2.46-2.55-2.35.1,1.76-.16,3.52-.6,5.21-.28,1.05-2.25,6.23-3.34,5.95l-1.86-1.89-3.03,2.35v-6.74c0-.41-1.26-2.74-.93-3.02l1.92-.27c1.22-3.56.95-6.88-.06-10.43.31,0,.62,0,.93,0Z"/>
  <path class="cls-3" d="M65.93,79.17c5.08,2.9,10.73,5.64,16.72,5.58.2-1.07-.49-1.05-1.18-1.37-2.07-.98-4.98-1.31-7.16-2.13-3.08-1.15-8.54-3.5-8.84-7.19,1.7,1.36,3.42,2.76,5.78,2.32.69-.13,1.28-.92,1.8-.85,1.01.14,3.6,3.17,5.29,3.55,1.07.24,3.97.6,3.92-.75l.62-.08,3.45,3.91c-.18,1.71-1.07,3.96-.93,5.62.1,1.21.96,1.48.97,2.55-.72.11-1.67-.14-2.32,0,.87-5.5-4.72-4-8.39-4.86-1.98-.47-5-1.93-6.9-2.86-1.66-.82-2.57-2.77-5.16-2.04.67-.55.37-.48,1.39-.93.32-.14.62-.32.93-.47Z"/>
  <path class="cls-10" d="M93.81,92.66c2.49.72,2.47.68,3.8,2.94s2.1,4.6,2.24,7.29c.2,3.85-.23,3.97-1.39,6.98-2.2-.6-4.05-.63-5.81-2.32l-2.55-4.19c-.08-2.38-1.13-11.78,3.21-8.56,1.7,1.26,1.22,4.74,3.75,4.37.42-.38-1.95-5.81-3.25-6.04v-.47Z"/>
  <path class="cls-3" d="M56.17,111.72l.93.47c4.81-.11,9.73.46,14.4-.93.33,1.36,1.99,3.25.98,4.46-.73.87-5.84,1.54-7.23,1.61-7.01.36-15.93-1.47-18.64-8.84-.41-1.11,0-.86.74-1.41,1.64,1.86,6.32,4.79,8.83,4.65Z"/>
  <path class="cls-10" d="M79.41,110.33c-.94-2.99-1.76-4.77-1.39-8.14.34-3.16,3.35-10.57,7.43-9.99-.18.8-1.37.73-2.1,1.38-1.33,1.18-2.39,3.53-2.09,5.33l1.17.27c.58-.19,1.35-6.47,4.88-4.19.05,1.16-.11,2.34.01,3.5.08.76.45.65.45.69.06.44-.05.95,0,1.4-1.5-.26-.8.76-.91,1.63-.74,5.82-1.37,6.85-7.45,8.14Z"/>
  <path class="cls-3" d="M112.86,74.52c-1.04,5.52-13.46,7.57-17.65,9.54-.14.61.42,1.07,1.05,1.07,1.5.01,7.45-1.83,9.16-2.48,1.91-.73,5.3-3.09,6.98-3.01.29.01.94.51,1.39.47v.47c-1.34-.17-5.88,2.88-7.8,3.59-4.34,1.6-7.78,1.7-12.22,2.19-.69.08-.82-.48-1.36.73-.09-1.34-1.43-3.63-.84-5.25l3.86-3.13c3.58,3.3,7.02-2.2,8.94-2.72.98-.26,2.54.58,4.04.38,1.7-.22,2.71-1.89,4.45-1.84Z"/>
  <path class="cls-15" d="M45.95,101.96c.98-8.45,9.75-20.88,17.36-24.67.31,0,.55.85.76.95v.47c-8.76,5.19-25.61,25.82-7.09,29.65,4.6.95,9.48.46,14.06-.35.07.58-.12,1.34,0,1.86-6.59,1.52-19.81,2.16-23.7-4.65-.47-.82-.28-2.57-1.39-3.26Z"/>
  <path class="cls-6" d="M45.02,42.89l.47,5.12c1.13-.55,1.1-2.34,2.78-1.86-.21,1.38.66,7.64,1.4,8.37.79.77.78-.25.97-.65.81-1.76.9-4.1,1.49-5.97.24-.77.11-1.52,1.25-1.28.02,2.26.25,6.04,3.25,4.65-1.37,3.37-1.79,7.15-.93,10.69l-3.49-3.25c-1.3-.55-.61,2.84-1.85,2.32-1.99-.84-4.31-8.85-3.96-11.16l-3.71,2.79c-.21-3.15.24-6.11,1.46-9.01.18-.42.81-.65.86-.75Z"/>
  <path class="cls-10" d="M65,79.63c-1.02.45-.72.38-1.39.93-3.75,3.05-6.92,6.13-9.49,10.27-10.37,16.71,2.7,17.18,16.45,15.77,0,.23.4.88.46,1.4-4.58.81-9.46,1.31-14.06.35-18.52-3.83-1.67-24.47,7.09-29.65l.93.93Z"/>
  <path class="cls-3" d="M62.21,19.18c-.92,2.12-2.68,3.99-2.33,6.51l2.79.47-10.68,1.86c.73-5.35,5.28-7.95,10.22-8.83Z"/>
  <path class="cls-8" d="M97.06,112.65v1.86c-1.83-.49-3.77-.73-5.57-1.39-.48,1.18.46,2.96.46,3.72,0,4.18-.59,8.59-.46,13.02-.56-.09-1.26.06-1.86,0,.49-6.14-.36-12.86,0-19.07.69-.1,1.32-.46,1.39-.47.33-.02,4.1,1.96,6.04,2.33Z"/>
  <path class="cls-3" d="M115.18,18.71c2.4.37,5.25,1.75,7.56,2.77l3.58,5.85c.12.77.04.74-.68.69-2.1-.15-4.41-1.13-6.27-1.4-.29-1.69-1.51-4.77-2.4-6.21-.68-1.08-2.04-.29-1.78-1.7Z"/>
  <path class="cls-3" d="M75.69,100.56c-.44,4.44.94,8.61,2.36,12.74-1.32,1.05-2.82,1.16-3.65-.52-.37-.74-1.42-4.53-1.53-5.45-.25-2.2-.31-7.6,2.82-6.78Z"/>
  <path class="cls-10" d="M71.04,109.86c.07.3.33.83.46,1.4-4.67,1.39-9.59.82-14.4.93v-.93c-.47-.18-.87.46-.93.46-2.5.14-7.18-2.79-8.83-4.65-.06-.07-.26-.62-.46-.93l.46-.93c3.89,6.81,17.1,6.17,23.7,4.65Z"/>
  <path class="cls-6" d="M87.77,100.56c.48,4.36,1.46,8.22-2.79,11.16-1.56.28-2.96,1.21-4.65.93-.11-.53-.68-1.54-.93-2.33,6.08-1.29,6.71-2.32,7.45-8.14.11-.87-.59-1.89.91-1.63Z"/>
  <path class="cls-6" d="M90.09,103.35l2.55,4.19c1.76,1.7,3.61,1.73,5.81,2.32-.09.22.09.73,0,.93-.28.63-.64,1.23-.93,1.86-.15-.02-.32.03-.46,0-1.94-.36-5.71-2.35-6.04-2.33-1.12-2.52-.84-4.36-.93-6.98Z"/>
  <path class="cls-7" d="M89.63,110.79c-.36,6.2.49,12.93,0,19.07-.04.46.03.93,0,1.39-.76.26-1.01-.3-1.39-.46v-19.53c.1-.05.26-.77.76-.86.37-.06.59.4.63.39Z"/>
  <path class="cls-4" d="M54.32,41.03c-5.81.88,1.75-10.51,2.79-9.3.41,2.39-2.34,4.32-2.72,6.42-.19,1.03.41,1.41.4,1.49-.1.84-.42,1.17-.46,1.4Z"/>
  <path class="cls-10" d="M92.42,17.32c.98,1.24.23,1.9,0,2.79l-2.78-1.4-.93,1.4-.24-1.4-3.02,1.4c-.47-1.34-.63-1.59.46-2.79,2.32.08,4.18.09,6.5,0Z"/>
  <path class="cls-2" d="M88.23,111.26v1.4c-.61.17-1.25.28-1.86.47-2.04.63-4.42.89-6.04,1.4-.08-.58.11-1.33,0-1.86,1.68.28,3.09-.65,4.65-.93.83-.15,1.12.5,3.25-.47Z"/>
  <polygon class="cls-7" points="89.6 83.84 90.55 87.54 87.3 87.54 88.29 83.88 89.6 83.84"/>
  <path class="cls-10" d="M86.38,21.04l2.32-.47.24,1.86.7-1.86,2.32.47c-.07.11.11.54-.12.79-.46.52-1.76.73-2.2,1.53h-1.39c-1-.65-1.38-1.72-1.86-2.33Z"/>
  <path class="cls-3" d="M110.07,25.22c1.99-.79,6.07-1.29,6.5,1.4-2.06-.32-4.67-1.15-6.5-1.4Z"/>
  <path class="cls-4" d="M55.71,39.17c.08-.17-.08-.64,0-.92l1.4.23c.38,1.64-1.11,3.42-1.4,4.41-.57-1.28-.27-2.33.43-3.5l-.43-.22Z"/>
  <path class="cls-7" d="M47.35,105.21l-.46.93c-.08-.12-.68-.18-.84-.76-.22-.78-.19-2.56-.08-3.42,1.11.68.93,2.43,1.39,3.26Z"/>
  <path class="cls-6" d="M87.77,99.17s-.37.07-.45-.69c-.12-1.16.04-2.34-.01-3.5,1.41.91,1.26,2.91.46,4.19Z"/>
  <polygon class="cls-6" points="88.24 92.19 88.24 89.4 89.58 90.16 89.58 91.43 88.24 92.19"/>
  <path class="cls-7" d="M65.93,79.17c-.31.14-.61.33-.93.47l-.93-.93v-.47c.83.4,1.01.45,1.86.93Z"/>
  <path class="cls-11" d="M93.81,92.66v.47l-2.33-.7c.01-.86,2.03.14,2.33.23Z"/>
  <path class="cls-3" d="M66.86,18.25v.93c-1.15.36-1.31-.45-1.39-.46.39-.44.86-.43,1.39-.47Z"/>
  <path class="cls-3" d="M65.47,25.22c-.44.33,1.07.6-1.39.93v-.93s1.39,0,1.39,0Z"/>
  <path class="cls-12" d="M55.25,16.85c-.26.27-.37.82-.93.93,0-.09-.62-.52-.46-.93h1.39Z"/>
  <path class="cls-3" d="M92.42,90.33c-.3-.04-.62.03-.93,0-.24-.76.43-.85.46-.93l.46.93Z"/>
  <path class="cls-12" d="M53.85,19.18c.22.22-.43.74-.46.23-.01-.16.36-.34.46-.23Z"/>
  <path class="cls-12" d="M52.69,18.25c.3.16.3.31,0,.47v-.47Z"/>
  <path class="cls-3" d="M69.65,18.25s.1-.42.46-.47l-.46.47Z"/>
  <path class="cls-13" d="M57.1,127.53c-.43-.2-.34-.63-.46-.93.45.12.44.54.46.93Z"/>
  <path class="cls-6" d="M61.29,133.58c1.33.39,2.61,1.02,4.18,1.4,16.26,3.9,32.54,4.51,48.79,0-.37,1.86-3.81,2.74-5.37,3.23-16.9,5.22-31.97,1.62-48.05-3.47-.91-.29-2.33-.71-2.8-1.62.09-.01.31-.46.7-.45.24.01,1.84.7,2.56.91Z"/>
  <path class="cls-9" d="M86.38,116.84v3.72c0,2.01.03,4.04,0,6.05-.02,1.23.06,2.49,0,3.72-2.55.15-5.08-.15-7.59-.54-2.74-.43-16.04-3.38-16.11-6.66,8.73.09,15.43-5.15,23.7-6.28Z"/>
  <path class="cls-3" d="M97.06,114.51c3.12.84,9.89,4.65,11.85,4.65h11.38c.89,3.37.57,6.16-2.8,7.67-7.46,3.34-17.92,3.92-26.01,4.43-.02-.46.02-.93,0-1.4,5.44.9,15.43-1.26,20.3-4.09.98-.57,1.69-1.38,2.46-2.19l-22.3-6.74c0-.76-.94-2.54-.46-3.72,1.8.66,3.74.9,5.57,1.39Z"/>
  <path class="cls-3" d="M130.51,110.79c-.37.67-1.91,2.3-2.55,2.8-4.8,3.71-13.94,4.56-19.87,3.13-4.81-1.16-2.52-2.03-1.74-5.46,8.67,1.58,18.52,2.34,25.09-4.65-.24,1.59-.04,2.57-.93,4.19Z"/>
  <path class="cls-15" d="M117.97,78.7c.16.12.29.32.46.47,5.56,4.58,13.08,15.99,13.47,23.25-3.79,9.84-16.52,9.1-25.09,7.44.11-.54-.07-1.27,0-1.86,5.58.78,10.76,1.33,16.26-.24,15.63-4.45-1.27-24.86-9.29-29.06.02-.15,0-.31,0-.47.02-.27.46-.82.46-1.4.91.66,2.97,1.29,3.72,1.86Z"/>
  <path class="cls-10" d="M113.79,78.7c8.02,4.2,24.92,24.61,9.29,29.06-5.49,1.57-10.67,1.02-16.26.24.08-.69.46-1.32.46-1.4,15.74,1.98,27.54-.27,15.71-17.35-1.44-2.09-6.8-8.38-9.21-8.69v-.47c.04-.45-.06-.95,0-1.4Z"/>
  <path class="cls-3" d="M118.44,129.4c.07.87.1,1.36-.47,2.08-1.62,2.02-15.67,4.13-18.81,4.42-1.54.14-4.73.54-6.04.51-2.44-.07-1.87-3.03-.89-3.24,2,.46,4.75.16,6.88-.11,6.54-.83,12.84-3.05,19.34-3.66Z"/>
  <path class="cls-3" d="M101.71,100.56c6.36-1.62,3.04,12.82,1.1,13.45l-2.96-.44c-.23-.26,1.86-4.51,1.86-5.34v-7.67Z"/>
  <path class="cls-13" d="M107.28,97.31c1.38-.45,2.65-.99,4.16-.95l.02-5.29,1.17-.28,1.18,4.18,4.63-.45-1.86,2.32c1.23.4,4.14.3,4.19,2.09-4.51.14-8.88-1.13-13.48-.23.12-.3-.08-.99,0-1.4Z"/>
  <path class="cls-15" d="M60.82,131.26c.45-.88,1.63-.37,2.34-.26,5.93.96,11.86,2.71,17.84,3.53.43-.05.22-.91.27-.94.21-.14,1.76.09,2.32,0,.39,1.21,1.78.97,2.79.93v1.4l-.46.47c-6.67-.26-14.03-1.38-20.44-3.26-1.32-.39-2.87-.93-4.18-1.4-.16-.06-.32-.41-.46-.47Z"/>
  <path class="cls-10" d="M131.44,106.61c-6.56,6.99-16.42,6.23-25.09,4.65.11-.51.39-1.01.46-1.4,8.56,1.66,21.3,2.39,25.09-7.44.09,1.7-.24,2.65-.46,4.19Z"/>
  <path class="cls-3" d="M81.26,133.58s.16.9-.27.94c-5.98-.82-11.91-2.57-17.84-3.53-.71-.12-1.88-.62-2.34.26-.29-.11-.96.14-1.36-.02l.21-2.78,21.6,5.12Z"/>
  <path class="cls-8" d="M88.23,112.65v18.14c-.21-.09-.83.27-.95-.29l.02-3.9h-.93c.03-2.01,0-4.03,0-6.04l.93-.24v-.69s-.93,0-.93,0v-6.51c.61-.19,1.25-.29,1.86-.47Z"/>
  <path class="cls-13" d="M65.47,133.12v1.86c-1.57-.38-2.85-1.01-4.18-1.4v-1.86c1.31.47,2.86,1.01,4.18,1.4Z"/>
  <path class="cls-13" d="M88.23,133.58v2.33c-.57,0-1.36.48-1.86.47v-3.26c.47-.01,1.26.41,1.86.47Z"/>
  <path class="cls-7" d="M88.23,133.58c.19.02,1.22-.92,1.4-.23v3.02c-.52.18-1.17-.46-1.4-.46v-2.33Z"/>
  <path class="cls-3" d="M86.38,133.12v1.4c-1,.04-2.4.28-2.79-.93,1-.16,1.43-.42,2.79-.47Z"/>
  <path class="cls-13" d="M98.46,110.79l.94.3v2.02c-.66.05-1.25-.38-1.87-.46.29-.63.65-1.23.93-1.86Z"/>
  <path class="cls-3" d="M86.38,136.37c-.15,0-.31,0-.46,0l.46-.47v.47Z"/>
  <path class="cls-10" d="M146.08,128.46c.3.16.3.31,0,.47v-.47Z"/>
  <path class="cls-4" d="M123.08,39.17c1.43.08.91-.39.56-1.26-.67-1.69-2.8-3.97-2.9-5.47-.05-.73-.06-.81.7-.7,1.73.39,5.32,7.19,4.42,9.29-.46.01-.93,0-1.39,0-.31,0-.62,0-.93,0-.16-.55-.38-1.81-.46-1.86Z"/>
  <polygon class="cls-1" points="121.69 49.4 122.15 49.4 121.92 49.86 121.69 49.4"/>
  <path class="cls-6" d="M113.79,78.24c0,.15.02.31,0,.47-.06.45.04.94,0,1.4-.46.05-1.1-.45-1.39-.47v-1.4s1.39,0,1.39,0Z"/>
  <path class="cls-1" d="M115.18,45.68l-.93-4.18c1.47-.45,1.01,1.43,1.39,1.86-.1-.1-.48.07-.46.23.03.51.68-.01.46-.23.39.44,2.43,1.02,2.32,2.79-.42-.25-1.26-.3-1.67-.89l-.88.9c-.16-.11-.19-.46-.24-.47Z"/>
  <path class="cls-10" d="M76.62,45.22c4.38,1.34,11.25-2.64,14.24-5.74.64-.66,2.93-4.41,3.19-4.49.84-.27.62.31.8.6,2.09,3.39,4.53,9.16,9.08,10.02,1.07.2,1.6-.39,1.96-.39,1.53,0,7.91,5.68,11.05,4.75.04.45.57,1.29.57,1.53v8.6l-2.78-4.18c.36,2.14-2.69,11.69-4.43,12.08-1.42.32-1.44-4.31-3.46-4.18.21,1.63-5.47,8.47-6.51,7.44l-.7-3.72c-1.51,2.19-3.55,2.94-5.5,4.26-4.83,3.26-4.61,4.2-9.37-1-1.69-.3.72,3.07-.92,2.32-1.36-.62-5.11-5.42-6.27-4.65-.44.65-.04,3.1-1.16,2.78-2.68-1.67-4.97-4.34-5.82-7.43l-1.04.59c-.68.49-.98,4.45-1.97,4.05-1.6-.65-3.85-8.22-3.49-10.22l-3.25,2.32v-6.74c0-.29,2.46-4.84,2.77-5.14.81-.81,1.1-.49,1.88-.67.09.58-.07,1.26,0,1.86,4.43.2,7.69-.97,10.4-4.49.18-.23.73-.13.75-.16ZM96.45,48.15c-2.27-3.01-18.11-3.36-14.95,3.57,1.22,2.68,5.99,3.42,6.53,4.17,1.77,2.49-4.31,5.4-7.59,3.87-1.31-.61-1.39-2.89-3.36-2.45.11,6,8.63,6.15,11.84,2.44,3.91,3.37,11.73,3.96,12.31-2.44l-1.79.07c-.49,5.39-11.78,2.11-9.29-1.87,2.8-.28,8.63-4.27,6.3-7.36Z"/>
  <path class="cls-5" d="M85.45,20.11l3.02-1.4.24,1.4.93-1.4,2.78,1.4c-.1.4-.26.61-.46.93l-2.32-.47-.7,1.86-.24-1.86-2.32.47c-.23-.29-.39.58-.93-.93Z"/>
  <path class="cls-6" d="M56.17,111.72c.06,0,.46-.64.93-.46v.93s-.93-.47-.93-.47Z"/>
  <path class="cls-9" d="M91.95,116.84l22.3,6.74c-.76.81-1.47,1.62-2.46,2.19-4.87,2.83-14.87,4.99-20.3,4.09-.13-4.43.47-8.84.46-13.02Z"/>
  <polygon class="cls-2" points="86.38 119.63 87.3 119.63 87.31 120.32 86.38 120.56 86.38 119.63"/>
  <path class="cls-12" d="M115.65,43.36c.22.22-.43.74-.46.23-.01-.16.36-.34.46-.23Z"/>
  <path class="cls-13" d="M96.45,48.15c2.34,3.1-3.5,7.08-6.3,7.36-2.49,3.99,8.81,7.27,9.29,1.87l1.79-.07c-.59,6.4-8.41,5.8-12.31,2.44-3.21,3.72-11.73,3.57-11.84-2.44,1.97-.44,2.05,1.83,3.36,2.45,3.29,1.54,9.37-1.37,7.59-3.87-.53-.75-5.31-1.49-6.53-4.17-3.17-6.93,12.67-6.58,14.95-3.57ZM92.39,48.04l-2.5-.52-3.5,1.18c1.61,1.23,3.94,1.47,5.76.75l.24-1.4Z"/>
  <path class="cls-11" d="M92.39,48.04l-.24,1.4c-1.82.73-4.16.49-5.76-.75l3.5-1.18,2.5.52Z"/>
</svg>