<svg xmlns="http://www.w3.org/2000/svg" viewBox="0 0 24 24" fill="#ca8a04" className="w-5 h-5">
  <path fillRule="evenodd" d="M12 2.25c-5.385 0-9.75 4.365-9.75 9.75s4.365 9.75 9.75 9.75 9.75-4.365 9.75-9.75S17.385 2.25 12 2.25zM12 6a.75.75 0 01.75.75v.991c.547.13 1.07.382 1.453.69 1.08.868 1.08 2.385 0 3.253-.383.308-.906.56-1.453.69v1.531c.547.13 1.07.382 1.453.69 1.08.868 1.08 2.385 0 3.253-.383.308-.906.56-1.453.69v.991a.75.75 0 01-1.5 0v-.991c-.547-.13-1.07-.382-1.453-.69-1.08-.868-1.08-2.385 0-3.253.383-.308.906-.56 1.453-.69v-1.531c-.547-.13-1.07-.382-1.453-.69-1.08-.868-1.08-2.385 0-3.253.383-.308.906-.56 1.453-.69V6.75A.75.75 0 0112 6z" clipRule="evenodd" />
</svg>
