<?xml version="1.0" encoding="UTF-8"?>
<svg id="_레이어_1" data-name="레이어 1" xmlns="http://www.w3.org/2000/svg" viewBox="0 0 113.97 99.83">
  <defs>
    <style>
      .cls-1 {
        fill: #e0dfde;
      }

      .cls-2 {
        fill: #d9d9d6;
      }

      .cls-3 {
        fill: #712c48;
      }

      .cls-4 {
        fill: #303034;
      }

      .cls-5 {
        fill: #cbcbca;
      }

      .cls-6 {
        fill: #a3757f;
      }

      .cls-7 {
        fill: #2d2021;
      }

      .cls-8 {
        fill: #40433d;
      }

      .cls-9 {
        fill: #25282a;
      }

      .cls-10 {
        fill: #855963;
      }

      .cls-11 {
        fill: #a28768;
      }
    </style>
  </defs>
  <path class="cls-4" d="M60.35.19c.8.28,2.01,3.05,1.53,4.08,1.96-.33,4.07-1.4,6.12-1.02l.51.51c2.79,1.2,2.73,2.1,2.57,5.09l5.09,1.04,6.63,3.06c.51-1.87,1.69-4.27,3.07-5.61,7.21-7.01,18.72-4.27,24.51,3.06,0,.15-.03.37,0,.51.15.65.98.92,1.02,1.02,1,2.63,1.56,4.82,1.53,7.66-.03,3.13-.41,3.52-1.53,6.12-1.15.28-1.16-.66-1.53-1.53,3.83-11.86-8.87-22.41-19.85-16.53-5.22,2.8-7.54,8.59.45,8.87.03,1.77,3.31,3.42,4.08,5.1-1.81-.82-6.96-2.04-9.19-2.55l-.55-3.53c-6.02-.67-11.51-5.59-17.83-4.12l1.53-4.59c-3.8-.31-6.54-.52-9.94,1.53-1.89-1.38,1.18-3.13.74-5.08-4.89-2.16-8.25,4.98-11.87,6.72-2.56,1.23-6.95,1.38-9.57,2.68-1.16.58-1.49,1.68-1.89,1.8-1.66.49-4.95.7-6.77,1.03-.78-4.91-3.98-8.62-9.45-9.18-4.26-.44-7.76-.1-11.21,2.56-3.63,2.8-4.12,6.38-3.22,10.84.29,1.45,2.2,3.48,2.34,4.29.15.88-1.38,2-.83,3.88.26.89,3.71,4.2,5.02,2.92-.42.87-1.24,2.34-1.53,3.06-5.74-3.09-8.96-7.62-9.19-14.29-.07-2.02.31-3.66.51-5.61,1.13-.62,1.08-2.35,1.53-3.06,1.53-2.4,4.12-4.39,6.64-5.61,5.26-2.56,11.31-2.82,16.34.51,2.09,1.38,4.51,4.69,5.11,7.15,1.17-.73,2.45-1.13,3.71-1.66.54-.23.81-.87.87-.89,2.17-.83,5.25-1.24,7.66-2.04.95-.32,2.15-.33,3.03-.8.36-.2,4.71-3.85,5.14-4.3.13-.14.51-.15.51-.51v-.51c2.3-.64,5.73-2.91,8.17-2.04Z"/>
  <path class="cls-1" d="M68.51,3.77l-.51-.51c.39.07.48.5.51.51Z"/>
  <path class="cls-9" d="M109.87,24.18c.37.87.38,1.81,1.53,1.53-.1.22.07.71,0,1.02-.18.16-.37.32-.51.51-.91,1.22-1.42,1.62-2.55,2.55-.67.07-1.39-.1-2.04,0-.11.42.1,1.08,0,1.53-.66.29-1.77.27-2.49.59-.22.23-.06,1.04-.06,1.45,0,2.23.97,2.35,1.02,2.55.64,2.61,1.48,5.55,2.04,8.17.04.16-.03.35,0,.51l.51,5.1h-2.04c-.32-1.61-2.43-11.03-3.07-11.48-8.47-2.59-17.06-5-25.85-6.31-14.46-2.16-27.76-1.93-42.16.59-1.78.31-8.06,1.4-9.23,2-.91.47-1.01,1.63-1.72,1.88-1.05.36-2.23-.42-3.36-.33s-8.02,1.92-8.44,2.54l-4.45,21.33c-.73,2.28-3,3.99-3.84,6.11-.39.99-.79,1.9-.45,3l4.53.57-.51,9.19c4.46-1.48,6.13,3.23,9.23,5.83,19.27,16.14,60.03,17.01,80.08,2.04,2.2-1.65,6.29-6.79,8.25-7.62,1.12-.48,1.93.35,3.03.26-.07-2.95.49-5.99-1.02-8.67.12-.32-.16-1.05.02-1.5.63-.19,1.44.09,2.02-.03.66,1.01,2.83.69,3.06-.51.09-.46-.36-2.39-.51-3.06-.06-.25.16-.71-.08-.94s-.76,0-.94-.08c-.1-.04-.25-.39-.51-.51.27-1.87-1.45-1.92-1.53-2.04-2.21-3.11-1.37-6.15-2.04-9.7l2.04-1.02c.1.54-.02,1.1.51,1.53l.62,6.27c.15.99,1.59,1.42,1.93,1.9.14.2.4.34.51.51,1.16,1.71,2.72,5.59,2.55,7.66,0,.09-.42.32-.51.51-.13,1.94-.73,1.84-2.04,2.55l-1.53.51c-.16,3.27.97,7.17-2.55,8.68-1.15-.22-1.6,0-2.55.51-1.52.81-1.16,1.64-1.53,2.04-2.17,2.31-6.42,5.5-9.19,7.15-1.62.96-4.17,1.61-5.62,3.06-1.16.14-2.06.76-3.06,1.02-2.75.72-5.42,1.9-8.17,2.55s-5.96,1.22-8.68,1.53c-8.6.97-17.5.79-26.04-.51-1.9-.29-3.68-.96-5.62-1.02-.32-.71-1.05-.38-1.53-.51-5.81-1.53-11.72-4.57-16.85-7.66-1.79-1.07-3.21-2.67-5.11-3.57-.97-.94-2.63-3.47-3.57-4.08-1.33-.86-2.01-.26-3.22-.61-2.49-.72-3.46-6.98-2.39-9.08-.72,0-1.42-.15-2.05-.52-.55-.32-1.97-2.18-2.04-2.55-.79-3.95,3.52-7.37,4.36-10.19.53-1.8.35-4.35.75-6.14.64-2.84,1.32-5.86,2.04-8.68.6-2.34,1.29-5.47,2.04-7.66.13-.37.77-1.91,1.02-2.55.29-.72,1.11-2.2,1.53-3.06.6-1.22,1.25-2.46,2.04-3.57,1.01-.04,1.57.5,1.53,1.53-.86.98-3.44,5.68-2.55,6.63,20.04-6.33,40.5-8.8,61.44-6.04,8.09,1.07,16.53,2.71,24.23,5.38.65.22,3.4,2.19,3.07.51-.21-1.07-.26-1.94-.42-2.91-.25-1.51-1.48-3.28-.51-4.08.32.52,1.68,3.04,1.85,3.09,1.66.45,1.7-1.25,3.76-1.56.47-1.77,3.01-3.88,3.57-5.61Z"/>
  <path class="cls-8" d="M11.84,30.82c-1.3,1.28-4.76-2.03-5.02-2.92-.55-1.87.99-3,.83-3.88-.14-.81-2.04-2.84-2.34-4.29-.9-4.46-.41-8.04,3.22-10.84s6.95-3,11.21-2.56c5.48.56,8.67,4.28,9.45,9.18,1.82-.33,5.12-.54,6.77-1.03.4-.12.73-1.23,1.89-1.8,2.62-1.3,7.01-1.45,9.57-2.68,3.62-1.74,6.98-8.88,11.87-6.72.44,1.95-2.63,3.7-.74,5.08,3.4-2.05,6.14-1.84,9.94-1.53l-1.53,4.59c6.32-1.47,11.82,3.45,17.83,4.12l.55,3.53c-17.44-3.98-32.52-4.8-50.14-1.38-4.18.81-11.35,2.46-15.21,3.93l4.04-3.91c-.63-5.64-7.23-7.51-11.45-3.75-3.43,3.06-3.09,10.71,1.79,12.26-.21.26-.3.73-.51,1.02-.79,1.11-1.45,2.35-2.04,3.57Z"/>
  <path class="cls-8" d="M109.87,24.18c-.56,1.74-3.11,3.85-3.57,5.61-2.06.31-2.1,2.01-3.76,1.56-.17-.05-1.53-2.57-1.85-3.09-.36-.57-.68-2.1-1.02-2.55,4.1-.78,4.47-5.06,3.65-8.5-1.89-7.9-12.93-6.01-12.84-.69-7.99-.29-5.67-6.08-.45-8.87,10.98-5.88,23.68,4.67,19.85,16.53Z"/>
  <path class="cls-7" d="M85.36,19.08c2.23.51,7.38,1.73,9.19,2.55.76.34,4.61,3.44,5.11,4.08.35.45.67,1.98,1.02,2.55-.97.8.27,2.57.51,4.08-2.03-2.25-3.11-4.97-5.6-6.9-4.39-3.4-27.36-8.34-32.95-7.93-1.5.11-1.95.96-2.29,1.05-.71.18-1.72.33-2.55.51v-1.02s-1.27,0-1.27,0l-.26.51c-.37-.09-1.62-.07-2.04,0-.35-1.15-1.32-1.01-2.28-1.06-5.36-.25-27.04,4.1-31.39,6.96-.88.58-4.49,3.57-5.14,4.31.04-1.03-.52-1.57-1.53-1.53.21-.3.3-.76.51-1.02.75-.92,4.56-4.19,5.62-4.59,3.86-1.47,11.04-3.12,15.21-3.93,17.63-3.42,32.7-2.6,50.14,1.38Z"/>
  <path class="cls-11" d="M99.66,25.71c-.49-.65-4.35-3.74-5.11-4.08-.77-1.68-4.05-3.33-4.08-5.1-.09-5.32,10.95-7.21,12.84.69.82,3.44.45,7.72-3.65,8.5Z"/>
  <path class="cls-8" d="M105.28,49.7c.17.84.36,1.73.51,2.55.67,3.55-.17,6.59,2.04,9.7l-.5.26c-.36,2.09,1.26,1.43,2.03,1.78.26.12.41.47.51.51v1.02s1.02,0,1.02,0c.15.67.6,2.6.51,3.06-1.24-.43-2.21.33-3.06.51-.58.12-1.39-.16-2.02.03-.19.45.1,1.18-.02,1.5-5.31,14.11-28.16,23.12-42.1,24.01-15.66,1-38.22-4.42-49.54-15.85-3.99-4.03-5.04-12.09-11.49-12.75.84-2.13,3.11-3.84,3.84-6.11l4.45-21.33c.43-.63,7.28-2.45,8.44-2.54s2.31.68,3.36.33c.72-.24.81-1.41,1.72-1.88,1.17-.6,7.45-1.69,9.23-2,14.4-2.52,27.7-2.75,42.16-.59,8.79,1.31,17.38,3.72,25.85,6.31.63.45,2.75,9.88,3.07,11.48ZM41.3,50.88c-4-4.39-12.3-1.76-12.09,4.43,3.72.45,2.72-3.46,6.37-3.62,4.5-.2,3.28,4.58,6.07,3.56,1.63-.6.45-3.5-.34-4.38ZM84.85,55.32c-.06-4.58-3.84-7.32-8.3-6.51-4.22.77-7.53,7.88-3.25,6.45,1.21-.4,1.26-4.05,4.66-4.05,3.69,0,3.43,4.66,6.89,4.11ZM53.57,53.91c-7.78,1.31-12.89,11.64-12.06,18.96,1.77,15.66,32.8,14.42,31.54-2.43-.77-10.24-8.85-18.33-19.48-16.53Z"/>
  <path class="cls-3" d="M54.22,18.57c-.14.02-1.51.67-1.56.84.07,1.06-.08,2.2.03,3.25.03.33-.08.77,0,1.02.16.52,3.24,3,3.86,3.08,1.67.24,3.4-1.26,4.31-2.57.28-.4.36-.55.51-1.02.68-2.06,1.14-3.29-1.02-4.59.34-.08.79-.94,2.29-1.05,5.59-.41,28.56,4.52,32.95,7.93,2.49,1.93,3.58,4.65,5.6,6.9.16.97.21,1.83.42,2.91.33,1.68-2.43-.28-3.07-.51-7.7-2.67-16.14-4.31-24.23-5.38-20.94-2.76-41.4-.29-61.44,6.04-.89-.96,1.69-5.65,2.55-6.63.64-.74,4.26-3.73,5.14-4.31,4.35-2.86,26.03-7.21,31.39-6.96.95.04,1.93-.09,2.28,1.06Z"/>
  <path class="cls-4" d="M106.3,70.63c1.5,2.68.94,5.73,1.02,8.67-1.1.09-1.91-.74-3.03-.26-1.96.84-6.04,5.98-8.25,7.62-20.04,14.97-60.8,14.1-80.08-2.04-3.1-2.6-4.77-7.31-9.23-5.83l.51-9.19-4.53-.57c-.34-1.1.06-2.01.45-3,6.45.66,7.51,8.73,11.49,12.75,11.32,11.43,33.88,16.85,49.54,15.85,13.94-.89,36.8-9.9,42.1-24.01Z"/>
  <path class="cls-4" d="M107.32,49.7c.53.43.41.99.51,1.53l-2.04,1.02c-.15-.82-.34-1.71-.51-2.55h2.04Z"/>
  <path class="cls-4" d="M107.83,61.95c.08.12,1.8.17,1.53,2.04-.77-.34-2.39.31-2.03-1.78l.5-.26Z"/>
  <path class="cls-4" d="M108.34,29.8c-.89.73-.47.83-2.04,1.53-.3,1.44-1.18,1.65-2.55,2.04,0-.42-.15-1.23.06-1.45.72-.32,1.83-.29,2.49-.59.1-.45-.11-1.11,0-1.53.65-.1,1.38.07,2.04,0Z"/>
  <path class="cls-4" d="M111.4,68.59c-.23,1.2-2.4,1.52-3.06.51.86-.18,1.83-.94,3.06-.51Z"/>
  <path class="cls-4" d="M107.32,81.35c-.9.38-1.41.8-2.55.51.95-.51,1.41-.73,2.55-.51Z"/>
  <path class="cls-4" d="M109.87,64.5c.18.08.7-.16.94.08s.02.69.08.94h-1.02s0-1.02,0-1.02Z"/>
  <path class="cls-4" d="M111.4,72.16s-.12.36-.51.51c-.23.09-.71-.06-1.02,0l1.53-.51Z"/>
  <path class="cls-4" d="M113.45,69.61c.09-.19.5-.43.51-.51l-.51.51Z"/>
  <path class="cls-11" d="M20.01,21.63c-1.05.4-4.87,3.67-5.62,4.59-4.88-1.55-5.23-9.19-1.79-12.26,4.21-3.76,10.82-1.89,11.45,3.75l-4.04,3.91Z"/>
  <path class="cls-2" d="M56.26,18.57c.4.09-.34.91,1.53.51.84-.18,1.84-.33,2.55-.51,2.16,1.31,1.7,2.54,1.02,4.59-2.97.53-2.02-.47-3.57-2.04l-1.02,2.04c.08-.85-.68-3.79-1.54-2.18-.66,1.24-.06,2.03-2.55,1.68-.1-1.05.05-2.18-.03-3.25.04-.16,1.42-.81,1.56-.84.43-.07,1.67-.09,2.04,0Z"/>
  <path class="cls-3" d="M56.26,18.57l.26-.51h1.27s0,1.02,0,1.02c-1.87.4-1.14-.42-1.53-.51Z"/>
  <path class="cls-4" d="M110.89,27.25c.14-.19.33-.35.51-.51-.04.15-.37.35-.51.51Z"/>
  <path class="cls-11" d="M53.57,53.91c10.63-1.79,18.71,6.3,19.48,16.53,1.26,16.85-29.77,18.09-31.54,2.43-.83-7.33,4.28-17.65,12.06-18.96ZM58.96,65.16c.83-.95,2.96-1.29,3.87-3.02,1.15-2.18.87-3.84-1.75-4.24-8.58-1.32-16.43,1.13-5.56,7.61.28,3.9-4.37,4.17-7.43,2.82-.81-.36-3.19-2.92-3.57-1.01s3.03,2.82,3.44,3.44.49,2.83.92,3.94c2.62,6.79,13,6.83,16.35.55.8-1.49.91-3.56,1.52-4.6.74-1.26,2.99-1.32,2.8-3.84-1.49-1.12-1.67.76-2.42,1.28-1.47,1.03-5.88,1.49-7.47.94-1.15-.4-1.55-2.88-.69-3.87Z"/>
  <path class="cls-9" d="M41.3,50.88c.8.87,1.98,3.78.34,4.38-2.78,1.02-1.56-3.76-6.07-3.56-3.65.16-2.65,4.07-6.37,3.62-.2-6.19,8.09-8.82,12.09-4.43Z"/>
  <path class="cls-9" d="M84.85,55.32c-3.46.55-3.2-4.11-6.89-4.11-3.41,0-3.45,3.65-4.66,4.05-4.28,1.43-.97-5.68,3.25-6.45,4.47-.81,8.25,1.93,8.3,6.51Z"/>
  <path class="cls-5" d="M52.69,23.67l3.57-.51v3.06c1.84.58,1.27-2.77,1.54-3.06l3.06,1.02c-.9,1.31-2.64,2.81-4.31,2.57-.62-.09-3.7-2.57-3.86-3.08Z"/>
  <path class="cls-10" d="M52.69,22.65c2.49.35,1.89-.44,2.55-1.68.86-1.61,1.62,1.34,1.54,2.18l1.02-2.04c1.55,1.57.6,2.57,3.57,2.04-.16.47-.23.62-.51,1.02l-3.06-1.02c-.27.29.3,3.64-1.53,3.06v-3.06s-3.58.51-3.58.51c-.08-.25.03-.69,0-1.02Z"/>
  <path class="cls-7" d="M58.96,65.16c-.86.98-.46,3.47.69,3.87,1.59.55,6,.09,7.47-.94.75-.53.93-2.41,2.42-1.28.2,2.52-2.06,2.58-2.8,3.84-.61,1.04-.73,3.11-1.52,4.6-3.36,6.28-13.73,6.24-16.35-.55-.43-1.1-.52-3.33-.92-3.94s-3.81-1.58-3.44-3.44,2.76.66,3.57,1.01c3.06,1.35,7.71,1.08,7.43-2.82-10.87-6.49-3.02-8.94,5.56-7.61,2.63.4,2.91,2.06,1.75,4.24-.91,1.73-3.04,2.06-3.87,3.02ZM51.15,74.2c2.55,4.7,8.41,5.84,11.23.51.4-.76,1.89-1.69.51-2.81-.28-.22-6.35-1.82-6.9-1.81-.44,0-4.86,1.33-5.13,1.52-1.54,1.1-.14,1.79.29,2.59Z"/>
  <path class="cls-6" d="M62.39,74.71c-2.82,5.33-8.68,4.19-11.23-.51,3.87-.78,7.49-1.45,11.23.51Z"/>
  <path class="cls-10" d="M62.39,74.71c-3.74-1.96-7.36-1.29-11.23-.51-.43-.8-1.83-1.49-.29-2.59.27-.19,4.7-1.52,5.13-1.52.55,0,6.63,1.59,6.9,1.81,1.38,1.12-.11,2.05-.51,2.81Z"/>
</svg>