<?xml version="1.0" encoding="UTF-8"?>
<svg id="_레이어_1" data-name="레이어 1" xmlns="http://www.w3.org/2000/svg" viewBox="0 0 115.55 103.13">
  <defs>
    <style>
      .cls-1 {
        fill: #e0dfde;
      }

      .cls-2 {
        fill: #712c48;
      }

      .cls-3 {
        fill: #dedacd;
      }

      .cls-4 {
        fill: #303034;
      }

      .cls-5 {
        fill: #cbcbca;
      }

      .cls-6 {
        fill: #40433d;
      }

      .cls-7 {
        fill: #c5c4c3;
      }

      .cls-8 {
        fill: #25282a;
      }

      .cls-9 {
        fill: #855963;
      }

      .cls-10 {
        fill: #b3ae96;
      }
    </style>
  </defs>
  <path class="cls-4" d="M11.83,36.81c-1.45,2.89-2.07,5.65-4.08,8.68-1.39,2.08-2.97,3.75-4.6,5.61,1.96.07,3.44-1.21,5.11-2.04v1.02c0,.34.03.69,0,1.02-.01.18.04.37,0,.51l-.51,1.02c-1.4,3.58-3.48,6.86-4.36,10.7-.8,3.52-.7,6.17-.23,9.72,1.86-.91,1.64-4.6,4.08-4.09.32,6.19,2.01,12.42,7.15,16.33l.09-3.24,1.2-.87,4.85,3.59,1.02-10.71-1.88.95c-.46.18-.65-.18-.95-.41-3.79-2.94-2.24-18.93-1.25-23.51.81-3.76,2.06-7.62,4.35-10.72l1.27.79c-4.08,9.66-5.77,20.6-3.31,30.86,1.95-.05,7.56-7.68,8.83-9.54.66-.97,2.46-5.04,2.71-5.2.32-.2,1.01,0,1.47-.06l-.51,10.72,16.08-16.32c.94.66.83,1.15.66,2.17-.21,1.23-3.81,8.23-3.47,8.54,10.81-2.08,15.4-12.34,18.12-21.95.9.04,1.34-.4,1.28.77-.11,2.15-2.11,7.11-1.83,8.44.87,4.09,10.47,12.85,15.1,12.75l-3.86-8.14,1.05-1.54,13.79,13.77c1.46-2.13-.27-4.96-.28-7.39,0-.77-.33-1.5.78-1.28l9.2,13.77c2.91-7.13,2.11-16.64,0-23.99-.49-1.71-4.44-10.02-3.83-10.71,1.62.05,2.61,2.32,3.32,3.56,1.67,2.92,3.18,6.92,3.82,10.22,1.07,5.51,1.36,11.41.36,16.95-.5,2.75-1.14,8.03-4.95,6.02l-.26,10.21,3.32-2.55,1.27,3.57c3.31-2.97,5.17-6.85,6.24-11.12,1.33-5.29-.21-8.4,3.98-.62,1.34-3.37.82-7.34.11-10.83-.94-4.59-3.68-8.58-4.45-13.16.72.55,3.91,2.47,4.59,2.04.06-.41-.46-.72-.51-1.02-.02-.09,1.13-.23-.52-.76v-1.28s1.54,0,1.54,0c1.25,1.69,2.23.99,2.55,4.08-1.15.91-1.94,1.81-3.58,1.54,1.17,3.68,3.19,8.46,3.58,12.24.35,3.44-.46,12.15-5.61,9.7.02.97-.12,1.93-.48,2.84s-1.61,3.59-2.07,4.31c-.11.17-.37.31-.51.51-1.11,1.54-4.26,5.25-6.32,4.55l-.92-1.39-.92-.1c-.96,1.1-2.79.93-3.75,1.49-.57.34-.54,1.14-.85,1.57-1.03.04-1.57-.52-1.53-1.53,3.66-5.52,4.11-17.01-.51-22.21l-.85,4.23c-2.01,2.63-2.74-1-3.99-2.45-1.06-1.23-2.86-3.03-4.09-4.08-.88-.75-2.37-.67-2.31-2.03-1.05,0,.07,1.58.03,2.3-.04.63-.24.99-.87,1.2-4.95,1.65-16.69-7.88-17.54-13.19l-1.05.31c-.96,5.08-13.74,15.74-18.37,12.72-1.48-.96.97-3.14.28-4.36-1.63,2.11-4.14,3.47-5.89,5.34-1.21,1.3-3.39,5.4-4.56,5.68-2.29.56-2.55-5.32-2.82-6.45-.11-.46-.15-1.14-.77-.99-.66,3.11-3.77,5.44-4.76,8.26-1.68,4.75-1.49,12.22,1.95,16.23l1.54-4.06,1.77-.53c-.15,3.21,3.56,9.51,6.39,10.72,1.58.67-.21-4.34,2.03-4.08,3.67,4.14,7.79,7.57,13.54,8.17.34-.35-.74-2.3.77-2.05,1.65.26,4.79,3.31,6.87,3.85,5.49,1.42,6.27-2.88,10.74-3.84v1.52c2.51.21,4.55-1.63,6.37-3.06,2.43-1.91,3.71-5.67,4.62.02.75-.02,3.7-2.41,4.33-3.07l1.53,1.02c-.07.06.09.64-.15.86-1.52,1.34-3.27,2.6-4.96,3.74l-3.72-.97-3.94,3.01c-.17.01-.34-.01-.51,0-.68.05-5.47.51-5.76.59-.73.21-2.49,2.12-3.44,2.47-2.5.93-4.76.35-7.15-.51-4.53-1.63-4.78-1.13-9.19-2.04-.69-.14-1.36-.37-2.04-.51-.06-.01-.16-.39-1.02-.51-.32-.05-.69.01-1.02,0l-3.73-3.2c-.93-.72-1.05-.02-1.37.14-1.03.51-1.1,1.19-2.68.94-1.24-.2-4.09-2.51-4.98-3.49-.6-.67-1.62-2.65-2.05-3.57-.91,0-.73,1.76-1.76,1.88-1.97.23-4.59-3.64-4.87-5.45l-1.75,1.54-4.1-2.05-2.32,2.04h-.51c-4.48-3.26-7.66-7.54-8.17-13.27-.78-.2-.4.75-.85,1.03-2.3,1.38-2.46-.64-3.74-1.03,0-.89-.32-1.71-.51-2.55-.46-2.05-.75-4.01-.51-6.12.16-1.45,1.5-6.69,2.04-8.17.19-.53,2.63-3.59,2.04-4.08-2.86.54-4.64-1.47-3.06-4.09,1.75-2.89,4.64-3.88,5.11-8.17.23-.1.35-.41.51-.51,1.01-.67,2.57-3.85,3.06-5.1l2.04,1.02Z"/>
  <path class="cls-3" d="M111.9,50.08c.05.3.57.61.51,1.02-.68.43-3.87-1.48-4.59-2.04-1.85-1.42-2.06-2.59-3.57-4.08-.29,1.52.26,5.45-2.05,5.61-.64-3.29-2.15-7.3-3.82-10.22-.71-1.24-1.7-3.51-3.32-3.56-.61.69,3.34,9,3.83,10.71,2.11,7.35,2.9,16.86,0,23.99l-9.2-13.77c-1.11-.21-.78.51-.78,1.28,0,2.42,1.74,5.26.28,7.39l-13.79-13.77-1.05,1.54,3.86,8.14c-4.63.1-14.23-8.66-15.1-12.75-.28-1.33,1.71-6.29,1.83-8.44.06-1.17-.38-.73-1.28-.77-2.72,9.61-7.32,19.87-18.12,21.95-.34-.31,3.26-7.31,3.47-8.54.17-1.01.28-1.51-.66-2.17l-16.08,16.32.51-10.72c-.46.06-1.14-.14-1.47.06-.25.16-2.05,4.23-2.71,5.2-1.27,1.86-6.88,9.49-8.83,9.54-2.46-10.26-.77-21.2,3.31-30.86l-1.27-.79c-2.29,3.1-3.54,6.95-4.35,10.72-1.48-.3-.93.73-1.17,1.62-.44,1.65-.59,3.73-2.4,4.51.15-.52-.52-1.1-.52-1.27v-8.17c0-.21-.43-2.34-.52-3.06s-.18-1.49-1-.77c-.36,1.66-1.68,2.75-2.56,4.08-1.47.32-1.39-1.46-1.53-2.55,2.02-3.03,2.63-5.79,4.08-8.68.18-.35.54-.84.92-.99,5.36-1,10.51-2.85,15.83-3.96,17.1-3.56,37.65-4.15,54.92-1.62,4.78.7,15.62,2.37,19.19,5.31,3.19,2.62,4.79,12.07,9.21,14.53Z"/>
  <path class="cls-3" d="M85.35,91.94c-.63.66-3.59,3.05-4.33,3.07-.91-5.69-2.18-1.93-4.62-.02-1.82,1.43-3.86,3.27-6.36,3.06v-1.52c-4.48.96-5.26,5.26-10.75,3.84-2.08-.54-5.22-3.59-6.87-3.85-1.51-.24-.43,1.7-.77,2.05-5.74-.6-9.87-4.02-13.54-8.17-2.24-.27-.44,4.75-2.03,4.08-2.83-1.21-6.55-7.51-6.39-10.72l-1.77.53-1.54,4.06c-3.45-4.01-3.63-11.49-1.95-16.23,1-2.81,4.1-5.15,4.76-8.26.62-.15.66.53.77.99.27,1.14.53,7.01,2.82,6.45,1.17-.28,3.35-4.38,4.56-5.68,1.75-1.88,4.26-3.23,5.89-5.34.69,1.22-1.76,3.39-.28,4.36,4.63,3.01,17.41-7.64,18.37-12.72l1.05-.31c.85,5.32,12.59,14.84,17.54,13.19.62-.21.82-.56.87-1.2.05-.72-1.08-2.3-.03-2.3-.06,1.36,1.43,1.28,2.31,2.03,1.24,1.05,3.03,2.85,4.09,4.08,1.25,1.45,1.98,5.08,3.99,2.45l.85-4.23c4.61,5.2,4.16,16.69.51,22.21l-2.04,2.04-1.28-3.56c-1.37,1.78-2.27,3.97-3.84,5.61ZM68.83,70.83c6.95-7.66-12.85-10.32-14.55-4.04-1.59,5.85,9.67,9.42,14.55,4.04ZM48.86,77.13c-1.71.33.25,2.76.81,3.27,2.57,2.34,6.38,2.63,9.5,1.43.97-.37,2.17-1.59,2.96-1.62,1.3-.04,4.03,2.69,7,2.43,1.7-.15,7.48-2.64,7.04-4.73-.49-2.36-3.71,1.13-4.57,1.55-5.05,2.47-7.96-2.46-9.38-2.24-.68.1-2.81,2.18-4.06,2.59-5.45,1.8-7.79-2.96-9.3-2.67Z"/>
  <path class="cls-8" d="M95.56,17.42c.18.02.37-.04.51,0l.51.51c.6.34,1.53,1.06,2.04,1.53,1.46,1.34,2.55,3.03,3.57,4.59l-.51.26v.76s1.02,0,1.02,0h.51c.16,2.75,1.88,5.08,2.55,7.66.27,1.03-.41,2.77,1.02,3.57-.11,1.93.73,2.98,1.53,4.59.09.19.41.33.51.51,1.23,2.3,2.53,4.54,4.08,6.64h-1.53s-.01,1.28-.01,1.28c1.65.53.51.67.52.76-4.42-2.46-6.02-11.91-9.21-14.53-3.58-2.94-14.41-4.61-19.19-5.31-17.27-2.53-37.82-1.94-54.92,1.62-5.33,1.11-10.48,2.96-15.83,3.96-.38.15-.74.64-.92.99l-2.04-1.02c.4-1.02.28-2.44.51-3.06.93-2.46,1.97-5.99,3.06-8.17.23-.45,1.27-2.22,1.53-2.55.36-.45,1.96-1.65,2.55-2.04l.51-.51h.51c.36,2.57,2.23,1.11,4.08.51,1.06-.34,1.89-.68,3.06-1.02.66.05,1.42.26,1.53,1.02-1.27.06-3.86-.21-3.57,1.54-7.22,2.19-9.55,4.58-10.72,12.25,11.49-3.6,23.4-6.39,35.49-7.14,2.54-.16,5.15.19,7.68.02.95-.06,1.91.12,2.27-1.05.48.15,1.43-.1,2.04,0,8.45,1.38,17.55,1.17,26.16,2.69,5.34.94,10.36,3.07,15.71,3.94-.27-2.9-.75-6.03-2.58-8.39l-14.78-5.38c2.22.11,3.56.02,5.62,0,.17,0,.34,0,.51,0,.29.88.92,1.29,1.53.51.67.2,1.32.52,2.04.51l-1.02-1.53c.12.02,1.94-.52,2.04-.51Z"/>
  <path class="cls-10" d="M9.27,48.04c.88-1.33,2.21-2.42,2.56-4.08.82-.73.9.07,1,.77s.52,2.84.52,3.06v8.17c0,.18.67.76.52,1.27,1.81-.78,1.97-2.85,2.4-4.51.23-.89-.31-1.92,1.17-1.62-.98,4.58-2.53,20.57,1.25,23.51.3.23.48.59.95.41l1.88-.95-1.02,10.71-4.85-3.59-1.2.87-.09,3.24c-5.13-3.91-6.82-10.14-7.15-16.33-2.44-.51-2.21,3.18-4.08,4.09-.47-3.55-.57-6.19.23-9.72.88-3.84,2.96-7.12,4.36-10.7.06-.15.33-.28.51-1.02.04-.14-.01-.33,0-.51l.51-.76-.51-.26v-1.02c.17-.08.73.17.96-.06s-.03-.83.06-.96Z"/>
  <path class="cls-10" d="M107.82,49.06c.78,4.58,3.52,8.56,4.45,13.16.71,3.49,1.23,7.46-.11,10.83-4.19-7.78-2.66-4.68-3.98.62-1.07,4.27-2.93,8.15-6.24,11.12l-1.27-3.57-3.32,2.55.26-10.21c3.81,2.01,4.45-3.27,4.95-6.02,1-5.54.71-11.44-.36-16.95,2.31-.16,1.75-4.1,2.05-5.61,1.5,1.49,1.71,2.66,3.57,4.08Z"/>
  <path class="cls-6" d="M85.35,91.94c1.56-1.64,2.46-3.83,3.84-5.61l1.28,3.56,2.04-2.04c-.04,1.01.5,1.57,1.53,1.53-.34.48-.65,1.11-1.02,1.53-1.41,1.59-1.54,1.34-3.57,1.53-.65.06-.93-1-2.55.51l-1.53-1.02Z"/>
  <path class="cls-7" d="M7.74,45.49c.14,1.09.06,2.87,1.53,2.55-.08.13.17.73-.06.96s-.8-.02-.96.06c-1.67.83-3.14,2.11-5.11,2.04,1.63-1.86,3.21-3.53,4.6-5.61Z"/>
  <path class="cls-7" d="M8.25,51.1c.03-.33,0-.68,0-1.02l.51.26-.51.76Z"/>
  <path class="cls-7" d="M7.74,52.64l.51-1.02c-.18.74-.45.87-.51,1.02Z"/>
  <path class="cls-1" d="M46.04,99.59l-1.02-.51c.86.12.97.5,1.02.51Z"/>
  <path class="cls-1" d="M14.38,88.36c-.19-.14-.33-.38-.51-.51h.51v.51Z"/>
  <path class="cls-1" d="M6.21,41.41c.02-.17-.01-.34,0-.51h.51c-.16.1-.29.41-.51.51Z"/>
  <path class="cls-4" d="M69.01.06c1.33-.11,2.88-.16,4.08.51-.03.77-.1,1.84,0,2.55l-2.04,2.55c.89.18,1.78-.47,2.55-.51,2.48-.12,5.23,0,7.66.51,1.04.22,4.71,1.51,5.62,2.04.63.37,2.06,1.52,2.06,2.3l-1.55,2.29c.94.1,1.74.61,2.55,1.03,1.56.81,3.84,1.89,5.11,3.06.2.19.31.75.51,1.02-.1-.01-1.93.53-2.04.51-2.93-.43-7.44-5.2-11.23-5.11-.01-.54-.12-1.05.23-1.55.64-.92,3.02-.41,3.34-1.5-6.47-2.65-12.69-2.41-19.4-1.03-.05-2.97,2.57-4.53,4.08-6.63-5.11.44-8.64,3.17-12.53,6.15-1.4.14-2.24-1.46-3.43-2.19-2.87-1.74-5.84-3.29-9.3-3.46l4.29,5.42-.72,1.21c-6.49-2.8-13.73-1.08-20.17,1.04.63.97,2.35.55,3.53,1.31.64.41,1.22.87,1.06,1.74-4.03,1-8.07,3.15-11.13,5.99-1.22,1.14-.51.52.4.65-1.85.6-3.72,2.06-4.08-.51.74-1.19,1.93-2.26,3.06-3.06.48-.34,1.03-.69,1.53-1.02.78-.52,2.38-.75,3.06-1.79v-.75c-3.86-1.79.9-4.19,3.07-5.12.62-.26,1.64-.91,2.04-1.02,1.96-.57,5.51-.84,7.66-1.02h.51c.17,0,.34,0,.51,0,1.53-.04,3.07.04,4.6,0,.24-.18-4.22-3.61-1.02-5.1,1.12.1,2.56-.19,3.57,0,2.33.44,7.05,2.41,9.19,3.57.33.18.73,1.71,1.71,1.49,2.01-1.6,4.59-3.6,6.97-4.55.42-.17,2.83-.99,3.06-1.02.32-.05.69.03,1.02,0Z"/>
  <path class="cls-1" d="M39.4,5.68h-.51c.32-.03.42,0,.51,0Z"/>
  <path class="cls-8" d="M68.83,70.83c-4.87,5.37-16.14,1.81-14.55-4.04,1.7-6.28,21.5-3.62,14.55,4.04Z"/>
  <path class="cls-4" d="M48.86,77.13c1.51-.29,3.85,4.47,9.3,2.67,1.25-.41,3.37-2.49,4.06-2.59,1.42-.22,4.34,4.72,9.38,2.24.86-.42,4.07-3.9,4.57-1.55.44,2.09-5.34,4.59-7.04,4.73-2.97.26-5.7-2.47-7-2.43-.79.02-1.98,1.24-2.96,1.62-3.12,1.2-6.93.92-9.5-1.43-.56-.51-2.52-2.94-.81-3.27Z"/>
  <path class="cls-3" d="M22.55,19.97c-.91-.14-1.63.48-.4-.65,3.06-2.84,7.1-4.99,11.13-5.99.16-.88-.42-1.33-1.06-1.74-1.18-.76-2.91-.34-3.53-1.31,6.43-2.12,13.68-3.84,20.17-1.04l.72-1.21-4.29-5.42c3.46.17,6.44,1.72,9.3,3.46,1.19.72,2.03,2.33,3.43,2.19,3.9-2.97,7.42-5.71,12.53-6.15-1.51,2.1-4.13,3.66-4.08,6.63,6.71-1.38,12.93-1.62,19.4,1.03-.33,1.09-2.7.58-3.34,1.5-.35.5-.24,1.01-.23,1.55,3.79-.09,8.3,4.68,11.23,5.11l1.02,1.53c-.72.02-1.37-.31-2.04-.51-.34-.1-.41-.45-1.53-.51-.17,0-.34,0-.51,0-4.83-1.53-10.01-2.6-15.07-3.06-15.42-1.38-34.95-.71-49.78,3.57-1.18.34-2.01.68-3.06,1.02Z"/>
  <path class="cls-2" d="M56.25,17.93c-1.28.76-1.9,2.1-1.28,3.56.13.32.73.43.77.53.06.15-.07.38,0,.51.57,1.07,1.11,2.61,2.55,3.06-.36,1.17-1.32.99-2.27,1.05-2.53.17-5.14-.18-7.68-.02-12.09.75-24,3.54-35.49,7.14,1.17-7.67,3.5-10.06,10.72-12.25,10.13-3.07,22.34-4.5,32.68-3.57Z"/>
  <path class="cls-2" d="M84.84,18.44l14.78,5.38c1.83,2.37,2.31,5.5,2.58,8.39-5.34-.87-10.37-3-15.71-3.94-8.6-1.52-17.71-1.31-26.16-2.69l2.55-3.06v-.51h1.02s-.51-3.06-.51-3.06c-.06-1.78-.32-1.41,1.25-1.53,5.62-.44,14.16.72,20.19,1.02Z"/>
  <path class="cls-4" d="M90.46,18.44c-2.06.02-3.4.11-5.62,0-6.04-.3-14.58-1.46-20.19-1.02-1.57.12-1.31-.25-1.25,1.53-1.6-1.48-2.81-.39-4.34-.47-1.08-.06-1.94-.47-2.81-.55-10.34-.92-22.55.5-32.68,3.57-.29-1.74,2.3-1.48,3.57-1.54-.11-.76-.87-.96-1.53-1.02,14.82-4.28,34.36-4.95,49.78-3.57,5.06.45,10.24,1.53,15.07,3.06Z"/>
  <path class="cls-5" d="M62.89,22.52l-2.55,3.06c-.61-.1-1.56.15-2.04,0-1.45-.46-1.98-1.99-2.55-3.06.97-.11,2.15.15,3.06,0,.11.79-.55,2.27.76,2.04l.78-2.56,2.55.51Z"/>
  <path class="cls-4" d="M92.5,18.95c-.61.78-1.25.37-1.53-.51,1.12.06,1.2.41,1.53.51Z"/>
  <path class="cls-4" d="M102.71,25.07h-1.02s0-.76,0-.76l.51-.26c.21.33.49.59.51,1.02Z"/>
  <path class="cls-4" d="M96.58,17.93l-.51-.51c.28.08.39.44.51.51Z"/>
  <path class="cls-4" d="M17.44,19.97c.12-.08.17-.44.51-.51l-.51.51Z"/>
  <path class="cls-1" d="M63.4,18.95l.51,3.07h-1.02c-1.31.24-1.4-1.42-1.54-1.53-1.27-.99-.44,1.69-2.54,2.04-.13-.94.31-1.88-.77-2.54l-2.3,2.03c-.04-.1-.64-.21-.77-.53-.62-1.46,0-2.8,1.28-3.56.86.08,1.73.49,2.81.55,1.53.08,2.74-1.01,4.34.47Z"/>
  <path class="cls-9" d="M58.8,22.52c2.1-.35,1.27-3.02,2.54-2.04.14.11.23,1.77,1.54,1.53v.51l-2.55-.51-.78,2.56c-1.31.23-.66-1.26-.76-2.04-.92.15-2.09-.11-3.06,0-.07-.13.06-.36,0-.51l2.3-2.03c1.07.66.64,1.61.77,2.54Z"/>
</svg>