<?xml version="1.0" encoding="UTF-8"?>
<svg id="_레이어_1" data-name="레이어 1" xmlns="http://www.w3.org/2000/svg" viewBox="0 0 103.81 144.54">
  <defs>
    <style>
      .cls-1 {
        fill: #e0dfde;
      }

      .cls-2 {
        fill: #712c48;
      }

      .cls-3 {
        fill: #303034;
      }

      .cls-4 {
        fill: #4a2539;
      }

      .cls-5 {
        fill: #eaeae8;
      }

      .cls-6 {
        fill: #fbfbf9;
      }

      .cls-7 {
        fill: #f3f3f1;
      }

      .cls-8 {
        fill: #c5c4c3;
      }

      .cls-9 {
        fill: #25282a;
      }

      .cls-10 {
        fill: #c8c8c6;
      }

      .cls-11 {
        fill: #db9b91;
      }
    </style>
  </defs>
  <path class="cls-3" d="M34.33,2.08c1.49.93,3.43,3.5,4.08,5.1.56,1.37,1.89,6.71,2.04,8.17.32,3-.23,5.79-.51,8.68-.26,2.72-.6,5.46-1.02,8.17s-1.07,5.45-1.53,8.17-1.09,5.42-1.53,8.17c-.03.17.03.34,0,.51-.44,2.85-1.62,5.65-1.02,8.68,2.64-.74,5.47-1.59,8.16-2.04,2.52-.42,4.76-.29,7.15-.51.23-.02.46-.27.51-.51.15-.03.34.01.51,0,2.36-.14,4.78.1,7.15,0-.25-2.11.21-4.08.51-6.13.34-2.28.56-5.58,1.02-7.66s1.86-6.4,2.55-8.68c.65-2.14,1.71-5.73,2.55-7.66.61-1.39,2.22-4.2,3.06-5.61.46-.77,1.46-2.2,2.04-3.06,1.57-2.34,4.76-6.72,6.64-8.68.17-.17.34-.34.51-.51,1.66-1.63,5.5-4.32,7.66-5.1,2.49-.9,6.05-1.28,8.68-1.02s6.02,2.11,7.66,4.08c.1.11,1.47,2.41,1.53,2.55.99,2.36,1.16,5.62,1.02,8.17-.17,3-1.03,5.88-2.04,8.68-.05.15.05.36,0,.51-.25.06-.49.25-.51.51-.03.31-.04.72,0,1.02-1.4,1.9-2.33,4.12-3.57,6.12s-3.01,4.01-4.08,6.12c-.02.03-.38-.13-.51.51v.51c-.57.13-.73.76-1.02,1.02-2.3,2.09-4.5,4.96-6.13,7.66-.11.18-.42.33-.51.51-.06.13-.45.29-.51.51-.04.15.02.34,0,.51-2.42,1.73-3.41,4.64-4.6,7.15-.46.98-1.92,2.02-1.5,3.53.2.28,5.29,2.11,6.09,2.59.56.33,3.05,2.12,3.57,2.55.84.7,4.46,4.3,5.11,5.1.14.17,1.89,2.8,2.04,3.06.87,1.52,3.5,6.72,4.08,8.17.43,1.07,1.06,4.07,1.53,5.61.31,1.01.77,2.04,1.02,3.06.77,3.1.85,5.04,1.02,8.17.14,2.68.44,5.32,0,8.17-.77,4.93-3.75,12.25-6.64,16.33-.64.9-2.72,3.2-3.57,4.08-1.1,1.14-3.88,3.66-5.11,4.59-.77.59-2.17,1.46-3.06,2.04-3.69,2.41-7.89,4.02-11.74,6.12-1.64.22-3.39,1.15-5.11,1.53-2.69.6-5.45,1.59-8.17,2.04-2.34.39-5.87.89-8.17,1.02-3.85.21-7.44-.15-11.23-.51-1.78-.17-3.86-.2-5.62-.51-2.99-.52-5.8-1.73-8.68-2.55-1.01-.29-1.91-.88-3.06-1.02-1.6-1.44-3.82-1.96-5.62-3.06-4.82-2.96-10.06-8.29-12.76-13.27-.71-1.31-2.58-5.71-3.06-7.15-.37-1.11-.29-2.12-.51-3.06-.63-2.74-.88-3.7-1.02-6.64-.12-2.48-.19-5.72,0-8.17s.94-4.78,1.53-7.15c.34-1.34.58-2.25,1.02-3.57.63-1.87,1.17-3.85,2.04-5.61,1.18-2.38,3.44-5.8,5.12-7.9,2.46-3.07,5.12-2.97,4.07-7.42h2.04c.81,3.38.86,3.98-2.04,6.38-.08.39.49.33.75.25,4.76-1.5,9.48-3.92,14.56-5.35,16.11-4.55,32.81-6.08,49.53-5.36l-2.83-1.52c-1.04-1.7,3.61-8.81,4.76-10.59,6.21-9.64,16.8-18.98,19.76-30.26,5.17-19.71-12.04-22.95-23.72-9.42-11.37,13.19-14.12,29.28-16.83,45.96-9.32.05-18.54,1.16-27.6,3.28-.53-9.38,2.43-18.37,3.92-27.47,1.23-7.51,4.13-23.57-3.24-28.59-4.32-2.95-10.88-1.7-14.47,1.96l-2.04-.51c.49-.56,1.04-1.61,1.53-2.04.4-.35,1.05-.73,1.53-1.02C20.97,1.69,24.55.2,26.16.03c2.3-.24,6.19.8,8.17,2.04ZM63.94,65.37c-1.51-.07-3.08-.02-4.6,0-.96.01-2.51-.35-3.06.51-1.8-.11-3.8-.04-5.62,0-3.42.07-9.96.4-12.98,1.6-.77.3-1.56.37-1.32,1.46-.83.11-1.63.57-2.55.51-.07,0-.51-.7-1.02-.51v1.02c-4.08.89-8.19,2.09-12.14,3.44-7.73,2.63-10.47,2.55-13.83,10.67-.24.57-1.74,3.15-.33,2.74,15.86-5.55,31.3-10.61,48.08-12.68,12.55-1.55,24.88-1.18,37.44-.09.23-.88-.37-1.02-.76-1.53-.7-.92-5.67-5.94-6.42-6.34-2.37-1.24-7.86-.85-10.68-.8-2.97-.86-7.29-.85-10.21,0ZM63.33,75.72c-20.05,1.22-40.17,7.34-58.61,14.91-7.87,27.34,7,47.17,34.53,50.71,36.5,4.68,73.46-19.23,57.61-59.63-.57-1.44-1.63-4.15-3.07-4.58-2.59-.77-9.79-1.38-12.75-1.55-5.51-.31-12.19-.19-17.72.15Z"/>
  <path class="cls-6" d="M63.33,75.72c5.52-.34,12.21-.46,17.72-.15,2.95.17,10.16.78,12.75,1.55,1.45.43,2.51,3.14,3.07,4.58,15.84,40.41-21.11,64.31-57.61,59.63-27.53-3.53-42.4-23.37-34.53-50.71,18.44-7.58,38.55-13.69,58.61-14.91ZM67.38,90.96c-5.4.98-4.36,12.33,1.9,11.14,4.63-.88,3.19-12.07-1.9-11.14ZM31.12,97.11c-4.34,1.32-2.82,11.97,2.32,11.05,4.47-.8,3.56-12.83-2.32-11.05ZM80.68,100.73c-11.71,1.35-9.69,11.16,2.28,9.42,9.36-1.36,9.86-10.82-2.28-9.42ZM55.13,103.26c-1.47-1.45-7.92-.26-8.49,1.77-.65,2.31,1.82,2.58,2.7,3.76,2.19,2.94-2.23,6.13-5.31,4.28-.78-.47-.89-1.52-1.14-1.65-2.76-1.57-2.71,2.77.61,4.22,2.98,1.3,6.45.72,7.94-2.33,3.4,2.89,11.02,1.76,10.98-3.3-.03-4.77-2.85.9-3.34,1.3-1.99,1.64-5.51,1.05-6.21-1.54-.46-1.69,4.7-4.09,2.23-6.52ZM22.47,110.43c-11.54,1.24-10.02,11.04.82,10.01,10.14-.96,10.73-11.25-.82-10.01Z"/>
  <path class="cls-7" d="M18.5,6.16c3.58-3.65,10.14-4.9,14.47-1.96,7.37,5.03,4.47,21.09,3.24,28.59-1.49,9.1-4.45,18.09-3.92,27.47,9.06-2.12,18.28-3.23,27.6-3.28,2.71-16.68,5.46-32.77,16.83-45.96,11.67-13.54,28.88-10.29,23.72,9.42-2.96,11.28-13.55,20.62-19.76,30.26-1.14,1.77-5.8,8.89-4.76,10.59l2.83,1.52c-16.72-.72-33.42.81-49.53,5.36-5.08,1.43-9.8,3.86-14.56,5.35-.26.08-.83.14-.75-.25,2.9-2.41,2.85-3,2.04-6.38-1.58-6.61-3.86-13.05-4.96-19.8-1.36-8.4-1.99-18.63.89-25.92-1.22-2.04.23-1.56.46-2.14,1.65-4.13,2.84-9.5,6.16-12.88ZM84.23,16.99c-3.48.68-7.91,6.7-9.78,9.63-5.64,8.81-8.25,19.12-9.97,29.36l.48.97,5.99,1.69.9-.4c1.73-3.52,3.45-7.02,5.46-10.39,3.84-6.42,12.87-16.94,13.04-24.22.09-3.7-1.86-7.48-6.12-6.64ZM25,18.49c-.81.12-3.26,1.58-3.97,2.2-7.82,6.84-5.42,26.44-3.41,35.59.44,2.01,1.58,7.2,2.49,8.74,1.3,2.18,6.36-1.11,7.47-2.56.15-4.55.18-9.15.61-13.68.68-7.17,3.52-19.66,1.8-26.3-.48-1.84-2.99-4.28-5-3.98Z"/>
  <path class="cls-2" d="M63.94,65.37c3.81.17,6.56.06,10.21,0,2.83-.05,8.32-.44,10.68.8.75.4,5.72,5.42,6.42,6.34.39.51.99.65.76,1.53-12.56-1.1-24.89-1.46-37.44.09-16.78,2.07-32.22,7.13-48.08,12.68-1.41.41.09-2.17.33-2.74,3.37-8.12,6.11-8.04,13.83-10.67,3.94-1.34,8.06-2.55,12.13-3.44l1.02-.51c.93.06,1.72-.4,2.55-.51,4-.55,9.17-.77,12.89-1.68.87-.21,1.65-.17,1.41-1.38,1.82-.04,3.82-.11,5.62,0,.49.03,1.99,1.03,3.07.51v-1.02c1.51-.02,3.08-.07,4.59,0Z"/>
  <path class="cls-9" d="M18.5,6.16c-3.32,3.38-4.51,8.75-6.16,12.88-.23.58-1.68.1-.46,2.14-2.88,7.28-2.26,17.51-.89,25.92,1.1,6.75,3.38,13.19,4.96,19.8h-2.04c-.21-.9-.8-1.8-1.02-2.55-.71-2.37-1.37-4.76-2.04-7.15-.24-.85-.43-1.85-1.02-2.55.06-.38.06-1.16,0-1.53-.04-.24-.27-.45-.51-.51-.22-1.13-.32-2.41-.51-3.57-.54-3.33-1.34-7.55-1.53-10.72-.11-1.92-.08-4.2,0-6.12.11-2.53.6-5.64,1.02-8.17.33-1.98,1.62-4.14,1.53-6.12,1.88-3.53,2.82-7.39,5.11-10.72.23-.33,1.1-1.03,1.53-1.53l2.04.51Z"/>
  <path class="cls-4" d="M50.67,65.88c.24,1.21-.54,1.17-1.41,1.38-3.72.91-8.89,1.13-12.89,1.68-.25-1.1.55-1.16,1.32-1.46,3.02-1.2,9.56-1.53,12.98-1.6Z"/>
  <path class="cls-4" d="M74.15,65.37c-3.65.06-6.41.17-10.21,0,2.93-.85,7.24-.86,10.21,0Z"/>
  <path class="cls-4" d="M59.35,65.37v1.02c-1.08.52-2.58-.48-3.06-.51.56-.86,2.1-.5,3.06-.51Z"/>
  <path class="cls-4" d="M33.82,69.45l-1.02.51v-1.02c.51-.2.95.5,1.02.51Z"/>
  <path class="cls-1" d="M36.88,48.52l-1.02.51c.03-.17-.03-.34,0-.51h1.02Z"/>
  <path class="cls-1" d="M50.16,55.16c.08-.24.27-.46.51-.51-.05.24-.28.49-.51.51Z"/>
  <path class="cls-5" d="M85.39,49.03h-.51c.06-.22.45-.38.51-.51v.51Z"/>
  <path class="cls-10" d="M85.9,48.52c-.17,0-.34,0-.51,0,.09-.18.4-.33.51-.51v.51Z"/>
  <path class="cls-10" d="M93.04,38.82c.13-.64.49-.48.51-.51l-.51.51Z"/>
  <path class="cls-8" d="M101.21,25.04c.02-.26.26-.45.51-.51-.08.21-.32.39-.51.51Z"/>
  <path class="cls-11" d="M22.47,110.43c11.55-1.24,10.96,9.05.82,10.01-10.84,1.03-12.36-8.77-.82-10.01Z"/>
  <path class="cls-11" d="M80.68,100.73c12.14-1.4,11.64,8.06,2.28,9.42-11.97,1.74-13.99-8.08-2.28-9.42Z"/>
  <path class="cls-9" d="M55.13,103.26c2.47,2.43-2.69,4.83-2.23,6.52.7,2.59,4.22,3.17,6.21,1.54.49-.4,3.31-6.08,3.34-1.3.03,5.05-7.59,6.18-10.98,3.3-1.5,3.04-4.96,3.63-7.94,2.33-3.32-1.45-3.38-5.79-.61-4.22.24.14.35,1.18,1.14,1.65,3.07,1.85,7.5-1.34,5.31-4.28-.88-1.18-3.35-1.45-2.7-3.76.57-2.03,7.01-3.22,8.49-1.77Z"/>
  <path class="cls-9" d="M67.38,90.96c5.09-.93,6.53,10.26,1.9,11.14-6.26,1.19-7.31-10.16-1.9-11.14Z"/>
  <path class="cls-9" d="M31.12,97.11c5.88-1.79,6.79,10.25,2.32,11.05-5.14.92-6.66-9.73-2.32-11.05Z"/>
  <path class="cls-11" d="M25,18.49c2.01-.3,4.52,2.14,5,3.98,1.72,6.64-1.12,19.13-1.8,26.3-.43,4.53-.46,9.13-.61,13.68-1.12,1.45-6.17,4.74-7.47,2.56-.91-1.53-2.05-6.73-2.49-8.74-2.01-9.16-4.41-28.75,3.41-35.59.7-.61,3.16-2.07,3.97-2.2Z"/>
  <path class="cls-11" d="M84.23,16.99c4.26-.83,6.2,2.94,6.12,6.64-.17,7.28-9.2,17.8-13.04,24.22-2.02,3.37-3.73,6.87-5.46,10.39l-.9.4-5.99-1.69-.48-.97c1.73-10.24,4.34-20.55,9.97-29.36,1.87-2.93,6.3-8.95,9.78-9.63Z"/>
  <path class="cls-10" d="M9.82,53.12c-.24-.07-.47-.27-.51-.51.24.06.47.27.51.51Z"/>
  <path class="cls-1" d="M9.31,15.86l-.51-.51h.51c0,.17,0,.34,0,.51Z"/>
</svg>