<?xml version="1.0" encoding="UTF-8"?>
<svg id="_레이어_1" data-name="레이어 1" xmlns="http://www.w3.org/2000/svg" viewBox="0 0 105.37 93.7">
  <defs>
    <style>
      .cls-1 {
        fill: #e0dfde;
      }

      .cls-2 {
        fill: #581b40;
      }

      .cls-3 {
        fill: #712c48;
      }

      .cls-4 {
        fill: #dedacd;
      }

      .cls-5 {
        fill: #303034;
      }

      .cls-6 {
        fill: #cbcbca;
      }

      .cls-7 {
        fill: #c98246;
      }

      .cls-8 {
        fill: #4a2539;
      }

      .cls-9 {
        fill: #fbfbf9;
      }

      .cls-10 {
        fill: #2d2021;
      }

      .cls-11 {
        fill: #c5c4c3;
      }

      .cls-12 {
        fill: #25282a;
      }

      .cls-13 {
        fill: #d5833d;
      }

      .cls-14 {
        fill: #a28768;
      }
    </style>
  </defs>
  <path class="cls-12" d="M44.52.58c.64,0,1.47-.1,2.04,0,1.15.2,1.22.32,2.04,1.02l.51.51c.09.09-.08.42,0,.51-.88-.25-1.8.95-2.04,1.02-.09.03-.99-.75-1.55-.3-.62.49-.37,1.68-.49,1.83-.09.12-1.31.13-1.73.46-.45.36-.23,1.14-.47,1.4-2.13,2.24-4.02-.05-6.4-.23-.77-.06-1.05.42-1.11.42-.66,0-1.4-.07-2.04,0-.16-.76-1.83-.79-2.04,0-.87.79,5.13,4.78,5.61,5.88.44,1.02-3.09,1.5-4.08,1.78-1.63.46-3.4.6-4.94,1.44l-6.29,3.66c13.97-2.68,27.77-1.3,41.35,2.56-1.19.94-2.98.18-4.08,1.53-12.49-3.28-28.29-3.53-40.77-.18-4.52,1.21-7.52,6.89-7.73,11.4,6.52-1.45,12.93-3.63,19.66-4.08,20.74-1.38,32.61,4.34,51.31,9.69.51.15,1.66,1.64,3.06,1.02,0-1.89-.81-3.44-1.53-5.1-.8-1.85-1.5-3.89-3.39-5.03-2.48-1.5-9.34-3.6-12.44-4.67l.6-2.48,1.44-.07c.27.09.76-.09,1.02,0,.92.33,5.69,2.91,6.13,2.55-1.19-2.42-3.53-4.43-5.62-6.12-.18-.15-.33-.37-.51-.51,1.02-2.25-4.51-3.05-3.06-4.59.69-.74,3.61,2.91,5.1,2.04,1.4,1.27,3.35,2.75,4.6,4.08.76.81,2.04,1.93,2.55,2.55.62.76,1.66,3.01,2.1,4.02,1.73.68,2.99-1.06,4.03-1.47,1.57-.63,4.1-.71,5.11-2.55.17-.02.36.04.51,0,.37-.09.46-.49.51-.51,1.15-.56,1.83-1.58,2.55-2.04,1.36-.88,3.59-2.58,5.11-1.81,2.72,5.12,5.93,12.3-1.53,14.82.41.96,3.57.99,4.59,1.28,2.83.8,3.4,1.55,3.06,4.59-.32,2.85-2.23,5.36-3.57,7.66-1.78.71-3.79.4-5.62,0-2.83-.62-6.48-2.36-9.19-3.57-.14,1.4.34,2.72.51,4.08.3,2.5,1,6.32,1.02,8.68.02,2.54-.52,6.65-1.02,9.19-.78,3.97-4.54,12.27-7.15,15.31-1.46,1.71-2.07,1.23-3.06,1.53-1.59-3.32,1.74-5.59,3.16-8.33,3.25-6.27,4.8-12.89,4.49-20-.08-1.91-.59-7.47-1.14-9.07-.65-1.89-2.98-2.24-4.47-2.93-4.88-2.24-10.15-3.9-15.32-5.36-17.63-4.99-37.73-7.36-54.62,1.15-1.19,7.03-2.17,13.92-1.03,21.05,1.73-.93,3.85-1.33,5.61-2.04,4.13-1.66,5.07-3.32,8.17-5.1,6.73-3.88,9.36,2.05,13.61,5.02,2.43,1.7,5.43,1.86,6.18,5.56,1.23,6.04-4.74,12.9-10.32,14.46-6.66,1.86-12.23-1.51-18.43-1.05-1.45.11-.53,1.26-.75,2.04-1.6-2.21-2.42-3.27-5.62-2.04v-1.02c.17-.17.33-.35.51-.51,1.71.44,1.73-.92,2.55-2.04.13-.07.37.07.51,0,.28-.13.44-.49.51-.51.15-.05.36.05.51,0,.37-.12.87.04,1.02-.51h.51c2,.32,3.63-1.17,5.4-1.49,3.36-.61,7.52.11,10.43-1.57.49-.05,1.05.07,1.53,0,.38-.06.48-.5.51-.51.29-.09.79.1,1.02,0,.73.22,1.01.79,1.02,1.53-.14.05-.34-.04-.51,0-.34.09-.47.5-.51.51-.17.03-.34-.03-.51,0-4.29.66-9.78-.02-13.79,2.04-.16.03-.34-.02-.51,0l-.51.51c-.37.12-1.07-.09-1.53,0v1.02c.23.2,3.23-.13,4.09,0,7.62,1.21,11.5,3.56,17.87-3.06,1.47-1.53,2.04-2.1,2.04-4.59-.08-.11-.79.39-1.02.51.08-.45-.04-1.14.03-1.75.1-.9.74-.75.48-1.82-.1-.44-.29-.67-.51-1.02-.07-.11.14-.62-.12-.89-.39-.41-1.76-.73-2.44-1.15-.26-.16-.63-.25-1.02-.51l-1.28-1.52-.25.5c-2.19-1.51-3.68-4.27-6.83-4.07-2.25.14-6.66,3.52-9.16,4.67-5.73,2.64-13.28,3.17-13.64,11.42-.04,1.03.86,7.28,2.57,6.35-.1.1.38,1.3-.75,1.06l-3.33-1.06c-.33-.87-1.41-2.75-1.53-3.57-.43-3.01.67-5.4,1.02-8.17.04-.29.47-.72.51-1.02,3.54-2.07,2.95-3.64,3.06-7.15.08-2.37-.11-4.78,0-7.15.16-3.49.55-6.27,1.02-9.7.34-2.46.4-5.99,1.02-8.17.22-.78,2.51-5.26,3.06-6.12.22-.33,1.25-1.7,1.53-2.04,1.45-1.75,5.78-5.73,7.66-7.15.19-.14.33-.38.51-.51,1.68-1.18,4.72-2.69,6.64-3.57,1.34-.62,3.13-1.33,4.59-1.54l-3.57-4.59c.25-3.04,2.48-2.61,4.6-3.57.41.11,1.07-.09,1.53,0,.5.09,1.31.36,2.04.51,2.24.47,4.47.69,6.63,1.53-.4-1.98,1.23-3.47,1.54-5.11h1.02ZM86.9,33.25c.31,1.07-1.45.89-1.02,1.78.93,1.89,5.83-.74,7.14-1.27,6.57-2.66,7.8-3.31,4.33-10.72l-12.77,8.15,2.31,2.06ZM92,38.35c-1.28.04-2.35.08-3.57.52-.24,2.03,2.21-.08,1.53,2.54l-2.55-.51c-.5,2.54,2.18,2.04,3.57,2.55,2.1.77,7.41,3.16,9.37,2.49l2.38-5.32-.87-1.16c-3.37-.34-6.42-1.21-9.86-1.12Z"/>
  <path class="cls-9" d="M79.24,43.46c1.47,2.53,1.22,6.5,1.01,9.44-2.01,28.85-23.46,49.19-52.72,37.4-3.8-1.53-7.2-4.47-11.1-5.49-1.69-1.92-2.65-3.63-4.08-5.61.22-.79-.71-1.94.75-2.04,6.19-.46,11.76,2.91,18.43,1.05,5.58-1.56,11.55-8.41,10.32-14.46-.75-3.7-3.75-3.86-6.18-5.56-4.26-2.97-6.89-8.9-13.61-5.02-1.69.21-2.79-.14-2.55-2.04,1.56-8.23-6.47-10.08-7.61-3.25-.15.91,0,1.84-.05,2.74-.04.85-.51,1.74-.29,2.57.42,1.61,3.23,2.53,2.34,5.08-1.76.71-3.88,1.11-5.61,2.04-1.14-7.13-.16-14.02,1.03-21.05,16.89-8.51,36.99-6.15,54.62-1.15,5.16,1.46,10.44,3.12,15.32,5.36ZM50.5,44.58c-4.22,1.28-3.96,12.37,1.89,11.62,5.28-.67,4.38-13.52-1.89-11.62Z"/>
  <path class="cls-3" d="M58.82,24.06c2.18.57,5.78,2.24,8.17,3.06,3.1,1.07,9.96,3.17,12.44,4.67,1.9,1.14,2.59,3.18,3.39,5.03l-1.53,4.08c-18.7-5.35-30.57-11.07-51.31-9.69-6.73.45-13.14,2.63-19.66,4.08.22-4.52,3.22-10.19,7.73-11.4,12.48-3.35,28.28-3.11,40.77.18Z"/>
  <path class="cls-13" d="M32.78,59.28c.52.36,1.01.68,1.53,1.02.39.26.76.35,1.02.51l2.55,2.04c.23.35.41.58.51,1.02-1.78,1.61-4.49,4.17-6.64,5.1-.23.1-.73-.09-1.02,0l-.51.51c-.48.07-1.04-.05-1.53,0-5.24.58-11.19.04-15.83,3.06h-.51l-1.02.51c-.15.05-.36-.05-.51,0l-.51.51c-.14.07-.38-.07-.51,0-1.16.65-1.64,1.24-2.55,2.04-.18.16-.34.34-.51.51-.48.47-.94,1.49-1.02,1.53-1.71.92-2.61-5.32-2.57-6.35.36-8.24,7.91-8.78,13.64-11.42,2.5-1.15,6.91-4.53,9.16-4.67,3.15-.2,4.64,2.56,6.83,4.07ZM25.47,58.35c-.5.15-1.16.77-1.29,1.27l.7,1.7c2.53-.19,3.9-3.93.59-2.98Z"/>
  <path class="cls-9" d="M47.58,5.69c2.36,5.06,16.87,10.44,22.47,14.8.19.14.33.36.51.51.82,1.49-.05,2.21-.51,3.57-.26-.09-.75.09-1.02,0-2.06-.71-4.02-1.44-6.13-2.04-13.59-3.86-27.38-5.24-41.35-2.56l6.29-3.66c1.54-.83,3.31-.98,4.94-1.44l4.59,1.02c.87-2.35,1.08-3.05,0-5.35l3.06-1.29c.68.19,4.57,1.02,4.81.97,1.55-.34.33-2.04.29-2.5-.02-.33.05-.7,0-1.02,1.19-.45,1.01-.94,2.04-1.02Z"/>
  <path class="cls-5" d="M49.12,2.63c.81.85,1.72,1.71,2.55,2.55,1.59,1.63,1.48,1.83,3.57,3.06s3.68,1.31,5.11,2.04c2.61,1.34,5.08,3.2,7.66,4.59.17.09.32.42.51.51.54.27.98.35,1.53.51.14.6.67.72,1.02,1.02.44.38.7.73,1.02,1.02-1.49.87-4.41-2.78-5.1-2.04-1.45,1.54,4.08,2.34,3.06,4.59-5.6-4.36-20.1-9.74-22.47-14.8-.26-.56-.29-1.42-.51-2.04.24-.07,1.17-1.27,2.04-1.02Z"/>
  <path class="cls-5" d="M6.74,77.14c3.19-1.23,4.02-.17,5.62,2.04,1.43,1.99,2.39,3.69,4.08,5.61,2,2.27,4.21,4.52,7.14,5.62l-5.1,1.01c-.15-.19-.37-.33-.51-.51-1.48-1.93-4.04-3.82-5.6-5.88-1.29-1.7-2.05-3.64-3.32-5.33l-2.81,2.53c-.65-.03-1.4-.06-2.04,0-.42-.39-1.89-1.74-2.04-2.04-.36-.72-.27-1.91-.51-2.55l3.33,1.06c1.13.24.65-.96.75-1.06.14-.14.76-.41,1.02-.51Z"/>
  <path class="cls-3" d="M93.03,33.76c-.82-2.74,2.98-2.63,3.06-5.1l-9.19,4.59-2.31-2.06,12.77-8.15c3.47,7.4,2.24,8.06-4.33,10.72Z"/>
  <path class="cls-7" d="M36.86,71.53c-6.38,6.63-10.25,4.27-17.87,3.06-.18-.85.38-1.14,1.02-1.53,3.73-.54,7.66-.93,11.23-2.04.17-.03.35.03.51,0l.51-.51c.17-.04.37.05.51,0,2.35-.87,3.12-1.98,5.11-3.06-.27,1.46-.37,2.66-1.02,4.08Z"/>
  <path class="cls-2" d="M90.98,43.46c-.23-1.7.62-.84,1.54-.77,1.69.12,3.38.48,5.1.26-1.42-2.21-7.49-.75-5.62-4.59,3.45-.1,6.49.78,9.86,1.12l.87,1.16-2.38,5.32c-1.96.67-7.27-1.72-9.37-2.49Z"/>
  <path class="cls-1" d="M33.29,7.22c.65-.07,1.38,0,2.04,0,1.53.46,3.74,1.67,5.11,2.04l-3.06,1.29c1.07,2.3.86,3,0,5.35l-4.59-1.02c.98-.28,4.52-.76,4.08-1.78-.48-1.1-6.48-5.08-5.61-5.88.67-.05,1.37.07,2.04,0Z"/>
  <path class="cls-8" d="M86.9,33.25l9.19-4.59c-.08,2.48-3.88,2.36-3.06,5.1-1.32.53-6.22,3.15-7.14,1.27-.44-.89,1.33-.7,1.02-1.78Z"/>
  <path class="cls-1" d="M19.5,51.11c-.24,1.9.86,2.25,2.55,2.04-3.1,1.79-4.04,3.44-8.17,5.1.89-2.55-1.91-3.48-2.34-5.08-.22-.83.26-1.72.29-2.57.98,5.43,6.61,6.06,7.66.51Z"/>
  <path class="cls-8" d="M92,38.35c-1.87,3.84,4.19,2.37,5.62,4.59-1.73.22-3.41-.14-5.1-.26-.92-.07-1.76-.93-1.54.77-1.4-.51-4.07-.01-3.57-2.55l2.55.51c.68-2.63-1.76-.51-1.53-2.54,1.23-.44,2.29-.48,3.57-.52Z"/>
  <path class="cls-5" d="M69.03,24.57l-1.44.07-.6,2.48c-2.39-.82-5.99-2.49-8.17-3.06,1.11-1.36,2.89-.59,4.08-1.53,2.11.6,4.07,1.33,6.13,2.04Z"/>
  <path class="cls-5" d="M45.03,5.18c.71.26.43,1,.51,1.53-.61.23-1.28-.54-1.02,1.02h1.02c.03.46,1.26,2.16-.29,2.5-.24.05-4.13-.78-4.81-.97-1.36-.37-3.58-1.59-5.11-2.04.06,0,.34-.47,1.11-.42,2.38.18,4.27,2.47,6.4.23.24-.25.02-1.04.47-1.4.42-.33,1.64-.34,1.73-.46Z"/>
  <path class="cls-10" d="M37.88,67.45c.23-.12.94-.62,1.02-.51,0,2.49-.57,3.06-2.04,4.59.65-1.42.76-2.62,1.02-4.08-1.99,1.08-2.76,2.19-5.11,3.06,0-.74-.29-1.31-1.02-1.53,2.15-.94,4.86-3.5,6.64-5.1.25,1.07-.38.92-.48,1.82-.07.61.06,1.3-.03,1.75Z"/>
  <path class="cls-4" d="M70.56,21c2.08,1.69,4.42,3.7,5.62,6.12-.43.36-5.2-2.22-6.13-2.55.46-1.37,1.33-2.09.51-3.57Z"/>
  <path class="cls-10" d="M31.25,71.02c-3.57,1.11-7.51,1.51-11.23,2.04-.79.11-1.79-.14-2.55,0,4-2.06,9.49-1.38,13.79-2.04Z"/>
  <path class="cls-8" d="M82.81,36.82c.72,1.67,1.54,3.21,1.53,5.1-1.41.62-2.55-.87-3.06-1.02l1.53-4.08Z"/>
  <path class="cls-10" d="M28.69,69.49c-2.9,1.68-7.06.96-10.43,1.57-1.77.32-3.4,1.81-5.4,1.49,4.64-3.03,10.59-2.49,15.83-3.06Z"/>
  <path class="cls-4" d="M47.07,3.65c.22.62.25,1.48.51,2.04-1.03.08-.85.57-2.04,1.02-.08-.53.2-1.28-.51-1.53.12-.15-.13-1.34.49-1.83.56-.45,1.46.32,1.55.3Z"/>
  <path class="cls-14" d="M20.01,73.06c-.64.39-1.2.68-1.02,1.53-.85-.14-3.86.19-4.08,0v-1.02c.46-.1,1.16.12,1.53,0,.18-.06.38-.49.51-.51.17-.02.35.03.51,0,.76-.14,1.76.11,2.55,0Z"/>
  <path class="cls-10" d="M9.8,73.57c-.82,1.12-.84,2.48-2.55,2.04.91-.8,1.39-1.39,2.55-2.04Z"/>
  <path class="cls-5" d="M46.56.58c-.57-.1-1.41,0-2.04,0,.21-.79,1.88-.76,2.04,0Z"/>
  <path class="cls-5" d="M33.29,7.22c-.67.07-1.37-.05-2.04,0,.21-.79,1.88-.76,2.04,0Z"/>
  <path class="cls-10" d="M35.33,60.81c.68.42,2.05.75,2.44,1.15.25.27.04.78.12.89l-2.55-2.04Z"/>
  <path class="cls-10" d="M34.31,60.3c-.52-.35-1.02-.66-1.53-1.02l.25-.5,1.28,1.52Z"/>
  <path class="cls-10" d="M6.74,77.14c-.26.1-.88.37-1.02.51.08-.04.54-1.06,1.02-1.53v1.02Z"/>
  <path class="cls-10" d="M12.35,72.55c-.15.55-.65.39-1.02.51l1.02-.51Z"/>
  <path class="cls-10" d="M30.22,69.49l.51-.51s-.13.45-.51.51Z"/>
  <path class="cls-10" d="M31.76,71.02s.17-.42.51-.51l-.51.51Z"/>
  <path class="cls-10" d="M10.31,73.57l.51-.51c-.07.02-.23.38-.51.51Z"/>
  <path class="cls-10" d="M16.44,73.57l.51-.51c-.13.02-.33.45-.51.51Z"/>
  <path class="cls-11" d="M90.98,24.57l.51-.51s-.14.42-.51.51Z"/>
  <path class="cls-5" d="M49.12,2.12l-.51-.51c.18.16.34.34.51.51Z"/>
  <path class="cls-12" d="M50.5,44.58c6.26-1.9,7.17,10.95,1.89,11.62-5.85.74-6.11-10.35-1.89-11.62Z"/>
  <path class="cls-12" d="M11.84,50.6c.04-.91-.11-1.84.05-2.74,1.15-6.83,9.17-4.97,7.61,3.25-1.05,5.55-6.68,4.92-7.66-.51Z"/>
  <path class="cls-6" d="M18.48,91.44h-.51v-.51c.14.19.37.32.51.51Z"/>
  <path class="cls-10" d="M25.47,58.35c3.3-.95,1.94,2.79-.59,2.98l-.7-1.7c.13-.5.79-1.13,1.29-1.27Z"/>
  <path class="cls-12" d="M45.54,6.71c.05.32-.02.69,0,1.02h-1.02c-.26-1.57.41-.79,1.02-1.02Z"/>
  <path class="cls-1" d="M71.07,16.41v.51c-.35-.3-.88-.42-1.02-1.02.33.1.74.47,1.02.51Z"/>
  <path class="cls-1" d="M68.52,15.39c-.19-.1-.34-.42-.51-.51h.51v.51Z"/>
</svg>