<?xml version="1.0" encoding="UTF-8"?>
<svg id="_레이어_1" data-name="레이어 1" xmlns="http://www.w3.org/2000/svg" viewBox="0 0 137.33 111.98">
  <defs>
    <style>
      .cls-1 {
        fill: #e0dfde;
      }

      .cls-2 {
        fill: #d9d9d6;
      }

      .cls-3 {
        fill: #712c48;
      }

      .cls-4 {
        fill: #524a3e;
      }

      .cls-5 {
        fill: #c6ac90;
      }

      .cls-6 {
        fill: #303034;
      }

      .cls-7 {
        fill: #cbcbca;
      }

      .cls-8 {
        fill: #c98246;
      }

      .cls-9 {
        fill: #2d2021;
      }

      .cls-10 {
        fill: #ead6b8;
      }

      .cls-11 {
        fill: #40433d;
      }

      .cls-12 {
        fill: #25282a;
      }

      .cls-13 {
        fill: #855963;
      }

      .cls-14 {
        fill: #d5833d;
      }
    </style>
  </defs>
  <path class="cls-12" d="M27.11.18c2.82.48,4.96,3.26,8.17,3.57.02.17-.03.35,0,.51.45,2.66,3.48,4.7,3.58,7.66.45.33,3.72-1.73,4.59-2.04,2.76-1,5.83-1.85,8.68-2.55,2.55-.63,5.05-1.13,7.66-1.53,2.3-.36,5.67-1.02,7.9-1.05,2.87-.03,5.45.78,8.44.54,3.21.81,6.48,1.25,9.7,2.04,2.17.53,5.71,1.3,7.66,2.04.72.27,4.53,3.09,5.1,2.55.21-2.3,1.63-4.4,3.07-6.13.22-.26,2.36-2.4,2.55-2.55,1.4-1.08,4.96-2.82,6.64-3.06,1.48-.21,6.78-.25,8.17,0,5.26.95,11.24,7.21,12.76,12.25.68,2.24,1.33,5.88,1.02,8.17-.17,1.27-1.6,4.89-2.19,6.26-.33.77-.08,1.67-1.38,1.4-.11-1.6-.15-2.2,0-4.08.01-.17-.01-.34,0-.51,0-.06.46-.11.51-1.02.68-12.54-4.52-21.8-18.5-19.77-2.47.36-2.55,1.14-3.96,1.91-.73.39-.75-.03-2.04,1.02-.86.7-1.55,1.13-2.26,2.08-1.96,2.62-2.23,7.27-5.91,6.09-1.48-.48-3.12-1.02-4.6-1.53-3.81-1.33-5.44-2.15-9.7-3.06-1.78-.38-3.7-2.08-6.13-.51.02-.27.08-.74-.1-.89-.49-.43-11.32-.26-12.91-.13-1.18.1-4.02.09-3.33,2.04-.06-.21-.68-1.53-.82-1.57-.92-.39-1.79.46-2.24.55-.32.06-.7-.05-1.02,0-.6.1-1.09.42-1.53.51-3.1.66-5.95.98-8.84,2.54-.47.26-.3,1-.35,1.03-.25.13-1.89-.07-2.68.12-1.65.4-3.19,1.5-4.99.65-2.22-3.96-3.08-6.63-7.14-8.94-6.66-3.78-15.39-2.56-20.12,3.62-2,2.61-6.06,10.66-.81,11.18-.73.27-1.51,1.11-2.55,1.02-.22-.62-.69-1.14-.56-2l-1.49-.04c-.12-2.15-.73-3.53,0-6.12C6.53,7.54,13.42,1.04,18.43.18c1.4-.24,7.28-.24,8.68,0Z"/>
  <path class="cls-9" d="M5.15,18.55l1.49.04c-.14.86.34,1.38.56,2,1.33,3.79,2.49,8.61,6.15,10.95s3.46-.93,5.57-2.55c4.14-3.18,26.62-5.46,32.7-5.84,2.82-.18,4.83-.12,7.66-.51.95-.13,2.08.1,3.07,0v-2.04c.14.44.67,2.05.8,2.08,3.98.02,7.99-.15,11.96-.04.17,0,.34,0,.51,0,.95.86,3.64.86,4.6,0,.17,0,.34,0,.51,0,1.47.06,3.41.4,5.11.51,9.39.63,22.23,1.78,31.15,4.59.05.02.97.47,1.02.51.26.18,2.52,2.52,3.06,3.06.08.08-.16.77.05.95l.7.11c4.34-.62,5.26-5.22,7.42-8.21-.15,1.88-.11,2.48,0,4.08.02.33.02.69,0,1.02-.2.11-.34.36-.51.51-.38.32-.64,1.18-1.02,1.53-1.36,1.26-2.81,2.54-4.37,3.58-.6.97.57,1.87.8,2.55,1.12,3.37,1.59,7.37,3.57,10.21.03.51-.04,1.03,0,1.53.08,1.03.6,4.3,1.53,4.59.4,3.65.86,4.86,2.04,8.17,1.07,3,2.02,6.44,4.6,8.68.37,2.63,2.32,3.36,1.02,6.64-.14.34-.89.79-1.02,1.53-.59.08-4.24,1.31-4.37,1.5-.48,2.27.38,4.27.29,6.67-.11,2.84-.6,4.28-3.57,5.1-2.45.68-5.06.1-7.02.9-1.5.61-7.68,6.64-10.34,8.29-.71.44-1.98.5-2.55,1.53-.15-.05-.36.05-.51,0-1.55-.56-2.8.74-5.62.51,3.09-1.94,6.34-3.61,9.35-5.71,2.85-1.98,7.6-6.93,10.43-7.44,1.35-.25,6.16-.01,6.83-.94,1.83-5.67-4.64-11.76,4.85-12.4,2.43-1.87-2.28-7.94-3.37-10.26-.7-1.49-2.05-3.72-2.55-5.1-1.74-4.78-1.82-10.03-3.57-14.8-.94-1.15-6.8-2.12-8.68-2.55-12.36-2.84-29.79-5.68-42.38-5.61-2.45.01-5.83.96-8.17,1.02-15.33.4-29.82,1.34-45.06,4.72-1.39.31-5.79,1.52-6.51,2.43-.64.8-1.12,2.88-1.39,3.97-.53,2.17-1.33,9.44-2.18,10.83-.05.08-1.39.17-1.53,1.02.01-.31-.69-1.96,0-3.06h-1.02c.54-1.83.56-4.02,1.02-5.62.68-2.38,1.36-4.77,2.04-7.15.14-.5.36-1.01.51-1.53.8-2.69,1.59-5.54,2.55-8.17.1-.28.95-.75.98-1.34l-.19-.71c-1.07-.93-2.89-1.6-3.86-2.55-.36-.35-2.82-3.64-3.06-4.08-1.07-2.01-1.68-4.92-2.04-7.15-.03-.17.02-.34,0-.51-.08-.64.04-1.38,0-2.04ZM63.87,25.7c-.35-.03-1-.46-1.76-.51-13.64-.97-27.54,2.4-40.74,5.24-.98.44-1.75,1.38-2.34,2.25-.68.99-3.55,6.34-3.89,7.34-.36,1.05-.36,1.95-.28,3.03,2.93-.47,5.64-1.87,8.55-2.42,30.31-5.7,60.34-5.69,90.62,0,3.12.59,6.03,1.62,9.07,2.41.49-.5-4.74-10.73-5.84-11.76-2.66-2.48-11.29-2.18-14.9-3.99-7.3-1.33-19.82-3-27.03-2.15-1.03.12-.59,1.32-1.76,1.06-1.62-1.63-4.39.33-5.36.32-.5,0-2.89-.71-4.34-.83Z"/>
  <path class="cls-8" d="M30.68,4.77c4.06,2.31,4.92,4.98,7.14,8.94,1.79.85,3.34-.26,4.99-.65.79-.19,2.43,0,2.68-.12l6.13,10.21c-6.08.38-28.57,2.67-32.7,5.84-2.11,1.62-1.91,4.89-5.57,2.55s-4.82-7.16-6.15-10.95c1.05.08,1.83-.75,2.55-1.02,1.39-.53,3.09-1.02,4.6-1.02,0,2.24,1.42,8.41,3.94,9.11,2.22.62,3.9-2.97,5.5-4.04.51-.34,1.09-.36,1.28-.48-.26.5-1.26,2.14-.76,2.56l25.28-3.85-5.23-7.27-.63-.16c-2.37,1.26-8.14.8-9.97,1.83-.4.22-2.23,2.98-3.33,3.82-1.33,1.02-3.86,2.07-5.36,3.07,1.21-2.34,5.58-5.07,5.6-6.36.04-1.81-4.41-6.62-6.12-6.91,1-2.05,4.17-3.9,6.13-5.1Z"/>
  <path class="cls-4" d="M60.3,9.88c-.69-1.95,2.14-1.94,3.33-2.04,1.59-.13,12.43-.3,12.91.13.17.15.12.62.1.89-.05,4.69-2.12,9.05-1.53,13.78-3.97-.11-7.98.05-11.96.04-.13-.02-.66-1.63-.8-2.08-1.1-3.36-1.17-7.45-2.04-10.72Z"/>
  <path class="cls-4" d="M129.74,22.64l-.51,1.02c-.01.17.01.34,0,.51-2.16,2.99-3.08,7.59-7.42,8.21l-.7-.11c-.22-.17.02-.87-.05-.95,4.46-2.27,11.68-13.13,2.04-12.76-.4-4.66-5.39-9.37-10.21-8.68l-5.62-5.1c1.41-.77,1.49-1.55,3.96-1.91,13.98-2.03,19.19,7.23,18.5,19.77Z"/>
  <path class="cls-14" d="M105.23,5.79c1.63-.13,1.14.25.51,1.27-.76,1.22-2.36,2.33-2.55,3.83.98.97,4.08-6.14,5.61-1.79-2.33.77-2.4,4.58-4.35,5.36-1.42.57-.43-3.24-2.28-2.55l-1.54,4.08,2.55-.51c-.18,4.84,1.77,3.33,4.8,4.65,1.36.59,5.36,3.49,3.88,5.06l-24.01-2.79c-.67-.5-.48-.67-.28-1.32.85-2.84,4.73-5.64,7.73-5.52,1.14.05,1.66,1.07,2.77.95l-1.02-2.55c3.68,1.18,3.95-3.46,5.91-6.09.71-.95,1.4-1.38,2.26-2.08Z"/>
  <path class="cls-4" d="M30.68,4.77c-1.95,1.2-5.13,3.05-6.13,5.1-4.79-.79-10.23,3.84-10.21,8.68-1.51,0-3.2.49-4.6,1.02-5.25-.52-1.19-8.58.81-11.18C15.29,2.21,24.03.99,30.68,4.77Z"/>
  <path class="cls-8" d="M107.27,4.77l5.62,5.1c-2.14.31-7.04,5.43-6.57,7.29.39,1.52,10.68,6.8,10.65,10.57-8.92-2.81-21.75-3.97-31.15-4.59.79-4.06,4.67-7.14,6.64-10.72,1.47.51,3.11,1.05,4.6,1.53l1.02,2.55c-1.11.12-1.64-.9-2.77-.95-3-.12-6.88,2.67-7.73,5.52-.2.66-.38.83.28,1.32l24.01,2.79c1.48-1.57-2.52-4.47-3.88-5.06-3.03-1.32-4.99.19-4.8-4.65l-2.55.51,1.54-4.08c1.85-.7.87,3.11,2.28,2.55,1.94-.78,2.02-4.59,4.35-5.36-1.54-4.35-4.63,2.76-5.61,1.79.19-1.5,1.79-2.61,2.55-3.83.63-1.02,1.12-1.4-.51-1.27,1.29-1.05,1.32-.63,2.04-1.02Z"/>
  <path class="cls-4" d="M92.46,12.43c-1.97,3.57-5.85,6.66-6.64,10.72-1.7-.11-3.64-.45-5.11-.51l2.04-13.27c4.26.92,5.89,1.73,9.7,3.06Z"/>
  <path class="cls-4" d="M54.68,9.37l1.53,13.27h3.07c-2.82.39-4.84.33-7.66.51l-6.13-10.21s-.12-.77.35-1.03c2.89-1.57,5.73-1.89,8.84-2.54Z"/>
  <path class="cls-14" d="M57.23,8.86c2.58.72,4.32,12.53,3.58,13.27h-3.29c-.32-4.41-2.71-8.88-1.31-13.27.32-.05.71.06,1.02,0Z"/>
  <path class="cls-8" d="M82.76,9.37l-2.04,13.27c-.17,0-.34,0-.51,0-1.52-.06-3.07.04-4.6,0-.17,0-.34,0-.51,0-.59-4.73,1.48-9.09,1.53-13.78,2.42-1.57,4.35.13,6.13.51ZM79.64,22.07c.12-1.97,3.88-15.9-1.18-12.15-1.12.83-2.88,11.67-2.34,12.21l3.52-.06Z"/>
  <path class="cls-8" d="M57.23,8.86c.46-.08,1.33-.94,2.24-.55.14.04.77,1.35.82,1.57.87,3.27.94,7.35,2.04,10.72v2.04c-.98.09-2.11-.13-3.06,0h-3.07s-1.53-13.27-1.53-13.27c.45-.09.93-.41,1.53-.51-1.4,4.4.99,8.86,1.31,13.28h3.29c.74-.75-1-12.56-3.58-13.28Z"/>
  <path class="cls-9" d="M129.23,23.66l.51-1.02c-.05.91-.51.96-.51,1.02Z"/>
  <path class="cls-14" d="M115.44,44.07l4.97,1.66c.8,1.2,1,2.62,1.43,3.96.26.83-.13,1.82,1.26,1.52-.07.31.07.71,0,1.02,0,.04-.6-.07-.51.51v.51c-1.27,1.14-1.73,2.81-2.79,4.1-1.61,1.95-10.13,9-10.41,10.02-.88,3.26,7.37,1.19,9.12.68,1.43-.42,1.87-.96,2.04-1.02.15-.05.36.06.51,0,1.17-.44,2.11-1.34,3.57-1.02l.54,5.36c-.71,4.13-13.49,4.45-16.53,5.48-.7.24-.76.85-.86.9-.64.37-.69.71-1.02,1.02-.11.1-.96-.29-1.06.29-.16.96,1.13,3.08,1.82,3.79.9.91,3.46,1.35,2.8,2.8-.5,1.1-7.97,1.9-9.18,1.58-1.08-.29-7.86-4.29-8.51-5.06-.69-.81-1.33-3.38-2-4.38-.56-.83-4.21-5.97-4.52-6.2-1.98-1.49-6.68-1.94-8.97-3.03-.31-.15-.35-.23-.51-.51-1.01-1.78-.41-.43-1.65-1.04-.51-.25-.41-.98-.72-1.03-.99-.15-4.49,1.35-7.12,1.08-2.46-.25-3.9-2.34-6.33.25-.5.53-.4,1.09-.52,1.24-.32.44-.33.8-1.02,1.02-2.68.85-4.35.23-7.1,2.34-.68.52-4.69,4.46-5.17,5.04-.99,1.23-1.09,3.51-2.25,4.9-.92,1.1-6.62,4.55-8.1,5.17-4.97,2.07-6.87-.28-11.59-1.13-.23-1.18.1-.81.66-1.13,1.41-.8,3.6-.87,3.94-2.95.16-.12.36-.35.51-.51.98-1.07,1.5-2.04,0-3.06-2.07-1.41-9.75-1.19-13.28-2.55-2.25-4.12-6.62-2.56-5.1-9.19,3.04.46,13.53,5.12,15.83,2.55.54-.6.71-1.83.27-2.55-.3-.48-6.74-5.3-7.93-6.38-1.3-1.18-2.23-2.63-3.57-3.83l-3.06-9.7c.72-.9,5.11-2.12,6.51-2.43,15.24-3.38,29.73-4.32,45.06-4.72l3.81,4.07,4.36-5.09c12.59-.07,30.02,2.78,42.38,5.61ZM41.77,45.17c-.58.15-1.39.96-1.35,1.65.23,1.33,8.11,4.11,9.55,4.3,2.13.29,3.09-1.06,1.33-2.39-1.13-.86-8.44-3.84-9.53-3.56ZM96.55,45.61c-.82-.83-9.76,2.63-10.93,3.53-.91.7-.18,1.94.98,2.11.74.11,6.9-1.83,7.9-2.32,1.6-.79,2.3-1.35,2.04-3.32ZM44.86,56.42c-7.28,1.04-3.78,17.08,3.22,11.93,3.61-2.66,2.83-12.79-3.22-11.93ZM94.84,57.52c-5.61-5.54-10.34,6.05-6.3,10.39,5.71,6.14,11.26-5.49,6.3-10.39Z"/>
  <path class="cls-3" d="M63.87,25.7c-2.26,2.41-1.58,2.29-.51,4.59.11.24-.12.85,0,1.02.65.95,2.98,2.65,4.08,3.06.16.06.37.57.77.51.49,0,.63-.46.76-.51,1.79-.68,3.01-1.46,4.08-3.06.26-.39.36-.57.51-1.02.4-1.16,1.09-2.99,0-4.08,1.17.26.72-.94,1.76-1.06,7.21-.85,19.72.82,27.03,2.15,3.61,1.81,12.24,1.51,14.9,3.99,1.1,1.03,6.33,11.27,5.84,11.76-3.04-.79-5.96-1.83-9.07-2.41-30.28-5.69-60.31-5.71-90.62,0-2.91.55-5.62,1.95-8.55,2.42-.09-1.09-.08-1.98.28-3.03.34-1,3.21-6.35,3.89-7.34.59-.87,1.37-1.81,2.34-2.25,13.2-2.84,27.1-6.21,40.74-5.24.76.05,1.41.48,1.76.51Z"/>
  <path class="cls-5" d="M10.26,72.66c.16.33.03,1.19.39,1.88,1.49,2.85,4.95,9.89,8.29,10.37.44.71,1.86,1.72,2.55,2.04,14.58,13.18,36.03,17.62,55.39,16.33,12.38-.83,29.61-7.12,38.55-15.82.66-.64,1.23-1.3,2.04-1.79l-1.53-.76c4.65.45,6.73-2.53,8.62-6.44.81-1.69,1.02-4.09,1.59-5.3.11-.22,1.31-1.27,1.74-2.08.81-1.51,1.49-3.08,2.34-4.55,1.09,2.32,5.8,8.39,3.37,10.26-9.49.64-3.02,6.73-4.85,12.4-.66.93-5.48.69-6.83.94-2.82.52-7.58,5.46-10.43,7.44-3.01,2.1-6.26,3.76-9.35,5.71-.15-.01-.36-.03-.51,0-.26.05-.45.25-.51.51-.56.17-.99.33-1.53.51-1.16.4-2.4.67-3.57,1.02-21,6.29-47.87,5.9-67.04-5.72-3.66-2.22-10.45-9.06-13.93-9.55-2.41-.34-6.6.82-6.9-2.85-.4-4.98,3.84-10.16-4.72-10.42-1.98-2.28.56-5.12,1.7-7.19.39-.71.68-1.43,1.02-2.04.09-.17.39-.31.51-.51.06-.11-.04-.34,0-.51h.51c.61,3.32,1.91,3.74,3.06,6.12Z"/>
  <path class="cls-12" d="M3.11,68.57c.46.93.99,1.23,2.04,1.02-1.14,2.07-3.68,4.91-1.7,7.19,8.56.27,4.32,5.44,4.72,10.42.29,3.67,4.49,2.5,6.9,2.85,3.48.5,10.27,7.33,13.93,9.55,19.18,11.62,46.04,12,67.04,5.72.91,1.2,2.74-.25,4.08,0v-.76s-.51-.26-.51-.26c.54-.19.97-.34,1.53-.51.22-.07.41-.3.51-.51.15-.03.36-.01.51,0,2.81.23,4.07-1.07,5.62-.51-1.79,1-4.35,2.82-6.13,3.57-1.34.57-5.48,2.04-7.15,2.55-4.09,1.25-9.49,1.93-13.79,2.55-1.2.17-2.37.37-3.57.51-.66.08-1.38-.07-2.04,0-4.93-.02-9.88.03-14.81,0-.57,0-2.07-.56-3.57-.51-.34.01-.68,0-1.02,0-.36-.83-1.41-.41-2.04-.51-.17-.03-.35.03-.51,0-2.92-.52-6.91-1.26-9.7-2.04-2.33-.65-5.77-2.14-8.17-3.06-.15-.06-.36.06-.51,0-.15-.06-.32-.43-.51-.51-1.71-.71-1.43-1.27-4.08-1.53.38-1.6-2.19-1.47-3.06-2.04-2.6-1.7-8.7-8-10.73-8.92-1.2-.54-4.1-.3-6.12-.78-3.09-.72-4.38-1.58-4.6-5.1-.14-2.38.98-4.42.28-6.67-.13-.19-3.78-1.41-4.37-1.5-.04-.19-.48-.39-.51-.51-.2-.72-.73-1.59-1.02-2.55-.16-.52.14-1.47,0-2.04.91-1.12,1.33-2.89,2.04-4.08.21-.36.82-.68,1.02-1.02Z"/>
  <path class="cls-10" d="M112.89,9.88c4.82-.7,9.81,4.02,10.21,8.68.28,3.21-2.46,7.95-5.11,9.7-.05-.04-.97-.49-1.02-.51.03-3.77-10.26-9.05-10.65-10.57-.47-1.86,4.43-6.98,6.57-7.29Z"/>
  <path class="cls-8" d="M123.1,18.55c9.64-.37,2.42,10.49-2.04,12.76-.54-.54-2.8-2.88-3.06-3.06,2.65-1.75,5.38-6.49,5.11-9.7Z"/>
  <path class="cls-8" d="M9.75,61.43c-.12,1.51,1.31,1.47,2.04,2.04,5.06,3.93,9.01,6.29,15.83,5.61-2.3,2.57-12.79-2.09-15.83-2.55-1.52,6.62,2.85,5.07,5.1,9.19-1.97-.76-4.17-3.14-6.64-3.06-1.16-2.38-2.46-2.8-3.06-6.12-.03-.16,0-.34,0-.51l.51-1.53c.07-.16.44-.33.51-.51.04-.11,0-.33,0-.51.01-.34-.01-.68,0-1.02.14-.85,1.48-.94,1.53-1.02Z"/>
  <path class="cls-8" d="M130.25,66.53c-.85,1.48-1.53,3.04-2.34,4.55-.44.82-1.64,1.86-1.74,2.08-3.62,1.16-6.28,3.06-10.19,3.85-2.61.53-5.53.79-8.2.74.1-.06.16-.67.86-.9,3.04-1.03,15.82-1.35,16.53-5.48l-.54-5.36c-1.46-.32-2.41.58-3.57,1.02.87-.94,2.04-1.79,3.06-2.55,1.26-.94,2.82-1.53,3.57-3.06.5,1.38,1.85,3.61,2.55,5.1Z"/>
  <path class="cls-1" d="M73.57,26.21c1.09,1.09.4,2.92,0,4.08-.86-.12-2.27.29-2.96-.11-.42-.24-.36-1.83-1.63-1.42l-1.02,2.04-1.03-3.06c-1.51,1.08-.86,3.15-3.57,2.55-1.07-2.3-1.75-2.19.51-4.59,1.45.12,3.84.83,4.34.83.97,0,3.74-1.95,5.36-.32Z"/>
  <path class="cls-11" d="M16.39,56.32c-.74-.66-1.16-1.73-2.55-1.53l-2.05,8.68c-.73-.57-2.16-.54-2.04-2.04.86-1.4,1.65-8.66,2.18-10.83.27-1.09.75-3.17,1.39-3.97l3.06,9.7Z"/>
  <path class="cls-11" d="M127.69,61.43c-.75,1.53-2.31,2.12-3.57,3.06l1.95-3.22c-1.91-2.29-1.24-6.09-3.48-8.01v-.51l.51-.51c.07-.31-.07-.71,0-1.02.32-1.46,1.22-2.95,1.02-4.59,1.76,4.77,1.83,10.02,3.57,14.8Z"/>
  <path class="cls-4" d="M73.06,38.46l-4.36,5.09-3.81-4.07c2.34-.06,5.72-1.01,8.17-1.02Z"/>
  <path class="cls-12" d="M7.2,59.39h1.02c-.69,1.1.02,2.76,0,3.06-.01.34.01.68,0,1.02v.51c-.07.19-.44.35-.51.51-.34.8-.57.09-.51,1.53,0,.17-.03.35,0,.51h-.51l-.5.26.5.26c-.12.2-.42.34-.51.51l-2.04-.51c.91-1.76,1.39-3.28,2.04-5.1.3-.85.77-1.69,1.02-2.55Z"/>
  <path class="cls-8" d="M124.12,46.63c.2,1.65-.7,3.13-1.02,4.59-1.38.29-.99-.7-1.26-1.52-.43-1.34-.63-2.76-1.43-3.96l-4.97-1.66c1.88.43,7.74,1.4,8.68,2.55Z"/>
  <path class="cls-4" d="M80.21,22.64c-.95.86-3.64.86-4.6,0,1.53.04,3.07-.06,4.6,0Z"/>
  <path class="cls-12" d="M128.71,29.78c.17-.15.31-.4.51-.51-.02.26-.26.45-.51.51Z"/>
  <path class="cls-12" d="M5.15,21.11l-.51-.51h.51c.02.17-.03.35,0,.51Z"/>
  <path class="cls-10" d="M24.56,9.88c1.7.28,6.16,5.1,6.12,6.91-.03,1.3-4.39,4.03-5.6,6.36-.19.12-.77.14-1.28.48-1.6,1.07-3.28,4.66-5.5,4.04-2.52-.7-3.93-6.88-3.94-9.11-.02-4.84,5.42-9.47,10.21-8.68Z"/>
  <path class="cls-14" d="M25.07,23.15c1.5-1,4.03-2.04,5.36-3.07,1.09-.84,2.93-3.6,3.33-3.82,1.83-1.03,7.61-.57,9.97-1.83l.63.16,5.23,7.27-25.28,3.85c-.5-.42.5-2.06.76-2.56Z"/>
  <path class="cls-14" d="M79.64,22.07l-3.52.06c-.54-.54,1.22-11.38,2.34-12.21,5.07-3.75,1.3,10.18,1.18,12.15Z"/>
  <path class="cls-12" d="M76.63,68.06c.16.29.2.36.51.51.36.61.57,1.32.51,2.04-.4,4.93-5.11,3.75-6.67,6.34-2.49,4.15,4.56,8.61,9.22,3.35,1.19-.14,2.1.21,2.04,1.53-1.76,2.74-6.08,4.14-9.21,3.33-1.26-.33-3.53-2.3-4.32-2.31-.42,0-3.02,1.66-4.34,2.04-.31.09-1.94.5-2.04.51-.46.04-1.08.05-1.53,0l-1.02-1.02h1.02s0-1.02,0-1.02l-.92-.09.42-.42c.84-.06,1.72.09,2.55,0,1-.11.92-.26,1.53-.51,2.02-.81,3.13-2.43,2.46-4.74-.73-2.49-6.57-2.33-7.56-7-.06-.3.04-.69,0-1.02.69-.22.7-.58,1.02-1.02,3.21-1.95,5.63-.1,8.42-.11,2.46,0,5-1.59,7.91-.41Z"/>
  <path class="cls-4" d="M16.9,75.72c3.53,1.37,11.21,1.14,13.28,2.55v3.06c-.15.16-.35.39-.51.51-2.46,1.78-7.71,3.5-10.72,3.06-3.34-.48-6.8-7.52-8.29-10.37-.36-.69-.24-1.55-.39-1.88,2.47-.08,4.67,2.3,6.64,3.06Z"/>
  <path class="cls-4" d="M126.16,73.17c-.57,1.21-.78,3.61-1.59,5.3-1.88,3.91-3.97,6.89-8.62,6.44-2.86-.27-10.22-2.24-9.19-6.12.33-.31.38-.65,1.02-1.02,2.67.05,5.59-.21,8.2-.74,3.9-.8,6.56-2.7,10.19-3.85Z"/>
  <path class="cls-4" d="M124.12,64.49c-1.02.76-2.19,1.61-3.06,2.55-.15.06-.36-.05-.51,0l-2.04,1.02c-1.75.51-9.99,2.58-9.12-.68.28-1.03,8.8-8.07,10.41-10.02,1.07-1.29,1.52-2.96,2.79-4.1,2.24,1.92,1.57,5.72,3.48,8.01l-1.95,3.22Z"/>
  <path class="cls-4" d="M11.79,63.47l2.05-8.68c1.39-.2,1.81.87,2.55,1.53,1.34,1.2,2.27,2.66,3.57,3.83,1.19,1.08,7.63,5.89,7.93,6.38.44.72.27,1.95-.27,2.55-6.82.67-10.77-1.69-15.83-5.61Z"/>
  <path class="cls-9" d="M94.84,57.52c4.96,4.89-.59,16.52-6.3,10.39-4.04-4.34.69-15.92,6.3-10.39Z"/>
  <path class="cls-9" d="M44.86,56.42c6.04-.86,6.83,9.27,3.22,11.93-7,5.15-10.5-10.88-3.22-11.93Z"/>
  <path class="cls-8" d="M59.27,69.59c.04.33-.06.72,0,1.02-7.14.47-9.85,8.08-14.02,12.27-6.53,6.57-15.36,7.94-23.76,4.06-.69-.32-2.12-1.34-2.55-2.04,3.01.44,8.27-1.28,10.72-3.06-.34,2.08-2.53,2.15-3.94,2.95-.56.32-.88-.06-.66,1.13,4.72.85,6.61,3.2,11.59,1.13,1.49-.62,7.19-4.07,8.1-5.17,1.16-1.38,1.26-3.67,2.25-4.9.47-.59,4.49-4.52,5.17-5.04,2.75-2.11,4.42-1.5,7.1-2.34Z"/>
  <path class="cls-8" d="M77.15,68.57c2.29,1.09,6.98,1.54,8.97,3.03.31.23,3.96,5.37,4.52,6.2.67,1,1.3,3.57,2,4.38.65.76,7.43,4.77,8.51,5.06,1.21.32,8.69-.48,9.18-1.58.65-1.45-1.91-1.89-2.8-2.8-.7-.71-1.98-2.83-1.82-3.79.1-.58.95-.19,1.06-.29-1.03,3.88,6.33,5.85,9.19,6.12l1.53.76c-.81.49-1.38,1.14-2.04,1.79-7.8,2.95-16.32,2.06-22.41-3.88-4.55-4.44-7.36-13.21-15.37-12.96.06-.72-.15-1.43-.51-2.04Z"/>
  <path class="cls-9" d="M41.77,45.17c1.09-.28,8.4,2.7,9.53,3.56,1.75,1.33.8,2.68-1.33,2.39-1.44-.2-9.32-2.98-9.55-4.3-.04-.69.78-1.5,1.35-1.65Z"/>
  <path class="cls-9" d="M96.55,45.61c.26,1.97-.44,2.53-2.04,3.32-1,.49-7.16,2.43-7.9,2.32-1.17-.17-1.9-1.41-.98-2.11,1.17-.9,10.11-4.36,10.93-3.53Z"/>
  <path class="cls-8" d="M60.3,68.57c.12-.16.02-.71.52-1.24,2.43-2.6,3.87-.51,6.33-.25,2.62.27,6.13-1.23,7.12-1.08.31.05.21.77.72,1.03,1.24.61.64-.74,1.65,1.04-2.91-1.18-5.45.4-7.91.41-2.79,0-5.21-1.85-8.42.11Z"/>
  <path class="cls-8" d="M30.17,81.33v-3.06c1.5,1.02.98,1.99,0,3.06Z"/>
  <path class="cls-8" d="M118.5,68.06l2.04-1.02c-.18.06-.61.6-2.04,1.02Z"/>
  <path class="cls-8" d="M122.59,52.75c-.09-.58.5-.48.51-.51l-.51.51Z"/>
  <path class="cls-13" d="M63.36,30.29c2.71.6,2.06-1.47,3.57-2.55l1.03,3.06,1.02-2.04c1.26-.41,1.21,1.18,1.63,1.42.7.4,2.11-.01,2.96.11-.15.45-.25.63-.51,1.02-2.96-.35-5.29-.74-4.08,3.06-.12.05-.27.52-.76.51-.4.06-.61-.45-.77-.51l-.52-4.08-3.57,1.02c-.12-.17.11-.78,0-1.02Z"/>
  <path class="cls-7" d="M73.06,31.31c-1.08,1.6-2.29,2.38-4.08,3.06-1.2-3.81,1.13-3.41,4.08-3.06Z"/>
  <path class="cls-2" d="M67.44,34.38c-1.11-.41-3.44-2.11-4.08-3.06l3.57-1.02.52,4.08Z"/>
  <path class="cls-10" d="M59.27,70.61c.99,4.67,6.84,4.51,7.56,7,.67,2.3-.43,3.93-2.46,4.74l-1.53.51c-.83.09-1.71-.06-2.55,0-.06-.54-.58-.58-1.02-.51-.38-.65-1.74-1.12-2.04-1.53-.53-.71-.79-2.16-1.03-3.06l-1.55.23c-1.4,2.07-.05,3.03,1.05,4.37.39.47.51.63,1.02,1.02,1.16.88,2.62,1.87,4.08,2.04.45.05,1.07.04,1.53,0l2.04-.51c1.32-.38,3.92-2.04,4.34-2.04.79,0,3.06,1.98,4.32,2.31,3.12.81,7.45-.59,9.21-3.33.59-.91,2.06-3.69.25-4.08-.98-.21-1.72,1.91-2.29,2.55-4.66,5.25-11.71.8-9.22-3.35,1.55-2.59,6.27-1.42,6.67-6.34,8.01-.25,10.82,8.52,15.37,12.96,6.09,5.94,14.61,6.84,22.41,3.88-8.94,8.69-26.17,14.99-38.55,15.82-19.36,1.29-40.81-3.15-55.39-16.33,8.4,3.88,17.24,2.51,23.76-4.06,4.16-4.19,6.88-11.8,14.02-12.27Z"/>
  <path class="cls-9" d="M6.17,67.55c-.34.61-.63,1.33-1.02,2.04-1.05.21-1.58-.09-2.04-1.02.32-.55.82-1.14,1.02-1.53l2.04.51Z"/>
  <path class="cls-9" d="M99.61,104.3l.51.26v.76c-1.34-.24-3.17,1.2-4.08,0,1.17-.35,2.42-.62,3.57-1.02Z"/>
  <path class="cls-9" d="M101.14,103.79c.06-.26.25-.46.51-.51-.1.21-.29.44-.51.51Z"/>
  <path class="cls-9" d="M6.68,67.04l-.5-.26.5-.26c-.04.17.06.4,0,.51Z"/>
  <path class="cls-1" d="M34.77,105.83l-.51-.51c.19.08.36.45.51.51Z"/>
  <path class="cls-9" d="M7.2,66.02c-.06-1.44.17-.73.51-1.53l-.51,1.53Z"/>
  <path class="cls-9" d="M8.22,63.98v-.51c0,.18.04.4,0,.51Z"/>
  <path class="cls-11" d="M82.25,81.84c.06-1.32-.85-1.67-2.04-1.53.57-.64,1.31-2.76,2.29-2.55,1.81.39.34,3.17-.25,4.08Z"/>
  <path class="cls-6" d="M60.3,82.86l-.42.42.92.09v1.01s-1.01,0-1.01,0l1.02,1.02c-1.47-.17-2.93-1.17-4.08-2.04.91.09,1.92-.92,2.55-1.02.44-.07.96-.03,1.02.51Z"/>
  <path class="cls-6" d="M64.38,84.91l-2.04.51c.1,0,1.73-.42,2.04-.51Z"/>
  <path class="cls-6" d="M64.38,82.35c-.61.25-.53.4-1.53.51l1.53-.51Z"/>
  <path class="cls-6" d="M55.7,82.35c-1.1-1.33-2.44-2.29-1.05-4.37l1.55-.23c.24.9.5,2.35,1.03,3.06-1.01-.04-1.57.5-1.53,1.53Z"/>
  <path class="cls-12" d="M57.23,80.82c.31.41,1.66.88,2.04,1.53-.63.1-1.65,1.11-2.55,1.02-.51-.39-.63-.55-1.02-1.02-.04-1.03.52-1.57,1.53-1.53Z"/>
</svg>