<?xml version="1.0" encoding="UTF-8"?>
<svg id="_레이어_1" data-name="레이어 1" xmlns="http://www.w3.org/2000/svg" viewBox="0 0 116.85 99.54">
  <defs>
    <style>
      .cls-1 {
        fill: #e0dfde;
      }

      .cls-2 {
        fill: #581b40;
      }

      .cls-3 {
        fill: #712c48;
      }

      .cls-4 {
        fill: #4a2539;
      }

      .cls-5 {
        fill: #799452;
      }

      .cls-6 {
        fill: #68804c;
      }

      .cls-7 {
        fill: #40433d;
      }

      .cls-8 {
        fill: #c5c4c3;
      }

      .cls-9 {
        fill: #25282a;
      }
    </style>
  </defs>
  <path class="cls-9" d="M50.55.02c2.93-.08,5.79.13,8.68.51,1.13.15,5.49.82,6.13,1.02,1.89.61,8.58,3.93,10.72,5.1,1.86,1.02,4.01,3.69,6.13,4.08.39,1.01,1.31,1.41,2.04,2.04,2.22,1.92,4.06,4.06,6.13,6.12.74.74,1.1,2.07,2.55,2.04,1.09,4.96,5.72,1.62,8.17.51,1.85-.84,7.08-3.1,8.17-4.59,2.04-.48,3.35,1.5,4.08,3.06.45.96,2.48,6.79,2.55,7.66.46,5.41-5.25,5.25-9.19,6.64-.42,1.33,1.84,1.16,3.06,1.52,5.78,1.71,8.72.66,6.13,8.17-1.97.58-2.44,5.2-6.13,5.61-1.43.16-2.01-.33-3.06-.51-1.42-.24-3.29-.5-4.6-1.02-.3-.12-2.35-1.8-2.55-1.53.18,5.14-.25,10.24-1.03,15.31-.37,2.42-.95,6.47-1.53,8.68-.42,1.59-1.46,4.09-2.04,6.12-.67,2.34-1.77,5.17-2.55,7.66-.57,1.81-2.09,8.6-3.42,9.11-.67.25-1.5.03-2.2.08,3.42-16.18,10.43-30.14,9.21-47.23-.27-3.72-.45-5.04-3.43-7.29-12.93-9.77-48.99-14.99-64.69-13.3-2.18.23-13.84,2.05-14.66,3.34-2.32,6.04-2.44,13.97-4.52,19.85-1.12,3.17-4.38,6.46-5.14,9.92-4.72,21.44,22.2,35.91,40.06,37.28,5.27.4,10.36-.83,15.59-1.04,0,.69.13,1.41-.25,2.05-.09.15-2.65,1.98-2.82,2.03-1.13.37-11.79.14-13.79,0-2.84-.19-5.91-.88-8.68-1.53s-5.42-1.78-8.17-2.55c-1.04-.29-2.08-.89-3.06-1.02-1.59-1.2-3.43-1.97-5.11-3.06-5.16-3.36-10.91-8.25-13.79-13.78-.63-1.2-1.19-3.24-1.77-4.64-.32-.78.05-1.79-1.29-1.49,0-.34.02-.68,0-1.02,0-.09.01-.27,0-.51-.02-.51.02-1.02,0-1.53-.07-2.28-.47-4.64-.51-7.15-.02-1.31.5-2.38.51-3.57,1.24-1.29,1.34-3.73,2.04-5.1,1.8-3.49,2.47-3,3.57-7.66.04-.16-.04-.35,0-.51.61-2.71,1.12-5.42,1.53-8.17s.87-4.22,1.02-7.15c1.52.28.82-.53,1.02-1.02,1.02-2.47,1.73-6.28,2.55-8.17.4-.9,4.3-6.08,5.11-6.64.93-.64,2.69-1.19,4.08-2.04s2.76-1.8,4.08-2.55c3.49-1.99,7.19-3.72,10.72-5.61,2.11-.23,4.04-1.19,6.13-1.53,2.72-.45,5.4-.95,8.17-1.02ZM84.25,17.36C70.74,2.82,49.48-.68,31.66,8.19c-.14.85,1.25.56,1.8.52,11.91-.74,24.03.54,35.58,3.7,5.14,1.4,10.03,3.69,15.21,4.95ZM91.4,24.52c-.14-.14.02-1.32-.86-1.42-19.6-8.45-42.09-14.79-63.59-10.68-7.71,1.47-9.42,3.1-12.14,10.07-.18.45-1.8,1.62-.76,2.56,23.39-5.36,48.62-2.12,70.71,6.63,2.46.97,4.57,2.34,7.15,3.06.65.18,1.43,1,2.49.44,1.52-4.01-.26-7.83-3-10.65ZM108.76,30.13c1.4-.32,3.36.34,4.63-1.37.22-1.06-3.05-8.09-3.93-8.25-1.65.9-12.19,5.67-12.39,6.39-.57,1.99,1.38,2.1,1.48,2.22.16.19.11,1.13.71,1.57.94.7,6.3.67,7.71.45,1.09-.17,1.65-.96,1.8-1ZM101.61,37.28c-.15-.01-.86-.84-1.53-.51-.39,1.51-1.49,5.51-.18,6.68.31.28,5.67,2.62,6.3,2.76,2.86.64,4.66.17,5.62-2.81.77-.45,3.33-2.95,2.03-3.81-4.06-1.06-8.09-1.97-12.24-2.31Z"/>
  <path class="cls-5" d="M86.8,93.42c-.43.03-.89.01-1.02.51-.63.07-1.1.42-1.53.51-2.92.58-5.78,1.94-8.68,2.55-2.13.45-4.47.67-6.64,1.02-.17.03-.34-.03-.51,0,1.45-2.5,3.41-4.48,5.01-6.99.64-1,5.07-8.95,4.69-9.34-1.82.61-3.13,2.1-4.91,3-18.13,9.12-58.7,6.81-67.11-14.96-1.34-3.46-1.68-7.42-2.52-11.01.76-3.46,4.02-6.76,5.14-9.92,2.08-5.88,2.21-13.81,4.52-19.85.82-1.28,12.48-3.1,14.66-3.34,15.69-1.69,51.76,3.53,64.69,13.3,2.98,2.25,3.16,3.57,3.43,7.29,1.22,17.09-5.8,31.05-9.21,47.23ZM19.77,40.95c-4.01.9-4.92,9.38-.49,11.53,7.5,3.64,8.85-13.4.49-11.53ZM62.16,42.46c-5.34.97-5.62,13.67,1.91,12.16,4.29-.86,4-13.23-1.91-12.16ZM32.22,55.19c-1.24.77-.28,4.39,2.02,2.78,1.6-1.12-.3-3.86-2.02-2.78ZM42.38,55.14c-1.29-1.3-4.15,1.96-1.79,3.56,1.41-.13,2.48-2.86,1.79-3.56ZM20.18,64.33c-1.74,1.3.03,3.36,1.3,4.31,2.47,1.84,6.34,2.04,9,3.25,2.06.93,3.43,2.95,6.03,3.18,3.37.3,4.81-1.69,7.56-2.67,6.11-2.17,13.67,1.06,18.22-4.76-.94-2.95-3.99.4-6.42.73-3.25.44-7.18-.1-10.56.68-2.9.67-5.36,3.18-8.28,2.97-2.19-.15-3.86-2.04-5.89-2.83s-4.24-.83-6.31-1.86c-1.93-.96-2.67-2.76-4.65-3Z"/>
  <path class="cls-3" d="M91.4,24.52c1.04,3.33,2.95,6.93.51,10.21-2.57-.72-4.69-2.09-7.15-3.06-.3-1.77-2.96-2.8-4.41-3.5-12.57-6.09-35.59-9.33-49.45-8.23-5,.4-9.73,2.27-14.56,3.36-1.2.27-.91.13-1.53-.82,2.72-6.97,4.43-8.59,12.14-10.07,21.5-4.11,43.99,2.23,63.59,10.68.88.1.72,1.28.86,1.42Z"/>
  <path class="cls-6" d="M3.57,58.71c.84,3.59,1.18,7.54,2.52,11.01,8.41,21.77,48.98,24.09,67.11,14.96,1.78-.9,3.09-2.39,4.91-3,.38.39-4.05,8.34-4.69,9.34-1.6,2.51-3.56,4.49-5.01,6.99-3.29.51-5.91.73-9.19,1.02-1.04.09-2.02.44-3.06.51v-.51c.16-.05,2.73-1.89,2.82-2.03.38-.64.25-1.36.25-2.05-5.23.21-10.32,1.44-15.59,1.04-17.86-1.36-44.78-15.83-40.06-37.28Z"/>
  <path class="cls-5" d="M84.25,17.36c-5.18-1.26-10.07-3.55-15.21-4.95-11.55-3.16-23.67-4.44-35.58-3.7-.55.03-1.94.33-1.8-.52C49.48-.68,70.74,2.82,84.25,17.36Z"/>
  <path class="cls-2" d="M84.76,31.66c-22.09-8.75-47.32-11.99-70.71-6.63-1.04-.93.58-2.11.76-2.56.62.95.33,1.09,1.53.82,4.83-1.09,9.56-2.97,14.56-3.36,13.86-1.1,36.87,2.14,49.45,8.23,1.45.7,4.12,1.73,4.41,3.5Z"/>
  <path class="cls-3" d="M98.54,29.11c-.1-.12-2.05-.23-1.48-2.22.21-.72,10.74-5.49,12.39-6.39.88.16,4.15,7.19,3.93,8.25-1.27,1.71-3.23,1.05-4.63,1.37l-.51-2.55c-3.28.41-6.32,1.97-9.7,1.53Z"/>
  <path class="cls-2" d="M111.82,43.4c-.14.08-2.99.98-3.19.95-2.04-.27-8.41-4.13-7.02-7.08,4.15.34,8.18,1.25,12.24,2.31,1.31.86-1.25,3.36-2.03,3.81Z"/>
  <path class="cls-4" d="M101.61,37.28c-1.39,2.94,4.98,6.81,7.02,7.08.2.03,3.05-.87,3.19-.95-.97,2.98-2.76,3.45-5.62,2.81-.63-.14-5.99-2.48-6.3-2.76-1.3-1.17-.2-5.17.18-6.68.67-.33,1.37.5,1.53.51Z"/>
  <path class="cls-4" d="M98.54,29.11c3.38.44,6.42-1.12,9.7-1.53l.51,2.55c-.15.03-.71.83-1.8,1-1.41.22-6.77.25-7.71-.45-.59-.44-.54-1.38-.71-1.57Z"/>
  <path class="cls-4" d="M91.4,24.52c2.74,2.82,4.52,6.64,3,10.65-1.07.55-1.85-.26-2.49-.44,2.44-3.27.53-6.88-.51-10.21Z"/>
  <path class="cls-8" d="M.51,69.94v-.51c.01.24,0,.42,0,.51Z"/>
  <path class="cls-9" d="M20.18,64.33c1.98.24,2.72,2.04,4.65,3,2.07,1.03,4.31,1.08,6.31,1.86s3.69,2.68,5.89,2.83c2.92.2,5.38-2.31,8.28-2.97,3.37-.78,7.31-.24,10.56-.68,2.44-.33,5.48-3.68,6.42-.73-4.54,5.82-12.11,2.59-18.22,4.76-2.75.98-4.2,2.97-7.56,2.67-2.6-.23-3.97-2.25-6.03-3.18-2.66-1.2-6.53-1.4-9-3.25-1.27-.95-3.04-3-1.3-4.31Z"/>
  <path class="cls-9" d="M19.77,40.95c8.35-1.87,7.01,15.16-.49,11.53-4.43-2.15-3.52-10.62.49-11.53Z"/>
  <path class="cls-9" d="M62.16,42.46c5.91-1.07,6.2,11.3,1.91,12.16-7.53,1.51-7.25-11.19-1.91-12.16Z"/>
  <path class="cls-9" d="M32.22,55.19c1.72-1.08,3.62,1.66,2.02,2.78-2.3,1.61-3.26-2.01-2.02-2.78Z"/>
  <path class="cls-7" d="M42.38,55.14c.69.7-.38,3.42-1.79,3.56-2.36-1.6.49-4.86,1.79-3.56Z"/>
  <path class="cls-1" d="M8.17,85.76l-.51-.51.51.51Z"/>
  <path class="cls-1" d="M3.57,43.91c.17.01.34,0,.51,0h-.51Z"/>
</svg>